<?xml version="1.0" encoding="utf-8" standalone="no"?>
<!DOCTYPE svg PUBLIC "-//W3C//DTD SVG 1.1//EN"
  "http://www.w3.org/Graphics/SVG/1.1/DTD/svg11.dtd">
<!-- Created with matplotlib (https://matplotlib.org/) -->
<svg height="216pt" version="1.1" viewBox="0 0 504 216" width="504pt" xmlns="http://www.w3.org/2000/svg" xmlns:xlink="http://www.w3.org/1999/xlink">
 <metadata>
  <rdf:RDF xmlns:cc="http://creativecommons.org/ns#" xmlns:dc="http://purl.org/dc/elements/1.1/" xmlns:rdf="http://www.w3.org/1999/02/22-rdf-syntax-ns#">
   <cc:Work>
    <dc:type rdf:resource="http://purl.org/dc/dcmitype/StillImage"/>
    <dc:date>2024-01-19T14:44:17.936551</dc:date>
    <dc:format>image/svg+xml</dc:format>
    <dc:creator>
     <cc:Agent>
      <dc:title>Matplotlib v3.3.2, https://matplotlib.org/</dc:title>
     </cc:Agent>
    </dc:creator>
   </cc:Work>
  </rdf:RDF>
 </metadata>
 <defs>
  <style type="text/css">*{stroke-linecap:butt;stroke-linejoin:round;}</style>
 </defs>
 <g id="figure_1">
  <g id="patch_1">
   <path d="M 0 216 
L 504 216 
L 504 0 
L 0 0 
z
" style="fill:none;"/>
  </g>
  <g id="axes_1">
   <g id="patch_2">
    <path d="M 32.55 188.2 
L 482.0125 188.2 
L 482.0125 14.8 
L 32.55 14.8 
z
" style="fill:none;"/>
   </g>
   <g id="matplotlib.axis_1">
    <g id="xtick_1">
     <g id="line2d_1">
      <defs>
       <path d="M 0 0 
L 0 3.5 
" id="macaef143ca" style="stroke:#000000;stroke-width:0.8;"/>
      </defs>
      <g>
       <use style="stroke:#000000;stroke-width:0.8;" x="32.55" xlink:href="#macaef143ca" y="188.2"/>
      </g>
     </g>
     <g id="text_1">
      <!-- 0.00 -->
      <g transform="translate(21.417188 202.798438)scale(0.1 -0.1)">
       <defs>
        <path d="M 31.78125 66.40625 
Q 24.171875 66.40625 20.328125 58.90625 
Q 16.5 51.421875 16.5 36.375 
Q 16.5 21.390625 20.328125 13.890625 
Q 24.171875 6.390625 31.78125 6.390625 
Q 39.453125 6.390625 43.28125 13.890625 
Q 47.125 21.390625 47.125 36.375 
Q 47.125 51.421875 43.28125 58.90625 
Q 39.453125 66.40625 31.78125 66.40625 
z
M 31.78125 74.21875 
Q 44.046875 74.21875 50.515625 64.515625 
Q 56.984375 54.828125 56.984375 36.375 
Q 56.984375 17.96875 50.515625 8.265625 
Q 44.046875 -1.421875 31.78125 -1.421875 
Q 19.53125 -1.421875 13.0625 8.265625 
Q 6.59375 17.96875 6.59375 36.375 
Q 6.59375 54.828125 13.0625 64.515625 
Q 19.53125 74.21875 31.78125 74.21875 
z
" id="DejaVuSans-48"/>
        <path d="M 10.6875 12.40625 
L 21 12.40625 
L 21 0 
L 10.6875 0 
z
" id="DejaVuSans-46"/>
       </defs>
       <use xlink:href="#DejaVuSans-48"/>
       <use x="63.623047" xlink:href="#DejaVuSans-46"/>
       <use x="95.410156" xlink:href="#DejaVuSans-48"/>
       <use x="159.033203" xlink:href="#DejaVuSans-48"/>
      </g>
     </g>
    </g>
    <g id="xtick_2">
     <g id="line2d_2">
      <g>
       <use style="stroke:#000000;stroke-width:0.8;" x="88.732812" xlink:href="#macaef143ca" y="188.2"/>
      </g>
     </g>
     <g id="text_2">
      <!-- 0.25 -->
      <g transform="translate(77.6 202.798438)scale(0.1 -0.1)">
       <defs>
        <path d="M 19.1875 8.296875 
L 53.609375 8.296875 
L 53.609375 0 
L 7.328125 0 
L 7.328125 8.296875 
Q 12.9375 14.109375 22.625 23.890625 
Q 32.328125 33.6875 34.8125 36.53125 
Q 39.546875 41.84375 41.421875 45.53125 
Q 43.3125 49.21875 43.3125 52.78125 
Q 43.3125 58.59375 39.234375 62.25 
Q 35.15625 65.921875 28.609375 65.921875 
Q 23.96875 65.921875 18.8125 64.3125 
Q 13.671875 62.703125 7.8125 59.421875 
L 7.8125 69.390625 
Q 13.765625 71.78125 18.9375 73 
Q 24.125 74.21875 28.421875 74.21875 
Q 39.75 74.21875 46.484375 68.546875 
Q 53.21875 62.890625 53.21875 53.421875 
Q 53.21875 48.921875 51.53125 44.890625 
Q 49.859375 40.875 45.40625 35.40625 
Q 44.1875 33.984375 37.640625 27.21875 
Q 31.109375 20.453125 19.1875 8.296875 
z
" id="DejaVuSans-50"/>
        <path d="M 10.796875 72.90625 
L 49.515625 72.90625 
L 49.515625 64.59375 
L 19.828125 64.59375 
L 19.828125 46.734375 
Q 21.96875 47.46875 24.109375 47.828125 
Q 26.265625 48.1875 28.421875 48.1875 
Q 40.625 48.1875 47.75 41.5 
Q 54.890625 34.8125 54.890625 23.390625 
Q 54.890625 11.625 47.5625 5.09375 
Q 40.234375 -1.421875 26.90625 -1.421875 
Q 22.3125 -1.421875 17.546875 -0.640625 
Q 12.796875 0.140625 7.71875 1.703125 
L 7.71875 11.625 
Q 12.109375 9.234375 16.796875 8.0625 
Q 21.484375 6.890625 26.703125 6.890625 
Q 35.15625 6.890625 40.078125 11.328125 
Q 45.015625 15.765625 45.015625 23.390625 
Q 45.015625 31 40.078125 35.4375 
Q 35.15625 39.890625 26.703125 39.890625 
Q 22.75 39.890625 18.8125 39.015625 
Q 14.890625 38.140625 10.796875 36.28125 
z
" id="DejaVuSans-53"/>
       </defs>
       <use xlink:href="#DejaVuSans-48"/>
       <use x="63.623047" xlink:href="#DejaVuSans-46"/>
       <use x="95.410156" xlink:href="#DejaVuSans-50"/>
       <use x="159.033203" xlink:href="#DejaVuSans-53"/>
      </g>
     </g>
    </g>
    <g id="xtick_3">
     <g id="line2d_3">
      <g>
       <use style="stroke:#000000;stroke-width:0.8;" x="144.915625" xlink:href="#macaef143ca" y="188.2"/>
      </g>
     </g>
     <g id="text_3">
      <!-- 0.50 -->
      <g transform="translate(133.782813 202.798438)scale(0.1 -0.1)">
       <use xlink:href="#DejaVuSans-48"/>
       <use x="63.623047" xlink:href="#DejaVuSans-46"/>
       <use x="95.410156" xlink:href="#DejaVuSans-53"/>
       <use x="159.033203" xlink:href="#DejaVuSans-48"/>
      </g>
     </g>
    </g>
    <g id="xtick_4">
     <g id="line2d_4">
      <g>
       <use style="stroke:#000000;stroke-width:0.8;" x="201.098437" xlink:href="#macaef143ca" y="188.2"/>
      </g>
     </g>
     <g id="text_4">
      <!-- 0.75 -->
      <g transform="translate(189.965625 202.798438)scale(0.1 -0.1)">
       <defs>
        <path d="M 8.203125 72.90625 
L 55.078125 72.90625 
L 55.078125 68.703125 
L 28.609375 0 
L 18.3125 0 
L 43.21875 64.59375 
L 8.203125 64.59375 
z
" id="DejaVuSans-55"/>
       </defs>
       <use xlink:href="#DejaVuSans-48"/>
       <use x="63.623047" xlink:href="#DejaVuSans-46"/>
       <use x="95.410156" xlink:href="#DejaVuSans-55"/>
       <use x="159.033203" xlink:href="#DejaVuSans-53"/>
      </g>
     </g>
    </g>
    <g id="xtick_5">
     <g id="line2d_5">
      <g>
       <use style="stroke:#000000;stroke-width:0.8;" x="257.28125" xlink:href="#macaef143ca" y="188.2"/>
      </g>
     </g>
     <g id="text_5">
      <!-- 1.00 -->
      <g transform="translate(246.148438 202.798438)scale(0.1 -0.1)">
       <defs>
        <path d="M 12.40625 8.296875 
L 28.515625 8.296875 
L 28.515625 63.921875 
L 10.984375 60.40625 
L 10.984375 69.390625 
L 28.421875 72.90625 
L 38.28125 72.90625 
L 38.28125 8.296875 
L 54.390625 8.296875 
L 54.390625 0 
L 12.40625 0 
z
" id="DejaVuSans-49"/>
       </defs>
       <use xlink:href="#DejaVuSans-49"/>
       <use x="63.623047" xlink:href="#DejaVuSans-46"/>
       <use x="95.410156" xlink:href="#DejaVuSans-48"/>
       <use x="159.033203" xlink:href="#DejaVuSans-48"/>
      </g>
     </g>
    </g>
    <g id="xtick_6">
     <g id="line2d_6">
      <g>
       <use style="stroke:#000000;stroke-width:0.8;" x="313.464063" xlink:href="#macaef143ca" y="188.2"/>
      </g>
     </g>
     <g id="text_6">
      <!-- 1.25 -->
      <g transform="translate(302.33125 202.798438)scale(0.1 -0.1)">
       <use xlink:href="#DejaVuSans-49"/>
       <use x="63.623047" xlink:href="#DejaVuSans-46"/>
       <use x="95.410156" xlink:href="#DejaVuSans-50"/>
       <use x="159.033203" xlink:href="#DejaVuSans-53"/>
      </g>
     </g>
    </g>
    <g id="xtick_7">
     <g id="line2d_7">
      <g>
       <use style="stroke:#000000;stroke-width:0.8;" x="369.646875" xlink:href="#macaef143ca" y="188.2"/>
      </g>
     </g>
     <g id="text_7">
      <!-- 1.50 -->
      <g transform="translate(358.514062 202.798438)scale(0.1 -0.1)">
       <use xlink:href="#DejaVuSans-49"/>
       <use x="63.623047" xlink:href="#DejaVuSans-46"/>
       <use x="95.410156" xlink:href="#DejaVuSans-53"/>
       <use x="159.033203" xlink:href="#DejaVuSans-48"/>
      </g>
     </g>
    </g>
    <g id="xtick_8">
     <g id="line2d_8">
      <g>
       <use style="stroke:#000000;stroke-width:0.8;" x="425.829687" xlink:href="#macaef143ca" y="188.2"/>
      </g>
     </g>
     <g id="text_8">
      <!-- 1.75 -->
      <g transform="translate(414.696875 202.798438)scale(0.1 -0.1)">
       <use xlink:href="#DejaVuSans-49"/>
       <use x="63.623047" xlink:href="#DejaVuSans-46"/>
       <use x="95.410156" xlink:href="#DejaVuSans-55"/>
       <use x="159.033203" xlink:href="#DejaVuSans-53"/>
      </g>
     </g>
    </g>
    <g id="xtick_9">
     <g id="line2d_9">
      <g>
       <use style="stroke:#000000;stroke-width:0.8;" x="482.0125" xlink:href="#macaef143ca" y="188.2"/>
      </g>
     </g>
     <g id="text_9">
      <!-- 2.00 -->
      <g transform="translate(470.879687 202.798438)scale(0.1 -0.1)">
       <use xlink:href="#DejaVuSans-50"/>
       <use x="63.623047" xlink:href="#DejaVuSans-46"/>
       <use x="95.410156" xlink:href="#DejaVuSans-48"/>
       <use x="159.033203" xlink:href="#DejaVuSans-48"/>
      </g>
     </g>
    </g>
   </g>
   <g id="matplotlib.axis_2">
    <g id="ytick_1">
     <g id="line2d_10">
      <defs>
       <path d="M 0 0 
L -3.5 0 
" id="m94a851503b" style="stroke:#000000;stroke-width:0.8;"/>
      </defs>
      <g>
       <use style="stroke:#000000;stroke-width:0.8;" x="32.55" xlink:href="#m94a851503b" y="188.2"/>
      </g>
     </g>
     <g id="text_10">
      <!-- −4 -->
      <g transform="translate(10.807813 191.999219)scale(0.1 -0.1)">
       <defs>
        <path d="M 10.59375 35.5 
L 73.1875 35.5 
L 73.1875 27.203125 
L 10.59375 27.203125 
z
" id="DejaVuSans-8722"/>
        <path d="M 37.796875 64.3125 
L 12.890625 25.390625 
L 37.796875 25.390625 
z
M 35.203125 72.90625 
L 47.609375 72.90625 
L 47.609375 25.390625 
L 58.015625 25.390625 
L 58.015625 17.1875 
L 47.609375 17.1875 
L 47.609375 0 
L 37.796875 0 
L 37.796875 17.1875 
L 4.890625 17.1875 
L 4.890625 26.703125 
z
" id="DejaVuSans-52"/>
       </defs>
       <use xlink:href="#DejaVuSans-8722"/>
       <use x="83.789062" xlink:href="#DejaVuSans-52"/>
      </g>
     </g>
    </g>
    <g id="ytick_2">
     <g id="line2d_11">
      <g>
       <use style="stroke:#000000;stroke-width:0.8;" x="32.55" xlink:href="#m94a851503b" y="166.525"/>
      </g>
     </g>
     <g id="text_11">
      <!-- −3 -->
      <g transform="translate(10.807813 170.324219)scale(0.1 -0.1)">
       <defs>
        <path d="M 40.578125 39.3125 
Q 47.65625 37.796875 51.625 33 
Q 55.609375 28.21875 55.609375 21.1875 
Q 55.609375 10.40625 48.1875 4.484375 
Q 40.765625 -1.421875 27.09375 -1.421875 
Q 22.515625 -1.421875 17.65625 -0.515625 
Q 12.796875 0.390625 7.625 2.203125 
L 7.625 11.71875 
Q 11.71875 9.328125 16.59375 8.109375 
Q 21.484375 6.890625 26.8125 6.890625 
Q 36.078125 6.890625 40.9375 10.546875 
Q 45.796875 14.203125 45.796875 21.1875 
Q 45.796875 27.640625 41.28125 31.265625 
Q 36.765625 34.90625 28.71875 34.90625 
L 20.21875 34.90625 
L 20.21875 43.015625 
L 29.109375 43.015625 
Q 36.375 43.015625 40.234375 45.921875 
Q 44.09375 48.828125 44.09375 54.296875 
Q 44.09375 59.90625 40.109375 62.90625 
Q 36.140625 65.921875 28.71875 65.921875 
Q 24.65625 65.921875 20.015625 65.03125 
Q 15.375 64.15625 9.8125 62.3125 
L 9.8125 71.09375 
Q 15.4375 72.65625 20.34375 73.4375 
Q 25.25 74.21875 29.59375 74.21875 
Q 40.828125 74.21875 47.359375 69.109375 
Q 53.90625 64.015625 53.90625 55.328125 
Q 53.90625 49.265625 50.4375 45.09375 
Q 46.96875 40.921875 40.578125 39.3125 
z
" id="DejaVuSans-51"/>
       </defs>
       <use xlink:href="#DejaVuSans-8722"/>
       <use x="83.789062" xlink:href="#DejaVuSans-51"/>
      </g>
     </g>
    </g>
    <g id="ytick_3">
     <g id="line2d_12">
      <g>
       <use style="stroke:#000000;stroke-width:0.8;" x="32.55" xlink:href="#m94a851503b" y="144.85"/>
      </g>
     </g>
     <g id="text_12">
      <!-- −2 -->
      <g transform="translate(10.807813 148.649219)scale(0.1 -0.1)">
       <use xlink:href="#DejaVuSans-8722"/>
       <use x="83.789062" xlink:href="#DejaVuSans-50"/>
      </g>
     </g>
    </g>
    <g id="ytick_4">
     <g id="line2d_13">
      <g>
       <use style="stroke:#000000;stroke-width:0.8;" x="32.55" xlink:href="#m94a851503b" y="123.175"/>
      </g>
     </g>
     <g id="text_13">
      <!-- −1 -->
      <g transform="translate(10.807813 126.974219)scale(0.1 -0.1)">
       <use xlink:href="#DejaVuSans-8722"/>
       <use x="83.789062" xlink:href="#DejaVuSans-49"/>
      </g>
     </g>
    </g>
    <g id="ytick_5">
     <g id="line2d_14">
      <g>
       <use style="stroke:#000000;stroke-width:0.8;" x="32.55" xlink:href="#m94a851503b" y="101.5"/>
      </g>
     </g>
     <g id="text_14">
      <!-- 0 -->
      <g transform="translate(19.1875 105.299219)scale(0.1 -0.1)">
       <use xlink:href="#DejaVuSans-48"/>
      </g>
     </g>
    </g>
    <g id="ytick_6">
     <g id="line2d_15">
      <g>
       <use style="stroke:#000000;stroke-width:0.8;" x="32.55" xlink:href="#m94a851503b" y="79.825"/>
      </g>
     </g>
     <g id="text_15">
      <!-- 1 -->
      <g transform="translate(19.1875 83.624219)scale(0.1 -0.1)">
       <use xlink:href="#DejaVuSans-49"/>
      </g>
     </g>
    </g>
    <g id="ytick_7">
     <g id="line2d_16">
      <g>
       <use style="stroke:#000000;stroke-width:0.8;" x="32.55" xlink:href="#m94a851503b" y="58.15"/>
      </g>
     </g>
     <g id="text_16">
      <!-- 2 -->
      <g transform="translate(19.1875 61.949219)scale(0.1 -0.1)">
       <use xlink:href="#DejaVuSans-50"/>
      </g>
     </g>
    </g>
    <g id="ytick_8">
     <g id="line2d_17">
      <g>
       <use style="stroke:#000000;stroke-width:0.8;" x="32.55" xlink:href="#m94a851503b" y="36.475"/>
      </g>
     </g>
     <g id="text_17">
      <!-- 3 -->
      <g transform="translate(19.1875 40.274219)scale(0.1 -0.1)">
       <use xlink:href="#DejaVuSans-51"/>
      </g>
     </g>
    </g>
    <g id="ytick_9">
     <g id="line2d_18">
      <g>
       <use style="stroke:#000000;stroke-width:0.8;" x="32.55" xlink:href="#m94a851503b" y="14.8"/>
      </g>
     </g>
     <g id="text_18">
      <!-- 4 -->
      <g transform="translate(19.1875 18.599219)scale(0.1 -0.1)">
       <use xlink:href="#DejaVuSans-52"/>
      </g>
     </g>
    </g>
   </g>
   <g id="line2d_19">
    <path clip-path="url(#p17c80b75a6)" d="M 32.55 101.5 
L 37.090025 96.87407 
L 41.630051 92.266767 
L 46.170076 87.696642 
L 50.710101 83.182099 
L 55.250126 78.741316 
L 59.790152 74.392174 
L 64.330177 70.152185 
L 68.870202 66.038424 
L 73.410227 62.067453 
L 77.950253 58.255263 
L 82.490278 54.617205 
L 87.030303 51.167927 
L 91.570328 47.921319 
L 96.110354 44.890453 
L 100.650379 42.087533 
L 105.190404 39.523847 
L 109.730429 37.209717 
L 114.270455 35.154461 
L 118.81048 33.366355 
L 123.350505 31.8526 
L 127.89053 30.619289 
L 132.430556 29.671391 
L 136.970581 29.012721 
L 141.510606 28.645931 
L 146.050631 28.572499 
L 150.590657 28.792721 
L 155.130682 29.305709 
L 159.670707 30.109398 
L 164.210732 31.200552 
L 168.750758 32.574776 
L 173.290783 34.226539 
L 177.830808 36.149188 
L 182.370833 38.334981 
L 186.910859 40.775118 
L 191.450884 43.459772 
L 195.990909 46.378134 
L 200.530934 49.518452 
L 205.07096 52.868082 
L 209.610985 56.413535 
L 214.15101 60.140535 
L 218.691035 64.034076 
L 223.231061 68.078478 
L 227.771086 72.257457 
L 232.311111 76.554186 
L 236.851136 80.951362 
L 241.391162 85.431281 
L 245.931187 89.975903 
L 250.471212 94.566928 
L 255.011237 99.18587 
L 259.551263 103.81413 
L 264.091288 108.433072 
L 268.631313 113.024097 
L 273.171338 117.568719 
L 277.711364 122.048638 
L 282.251389 126.445814 
L 286.791414 130.742543 
L 291.331439 134.921522 
L 295.871465 138.965924 
L 300.41149 142.859465 
L 304.951515 146.586465 
L 309.49154 150.131918 
L 314.031566 153.481548 
L 318.571591 156.621866 
L 323.111616 159.540228 
L 327.651641 162.224882 
L 332.191667 164.665019 
L 336.731692 166.850812 
L 341.271717 168.773461 
L 345.811742 170.425224 
L 350.351768 171.799448 
L 354.891793 172.890602 
L 359.431818 173.694291 
L 363.971843 174.207279 
L 368.511869 174.427501 
L 373.051894 174.354069 
L 377.591919 173.987279 
L 382.131944 173.328609 
L 386.67197 172.380711 
L 391.211995 171.1474 
L 395.75202 169.633645 
L 400.292045 167.845539 
L 404.832071 165.790283 
L 409.372096 163.476153 
L 413.912121 160.912467 
L 418.452146 158.109547 
L 422.992172 155.078681 
L 427.532197 151.832073 
L 432.072222 148.382795 
L 436.612247 144.744737 
L 441.152273 140.932547 
L 445.692298 136.961576 
L 450.232323 132.847815 
L 454.772348 128.607826 
L 459.312374 124.258684 
L 463.852399 119.817901 
L 468.392424 115.303358 
L 472.932449 110.733233 
L 477.472475 106.12593 
L 482.0125 101.5 
" style="fill:none;stroke:#0000ff;stroke-linecap:square;stroke-width:2;"/>
   </g>
   <g id="line2d_20">
    <path clip-path="url(#p17c80b75a6)" d="M 32.55 101.5 
L 37.090025 99.215694 
L 41.630051 96.940585 
L 46.170076 94.683836 
L 50.710101 92.454533 
L 55.250126 90.261653 
L 59.790152 88.114026 
L 64.330177 86.020299 
L 68.870202 83.988904 
L 73.410227 82.02802 
L 77.950253 80.145542 
L 82.490278 78.349052 
L 87.030303 76.645782 
L 91.570328 75.042591 
L 96.110354 73.545935 
L 100.650379 72.16184 
L 105.190404 70.89588 
L 109.730429 69.753151 
L 114.270455 68.738256 
L 118.81048 67.855281 
L 123.350505 67.107781 
L 127.89053 66.498767 
L 132.430556 66.03069 
L 136.970581 65.705435 
L 141.510606 65.524313 
L 146.050631 65.488052 
L 150.590657 65.596798 
L 155.130682 65.850114 
L 159.670707 66.24698 
L 164.210732 66.785797 
L 168.750758 67.464395 
L 173.290783 68.280044 
L 177.830808 69.229457 
L 182.370833 70.308812 
L 186.910859 71.513763 
L 191.450884 72.839458 
L 195.990909 74.280559 
L 200.530934 75.831263 
L 205.07096 77.485327 
L 209.610985 79.236088 
L 214.15101 81.076499 
L 218.691035 82.999148 
L 223.231061 84.996293 
L 227.771086 87.059893 
L 232.311111 89.181638 
L 236.851136 91.352985 
L 241.391162 93.56519 
L 245.931187 95.809346 
L 250.471212 98.076416 
L 255.011237 100.357271 
L 259.551263 102.642729 
L 264.091288 104.923584 
L 268.631313 107.190654 
L 273.171338 109.43481 
L 277.711364 111.647015 
L 282.251389 113.818362 
L 286.791414 115.940107 
L 291.331439 118.003707 
L 295.871465 120.000852 
L 300.41149 121.923501 
L 304.951515 123.763912 
L 309.49154 125.514673 
L 314.031566 127.168737 
L 318.571591 128.719441 
L 323.111616 130.160542 
L 327.651641 131.486237 
L 332.191667 132.691188 
L 336.731692 133.770543 
L 341.271717 134.719956 
L 345.811742 135.535605 
L 350.351768 136.214203 
L 354.891793 136.75302 
L 359.431818 137.149886 
L 363.971843 137.403202 
L 368.511869 137.511948 
L 373.051894 137.475687 
L 377.591919 137.294565 
L 382.131944 136.96931 
L 386.67197 136.501233 
L 391.211995 135.892219 
L 395.75202 135.144719 
L 400.292045 134.261744 
L 404.832071 133.246849 
L 409.372096 132.10412 
L 413.912121 130.83816 
L 418.452146 129.454065 
L 422.992172 127.957409 
L 427.532197 126.354218 
L 432.072222 124.650948 
L 436.612247 122.854458 
L 441.152273 120.97198 
L 445.692298 119.011096 
L 450.232323 116.979701 
L 454.772348 114.885974 
L 459.312374 112.738347 
L 463.852399 110.545467 
L 468.392424 108.316164 
L 472.932449 106.059415 
L 477.472475 103.784306 
L 482.0125 101.5 
" style="fill:none;stroke:#0000ff;stroke-linecap:square;stroke-opacity:0.6;stroke-width:2;"/>
   </g>
   <g id="line2d_21">
    <path clip-path="url(#p17c80b75a6)" d="M 32.55 101.5 
L 37.090025 102.282568 
L 41.630051 103.061986 
L 46.170076 103.835114 
L 50.710101 104.598839 
L 55.250126 105.350086 
L 59.790152 106.08583 
L 64.330177 106.803109 
L 68.870202 107.499034 
L 73.410227 108.170803 
L 77.950253 108.815711 
L 82.490278 109.431161 
L 87.030303 110.014675 
L 91.570328 110.563904 
L 96.110354 111.076636 
L 100.650379 111.550805 
L 105.190404 111.984504 
L 109.730429 112.375986 
L 114.270455 112.723673 
L 118.81048 113.026167 
L 123.350505 113.282249 
L 127.89053 113.490888 
L 132.430556 113.651244 
L 136.970581 113.762671 
L 141.510606 113.824721 
L 146.050631 113.837143 
L 150.590657 113.799889 
L 155.130682 113.713106 
L 159.670707 113.577146 
L 164.210732 113.392556 
L 168.750758 113.160078 
L 173.290783 112.88065 
L 177.830808 112.555395 
L 182.370833 112.185625 
L 186.910859 111.772827 
L 191.450884 111.318664 
L 195.990909 110.824965 
L 200.530934 110.293717 
L 205.07096 109.72706 
L 209.610985 109.127276 
L 214.15101 108.49678 
L 218.691035 107.838109 
L 223.231061 107.153918 
L 227.771086 106.44696 
L 232.311111 105.720083 
L 236.851136 104.976213 
L 241.391162 104.218345 
L 245.931187 103.449531 
L 250.471212 102.672868 
L 255.011237 101.891481 
L 259.551263 101.108519 
L 264.091288 100.327132 
L 268.631313 99.550469 
L 273.171338 98.781655 
L 277.711364 98.023787 
L 282.251389 97.279917 
L 286.791414 96.55304 
L 291.331439 95.846082 
L 295.871465 95.161891 
L 300.41149 94.50322 
L 304.951515 93.872724 
L 309.49154 93.27294 
L 314.031566 92.706283 
L 318.571591 92.175035 
L 323.111616 91.681336 
L 327.651641 91.227173 
L 332.191667 90.814375 
L 336.731692 90.444605 
L 341.271717 90.11935 
L 345.811742 89.839922 
L 350.351768 89.607444 
L 354.891793 89.422854 
L 359.431818 89.286894 
L 363.971843 89.200111 
L 368.511869 89.162857 
L 373.051894 89.175279 
L 377.591919 89.237329 
L 382.131944 89.348756 
L 386.67197 89.509112 
L 391.211995 89.717751 
L 395.75202 89.973833 
L 400.292045 90.276327 
L 404.832071 90.624014 
L 409.372096 91.015496 
L 413.912121 91.449195 
L 418.452146 91.923364 
L 422.992172 92.436096 
L 427.532197 92.985325 
L 432.072222 93.568839 
L 436.612247 94.184289 
L 441.152273 94.829197 
L 445.692298 95.500966 
L 450.232323 96.196891 
L 454.772348 96.91417 
L 459.312374 97.649914 
L 463.852399 98.401161 
L 468.392424 99.164886 
L 472.932449 99.938014 
L 477.472475 100.717432 
L 482.0125 101.5 
" style="fill:none;stroke:#0000ff;stroke-linecap:square;stroke-opacity:0.4;stroke-width:2;"/>
   </g>
   <g id="line2d_22">
    <path clip-path="url(#p17c80b75a6)" d="M 32.55 101.5 
L 37.090025 105.100983 
L 41.630051 108.687467 
L 46.170076 112.245009 
L 50.710101 115.759285 
L 55.250126 119.216144 
L 59.790152 122.601666 
L 64.330177 125.902219 
L 68.870202 129.104513 
L 73.410227 132.195653 
L 77.950253 135.163193 
L 82.490278 137.995183 
L 87.030303 140.68022 
L 91.570328 143.207492 
L 96.110354 145.566822 
L 100.650379 147.748711 
L 105.190404 149.744373 
L 109.730429 151.545771 
L 114.270455 153.145653 
L 118.81048 154.537577 
L 123.350505 155.715936 
L 127.89053 156.675987 
L 132.430556 157.413864 
L 136.970581 157.926596 
L 141.510606 158.212117 
L 146.050631 158.269279 
L 150.590657 158.097851 
L 155.130682 157.698523 
L 159.670707 157.072904 
L 164.210732 156.223513 
L 168.750758 155.153769 
L 173.290783 153.86798 
L 177.830808 152.371324 
L 182.370833 150.669827 
L 186.910859 148.77034 
L 191.450884 146.680513 
L 195.990909 144.40876 
L 200.530934 141.964228 
L 205.07096 139.356761 
L 209.610985 136.596858 
L 214.15101 133.695632 
L 218.691035 130.664766 
L 223.231061 127.516464 
L 227.771086 124.263403 
L 232.311111 120.918681 
L 236.851136 117.495768 
L 241.391162 114.008445 
L 245.931187 110.470755 
L 250.471212 106.896942 
L 255.011237 103.301399 
L 259.551263 99.698601 
L 264.091288 96.103058 
L 268.631313 92.529245 
L 273.171338 88.991555 
L 277.711364 85.504232 
L 282.251389 82.081319 
L 286.791414 78.736597 
L 291.331439 75.483536 
L 295.871465 72.335234 
L 300.41149 69.304368 
L 304.951515 66.403142 
L 309.49154 63.643239 
L 314.031566 61.035772 
L 318.571591 58.59124 
L 323.111616 56.319487 
L 327.651641 54.22966 
L 332.191667 52.330173 
L 336.731692 50.628676 
L 341.271717 49.13202 
L 345.811742 47.846231 
L 350.351768 46.776487 
L 354.891793 45.927096 
L 359.431818 45.301477 
L 363.971843 44.902149 
L 368.511869 44.730721 
L 373.051894 44.787883 
L 377.591919 45.073404 
L 382.131944 45.586136 
L 386.67197 46.324013 
L 391.211995 47.284064 
L 395.75202 48.462423 
L 400.292045 49.854347 
L 404.832071 51.454229 
L 409.372096 53.255627 
L 413.912121 55.251289 
L 418.452146 57.433178 
L 422.992172 59.792508 
L 427.532197 62.31978 
L 432.072222 65.004817 
L 436.612247 67.836807 
L 441.152273 70.804347 
L 445.692298 73.895487 
L 450.232323 77.097781 
L 454.772348 80.398334 
L 459.312374 83.783856 
L 463.852399 87.240715 
L 468.392424 90.754991 
L 472.932449 94.312533 
L 477.472475 97.899017 
L 482.0125 101.5 
" style="fill:none;stroke:#0000ff;stroke-linecap:square;stroke-opacity:0.2;stroke-width:2;"/>
   </g>
   <g id="line2d_23">
    <path clip-path="url(#p17c80b75a6)" d="M 32.55 101.5 
L 37.090025 106.776112 
L 41.630051 112.030978 
L 46.170076 117.24344 
L 50.710101 122.392509 
L 55.250126 127.457451 
L 59.790152 132.417872 
L 64.330177 137.253797 
L 68.870202 141.945754 
L 73.410227 146.47485 
L 77.950253 150.822849 
L 82.490278 154.972242 
L 87.030303 158.906321 
L 91.570328 162.609245 
L 96.110354 166.066104 
L 100.650379 169.262978 
L 105.190404 172.186994 
L 109.730429 174.826378 
L 114.270455 177.170504 
L 118.81048 179.20993 
L 123.350505 180.936447 
L 127.89053 182.3431 
L 132.430556 183.424228 
L 136.970581 184.175475 
L 141.510606 184.593817 
L 146.050631 184.67757 
L 150.590657 184.426396 
L 155.130682 183.841307 
L 159.670707 182.924658 
L 164.210732 181.680141 
L 168.750758 180.112767 
L 173.290783 178.228847 
L 177.830808 176.035967 
L 182.370833 173.542957 
L 186.910859 170.759855 
L 191.450884 167.697868 
L 195.990909 164.369326 
L 200.530934 160.787632 
L 205.07096 156.967207 
L 209.610985 152.923435 
L 214.15101 148.672599 
L 218.691035 144.231816 
L 223.231061 139.618967 
L 227.771086 134.852626 
L 232.311111 129.951986 
L 236.851136 124.936779 
L 241.391162 119.827202 
L 245.931187 114.643827 
L 250.471212 109.407526 
L 255.011237 104.139385 
L 259.551263 98.860615 
L 264.091288 93.592474 
L 268.631313 88.356173 
L 273.171338 83.172798 
L 277.711364 78.063221 
L 282.251389 73.048014 
L 286.791414 68.147374 
L 291.331439 63.381033 
L 295.871465 58.768184 
L 300.41149 54.327401 
L 304.951515 50.076565 
L 309.49154 46.032793 
L 314.031566 42.212368 
L 318.571591 38.630674 
L 323.111616 35.302132 
L 327.651641 32.240145 
L 332.191667 29.457043 
L 336.731692 26.964033 
L 341.271717 24.771153 
L 345.811742 22.887233 
L 350.351768 21.319859 
L 354.891793 20.075342 
L 359.431818 19.158693 
L 363.971843 18.573604 
L 368.511869 18.32243 
L 373.051894 18.406183 
L 377.591919 18.824525 
L 382.131944 19.575772 
L 386.67197 20.6569 
L 391.211995 22.063553 
L 395.75202 23.79007 
L 400.292045 25.829496 
L 404.832071 28.173622 
L 409.372096 30.813006 
L 413.912121 33.737022 
L 418.452146 36.933896 
L 422.992172 40.390755 
L 427.532197 44.093679 
L 432.072222 48.027758 
L 436.612247 52.177151 
L 441.152273 56.52515 
L 445.692298 61.054246 
L 450.232323 65.746203 
L 454.772348 70.582128 
L 459.312374 75.542549 
L 463.852399 80.607491 
L 468.392424 85.75656 
L 472.932449 90.969022 
L 477.472475 96.223888 
L 482.0125 101.5 
" style="fill:none;stroke:#0000ff;stroke-linecap:square;stroke-opacity:0.1;stroke-width:2;"/>
   </g>
   <g id="line2d_24">
    <path clip-path="url(#p17c80b75a6)" d="M 257.28125 188.2 
L 257.28125 14.8 
" style="fill:none;stroke:#ff0000;stroke-dasharray:1.85,0.8;stroke-dashoffset:0;stroke-width:0.5;"/>
   </g>
   <g id="line2d_25">
    <path clip-path="url(#p17c80b75a6)" d="M 144.915625 188.2 
L 144.915625 14.8 
" style="fill:none;stroke:#0000ff;stroke-dasharray:1.85,0.8;stroke-dashoffset:0;stroke-width:0.5;"/>
   </g>
   <g id="line2d_26">
    <path clip-path="url(#p17c80b75a6)" d="M 369.646875 188.2 
L 369.646875 14.8 
" style="fill:none;stroke:#0000ff;stroke-dasharray:1.85,0.8;stroke-dashoffset:0;stroke-width:0.5;"/>
   </g>
   <g id="patch_3">
    <path d="M 32.55 188.2 
L 32.55 14.8 
" style="fill:none;stroke:#000000;stroke-linecap:square;stroke-linejoin:miter;stroke-width:0.8;"/>
   </g>
   <g id="patch_4">
    <path d="M 482.0125 188.2 
L 482.0125 14.8 
" style="fill:none;stroke:#000000;stroke-linecap:square;stroke-linejoin:miter;stroke-width:0.8;"/>
   </g>
   <g id="patch_5">
    <path d="M 32.55 188.2 
L 482.0125 188.2 
" style="fill:none;stroke:#000000;stroke-linecap:square;stroke-linejoin:miter;stroke-width:0.8;"/>
   </g>
   <g id="patch_6">
    <path d="M 32.55 14.8 
L 482.0125 14.8 
" style="fill:none;stroke:#000000;stroke-linecap:square;stroke-linejoin:miter;stroke-width:0.8;"/>
   </g>
   <g id="text_19">
    <g id="patch_7">
     <path d="M 251.670312 178.283594 
L 262.892187 178.283594 
Q 267.392187 178.283594 267.392187 173.783594 
L 267.392187 159.266406 
Q 267.392187 154.766406 262.892187 154.766406 
L 251.670312 154.766406 
Q 247.170312 154.766406 247.170312 159.266406 
L 247.170312 173.783594 
Q 247.170312 178.283594 251.670312 178.283594 
z
" style="fill:#ffffff;stroke:#ffffff;stroke-linejoin:miter;stroke-width:2;"/>
    </g>
    <!-- N -->
    <g transform="translate(251.670312 170.664062)scale(0.15 -0.15)">
     <defs>
      <path d="M 9.8125 72.90625 
L 23.09375 72.90625 
L 55.421875 11.921875 
L 55.421875 72.90625 
L 64.984375 72.90625 
L 64.984375 0 
L 51.703125 0 
L 19.390625 60.984375 
L 19.390625 0 
L 9.8125 0 
z
" id="DejaVuSans-78"/>
     </defs>
     <use xlink:href="#DejaVuSans-78"/>
    </g>
   </g>
   <g id="text_20">
    <g id="patch_8">
     <path d="M 139.785156 178.283594 
L 150.046094 178.283594 
Q 154.546094 178.283594 154.546094 173.783594 
L 154.546094 159.266406 
Q 154.546094 154.766406 150.046094 154.766406 
L 139.785156 154.766406 
Q 135.285156 154.766406 135.285156 159.266406 
L 135.285156 173.783594 
Q 135.285156 178.283594 139.785156 178.283594 
z
" style="fill:#ffffff;stroke:#ffffff;stroke-linejoin:miter;stroke-width:2;"/>
    </g>
    <!-- A -->
    <g transform="translate(139.785156 170.664062)scale(0.15 -0.15)">
     <defs>
      <path d="M 34.1875 63.1875 
L 20.796875 26.90625 
L 47.609375 26.90625 
z
M 28.609375 72.90625 
L 39.796875 72.90625 
L 67.578125 0 
L 57.328125 0 
L 50.6875 18.703125 
L 17.828125 18.703125 
L 11.1875 0 
L 0.78125 0 
z
" id="DejaVuSans-65"/>
     </defs>
     <use xlink:href="#DejaVuSans-65"/>
    </g>
   </g>
   <g id="text_21">
    <g id="patch_9">
     <path d="M 364.516406 178.283594 
L 374.777344 178.283594 
Q 379.277344 178.283594 379.277344 173.783594 
L 379.277344 159.266406 
Q 379.277344 154.766406 374.777344 154.766406 
L 364.516406 154.766406 
Q 360.016406 154.766406 360.016406 159.266406 
L 360.016406 173.783594 
Q 360.016406 178.283594 364.516406 178.283594 
z
" style="fill:#ffffff;stroke:#ffffff;stroke-linejoin:miter;stroke-width:2;"/>
    </g>
    <!-- A -->
    <g transform="translate(364.516406 170.664062)scale(0.15 -0.15)">
     <use xlink:href="#DejaVuSans-65"/>
    </g>
   </g>
  </g>
 </g>
 <defs>
  <clipPath id="p17c80b75a6">
   <rect height="173.4" width="449.4625" x="32.55" y="14.8"/>
  </clipPath>
 </defs>
</svg>
