<?xml version="1.0" encoding="utf-8" standalone="no"?>
<!DOCTYPE svg PUBLIC "-//W3C//DTD SVG 1.1//EN"
  "http://www.w3.org/Graphics/SVG/1.1/DTD/svg11.dtd">
<!-- Created with matplotlib (https://matplotlib.org/) -->
<svg height="216pt" version="1.1" viewBox="0 0 504 216" width="504pt" xmlns="http://www.w3.org/2000/svg" xmlns:xlink="http://www.w3.org/1999/xlink">
 <metadata>
  <rdf:RDF xmlns:cc="http://creativecommons.org/ns#" xmlns:dc="http://purl.org/dc/elements/1.1/" xmlns:rdf="http://www.w3.org/1999/02/22-rdf-syntax-ns#">
   <cc:Work>
    <dc:type rdf:resource="http://purl.org/dc/dcmitype/StillImage"/>
    <dc:date>2024-01-19T14:44:35.065951</dc:date>
    <dc:format>image/svg+xml</dc:format>
    <dc:creator>
     <cc:Agent>
      <dc:title>Matplotlib v3.3.2, https://matplotlib.org/</dc:title>
     </cc:Agent>
    </dc:creator>
   </cc:Work>
  </rdf:RDF>
 </metadata>
 <defs>
  <style type="text/css">*{stroke-linecap:butt;stroke-linejoin:round;}</style>
 </defs>
 <g id="figure_1">
  <g id="patch_1">
   <path d="M 0 216 
L 504 216 
L 504 0 
L 0 0 
z
" style="fill:none;"/>
  </g>
  <g id="axes_1">
   <g id="patch_2">
    <path d="M 32.55 188.2 
L 482.0125 188.2 
L 482.0125 14.8 
L 32.55 14.8 
z
" style="fill:none;"/>
   </g>
   <g id="matplotlib.axis_1">
    <g id="xtick_1">
     <g id="line2d_1">
      <defs>
       <path d="M 0 0 
L 0 3.5 
" id="m54abd287cd" style="stroke:#000000;stroke-width:0.8;"/>
      </defs>
      <g>
       <use style="stroke:#000000;stroke-width:0.8;" x="32.55" xlink:href="#m54abd287cd" y="188.2"/>
      </g>
     </g>
     <g id="text_1">
      <!-- 0.00 -->
      <g transform="translate(21.417188 202.798438)scale(0.1 -0.1)">
       <defs>
        <path d="M 31.78125 66.40625 
Q 24.171875 66.40625 20.328125 58.90625 
Q 16.5 51.421875 16.5 36.375 
Q 16.5 21.390625 20.328125 13.890625 
Q 24.171875 6.390625 31.78125 6.390625 
Q 39.453125 6.390625 43.28125 13.890625 
Q 47.125 21.390625 47.125 36.375 
Q 47.125 51.421875 43.28125 58.90625 
Q 39.453125 66.40625 31.78125 66.40625 
z
M 31.78125 74.21875 
Q 44.046875 74.21875 50.515625 64.515625 
Q 56.984375 54.828125 56.984375 36.375 
Q 56.984375 17.96875 50.515625 8.265625 
Q 44.046875 -1.421875 31.78125 -1.421875 
Q 19.53125 -1.421875 13.0625 8.265625 
Q 6.59375 17.96875 6.59375 36.375 
Q 6.59375 54.828125 13.0625 64.515625 
Q 19.53125 74.21875 31.78125 74.21875 
z
" id="DejaVuSans-48"/>
        <path d="M 10.6875 12.40625 
L 21 12.40625 
L 21 0 
L 10.6875 0 
z
" id="DejaVuSans-46"/>
       </defs>
       <use xlink:href="#DejaVuSans-48"/>
       <use x="63.623047" xlink:href="#DejaVuSans-46"/>
       <use x="95.410156" xlink:href="#DejaVuSans-48"/>
       <use x="159.033203" xlink:href="#DejaVuSans-48"/>
      </g>
     </g>
    </g>
    <g id="xtick_2">
     <g id="line2d_2">
      <g>
       <use style="stroke:#000000;stroke-width:0.8;" x="88.732812" xlink:href="#m54abd287cd" y="188.2"/>
      </g>
     </g>
     <g id="text_2">
      <!-- 0.25 -->
      <g transform="translate(77.6 202.798438)scale(0.1 -0.1)">
       <defs>
        <path d="M 19.1875 8.296875 
L 53.609375 8.296875 
L 53.609375 0 
L 7.328125 0 
L 7.328125 8.296875 
Q 12.9375 14.109375 22.625 23.890625 
Q 32.328125 33.6875 34.8125 36.53125 
Q 39.546875 41.84375 41.421875 45.53125 
Q 43.3125 49.21875 43.3125 52.78125 
Q 43.3125 58.59375 39.234375 62.25 
Q 35.15625 65.921875 28.609375 65.921875 
Q 23.96875 65.921875 18.8125 64.3125 
Q 13.671875 62.703125 7.8125 59.421875 
L 7.8125 69.390625 
Q 13.765625 71.78125 18.9375 73 
Q 24.125 74.21875 28.421875 74.21875 
Q 39.75 74.21875 46.484375 68.546875 
Q 53.21875 62.890625 53.21875 53.421875 
Q 53.21875 48.921875 51.53125 44.890625 
Q 49.859375 40.875 45.40625 35.40625 
Q 44.1875 33.984375 37.640625 27.21875 
Q 31.109375 20.453125 19.1875 8.296875 
z
" id="DejaVuSans-50"/>
        <path d="M 10.796875 72.90625 
L 49.515625 72.90625 
L 49.515625 64.59375 
L 19.828125 64.59375 
L 19.828125 46.734375 
Q 21.96875 47.46875 24.109375 47.828125 
Q 26.265625 48.1875 28.421875 48.1875 
Q 40.625 48.1875 47.75 41.5 
Q 54.890625 34.8125 54.890625 23.390625 
Q 54.890625 11.625 47.5625 5.09375 
Q 40.234375 -1.421875 26.90625 -1.421875 
Q 22.3125 -1.421875 17.546875 -0.640625 
Q 12.796875 0.140625 7.71875 1.703125 
L 7.71875 11.625 
Q 12.109375 9.234375 16.796875 8.0625 
Q 21.484375 6.890625 26.703125 6.890625 
Q 35.15625 6.890625 40.078125 11.328125 
Q 45.015625 15.765625 45.015625 23.390625 
Q 45.015625 31 40.078125 35.4375 
Q 35.15625 39.890625 26.703125 39.890625 
Q 22.75 39.890625 18.8125 39.015625 
Q 14.890625 38.140625 10.796875 36.28125 
z
" id="DejaVuSans-53"/>
       </defs>
       <use xlink:href="#DejaVuSans-48"/>
       <use x="63.623047" xlink:href="#DejaVuSans-46"/>
       <use x="95.410156" xlink:href="#DejaVuSans-50"/>
       <use x="159.033203" xlink:href="#DejaVuSans-53"/>
      </g>
     </g>
    </g>
    <g id="xtick_3">
     <g id="line2d_3">
      <g>
       <use style="stroke:#000000;stroke-width:0.8;" x="144.915625" xlink:href="#m54abd287cd" y="188.2"/>
      </g>
     </g>
     <g id="text_3">
      <!-- 0.50 -->
      <g transform="translate(133.782813 202.798438)scale(0.1 -0.1)">
       <use xlink:href="#DejaVuSans-48"/>
       <use x="63.623047" xlink:href="#DejaVuSans-46"/>
       <use x="95.410156" xlink:href="#DejaVuSans-53"/>
       <use x="159.033203" xlink:href="#DejaVuSans-48"/>
      </g>
     </g>
    </g>
    <g id="xtick_4">
     <g id="line2d_4">
      <g>
       <use style="stroke:#000000;stroke-width:0.8;" x="201.098437" xlink:href="#m54abd287cd" y="188.2"/>
      </g>
     </g>
     <g id="text_4">
      <!-- 0.75 -->
      <g transform="translate(189.965625 202.798438)scale(0.1 -0.1)">
       <defs>
        <path d="M 8.203125 72.90625 
L 55.078125 72.90625 
L 55.078125 68.703125 
L 28.609375 0 
L 18.3125 0 
L 43.21875 64.59375 
L 8.203125 64.59375 
z
" id="DejaVuSans-55"/>
       </defs>
       <use xlink:href="#DejaVuSans-48"/>
       <use x="63.623047" xlink:href="#DejaVuSans-46"/>
       <use x="95.410156" xlink:href="#DejaVuSans-55"/>
       <use x="159.033203" xlink:href="#DejaVuSans-53"/>
      </g>
     </g>
    </g>
    <g id="xtick_5">
     <g id="line2d_5">
      <g>
       <use style="stroke:#000000;stroke-width:0.8;" x="257.28125" xlink:href="#m54abd287cd" y="188.2"/>
      </g>
     </g>
     <g id="text_5">
      <!-- 1.00 -->
      <g transform="translate(246.148438 202.798438)scale(0.1 -0.1)">
       <defs>
        <path d="M 12.40625 8.296875 
L 28.515625 8.296875 
L 28.515625 63.921875 
L 10.984375 60.40625 
L 10.984375 69.390625 
L 28.421875 72.90625 
L 38.28125 72.90625 
L 38.28125 8.296875 
L 54.390625 8.296875 
L 54.390625 0 
L 12.40625 0 
z
" id="DejaVuSans-49"/>
       </defs>
       <use xlink:href="#DejaVuSans-49"/>
       <use x="63.623047" xlink:href="#DejaVuSans-46"/>
       <use x="95.410156" xlink:href="#DejaVuSans-48"/>
       <use x="159.033203" xlink:href="#DejaVuSans-48"/>
      </g>
     </g>
    </g>
    <g id="xtick_6">
     <g id="line2d_6">
      <g>
       <use style="stroke:#000000;stroke-width:0.8;" x="313.464063" xlink:href="#m54abd287cd" y="188.2"/>
      </g>
     </g>
     <g id="text_6">
      <!-- 1.25 -->
      <g transform="translate(302.33125 202.798438)scale(0.1 -0.1)">
       <use xlink:href="#DejaVuSans-49"/>
       <use x="63.623047" xlink:href="#DejaVuSans-46"/>
       <use x="95.410156" xlink:href="#DejaVuSans-50"/>
       <use x="159.033203" xlink:href="#DejaVuSans-53"/>
      </g>
     </g>
    </g>
    <g id="xtick_7">
     <g id="line2d_7">
      <g>
       <use style="stroke:#000000;stroke-width:0.8;" x="369.646875" xlink:href="#m54abd287cd" y="188.2"/>
      </g>
     </g>
     <g id="text_7">
      <!-- 1.50 -->
      <g transform="translate(358.514062 202.798438)scale(0.1 -0.1)">
       <use xlink:href="#DejaVuSans-49"/>
       <use x="63.623047" xlink:href="#DejaVuSans-46"/>
       <use x="95.410156" xlink:href="#DejaVuSans-53"/>
       <use x="159.033203" xlink:href="#DejaVuSans-48"/>
      </g>
     </g>
    </g>
    <g id="xtick_8">
     <g id="line2d_8">
      <g>
       <use style="stroke:#000000;stroke-width:0.8;" x="425.829687" xlink:href="#m54abd287cd" y="188.2"/>
      </g>
     </g>
     <g id="text_8">
      <!-- 1.75 -->
      <g transform="translate(414.696875 202.798438)scale(0.1 -0.1)">
       <use xlink:href="#DejaVuSans-49"/>
       <use x="63.623047" xlink:href="#DejaVuSans-46"/>
       <use x="95.410156" xlink:href="#DejaVuSans-55"/>
       <use x="159.033203" xlink:href="#DejaVuSans-53"/>
      </g>
     </g>
    </g>
    <g id="xtick_9">
     <g id="line2d_9">
      <g>
       <use style="stroke:#000000;stroke-width:0.8;" x="482.0125" xlink:href="#m54abd287cd" y="188.2"/>
      </g>
     </g>
     <g id="text_9">
      <!-- 2.00 -->
      <g transform="translate(470.879687 202.798438)scale(0.1 -0.1)">
       <use xlink:href="#DejaVuSans-50"/>
       <use x="63.623047" xlink:href="#DejaVuSans-46"/>
       <use x="95.410156" xlink:href="#DejaVuSans-48"/>
       <use x="159.033203" xlink:href="#DejaVuSans-48"/>
      </g>
     </g>
    </g>
   </g>
   <g id="matplotlib.axis_2">
    <g id="ytick_1">
     <g id="line2d_10">
      <defs>
       <path d="M 0 0 
L -3.5 0 
" id="m5f7487b880" style="stroke:#000000;stroke-width:0.8;"/>
      </defs>
      <g>
       <use style="stroke:#000000;stroke-width:0.8;" x="32.55" xlink:href="#m5f7487b880" y="188.2"/>
      </g>
     </g>
     <g id="text_10">
      <!-- −4 -->
      <g transform="translate(10.807813 191.999219)scale(0.1 -0.1)">
       <defs>
        <path d="M 10.59375 35.5 
L 73.1875 35.5 
L 73.1875 27.203125 
L 10.59375 27.203125 
z
" id="DejaVuSans-8722"/>
        <path d="M 37.796875 64.3125 
L 12.890625 25.390625 
L 37.796875 25.390625 
z
M 35.203125 72.90625 
L 47.609375 72.90625 
L 47.609375 25.390625 
L 58.015625 25.390625 
L 58.015625 17.1875 
L 47.609375 17.1875 
L 47.609375 0 
L 37.796875 0 
L 37.796875 17.1875 
L 4.890625 17.1875 
L 4.890625 26.703125 
z
" id="DejaVuSans-52"/>
       </defs>
       <use xlink:href="#DejaVuSans-8722"/>
       <use x="83.789062" xlink:href="#DejaVuSans-52"/>
      </g>
     </g>
    </g>
    <g id="ytick_2">
     <g id="line2d_11">
      <g>
       <use style="stroke:#000000;stroke-width:0.8;" x="32.55" xlink:href="#m5f7487b880" y="166.525"/>
      </g>
     </g>
     <g id="text_11">
      <!-- −3 -->
      <g transform="translate(10.807813 170.324219)scale(0.1 -0.1)">
       <defs>
        <path d="M 40.578125 39.3125 
Q 47.65625 37.796875 51.625 33 
Q 55.609375 28.21875 55.609375 21.1875 
Q 55.609375 10.40625 48.1875 4.484375 
Q 40.765625 -1.421875 27.09375 -1.421875 
Q 22.515625 -1.421875 17.65625 -0.515625 
Q 12.796875 0.390625 7.625 2.203125 
L 7.625 11.71875 
Q 11.71875 9.328125 16.59375 8.109375 
Q 21.484375 6.890625 26.8125 6.890625 
Q 36.078125 6.890625 40.9375 10.546875 
Q 45.796875 14.203125 45.796875 21.1875 
Q 45.796875 27.640625 41.28125 31.265625 
Q 36.765625 34.90625 28.71875 34.90625 
L 20.21875 34.90625 
L 20.21875 43.015625 
L 29.109375 43.015625 
Q 36.375 43.015625 40.234375 45.921875 
Q 44.09375 48.828125 44.09375 54.296875 
Q 44.09375 59.90625 40.109375 62.90625 
Q 36.140625 65.921875 28.71875 65.921875 
Q 24.65625 65.921875 20.015625 65.03125 
Q 15.375 64.15625 9.8125 62.3125 
L 9.8125 71.09375 
Q 15.4375 72.65625 20.34375 73.4375 
Q 25.25 74.21875 29.59375 74.21875 
Q 40.828125 74.21875 47.359375 69.109375 
Q 53.90625 64.015625 53.90625 55.328125 
Q 53.90625 49.265625 50.4375 45.09375 
Q 46.96875 40.921875 40.578125 39.3125 
z
" id="DejaVuSans-51"/>
       </defs>
       <use xlink:href="#DejaVuSans-8722"/>
       <use x="83.789062" xlink:href="#DejaVuSans-51"/>
      </g>
     </g>
    </g>
    <g id="ytick_3">
     <g id="line2d_12">
      <g>
       <use style="stroke:#000000;stroke-width:0.8;" x="32.55" xlink:href="#m5f7487b880" y="144.85"/>
      </g>
     </g>
     <g id="text_12">
      <!-- −2 -->
      <g transform="translate(10.807813 148.649219)scale(0.1 -0.1)">
       <use xlink:href="#DejaVuSans-8722"/>
       <use x="83.789062" xlink:href="#DejaVuSans-50"/>
      </g>
     </g>
    </g>
    <g id="ytick_4">
     <g id="line2d_13">
      <g>
       <use style="stroke:#000000;stroke-width:0.8;" x="32.55" xlink:href="#m5f7487b880" y="123.175"/>
      </g>
     </g>
     <g id="text_13">
      <!-- −1 -->
      <g transform="translate(10.807813 126.974219)scale(0.1 -0.1)">
       <use xlink:href="#DejaVuSans-8722"/>
       <use x="83.789062" xlink:href="#DejaVuSans-49"/>
      </g>
     </g>
    </g>
    <g id="ytick_5">
     <g id="line2d_14">
      <g>
       <use style="stroke:#000000;stroke-width:0.8;" x="32.55" xlink:href="#m5f7487b880" y="101.5"/>
      </g>
     </g>
     <g id="text_14">
      <!-- 0 -->
      <g transform="translate(19.1875 105.299219)scale(0.1 -0.1)">
       <use xlink:href="#DejaVuSans-48"/>
      </g>
     </g>
    </g>
    <g id="ytick_6">
     <g id="line2d_15">
      <g>
       <use style="stroke:#000000;stroke-width:0.8;" x="32.55" xlink:href="#m5f7487b880" y="79.825"/>
      </g>
     </g>
     <g id="text_15">
      <!-- 1 -->
      <g transform="translate(19.1875 83.624219)scale(0.1 -0.1)">
       <use xlink:href="#DejaVuSans-49"/>
      </g>
     </g>
    </g>
    <g id="ytick_7">
     <g id="line2d_16">
      <g>
       <use style="stroke:#000000;stroke-width:0.8;" x="32.55" xlink:href="#m5f7487b880" y="58.15"/>
      </g>
     </g>
     <g id="text_16">
      <!-- 2 -->
      <g transform="translate(19.1875 61.949219)scale(0.1 -0.1)">
       <use xlink:href="#DejaVuSans-50"/>
      </g>
     </g>
    </g>
    <g id="ytick_8">
     <g id="line2d_17">
      <g>
       <use style="stroke:#000000;stroke-width:0.8;" x="32.55" xlink:href="#m5f7487b880" y="36.475"/>
      </g>
     </g>
     <g id="text_17">
      <!-- 3 -->
      <g transform="translate(19.1875 40.274219)scale(0.1 -0.1)">
       <use xlink:href="#DejaVuSans-51"/>
      </g>
     </g>
    </g>
    <g id="ytick_9">
     <g id="line2d_18">
      <g>
       <use style="stroke:#000000;stroke-width:0.8;" x="32.55" xlink:href="#m5f7487b880" y="14.8"/>
      </g>
     </g>
     <g id="text_18">
      <!-- 4 -->
      <g transform="translate(19.1875 18.599219)scale(0.1 -0.1)">
       <use xlink:href="#DejaVuSans-52"/>
      </g>
     </g>
    </g>
   </g>
   <g id="line2d_19">
    <path clip-path="url(#p7a763267bb)" d="M 32.55 101.5 
L 37.090025 92.228874 
L 41.630051 83.106924 
L 46.170076 74.280925 
L 50.710101 65.892891 
L 55.250126 58.077789 
L 59.790152 50.961367 
L 64.330177 44.65813 
L 68.870202 39.2695 
L 73.410227 34.882182 
L 77.950253 31.56677 
L 82.490278 29.37661 
L 87.030303 28.346942 
L 91.570328 28.494334 
L 96.110354 29.816414 
L 100.650379 32.291911 
L 105.190404 35.880991 
L 109.730429 40.525906 
L 114.270455 46.151917 
L 118.81048 52.668499 
L 123.350505 59.970798 
L 127.89053 67.941318 
L 132.430556 76.451809 
L 136.970581 85.365336 
L 141.510606 94.538475 
L 146.050631 103.823627 
L 150.590657 113.071392 
L 155.130682 122.132968 
L 159.670707 130.862553 
L 164.210732 139.119683 
L 168.750758 146.771498 
L 173.290783 153.694877 
L 177.830808 159.778422 
L 182.370833 164.924245 
L 186.910859 169.049548 
L 191.450884 172.087954 
L 195.990909 173.990573 
L 200.530934 174.726791 
L 205.07096 174.284764 
L 209.610985 172.671602 
L 214.15101 169.913262 
L 218.691035 166.054127 
L 223.231061 161.156292 
L 227.771086 155.298566 
L 232.311111 148.5752 
L 236.851136 141.094376 
L 241.391162 132.976464 
L 245.931187 124.352084 
L 250.471212 115.360006 
L 255.011237 106.144915 
L 259.551263 96.855085 
L 264.091288 87.639994 
L 268.631313 78.647916 
L 273.171338 70.023536 
L 277.711364 61.905624 
L 282.251389 54.4248 
L 286.791414 47.701434 
L 291.331439 41.843708 
L 295.871465 36.945873 
L 300.41149 33.086738 
L 304.951515 30.328398 
L 309.49154 28.715236 
L 314.031566 28.273209 
L 318.571591 29.009427 
L 323.111616 30.912046 
L 327.651641 33.950452 
L 332.191667 38.075755 
L 336.731692 43.221578 
L 341.271717 49.305123 
L 345.811742 56.228502 
L 350.351768 63.880317 
L 354.891793 72.137447 
L 359.431818 80.867032 
L 363.971843 89.928608 
L 368.511869 99.176373 
L 373.051894 108.461525 
L 377.591919 117.634664 
L 382.131944 126.548191 
L 386.67197 135.058682 
L 391.211995 143.029202 
L 395.75202 150.331501 
L 400.292045 156.848083 
L 404.832071 162.474094 
L 409.372096 167.119009 
L 413.912121 170.708089 
L 418.452146 173.183586 
L 422.992172 174.505666 
L 427.532197 174.653058 
L 432.072222 173.62339 
L 436.612247 171.43323 
L 441.152273 168.117818 
L 445.692298 163.7305 
L 450.232323 158.34187 
L 454.772348 152.038633 
L 459.312374 144.922211 
L 463.852399 137.107109 
L 468.392424 128.719075 
L 472.932449 119.893076 
L 477.472475 110.771126 
L 482.0125 101.5 
" style="fill:none;stroke:#0000ff;stroke-linecap:square;stroke-width:2;"/>
   </g>
   <g id="line2d_20">
    <path clip-path="url(#p7a763267bb)" d="M 32.55 101.5 
L 37.090025 96.812814 
L 41.630051 92.201047 
L 46.170076 87.738903 
L 50.710101 83.49818 
L 55.250126 79.547114 
L 59.790152 75.949277 
L 64.330177 72.762561 
L 68.870202 70.038242 
L 73.410227 67.820154 
L 77.950253 66.143987 
L 82.490278 65.036712 
L 87.030303 64.516144 
L 91.570328 64.590661 
L 96.110354 65.259063 
L 100.650379 66.510595 
L 105.190404 68.32512 
L 109.730429 70.673441 
L 114.270455 73.517773 
L 118.81048 76.812349 
L 123.350505 80.504159 
L 127.89053 84.5338 
L 132.430556 88.836433 
L 136.970581 93.342828 
L 141.510606 97.980475 
L 146.050631 102.674752 
L 150.590657 107.350127 
L 155.130682 111.931371 
L 159.670707 116.344771 
L 164.210732 120.519313 
L 168.750758 124.387827 
L 173.290783 127.888067 
L 177.830808 130.963713 
L 182.370833 133.565278 
L 186.910859 135.650899 
L 191.450884 137.18702 
L 195.990909 138.148924 
L 200.530934 138.521133 
L 205.07096 138.297658 
L 209.610985 137.482094 
L 214.15101 136.087566 
L 218.691035 134.13651 
L 223.231061 131.660321 
L 227.771086 128.698841 
L 232.311111 125.299721 
L 236.851136 121.517655 
L 241.391162 117.413498 
L 245.931187 113.053286 
L 250.471212 108.507177 
L 255.011237 103.848321 
L 259.551263 99.151679 
L 264.091288 94.492823 
L 268.631313 89.946714 
L 273.171338 85.586502 
L 277.711364 81.482345 
L 282.251389 77.700279 
L 286.791414 74.301159 
L 291.331439 71.339679 
L 295.871465 68.86349 
L 300.41149 66.912434 
L 304.951515 65.517906 
L 309.49154 64.702342 
L 314.031566 64.478867 
L 318.571591 64.851076 
L 323.111616 65.81298 
L 327.651641 67.349101 
L 332.191667 69.434722 
L 336.731692 72.036287 
L 341.271717 75.111933 
L 345.811742 78.612173 
L 350.351768 82.480687 
L 354.891793 86.655229 
L 359.431818 91.068629 
L 363.971843 95.649873 
L 368.511869 100.325248 
L 373.051894 105.019525 
L 377.591919 109.657172 
L 382.131944 114.163567 
L 386.67197 118.4662 
L 391.211995 122.495841 
L 395.75202 126.187651 
L 400.292045 129.482227 
L 404.832071 132.326559 
L 409.372096 134.67488 
L 413.912121 136.489405 
L 418.452146 137.740937 
L 422.992172 138.409339 
L 427.532197 138.483856 
L 432.072222 137.963288 
L 436.612247 136.856013 
L 441.152273 135.179846 
L 445.692298 132.961758 
L 450.232323 130.237439 
L 454.772348 127.050723 
L 459.312374 123.452886 
L 463.852399 119.50182 
L 468.392424 115.261097 
L 472.932449 110.798953 
L 477.472475 106.187186 
L 482.0125 101.5 
" style="fill:none;stroke:#0000ff;stroke-linecap:square;stroke-opacity:0.6;stroke-width:2;"/>
   </g>
   <g id="line2d_21">
    <path clip-path="url(#p7a763267bb)" d="M 32.55 101.5 
L 37.090025 102.852538 
L 41.630051 104.183313 
L 46.170076 105.470913 
L 50.710101 106.694619 
L 55.250126 107.834741 
L 59.790152 108.872936 
L 64.330177 109.792497 
L 68.870202 110.578629 
L 73.410227 111.218682 
L 77.950253 111.702358 
L 82.490278 112.021874 
L 87.030303 112.172089 
L 91.570328 112.150587 
L 96.110354 111.957712 
L 100.650379 111.596569 
L 105.190404 111.072968 
L 109.730429 110.395335 
L 114.270455 109.574573 
L 118.81048 108.623887 
L 123.350505 107.558576 
L 127.89053 106.39578 
L 132.430556 105.154208 
L 136.970581 103.85384 
L 141.510606 102.515597 
L 146.050631 101.161013 
L 150.590657 99.811883 
L 155.130682 98.489916 
L 159.670707 97.216382 
L 164.210732 96.011773 
L 168.750758 94.895471 
L 173.290783 93.88544 
L 177.830808 92.997929 
L 182.370833 92.247219 
L 186.910859 91.645391 
L 191.450884 91.202127 
L 195.990909 90.924559 
L 200.530934 90.817154 
L 205.07096 90.88164 
L 209.610985 91.11698 
L 214.15101 91.519386 
L 218.691035 92.082384 
L 223.231061 92.796915 
L 227.771086 93.651482 
L 232.311111 94.632335 
L 236.851136 95.72369 
L 241.391162 96.907989 
L 245.931187 98.166175 
L 250.471212 99.478004 
L 255.011237 100.822367 
L 259.551263 102.177633 
L 264.091288 103.521996 
L 268.631313 104.833825 
L 273.171338 106.092011 
L 277.711364 107.27631 
L 282.251389 108.367665 
L 286.791414 109.348518 
L 291.331439 110.203085 
L 295.871465 110.917616 
L 300.41149 111.480614 
L 304.951515 111.88302 
L 309.49154 112.11836 
L 314.031566 112.182846 
L 318.571591 112.075441 
L 323.111616 111.797873 
L 327.651641 111.354609 
L 332.191667 110.752781 
L 336.731692 110.002071 
L 341.271717 109.11456 
L 345.811742 108.104529 
L 350.351768 106.988227 
L 354.891793 105.783618 
L 359.431818 104.510084 
L 363.971843 103.188117 
L 368.511869 101.838987 
L 373.051894 100.484403 
L 377.591919 99.14616 
L 382.131944 97.845792 
L 386.67197 96.60422 
L 391.211995 95.441424 
L 395.75202 94.376113 
L 400.292045 93.425427 
L 404.832071 92.604665 
L 409.372096 91.927032 
L 413.912121 91.403431 
L 418.452146 91.042288 
L 422.992172 90.849413 
L 427.532197 90.827911 
L 432.072222 90.978126 
L 436.612247 91.297642 
L 441.152273 91.781318 
L 445.692298 92.421371 
L 450.232323 93.207503 
L 454.772348 94.127064 
L 459.312374 95.165259 
L 463.852399 96.305381 
L 468.392424 97.529087 
L 472.932449 98.816687 
L 477.472475 100.147462 
L 482.0125 101.5 
" style="fill:none;stroke:#0000ff;stroke-linecap:square;stroke-opacity:0.4;stroke-width:2;"/>
   </g>
   <g id="line2d_22">
    <path clip-path="url(#p7a763267bb)" d="M 32.55 101.5 
L 37.090025 108.47218 
L 41.630051 115.332175 
L 46.170076 121.969605 
L 50.710101 128.277671 
L 55.250126 134.154874 
L 59.790152 139.506649 
L 64.330177 144.246882 
L 68.870202 148.299302 
L 73.410227 151.598704 
L 77.950253 154.091998 
L 82.490278 155.739068 
L 87.030303 156.513411 
L 91.570328 156.402567 
L 96.110354 155.408321 
L 100.650379 153.54667 
L 105.190404 150.847568 
L 109.730429 147.354445 
L 114.270455 143.123507 
L 118.81048 138.222832 
L 123.350505 132.731272 
L 127.89053 126.737189 
L 132.430556 120.337031 
L 136.970581 113.633777 
L 141.510606 106.735287 
L 146.050631 99.752559 
L 150.590657 92.797948 
L 155.130682 85.983356 
L 159.670707 79.418433 
L 164.210732 73.20881 
L 168.750758 67.454404 
L 173.290783 62.247803 
L 177.830808 57.672785 
L 182.370833 53.802964 
L 186.910859 50.700606 
L 191.450884 48.415629 
L 195.990909 46.984799 
L 200.530934 46.431139 
L 205.07096 46.763558 
L 209.610985 47.976707 
L 214.15101 50.051066 
L 218.691035 52.953257 
L 223.231061 56.636583 
L 227.771086 61.041779 
L 232.311111 66.097963 
L 236.851136 71.723778 
L 241.391162 77.828704 
L 245.931187 84.31451 
L 250.471212 91.076838 
L 255.011237 98.006877 
L 259.551263 104.993123 
L 264.091288 111.923162 
L 268.631313 118.68549 
L 273.171338 125.171296 
L 277.711364 131.276222 
L 282.251389 136.902037 
L 286.791414 141.958221 
L 291.331439 146.363417 
L 295.871465 150.046743 
L 300.41149 152.948934 
L 304.951515 155.023293 
L 309.49154 156.236442 
L 314.031566 156.568861 
L 318.571591 156.015201 
L 323.111616 154.584371 
L 327.651641 152.299394 
L 332.191667 149.197036 
L 336.731692 145.327215 
L 341.271717 140.752197 
L 345.811742 135.545596 
L 350.351768 129.79119 
L 354.891793 123.581567 
L 359.431818 117.016644 
L 363.971843 110.202052 
L 368.511869 103.247441 
L 373.051894 96.264713 
L 377.591919 89.366223 
L 382.131944 82.662969 
L 386.67197 76.262811 
L 391.211995 70.268728 
L 395.75202 64.777168 
L 400.292045 59.876493 
L 404.832071 55.645555 
L 409.372096 52.152432 
L 413.912121 49.45333 
L 418.452146 47.591679 
L 422.992172 46.597433 
L 427.532197 46.486589 
L 432.072222 47.260932 
L 436.612247 48.908002 
L 441.152273 51.401296 
L 445.692298 54.700698 
L 450.232323 58.753118 
L 454.772348 63.493351 
L 459.312374 68.845126 
L 463.852399 74.722329 
L 468.392424 81.030395 
L 472.932449 87.667825 
L 477.472475 94.52782 
L 482.0125 101.5 
" style="fill:none;stroke:#0000ff;stroke-linecap:square;stroke-opacity:0.2;stroke-width:2;"/>
   </g>
   <g id="line2d_23">
    <path clip-path="url(#p7a763267bb)" d="M 32.55 101.5 
L 37.090025 111.926346 
L 41.630051 122.184929 
L 46.170076 132.110683 
L 50.710101 141.5439 
L 55.250126 150.332795 
L 59.790152 158.335953 
L 64.330177 165.424598 
L 68.870202 171.484674 
L 73.410227 176.418669 
L 77.950253 180.147195 
L 82.490278 182.610258 
L 87.030303 183.768227 
L 91.570328 183.602469 
L 96.110354 182.115652 
L 100.650379 179.331699 
L 105.190404 175.295404 
L 109.730429 170.071714 
L 114.270455 163.74468 
L 118.81048 156.416105 
L 123.350505 148.203909 
L 127.89053 139.24023 
L 132.430556 129.669297 
L 136.970581 119.645109 
L 141.510606 109.32896 
L 146.050631 98.886839 
L 150.590657 88.486766 
L 155.130682 78.29608 
L 159.670707 68.478754 
L 164.210732 59.192752 
L 168.750758 50.58749 
L 173.290783 42.801429 
L 177.830808 35.959849 
L 182.370833 30.172836 
L 186.910859 25.533503 
L 191.450884 22.1165 
L 195.990909 19.976807 
L 200.530934 19.148852 
L 205.07096 19.645959 
L 209.610985 21.460127 
L 214.15101 24.562167 
L 218.691035 28.902166 
L 223.231061 34.410291 
L 227.771086 40.997914 
L 232.311111 48.559039 
L 236.851136 56.972003 
L 241.391162 66.10144 
L 245.931187 75.800453 
L 250.471212 85.912981 
L 255.011237 96.27631 
L 259.551263 106.72369 
L 264.091288 117.087019 
L 268.631313 127.199547 
L 273.171338 136.89856 
L 277.711364 146.027997 
L 282.251389 154.440961 
L 286.791414 162.002086 
L 291.331439 168.589709 
L 295.871465 174.097834 
L 300.41149 178.437833 
L 304.951515 181.539873 
L 309.49154 183.354041 
L 314.031566 183.851148 
L 318.571591 183.023193 
L 323.111616 180.8835 
L 327.651641 177.466497 
L 332.191667 172.827164 
L 336.731692 167.040151 
L 341.271717 160.198571 
L 345.811742 152.41251 
L 350.351768 143.807248 
L 354.891793 134.521246 
L 359.431818 124.70392 
L 363.971843 114.513234 
L 368.511869 104.113161 
L 373.051894 93.67104 
L 377.591919 83.354891 
L 382.131944 73.330703 
L 386.67197 63.75977 
L 391.211995 54.796091 
L 395.75202 46.583895 
L 400.292045 39.25532 
L 404.832071 32.928286 
L 409.372096 27.704596 
L 413.912121 23.668301 
L 418.452146 20.884348 
L 422.992172 19.397531 
L 427.532197 19.231773 
L 432.072222 20.389742 
L 436.612247 22.852805 
L 441.152273 26.581331 
L 445.692298 31.515326 
L 450.232323 37.575402 
L 454.772348 44.664047 
L 459.312374 52.667205 
L 463.852399 61.4561 
L 468.392424 70.889317 
L 472.932449 80.815071 
L 477.472475 91.073654 
L 482.0125 101.5 
" style="fill:none;stroke:#0000ff;stroke-linecap:square;stroke-opacity:0.1;stroke-width:2;"/>
   </g>
   <g id="line2d_24">
    <path clip-path="url(#p7a763267bb)" d="M 144.915625 188.2 
L 144.915625 14.8 
" style="fill:none;stroke:#ff0000;stroke-dasharray:1.85,0.8;stroke-dashoffset:0;stroke-width:0.5;"/>
   </g>
   <g id="line2d_25">
    <path clip-path="url(#p7a763267bb)" d="M 257.28125 188.2 
L 257.28125 14.8 
" style="fill:none;stroke:#ff0000;stroke-dasharray:1.85,0.8;stroke-dashoffset:0;stroke-width:0.5;"/>
   </g>
   <g id="line2d_26">
    <path clip-path="url(#p7a763267bb)" d="M 369.646875 188.2 
L 369.646875 14.8 
" style="fill:none;stroke:#ff0000;stroke-dasharray:1.85,0.8;stroke-dashoffset:0;stroke-width:0.5;"/>
   </g>
   <g id="line2d_27">
    <path clip-path="url(#p7a763267bb)" d="M 88.732812 188.2 
L 88.732812 14.8 
" style="fill:none;stroke:#0000ff;stroke-dasharray:1.85,0.8;stroke-dashoffset:0;stroke-width:0.5;"/>
   </g>
   <g id="line2d_28">
    <path clip-path="url(#p7a763267bb)" d="M 201.098437 188.2 
L 201.098437 14.8 
" style="fill:none;stroke:#0000ff;stroke-dasharray:1.85,0.8;stroke-dashoffset:0;stroke-width:0.5;"/>
   </g>
   <g id="line2d_29">
    <path clip-path="url(#p7a763267bb)" d="M 313.464063 188.2 
L 313.464063 14.8 
" style="fill:none;stroke:#0000ff;stroke-dasharray:1.85,0.8;stroke-dashoffset:0;stroke-width:0.5;"/>
   </g>
   <g id="line2d_30">
    <path clip-path="url(#p7a763267bb)" d="M 425.829687 188.2 
L 425.829687 14.8 
" style="fill:none;stroke:#0000ff;stroke-dasharray:1.85,0.8;stroke-dashoffset:0;stroke-width:0.5;"/>
   </g>
   <g id="patch_3">
    <path d="M 32.55 188.2 
L 32.55 14.8 
" style="fill:none;stroke:#000000;stroke-linecap:square;stroke-linejoin:miter;stroke-width:0.8;"/>
   </g>
   <g id="patch_4">
    <path d="M 482.0125 188.2 
L 482.0125 14.8 
" style="fill:none;stroke:#000000;stroke-linecap:square;stroke-linejoin:miter;stroke-width:0.8;"/>
   </g>
   <g id="patch_5">
    <path d="M 32.55 188.2 
L 482.0125 188.2 
" style="fill:none;stroke:#000000;stroke-linecap:square;stroke-linejoin:miter;stroke-width:0.8;"/>
   </g>
   <g id="patch_6">
    <path d="M 32.55 14.8 
L 482.0125 14.8 
" style="fill:none;stroke:#000000;stroke-linecap:square;stroke-linejoin:miter;stroke-width:0.8;"/>
   </g>
   <g id="text_19">
    <g id="patch_7">
     <path d="M 139.304688 178.283594 
L 150.526563 178.283594 
Q 155.026563 178.283594 155.026563 173.783594 
L 155.026563 159.266406 
Q 155.026563 154.766406 150.526563 154.766406 
L 139.304688 154.766406 
Q 134.804688 154.766406 134.804688 159.266406 
L 134.804688 173.783594 
Q 134.804688 178.283594 139.304688 178.283594 
z
" style="fill:#ffffff;stroke:#ffffff;stroke-linejoin:miter;stroke-width:2;"/>
    </g>
    <!-- N -->
    <g transform="translate(139.304688 170.664062)scale(0.15 -0.15)">
     <defs>
      <path d="M 9.8125 72.90625 
L 23.09375 72.90625 
L 55.421875 11.921875 
L 55.421875 72.90625 
L 64.984375 72.90625 
L 64.984375 0 
L 51.703125 0 
L 19.390625 60.984375 
L 19.390625 0 
L 9.8125 0 
z
" id="DejaVuSans-78"/>
     </defs>
     <use xlink:href="#DejaVuSans-78"/>
    </g>
   </g>
   <g id="text_20">
    <g id="patch_8">
     <path d="M 251.670312 178.283594 
L 262.892187 178.283594 
Q 267.392187 178.283594 267.392187 173.783594 
L 267.392187 159.266406 
Q 267.392187 154.766406 262.892187 154.766406 
L 251.670312 154.766406 
Q 247.170312 154.766406 247.170312 159.266406 
L 247.170312 173.783594 
Q 247.170312 178.283594 251.670312 178.283594 
z
" style="fill:#ffffff;stroke:#ffffff;stroke-linejoin:miter;stroke-width:2;"/>
    </g>
    <!-- N -->
    <g transform="translate(251.670312 170.664062)scale(0.15 -0.15)">
     <use xlink:href="#DejaVuSans-78"/>
    </g>
   </g>
   <g id="text_21">
    <g id="patch_9">
     <path d="M 364.035937 178.283594 
L 375.257812 178.283594 
Q 379.757812 178.283594 379.757812 173.783594 
L 379.757812 159.266406 
Q 379.757812 154.766406 375.257812 154.766406 
L 364.035937 154.766406 
Q 359.535937 154.766406 359.535937 159.266406 
L 359.535937 173.783594 
Q 359.535937 178.283594 364.035937 178.283594 
z
" style="fill:#ffffff;stroke:#ffffff;stroke-linejoin:miter;stroke-width:2;"/>
    </g>
    <!-- N -->
    <g transform="translate(364.035937 170.664062)scale(0.15 -0.15)">
     <use xlink:href="#DejaVuSans-78"/>
    </g>
   </g>
   <g id="text_22">
    <g id="patch_10">
     <path d="M 83.602344 178.283594 
L 93.863281 178.283594 
Q 98.363281 178.283594 98.363281 173.783594 
L 98.363281 159.266406 
Q 98.363281 154.766406 93.863281 154.766406 
L 83.602344 154.766406 
Q 79.102344 154.766406 79.102344 159.266406 
L 79.102344 173.783594 
Q 79.102344 178.283594 83.602344 178.283594 
z
" style="fill:#ffffff;stroke:#ffffff;stroke-linejoin:miter;stroke-width:2;"/>
    </g>
    <!-- A -->
    <g transform="translate(83.602344 170.664062)scale(0.15 -0.15)">
     <defs>
      <path d="M 34.1875 63.1875 
L 20.796875 26.90625 
L 47.609375 26.90625 
z
M 28.609375 72.90625 
L 39.796875 72.90625 
L 67.578125 0 
L 57.328125 0 
L 50.6875 18.703125 
L 17.828125 18.703125 
L 11.1875 0 
L 0.78125 0 
z
" id="DejaVuSans-65"/>
     </defs>
     <use xlink:href="#DejaVuSans-65"/>
    </g>
   </g>
   <g id="text_23">
    <g id="patch_11">
     <path d="M 195.967969 178.283594 
L 206.228906 178.283594 
Q 210.728906 178.283594 210.728906 173.783594 
L 210.728906 159.266406 
Q 210.728906 154.766406 206.228906 154.766406 
L 195.967969 154.766406 
Q 191.467969 154.766406 191.467969 159.266406 
L 191.467969 173.783594 
Q 191.467969 178.283594 195.967969 178.283594 
z
" style="fill:#ffffff;stroke:#ffffff;stroke-linejoin:miter;stroke-width:2;"/>
    </g>
    <!-- A -->
    <g transform="translate(195.967969 170.664062)scale(0.15 -0.15)">
     <use xlink:href="#DejaVuSans-65"/>
    </g>
   </g>
   <g id="text_24">
    <g id="patch_12">
     <path d="M 308.333594 178.283594 
L 318.594531 178.283594 
Q 323.094531 178.283594 323.094531 173.783594 
L 323.094531 159.266406 
Q 323.094531 154.766406 318.594531 154.766406 
L 308.333594 154.766406 
Q 303.833594 154.766406 303.833594 159.266406 
L 303.833594 173.783594 
Q 303.833594 178.283594 308.333594 178.283594 
z
" style="fill:#ffffff;stroke:#ffffff;stroke-linejoin:miter;stroke-width:2;"/>
    </g>
    <!-- A -->
    <g transform="translate(308.333594 170.664062)scale(0.15 -0.15)">
     <use xlink:href="#DejaVuSans-65"/>
    </g>
   </g>
   <g id="text_25">
    <g id="patch_13">
     <path d="M 420.699219 178.283594 
L 430.960156 178.283594 
Q 435.460156 178.283594 435.460156 173.783594 
L 435.460156 159.266406 
Q 435.460156 154.766406 430.960156 154.766406 
L 420.699219 154.766406 
Q 416.199219 154.766406 416.199219 159.266406 
L 416.199219 173.783594 
Q 416.199219 178.283594 420.699219 178.283594 
z
" style="fill:#ffffff;stroke:#ffffff;stroke-linejoin:miter;stroke-width:2;"/>
    </g>
    <!-- A -->
    <g transform="translate(420.699219 170.664062)scale(0.15 -0.15)">
     <use xlink:href="#DejaVuSans-65"/>
    </g>
   </g>
  </g>
 </g>
 <defs>
  <clipPath id="p7a763267bb">
   <rect height="173.4" width="449.4625" x="32.55" y="14.8"/>
  </clipPath>
 </defs>
</svg>
