<?xml version="1.0" encoding="utf-8" standalone="no"?>
<!DOCTYPE svg PUBLIC "-//W3C//DTD SVG 1.1//EN"
  "http://www.w3.org/Graphics/SVG/1.1/DTD/svg11.dtd">
<!-- Created with matplotlib (https://matplotlib.org/) -->
<svg height="216pt" version="1.1" viewBox="0 0 504 216" width="504pt" xmlns="http://www.w3.org/2000/svg" xmlns:xlink="http://www.w3.org/1999/xlink">
 <metadata>
  <rdf:RDF xmlns:cc="http://creativecommons.org/ns#" xmlns:dc="http://purl.org/dc/elements/1.1/" xmlns:rdf="http://www.w3.org/1999/02/22-rdf-syntax-ns#">
   <cc:Work>
    <dc:type rdf:resource="http://purl.org/dc/dcmitype/StillImage"/>
    <dc:date>2024-01-19T14:44:42.770131</dc:date>
    <dc:format>image/svg+xml</dc:format>
    <dc:creator>
     <cc:Agent>
      <dc:title>Matplotlib v3.3.2, https://matplotlib.org/</dc:title>
     </cc:Agent>
    </dc:creator>
   </cc:Work>
  </rdf:RDF>
 </metadata>
 <defs>
  <style type="text/css">*{stroke-linecap:butt;stroke-linejoin:round;}</style>
 </defs>
 <g id="figure_1">
  <g id="patch_1">
   <path d="M 0 216 
L 504 216 
L 504 0 
L 0 0 
z
" style="fill:none;"/>
  </g>
  <g id="axes_1">
   <g id="patch_2">
    <path d="M 32.55 188.2 
L 482.0125 188.2 
L 482.0125 14.8 
L 32.55 14.8 
z
" style="fill:none;"/>
   </g>
   <g id="matplotlib.axis_1">
    <g id="xtick_1">
     <g id="line2d_1">
      <defs>
       <path d="M 0 0 
L 0 3.5 
" id="m6b5e568385" style="stroke:#000000;stroke-width:0.8;"/>
      </defs>
      <g>
       <use style="stroke:#000000;stroke-width:0.8;" x="32.55" xlink:href="#m6b5e568385" y="188.2"/>
      </g>
     </g>
     <g id="text_1">
      <!-- 0.00 -->
      <g transform="translate(21.417188 202.798438)scale(0.1 -0.1)">
       <defs>
        <path d="M 31.78125 66.40625 
Q 24.171875 66.40625 20.328125 58.90625 
Q 16.5 51.421875 16.5 36.375 
Q 16.5 21.390625 20.328125 13.890625 
Q 24.171875 6.390625 31.78125 6.390625 
Q 39.453125 6.390625 43.28125 13.890625 
Q 47.125 21.390625 47.125 36.375 
Q 47.125 51.421875 43.28125 58.90625 
Q 39.453125 66.40625 31.78125 66.40625 
z
M 31.78125 74.21875 
Q 44.046875 74.21875 50.515625 64.515625 
Q 56.984375 54.828125 56.984375 36.375 
Q 56.984375 17.96875 50.515625 8.265625 
Q 44.046875 -1.421875 31.78125 -1.421875 
Q 19.53125 -1.421875 13.0625 8.265625 
Q 6.59375 17.96875 6.59375 36.375 
Q 6.59375 54.828125 13.0625 64.515625 
Q 19.53125 74.21875 31.78125 74.21875 
z
" id="DejaVuSans-48"/>
        <path d="M 10.6875 12.40625 
L 21 12.40625 
L 21 0 
L 10.6875 0 
z
" id="DejaVuSans-46"/>
       </defs>
       <use xlink:href="#DejaVuSans-48"/>
       <use x="63.623047" xlink:href="#DejaVuSans-46"/>
       <use x="95.410156" xlink:href="#DejaVuSans-48"/>
       <use x="159.033203" xlink:href="#DejaVuSans-48"/>
      </g>
     </g>
    </g>
    <g id="xtick_2">
     <g id="line2d_2">
      <g>
       <use style="stroke:#000000;stroke-width:0.8;" x="88.732812" xlink:href="#m6b5e568385" y="188.2"/>
      </g>
     </g>
     <g id="text_2">
      <!-- 0.25 -->
      <g transform="translate(77.6 202.798438)scale(0.1 -0.1)">
       <defs>
        <path d="M 19.1875 8.296875 
L 53.609375 8.296875 
L 53.609375 0 
L 7.328125 0 
L 7.328125 8.296875 
Q 12.9375 14.109375 22.625 23.890625 
Q 32.328125 33.6875 34.8125 36.53125 
Q 39.546875 41.84375 41.421875 45.53125 
Q 43.3125 49.21875 43.3125 52.78125 
Q 43.3125 58.59375 39.234375 62.25 
Q 35.15625 65.921875 28.609375 65.921875 
Q 23.96875 65.921875 18.8125 64.3125 
Q 13.671875 62.703125 7.8125 59.421875 
L 7.8125 69.390625 
Q 13.765625 71.78125 18.9375 73 
Q 24.125 74.21875 28.421875 74.21875 
Q 39.75 74.21875 46.484375 68.546875 
Q 53.21875 62.890625 53.21875 53.421875 
Q 53.21875 48.921875 51.53125 44.890625 
Q 49.859375 40.875 45.40625 35.40625 
Q 44.1875 33.984375 37.640625 27.21875 
Q 31.109375 20.453125 19.1875 8.296875 
z
" id="DejaVuSans-50"/>
        <path d="M 10.796875 72.90625 
L 49.515625 72.90625 
L 49.515625 64.59375 
L 19.828125 64.59375 
L 19.828125 46.734375 
Q 21.96875 47.46875 24.109375 47.828125 
Q 26.265625 48.1875 28.421875 48.1875 
Q 40.625 48.1875 47.75 41.5 
Q 54.890625 34.8125 54.890625 23.390625 
Q 54.890625 11.625 47.5625 5.09375 
Q 40.234375 -1.421875 26.90625 -1.421875 
Q 22.3125 -1.421875 17.546875 -0.640625 
Q 12.796875 0.140625 7.71875 1.703125 
L 7.71875 11.625 
Q 12.109375 9.234375 16.796875 8.0625 
Q 21.484375 6.890625 26.703125 6.890625 
Q 35.15625 6.890625 40.078125 11.328125 
Q 45.015625 15.765625 45.015625 23.390625 
Q 45.015625 31 40.078125 35.4375 
Q 35.15625 39.890625 26.703125 39.890625 
Q 22.75 39.890625 18.8125 39.015625 
Q 14.890625 38.140625 10.796875 36.28125 
z
" id="DejaVuSans-53"/>
       </defs>
       <use xlink:href="#DejaVuSans-48"/>
       <use x="63.623047" xlink:href="#DejaVuSans-46"/>
       <use x="95.410156" xlink:href="#DejaVuSans-50"/>
       <use x="159.033203" xlink:href="#DejaVuSans-53"/>
      </g>
     </g>
    </g>
    <g id="xtick_3">
     <g id="line2d_3">
      <g>
       <use style="stroke:#000000;stroke-width:0.8;" x="144.915625" xlink:href="#m6b5e568385" y="188.2"/>
      </g>
     </g>
     <g id="text_3">
      <!-- 0.50 -->
      <g transform="translate(133.782813 202.798438)scale(0.1 -0.1)">
       <use xlink:href="#DejaVuSans-48"/>
       <use x="63.623047" xlink:href="#DejaVuSans-46"/>
       <use x="95.410156" xlink:href="#DejaVuSans-53"/>
       <use x="159.033203" xlink:href="#DejaVuSans-48"/>
      </g>
     </g>
    </g>
    <g id="xtick_4">
     <g id="line2d_4">
      <g>
       <use style="stroke:#000000;stroke-width:0.8;" x="201.098437" xlink:href="#m6b5e568385" y="188.2"/>
      </g>
     </g>
     <g id="text_4">
      <!-- 0.75 -->
      <g transform="translate(189.965625 202.798438)scale(0.1 -0.1)">
       <defs>
        <path d="M 8.203125 72.90625 
L 55.078125 72.90625 
L 55.078125 68.703125 
L 28.609375 0 
L 18.3125 0 
L 43.21875 64.59375 
L 8.203125 64.59375 
z
" id="DejaVuSans-55"/>
       </defs>
       <use xlink:href="#DejaVuSans-48"/>
       <use x="63.623047" xlink:href="#DejaVuSans-46"/>
       <use x="95.410156" xlink:href="#DejaVuSans-55"/>
       <use x="159.033203" xlink:href="#DejaVuSans-53"/>
      </g>
     </g>
    </g>
    <g id="xtick_5">
     <g id="line2d_5">
      <g>
       <use style="stroke:#000000;stroke-width:0.8;" x="257.28125" xlink:href="#m6b5e568385" y="188.2"/>
      </g>
     </g>
     <g id="text_5">
      <!-- 1.00 -->
      <g transform="translate(246.148438 202.798438)scale(0.1 -0.1)">
       <defs>
        <path d="M 12.40625 8.296875 
L 28.515625 8.296875 
L 28.515625 63.921875 
L 10.984375 60.40625 
L 10.984375 69.390625 
L 28.421875 72.90625 
L 38.28125 72.90625 
L 38.28125 8.296875 
L 54.390625 8.296875 
L 54.390625 0 
L 12.40625 0 
z
" id="DejaVuSans-49"/>
       </defs>
       <use xlink:href="#DejaVuSans-49"/>
       <use x="63.623047" xlink:href="#DejaVuSans-46"/>
       <use x="95.410156" xlink:href="#DejaVuSans-48"/>
       <use x="159.033203" xlink:href="#DejaVuSans-48"/>
      </g>
     </g>
    </g>
    <g id="xtick_6">
     <g id="line2d_6">
      <g>
       <use style="stroke:#000000;stroke-width:0.8;" x="313.464063" xlink:href="#m6b5e568385" y="188.2"/>
      </g>
     </g>
     <g id="text_6">
      <!-- 1.25 -->
      <g transform="translate(302.33125 202.798438)scale(0.1 -0.1)">
       <use xlink:href="#DejaVuSans-49"/>
       <use x="63.623047" xlink:href="#DejaVuSans-46"/>
       <use x="95.410156" xlink:href="#DejaVuSans-50"/>
       <use x="159.033203" xlink:href="#DejaVuSans-53"/>
      </g>
     </g>
    </g>
    <g id="xtick_7">
     <g id="line2d_7">
      <g>
       <use style="stroke:#000000;stroke-width:0.8;" x="369.646875" xlink:href="#m6b5e568385" y="188.2"/>
      </g>
     </g>
     <g id="text_7">
      <!-- 1.50 -->
      <g transform="translate(358.514062 202.798438)scale(0.1 -0.1)">
       <use xlink:href="#DejaVuSans-49"/>
       <use x="63.623047" xlink:href="#DejaVuSans-46"/>
       <use x="95.410156" xlink:href="#DejaVuSans-53"/>
       <use x="159.033203" xlink:href="#DejaVuSans-48"/>
      </g>
     </g>
    </g>
    <g id="xtick_8">
     <g id="line2d_8">
      <g>
       <use style="stroke:#000000;stroke-width:0.8;" x="425.829687" xlink:href="#m6b5e568385" y="188.2"/>
      </g>
     </g>
     <g id="text_8">
      <!-- 1.75 -->
      <g transform="translate(414.696875 202.798438)scale(0.1 -0.1)">
       <use xlink:href="#DejaVuSans-49"/>
       <use x="63.623047" xlink:href="#DejaVuSans-46"/>
       <use x="95.410156" xlink:href="#DejaVuSans-55"/>
       <use x="159.033203" xlink:href="#DejaVuSans-53"/>
      </g>
     </g>
    </g>
    <g id="xtick_9">
     <g id="line2d_9">
      <g>
       <use style="stroke:#000000;stroke-width:0.8;" x="482.0125" xlink:href="#m6b5e568385" y="188.2"/>
      </g>
     </g>
     <g id="text_9">
      <!-- 2.00 -->
      <g transform="translate(470.879687 202.798438)scale(0.1 -0.1)">
       <use xlink:href="#DejaVuSans-50"/>
       <use x="63.623047" xlink:href="#DejaVuSans-46"/>
       <use x="95.410156" xlink:href="#DejaVuSans-48"/>
       <use x="159.033203" xlink:href="#DejaVuSans-48"/>
      </g>
     </g>
    </g>
   </g>
   <g id="matplotlib.axis_2">
    <g id="ytick_1">
     <g id="line2d_10">
      <defs>
       <path d="M 0 0 
L -3.5 0 
" id="mb8c78e3c99" style="stroke:#000000;stroke-width:0.8;"/>
      </defs>
      <g>
       <use style="stroke:#000000;stroke-width:0.8;" x="32.55" xlink:href="#mb8c78e3c99" y="188.2"/>
      </g>
     </g>
     <g id="text_10">
      <!-- −4 -->
      <g transform="translate(10.807813 191.999219)scale(0.1 -0.1)">
       <defs>
        <path d="M 10.59375 35.5 
L 73.1875 35.5 
L 73.1875 27.203125 
L 10.59375 27.203125 
z
" id="DejaVuSans-8722"/>
        <path d="M 37.796875 64.3125 
L 12.890625 25.390625 
L 37.796875 25.390625 
z
M 35.203125 72.90625 
L 47.609375 72.90625 
L 47.609375 25.390625 
L 58.015625 25.390625 
L 58.015625 17.1875 
L 47.609375 17.1875 
L 47.609375 0 
L 37.796875 0 
L 37.796875 17.1875 
L 4.890625 17.1875 
L 4.890625 26.703125 
z
" id="DejaVuSans-52"/>
       </defs>
       <use xlink:href="#DejaVuSans-8722"/>
       <use x="83.789062" xlink:href="#DejaVuSans-52"/>
      </g>
     </g>
    </g>
    <g id="ytick_2">
     <g id="line2d_11">
      <g>
       <use style="stroke:#000000;stroke-width:0.8;" x="32.55" xlink:href="#mb8c78e3c99" y="166.525"/>
      </g>
     </g>
     <g id="text_11">
      <!-- −3 -->
      <g transform="translate(10.807813 170.324219)scale(0.1 -0.1)">
       <defs>
        <path d="M 40.578125 39.3125 
Q 47.65625 37.796875 51.625 33 
Q 55.609375 28.21875 55.609375 21.1875 
Q 55.609375 10.40625 48.1875 4.484375 
Q 40.765625 -1.421875 27.09375 -1.421875 
Q 22.515625 -1.421875 17.65625 -0.515625 
Q 12.796875 0.390625 7.625 2.203125 
L 7.625 11.71875 
Q 11.71875 9.328125 16.59375 8.109375 
Q 21.484375 6.890625 26.8125 6.890625 
Q 36.078125 6.890625 40.9375 10.546875 
Q 45.796875 14.203125 45.796875 21.1875 
Q 45.796875 27.640625 41.28125 31.265625 
Q 36.765625 34.90625 28.71875 34.90625 
L 20.21875 34.90625 
L 20.21875 43.015625 
L 29.109375 43.015625 
Q 36.375 43.015625 40.234375 45.921875 
Q 44.09375 48.828125 44.09375 54.296875 
Q 44.09375 59.90625 40.109375 62.90625 
Q 36.140625 65.921875 28.71875 65.921875 
Q 24.65625 65.921875 20.015625 65.03125 
Q 15.375 64.15625 9.8125 62.3125 
L 9.8125 71.09375 
Q 15.4375 72.65625 20.34375 73.4375 
Q 25.25 74.21875 29.59375 74.21875 
Q 40.828125 74.21875 47.359375 69.109375 
Q 53.90625 64.015625 53.90625 55.328125 
Q 53.90625 49.265625 50.4375 45.09375 
Q 46.96875 40.921875 40.578125 39.3125 
z
" id="DejaVuSans-51"/>
       </defs>
       <use xlink:href="#DejaVuSans-8722"/>
       <use x="83.789062" xlink:href="#DejaVuSans-51"/>
      </g>
     </g>
    </g>
    <g id="ytick_3">
     <g id="line2d_12">
      <g>
       <use style="stroke:#000000;stroke-width:0.8;" x="32.55" xlink:href="#mb8c78e3c99" y="144.85"/>
      </g>
     </g>
     <g id="text_12">
      <!-- −2 -->
      <g transform="translate(10.807813 148.649219)scale(0.1 -0.1)">
       <use xlink:href="#DejaVuSans-8722"/>
       <use x="83.789062" xlink:href="#DejaVuSans-50"/>
      </g>
     </g>
    </g>
    <g id="ytick_4">
     <g id="line2d_13">
      <g>
       <use style="stroke:#000000;stroke-width:0.8;" x="32.55" xlink:href="#mb8c78e3c99" y="123.175"/>
      </g>
     </g>
     <g id="text_13">
      <!-- −1 -->
      <g transform="translate(10.807813 126.974219)scale(0.1 -0.1)">
       <use xlink:href="#DejaVuSans-8722"/>
       <use x="83.789062" xlink:href="#DejaVuSans-49"/>
      </g>
     </g>
    </g>
    <g id="ytick_5">
     <g id="line2d_14">
      <g>
       <use style="stroke:#000000;stroke-width:0.8;" x="32.55" xlink:href="#mb8c78e3c99" y="101.5"/>
      </g>
     </g>
     <g id="text_14">
      <!-- 0 -->
      <g transform="translate(19.1875 105.299219)scale(0.1 -0.1)">
       <use xlink:href="#DejaVuSans-48"/>
      </g>
     </g>
    </g>
    <g id="ytick_6">
     <g id="line2d_15">
      <g>
       <use style="stroke:#000000;stroke-width:0.8;" x="32.55" xlink:href="#mb8c78e3c99" y="79.825"/>
      </g>
     </g>
     <g id="text_15">
      <!-- 1 -->
      <g transform="translate(19.1875 83.624219)scale(0.1 -0.1)">
       <use xlink:href="#DejaVuSans-49"/>
      </g>
     </g>
    </g>
    <g id="ytick_7">
     <g id="line2d_16">
      <g>
       <use style="stroke:#000000;stroke-width:0.8;" x="32.55" xlink:href="#mb8c78e3c99" y="58.15"/>
      </g>
     </g>
     <g id="text_16">
      <!-- 2 -->
      <g transform="translate(19.1875 61.949219)scale(0.1 -0.1)">
       <use xlink:href="#DejaVuSans-50"/>
      </g>
     </g>
    </g>
    <g id="ytick_8">
     <g id="line2d_17">
      <g>
       <use style="stroke:#000000;stroke-width:0.8;" x="32.55" xlink:href="#mb8c78e3c99" y="36.475"/>
      </g>
     </g>
     <g id="text_17">
      <!-- 3 -->
      <g transform="translate(19.1875 40.274219)scale(0.1 -0.1)">
       <use xlink:href="#DejaVuSans-51"/>
      </g>
     </g>
    </g>
    <g id="ytick_9">
     <g id="line2d_18">
      <g>
       <use style="stroke:#000000;stroke-width:0.8;" x="32.55" xlink:href="#mb8c78e3c99" y="14.8"/>
      </g>
     </g>
     <g id="text_18">
      <!-- 4 -->
      <g transform="translate(19.1875 18.599219)scale(0.1 -0.1)">
       <use xlink:href="#DejaVuSans-52"/>
      </g>
     </g>
    </g>
   </g>
   <g id="line2d_19">
    <path clip-path="url(#p795c053b93)" d="M 32.55 101.5 
L 37.090025 89.666811 
L 41.630051 78.130899 
L 46.170076 67.18207 
L 50.710101 57.095384 
L 55.250126 48.12424 
L 59.790152 40.494015 
L 64.330177 34.396395 
L 68.870202 29.984567 
L 73.410227 27.369365 
L 77.950253 26.61649 
L 82.490278 27.744855 
L 87.030303 30.726113 
L 91.570328 35.485369 
L 96.110354 41.903059 
L 100.650379 49.817956 
L 105.190404 59.031221 
L 109.730429 69.311397 
L 114.270455 80.400221 
L 118.81048 92.019119 
L 123.350505 103.876198 
L 127.89053 115.673581 
L 132.430556 127.114893 
L 136.970581 137.912701 
L 141.510606 147.795742 
L 146.050631 156.51573 
L 150.590657 163.853601 
L 155.130682 169.625012 
L 159.670707 173.68497 
L 164.210732 175.931481 
L 168.750758 176.308108 
L 173.290783 174.80539 
L 177.830808 171.461077 
L 182.370833 166.359186 
L 186.910859 159.627888 
L 191.450884 151.436289 
L 195.990909 141.990179 
L 200.530934 131.526865 
L 205.07096 120.30921 
L 209.610985 108.619026 
L 214.15101 96.749996 
L 218.691035 85.000297 
L 223.231061 73.665107 
L 227.771086 63.029192 
L 232.311111 53.359748 
L 236.851136 44.899695 
L 241.391162 37.861567 
L 245.931187 32.422178 
L 250.471212 28.718178 
L 255.011237 26.842618 
L 259.551263 26.842618 
L 264.091288 28.718178 
L 268.631313 32.422178 
L 273.171338 37.861567 
L 277.711364 44.899695 
L 282.251389 53.359748 
L 286.791414 63.029192 
L 291.331439 73.665107 
L 295.871465 85.000297 
L 300.41149 96.749996 
L 304.951515 108.619026 
L 309.49154 120.30921 
L 314.031566 131.526865 
L 318.571591 141.990179 
L 323.111616 151.436289 
L 327.651641 159.627888 
L 332.191667 166.359186 
L 336.731692 171.461077 
L 341.271717 174.80539 
L 345.811742 176.308108 
L 350.351768 175.931481 
L 354.891793 173.68497 
L 359.431818 169.625012 
L 363.971843 163.853601 
L 368.511869 156.51573 
L 373.051894 147.795742 
L 377.591919 137.912701 
L 382.131944 127.114893 
L 386.67197 115.673581 
L 391.211995 103.876198 
L 395.75202 92.019119 
L 400.292045 80.400221 
L 404.832071 69.311397 
L 409.372096 59.031221 
L 413.912121 49.817956 
L 418.452146 41.903059 
L 422.992172 35.485369 
L 427.532197 30.726113 
L 432.072222 27.744855 
L 436.612247 26.61649 
L 441.152273 27.369365 
L 445.692298 29.984567 
L 450.232323 34.396395 
L 454.772348 40.494015 
L 459.312374 48.12424 
L 463.852399 57.095384 
L 468.392424 67.18207 
L 472.932449 78.130899 
L 477.472475 89.666811 
L 482.0125 101.5 
" style="fill:none;stroke:#0000ff;stroke-linecap:square;stroke-width:2;"/>
   </g>
   <g id="line2d_20">
    <path clip-path="url(#p795c053b93)" d="M 32.55 101.5 
L 37.090025 94.755301 
L 41.630051 88.180045 
L 46.170076 81.939415 
L 50.710101 76.19019 
L 55.250126 71.076804 
L 59.790152 66.727717 
L 64.330177 63.252186 
L 68.870202 60.737526 
L 73.410227 59.246909 
L 77.950253 58.817784 
L 82.490278 59.460932 
L 87.030303 61.160194 
L 91.570328 63.872881 
L 96.110354 67.530846 
L 100.650379 72.042191 
L 105.190404 77.293582 
L 109.730429 83.153092 
L 114.270455 89.473516 
L 118.81048 96.096073 
L 123.350505 102.854389 
L 127.89053 109.578679 
L 132.430556 116.100015 
L 136.970581 122.254566 
L 141.510606 127.887717 
L 146.050631 132.857949 
L 150.590657 137.0404 
L 155.130682 140.329997 
L 159.670707 142.644098 
L 164.210732 143.924568 
L 168.750758 144.139238 
L 173.290783 143.282716 
L 177.830808 141.37652 
L 182.370833 138.468536 
L 186.910859 134.631821 
L 191.450884 129.962761 
L 195.990909 124.578653 
L 200.530934 118.614758 
L 205.07096 112.220902 
L 209.610985 105.557713 
L 214.15101 98.792586 
L 218.691035 92.095475 
L 223.231061 85.634626 
L 227.771086 79.572351 
L 232.311111 74.060947 
L 236.851136 69.238873 
L 241.391162 65.22727 
L 245.931187 62.126919 
L 250.471212 60.015707 
L 255.011237 58.946673 
L 259.551263 58.946673 
L 264.091288 60.015707 
L 268.631313 62.126919 
L 273.171338 65.22727 
L 277.711364 69.238873 
L 282.251389 74.060947 
L 286.791414 79.572351 
L 291.331439 85.634626 
L 295.871465 92.095475 
L 300.41149 98.792586 
L 304.951515 105.557713 
L 309.49154 112.220902 
L 314.031566 118.614758 
L 318.571591 124.578653 
L 323.111616 129.962761 
L 327.651641 134.631821 
L 332.191667 138.468536 
L 336.731692 141.37652 
L 341.271717 143.282716 
L 345.811742 144.139238 
L 350.351768 143.924568 
L 354.891793 142.644098 
L 359.431818 140.329997 
L 363.971843 137.0404 
L 368.511869 132.857949 
L 373.051894 127.887717 
L 377.591919 122.254566 
L 382.131944 116.100015 
L 386.67197 109.578679 
L 391.211995 102.854389 
L 395.75202 96.096073 
L 400.292045 89.473516 
L 404.832071 83.153092 
L 409.372096 77.293582 
L 413.912121 72.042191 
L 418.452146 67.530846 
L 422.992172 63.872881 
L 427.532197 61.160194 
L 432.072222 59.460932 
L 436.612247 58.817784 
L 441.152273 59.246909 
L 445.692298 60.737526 
L 450.232323 63.252186 
L 454.772348 66.727717 
L 459.312374 71.076804 
L 463.852399 76.19019 
L 468.392424 81.939415 
L 472.932449 88.180045 
L 477.472475 94.755301 
L 482.0125 101.5 
" style="fill:none;stroke:#0000ff;stroke-linecap:square;stroke-opacity:0.6;stroke-width:2;"/>
   </g>
   <g id="line2d_21">
    <path clip-path="url(#p795c053b93)" d="M 32.55 101.5 
L 37.090025 101.680817 
L 41.630051 101.857092 
L 46.170076 102.024396 
L 50.710101 102.178526 
L 55.250126 102.31561 
L 59.790152 102.432204 
L 64.330177 102.525379 
L 68.870202 102.592794 
L 73.410227 102.632756 
L 77.950253 102.64426 
L 82.490278 102.627018 
L 87.030303 102.581463 
L 91.570328 102.508739 
L 96.110354 102.410673 
L 100.650379 102.289729 
L 105.190404 102.148946 
L 109.730429 101.991859 
L 114.270455 101.822416 
L 118.81048 101.644873 
L 123.350505 101.46369 
L 127.89053 101.28342 
L 132.430556 101.108591 
L 136.970581 100.943594 
L 141.510606 100.792576 
L 146.050631 100.65933 
L 150.590657 100.547204 
L 155.130682 100.459013 
L 159.670707 100.396975 
L 164.210732 100.362647 
L 168.750758 100.356892 
L 173.290783 100.379854 
L 177.830808 100.430957 
L 182.370833 100.508917 
L 186.910859 100.611775 
L 191.450884 100.736947 
L 195.990909 100.881288 
L 200.530934 101.041173 
L 205.07096 101.212585 
L 209.610985 101.391217 
L 214.15101 101.572583 
L 218.691035 101.752124 
L 223.231061 101.925332 
L 227.771086 102.087855 
L 232.311111 102.235609 
L 236.851136 102.364883 
L 241.391162 102.472429 
L 245.931187 102.555546 
L 250.471212 102.612145 
L 255.011237 102.640805 
L 259.551263 102.640805 
L 264.091288 102.612145 
L 268.631313 102.555546 
L 273.171338 102.472429 
L 277.711364 102.364883 
L 282.251389 102.235609 
L 286.791414 102.087855 
L 291.331439 101.925332 
L 295.871465 101.752124 
L 300.41149 101.572583 
L 304.951515 101.391217 
L 309.49154 101.212585 
L 314.031566 101.041173 
L 318.571591 100.881288 
L 323.111616 100.736947 
L 327.651641 100.611775 
L 332.191667 100.508917 
L 336.731692 100.430957 
L 341.271717 100.379854 
L 345.811742 100.356892 
L 350.351768 100.362647 
L 354.891793 100.396975 
L 359.431818 100.459013 
L 363.971843 100.547204 
L 368.511869 100.65933 
L 373.051894 100.792576 
L 377.591919 100.943594 
L 382.131944 101.108591 
L 386.67197 101.28342 
L 391.211995 101.46369 
L 395.75202 101.644873 
L 400.292045 101.822416 
L 404.832071 101.991859 
L 409.372096 102.148946 
L 413.912121 102.289729 
L 418.452146 102.410673 
L 422.992172 102.508739 
L 427.532197 102.581463 
L 432.072222 102.627018 
L 436.612247 102.64426 
L 441.152273 102.632756 
L 445.692298 102.592794 
L 450.232323 102.525379 
L 454.772348 102.432204 
L 459.312374 102.31561 
L 463.852399 102.178526 
L 468.392424 102.024396 
L 472.932449 101.857092 
L 477.472475 101.680817 
L 482.0125 101.5 
" style="fill:none;stroke:#0000ff;stroke-linecap:square;stroke-opacity:0.4;stroke-width:2;"/>
   </g>
   <g id="line2d_22">
    <path clip-path="url(#p795c053b93)" d="M 32.55 101.5 
L 37.090025 108.557085 
L 41.630051 115.43688 
L 46.170076 121.96655 
L 50.710101 127.982055 
L 55.250126 133.332272 
L 59.790152 137.882791 
L 64.330177 141.519293 
L 68.870202 144.150422 
L 73.410227 145.710078 
L 77.950253 146.159078 
L 82.490278 145.486143 
L 87.030303 143.708178 
L 91.570328 140.86985 
L 96.110354 137.042464 
L 100.650379 132.322172 
L 105.190404 126.827559 
L 109.730429 120.696661 
L 114.270455 114.0835 
L 118.81048 107.154214 
L 123.350505 100.082881 
L 127.89053 93.04715 
L 132.430556 86.223773 
L 136.970581 79.784168 
L 141.510606 73.890114 
L 146.050631 68.689681 
L 150.590657 64.313517 
L 155.130682 60.87156 
L 159.670707 58.450279 
L 164.210732 57.110503 
L 168.750758 56.88589 
L 173.290783 57.782082 
L 177.830808 59.776566 
L 182.370833 62.819235 
L 186.910859 66.833651 
L 191.450884 71.718962 
L 195.990909 77.35244 
L 200.530934 83.592558 
L 205.07096 90.28255 
L 209.610985 97.25435 
L 214.15101 104.33281 
L 218.691035 111.340104 
L 223.231061 118.100192 
L 227.771086 124.443247 
L 232.311111 130.209916 
L 236.851136 135.255328 
L 241.391162 139.452732 
L 245.931187 142.696678 
L 250.471212 144.905672 
L 255.011237 146.02422 
L 259.551263 146.02422 
L 264.091288 144.905672 
L 268.631313 142.696678 
L 273.171338 139.452732 
L 277.711364 135.255328 
L 282.251389 130.209916 
L 286.791414 124.443247 
L 291.331439 118.100192 
L 295.871465 111.340104 
L 300.41149 104.33281 
L 304.951515 97.25435 
L 309.49154 90.28255 
L 314.031566 83.592558 
L 318.571591 77.35244 
L 323.111616 71.718962 
L 327.651641 66.833651 
L 332.191667 62.819235 
L 336.731692 59.776566 
L 341.271717 57.782082 
L 345.811742 56.88589 
L 350.351768 57.110503 
L 354.891793 58.450279 
L 359.431818 60.87156 
L 363.971843 64.313517 
L 368.511869 68.689681 
L 373.051894 73.890114 
L 377.591919 79.784168 
L 382.131944 86.223773 
L 386.67197 93.04715 
L 391.211995 100.082881 
L 395.75202 107.154214 
L 400.292045 114.0835 
L 404.832071 120.696661 
L 409.372096 126.827559 
L 413.912121 132.322172 
L 418.452146 137.042464 
L 422.992172 140.86985 
L 427.532197 143.708178 
L 432.072222 145.486143 
L 436.612247 146.159078 
L 441.152273 145.710078 
L 445.692298 144.150422 
L 450.232323 141.519293 
L 454.772348 137.882791 
L 459.312374 133.332272 
L 463.852399 127.982055 
L 468.392424 121.96655 
L 472.932449 115.43688 
L 477.472475 108.557085 
L 482.0125 101.5 
" style="fill:none;stroke:#0000ff;stroke-linecap:square;stroke-opacity:0.2;stroke-width:2;"/>
   </g>
   <g id="line2d_23">
    <path clip-path="url(#p795c053b93)" d="M 32.55 101.5 
L 37.090025 113.511243 
L 41.630051 125.220737 
L 46.170076 136.334313 
L 50.710101 146.572774 
L 55.250126 155.678907 
L 59.790152 163.423945 
L 64.330177 169.613316 
L 68.870202 174.091529 
L 73.410227 176.746081 
L 77.950253 177.510285 
L 82.490278 176.364941 
L 87.030303 173.338824 
L 91.570328 168.507956 
L 96.110354 161.993699 
L 100.650379 153.959706 
L 105.190404 144.607808 
L 109.730429 134.172946 
L 114.270455 122.917268 
L 118.81048 111.12354 
L 123.350505 99.088047 
L 127.89053 87.113148 
L 132.430556 75.499679 
L 136.970581 64.539395 
L 141.510606 54.507644 
L 146.050631 45.656446 
L 150.590657 38.208161 
L 155.130682 32.349909 
L 159.670707 28.22886 
L 164.210732 25.948545 
L 168.750758 25.566251 
L 173.290783 27.091581 
L 177.830808 30.486216 
L 182.370833 35.664875 
L 186.910859 42.497459 
L 191.450884 50.812318 
L 195.990909 60.400564 
L 200.530934 71.021319 
L 205.07096 82.407767 
L 209.610985 94.273853 
L 214.15101 106.321477 
L 218.691035 118.247974 
L 223.231061 129.753726 
L 227.771086 140.54968 
L 232.311111 150.36462 
L 236.851136 158.951972 
L 241.391162 166.096003 
L 245.931187 171.617239 
L 250.471212 175.376973 
L 255.011237 177.280754 
L 259.551263 177.280754 
L 264.091288 175.376973 
L 268.631313 171.617239 
L 273.171338 166.096003 
L 277.711364 158.951972 
L 282.251389 150.36462 
L 286.791414 140.54968 
L 291.331439 129.753726 
L 295.871465 118.247974 
L 300.41149 106.321477 
L 304.951515 94.273853 
L 309.49154 82.407767 
L 314.031566 71.021319 
L 318.571591 60.400564 
L 323.111616 50.812318 
L 327.651641 42.497459 
L 332.191667 35.664875 
L 336.731692 30.486216 
L 341.271717 27.091581 
L 345.811742 25.566251 
L 350.351768 25.948545 
L 354.891793 28.22886 
L 359.431818 32.349909 
L 363.971843 38.208161 
L 368.511869 45.656446 
L 373.051894 54.507644 
L 377.591919 64.539395 
L 382.131944 75.499679 
L 386.67197 87.113148 
L 391.211995 99.088047 
L 395.75202 111.12354 
L 400.292045 122.917268 
L 404.832071 134.172946 
L 409.372096 144.607808 
L 413.912121 153.959706 
L 418.452146 161.993699 
L 422.992172 168.507956 
L 427.532197 173.338824 
L 432.072222 176.364941 
L 436.612247 177.510285 
L 441.152273 176.746081 
L 445.692298 174.091529 
L 450.232323 169.613316 
L 454.772348 163.423945 
L 459.312374 155.678907 
L 463.852399 146.572774 
L 468.392424 136.334313 
L 472.932449 125.220737 
L 477.472475 113.511243 
L 482.0125 101.5 
" style="fill:none;stroke:#0000ff;stroke-linecap:square;stroke-opacity:0.1;stroke-width:2;"/>
   </g>
   <g id="line2d_24">
    <path clip-path="url(#p795c053b93)" d="M 122.4425 188.2 
L 122.4425 14.8 
" style="fill:none;stroke:#ff0000;stroke-dasharray:1.85,0.8;stroke-dashoffset:0;stroke-width:0.5;"/>
   </g>
   <g id="line2d_25">
    <path clip-path="url(#p795c053b93)" d="M 212.335 188.2 
L 212.335 14.8 
" style="fill:none;stroke:#ff0000;stroke-dasharray:1.85,0.8;stroke-dashoffset:0;stroke-width:0.5;"/>
   </g>
   <g id="line2d_26">
    <path clip-path="url(#p795c053b93)" d="M 302.2275 188.2 
L 302.2275 14.8 
" style="fill:none;stroke:#ff0000;stroke-dasharray:1.85,0.8;stroke-dashoffset:0;stroke-width:0.5;"/>
   </g>
   <g id="line2d_27">
    <path clip-path="url(#p795c053b93)" d="M 392.12 188.2 
L 392.12 14.8 
" style="fill:none;stroke:#ff0000;stroke-dasharray:1.85,0.8;stroke-dashoffset:0;stroke-width:0.5;"/>
   </g>
   <g id="line2d_28">
    <path clip-path="url(#p795c053b93)" d="M 77.49625 188.2 
L 77.49625 14.8 
" style="fill:none;stroke:#0000ff;stroke-dasharray:1.85,0.8;stroke-dashoffset:0;stroke-width:0.5;"/>
   </g>
   <g id="line2d_29">
    <path clip-path="url(#p795c053b93)" d="M 167.38875 188.2 
L 167.38875 14.8 
" style="fill:none;stroke:#0000ff;stroke-dasharray:1.85,0.8;stroke-dashoffset:0;stroke-width:0.5;"/>
   </g>
   <g id="line2d_30">
    <path clip-path="url(#p795c053b93)" d="M 257.28125 188.2 
L 257.28125 14.8 
" style="fill:none;stroke:#0000ff;stroke-dasharray:1.85,0.8;stroke-dashoffset:0;stroke-width:0.5;"/>
   </g>
   <g id="line2d_31">
    <path clip-path="url(#p795c053b93)" d="M 347.17375 188.2 
L 347.17375 14.8 
" style="fill:none;stroke:#0000ff;stroke-dasharray:1.85,0.8;stroke-dashoffset:0;stroke-width:0.5;"/>
   </g>
   <g id="line2d_32">
    <path clip-path="url(#p795c053b93)" d="M 437.06625 188.2 
L 437.06625 14.8 
" style="fill:none;stroke:#0000ff;stroke-dasharray:1.85,0.8;stroke-dashoffset:0;stroke-width:0.5;"/>
   </g>
   <g id="patch_3">
    <path d="M 32.55 188.2 
L 32.55 14.8 
" style="fill:none;stroke:#000000;stroke-linecap:square;stroke-linejoin:miter;stroke-width:0.8;"/>
   </g>
   <g id="patch_4">
    <path d="M 482.0125 188.2 
L 482.0125 14.8 
" style="fill:none;stroke:#000000;stroke-linecap:square;stroke-linejoin:miter;stroke-width:0.8;"/>
   </g>
   <g id="patch_5">
    <path d="M 32.55 188.2 
L 482.0125 188.2 
" style="fill:none;stroke:#000000;stroke-linecap:square;stroke-linejoin:miter;stroke-width:0.8;"/>
   </g>
   <g id="patch_6">
    <path d="M 32.55 14.8 
L 482.0125 14.8 
" style="fill:none;stroke:#000000;stroke-linecap:square;stroke-linejoin:miter;stroke-width:0.8;"/>
   </g>
   <g id="text_19">
    <g id="patch_7">
     <path d="M 116.831562 178.283594 
L 128.053437 178.283594 
Q 132.553437 178.283594 132.553437 173.783594 
L 132.553437 159.266406 
Q 132.553437 154.766406 128.053437 154.766406 
L 116.831562 154.766406 
Q 112.331562 154.766406 112.331562 159.266406 
L 112.331562 173.783594 
Q 112.331562 178.283594 116.831562 178.283594 
z
" style="fill:#ffffff;stroke:#ffffff;stroke-linejoin:miter;stroke-width:2;"/>
    </g>
    <!-- N -->
    <g transform="translate(116.831562 170.664062)scale(0.15 -0.15)">
     <defs>
      <path d="M 9.8125 72.90625 
L 23.09375 72.90625 
L 55.421875 11.921875 
L 55.421875 72.90625 
L 64.984375 72.90625 
L 64.984375 0 
L 51.703125 0 
L 19.390625 60.984375 
L 19.390625 0 
L 9.8125 0 
z
" id="DejaVuSans-78"/>
     </defs>
     <use xlink:href="#DejaVuSans-78"/>
    </g>
   </g>
   <g id="text_20">
    <g id="patch_8">
     <path d="M 206.724063 178.283594 
L 217.945938 178.283594 
Q 222.445938 178.283594 222.445938 173.783594 
L 222.445938 159.266406 
Q 222.445938 154.766406 217.945938 154.766406 
L 206.724063 154.766406 
Q 202.224063 154.766406 202.224063 159.266406 
L 202.224063 173.783594 
Q 202.224063 178.283594 206.724063 178.283594 
z
" style="fill:#ffffff;stroke:#ffffff;stroke-linejoin:miter;stroke-width:2;"/>
    </g>
    <!-- N -->
    <g transform="translate(206.724063 170.664062)scale(0.15 -0.15)">
     <use xlink:href="#DejaVuSans-78"/>
    </g>
   </g>
   <g id="text_21">
    <g id="patch_9">
     <path d="M 296.616563 178.283594 
L 307.838438 178.283594 
Q 312.338438 178.283594 312.338438 173.783594 
L 312.338438 159.266406 
Q 312.338438 154.766406 307.838438 154.766406 
L 296.616563 154.766406 
Q 292.116563 154.766406 292.116563 159.266406 
L 292.116563 173.783594 
Q 292.116563 178.283594 296.616563 178.283594 
z
" style="fill:#ffffff;stroke:#ffffff;stroke-linejoin:miter;stroke-width:2;"/>
    </g>
    <!-- N -->
    <g transform="translate(296.616563 170.664062)scale(0.15 -0.15)">
     <use xlink:href="#DejaVuSans-78"/>
    </g>
   </g>
   <g id="text_22">
    <g id="patch_10">
     <path d="M 386.509063 178.283594 
L 397.730938 178.283594 
Q 402.230938 178.283594 402.230938 173.783594 
L 402.230938 159.266406 
Q 402.230938 154.766406 397.730938 154.766406 
L 386.509063 154.766406 
Q 382.009063 154.766406 382.009063 159.266406 
L 382.009063 173.783594 
Q 382.009063 178.283594 386.509063 178.283594 
z
" style="fill:#ffffff;stroke:#ffffff;stroke-linejoin:miter;stroke-width:2;"/>
    </g>
    <!-- N -->
    <g transform="translate(386.509063 170.664062)scale(0.15 -0.15)">
     <use xlink:href="#DejaVuSans-78"/>
    </g>
   </g>
   <g id="text_23">
    <g id="patch_11">
     <path d="M 72.365781 178.283594 
L 82.626719 178.283594 
Q 87.126719 178.283594 87.126719 173.783594 
L 87.126719 159.266406 
Q 87.126719 154.766406 82.626719 154.766406 
L 72.365781 154.766406 
Q 67.865781 154.766406 67.865781 159.266406 
L 67.865781 173.783594 
Q 67.865781 178.283594 72.365781 178.283594 
z
" style="fill:#ffffff;stroke:#ffffff;stroke-linejoin:miter;stroke-width:2;"/>
    </g>
    <!-- A -->
    <g transform="translate(72.365781 170.664062)scale(0.15 -0.15)">
     <defs>
      <path d="M 34.1875 63.1875 
L 20.796875 26.90625 
L 47.609375 26.90625 
z
M 28.609375 72.90625 
L 39.796875 72.90625 
L 67.578125 0 
L 57.328125 0 
L 50.6875 18.703125 
L 17.828125 18.703125 
L 11.1875 0 
L 0.78125 0 
z
" id="DejaVuSans-65"/>
     </defs>
     <use xlink:href="#DejaVuSans-65"/>
    </g>
   </g>
   <g id="text_24">
    <g id="patch_12">
     <path d="M 162.258281 178.283594 
L 172.519219 178.283594 
Q 177.019219 178.283594 177.019219 173.783594 
L 177.019219 159.266406 
Q 177.019219 154.766406 172.519219 154.766406 
L 162.258281 154.766406 
Q 157.758281 154.766406 157.758281 159.266406 
L 157.758281 173.783594 
Q 157.758281 178.283594 162.258281 178.283594 
z
" style="fill:#ffffff;stroke:#ffffff;stroke-linejoin:miter;stroke-width:2;"/>
    </g>
    <!-- A -->
    <g transform="translate(162.258281 170.664062)scale(0.15 -0.15)">
     <use xlink:href="#DejaVuSans-65"/>
    </g>
   </g>
   <g id="text_25">
    <g id="patch_13">
     <path d="M 252.150781 178.283594 
L 262.411719 178.283594 
Q 266.911719 178.283594 266.911719 173.783594 
L 266.911719 159.266406 
Q 266.911719 154.766406 262.411719 154.766406 
L 252.150781 154.766406 
Q 247.650781 154.766406 247.650781 159.266406 
L 247.650781 173.783594 
Q 247.650781 178.283594 252.150781 178.283594 
z
" style="fill:#ffffff;stroke:#ffffff;stroke-linejoin:miter;stroke-width:2;"/>
    </g>
    <!-- A -->
    <g transform="translate(252.150781 170.664062)scale(0.15 -0.15)">
     <use xlink:href="#DejaVuSans-65"/>
    </g>
   </g>
   <g id="text_26">
    <g id="patch_14">
     <path d="M 342.043281 178.283594 
L 352.304219 178.283594 
Q 356.804219 178.283594 356.804219 173.783594 
L 356.804219 159.266406 
Q 356.804219 154.766406 352.304219 154.766406 
L 342.043281 154.766406 
Q 337.543281 154.766406 337.543281 159.266406 
L 337.543281 173.783594 
Q 337.543281 178.283594 342.043281 178.283594 
z
" style="fill:#ffffff;stroke:#ffffff;stroke-linejoin:miter;stroke-width:2;"/>
    </g>
    <!-- A -->
    <g transform="translate(342.043281 170.664062)scale(0.15 -0.15)">
     <use xlink:href="#DejaVuSans-65"/>
    </g>
   </g>
   <g id="text_27">
    <g id="patch_15">
     <path d="M 431.935781 178.283594 
L 442.196719 178.283594 
Q 446.696719 178.283594 446.696719 173.783594 
L 446.696719 159.266406 
Q 446.696719 154.766406 442.196719 154.766406 
L 431.935781 154.766406 
Q 427.435781 154.766406 427.435781 159.266406 
L 427.435781 173.783594 
Q 427.435781 178.283594 431.935781 178.283594 
z
" style="fill:#ffffff;stroke:#ffffff;stroke-linejoin:miter;stroke-width:2;"/>
    </g>
    <!-- A -->
    <g transform="translate(431.935781 170.664062)scale(0.15 -0.15)">
     <use xlink:href="#DejaVuSans-65"/>
    </g>
   </g>
  </g>
 </g>
 <defs>
  <clipPath id="p795c053b93">
   <rect height="173.4" width="449.4625" x="32.55" y="14.8"/>
  </clipPath>
 </defs>
</svg>
