<?xml version="1.0" encoding="utf-8" standalone="no"?>
<!DOCTYPE svg PUBLIC "-//W3C//DTD SVG 1.1//EN"
  "http://www.w3.org/Graphics/SVG/1.1/DTD/svg11.dtd">
<!-- Created with matplotlib (https://matplotlib.org/) -->
<svg height="216pt" version="1.1" viewBox="0 0 504 216" width="504pt" xmlns="http://www.w3.org/2000/svg" xmlns:xlink="http://www.w3.org/1999/xlink">
 <metadata>
  <rdf:RDF xmlns:cc="http://creativecommons.org/ns#" xmlns:dc="http://purl.org/dc/elements/1.1/" xmlns:rdf="http://www.w3.org/1999/02/22-rdf-syntax-ns#">
   <cc:Work>
    <dc:type rdf:resource="http://purl.org/dc/dcmitype/StillImage"/>
    <dc:date>2024-01-19T14:44:25.586202</dc:date>
    <dc:format>image/svg+xml</dc:format>
    <dc:creator>
     <cc:Agent>
      <dc:title>Matplotlib v3.3.2, https://matplotlib.org/</dc:title>
     </cc:Agent>
    </dc:creator>
   </cc:Work>
  </rdf:RDF>
 </metadata>
 <defs>
  <style type="text/css">*{stroke-linecap:butt;stroke-linejoin:round;}</style>
 </defs>
 <g id="figure_1">
  <g id="patch_1">
   <path d="M 0 216 
L 504 216 
L 504 0 
L 0 0 
z
" style="fill:none;"/>
  </g>
  <g id="axes_1">
   <g id="patch_2">
    <path d="M 32.55 188.2 
L 482.0125 188.2 
L 482.0125 14.8 
L 32.55 14.8 
z
" style="fill:none;"/>
   </g>
   <g id="matplotlib.axis_1">
    <g id="xtick_1">
     <g id="line2d_1">
      <defs>
       <path d="M 0 0 
L 0 3.5 
" id="m2e7dde0228" style="stroke:#000000;stroke-width:0.8;"/>
      </defs>
      <g>
       <use style="stroke:#000000;stroke-width:0.8;" x="32.55" xlink:href="#m2e7dde0228" y="188.2"/>
      </g>
     </g>
     <g id="text_1">
      <!-- 0.00 -->
      <g transform="translate(21.417188 202.798438)scale(0.1 -0.1)">
       <defs>
        <path d="M 31.78125 66.40625 
Q 24.171875 66.40625 20.328125 58.90625 
Q 16.5 51.421875 16.5 36.375 
Q 16.5 21.390625 20.328125 13.890625 
Q 24.171875 6.390625 31.78125 6.390625 
Q 39.453125 6.390625 43.28125 13.890625 
Q 47.125 21.390625 47.125 36.375 
Q 47.125 51.421875 43.28125 58.90625 
Q 39.453125 66.40625 31.78125 66.40625 
z
M 31.78125 74.21875 
Q 44.046875 74.21875 50.515625 64.515625 
Q 56.984375 54.828125 56.984375 36.375 
Q 56.984375 17.96875 50.515625 8.265625 
Q 44.046875 -1.421875 31.78125 -1.421875 
Q 19.53125 -1.421875 13.0625 8.265625 
Q 6.59375 17.96875 6.59375 36.375 
Q 6.59375 54.828125 13.0625 64.515625 
Q 19.53125 74.21875 31.78125 74.21875 
z
" id="DejaVuSans-48"/>
        <path d="M 10.6875 12.40625 
L 21 12.40625 
L 21 0 
L 10.6875 0 
z
" id="DejaVuSans-46"/>
       </defs>
       <use xlink:href="#DejaVuSans-48"/>
       <use x="63.623047" xlink:href="#DejaVuSans-46"/>
       <use x="95.410156" xlink:href="#DejaVuSans-48"/>
       <use x="159.033203" xlink:href="#DejaVuSans-48"/>
      </g>
     </g>
    </g>
    <g id="xtick_2">
     <g id="line2d_2">
      <g>
       <use style="stroke:#000000;stroke-width:0.8;" x="88.732812" xlink:href="#m2e7dde0228" y="188.2"/>
      </g>
     </g>
     <g id="text_2">
      <!-- 0.25 -->
      <g transform="translate(77.6 202.798438)scale(0.1 -0.1)">
       <defs>
        <path d="M 19.1875 8.296875 
L 53.609375 8.296875 
L 53.609375 0 
L 7.328125 0 
L 7.328125 8.296875 
Q 12.9375 14.109375 22.625 23.890625 
Q 32.328125 33.6875 34.8125 36.53125 
Q 39.546875 41.84375 41.421875 45.53125 
Q 43.3125 49.21875 43.3125 52.78125 
Q 43.3125 58.59375 39.234375 62.25 
Q 35.15625 65.921875 28.609375 65.921875 
Q 23.96875 65.921875 18.8125 64.3125 
Q 13.671875 62.703125 7.8125 59.421875 
L 7.8125 69.390625 
Q 13.765625 71.78125 18.9375 73 
Q 24.125 74.21875 28.421875 74.21875 
Q 39.75 74.21875 46.484375 68.546875 
Q 53.21875 62.890625 53.21875 53.421875 
Q 53.21875 48.921875 51.53125 44.890625 
Q 49.859375 40.875 45.40625 35.40625 
Q 44.1875 33.984375 37.640625 27.21875 
Q 31.109375 20.453125 19.1875 8.296875 
z
" id="DejaVuSans-50"/>
        <path d="M 10.796875 72.90625 
L 49.515625 72.90625 
L 49.515625 64.59375 
L 19.828125 64.59375 
L 19.828125 46.734375 
Q 21.96875 47.46875 24.109375 47.828125 
Q 26.265625 48.1875 28.421875 48.1875 
Q 40.625 48.1875 47.75 41.5 
Q 54.890625 34.8125 54.890625 23.390625 
Q 54.890625 11.625 47.5625 5.09375 
Q 40.234375 -1.421875 26.90625 -1.421875 
Q 22.3125 -1.421875 17.546875 -0.640625 
Q 12.796875 0.140625 7.71875 1.703125 
L 7.71875 11.625 
Q 12.109375 9.234375 16.796875 8.0625 
Q 21.484375 6.890625 26.703125 6.890625 
Q 35.15625 6.890625 40.078125 11.328125 
Q 45.015625 15.765625 45.015625 23.390625 
Q 45.015625 31 40.078125 35.4375 
Q 35.15625 39.890625 26.703125 39.890625 
Q 22.75 39.890625 18.8125 39.015625 
Q 14.890625 38.140625 10.796875 36.28125 
z
" id="DejaVuSans-53"/>
       </defs>
       <use xlink:href="#DejaVuSans-48"/>
       <use x="63.623047" xlink:href="#DejaVuSans-46"/>
       <use x="95.410156" xlink:href="#DejaVuSans-50"/>
       <use x="159.033203" xlink:href="#DejaVuSans-53"/>
      </g>
     </g>
    </g>
    <g id="xtick_3">
     <g id="line2d_3">
      <g>
       <use style="stroke:#000000;stroke-width:0.8;" x="144.915625" xlink:href="#m2e7dde0228" y="188.2"/>
      </g>
     </g>
     <g id="text_3">
      <!-- 0.50 -->
      <g transform="translate(133.782813 202.798438)scale(0.1 -0.1)">
       <use xlink:href="#DejaVuSans-48"/>
       <use x="63.623047" xlink:href="#DejaVuSans-46"/>
       <use x="95.410156" xlink:href="#DejaVuSans-53"/>
       <use x="159.033203" xlink:href="#DejaVuSans-48"/>
      </g>
     </g>
    </g>
    <g id="xtick_4">
     <g id="line2d_4">
      <g>
       <use style="stroke:#000000;stroke-width:0.8;" x="201.098437" xlink:href="#m2e7dde0228" y="188.2"/>
      </g>
     </g>
     <g id="text_4">
      <!-- 0.75 -->
      <g transform="translate(189.965625 202.798438)scale(0.1 -0.1)">
       <defs>
        <path d="M 8.203125 72.90625 
L 55.078125 72.90625 
L 55.078125 68.703125 
L 28.609375 0 
L 18.3125 0 
L 43.21875 64.59375 
L 8.203125 64.59375 
z
" id="DejaVuSans-55"/>
       </defs>
       <use xlink:href="#DejaVuSans-48"/>
       <use x="63.623047" xlink:href="#DejaVuSans-46"/>
       <use x="95.410156" xlink:href="#DejaVuSans-55"/>
       <use x="159.033203" xlink:href="#DejaVuSans-53"/>
      </g>
     </g>
    </g>
    <g id="xtick_5">
     <g id="line2d_5">
      <g>
       <use style="stroke:#000000;stroke-width:0.8;" x="257.28125" xlink:href="#m2e7dde0228" y="188.2"/>
      </g>
     </g>
     <g id="text_5">
      <!-- 1.00 -->
      <g transform="translate(246.148438 202.798438)scale(0.1 -0.1)">
       <defs>
        <path d="M 12.40625 8.296875 
L 28.515625 8.296875 
L 28.515625 63.921875 
L 10.984375 60.40625 
L 10.984375 69.390625 
L 28.421875 72.90625 
L 38.28125 72.90625 
L 38.28125 8.296875 
L 54.390625 8.296875 
L 54.390625 0 
L 12.40625 0 
z
" id="DejaVuSans-49"/>
       </defs>
       <use xlink:href="#DejaVuSans-49"/>
       <use x="63.623047" xlink:href="#DejaVuSans-46"/>
       <use x="95.410156" xlink:href="#DejaVuSans-48"/>
       <use x="159.033203" xlink:href="#DejaVuSans-48"/>
      </g>
     </g>
    </g>
    <g id="xtick_6">
     <g id="line2d_6">
      <g>
       <use style="stroke:#000000;stroke-width:0.8;" x="313.464063" xlink:href="#m2e7dde0228" y="188.2"/>
      </g>
     </g>
     <g id="text_6">
      <!-- 1.25 -->
      <g transform="translate(302.33125 202.798438)scale(0.1 -0.1)">
       <use xlink:href="#DejaVuSans-49"/>
       <use x="63.623047" xlink:href="#DejaVuSans-46"/>
       <use x="95.410156" xlink:href="#DejaVuSans-50"/>
       <use x="159.033203" xlink:href="#DejaVuSans-53"/>
      </g>
     </g>
    </g>
    <g id="xtick_7">
     <g id="line2d_7">
      <g>
       <use style="stroke:#000000;stroke-width:0.8;" x="369.646875" xlink:href="#m2e7dde0228" y="188.2"/>
      </g>
     </g>
     <g id="text_7">
      <!-- 1.50 -->
      <g transform="translate(358.514062 202.798438)scale(0.1 -0.1)">
       <use xlink:href="#DejaVuSans-49"/>
       <use x="63.623047" xlink:href="#DejaVuSans-46"/>
       <use x="95.410156" xlink:href="#DejaVuSans-53"/>
       <use x="159.033203" xlink:href="#DejaVuSans-48"/>
      </g>
     </g>
    </g>
    <g id="xtick_8">
     <g id="line2d_8">
      <g>
       <use style="stroke:#000000;stroke-width:0.8;" x="425.829687" xlink:href="#m2e7dde0228" y="188.2"/>
      </g>
     </g>
     <g id="text_8">
      <!-- 1.75 -->
      <g transform="translate(414.696875 202.798438)scale(0.1 -0.1)">
       <use xlink:href="#DejaVuSans-49"/>
       <use x="63.623047" xlink:href="#DejaVuSans-46"/>
       <use x="95.410156" xlink:href="#DejaVuSans-55"/>
       <use x="159.033203" xlink:href="#DejaVuSans-53"/>
      </g>
     </g>
    </g>
    <g id="xtick_9">
     <g id="line2d_9">
      <g>
       <use style="stroke:#000000;stroke-width:0.8;" x="482.0125" xlink:href="#m2e7dde0228" y="188.2"/>
      </g>
     </g>
     <g id="text_9">
      <!-- 2.00 -->
      <g transform="translate(470.879687 202.798438)scale(0.1 -0.1)">
       <use xlink:href="#DejaVuSans-50"/>
       <use x="63.623047" xlink:href="#DejaVuSans-46"/>
       <use x="95.410156" xlink:href="#DejaVuSans-48"/>
       <use x="159.033203" xlink:href="#DejaVuSans-48"/>
      </g>
     </g>
    </g>
   </g>
   <g id="matplotlib.axis_2">
    <g id="ytick_1">
     <g id="line2d_10">
      <defs>
       <path d="M 0 0 
L -3.5 0 
" id="mf09c1ff069" style="stroke:#000000;stroke-width:0.8;"/>
      </defs>
      <g>
       <use style="stroke:#000000;stroke-width:0.8;" x="32.55" xlink:href="#mf09c1ff069" y="188.2"/>
      </g>
     </g>
     <g id="text_10">
      <!-- −4 -->
      <g transform="translate(10.807813 191.999219)scale(0.1 -0.1)">
       <defs>
        <path d="M 10.59375 35.5 
L 73.1875 35.5 
L 73.1875 27.203125 
L 10.59375 27.203125 
z
" id="DejaVuSans-8722"/>
        <path d="M 37.796875 64.3125 
L 12.890625 25.390625 
L 37.796875 25.390625 
z
M 35.203125 72.90625 
L 47.609375 72.90625 
L 47.609375 25.390625 
L 58.015625 25.390625 
L 58.015625 17.1875 
L 47.609375 17.1875 
L 47.609375 0 
L 37.796875 0 
L 37.796875 17.1875 
L 4.890625 17.1875 
L 4.890625 26.703125 
z
" id="DejaVuSans-52"/>
       </defs>
       <use xlink:href="#DejaVuSans-8722"/>
       <use x="83.789062" xlink:href="#DejaVuSans-52"/>
      </g>
     </g>
    </g>
    <g id="ytick_2">
     <g id="line2d_11">
      <g>
       <use style="stroke:#000000;stroke-width:0.8;" x="32.55" xlink:href="#mf09c1ff069" y="166.525"/>
      </g>
     </g>
     <g id="text_11">
      <!-- −3 -->
      <g transform="translate(10.807813 170.324219)scale(0.1 -0.1)">
       <defs>
        <path d="M 40.578125 39.3125 
Q 47.65625 37.796875 51.625 33 
Q 55.609375 28.21875 55.609375 21.1875 
Q 55.609375 10.40625 48.1875 4.484375 
Q 40.765625 -1.421875 27.09375 -1.421875 
Q 22.515625 -1.421875 17.65625 -0.515625 
Q 12.796875 0.390625 7.625 2.203125 
L 7.625 11.71875 
Q 11.71875 9.328125 16.59375 8.109375 
Q 21.484375 6.890625 26.8125 6.890625 
Q 36.078125 6.890625 40.9375 10.546875 
Q 45.796875 14.203125 45.796875 21.1875 
Q 45.796875 27.640625 41.28125 31.265625 
Q 36.765625 34.90625 28.71875 34.90625 
L 20.21875 34.90625 
L 20.21875 43.015625 
L 29.109375 43.015625 
Q 36.375 43.015625 40.234375 45.921875 
Q 44.09375 48.828125 44.09375 54.296875 
Q 44.09375 59.90625 40.109375 62.90625 
Q 36.140625 65.921875 28.71875 65.921875 
Q 24.65625 65.921875 20.015625 65.03125 
Q 15.375 64.15625 9.8125 62.3125 
L 9.8125 71.09375 
Q 15.4375 72.65625 20.34375 73.4375 
Q 25.25 74.21875 29.59375 74.21875 
Q 40.828125 74.21875 47.359375 69.109375 
Q 53.90625 64.015625 53.90625 55.328125 
Q 53.90625 49.265625 50.4375 45.09375 
Q 46.96875 40.921875 40.578125 39.3125 
z
" id="DejaVuSans-51"/>
       </defs>
       <use xlink:href="#DejaVuSans-8722"/>
       <use x="83.789062" xlink:href="#DejaVuSans-51"/>
      </g>
     </g>
    </g>
    <g id="ytick_3">
     <g id="line2d_12">
      <g>
       <use style="stroke:#000000;stroke-width:0.8;" x="32.55" xlink:href="#mf09c1ff069" y="144.85"/>
      </g>
     </g>
     <g id="text_12">
      <!-- −2 -->
      <g transform="translate(10.807813 148.649219)scale(0.1 -0.1)">
       <use xlink:href="#DejaVuSans-8722"/>
       <use x="83.789062" xlink:href="#DejaVuSans-50"/>
      </g>
     </g>
    </g>
    <g id="ytick_4">
     <g id="line2d_13">
      <g>
       <use style="stroke:#000000;stroke-width:0.8;" x="32.55" xlink:href="#mf09c1ff069" y="123.175"/>
      </g>
     </g>
     <g id="text_13">
      <!-- −1 -->
      <g transform="translate(10.807813 126.974219)scale(0.1 -0.1)">
       <use xlink:href="#DejaVuSans-8722"/>
       <use x="83.789062" xlink:href="#DejaVuSans-49"/>
      </g>
     </g>
    </g>
    <g id="ytick_5">
     <g id="line2d_14">
      <g>
       <use style="stroke:#000000;stroke-width:0.8;" x="32.55" xlink:href="#mf09c1ff069" y="101.5"/>
      </g>
     </g>
     <g id="text_14">
      <!-- 0 -->
      <g transform="translate(19.1875 105.299219)scale(0.1 -0.1)">
       <use xlink:href="#DejaVuSans-48"/>
      </g>
     </g>
    </g>
    <g id="ytick_6">
     <g id="line2d_15">
      <g>
       <use style="stroke:#000000;stroke-width:0.8;" x="32.55" xlink:href="#mf09c1ff069" y="79.825"/>
      </g>
     </g>
     <g id="text_15">
      <!-- 1 -->
      <g transform="translate(19.1875 83.624219)scale(0.1 -0.1)">
       <use xlink:href="#DejaVuSans-49"/>
      </g>
     </g>
    </g>
    <g id="ytick_7">
     <g id="line2d_16">
      <g>
       <use style="stroke:#000000;stroke-width:0.8;" x="32.55" xlink:href="#mf09c1ff069" y="58.15"/>
      </g>
     </g>
     <g id="text_16">
      <!-- 2 -->
      <g transform="translate(19.1875 61.949219)scale(0.1 -0.1)">
       <use xlink:href="#DejaVuSans-50"/>
      </g>
     </g>
    </g>
    <g id="ytick_8">
     <g id="line2d_17">
      <g>
       <use style="stroke:#000000;stroke-width:0.8;" x="32.55" xlink:href="#mf09c1ff069" y="36.475"/>
      </g>
     </g>
     <g id="text_17">
      <!-- 3 -->
      <g transform="translate(19.1875 40.274219)scale(0.1 -0.1)">
       <use xlink:href="#DejaVuSans-51"/>
      </g>
     </g>
    </g>
    <g id="ytick_9">
     <g id="line2d_18">
      <g>
       <use style="stroke:#000000;stroke-width:0.8;" x="32.55" xlink:href="#mf09c1ff069" y="14.8"/>
      </g>
     </g>
     <g id="text_18">
      <!-- 4 -->
      <g transform="translate(19.1875 18.599219)scale(0.1 -0.1)">
       <use xlink:href="#DejaVuSans-52"/>
      </g>
     </g>
    </g>
   </g>
   <g id="line2d_19">
    <path clip-path="url(#p2b13a3956f)" d="M 32.55 101.5 
L 37.090025 94.884565 
L 41.630051 88.329041 
L 46.170076 81.892795 
L 50.710101 75.634115 
L 55.250126 69.60968 
L 59.790152 63.874049 
L 64.330177 58.479164 
L 68.870202 53.473883 
L 73.410227 48.903534 
L 77.950253 44.809506 
L 82.490278 41.228876 
L 87.030303 38.194071 
L 91.570328 35.732574 
L 96.110354 33.866678 
L 100.650379 32.613279 
L 105.190404 31.983729 
L 109.730429 31.983729 
L 114.270455 32.613279 
L 118.81048 33.866678 
L 123.350505 35.732574 
L 127.89053 38.194071 
L 132.430556 41.228876 
L 136.970581 44.809506 
L 141.510606 48.903534 
L 146.050631 53.473883 
L 150.590657 58.479164 
L 155.130682 63.874049 
L 159.670707 69.60968 
L 164.210732 75.634115 
L 168.750758 81.892795 
L 173.290783 88.329041 
L 177.830808 94.884565 
L 182.370833 101.5 
L 186.910859 108.115435 
L 191.450884 114.670959 
L 195.990909 121.107205 
L 200.530934 127.365885 
L 205.07096 133.39032 
L 209.610985 139.125951 
L 214.15101 144.520836 
L 218.691035 149.526117 
L 223.231061 154.096466 
L 227.771086 158.190494 
L 232.311111 161.771124 
L 236.851136 164.805929 
L 241.391162 167.267426 
L 245.931187 169.133322 
L 250.471212 170.386721 
L 255.011237 171.016271 
L 259.551263 171.016271 
L 264.091288 170.386721 
L 268.631313 169.133322 
L 273.171338 167.267426 
L 277.711364 164.805929 
L 282.251389 161.771124 
L 286.791414 158.190494 
L 291.331439 154.096466 
L 295.871465 149.526117 
L 300.41149 144.520836 
L 304.951515 139.125951 
L 309.49154 133.39032 
L 314.031566 127.365885 
L 318.571591 121.107205 
L 323.111616 114.670959 
L 327.651641 108.115435 
L 332.191667 101.5 
L 336.731692 94.884565 
L 341.271717 88.329041 
L 345.811742 81.892795 
L 350.351768 75.634115 
L 354.891793 69.60968 
L 359.431818 63.874049 
L 363.971843 58.479164 
L 368.511869 53.473883 
L 373.051894 48.903534 
L 377.591919 44.809506 
L 382.131944 41.228876 
L 386.67197 38.194071 
L 391.211995 35.732574 
L 395.75202 33.866678 
L 400.292045 32.613279 
L 404.832071 31.983729 
L 409.372096 31.983729 
L 413.912121 32.613279 
L 418.452146 33.866678 
L 422.992172 35.732574 
L 427.532197 38.194071 
L 432.072222 41.228876 
L 436.612247 44.809506 
L 441.152273 48.903534 
L 445.692298 53.473883 
L 450.232323 58.479164 
L 454.772348 63.874049 
L 459.312374 69.60968 
L 463.852399 75.634115 
L 468.392424 81.892795 
L 472.932449 88.329041 
L 477.472475 94.884565 
L 482.0125 101.5 
" style="fill:none;stroke:#0000ff;stroke-linecap:square;stroke-width:2;"/>
   </g>
   <g id="line2d_20">
    <path clip-path="url(#p2b13a3956f)" d="M 32.55 101.5 
L 37.090025 99.120786 
L 41.630051 96.763119 
L 46.170076 94.448349 
L 50.710101 92.19744 
L 55.250126 90.030777 
L 59.790152 87.967981 
L 64.330177 86.027733 
L 68.870202 84.227604 
L 73.410227 82.583897 
L 77.950253 81.111496 
L 82.490278 79.823738 
L 87.030303 78.732282 
L 91.570328 77.847015 
L 96.110354 77.175953 
L 100.650379 76.725173 
L 105.190404 76.498758 
L 109.730429 76.498758 
L 114.270455 76.725173 
L 118.81048 77.175953 
L 123.350505 77.847015 
L 127.89053 78.732282 
L 132.430556 79.823738 
L 136.970581 81.111496 
L 141.510606 82.583897 
L 146.050631 84.227604 
L 150.590657 86.027733 
L 155.130682 87.967981 
L 159.670707 90.030777 
L 164.210732 92.19744 
L 168.750758 94.448349 
L 173.290783 96.763119 
L 177.830808 99.120786 
L 182.370833 101.5 
L 186.910859 103.879214 
L 191.450884 106.236881 
L 195.990909 108.551651 
L 200.530934 110.80256 
L 205.07096 112.969223 
L 209.610985 115.032019 
L 214.15101 116.972267 
L 218.691035 118.772396 
L 223.231061 120.416103 
L 227.771086 121.888504 
L 232.311111 123.176262 
L 236.851136 124.267718 
L 241.391162 125.152985 
L 245.931187 125.824047 
L 250.471212 126.274827 
L 255.011237 126.501242 
L 259.551263 126.501242 
L 264.091288 126.274827 
L 268.631313 125.824047 
L 273.171338 125.152985 
L 277.711364 124.267718 
L 282.251389 123.176262 
L 286.791414 121.888504 
L 291.331439 120.416103 
L 295.871465 118.772396 
L 300.41149 116.972267 
L 304.951515 115.032019 
L 309.49154 112.969223 
L 314.031566 110.80256 
L 318.571591 108.551651 
L 323.111616 106.236881 
L 327.651641 103.879214 
L 332.191667 101.5 
L 336.731692 99.120786 
L 341.271717 96.763119 
L 345.811742 94.448349 
L 350.351768 92.19744 
L 354.891793 90.030777 
L 359.431818 87.967981 
L 363.971843 86.027733 
L 368.511869 84.227604 
L 373.051894 82.583897 
L 377.591919 81.111496 
L 382.131944 79.823738 
L 386.67197 78.732282 
L 391.211995 77.847015 
L 395.75202 77.175953 
L 400.292045 76.725173 
L 404.832071 76.498758 
L 409.372096 76.498758 
L 413.912121 76.725173 
L 418.452146 77.175953 
L 422.992172 77.847015 
L 427.532197 78.732282 
L 432.072222 79.823738 
L 436.612247 81.111496 
L 441.152273 82.583897 
L 445.692298 84.227604 
L 450.232323 86.027733 
L 454.772348 87.967981 
L 459.312374 90.030777 
L 463.852399 92.19744 
L 468.392424 94.448349 
L 472.932449 96.763119 
L 477.472475 99.120786 
L 482.0125 101.5 
" style="fill:none;stroke:#0000ff;stroke-linecap:square;stroke-opacity:0.6;stroke-width:2;"/>
   </g>
   <g id="line2d_21">
    <path clip-path="url(#p2b13a3956f)" d="M 32.55 101.5 
L 37.090025 104.295789 
L 41.630051 107.066259 
L 46.170076 109.786321 
L 50.710101 112.43134 
L 55.250126 114.977363 
L 59.790152 117.401333 
L 64.330177 119.681298 
L 68.870202 121.796611 
L 73.410227 123.728114 
L 77.950253 125.458316 
L 82.490278 126.971548 
L 87.030303 128.254105 
L 91.570328 129.294373 
L 96.110354 130.082931 
L 100.650379 130.612638 
L 105.190404 130.878696 
L 109.730429 130.878696 
L 114.270455 130.612638 
L 118.81048 130.082931 
L 123.350505 129.294373 
L 127.89053 128.254105 
L 132.430556 126.971548 
L 136.970581 125.458316 
L 141.510606 123.728114 
L 146.050631 121.796611 
L 150.590657 119.681298 
L 155.130682 117.401333 
L 159.670707 114.977363 
L 164.210732 112.43134 
L 168.750758 109.786321 
L 173.290783 107.066259 
L 177.830808 104.295789 
L 182.370833 101.5 
L 186.910859 98.704211 
L 191.450884 95.933741 
L 195.990909 93.213679 
L 200.530934 90.56866 
L 205.07096 88.022637 
L 209.610985 85.598667 
L 214.15101 83.318702 
L 218.691035 81.203389 
L 223.231061 79.271886 
L 227.771086 77.541684 
L 232.311111 76.028452 
L 236.851136 74.745895 
L 241.391162 73.705627 
L 245.931187 72.917069 
L 250.471212 72.387362 
L 255.011237 72.121304 
L 259.551263 72.121304 
L 264.091288 72.387362 
L 268.631313 72.917069 
L 273.171338 73.705627 
L 277.711364 74.745895 
L 282.251389 76.028452 
L 286.791414 77.541684 
L 291.331439 79.271886 
L 295.871465 81.203389 
L 300.41149 83.318702 
L 304.951515 85.598667 
L 309.49154 88.022637 
L 314.031566 90.56866 
L 318.571591 93.213679 
L 323.111616 95.933741 
L 327.651641 98.704211 
L 332.191667 101.5 
L 336.731692 104.295789 
L 341.271717 107.066259 
L 345.811742 109.786321 
L 350.351768 112.43134 
L 354.891793 114.977363 
L 359.431818 117.401333 
L 363.971843 119.681298 
L 368.511869 121.796611 
L 373.051894 123.728114 
L 377.591919 125.458316 
L 382.131944 126.971548 
L 386.67197 128.254105 
L 391.211995 129.294373 
L 395.75202 130.082931 
L 400.292045 130.612638 
L 404.832071 130.878696 
L 409.372096 130.878696 
L 413.912121 130.612638 
L 418.452146 130.082931 
L 422.992172 129.294373 
L 427.532197 128.254105 
L 432.072222 126.971548 
L 436.612247 125.458316 
L 441.152273 123.728114 
L 445.692298 121.796611 
L 450.232323 119.681298 
L 454.772348 117.401333 
L 459.312374 114.977363 
L 463.852399 112.43134 
L 468.392424 109.786321 
L 472.932449 107.066259 
L 477.472475 104.295789 
L 482.0125 101.5 
" style="fill:none;stroke:#0000ff;stroke-linecap:square;stroke-opacity:0.4;stroke-width:2;"/>
   </g>
   <g id="line2d_22">
    <path clip-path="url(#p2b13a3956f)" d="M 32.55 101.5 
L 37.090025 108.367639 
L 41.630051 115.173084 
L 46.170076 121.854703 
L 50.710101 128.351987 
L 55.250126 134.606095 
L 59.790152 140.560389 
L 64.330177 146.160946 
L 68.870202 151.357047 
L 73.410227 156.101635 
L 77.950253 160.351741 
L 82.490278 164.068878 
L 87.030303 167.219381 
L 91.570328 169.774719 
L 96.110354 171.71175 
L 100.650379 173.012933 
L 105.190404 173.666484 
L 109.730429 173.666484 
L 114.270455 173.012933 
L 118.81048 171.71175 
L 123.350505 169.774719 
L 127.89053 167.219381 
L 132.430556 164.068878 
L 136.970581 160.351741 
L 141.510606 156.101635 
L 146.050631 151.357047 
L 150.590657 146.160946 
L 155.130682 140.560389 
L 159.670707 134.606095 
L 164.210732 128.351987 
L 168.750758 121.854703 
L 173.290783 115.173084 
L 177.830808 108.367639 
L 182.370833 101.5 
L 186.910859 94.632361 
L 191.450884 87.826916 
L 195.990909 81.145297 
L 200.530934 74.648013 
L 205.07096 68.393905 
L 209.610985 62.439611 
L 214.15101 56.839054 
L 218.691035 51.642953 
L 223.231061 46.898365 
L 227.771086 42.648259 
L 232.311111 38.931122 
L 236.851136 35.780619 
L 241.391162 33.225281 
L 245.931187 31.28825 
L 250.471212 29.987067 
L 255.011237 29.333516 
L 259.551263 29.333516 
L 264.091288 29.987067 
L 268.631313 31.28825 
L 273.171338 33.225281 
L 277.711364 35.780619 
L 282.251389 38.931122 
L 286.791414 42.648259 
L 291.331439 46.898365 
L 295.871465 51.642953 
L 300.41149 56.839054 
L 304.951515 62.439611 
L 309.49154 68.393905 
L 314.031566 74.648013 
L 318.571591 81.145297 
L 323.111616 87.826916 
L 327.651641 94.632361 
L 332.191667 101.5 
L 336.731692 108.367639 
L 341.271717 115.173084 
L 345.811742 121.854703 
L 350.351768 128.351987 
L 354.891793 134.606095 
L 359.431818 140.560389 
L 363.971843 146.160946 
L 368.511869 151.357047 
L 373.051894 156.101635 
L 377.591919 160.351741 
L 382.131944 164.068878 
L 386.67197 167.219381 
L 391.211995 169.774719 
L 395.75202 171.71175 
L 400.292045 173.012933 
L 404.832071 173.666484 
L 409.372096 173.666484 
L 413.912121 173.012933 
L 418.452146 171.71175 
L 422.992172 169.774719 
L 427.532197 167.219381 
L 432.072222 164.068878 
L 436.612247 160.351741 
L 441.152273 156.101635 
L 445.692298 151.357047 
L 450.232323 146.160946 
L 454.772348 140.560389 
L 459.312374 134.606095 
L 463.852399 128.351987 
L 468.392424 121.854703 
L 472.932449 115.173084 
L 477.472475 108.367639 
L 482.0125 101.5 
" style="fill:none;stroke:#0000ff;stroke-linecap:square;stroke-opacity:0.2;stroke-width:2;"/>
   </g>
   <g id="line2d_23">
    <path clip-path="url(#p2b13a3956f)" d="M 32.55 101.5 
L 37.090025 109.729678 
L 41.630051 117.884828 
L 46.170076 125.891593 
L 50.710101 133.677465 
L 55.250126 141.171932 
L 59.790152 148.307125 
L 64.330177 155.018425 
L 68.870202 161.245053 
L 73.410227 166.930621 
L 77.950253 172.02364 
L 82.490278 176.477985 
L 87.030303 180.253318 
L 91.570328 183.315449 
L 96.110354 185.636646 
L 100.650379 187.195889 
L 105.190404 187.979057 
L 109.730429 187.979057 
L 114.270455 187.195889 
L 118.81048 185.636646 
L 123.350505 183.315449 
L 127.89053 180.253318 
L 132.430556 176.477985 
L 136.970581 172.02364 
L 141.510606 166.930621 
L 146.050631 161.245053 
L 150.590657 155.018425 
L 155.130682 148.307125 
L 159.670707 141.171932 
L 164.210732 133.677465 
L 168.750758 125.891593 
L 173.290783 117.884828 
L 177.830808 109.729678 
L 182.370833 101.5 
L 186.910859 93.270322 
L 191.450884 85.115172 
L 195.990909 77.108407 
L 200.530934 69.322535 
L 205.07096 61.828068 
L 209.610985 54.692875 
L 214.15101 47.981575 
L 218.691035 41.754947 
L 223.231061 36.069379 
L 227.771086 30.97636 
L 232.311111 26.522015 
L 236.851136 22.746682 
L 241.391162 19.684551 
L 245.931187 17.363354 
L 250.471212 15.804111 
L 255.011237 15.020943 
L 259.551263 15.020943 
L 264.091288 15.804111 
L 268.631313 17.363354 
L 273.171338 19.684551 
L 277.711364 22.746682 
L 282.251389 26.522015 
L 286.791414 30.97636 
L 291.331439 36.069379 
L 295.871465 41.754947 
L 300.41149 47.981575 
L 304.951515 54.692875 
L 309.49154 61.828068 
L 314.031566 69.322535 
L 318.571591 77.108407 
L 323.111616 85.115172 
L 327.651641 93.270322 
L 332.191667 101.5 
L 336.731692 109.729678 
L 341.271717 117.884828 
L 345.811742 125.891593 
L 350.351768 133.677465 
L 354.891793 141.171932 
L 359.431818 148.307125 
L 363.971843 155.018425 
L 368.511869 161.245053 
L 373.051894 166.930621 
L 377.591919 172.02364 
L 382.131944 176.477985 
L 386.67197 180.253318 
L 391.211995 183.315449 
L 395.75202 185.636646 
L 400.292045 187.195889 
L 404.832071 187.979057 
L 409.372096 187.979057 
L 413.912121 187.195889 
L 418.452146 185.636646 
L 422.992172 183.315449 
L 427.532197 180.253318 
L 432.072222 176.477985 
L 436.612247 172.02364 
L 441.152273 166.930621 
L 445.692298 161.245053 
L 450.232323 155.018425 
L 454.772348 148.307125 
L 459.312374 141.171932 
L 463.852399 133.677465 
L 468.392424 125.891593 
L 472.932449 117.884828 
L 477.472475 109.729678 
L 482.0125 101.5 
" style="fill:none;stroke:#0000ff;stroke-linecap:square;stroke-opacity:0.1;stroke-width:2;"/>
   </g>
   <g id="line2d_24">
    <path clip-path="url(#p2b13a3956f)" d="M 182.370833 188.2 
L 182.370833 14.8 
" style="fill:none;stroke:#ff0000;stroke-dasharray:1.85,0.8;stroke-dashoffset:0;stroke-width:0.5;"/>
   </g>
   <g id="line2d_25">
    <path clip-path="url(#p2b13a3956f)" d="M 332.191667 188.2 
L 332.191667 14.8 
" style="fill:none;stroke:#ff0000;stroke-dasharray:1.85,0.8;stroke-dashoffset:0;stroke-width:0.5;"/>
   </g>
   <g id="line2d_26">
    <path clip-path="url(#p2b13a3956f)" d="M 107.460417 188.2 
L 107.460417 14.8 
" style="fill:none;stroke:#0000ff;stroke-dasharray:1.85,0.8;stroke-dashoffset:0;stroke-width:0.5;"/>
   </g>
   <g id="line2d_27">
    <path clip-path="url(#p2b13a3956f)" d="M 257.28125 188.2 
L 257.28125 14.8 
" style="fill:none;stroke:#0000ff;stroke-dasharray:1.85,0.8;stroke-dashoffset:0;stroke-width:0.5;"/>
   </g>
   <g id="line2d_28">
    <path clip-path="url(#p2b13a3956f)" d="M 407.102083 188.2 
L 407.102083 14.8 
" style="fill:none;stroke:#0000ff;stroke-dasharray:1.85,0.8;stroke-dashoffset:0;stroke-width:0.5;"/>
   </g>
   <g id="patch_3">
    <path d="M 32.55 188.2 
L 32.55 14.8 
" style="fill:none;stroke:#000000;stroke-linecap:square;stroke-linejoin:miter;stroke-width:0.8;"/>
   </g>
   <g id="patch_4">
    <path d="M 482.0125 188.2 
L 482.0125 14.8 
" style="fill:none;stroke:#000000;stroke-linecap:square;stroke-linejoin:miter;stroke-width:0.8;"/>
   </g>
   <g id="patch_5">
    <path d="M 32.55 188.2 
L 482.0125 188.2 
" style="fill:none;stroke:#000000;stroke-linecap:square;stroke-linejoin:miter;stroke-width:0.8;"/>
   </g>
   <g id="patch_6">
    <path d="M 32.55 14.8 
L 482.0125 14.8 
" style="fill:none;stroke:#000000;stroke-linecap:square;stroke-linejoin:miter;stroke-width:0.8;"/>
   </g>
   <g id="text_19">
    <g id="patch_7">
     <path d="M 176.759896 178.283594 
L 187.981771 178.283594 
Q 192.481771 178.283594 192.481771 173.783594 
L 192.481771 159.266406 
Q 192.481771 154.766406 187.981771 154.766406 
L 176.759896 154.766406 
Q 172.259896 154.766406 172.259896 159.266406 
L 172.259896 173.783594 
Q 172.259896 178.283594 176.759896 178.283594 
z
" style="fill:#ffffff;stroke:#ffffff;stroke-linejoin:miter;stroke-width:2;"/>
    </g>
    <!-- N -->
    <g transform="translate(176.759896 170.664062)scale(0.15 -0.15)">
     <defs>
      <path d="M 9.8125 72.90625 
L 23.09375 72.90625 
L 55.421875 11.921875 
L 55.421875 72.90625 
L 64.984375 72.90625 
L 64.984375 0 
L 51.703125 0 
L 19.390625 60.984375 
L 19.390625 0 
L 9.8125 0 
z
" id="DejaVuSans-78"/>
     </defs>
     <use xlink:href="#DejaVuSans-78"/>
    </g>
   </g>
   <g id="text_20">
    <g id="patch_8">
     <path d="M 326.580729 178.283594 
L 337.802604 178.283594 
Q 342.302604 178.283594 342.302604 173.783594 
L 342.302604 159.266406 
Q 342.302604 154.766406 337.802604 154.766406 
L 326.580729 154.766406 
Q 322.080729 154.766406 322.080729 159.266406 
L 322.080729 173.783594 
Q 322.080729 178.283594 326.580729 178.283594 
z
" style="fill:#ffffff;stroke:#ffffff;stroke-linejoin:miter;stroke-width:2;"/>
    </g>
    <!-- N -->
    <g transform="translate(326.580729 170.664062)scale(0.15 -0.15)">
     <use xlink:href="#DejaVuSans-78"/>
    </g>
   </g>
   <g id="text_21">
    <g id="patch_9">
     <path d="M 102.329948 178.283594 
L 112.590885 178.283594 
Q 117.090885 178.283594 117.090885 173.783594 
L 117.090885 159.266406 
Q 117.090885 154.766406 112.590885 154.766406 
L 102.329948 154.766406 
Q 97.829948 154.766406 97.829948 159.266406 
L 97.829948 173.783594 
Q 97.829948 178.283594 102.329948 178.283594 
z
" style="fill:#ffffff;stroke:#ffffff;stroke-linejoin:miter;stroke-width:2;"/>
    </g>
    <!-- A -->
    <g transform="translate(102.329948 170.664062)scale(0.15 -0.15)">
     <defs>
      <path d="M 34.1875 63.1875 
L 20.796875 26.90625 
L 47.609375 26.90625 
z
M 28.609375 72.90625 
L 39.796875 72.90625 
L 67.578125 0 
L 57.328125 0 
L 50.6875 18.703125 
L 17.828125 18.703125 
L 11.1875 0 
L 0.78125 0 
z
" id="DejaVuSans-65"/>
     </defs>
     <use xlink:href="#DejaVuSans-65"/>
    </g>
   </g>
   <g id="text_22">
    <g id="patch_10">
     <path d="M 252.150781 178.283594 
L 262.411719 178.283594 
Q 266.911719 178.283594 266.911719 173.783594 
L 266.911719 159.266406 
Q 266.911719 154.766406 262.411719 154.766406 
L 252.150781 154.766406 
Q 247.650781 154.766406 247.650781 159.266406 
L 247.650781 173.783594 
Q 247.650781 178.283594 252.150781 178.283594 
z
" style="fill:#ffffff;stroke:#ffffff;stroke-linejoin:miter;stroke-width:2;"/>
    </g>
    <!-- A -->
    <g transform="translate(252.150781 170.664062)scale(0.15 -0.15)">
     <use xlink:href="#DejaVuSans-65"/>
    </g>
   </g>
   <g id="text_23">
    <g id="patch_11">
     <path d="M 401.971615 178.283594 
L 412.232552 178.283594 
Q 416.732552 178.283594 416.732552 173.783594 
L 416.732552 159.266406 
Q 416.732552 154.766406 412.232552 154.766406 
L 401.971615 154.766406 
Q 397.471615 154.766406 397.471615 159.266406 
L 397.471615 173.783594 
Q 397.471615 178.283594 401.971615 178.283594 
z
" style="fill:#ffffff;stroke:#ffffff;stroke-linejoin:miter;stroke-width:2;"/>
    </g>
    <!-- A -->
    <g transform="translate(401.971615 170.664062)scale(0.15 -0.15)">
     <use xlink:href="#DejaVuSans-65"/>
    </g>
   </g>
  </g>
 </g>
 <defs>
  <clipPath id="p2b13a3956f">
   <rect height="173.4" width="449.4625" x="32.55" y="14.8"/>
  </clipPath>
 </defs>
</svg>
