<?xml version="1.0" encoding="utf-8" standalone="no"?>
<!DOCTYPE svg PUBLIC "-//W3C//DTD SVG 1.1//EN"
  "http://www.w3.org/Graphics/SVG/1.1/DTD/svg11.dtd">
<!-- Created with matplotlib (https://matplotlib.org/) -->
<svg height="288pt" version="1.1" viewBox="0 0 432 288" width="432pt" xmlns="http://www.w3.org/2000/svg" xmlns:xlink="http://www.w3.org/1999/xlink">
 <metadata>
  <rdf:RDF xmlns:cc="http://creativecommons.org/ns#" xmlns:dc="http://purl.org/dc/elements/1.1/" xmlns:rdf="http://www.w3.org/1999/02/22-rdf-syntax-ns#">
   <cc:Work>
    <dc:type rdf:resource="http://purl.org/dc/dcmitype/StillImage"/>
    <dc:date>2024-01-09T15:32:46.154075</dc:date>
    <dc:format>image/svg+xml</dc:format>
    <dc:creator>
     <cc:Agent>
      <dc:title>Matplotlib v3.3.2, https://matplotlib.org/</dc:title>
     </cc:Agent>
    </dc:creator>
   </cc:Work>
  </rdf:RDF>
 </metadata>
 <defs>
  <style type="text/css">*{stroke-linecap:butt;stroke-linejoin:round;}</style>
 </defs>
 <g id="figure_1">
  <g id="patch_1">
   <path d="M 0 288 
L 432 288 
L 432 0 
L 0 0 
z
" style="fill:none;"/>
  </g>
  <g id="axes_1">
   <g id="patch_2">
    <path d="M 35.8 253.2 
L 421.2 253.2 
L 421.2 10.8 
L 35.8 10.8 
z
" style="fill:none;"/>
   </g>
   <g id="matplotlib.axis_1">
    <g id="xtick_1">
     <g id="line2d_1">
      <defs>
       <path d="M 0 0 
L 0 3.5 
" id="m03280513c2" style="stroke:#000000;stroke-width:0.8;"/>
      </defs>
      <g>
       <use style="stroke:#000000;stroke-width:0.8;" x="53.318182" xlink:href="#m03280513c2" y="253.2"/>
      </g>
     </g>
    </g>
    <g id="xtick_2">
     <g id="line2d_2">
      <g>
       <use style="stroke:#000000;stroke-width:0.8;" x="97.113636" xlink:href="#m03280513c2" y="253.2"/>
      </g>
     </g>
    </g>
    <g id="xtick_3">
     <g id="line2d_3">
      <g>
       <use style="stroke:#000000;stroke-width:0.8;" x="140.909091" xlink:href="#m03280513c2" y="253.2"/>
      </g>
     </g>
    </g>
    <g id="xtick_4">
     <g id="line2d_4">
      <g>
       <use style="stroke:#000000;stroke-width:0.8;" x="184.704545" xlink:href="#m03280513c2" y="253.2"/>
      </g>
     </g>
    </g>
    <g id="xtick_5">
     <g id="line2d_5">
      <g>
       <use style="stroke:#000000;stroke-width:0.8;" x="228.5" xlink:href="#m03280513c2" y="253.2"/>
      </g>
     </g>
    </g>
    <g id="xtick_6">
     <g id="line2d_6">
      <g>
       <use style="stroke:#000000;stroke-width:0.8;" x="272.295455" xlink:href="#m03280513c2" y="253.2"/>
      </g>
     </g>
    </g>
    <g id="xtick_7">
     <g id="line2d_7">
      <g>
       <use style="stroke:#000000;stroke-width:0.8;" x="316.090909" xlink:href="#m03280513c2" y="253.2"/>
      </g>
     </g>
    </g>
    <g id="xtick_8">
     <g id="line2d_8">
      <g>
       <use style="stroke:#000000;stroke-width:0.8;" x="359.886364" xlink:href="#m03280513c2" y="253.2"/>
      </g>
     </g>
    </g>
    <g id="xtick_9">
     <g id="line2d_9">
      <g>
       <use style="stroke:#000000;stroke-width:0.8;" x="403.681818" xlink:href="#m03280513c2" y="253.2"/>
      </g>
     </g>
    </g>
    <g id="text_1">
     <!-- Time, $t$ -->
     <g transform="translate(210.95 271.798437)scale(0.1 -0.1)">
      <defs>
       <path d="M -0.296875 72.90625 
L 61.375 72.90625 
L 61.375 64.59375 
L 35.5 64.59375 
L 35.5 0 
L 25.59375 0 
L 25.59375 64.59375 
L -0.296875 64.59375 
z
" id="DejaVuSans-84"/>
       <path d="M 9.421875 54.6875 
L 18.40625 54.6875 
L 18.40625 0 
L 9.421875 0 
z
M 9.421875 75.984375 
L 18.40625 75.984375 
L 18.40625 64.59375 
L 9.421875 64.59375 
z
" id="DejaVuSans-105"/>
       <path d="M 52 44.1875 
Q 55.375 50.25 60.0625 53.125 
Q 64.75 56 71.09375 56 
Q 79.640625 56 84.28125 50.015625 
Q 88.921875 44.046875 88.921875 33.015625 
L 88.921875 0 
L 79.890625 0 
L 79.890625 32.71875 
Q 79.890625 40.578125 77.09375 44.375 
Q 74.3125 48.1875 68.609375 48.1875 
Q 61.625 48.1875 57.5625 43.546875 
Q 53.515625 38.921875 53.515625 30.90625 
L 53.515625 0 
L 44.484375 0 
L 44.484375 32.71875 
Q 44.484375 40.625 41.703125 44.40625 
Q 38.921875 48.1875 33.109375 48.1875 
Q 26.21875 48.1875 22.15625 43.53125 
Q 18.109375 38.875 18.109375 30.90625 
L 18.109375 0 
L 9.078125 0 
L 9.078125 54.6875 
L 18.109375 54.6875 
L 18.109375 46.1875 
Q 21.1875 51.21875 25.484375 53.609375 
Q 29.78125 56 35.6875 56 
Q 41.65625 56 45.828125 52.96875 
Q 50 49.953125 52 44.1875 
z
" id="DejaVuSans-109"/>
       <path d="M 56.203125 29.59375 
L 56.203125 25.203125 
L 14.890625 25.203125 
Q 15.484375 15.921875 20.484375 11.0625 
Q 25.484375 6.203125 34.421875 6.203125 
Q 39.59375 6.203125 44.453125 7.46875 
Q 49.3125 8.734375 54.109375 11.28125 
L 54.109375 2.78125 
Q 49.265625 0.734375 44.1875 -0.34375 
Q 39.109375 -1.421875 33.890625 -1.421875 
Q 20.796875 -1.421875 13.15625 6.1875 
Q 5.515625 13.8125 5.515625 26.8125 
Q 5.515625 40.234375 12.765625 48.109375 
Q 20.015625 56 32.328125 56 
Q 43.359375 56 49.78125 48.890625 
Q 56.203125 41.796875 56.203125 29.59375 
z
M 47.21875 32.234375 
Q 47.125 39.59375 43.09375 43.984375 
Q 39.0625 48.390625 32.421875 48.390625 
Q 24.90625 48.390625 20.390625 44.140625 
Q 15.875 39.890625 15.1875 32.171875 
z
" id="DejaVuSans-101"/>
       <path d="M 11.71875 12.40625 
L 22.015625 12.40625 
L 22.015625 4 
L 14.015625 -11.625 
L 7.71875 -11.625 
L 11.71875 4 
z
" id="DejaVuSans-44"/>
       <path id="DejaVuSans-32"/>
       <path d="M 42.28125 54.6875 
L 40.921875 47.703125 
L 23 47.703125 
L 17.1875 18.015625 
Q 16.890625 16.359375 16.75 15.234375 
Q 16.609375 14.109375 16.609375 13.484375 
Q 16.609375 10.359375 18.484375 8.9375 
Q 20.359375 7.515625 24.515625 7.515625 
L 33.59375 7.515625 
L 32.078125 0 
L 23.484375 0 
Q 15.484375 0 11.546875 3.125 
Q 7.625 6.25 7.625 12.59375 
Q 7.625 13.71875 7.765625 15.0625 
Q 7.90625 16.40625 8.203125 18.015625 
L 14.015625 47.703125 
L 6.390625 47.703125 
L 7.8125 54.6875 
L 15.28125 54.6875 
L 18.3125 70.21875 
L 27.296875 70.21875 
L 24.3125 54.6875 
z
" id="DejaVuSans-Oblique-116"/>
      </defs>
      <use transform="translate(0 0.015625)" xlink:href="#DejaVuSans-84"/>
      <use transform="translate(61.083984 0.015625)" xlink:href="#DejaVuSans-105"/>
      <use transform="translate(88.867188 0.015625)" xlink:href="#DejaVuSans-109"/>
      <use transform="translate(186.279297 0.015625)" xlink:href="#DejaVuSans-101"/>
      <use transform="translate(247.802734 0.015625)" xlink:href="#DejaVuSans-44"/>
      <use transform="translate(279.589844 0.015625)" xlink:href="#DejaVuSans-32"/>
      <use transform="translate(311.376953 0.015625)" xlink:href="#DejaVuSans-Oblique-116"/>
     </g>
    </g>
   </g>
   <g id="matplotlib.axis_2">
    <g id="ytick_1">
     <g id="line2d_10">
      <defs>
       <path d="M 0 0 
L -3.5 0 
" id="m399ab92e19" style="stroke:#000000;stroke-width:0.8;"/>
      </defs>
      <g>
       <use style="stroke:#000000;stroke-width:0.8;" x="35.8" xlink:href="#m399ab92e19" y="226.4416"/>
      </g>
     </g>
    </g>
    <g id="ytick_2">
     <g id="line2d_11">
      <g>
       <use style="stroke:#000000;stroke-width:0.8;" x="35.8" xlink:href="#m399ab92e19" y="194.961074"/>
      </g>
     </g>
    </g>
    <g id="ytick_3">
     <g id="line2d_12">
      <g>
       <use style="stroke:#000000;stroke-width:0.8;" x="35.8" xlink:href="#m399ab92e19" y="163.480547"/>
      </g>
     </g>
    </g>
    <g id="ytick_4">
     <g id="line2d_13">
      <g>
       <use style="stroke:#000000;stroke-width:0.8;" x="35.8" xlink:href="#m399ab92e19" y="132.00002"/>
      </g>
     </g>
    </g>
    <g id="ytick_5">
     <g id="line2d_14">
      <g>
       <use style="stroke:#000000;stroke-width:0.8;" x="35.8" xlink:href="#m399ab92e19" y="100.519494"/>
      </g>
     </g>
    </g>
    <g id="ytick_6">
     <g id="line2d_15">
      <g>
       <use style="stroke:#000000;stroke-width:0.8;" x="35.8" xlink:href="#m399ab92e19" y="69.038967"/>
      </g>
     </g>
    </g>
    <g id="ytick_7">
     <g id="line2d_16">
      <g>
       <use style="stroke:#000000;stroke-width:0.8;" x="35.8" xlink:href="#m399ab92e19" y="37.558441"/>
      </g>
     </g>
    </g>
    <g id="text_2">
     <!-- Displacement, $x$ -->
     <g transform="translate(22.7 172.55)rotate(-90)scale(0.1 -0.1)">
      <defs>
       <path d="M 19.671875 64.796875 
L 19.671875 8.109375 
L 31.59375 8.109375 
Q 46.6875 8.109375 53.6875 14.9375 
Q 60.6875 21.78125 60.6875 36.53125 
Q 60.6875 51.171875 53.6875 57.984375 
Q 46.6875 64.796875 31.59375 64.796875 
z
M 9.8125 72.90625 
L 30.078125 72.90625 
Q 51.265625 72.90625 61.171875 64.09375 
Q 71.09375 55.28125 71.09375 36.53125 
Q 71.09375 17.671875 61.125 8.828125 
Q 51.171875 0 30.078125 0 
L 9.8125 0 
z
" id="DejaVuSans-68"/>
       <path d="M 44.28125 53.078125 
L 44.28125 44.578125 
Q 40.484375 46.53125 36.375 47.5 
Q 32.28125 48.484375 27.875 48.484375 
Q 21.1875 48.484375 17.84375 46.4375 
Q 14.5 44.390625 14.5 40.28125 
Q 14.5 37.15625 16.890625 35.375 
Q 19.28125 33.59375 26.515625 31.984375 
L 29.59375 31.296875 
Q 39.15625 29.25 43.1875 25.515625 
Q 47.21875 21.78125 47.21875 15.09375 
Q 47.21875 7.46875 41.1875 3.015625 
Q 35.15625 -1.421875 24.609375 -1.421875 
Q 20.21875 -1.421875 15.453125 -0.5625 
Q 10.6875 0.296875 5.421875 2 
L 5.421875 11.28125 
Q 10.40625 8.6875 15.234375 7.390625 
Q 20.0625 6.109375 24.8125 6.109375 
Q 31.15625 6.109375 34.5625 8.28125 
Q 37.984375 10.453125 37.984375 14.40625 
Q 37.984375 18.0625 35.515625 20.015625 
Q 33.0625 21.96875 24.703125 23.78125 
L 21.578125 24.515625 
Q 13.234375 26.265625 9.515625 29.90625 
Q 5.8125 33.546875 5.8125 39.890625 
Q 5.8125 47.609375 11.28125 51.796875 
Q 16.75 56 26.8125 56 
Q 31.78125 56 36.171875 55.265625 
Q 40.578125 54.546875 44.28125 53.078125 
z
" id="DejaVuSans-115"/>
       <path d="M 18.109375 8.203125 
L 18.109375 -20.796875 
L 9.078125 -20.796875 
L 9.078125 54.6875 
L 18.109375 54.6875 
L 18.109375 46.390625 
Q 20.953125 51.265625 25.265625 53.625 
Q 29.59375 56 35.59375 56 
Q 45.5625 56 51.78125 48.09375 
Q 58.015625 40.1875 58.015625 27.296875 
Q 58.015625 14.40625 51.78125 6.484375 
Q 45.5625 -1.421875 35.59375 -1.421875 
Q 29.59375 -1.421875 25.265625 0.953125 
Q 20.953125 3.328125 18.109375 8.203125 
z
M 48.6875 27.296875 
Q 48.6875 37.203125 44.609375 42.84375 
Q 40.53125 48.484375 33.40625 48.484375 
Q 26.265625 48.484375 22.1875 42.84375 
Q 18.109375 37.203125 18.109375 27.296875 
Q 18.109375 17.390625 22.1875 11.75 
Q 26.265625 6.109375 33.40625 6.109375 
Q 40.53125 6.109375 44.609375 11.75 
Q 48.6875 17.390625 48.6875 27.296875 
z
" id="DejaVuSans-112"/>
       <path d="M 9.421875 75.984375 
L 18.40625 75.984375 
L 18.40625 0 
L 9.421875 0 
z
" id="DejaVuSans-108"/>
       <path d="M 34.28125 27.484375 
Q 23.390625 27.484375 19.1875 25 
Q 14.984375 22.515625 14.984375 16.5 
Q 14.984375 11.71875 18.140625 8.90625 
Q 21.296875 6.109375 26.703125 6.109375 
Q 34.1875 6.109375 38.703125 11.40625 
Q 43.21875 16.703125 43.21875 25.484375 
L 43.21875 27.484375 
z
M 52.203125 31.203125 
L 52.203125 0 
L 43.21875 0 
L 43.21875 8.296875 
Q 40.140625 3.328125 35.546875 0.953125 
Q 30.953125 -1.421875 24.3125 -1.421875 
Q 15.921875 -1.421875 10.953125 3.296875 
Q 6 8.015625 6 15.921875 
Q 6 25.140625 12.171875 29.828125 
Q 18.359375 34.515625 30.609375 34.515625 
L 43.21875 34.515625 
L 43.21875 35.40625 
Q 43.21875 41.609375 39.140625 45 
Q 35.0625 48.390625 27.6875 48.390625 
Q 23 48.390625 18.546875 47.265625 
Q 14.109375 46.140625 10.015625 43.890625 
L 10.015625 52.203125 
Q 14.9375 54.109375 19.578125 55.046875 
Q 24.21875 56 28.609375 56 
Q 40.484375 56 46.34375 49.84375 
Q 52.203125 43.703125 52.203125 31.203125 
z
" id="DejaVuSans-97"/>
       <path d="M 48.78125 52.59375 
L 48.78125 44.1875 
Q 44.96875 46.296875 41.140625 47.34375 
Q 37.3125 48.390625 33.40625 48.390625 
Q 24.65625 48.390625 19.8125 42.84375 
Q 14.984375 37.3125 14.984375 27.296875 
Q 14.984375 17.28125 19.8125 11.734375 
Q 24.65625 6.203125 33.40625 6.203125 
Q 37.3125 6.203125 41.140625 7.25 
Q 44.96875 8.296875 48.78125 10.40625 
L 48.78125 2.09375 
Q 45.015625 0.34375 40.984375 -0.53125 
Q 36.96875 -1.421875 32.421875 -1.421875 
Q 20.0625 -1.421875 12.78125 6.34375 
Q 5.515625 14.109375 5.515625 27.296875 
Q 5.515625 40.671875 12.859375 48.328125 
Q 20.21875 56 33.015625 56 
Q 37.15625 56 41.109375 55.140625 
Q 45.0625 54.296875 48.78125 52.59375 
z
" id="DejaVuSans-99"/>
       <path d="M 54.890625 33.015625 
L 54.890625 0 
L 45.90625 0 
L 45.90625 32.71875 
Q 45.90625 40.484375 42.875 44.328125 
Q 39.84375 48.1875 33.796875 48.1875 
Q 26.515625 48.1875 22.3125 43.546875 
Q 18.109375 38.921875 18.109375 30.90625 
L 18.109375 0 
L 9.078125 0 
L 9.078125 54.6875 
L 18.109375 54.6875 
L 18.109375 46.1875 
Q 21.34375 51.125 25.703125 53.5625 
Q 30.078125 56 35.796875 56 
Q 45.21875 56 50.046875 50.171875 
Q 54.890625 44.34375 54.890625 33.015625 
z
" id="DejaVuSans-110"/>
       <path d="M 18.3125 70.21875 
L 18.3125 54.6875 
L 36.8125 54.6875 
L 36.8125 47.703125 
L 18.3125 47.703125 
L 18.3125 18.015625 
Q 18.3125 11.328125 20.140625 9.421875 
Q 21.96875 7.515625 27.59375 7.515625 
L 36.8125 7.515625 
L 36.8125 0 
L 27.59375 0 
Q 17.1875 0 13.234375 3.875 
Q 9.28125 7.765625 9.28125 18.015625 
L 9.28125 47.703125 
L 2.6875 47.703125 
L 2.6875 54.6875 
L 9.28125 54.6875 
L 9.28125 70.21875 
z
" id="DejaVuSans-116"/>
       <path d="M 60.015625 54.6875 
L 34.90625 27.875 
L 50.296875 0 
L 39.984375 0 
L 28.421875 21.6875 
L 8.296875 0 
L -2.59375 0 
L 24.3125 28.8125 
L 10.015625 54.6875 
L 20.3125 54.6875 
L 30.8125 34.90625 
L 49.125 54.6875 
z
" id="DejaVuSans-Oblique-120"/>
      </defs>
      <use transform="translate(0 0.015625)" xlink:href="#DejaVuSans-68"/>
      <use transform="translate(77.001953 0.015625)" xlink:href="#DejaVuSans-105"/>
      <use transform="translate(104.785156 0.015625)" xlink:href="#DejaVuSans-115"/>
      <use transform="translate(156.884766 0.015625)" xlink:href="#DejaVuSans-112"/>
      <use transform="translate(220.361328 0.015625)" xlink:href="#DejaVuSans-108"/>
      <use transform="translate(248.144531 0.015625)" xlink:href="#DejaVuSans-97"/>
      <use transform="translate(309.423828 0.015625)" xlink:href="#DejaVuSans-99"/>
      <use transform="translate(364.404297 0.015625)" xlink:href="#DejaVuSans-101"/>
      <use transform="translate(425.927734 0.015625)" xlink:href="#DejaVuSans-109"/>
      <use transform="translate(523.339844 0.015625)" xlink:href="#DejaVuSans-101"/>
      <use transform="translate(584.863281 0.015625)" xlink:href="#DejaVuSans-110"/>
      <use transform="translate(648.242188 0.015625)" xlink:href="#DejaVuSans-116"/>
      <use transform="translate(687.451172 0.015625)" xlink:href="#DejaVuSans-44"/>
      <use transform="translate(719.238281 0.015625)" xlink:href="#DejaVuSans-32"/>
      <use transform="translate(751.025391 0.015625)" xlink:href="#DejaVuSans-Oblique-120"/>
     </g>
    </g>
   </g>
   <g id="line2d_17">
    <path clip-path="url(#pa1ce3bfc36)" d="M 53.318182 253.2 
L 53.318182 10.8 
" style="fill:none;stroke:#000000;stroke-dasharray:1.85,0.8;stroke-dashoffset:0;stroke-width:0.5;"/>
   </g>
   <g id="line2d_18">
    <path clip-path="url(#pa1ce3bfc36)" d="M 35.8 132.00002 
L 421.2 132.00002 
" style="fill:none;stroke:#000000;stroke-dasharray:1.85,0.8;stroke-dashoffset:0;stroke-width:0.5;"/>
   </g>
   <g id="line2d_19">
    <path clip-path="url(#pa1ce3bfc36)" d="M 53.318182 179.22081 
L 53.668896 179.912202 
L 54.019611 181.955759 
L 54.370325 185.260993 
L 55.071754 195.021906 
L 57.526754 236.07167 
L 57.877468 239.290442 
L 58.228183 241.247183 
L 58.578897 241.858795 
L 58.929611 241.101898 
L 59.280326 239.013715 
L 59.63104 235.690245 
L 60.332469 225.986314 
L 62.787469 185.92458 
L 63.138184 182.857614 
L 63.488898 181.026885 
L 63.839612 180.506425 
L 64.190327 181.311943 
L 64.541041 183.400443 
L 65.24247 190.976788 
L 66.294613 207.956464 
L 67.346756 225.623421 
L 68.048185 234.369684 
L 68.398899 237.223711 
L 68.749613 238.893016 
L 69.100328 239.314067 
L 69.451042 238.479041 
L 69.801756 236.435711 
L 70.503185 229.17526 
L 71.555328 213.143289 
L 72.607471 196.678419 
L 73.3089 188.63676 
L 73.659614 186.051368 
L 74.010329 184.57443 
L 74.361043 184.257814 
L 74.711757 185.101449 
L 75.062472 187.053936 
L 75.7639 193.842785 
L 76.816043 208.59227 
L 77.868186 223.519012 
L 78.569615 230.696662 
L 78.920329 232.964248 
L 79.271044 234.222913 
L 79.621758 234.433335 
L 79.972472 233.603268 
L 80.323187 231.786464 
L 81.024616 225.616934 
L 82.076759 212.459498 
L 83.128902 199.374489 
L 83.83033 193.201013 
L 84.181045 191.292944 
L 84.531759 190.272974 
L 84.882473 190.167304 
L 85.233188 190.960905 
L 85.583902 192.599039 
L 86.285331 198.012745 
L 87.337474 209.300299 
L 88.389617 220.278614 
L 89.091046 225.329733 
L 89.44176 226.844792 
L 89.792474 227.611437 
L 90.143189 227.616854 
L 90.493903 226.882746 
L 90.844617 225.463413 
L 91.546046 220.927814 
L 94.001047 200.927339 
L 94.351761 199.264841 
L 94.702475 198.167488 
L 95.05319 197.662832 
L 95.403904 197.750342 
L 95.754618 198.402414 
L 96.105333 199.566633 
L 96.806761 203.118817 
L 98.911047 216.139338 
L 99.612476 218.689913 
L 99.96319 219.354036 
L 100.313905 219.594039 
L 100.664619 219.423452 
L 101.015334 218.874857 
L 101.716762 216.8533 
L 104.171763 207.572567 
L 104.873191 206.347034 
L 105.223906 206.122315 
L 105.57462 206.143732 
L 105.925334 206.38539 
L 106.626763 207.375476 
L 108.380335 210.578228 
L 109.081764 211.28082 
L 109.432478 211.42151 
L 109.783192 211.425482 
L 110.484621 211.097443 
L 112.238193 209.863031 
L 112.588907 209.833965 
L 112.939621 209.940308 
L 113.290336 210.191583 
L 113.991764 211.110317 
L 115.043908 213.168383 
L 115.745336 214.511531 
L 116.446765 215.365095 
L 116.797479 215.494533 
L 117.148194 215.380868 
L 117.498908 215.005052 
L 117.849622 214.362113 
L 118.551051 212.331455 
L 119.603194 208.026646 
L 120.655337 203.786704 
L 121.356766 202.016576 
L 121.70748 201.648744 
L 122.058195 201.685906 
L 122.408909 202.151099 
L 122.759623 203.047012 
L 123.461052 206.034301 
L 124.513195 212.605234 
L 125.565338 219.422108 
L 126.266767 222.648698 
L 126.617481 223.576182 
L 126.968195 223.954466 
L 127.31891 223.743105 
L 127.669624 222.928094 
L 128.020339 221.523502 
L 128.721767 217.142794 
L 129.77391 208.041384 
L 130.826053 199.048801 
L 131.527482 194.991629 
L 131.878196 193.895129 
L 132.228911 193.522234 
L 132.579625 193.91135 
L 132.930339 195.066816 
L 133.281054 196.957777 
L 133.982482 202.651421 
L 135.38534 218.045942 
L 136.086769 225.071761 
L 136.788197 229.863241 
L 137.138912 231.098912 
L 137.489626 231.451299 
L 137.84034 230.88515 
L 138.191055 229.406199 
L 138.541769 227.061746 
L 139.243198 220.163541 
L 141.698198 190.761375 
L 142.048913 188.469611 
L 142.399627 187.126755 
L 142.750341 186.808812 
L 143.101056 187.54686 
L 143.45177 189.324927 
L 144.153199 195.70408 
L 144.854627 204.930143 
L 146.608199 229.637758 
L 147.309628 235.555941 
L 147.660342 236.972651 
L 148.011057 237.243823 
L 148.361771 236.34345 
L 148.712485 234.297653 
L 149.413914 227.129149 
L 150.466057 211.186964 
L 151.5182 194.553932 
L 152.219629 186.350718 
L 152.570343 183.726343 
L 152.921057 182.269651 
L 153.271772 182.055592 
L 153.622486 183.104362 
L 153.9732 185.380029 
L 154.674629 193.197095 
L 155.726772 210.322747 
L 156.778915 227.959591 
L 157.480344 236.543486 
L 157.831058 239.248888 
L 158.181773 240.711947 
L 158.532487 240.86084 
L 158.883201 239.681764 
L 159.233916 237.219866 
L 159.935344 228.910109 
L 160.987487 210.95049 
L 162.039631 192.675458 
L 162.741059 183.891588 
L 163.091774 181.163231 
L 163.442488 179.726396 
L 163.793202 179.648186 
L 164.143917 180.935621 
L 164.494631 183.535169 
L 165.19606 192.169786 
L 166.248203 210.595521 
L 167.300346 229.131034 
L 168.001775 237.931851 
L 168.352489 240.625743 
L 168.703203 242.005509 
L 169.053918 242.010216 
L 169.404632 240.639824 
L 169.755346 237.955186 
L 170.456775 229.172098 
L 171.508918 210.658878 
L 172.561061 192.244834 
L 173.26249 183.608592 
L 173.613204 181.004725 
L 173.963918 179.710457 
L 174.314633 179.779293 
L 174.665347 181.204292 
L 175.016062 183.918546 
L 175.71749 192.668778 
L 176.769633 210.887885 
L 177.821776 228.802171 
L 178.523205 237.097582 
L 178.873919 239.558878 
L 179.224634 240.742217 
L 179.575348 240.602579 
L 179.926062 239.153683 
L 180.276777 236.467049 
L 180.978205 227.93218 
L 182.030349 210.383852 
L 183.082492 193.336147 
L 183.78392 185.548944 
L 184.134635 183.278687 
L 184.485349 182.228207 
L 184.836063 182.43321 
L 185.186778 183.873593 
L 185.537492 186.474821 
L 186.238921 194.614463 
L 187.641778 216.812007 
L 188.343207 226.961408 
L 189.044636 234.085297 
L 189.39535 236.121081 
L 189.746064 237.020679 
L 190.096779 236.758281 
L 190.447493 235.359793 
L 190.798207 232.901063 
L 191.499636 225.330066 
L 193.954636 192.307048 
L 194.305351 189.576631 
L 194.656065 187.812888 
L 195.00678 187.077991 
L 195.357494 187.387525 
L 195.708208 188.710526 
L 196.058923 190.971612 
L 196.760351 197.810697 
L 199.215352 226.80576 
L 199.566066 229.120062 
L 199.91678 230.580749 
L 200.267495 231.141521 
L 200.618209 230.797092 
L 200.968923 229.582586 
L 201.319638 227.571109 
L 202.021067 221.613527 
L 204.125353 199.752096 
L 204.826781 195.381744 
L 205.177496 194.248039 
L 205.52821 193.866345 
L 205.878924 194.231823 
L 206.229639 195.306208 
L 206.931067 199.278842 
L 207.98321 208.072964 
L 209.035354 216.957565 
L 209.736782 221.225091 
L 210.087497 222.590632 
L 210.438211 223.380886 
L 210.788925 223.582991 
L 211.13964 223.211495 
L 211.490354 222.306683 
L 212.191783 219.169002 
L 213.243926 212.563071 
L 214.296069 206.223724 
L 214.997497 203.357979 
L 215.348212 202.504348 
L 215.698926 202.06636 
L 216.049641 202.040051 
L 216.400355 202.401817 
L 216.751069 203.110534 
L 217.452498 205.334877 
L 219.556784 213.272383 
L 220.258213 214.687741 
L 220.608927 215.018933 
L 220.959641 215.103531 
L 221.310356 214.961896 
L 222.011785 214.136099 
L 224.116071 210.610367 
L 224.817499 210.126968 
L 225.168214 210.091482 
L 225.869642 210.371053 
L 227.623214 211.651509 
L 227.973928 211.714951 
L 228.324643 211.645426 
L 228.675357 211.429549 
L 229.376786 210.561072 
L 230.428929 208.473817 
L 231.481072 206.422515 
L 231.831786 205.983048 
L 232.182501 205.744738 
L 232.533215 205.74391 
L 232.883929 206.005511 
L 233.234644 206.540919 
L 233.936072 208.402631 
L 234.637501 211.112203 
L 236.391073 218.341367 
L 236.741787 219.249839 
L 237.092502 219.813057 
L 237.443216 219.981375 
L 237.79393 219.722406 
L 238.144645 219.02354 
L 238.495359 217.89355 
L 239.196788 214.484501 
L 240.248931 207.559392 
L 241.301074 200.890137 
L 242.002503 198.048362 
L 242.353217 197.381396 
L 242.703931 197.294997 
L 243.054646 197.816577 
L 243.40536 198.945796 
L 244.106789 202.882544 
L 244.808217 208.544697 
L 246.561789 223.696606 
L 247.263218 227.208622 
L 247.613932 227.957636 
L 247.964646 227.952338 
L 248.315361 227.171202 
L 248.666075 225.627848 
L 249.367504 220.484834 
L 250.419647 209.314914 
L 251.47179 197.838324 
L 252.173219 192.335551 
L 252.523933 190.669895 
L 252.874647 189.861619 
L 253.225362 189.965882 
L 253.576076 190.997554 
L 253.92679 192.929714 
L 254.628219 199.183093 
L 255.680362 212.436625 
L 256.732505 225.761705 
L 257.433934 232.011285 
L 257.784648 233.853418 
L 258.135363 234.697703 
L 258.486077 234.490023 
L 258.836791 233.222755 
L 259.187506 230.935839 
L 259.888934 223.69201 
L 260.941077 208.623318 
L 261.99322 193.730903 
L 262.694649 186.872521 
L 263.045364 184.897335 
L 263.396078 184.040143 
L 263.746792 184.352654 
L 264.097507 185.834837 
L 264.448221 188.434327 
L 265.14965 196.526971 
L 266.201793 213.104267 
L 267.253936 229.251646 
L 267.955364 236.569843 
L 268.306079 238.63287 
L 268.656793 239.48061 
L 269.007508 239.06504 
L 269.358222 237.394045 
L 269.708936 234.531524 
L 270.410365 225.750642 
L 271.813222 201.880102 
L 272.514651 190.937811 
L 273.21608 183.316521 
L 273.566794 181.211632 
L 273.917508 180.3944 
L 274.268223 180.908015 
L 274.618937 182.736744 
L 274.969651 185.806335 
L 275.67108 195.099135 
L 278.126081 235.707167 
L 278.476795 239.045508 
L 278.827509 241.146541 
L 279.178224 241.914019 
L 279.528938 241.310588 
L 279.879652 239.3596 
L 280.230367 236.144218 
L 280.931795 226.528012 
L 283.386796 185.291076 
L 283.73751 181.97696 
L 284.088225 179.924248 
L 284.438939 179.223511 
L 284.789653 179.905443 
L 285.140368 181.939505 
L 285.491082 185.235304 
L 286.192511 194.978053 
L 288.647511 235.994878 
L 288.998225 239.216459 
L 289.34894 241.17858 
L 289.699654 241.798223 
L 290.050369 241.051986 
L 290.401083 238.976954 
L 290.751797 235.668868 
L 291.453226 226.000738 
L 293.908226 186.046833 
L 294.258941 182.98309 
L 294.609655 181.150758 
L 294.960369 180.623635 
L 295.311084 181.417401 
L 295.661798 183.489256 
L 296.363227 191.019542 
L 297.41537 207.910826 
L 298.467513 225.494166 
L 299.168942 234.204152 
L 299.519656 237.049084 
L 299.87037 238.716286 
L 300.221085 239.142604 
L 300.571799 238.32029 
L 300.922513 236.296862 
L 301.623942 229.095145 
L 302.676085 213.181112 
L 303.728228 196.831568 
L 304.429657 188.842492 
L 304.780371 186.271791 
L 305.131086 184.800523 
L 305.4818 184.48004 
L 305.832514 185.31016 
L 306.183229 187.239798 
L 306.884657 193.958273 
L 307.9368 208.562562 
L 308.988943 223.344684 
L 309.690372 230.454647 
L 310.041087 232.702328 
L 310.391801 233.951964 
L 310.742515 234.164868 
L 311.09323 233.348937 
L 311.443944 231.557553 
L 312.145373 225.468748 
L 313.197516 212.480914 
L 314.249659 199.566811 
L 314.951087 193.474629 
L 315.301802 191.591198 
L 315.652516 190.58335 
L 316.003231 190.476549 
L 316.353945 191.255598 
L 316.704659 192.866181 
L 317.406088 198.190322 
L 318.458231 209.287234 
L 319.510374 220.07189 
L 320.211803 225.02987 
L 320.562517 226.516128 
L 320.913231 227.267877 
L 321.263946 227.273124 
L 321.61466 226.553759 
L 321.965374 225.163614 
L 322.666803 220.724704 
L 325.121804 201.201715 
L 325.472518 199.585026 
L 325.823232 198.519997 
L 326.173947 198.032649 
L 326.524661 198.121566 
L 326.875375 198.758945 
L 327.22609 199.892878 
L 327.927518 203.343127 
L 330.031805 215.915898 
L 330.733233 218.355782 
L 331.083948 218.984759 
L 331.434662 219.205439 
L 331.785376 219.032283 
L 332.136091 218.498077 
L 332.837519 216.553298 
L 335.29252 207.797866 
L 335.643234 207.120431 
L 335.993948 206.688413 
L 336.344663 206.500916 
L 336.695377 206.543245 
L 337.046092 206.788551 
L 337.74752 207.734085 
L 339.501092 210.597041 
L 340.202521 211.133523 
L 340.553235 211.198849 
L 341.254664 210.967239 
L 343.35895 209.544873 
L 343.709664 209.575321 
L 344.060379 209.752317 
L 344.761807 210.560092 
L 345.463236 211.87994 
L 346.866093 214.885731 
L 347.567522 215.767585 
L 347.918236 215.885138 
L 348.268951 215.742742 
L 348.619665 215.32265 
L 348.970379 214.621862 
L 349.671808 212.445506 
L 350.723951 207.896722 
L 351.776094 203.464966 
L 352.477523 201.633058 
L 352.828237 201.258895 
L 353.178952 201.306579 
L 353.529666 201.798594 
L 353.88038 202.736365 
L 354.581809 205.844293 
L 355.633952 212.64556 
L 356.686095 219.67266 
L 357.387524 222.988142 
L 357.738238 223.938445 
L 358.088953 224.323765 
L 358.439667 224.10349 
L 358.790381 223.264147 
L 359.141096 221.820996 
L 359.842524 217.328224 
L 360.894667 208.011671 
L 361.94681 198.821739 
L 362.648239 194.680222 
L 362.998953 193.561512 
L 363.349668 193.180973 
L 363.700382 193.577164 
L 364.051097 194.753932 
L 364.401811 196.679322 
L 365.10324 202.47411 
L 366.506097 218.129747 
L 367.207526 225.270527 
L 367.908954 230.140186 
L 368.259669 231.397065 
L 368.610383 231.757609 
L 368.961097 231.18643 
L 369.311812 229.689701 
L 369.662526 227.315703 
L 370.363955 220.329415 
L 372.818955 190.555135 
L 373.16967 188.232873 
L 373.520384 186.870171 
L 373.871098 186.543649 
L 374.221813 187.284504 
L 374.572527 189.076392 
L 375.273956 195.512454 
L 375.975384 204.824375 
L 377.728956 229.767733 
L 378.430385 235.747527 
L 378.781099 237.182401 
L 379.131814 237.462487 
L 379.482528 236.56167 
L 379.833242 234.50637 
L 380.534671 227.294727 
L 381.586814 211.246526 
L 382.638957 194.496776 
L 383.340386 186.231159 
L 383.6911 183.583948 
L 384.041815 182.111052 
L 384.392529 181.887834 
L 384.743243 182.934579 
L 385.093958 185.215147 
L 385.795386 193.060557 
L 386.847529 210.261141 
L 387.899672 227.983615 
L 388.601101 236.615238 
L 388.951815 239.339041 
L 389.30253 240.816112 
L 389.653244 240.97433 
L 390.003959 239.799805 
L 390.354673 237.337804 
L 391.056102 229.015231 
L 392.108245 211.013392 
L 393.160388 192.685471 
L 393.861816 183.869364 
L 394.212531 181.127315 
L 394.563245 179.67884 
L 394.913959 179.591223 
L 395.264674 180.871563 
L 395.615388 183.466315 
L 396.316817 192.097794 
L 397.36896 210.532075 
L 398.421103 229.086758 
L 399.122532 237.903828 
L 399.473246 240.606522 
L 399.82396 241.995431 
L 400.174675 242.009548 
L 400.525389 240.648757 
L 400.876103 237.97382 
L 401.577532 229.209927 
L 402.629675 210.722114 
L 403.681818 192.322908 
L 403.681818 192.322908 
" style="fill:none;stroke:#0000ff;stroke-linecap:square;stroke-width:1.5;"/>
   </g>
   <g id="line2d_20">
    <path clip-path="url(#pa1ce3bfc36)" d="M 53.318182 179.22081 
L 56.474611 179.337117 
L 59.63104 179.685179 
L 62.787469 180.262423 
L 65.943898 181.064585 
L 69.100328 182.085737 
L 72.607471 183.467959 
L 76.114615 185.09858 
L 79.621758 186.962725 
L 83.479616 189.262653 
L 87.688188 192.040524 
L 92.247475 195.325154 
L 97.50819 199.406062 
L 103.821048 204.601128 
L 127.31891 224.255546 
L 132.228911 227.923611 
L 136.788197 231.055502 
L 140.996769 233.669167 
L 144.854627 235.800878 
L 148.361771 237.499014 
L 151.868914 238.952727 
L 155.376058 240.148757 
L 158.532487 240.995798 
L 161.688916 241.61899 
L 164.845345 242.013726 
L 168.001775 242.177091 
L 171.158204 242.107877 
L 174.314633 241.806596 
L 177.471062 241.275473 
L 180.627491 240.518434 
L 183.78392 239.541073 
L 187.291064 238.20555 
L 190.798207 236.619159 
L 194.305351 234.796369 
L 198.163209 232.538164 
L 202.371781 229.800783 
L 206.931067 226.553504 
L 212.191783 222.506549 
L 218.504641 217.33838 
L 229.026072 208.367691 
L 237.79393 201.006551 
L 243.756074 196.290964 
L 248.666075 192.687156 
L 252.874647 189.852021 
L 257.08322 187.290637 
L 260.941077 185.211977 
L 264.448221 183.565818 
L 267.955364 182.167163 
L 271.111794 181.130583 
L 274.268223 180.312506 
L 277.424652 179.718976 
L 280.581081 179.354378 
L 283.73751 179.221408 
L 286.893939 179.321048 
L 290.050369 179.652561 
L 293.206798 180.213497 
L 296.363227 180.999713 
L 299.519656 182.005397 
L 303.0268 183.371136 
L 306.533943 184.986155 
L 310.041087 186.835724 
L 313.898944 189.120961 
L 318.107517 191.884595 
L 322.666803 195.156117 
L 327.927518 199.225146 
L 334.240377 204.41087 
L 346.164665 214.584402 
L 354.231095 221.300728 
L 359.842524 225.690799 
L 364.752525 229.248651 
L 368.961097 232.036779 
L 372.818955 234.347304 
L 376.676813 236.396901 
L 380.183957 238.014657 
L 383.6911 239.383286 
L 386.847529 240.391682 
L 390.003959 241.180692 
L 393.160388 241.744486 
L 396.316817 242.078898 
L 399.473246 242.181456 
L 402.629675 242.051404 
L 403.681818 241.956479 
L 403.681818 241.956479 
" style="fill:none;stroke:#0000ff;stroke-dasharray:1.5,2.475;stroke-dashoffset:0;stroke-width:1.5;"/>
   </g>
   <g id="line2d_21">
    <path clip-path="url(#pa1ce3bfc36)" d="M 53.318182 53.298704 
L 53.668896 53.236079 
L 54.370325 52.767728 
L 56.474611 50.729834 
L 56.825325 50.702685 
L 57.17604 50.852245 
L 57.526754 51.192931 
L 58.228183 52.443954 
L 58.929611 54.31894 
L 60.332469 58.495214 
L 61.033898 59.83558 
L 61.384612 60.117844 
L 61.735326 60.086921 
L 62.086041 59.719258 
L 62.436755 59.007898 
L 63.138184 56.61619 
L 64.190327 51.300798 
L 65.24247 45.760675 
L 65.943898 43.166348 
L 66.294613 42.447822 
L 66.645327 42.195 
L 66.996041 42.44354 
L 67.346756 43.206301 
L 67.69747 44.471741 
L 68.398899 48.341024 
L 69.451042 56.272906 
L 70.503185 64.000507 
L 71.204614 67.38793 
L 71.555328 68.24458 
L 71.906042 68.454447 
L 72.256757 67.985333 
L 72.607471 66.835684 
L 72.958185 65.035632 
L 73.659614 59.759052 
L 76.114615 37.251438 
L 76.465329 35.53077 
L 76.816043 34.561304 
L 77.166758 34.406488 
L 77.517472 35.09406 
L 77.868186 36.613903 
L 78.569615 41.919891 
L 79.621758 53.786753 
L 80.673901 66.266895 
L 81.37533 72.434303 
L 81.726044 74.390575 
L 82.076759 75.445886 
L 82.427473 75.535377 
L 82.778187 74.636653 
L 83.128902 72.771584 
L 83.83033 66.44798 
L 84.882473 52.623043 
L 85.934616 38.364698 
L 86.636045 31.45288 
L 86.986759 29.307161 
L 87.337474 28.193937 
L 87.688188 28.177867 
L 88.038903 29.275266 
L 88.389617 31.4527 
L 89.091046 38.672454 
L 90.143189 54.175801 
L 91.195332 69.913191 
L 91.89676 77.418753 
L 92.247475 79.704724 
L 92.598189 80.847669 
L 92.948903 80.784698 
L 93.299618 79.506143 
L 93.650332 77.056527 
L 94.351761 69.081996 
L 95.403904 52.215361 
L 96.456047 35.327565 
L 97.157476 27.389586 
L 97.50819 25.014474 
L 97.858904 23.869567 
L 98.209619 24.014501 
L 98.560333 25.451916 
L 98.911047 28.126942 
L 99.612476 36.697744 
L 100.664619 54.583523 
L 101.716762 72.270493 
L 102.418191 80.472373 
L 102.768905 82.884739 
L 103.11962 84.004941 
L 103.470334 83.777966 
L 103.821048 82.208392 
L 104.171763 79.360421 
L 104.873191 70.365823 
L 105.925334 51.827016 
L 106.977477 33.707364 
L 107.678906 25.413695 
L 108.029621 23.015606 
L 108.380335 21.94507 
L 108.731049 22.251255 
L 109.081764 23.92238 
L 109.432478 26.886167 
L 110.133907 36.121599 
L 111.536764 61.442167 
L 112.238193 73.111086 
L 112.939621 81.324457 
L 113.290336 83.658198 
L 113.64105 84.656368 
L 113.991764 84.276692 
L 114.342479 82.537934 
L 114.693193 79.518972 
L 115.394622 70.232415 
L 116.797479 45.114698 
L 117.498908 33.673059 
L 118.200337 25.708461 
L 118.551051 23.48663 
L 118.901765 22.58078 
L 119.25248 23.025447 
L 119.603194 24.795302 
L 119.953908 27.806529 
L 120.655337 36.951669 
L 123.110338 76.631275 
L 123.461052 79.883423 
L 123.811766 81.949268 
L 124.162481 82.745986 
L 124.513195 82.247419 
L 124.863909 80.484853 
L 125.214624 77.54522 
L 125.916052 68.732865 
L 128.371053 31.266544 
L 128.721767 28.271452 
L 129.072482 26.401311 
L 129.423196 25.727082 
L 129.77391 26.266134 
L 130.124625 27.982011 
L 130.475339 30.786599 
L 131.176768 39.079995 
L 133.631768 73.56628 
L 133.982482 76.246117 
L 134.333197 77.885961 
L 134.683911 78.428014 
L 135.034626 77.863872 
L 135.38534 76.234223 
L 135.736054 73.626351 
L 136.437483 66.028948 
L 138.541769 38.387067 
L 139.243198 32.91298 
L 139.593912 31.532266 
L 139.944626 31.128293 
L 140.295341 31.700554 
L 140.646055 33.205205 
L 141.347484 38.637941 
L 142.399627 50.633996 
L 143.45177 62.857352 
L 144.153199 68.78619 
L 144.503913 70.691561 
L 144.854627 71.790567 
L 145.205342 72.054356 
L 145.556056 71.492063 
L 145.90677 70.149506 
L 146.608199 65.47111 
L 147.660342 55.4179 
L 148.712485 45.437694 
L 149.413914 40.733758 
L 149.764628 39.270067 
L 150.115343 38.468743 
L 150.466057 38.343529 
L 150.816771 38.877155 
L 151.167486 40.023086 
L 151.868914 43.838955 
L 153.271772 54.445274 
L 153.9732 59.268906 
L 154.674629 62.66106 
L 155.025344 63.659536 
L 155.376058 64.154005 
L 155.726772 64.145792 
L 156.077487 63.659614 
L 156.428201 62.741419 
L 157.12963 59.87953 
L 159.233916 49.375996 
L 159.935344 47.354706 
L 160.286059 46.834909 
L 160.636773 46.649634 
L 160.987487 46.782849 
L 161.338202 47.203264 
L 162.039631 48.719797 
L 164.143917 54.468234 
L 164.845345 55.461701 
L 165.19606 55.677786 
L 165.546774 55.71564 
L 165.897488 55.596112 
L 166.598917 55.0119 
L 168.001775 53.57363 
L 168.703203 53.293065 
L 169.053918 53.33542 
L 169.755346 53.776277 
L 170.807489 54.995594 
L 171.508918 55.755693 
L 171.859632 55.994228 
L 172.210347 56.088217 
L 172.561061 56.008748 
L 172.911775 55.736809 
L 173.26249 55.26511 
L 173.963918 53.758101 
L 175.016062 50.557669 
L 176.068205 47.505605 
L 176.418919 46.815123 
L 176.769633 46.384664 
L 177.120348 46.258647 
L 177.471062 46.467976 
L 177.821776 47.027565 
L 178.172491 47.934631 
L 178.873919 50.687564 
L 179.926062 56.323033 
L 180.978205 61.757743 
L 181.679634 64.030823 
L 182.030349 64.527632 
L 182.381063 64.529946 
L 182.731777 64.013424 
L 183.082492 62.977812 
L 183.78392 59.473595 
L 184.836063 51.715728 
L 185.888206 43.611728 
L 186.589635 39.702583 
L 186.940349 38.530455 
L 187.291064 37.985789 
L 187.641778 38.115442 
L 187.992492 38.936333 
L 188.343207 40.43371 
L 189.044636 45.240422 
L 190.096779 55.425628 
L 191.148922 65.67364 
L 191.85035 70.439506 
L 192.201065 71.807162 
L 192.551779 72.380732 
L 192.902493 72.114108 
L 193.253208 70.998476 
L 193.603922 69.063603 
L 194.305351 63.043445 
L 195.357494 50.636346 
L 196.409637 38.464445 
L 197.111066 32.951721 
L 197.46178 31.423516 
L 197.812494 30.839903 
L 198.163209 31.244983 
L 198.513923 32.638979 
L 198.864637 34.977439 
L 199.566066 42.096003 
L 200.968923 61.439313 
L 201.670352 70.310262 
L 202.371781 76.445898 
L 202.722495 78.097151 
L 203.07321 78.672569 
L 203.423924 78.131241 
L 203.774638 76.481805 
L 204.125353 73.782728 
L 204.826781 65.70459 
L 207.281782 30.648171 
L 207.632496 27.816605 
L 207.98321 26.08143 
L 208.333925 25.531318 
L 208.684639 26.202915 
L 209.035354 28.078676 
L 209.386068 31.08712 
L 210.087497 39.964924 
L 212.542497 77.638573 
L 212.893211 80.600454 
L 213.243926 82.379716 
L 213.59464 82.889 
L 213.945354 82.096866 
L 214.296069 80.029581 
L 214.646783 76.770326 
L 215.348212 67.270669 
L 217.803212 27.760424 
L 218.153927 24.732039 
L 218.504641 22.94833 
L 218.855355 22.493402 
L 219.20607 23.392705 
L 219.556784 25.611667 
L 220.258213 33.580711 
L 221.310356 51.469793 
L 222.362499 70.204427 
L 223.063928 79.516605 
L 223.414642 82.547382 
L 223.765356 84.296977 
L 224.116071 84.686359 
L 224.466785 83.696674 
L 224.817499 81.370158 
L 225.518928 73.167462 
L 226.571071 54.996218 
L 227.623214 36.18133 
L 228.324643 26.93725 
L 228.675357 23.967131 
L 229.026072 22.2883 
L 229.376786 21.973049 
L 229.7275 23.033222 
L 230.078215 25.419773 
L 230.779643 33.687689 
L 231.831786 51.767118 
L 232.883929 70.275114 
L 233.585358 79.261368 
L 233.936072 82.11016 
L 234.286787 83.684261 
L 234.637501 83.919589 
L 234.988215 82.811528 
L 235.33893 80.414882 
L 236.040359 72.253481 
L 237.092502 54.639289 
L 238.144645 36.818031 
L 238.846073 28.272237 
L 239.196788 25.601819 
L 239.547502 24.163041 
L 239.898216 24.010527 
L 240.248931 25.141655 
L 240.599645 27.497082 
L 241.301074 35.380513 
L 242.353217 52.164346 
L 243.40536 68.93415 
L 244.106789 76.867671 
L 244.457503 79.307437 
L 244.808217 80.584267 
L 245.158932 80.653997 
L 245.509646 79.526292 
L 245.86036 77.263667 
L 246.561789 69.82577 
L 247.613932 54.221514 
L 248.666075 38.845254 
L 249.367504 31.681533 
L 249.718218 29.5189 
L 250.068933 28.426184 
L 250.419647 28.436355 
L 250.770361 29.533091 
L 251.121076 31.652188 
L 251.822504 38.484454 
L 252.874647 52.58311 
L 253.92679 66.25337 
L 254.628219 72.507191 
L 254.978933 74.352894 
L 255.329648 75.244161 
L 255.680362 75.159679 
L 256.031077 74.121856 
L 256.381791 72.19502 
L 257.08322 66.117565 
L 259.53822 39.176682 
L 259.888934 36.908686 
L 260.239649 35.412308 
L 260.590363 34.734737 
L 260.941077 34.885458 
L 261.291792 35.836715 
L 261.642506 37.525658 
L 262.343935 42.713298 
L 264.798935 64.756723 
L 265.14965 66.516327 
L 265.500364 67.638953 
L 265.851078 68.095793 
L 266.201793 67.889091 
L 266.552507 67.051066 
L 266.903221 65.641478 
L 267.60465 61.461488 
L 269.708936 46.440149 
L 270.410365 43.543881 
L 270.761079 42.8111 
L 271.111794 42.576805 
L 271.462508 42.827402 
L 271.813222 43.527216 
L 272.514651 46.038169 
L 273.917508 53.201215 
L 274.618937 56.444584 
L 275.320366 58.706072 
L 275.67108 59.370212 
L 276.021795 59.705586 
L 276.372509 59.720623 
L 276.723223 59.439636 
L 277.073938 58.900655 
L 277.775366 57.252122 
L 279.528938 52.533734 
L 280.230367 51.435031 
L 280.581081 51.156573 
L 280.931795 51.056168 
L 281.28251 51.117235 
L 281.983938 51.610202 
L 283.386796 53.006684 
L 284.088225 53.321134 
L 284.438939 53.299525 
L 285.140368 52.889649 
L 285.841796 52.10317 
L 286.893939 50.802223 
L 287.595368 50.342364 
L 287.946082 50.348825 
L 288.296797 50.547238 
L 288.647511 50.949868 
L 289.34894 52.352727 
L 290.401083 55.549333 
L 291.453226 58.836118 
L 292.154655 60.230245 
L 292.505369 60.514075 
L 292.856083 60.467597 
L 293.206798 60.068011 
L 293.557512 59.309819 
L 294.258941 56.78868 
L 295.311084 51.235067 
L 296.363227 45.485503 
L 297.064656 42.80768 
L 297.41537 42.070247 
L 297.766084 41.814922 
L 298.116799 42.077352 
L 298.467513 42.869674 
L 298.818227 44.178948 
L 299.519656 48.170163 
L 300.571799 56.327486 
L 301.623942 64.254228 
L 302.325371 67.72195 
L 302.676085 68.597377 
L 303.0268 68.810674 
L 303.377514 68.329657 
L 303.728228 67.15345 
L 304.078943 65.313491 
L 304.780371 59.925014 
L 307.235372 36.980616 
L 307.586086 35.228258 
L 307.9368 34.240476 
L 308.287515 34.081317 
L 308.638229 34.778507 
L 308.988943 36.321313 
L 309.690372 41.708009 
L 310.742515 53.751684 
L 311.794658 66.413042 
L 312.496087 72.669734 
L 312.846801 74.65534 
L 313.197516 75.728202 
L 313.54823 75.822926 
L 313.898944 74.917131 
L 314.249659 73.033227 
L 314.951087 66.641247 
L 316.003231 52.664164 
L 317.055374 38.248325 
L 317.756802 31.2578 
L 318.107517 29.085629 
L 318.458231 27.955901 
L 318.808945 27.933731 
L 319.15966 29.03543 
L 319.510374 31.227115 
L 320.211803 38.5014 
L 321.263946 54.129054 
L 322.316089 69.997095 
L 323.017518 77.569317 
L 323.368232 79.878402 
L 323.718946 81.036558 
L 324.069661 80.98052 
L 324.420375 79.700612 
L 324.771089 77.241703 
L 325.472518 69.227731 
L 326.524661 52.267237 
L 327.576804 35.278199 
L 328.278233 27.286818 
L 328.628947 24.892307 
L 328.979661 23.733695 
L 329.330376 23.870906 
L 329.68109 25.306601 
L 330.031805 27.985683 
L 330.733233 36.579889 
L 331.785376 54.527082 
L 332.837519 72.283928 
L 333.538948 80.525026 
L 333.889662 82.952776 
L 334.240377 84.085002 
L 334.591091 83.86649 
L 334.941805 82.301776 
L 335.29252 79.455165 
L 335.993948 70.453832 
L 337.046092 51.887393 
L 338.098235 33.730539 
L 338.799663 25.412469 
L 339.150378 23.003221 
L 339.501092 21.922478 
L 339.851806 22.219522 
L 340.202521 23.882639 
L 340.553235 26.839579 
L 341.254664 36.064784 
L 342.306807 54.869258 
L 343.35895 73.051354 
L 344.060379 81.273986 
L 344.411093 83.614538 
L 344.761807 84.621002 
L 345.112522 84.25107 
L 345.463236 82.523414 
L 345.81395 79.516749 
L 346.515379 70.257332 
L 347.918236 45.192648 
L 348.619665 33.768551 
L 349.321094 25.809847 
L 349.671808 23.585585 
L 350.022523 22.673414 
L 350.373237 23.107819 
L 350.723951 24.863596 
L 351.074666 27.857227 
L 351.776094 36.95871 
L 354.231095 76.488551 
L 354.581809 79.732947 
L 354.932523 81.796894 
L 355.283238 82.597942 
L 355.633952 82.110055 
L 355.984666 80.364363 
L 356.335381 77.447362 
L 357.03681 68.694444 
L 359.49181 31.449287 
L 359.842524 28.468186 
L 360.193239 26.604134 
L 360.543953 25.927549 
L 360.894667 26.455616 
L 361.245382 28.152066 
L 361.596096 30.929355 
L 362.297525 39.1486 
L 364.752525 73.346937 
L 365.10324 76.006912 
L 365.453954 77.636695 
L 365.804668 78.179178 
L 366.155383 77.626201 
L 366.506097 76.018229 
L 366.856811 73.441855 
L 367.55824 65.931938 
L 369.662526 38.603364 
L 370.363955 33.189985 
L 370.714669 31.823015 
L 371.065384 31.420456 
L 371.416098 31.981511 
L 371.766812 33.462591 
L 372.468241 38.814831 
L 373.520384 50.633332 
L 374.572527 62.670734 
L 375.273956 68.506902 
L 375.62467 70.382218 
L 375.975384 71.464154 
L 376.326099 71.724789 
L 376.676813 71.173594 
L 377.027528 69.856097 
L 377.728956 65.265502 
L 378.781099 55.408438 
L 379.833242 45.635084 
L 380.534671 41.035105 
L 380.885385 39.605604 
L 381.2361 38.824264 
L 381.586814 38.70381 
L 381.937528 39.226607 
L 382.288243 40.346438 
L 382.989671 44.068885 
L 384.392529 54.386881 
L 385.093958 59.064513 
L 385.795386 62.343615 
L 386.146101 63.304512 
L 386.496815 63.77654 
L 386.847529 63.76211 
L 387.198244 63.286324 
L 387.548958 62.394788 
L 388.250387 59.63012 
L 390.354673 49.583419 
L 391.056102 47.681917 
L 391.406816 47.202288 
L 391.75753 47.041416 
L 392.108245 47.182139 
L 392.458959 47.592774 
L 393.160388 49.040064 
L 395.264674 54.338577 
L 395.966102 55.187442 
L 396.316817 55.347383 
L 396.667531 55.34332 
L 397.36896 54.942463 
L 399.122532 53.369516 
L 399.473246 53.248708 
L 399.82396 53.249077 
L 400.174675 53.376134 
L 400.876103 53.977419 
L 402.980389 56.392224 
L 403.331104 56.460983 
L 403.681818 56.340208 
L 403.681818 56.340208 
" style="fill:none;stroke:#ffa500;stroke-linecap:square;stroke-width:1.5;"/>
   </g>
   <g id="line2d_22">
    <path clip-path="url(#pa1ce3bfc36)" d="M 53.318182 53.298704 
L 64.190327 44.110644 
L 70.152471 39.362626 
L 75.062472 35.722688 
L 79.621758 32.622586 
L 83.83033 30.042679 
L 87.688188 27.94525 
L 91.195332 26.28072 
L 94.702475 24.862624 
L 97.858904 23.807776 
L 101.015334 22.97084 
L 104.171763 22.358002 
L 107.328192 21.973788 
L 110.484621 21.821039 
L 113.64105 21.900882 
L 116.797479 22.212729 
L 119.953908 22.754274 
L 123.110338 23.521516 
L 126.266767 24.508786 
L 129.77391 25.854883 
L 133.281054 27.451298 
L 136.788197 29.283469 
L 140.646055 31.55115 
L 144.854627 34.297741 
L 149.413914 37.553536 
L 154.674629 41.60826 
L 160.987487 46.782636 
L 171.859632 56.055428 
L 180.627491 63.396438 
L 186.238921 67.818949 
L 191.148922 71.414194 
L 195.357494 74.240543 
L 199.215352 76.590657 
L 203.07321 78.68375 
L 206.580353 80.344034 
L 210.087497 81.757635 
L 213.243926 82.808258 
L 216.400355 83.64083 
L 219.556784 84.2492 
L 222.713213 84.628873 
L 225.869642 84.777043 
L 229.026072 84.692615 
L 232.182501 84.376213 
L 235.33893 83.830175 
L 238.495359 83.058536 
L 241.651788 82.066997 
L 245.158932 80.716345 
L 248.666075 79.115614 
L 252.173219 77.279406 
L 256.031077 75.007649 
L 260.239649 72.257098 
L 264.798935 68.997646 
L 270.059651 64.939589 
L 276.372509 59.762561 
L 287.595368 50.189398 
L 296.012513 43.150446 
L 301.623942 38.731138 
L 306.533943 35.139602 
L 310.742515 32.317056 
L 314.600373 29.970889 
L 318.458231 27.882139 
L 321.965374 26.226106 
L 325.472518 24.817004 
L 328.628947 23.770609 
L 331.785376 22.942402 
L 334.941805 22.338502 
L 338.098235 21.963371 
L 341.254664 21.819781 
L 344.411093 21.908793 
L 347.567522 22.22975 
L 350.723951 22.780279 
L 353.88038 23.556314 
L 357.03681 24.552119 
L 360.543953 25.907322 
L 364.051097 27.512363 
L 367.55824 29.352604 
L 371.416098 31.628431 
L 375.62467 34.382933 
L 380.183957 37.646033 
L 385.444672 41.70741 
L 391.75753 46.887076 
L 402.980389 56.461102 
L 403.681818 57.058979 
L 403.681818 57.058979 
" style="fill:none;stroke:#ffa500;stroke-dasharray:1.5,2.475;stroke-dashoffset:0;stroke-width:1.5;"/>
   </g>
   <g id="patch_3">
    <path d="M 35.8 253.2 
L 35.8 10.8 
" style="fill:none;stroke:#000000;stroke-linecap:square;stroke-linejoin:miter;stroke-width:0.8;"/>
   </g>
   <g id="patch_4">
    <path d="M 421.2 253.2 
L 421.2 10.8 
" style="fill:none;stroke:#000000;stroke-linecap:square;stroke-linejoin:miter;stroke-width:0.8;"/>
   </g>
   <g id="patch_5">
    <path d="M 35.8 253.2 
L 421.2 253.2 
" style="fill:none;stroke:#000000;stroke-linecap:square;stroke-linejoin:miter;stroke-width:0.8;"/>
   </g>
   <g id="patch_6">
    <path d="M 35.8 10.8 
L 421.2 10.8 
" style="fill:none;stroke:#000000;stroke-linecap:square;stroke-linejoin:miter;stroke-width:0.8;"/>
   </g>
   <g id="legend_1">
    <g id="patch_7">
     <path d="M 320.415625 162.85625 
L 414.2 162.85625 
Q 416.2 162.85625 416.2 160.85625 
L 416.2 103.14375 
Q 416.2 101.14375 414.2 101.14375 
L 320.415625 101.14375 
Q 318.415625 101.14375 318.415625 103.14375 
L 318.415625 160.85625 
Q 318.415625 162.85625 320.415625 162.85625 
z
" style="fill:#ffffff;opacity:0.8;stroke:#cccccc;stroke-linejoin:miter;"/>
    </g>
    <g id="line2d_23">
     <path d="M 322.415625 109.242188 
L 342.415625 109.242188 
" style="fill:none;stroke:#0000ff;stroke-linecap:square;stroke-width:1.5;"/>
    </g>
    <g id="line2d_24"/>
    <g id="text_3">
     <!-- Position of A -->
     <g transform="translate(350.415625 112.742188)scale(0.1 -0.1)">
      <defs>
       <path d="M 19.671875 64.796875 
L 19.671875 37.40625 
L 32.078125 37.40625 
Q 38.96875 37.40625 42.71875 40.96875 
Q 46.484375 44.53125 46.484375 51.125 
Q 46.484375 57.671875 42.71875 61.234375 
Q 38.96875 64.796875 32.078125 64.796875 
z
M 9.8125 72.90625 
L 32.078125 72.90625 
Q 44.34375 72.90625 50.609375 67.359375 
Q 56.890625 61.8125 56.890625 51.125 
Q 56.890625 40.328125 50.609375 34.8125 
Q 44.34375 29.296875 32.078125 29.296875 
L 19.671875 29.296875 
L 19.671875 0 
L 9.8125 0 
z
" id="DejaVuSans-80"/>
       <path d="M 30.609375 48.390625 
Q 23.390625 48.390625 19.1875 42.75 
Q 14.984375 37.109375 14.984375 27.296875 
Q 14.984375 17.484375 19.15625 11.84375 
Q 23.34375 6.203125 30.609375 6.203125 
Q 37.796875 6.203125 41.984375 11.859375 
Q 46.1875 17.53125 46.1875 27.296875 
Q 46.1875 37.015625 41.984375 42.703125 
Q 37.796875 48.390625 30.609375 48.390625 
z
M 30.609375 56 
Q 42.328125 56 49.015625 48.375 
Q 55.71875 40.765625 55.71875 27.296875 
Q 55.71875 13.875 49.015625 6.21875 
Q 42.328125 -1.421875 30.609375 -1.421875 
Q 18.84375 -1.421875 12.171875 6.21875 
Q 5.515625 13.875 5.515625 27.296875 
Q 5.515625 40.765625 12.171875 48.375 
Q 18.84375 56 30.609375 56 
z
" id="DejaVuSans-111"/>
       <path d="M 37.109375 75.984375 
L 37.109375 68.5 
L 28.515625 68.5 
Q 23.6875 68.5 21.796875 66.546875 
Q 19.921875 64.59375 19.921875 59.515625 
L 19.921875 54.6875 
L 34.71875 54.6875 
L 34.71875 47.703125 
L 19.921875 47.703125 
L 19.921875 0 
L 10.890625 0 
L 10.890625 47.703125 
L 2.296875 47.703125 
L 2.296875 54.6875 
L 10.890625 54.6875 
L 10.890625 58.5 
Q 10.890625 67.625 15.140625 71.796875 
Q 19.390625 75.984375 28.609375 75.984375 
z
" id="DejaVuSans-102"/>
       <path d="M 34.1875 63.1875 
L 20.796875 26.90625 
L 47.609375 26.90625 
z
M 28.609375 72.90625 
L 39.796875 72.90625 
L 67.578125 0 
L 57.328125 0 
L 50.6875 18.703125 
L 17.828125 18.703125 
L 11.1875 0 
L 0.78125 0 
z
" id="DejaVuSans-65"/>
      </defs>
      <use xlink:href="#DejaVuSans-80"/>
      <use x="56.677734" xlink:href="#DejaVuSans-111"/>
      <use x="117.859375" xlink:href="#DejaVuSans-115"/>
      <use x="169.958984" xlink:href="#DejaVuSans-105"/>
      <use x="197.742188" xlink:href="#DejaVuSans-116"/>
      <use x="236.951172" xlink:href="#DejaVuSans-105"/>
      <use x="264.734375" xlink:href="#DejaVuSans-111"/>
      <use x="325.916016" xlink:href="#DejaVuSans-110"/>
      <use x="389.294922" xlink:href="#DejaVuSans-32"/>
      <use x="421.082031" xlink:href="#DejaVuSans-111"/>
      <use x="482.263672" xlink:href="#DejaVuSans-102"/>
      <use x="517.46875" xlink:href="#DejaVuSans-32"/>
      <use x="549.255859" xlink:href="#DejaVuSans-65"/>
     </g>
    </g>
    <g id="line2d_25">
     <path d="M 322.415625 123.920312 
L 342.415625 123.920312 
" style="fill:none;stroke:#0000ff;stroke-dasharray:1.5,2.475;stroke-dashoffset:0;stroke-width:1.5;"/>
    </g>
    <g id="line2d_26"/>
    <g id="text_4">
     <!-- Envelope A -->
     <g transform="translate(350.415625 127.420312)scale(0.1 -0.1)">
      <defs>
       <path d="M 9.8125 72.90625 
L 55.90625 72.90625 
L 55.90625 64.59375 
L 19.671875 64.59375 
L 19.671875 43.015625 
L 54.390625 43.015625 
L 54.390625 34.71875 
L 19.671875 34.71875 
L 19.671875 8.296875 
L 56.78125 8.296875 
L 56.78125 0 
L 9.8125 0 
z
" id="DejaVuSans-69"/>
       <path d="M 2.984375 54.6875 
L 12.5 54.6875 
L 29.59375 8.796875 
L 46.6875 54.6875 
L 56.203125 54.6875 
L 35.6875 0 
L 23.484375 0 
z
" id="DejaVuSans-118"/>
      </defs>
      <use xlink:href="#DejaVuSans-69"/>
      <use x="63.183594" xlink:href="#DejaVuSans-110"/>
      <use x="126.5625" xlink:href="#DejaVuSans-118"/>
      <use x="185.742188" xlink:href="#DejaVuSans-101"/>
      <use x="247.265625" xlink:href="#DejaVuSans-108"/>
      <use x="275.048828" xlink:href="#DejaVuSans-111"/>
      <use x="336.230469" xlink:href="#DejaVuSans-112"/>
      <use x="399.707031" xlink:href="#DejaVuSans-101"/>
      <use x="461.230469" xlink:href="#DejaVuSans-32"/>
      <use x="493.017578" xlink:href="#DejaVuSans-65"/>
     </g>
    </g>
    <g id="line2d_27">
     <path d="M 322.415625 138.598437 
L 342.415625 138.598437 
" style="fill:none;stroke:#ffa500;stroke-linecap:square;stroke-width:1.5;"/>
    </g>
    <g id="line2d_28"/>
    <g id="text_5">
     <!-- Position of B -->
     <g transform="translate(350.415625 142.098437)scale(0.1 -0.1)">
      <defs>
       <path d="M 19.671875 34.8125 
L 19.671875 8.109375 
L 35.5 8.109375 
Q 43.453125 8.109375 47.28125 11.40625 
Q 51.125 14.703125 51.125 21.484375 
Q 51.125 28.328125 47.28125 31.5625 
Q 43.453125 34.8125 35.5 34.8125 
z
M 19.671875 64.796875 
L 19.671875 42.828125 
L 34.28125 42.828125 
Q 41.5 42.828125 45.03125 45.53125 
Q 48.578125 48.25 48.578125 53.8125 
Q 48.578125 59.328125 45.03125 62.0625 
Q 41.5 64.796875 34.28125 64.796875 
z
M 9.8125 72.90625 
L 35.015625 72.90625 
Q 46.296875 72.90625 52.390625 68.21875 
Q 58.5 63.53125 58.5 54.890625 
Q 58.5 48.1875 55.375 44.234375 
Q 52.25 40.28125 46.1875 39.3125 
Q 53.46875 37.75 57.5 32.78125 
Q 61.53125 27.828125 61.53125 20.40625 
Q 61.53125 10.640625 54.890625 5.3125 
Q 48.25 0 35.984375 0 
L 9.8125 0 
z
" id="DejaVuSans-66"/>
      </defs>
      <use xlink:href="#DejaVuSans-80"/>
      <use x="56.677734" xlink:href="#DejaVuSans-111"/>
      <use x="117.859375" xlink:href="#DejaVuSans-115"/>
      <use x="169.958984" xlink:href="#DejaVuSans-105"/>
      <use x="197.742188" xlink:href="#DejaVuSans-116"/>
      <use x="236.951172" xlink:href="#DejaVuSans-105"/>
      <use x="264.734375" xlink:href="#DejaVuSans-111"/>
      <use x="325.916016" xlink:href="#DejaVuSans-110"/>
      <use x="389.294922" xlink:href="#DejaVuSans-32"/>
      <use x="421.082031" xlink:href="#DejaVuSans-111"/>
      <use x="482.263672" xlink:href="#DejaVuSans-102"/>
      <use x="517.46875" xlink:href="#DejaVuSans-32"/>
      <use x="549.255859" xlink:href="#DejaVuSans-66"/>
     </g>
    </g>
    <g id="line2d_29">
     <path d="M 322.415625 153.276563 
L 342.415625 153.276563 
" style="fill:none;stroke:#ffa500;stroke-dasharray:1.5,2.475;stroke-dashoffset:0;stroke-width:1.5;"/>
    </g>
    <g id="line2d_30"/>
    <g id="text_6">
     <!-- Envelope B -->
     <g transform="translate(350.415625 156.776563)scale(0.1 -0.1)">
      <use xlink:href="#DejaVuSans-69"/>
      <use x="63.183594" xlink:href="#DejaVuSans-110"/>
      <use x="126.5625" xlink:href="#DejaVuSans-118"/>
      <use x="185.742188" xlink:href="#DejaVuSans-101"/>
      <use x="247.265625" xlink:href="#DejaVuSans-108"/>
      <use x="275.048828" xlink:href="#DejaVuSans-111"/>
      <use x="336.230469" xlink:href="#DejaVuSans-112"/>
      <use x="399.707031" xlink:href="#DejaVuSans-101"/>
      <use x="461.230469" xlink:href="#DejaVuSans-32"/>
      <use x="493.017578" xlink:href="#DejaVuSans-66"/>
     </g>
    </g>
   </g>
  </g>
 </g>
 <defs>
  <clipPath id="pa1ce3bfc36">
   <rect height="242.4" width="385.4" x="35.8" y="10.8"/>
  </clipPath>
 </defs>
</svg>
