<?xml version="1.0" encoding="utf-8" standalone="no"?>
<!DOCTYPE svg PUBLIC "-//W3C//DTD SVG 1.1//EN"
  "http://www.w3.org/Graphics/SVG/1.1/DTD/svg11.dtd">
<!-- Created with matplotlib (https://matplotlib.org/) -->
<svg height="360pt" version="1.1" viewBox="0 0 504 360" width="504pt" xmlns="http://www.w3.org/2000/svg" xmlns:xlink="http://www.w3.org/1999/xlink">
 <metadata>
  <rdf:RDF xmlns:cc="http://creativecommons.org/ns#" xmlns:dc="http://purl.org/dc/elements/1.1/" xmlns:rdf="http://www.w3.org/1999/02/22-rdf-syntax-ns#">
   <cc:Work>
    <dc:type rdf:resource="http://purl.org/dc/dcmitype/StillImage"/>
    <dc:date>2024-01-19T16:18:38.526105</dc:date>
    <dc:format>image/svg+xml</dc:format>
    <dc:creator>
     <cc:Agent>
      <dc:title>Matplotlib v3.3.2, https://matplotlib.org/</dc:title>
     </cc:Agent>
    </dc:creator>
   </cc:Work>
  </rdf:RDF>
 </metadata>
 <defs>
  <style type="text/css">*{stroke-linecap:butt;stroke-linejoin:round;}</style>
 </defs>
 <g id="figure_1">
  <g id="patch_1">
   <path d="M 0 360 
L 504 360 
L 504 0 
L 0 0 
z
" style="fill:none;"/>
  </g>
  <g id="axes_1">
   <g id="patch_2">
    <path d="M 35.8 325.2 
L 493.2 325.2 
L 493.2 10.8 
L 35.8 10.8 
z
" style="fill:none;"/>
   </g>
   <g id="matplotlib.axis_1">
    <g id="xtick_1">
     <g id="line2d_1">
      <defs>
       <path d="M 0 0 
L 0 3.5 
" id="m8dcd720d91" style="stroke:#000000;stroke-width:0.8;"/>
      </defs>
      <g>
       <use style="stroke:#000000;stroke-width:0.8;" x="56.590909" xlink:href="#m8dcd720d91" y="325.2"/>
      </g>
     </g>
    </g>
    <g id="xtick_2">
     <g id="line2d_2">
      <g>
       <use style="stroke:#000000;stroke-width:0.8;" x="115.993506" xlink:href="#m8dcd720d91" y="325.2"/>
      </g>
     </g>
    </g>
    <g id="xtick_3">
     <g id="line2d_3">
      <g>
       <use style="stroke:#000000;stroke-width:0.8;" x="175.396104" xlink:href="#m8dcd720d91" y="325.2"/>
      </g>
     </g>
    </g>
    <g id="xtick_4">
     <g id="line2d_4">
      <g>
       <use style="stroke:#000000;stroke-width:0.8;" x="234.798701" xlink:href="#m8dcd720d91" y="325.2"/>
      </g>
     </g>
    </g>
    <g id="xtick_5">
     <g id="line2d_5">
      <g>
       <use style="stroke:#000000;stroke-width:0.8;" x="294.201299" xlink:href="#m8dcd720d91" y="325.2"/>
      </g>
     </g>
    </g>
    <g id="xtick_6">
     <g id="line2d_6">
      <g>
       <use style="stroke:#000000;stroke-width:0.8;" x="353.603896" xlink:href="#m8dcd720d91" y="325.2"/>
      </g>
     </g>
    </g>
    <g id="xtick_7">
     <g id="line2d_7">
      <g>
       <use style="stroke:#000000;stroke-width:0.8;" x="413.006494" xlink:href="#m8dcd720d91" y="325.2"/>
      </g>
     </g>
    </g>
    <g id="xtick_8">
     <g id="line2d_8">
      <g>
       <use style="stroke:#000000;stroke-width:0.8;" x="472.409091" xlink:href="#m8dcd720d91" y="325.2"/>
      </g>
     </g>
    </g>
    <g id="text_1">
     <!-- Time, $t$ -->
     <g transform="translate(246.95 343.798437)scale(0.1 -0.1)">
      <defs>
       <path d="M -0.296875 72.90625 
L 61.375 72.90625 
L 61.375 64.59375 
L 35.5 64.59375 
L 35.5 0 
L 25.59375 0 
L 25.59375 64.59375 
L -0.296875 64.59375 
z
" id="DejaVuSans-84"/>
       <path d="M 9.421875 54.6875 
L 18.40625 54.6875 
L 18.40625 0 
L 9.421875 0 
z
M 9.421875 75.984375 
L 18.40625 75.984375 
L 18.40625 64.59375 
L 9.421875 64.59375 
z
" id="DejaVuSans-105"/>
       <path d="M 52 44.1875 
Q 55.375 50.25 60.0625 53.125 
Q 64.75 56 71.09375 56 
Q 79.640625 56 84.28125 50.015625 
Q 88.921875 44.046875 88.921875 33.015625 
L 88.921875 0 
L 79.890625 0 
L 79.890625 32.71875 
Q 79.890625 40.578125 77.09375 44.375 
Q 74.3125 48.1875 68.609375 48.1875 
Q 61.625 48.1875 57.5625 43.546875 
Q 53.515625 38.921875 53.515625 30.90625 
L 53.515625 0 
L 44.484375 0 
L 44.484375 32.71875 
Q 44.484375 40.625 41.703125 44.40625 
Q 38.921875 48.1875 33.109375 48.1875 
Q 26.21875 48.1875 22.15625 43.53125 
Q 18.109375 38.875 18.109375 30.90625 
L 18.109375 0 
L 9.078125 0 
L 9.078125 54.6875 
L 18.109375 54.6875 
L 18.109375 46.1875 
Q 21.1875 51.21875 25.484375 53.609375 
Q 29.78125 56 35.6875 56 
Q 41.65625 56 45.828125 52.96875 
Q 50 49.953125 52 44.1875 
z
" id="DejaVuSans-109"/>
       <path d="M 56.203125 29.59375 
L 56.203125 25.203125 
L 14.890625 25.203125 
Q 15.484375 15.921875 20.484375 11.0625 
Q 25.484375 6.203125 34.421875 6.203125 
Q 39.59375 6.203125 44.453125 7.46875 
Q 49.3125 8.734375 54.109375 11.28125 
L 54.109375 2.78125 
Q 49.265625 0.734375 44.1875 -0.34375 
Q 39.109375 -1.421875 33.890625 -1.421875 
Q 20.796875 -1.421875 13.15625 6.1875 
Q 5.515625 13.8125 5.515625 26.8125 
Q 5.515625 40.234375 12.765625 48.109375 
Q 20.015625 56 32.328125 56 
Q 43.359375 56 49.78125 48.890625 
Q 56.203125 41.796875 56.203125 29.59375 
z
M 47.21875 32.234375 
Q 47.125 39.59375 43.09375 43.984375 
Q 39.0625 48.390625 32.421875 48.390625 
Q 24.90625 48.390625 20.390625 44.140625 
Q 15.875 39.890625 15.1875 32.171875 
z
" id="DejaVuSans-101"/>
       <path d="M 11.71875 12.40625 
L 22.015625 12.40625 
L 22.015625 4 
L 14.015625 -11.625 
L 7.71875 -11.625 
L 11.71875 4 
z
" id="DejaVuSans-44"/>
       <path id="DejaVuSans-32"/>
       <path d="M 42.28125 54.6875 
L 40.921875 47.703125 
L 23 47.703125 
L 17.1875 18.015625 
Q 16.890625 16.359375 16.75 15.234375 
Q 16.609375 14.109375 16.609375 13.484375 
Q 16.609375 10.359375 18.484375 8.9375 
Q 20.359375 7.515625 24.515625 7.515625 
L 33.59375 7.515625 
L 32.078125 0 
L 23.484375 0 
Q 15.484375 0 11.546875 3.125 
Q 7.625 6.25 7.625 12.59375 
Q 7.625 13.71875 7.765625 15.0625 
Q 7.90625 16.40625 8.203125 18.015625 
L 14.015625 47.703125 
L 6.390625 47.703125 
L 7.8125 54.6875 
L 15.28125 54.6875 
L 18.3125 70.21875 
L 27.296875 70.21875 
L 24.3125 54.6875 
z
" id="DejaVuSans-Oblique-116"/>
      </defs>
      <use transform="translate(0 0.015625)" xlink:href="#DejaVuSans-84"/>
      <use transform="translate(61.083984 0.015625)" xlink:href="#DejaVuSans-105"/>
      <use transform="translate(88.867188 0.015625)" xlink:href="#DejaVuSans-109"/>
      <use transform="translate(186.279297 0.015625)" xlink:href="#DejaVuSans-101"/>
      <use transform="translate(247.802734 0.015625)" xlink:href="#DejaVuSans-44"/>
      <use transform="translate(279.589844 0.015625)" xlink:href="#DejaVuSans-32"/>
      <use transform="translate(311.376953 0.015625)" xlink:href="#DejaVuSans-Oblique-116"/>
     </g>
    </g>
   </g>
   <g id="matplotlib.axis_2">
    <g id="ytick_1">
     <g id="line2d_9">
      <defs>
       <path d="M 0 0 
L -3.5 0 
" id="mcfb889d923" style="stroke:#000000;stroke-width:0.8;"/>
      </defs>
      <g>
       <use style="stroke:#000000;stroke-width:0.8;" x="35.8" xlink:href="#mcfb889d923" y="282.387033"/>
      </g>
     </g>
    </g>
    <g id="ytick_2">
     <g id="line2d_10">
      <g>
       <use style="stroke:#000000;stroke-width:0.8;" x="35.8" xlink:href="#mcfb889d923" y="225.210117"/>
      </g>
     </g>
    </g>
    <g id="ytick_3">
     <g id="line2d_11">
      <g>
       <use style="stroke:#000000;stroke-width:0.8;" x="35.8" xlink:href="#mcfb889d923" y="168.0332"/>
      </g>
     </g>
    </g>
    <g id="ytick_4">
     <g id="line2d_12">
      <g>
       <use style="stroke:#000000;stroke-width:0.8;" x="35.8" xlink:href="#mcfb889d923" y="110.856284"/>
      </g>
     </g>
    </g>
    <g id="ytick_5">
     <g id="line2d_13">
      <g>
       <use style="stroke:#000000;stroke-width:0.8;" x="35.8" xlink:href="#mcfb889d923" y="53.679367"/>
      </g>
     </g>
    </g>
    <g id="text_2">
     <!-- Displacement, $x$ -->
     <g transform="translate(22.7 208.55)rotate(-90)scale(0.1 -0.1)">
      <defs>
       <path d="M 19.671875 64.796875 
L 19.671875 8.109375 
L 31.59375 8.109375 
Q 46.6875 8.109375 53.6875 14.9375 
Q 60.6875 21.78125 60.6875 36.53125 
Q 60.6875 51.171875 53.6875 57.984375 
Q 46.6875 64.796875 31.59375 64.796875 
z
M 9.8125 72.90625 
L 30.078125 72.90625 
Q 51.265625 72.90625 61.171875 64.09375 
Q 71.09375 55.28125 71.09375 36.53125 
Q 71.09375 17.671875 61.125 8.828125 
Q 51.171875 0 30.078125 0 
L 9.8125 0 
z
" id="DejaVuSans-68"/>
       <path d="M 44.28125 53.078125 
L 44.28125 44.578125 
Q 40.484375 46.53125 36.375 47.5 
Q 32.28125 48.484375 27.875 48.484375 
Q 21.1875 48.484375 17.84375 46.4375 
Q 14.5 44.390625 14.5 40.28125 
Q 14.5 37.15625 16.890625 35.375 
Q 19.28125 33.59375 26.515625 31.984375 
L 29.59375 31.296875 
Q 39.15625 29.25 43.1875 25.515625 
Q 47.21875 21.78125 47.21875 15.09375 
Q 47.21875 7.46875 41.1875 3.015625 
Q 35.15625 -1.421875 24.609375 -1.421875 
Q 20.21875 -1.421875 15.453125 -0.5625 
Q 10.6875 0.296875 5.421875 2 
L 5.421875 11.28125 
Q 10.40625 8.6875 15.234375 7.390625 
Q 20.0625 6.109375 24.8125 6.109375 
Q 31.15625 6.109375 34.5625 8.28125 
Q 37.984375 10.453125 37.984375 14.40625 
Q 37.984375 18.0625 35.515625 20.015625 
Q 33.0625 21.96875 24.703125 23.78125 
L 21.578125 24.515625 
Q 13.234375 26.265625 9.515625 29.90625 
Q 5.8125 33.546875 5.8125 39.890625 
Q 5.8125 47.609375 11.28125 51.796875 
Q 16.75 56 26.8125 56 
Q 31.78125 56 36.171875 55.265625 
Q 40.578125 54.546875 44.28125 53.078125 
z
" id="DejaVuSans-115"/>
       <path d="M 18.109375 8.203125 
L 18.109375 -20.796875 
L 9.078125 -20.796875 
L 9.078125 54.6875 
L 18.109375 54.6875 
L 18.109375 46.390625 
Q 20.953125 51.265625 25.265625 53.625 
Q 29.59375 56 35.59375 56 
Q 45.5625 56 51.78125 48.09375 
Q 58.015625 40.1875 58.015625 27.296875 
Q 58.015625 14.40625 51.78125 6.484375 
Q 45.5625 -1.421875 35.59375 -1.421875 
Q 29.59375 -1.421875 25.265625 0.953125 
Q 20.953125 3.328125 18.109375 8.203125 
z
M 48.6875 27.296875 
Q 48.6875 37.203125 44.609375 42.84375 
Q 40.53125 48.484375 33.40625 48.484375 
Q 26.265625 48.484375 22.1875 42.84375 
Q 18.109375 37.203125 18.109375 27.296875 
Q 18.109375 17.390625 22.1875 11.75 
Q 26.265625 6.109375 33.40625 6.109375 
Q 40.53125 6.109375 44.609375 11.75 
Q 48.6875 17.390625 48.6875 27.296875 
z
" id="DejaVuSans-112"/>
       <path d="M 9.421875 75.984375 
L 18.40625 75.984375 
L 18.40625 0 
L 9.421875 0 
z
" id="DejaVuSans-108"/>
       <path d="M 34.28125 27.484375 
Q 23.390625 27.484375 19.1875 25 
Q 14.984375 22.515625 14.984375 16.5 
Q 14.984375 11.71875 18.140625 8.90625 
Q 21.296875 6.109375 26.703125 6.109375 
Q 34.1875 6.109375 38.703125 11.40625 
Q 43.21875 16.703125 43.21875 25.484375 
L 43.21875 27.484375 
z
M 52.203125 31.203125 
L 52.203125 0 
L 43.21875 0 
L 43.21875 8.296875 
Q 40.140625 3.328125 35.546875 0.953125 
Q 30.953125 -1.421875 24.3125 -1.421875 
Q 15.921875 -1.421875 10.953125 3.296875 
Q 6 8.015625 6 15.921875 
Q 6 25.140625 12.171875 29.828125 
Q 18.359375 34.515625 30.609375 34.515625 
L 43.21875 34.515625 
L 43.21875 35.40625 
Q 43.21875 41.609375 39.140625 45 
Q 35.0625 48.390625 27.6875 48.390625 
Q 23 48.390625 18.546875 47.265625 
Q 14.109375 46.140625 10.015625 43.890625 
L 10.015625 52.203125 
Q 14.9375 54.109375 19.578125 55.046875 
Q 24.21875 56 28.609375 56 
Q 40.484375 56 46.34375 49.84375 
Q 52.203125 43.703125 52.203125 31.203125 
z
" id="DejaVuSans-97"/>
       <path d="M 48.78125 52.59375 
L 48.78125 44.1875 
Q 44.96875 46.296875 41.140625 47.34375 
Q 37.3125 48.390625 33.40625 48.390625 
Q 24.65625 48.390625 19.8125 42.84375 
Q 14.984375 37.3125 14.984375 27.296875 
Q 14.984375 17.28125 19.8125 11.734375 
Q 24.65625 6.203125 33.40625 6.203125 
Q 37.3125 6.203125 41.140625 7.25 
Q 44.96875 8.296875 48.78125 10.40625 
L 48.78125 2.09375 
Q 45.015625 0.34375 40.984375 -0.53125 
Q 36.96875 -1.421875 32.421875 -1.421875 
Q 20.0625 -1.421875 12.78125 6.34375 
Q 5.515625 14.109375 5.515625 27.296875 
Q 5.515625 40.671875 12.859375 48.328125 
Q 20.21875 56 33.015625 56 
Q 37.15625 56 41.109375 55.140625 
Q 45.0625 54.296875 48.78125 52.59375 
z
" id="DejaVuSans-99"/>
       <path d="M 54.890625 33.015625 
L 54.890625 0 
L 45.90625 0 
L 45.90625 32.71875 
Q 45.90625 40.484375 42.875 44.328125 
Q 39.84375 48.1875 33.796875 48.1875 
Q 26.515625 48.1875 22.3125 43.546875 
Q 18.109375 38.921875 18.109375 30.90625 
L 18.109375 0 
L 9.078125 0 
L 9.078125 54.6875 
L 18.109375 54.6875 
L 18.109375 46.1875 
Q 21.34375 51.125 25.703125 53.5625 
Q 30.078125 56 35.796875 56 
Q 45.21875 56 50.046875 50.171875 
Q 54.890625 44.34375 54.890625 33.015625 
z
" id="DejaVuSans-110"/>
       <path d="M 18.3125 70.21875 
L 18.3125 54.6875 
L 36.8125 54.6875 
L 36.8125 47.703125 
L 18.3125 47.703125 
L 18.3125 18.015625 
Q 18.3125 11.328125 20.140625 9.421875 
Q 21.96875 7.515625 27.59375 7.515625 
L 36.8125 7.515625 
L 36.8125 0 
L 27.59375 0 
Q 17.1875 0 13.234375 3.875 
Q 9.28125 7.765625 9.28125 18.015625 
L 9.28125 47.703125 
L 2.6875 47.703125 
L 2.6875 54.6875 
L 9.28125 54.6875 
L 9.28125 70.21875 
z
" id="DejaVuSans-116"/>
       <path d="M 60.015625 54.6875 
L 34.90625 27.875 
L 50.296875 0 
L 39.984375 0 
L 28.421875 21.6875 
L 8.296875 0 
L -2.59375 0 
L 24.3125 28.8125 
L 10.015625 54.6875 
L 20.3125 54.6875 
L 30.8125 34.90625 
L 49.125 54.6875 
z
" id="DejaVuSans-Oblique-120"/>
      </defs>
      <use transform="translate(0 0.015625)" xlink:href="#DejaVuSans-68"/>
      <use transform="translate(77.001953 0.015625)" xlink:href="#DejaVuSans-105"/>
      <use transform="translate(104.785156 0.015625)" xlink:href="#DejaVuSans-115"/>
      <use transform="translate(156.884766 0.015625)" xlink:href="#DejaVuSans-112"/>
      <use transform="translate(220.361328 0.015625)" xlink:href="#DejaVuSans-108"/>
      <use transform="translate(248.144531 0.015625)" xlink:href="#DejaVuSans-97"/>
      <use transform="translate(309.423828 0.015625)" xlink:href="#DejaVuSans-99"/>
      <use transform="translate(364.404297 0.015625)" xlink:href="#DejaVuSans-101"/>
      <use transform="translate(425.927734 0.015625)" xlink:href="#DejaVuSans-109"/>
      <use transform="translate(523.339844 0.015625)" xlink:href="#DejaVuSans-101"/>
      <use transform="translate(584.863281 0.015625)" xlink:href="#DejaVuSans-110"/>
      <use transform="translate(648.242188 0.015625)" xlink:href="#DejaVuSans-116"/>
      <use transform="translate(687.451172 0.015625)" xlink:href="#DejaVuSans-44"/>
      <use transform="translate(719.238281 0.015625)" xlink:href="#DejaVuSans-32"/>
      <use transform="translate(751.025391 0.015625)" xlink:href="#DejaVuSans-Oblique-120"/>
     </g>
    </g>
   </g>
   <g id="line2d_14">
    <path clip-path="url(#p3ab05e594e)" d="M 56.590909 325.2 
L 56.590909 10.8 
" style="fill:none;stroke:#000000;stroke-dasharray:1.85,0.8;stroke-dashoffset:0;stroke-width:0.5;"/>
   </g>
   <g id="line2d_15">
    <path clip-path="url(#p3ab05e594e)" d="M 35.8 168.0332 
L 493.2 168.0332 
" style="fill:none;stroke:#000000;stroke-dasharray:1.85,0.8;stroke-dashoffset:0;stroke-width:0.5;"/>
   </g>
   <g id="line2d_16">
    <path clip-path="url(#p3ab05e594e)" d="M 56.590909 25.090909 
L 60.791093 25.44808 
L 64.991276 26.517806 
L 69.19146 28.294742 
L 73.391644 30.770009 
L 77.591827 33.931235 
L 81.792011 37.762624 
L 85.992195 42.245027 
L 90.192378 47.356046 
L 94.392562 53.070137 
L 98.592746 59.358746 
L 102.792929 66.190445 
L 106.993113 73.531094 
L 111.193297 81.344008 
L 115.39348 89.590144 
L 119.593664 98.228291 
L 123.793848 107.215282 
L 127.994031 116.506205 
L 132.194215 126.054629 
L 136.394399 135.812838 
L 140.594582 145.732064 
L 144.794766 155.762739 
L 148.994949 165.854734 
L 153.195133 175.957615 
L 157.395317 186.020896 
L 161.5955 195.994284 
L 165.795684 205.827939 
L 169.995868 215.472719 
L 174.196051 224.880424 
L 178.396235 234.00404 
L 182.596419 242.797973 
L 186.796602 251.218276 
L 190.996786 259.22287 
L 195.19697 266.771751 
L 199.397153 273.827196 
L 203.597337 280.353945 
L 207.797521 286.319382 
L 211.997704 291.693694 
L 216.197888 296.450025 
L 220.398072 300.564604 
L 224.598255 304.01687 
L 228.798439 306.78957 
L 232.998623 308.868848 
L 237.198806 310.244313 
L 241.39899 310.909091 
L 245.599174 310.85986 
L 249.799357 310.096866 
L 253.999541 308.623922 
L 258.199725 306.448389 
L 262.399908 303.581139 
L 266.600092 300.036501 
L 270.800275 295.832188 
L 275.000459 290.989212 
L 279.200643 285.531774 
L 283.400826 279.487149 
L 287.60101 272.885542 
L 291.801194 265.759946 
L 296.001377 258.145969 
L 300.201561 250.081662 
L 304.401745 241.607326 
L 308.601928 232.76531 
L 312.802112 223.5998 
L 317.002296 214.156602 
L 321.202479 204.482907 
L 325.402663 194.627058 
L 329.602847 184.638308 
L 333.80303 174.566576 
L 338.003214 164.462193 
L 342.203398 154.375657 
L 346.403581 144.357373 
L 350.603765 134.457406 
L 354.803949 124.725232 
L 359.004132 115.209485 
L 363.204316 105.95772 
L 367.4045 97.016171 
L 371.604683 88.429523 
L 375.804867 80.240687 
L 380.005051 72.490586 
L 384.205234 65.217951 
L 388.405418 58.459125 
L 392.605601 52.247886 
L 396.805785 46.615272 
L 401.005969 41.589434 
L 405.206152 37.195487 
L 409.406336 33.455389 
L 413.60652 30.387831 
L 417.806703 28.008143 
L 422.006887 26.328217 
L 426.207071 25.356449 
L 430.407254 25.097695 
L 434.607438 25.553248 
L 438.807622 26.720831 
L 443.007805 28.594609 
L 447.207989 31.165219 
L 451.408173 34.419814 
L 455.608356 38.342129 
L 459.80854 42.912564 
L 464.008724 48.108277 
L 468.208907 53.903304 
L 472.409091 60.268685 
" style="fill:none;stroke:#808080;stroke-dasharray:1.5,2.475;stroke-dashoffset:0;stroke-width:1.5;"/>
   </g>
   <g id="line2d_17">
    <path clip-path="url(#p3ab05e594e)" d="M 56.590909 25.090909 
L 60.791093 27.436164 
L 64.991276 30.408796 
L 69.19146 33.976661 
L 73.391644 38.10558 
L 77.591827 42.759563 
L 81.792011 47.901035 
L 85.992195 53.491068 
L 90.192378 59.489609 
L 94.392562 65.855708 
L 98.592746 72.547748 
L 102.792929 79.523664 
L 106.993113 86.741167 
L 111.193297 94.157957 
L 115.39348 101.73193 
L 119.593664 109.421384 
L 123.793848 117.185208 
L 127.994031 124.983074 
L 132.194215 132.775609 
L 136.394399 140.524565 
L 140.594582 148.192975 
L 144.794766 155.7453 
L 148.994949 163.147563 
L 153.195133 170.367475 
L 157.395317 177.374547 
L 161.5955 184.140187 
L 165.795684 190.63779 
L 169.995868 196.842816 
L 174.196051 202.732848 
L 178.396235 208.287647 
L 182.596419 213.489193 
L 186.796602 218.321705 
L 190.996786 222.771664 
L 195.19697 226.82781 
L 199.397153 230.481139 
L 203.597337 233.724883 
L 207.797521 236.554481 
L 211.997704 238.96754 
L 216.197888 240.963785 
L 220.398072 242.545003 
L 224.598255 243.714977 
L 228.798439 244.479411 
L 232.998623 244.845846 
L 237.198806 244.823575 
L 241.39899 244.423549 
L 245.599174 243.658273 
L 249.799357 242.541703 
L 253.999541 241.089137 
L 258.199725 239.317102 
L 262.399908 237.24324 
L 266.600092 234.886184 
L 270.800275 232.265448 
L 275.000459 229.401298 
L 279.200643 226.314634 
L 283.400826 223.02687 
L 287.60101 219.559816 
L 291.801194 215.935553 
L 296.001377 212.176326 
L 300.201561 208.304419 
L 304.401745 204.342055 
L 308.601928 200.311279 
L 312.802112 196.233861 
L 317.002296 192.131192 
L 321.202479 188.024193 
L 325.402663 183.93322 
L 329.602847 179.877985 
L 333.80303 175.877473 
L 338.003214 171.949869 
L 342.203398 168.112495 
L 346.403581 164.381741 
L 350.603765 160.773017 
L 354.803949 157.300702 
L 359.004132 153.978101 
L 363.204316 150.817412 
L 367.4045 147.829692 
L 371.604683 145.024841 
L 375.804867 142.411579 
L 380.005051 139.99744 
L 384.205234 137.788766 
L 388.405418 135.790711 
L 392.605601 134.007247 
L 396.805785 132.441177 
L 401.005969 131.094155 
L 405.206152 129.966711 
L 409.406336 129.058276 
L 413.60652 128.367219 
L 417.806703 127.890884 
L 422.006887 127.625629 
L 426.207071 127.566875 
L 430.407254 127.709154 
L 434.607438 128.046157 
L 438.807622 128.570795 
L 443.007805 129.275249 
L 447.207989 130.151035 
L 451.408173 131.189058 
L 455.608356 132.37968 
L 459.80854 133.712778 
L 464.008724 135.177812 
L 468.208907 136.763882 
L 472.409091 138.459799 
" style="fill:none;stroke:#000000;stroke-dasharray:1.5,2.475;stroke-dashoffset:0;stroke-width:1.5;"/>
   </g>
   <g id="line2d_18">
    <path clip-path="url(#p3ab05e594e)" d="M 56.590909 25.090909 
L 60.791093 34.848895 
L 64.991276 43.940751 
L 69.19146 52.411948 
L 73.391644 60.304858 
L 77.591827 67.658957 
L 81.792011 74.511026 
L 85.992195 80.895337 
L 90.192378 86.843822 
L 94.392562 92.386233 
L 98.592746 97.550289 
L 102.792929 102.36182 
L 106.993113 106.844891 
L 111.193297 111.021924 
L 115.39348 114.913811 
L 119.593664 118.540018 
L 123.793848 121.918681 
L 127.994031 125.066698 
L 132.194215 127.999816 
L 136.394399 130.732703 
L 140.594582 133.27903 
L 144.794766 135.651531 
L 148.994949 137.862072 
L 153.195133 139.921711 
L 157.395317 141.840748 
L 161.5955 143.628781 
L 165.795684 145.294754 
L 169.995868 146.846999 
L 174.196051 148.29328 
L 178.396235 149.64083 
L 182.596419 150.896389 
L 186.796602 152.066237 
L 190.996786 153.156225 
L 195.19697 154.171805 
L 199.397153 155.118056 
L 203.597337 155.999711 
L 207.797521 156.82118 
L 211.997704 157.586571 
L 216.197888 158.299712 
L 220.398072 158.964171 
L 224.598255 159.58327 
L 228.798439 160.160106 
L 232.998623 160.697565 
L 237.198806 161.198334 
L 241.39899 161.664917 
L 245.599174 162.099649 
L 249.799357 162.504705 
L 253.999541 162.882109 
L 258.199725 163.233749 
L 262.399908 163.561385 
L 266.600092 163.866654 
L 270.800275 164.151084 
L 275.000459 164.416098 
L 279.200643 164.66302 
L 283.400826 164.893086 
L 287.60101 165.107447 
L 291.801194 165.307174 
L 296.001377 165.493267 
L 300.201561 165.666656 
L 304.401745 165.828208 
L 308.601928 165.978733 
L 312.802112 166.118981 
L 317.002296 166.249656 
L 321.202479 166.37141 
L 325.402663 166.484852 
L 329.602847 166.590551 
L 333.80303 166.689033 
L 338.003214 166.780793 
L 342.203398 166.866289 
L 346.403581 166.945949 
L 350.603765 167.02017 
L 354.803949 167.089325 
L 359.004132 167.153759 
L 363.204316 167.213794 
L 367.4045 167.269731 
L 371.604683 167.321849 
L 375.804867 167.37041 
L 380.005051 167.415655 
L 384.205234 167.457812 
L 388.405418 167.497091 
L 392.605601 167.533689 
L 396.805785 167.567788 
L 401.005969 167.599559 
L 405.206152 167.629162 
L 409.406336 167.656744 
L 413.60652 167.682443 
L 417.806703 167.706387 
L 422.006887 167.728697 
L 426.207071 167.749484 
L 430.407254 167.768852 
L 434.607438 167.786898 
L 438.807622 167.803712 
L 443.007805 167.819378 
L 447.207989 167.833974 
L 451.408173 167.847575 
L 455.608356 167.860246 
L 459.80854 167.872053 
L 464.008724 167.883054 
L 468.208907 167.893304 
L 472.409091 167.902854 
" style="fill:none;stroke:#0000ff;stroke-linecap:square;stroke-width:1.5;"/>
   </g>
   <g id="line2d_19">
    <path clip-path="url(#p3ab05e594e)" d="M 56.590909 25.090909 
L 60.791093 25.127085 
L 64.991276 25.235575 
L 69.19146 25.416269 
L 73.391644 25.668985 
L 77.591827 25.993467 
L 81.792011 26.389387 
L 85.992195 26.856343 
L 90.192378 27.393863 
L 94.392562 28.001403 
L 98.592746 28.678347 
L 102.792929 29.424011 
L 106.993113 30.237639 
L 111.193297 31.118409 
L 115.39348 32.065427 
L 119.593664 33.077737 
L 123.793848 34.154312 
L 127.994031 35.294063 
L 132.194215 36.495837 
L 136.394399 37.758416 
L 140.594582 39.080523 
L 144.794766 40.460819 
L 148.994949 41.897907 
L 153.195133 43.390333 
L 157.395317 44.936584 
L 161.5955 46.535097 
L 165.795684 48.184252 
L 169.995868 49.882381 
L 174.196051 51.627764 
L 178.396235 53.418635 
L 182.596419 55.25318 
L 186.796602 57.129542 
L 190.996786 59.045823 
L 195.19697 61.000082 
L 199.397153 62.99034 
L 203.597337 65.014584 
L 207.797521 67.070763 
L 211.997704 69.156797 
L 216.197888 71.270574 
L 220.398072 73.409953 
L 224.598255 75.572769 
L 228.798439 77.756833 
L 232.998623 79.959934 
L 237.198806 82.179842 
L 241.39899 84.414308 
L 245.599174 86.661072 
L 249.799357 88.917859 
L 253.999541 91.182384 
L 258.199725 93.452355 
L 262.399908 95.725474 
L 266.600092 97.99944 
L 270.800275 100.271951 
L 275.000459 102.540706 
L 279.200643 104.803409 
L 283.400826 107.057769 
L 287.60101 109.301504 
L 291.801194 111.532343 
L 296.001377 113.748028 
L 300.201561 115.946315 
L 304.401745 118.124978 
L 308.601928 120.281814 
L 312.802112 122.414638 
L 317.002296 124.521291 
L 321.202479 126.59964 
L 325.402663 128.647582 
L 329.602847 130.663043 
L 333.80303 132.643984 
L 338.003214 134.588399 
L 342.203398 136.494319 
L 346.403581 138.359815 
L 350.603765 140.182999 
L 354.803949 141.962024 
L 359.004132 143.695091 
L 363.204316 145.380445 
L 367.4045 147.016379 
L 371.604683 148.601238 
L 375.804867 150.133417 
L 380.005051 151.611365 
L 384.205234 153.033586 
L 388.405418 154.39864 
L 392.605601 155.705145 
L 396.805785 156.95178 
L 401.005969 158.137281 
L 405.206152 159.260449 
L 409.406336 160.320146 
L 413.60652 161.315301 
L 417.806703 162.244905 
L 422.006887 163.108017 
L 426.207071 163.903765 
L 430.407254 164.631341 
L 434.607438 165.290011 
L 438.807622 165.879106 
L 443.007805 166.39803 
L 447.207989 166.846259 
L 451.408173 167.223339 
L 455.608356 167.528887 
L 459.80854 167.762595 
L 464.008724 167.924226 
L 468.208907 168.013616 
L 472.409091 168.030674 
" style="fill:none;stroke:#ffa500;stroke-dasharray:5.55,2.4;stroke-dashoffset:0;stroke-width:1.5;"/>
   </g>
   <g id="patch_3">
    <path d="M 35.8 325.2 
L 35.8 10.8 
" style="fill:none;stroke:#000000;stroke-linecap:square;stroke-linejoin:miter;stroke-width:0.8;"/>
   </g>
   <g id="patch_4">
    <path d="M 493.2 325.2 
L 493.2 10.8 
" style="fill:none;stroke:#000000;stroke-linecap:square;stroke-linejoin:miter;stroke-width:0.8;"/>
   </g>
   <g id="patch_5">
    <path d="M 35.8 325.2 
L 493.2 325.2 
" style="fill:none;stroke:#000000;stroke-linecap:square;stroke-linejoin:miter;stroke-width:0.8;"/>
   </g>
   <g id="patch_6">
    <path d="M 35.8 10.8 
L 493.2 10.8 
" style="fill:none;stroke:#000000;stroke-linecap:square;stroke-linejoin:miter;stroke-width:0.8;"/>
   </g>
   <g id="legend_1">
    <g id="patch_7">
     <path d="M 366.282812 320.2 
L 486.2 320.2 
Q 488.2 320.2 488.2 318.2 
L 488.2 260.4875 
Q 488.2 258.4875 486.2 258.4875 
L 366.282812 258.4875 
Q 364.282812 258.4875 364.282812 260.4875 
L 364.282812 318.2 
Q 364.282812 320.2 366.282812 320.2 
z
" style="fill:#ffffff;opacity:0.8;stroke:#cccccc;stroke-linejoin:miter;"/>
    </g>
    <g id="line2d_20">
     <path d="M 368.282812 266.585938 
L 388.282812 266.585938 
" style="fill:none;stroke:#808080;stroke-dasharray:1.5,2.475;stroke-dashoffset:0;stroke-width:1.5;"/>
    </g>
    <g id="line2d_21"/>
    <g id="text_3">
     <!-- No damping -->
     <g transform="translate(396.282812 270.085938)scale(0.1 -0.1)">
      <defs>
       <path d="M 9.8125 72.90625 
L 23.09375 72.90625 
L 55.421875 11.921875 
L 55.421875 72.90625 
L 64.984375 72.90625 
L 64.984375 0 
L 51.703125 0 
L 19.390625 60.984375 
L 19.390625 0 
L 9.8125 0 
z
" id="DejaVuSans-78"/>
       <path d="M 30.609375 48.390625 
Q 23.390625 48.390625 19.1875 42.75 
Q 14.984375 37.109375 14.984375 27.296875 
Q 14.984375 17.484375 19.15625 11.84375 
Q 23.34375 6.203125 30.609375 6.203125 
Q 37.796875 6.203125 41.984375 11.859375 
Q 46.1875 17.53125 46.1875 27.296875 
Q 46.1875 37.015625 41.984375 42.703125 
Q 37.796875 48.390625 30.609375 48.390625 
z
M 30.609375 56 
Q 42.328125 56 49.015625 48.375 
Q 55.71875 40.765625 55.71875 27.296875 
Q 55.71875 13.875 49.015625 6.21875 
Q 42.328125 -1.421875 30.609375 -1.421875 
Q 18.84375 -1.421875 12.171875 6.21875 
Q 5.515625 13.875 5.515625 27.296875 
Q 5.515625 40.765625 12.171875 48.375 
Q 18.84375 56 30.609375 56 
z
" id="DejaVuSans-111"/>
       <path d="M 45.40625 46.390625 
L 45.40625 75.984375 
L 54.390625 75.984375 
L 54.390625 0 
L 45.40625 0 
L 45.40625 8.203125 
Q 42.578125 3.328125 38.25 0.953125 
Q 33.9375 -1.421875 27.875 -1.421875 
Q 17.96875 -1.421875 11.734375 6.484375 
Q 5.515625 14.40625 5.515625 27.296875 
Q 5.515625 40.1875 11.734375 48.09375 
Q 17.96875 56 27.875 56 
Q 33.9375 56 38.25 53.625 
Q 42.578125 51.265625 45.40625 46.390625 
z
M 14.796875 27.296875 
Q 14.796875 17.390625 18.875 11.75 
Q 22.953125 6.109375 30.078125 6.109375 
Q 37.203125 6.109375 41.296875 11.75 
Q 45.40625 17.390625 45.40625 27.296875 
Q 45.40625 37.203125 41.296875 42.84375 
Q 37.203125 48.484375 30.078125 48.484375 
Q 22.953125 48.484375 18.875 42.84375 
Q 14.796875 37.203125 14.796875 27.296875 
z
" id="DejaVuSans-100"/>
       <path d="M 45.40625 27.984375 
Q 45.40625 37.75 41.375 43.109375 
Q 37.359375 48.484375 30.078125 48.484375 
Q 22.859375 48.484375 18.828125 43.109375 
Q 14.796875 37.75 14.796875 27.984375 
Q 14.796875 18.265625 18.828125 12.890625 
Q 22.859375 7.515625 30.078125 7.515625 
Q 37.359375 7.515625 41.375 12.890625 
Q 45.40625 18.265625 45.40625 27.984375 
z
M 54.390625 6.78125 
Q 54.390625 -7.171875 48.1875 -13.984375 
Q 42 -20.796875 29.203125 -20.796875 
Q 24.46875 -20.796875 20.265625 -20.09375 
Q 16.0625 -19.390625 12.109375 -17.921875 
L 12.109375 -9.1875 
Q 16.0625 -11.328125 19.921875 -12.34375 
Q 23.78125 -13.375 27.78125 -13.375 
Q 36.625 -13.375 41.015625 -8.765625 
Q 45.40625 -4.15625 45.40625 5.171875 
L 45.40625 9.625 
Q 42.625 4.78125 38.28125 2.390625 
Q 33.9375 0 27.875 0 
Q 17.828125 0 11.671875 7.65625 
Q 5.515625 15.328125 5.515625 27.984375 
Q 5.515625 40.671875 11.671875 48.328125 
Q 17.828125 56 27.875 56 
Q 33.9375 56 38.28125 53.609375 
Q 42.625 51.21875 45.40625 46.390625 
L 45.40625 54.6875 
L 54.390625 54.6875 
z
" id="DejaVuSans-103"/>
      </defs>
      <use xlink:href="#DejaVuSans-78"/>
      <use x="74.804688" xlink:href="#DejaVuSans-111"/>
      <use x="135.986328" xlink:href="#DejaVuSans-32"/>
      <use x="167.773438" xlink:href="#DejaVuSans-100"/>
      <use x="231.25" xlink:href="#DejaVuSans-97"/>
      <use x="292.529297" xlink:href="#DejaVuSans-109"/>
      <use x="389.941406" xlink:href="#DejaVuSans-112"/>
      <use x="453.417969" xlink:href="#DejaVuSans-105"/>
      <use x="481.201172" xlink:href="#DejaVuSans-110"/>
      <use x="544.580078" xlink:href="#DejaVuSans-103"/>
     </g>
    </g>
    <g id="line2d_22">
     <path d="M 368.282812 281.264063 
L 388.282812 281.264063 
" style="fill:none;stroke:#000000;stroke-dasharray:1.5,2.475;stroke-dashoffset:0;stroke-width:1.5;"/>
    </g>
    <g id="line2d_23"/>
    <g id="text_4">
     <!-- Light damping -->
     <g transform="translate(396.282812 284.764063)scale(0.1 -0.1)">
      <defs>
       <path d="M 9.8125 72.90625 
L 19.671875 72.90625 
L 19.671875 8.296875 
L 55.171875 8.296875 
L 55.171875 0 
L 9.8125 0 
z
" id="DejaVuSans-76"/>
       <path d="M 54.890625 33.015625 
L 54.890625 0 
L 45.90625 0 
L 45.90625 32.71875 
Q 45.90625 40.484375 42.875 44.328125 
Q 39.84375 48.1875 33.796875 48.1875 
Q 26.515625 48.1875 22.3125 43.546875 
Q 18.109375 38.921875 18.109375 30.90625 
L 18.109375 0 
L 9.078125 0 
L 9.078125 75.984375 
L 18.109375 75.984375 
L 18.109375 46.1875 
Q 21.34375 51.125 25.703125 53.5625 
Q 30.078125 56 35.796875 56 
Q 45.21875 56 50.046875 50.171875 
Q 54.890625 44.34375 54.890625 33.015625 
z
" id="DejaVuSans-104"/>
      </defs>
      <use xlink:href="#DejaVuSans-76"/>
      <use x="55.712891" xlink:href="#DejaVuSans-105"/>
      <use x="83.496094" xlink:href="#DejaVuSans-103"/>
      <use x="146.972656" xlink:href="#DejaVuSans-104"/>
      <use x="210.351562" xlink:href="#DejaVuSans-116"/>
      <use x="249.560547" xlink:href="#DejaVuSans-32"/>
      <use x="281.347656" xlink:href="#DejaVuSans-100"/>
      <use x="344.824219" xlink:href="#DejaVuSans-97"/>
      <use x="406.103516" xlink:href="#DejaVuSans-109"/>
      <use x="503.515625" xlink:href="#DejaVuSans-112"/>
      <use x="566.992188" xlink:href="#DejaVuSans-105"/>
      <use x="594.775391" xlink:href="#DejaVuSans-110"/>
      <use x="658.154297" xlink:href="#DejaVuSans-103"/>
     </g>
    </g>
    <g id="line2d_24">
     <path d="M 368.282812 295.942187 
L 388.282812 295.942187 
" style="fill:none;stroke:#0000ff;stroke-linecap:square;stroke-width:1.5;"/>
    </g>
    <g id="line2d_25"/>
    <g id="text_5">
     <!-- Critically damped -->
     <g transform="translate(396.282812 299.442187)scale(0.1 -0.1)">
      <defs>
       <path d="M 64.40625 67.28125 
L 64.40625 56.890625 
Q 59.421875 61.53125 53.78125 63.8125 
Q 48.140625 66.109375 41.796875 66.109375 
Q 29.296875 66.109375 22.65625 58.46875 
Q 16.015625 50.828125 16.015625 36.375 
Q 16.015625 21.96875 22.65625 14.328125 
Q 29.296875 6.6875 41.796875 6.6875 
Q 48.140625 6.6875 53.78125 8.984375 
Q 59.421875 11.28125 64.40625 15.921875 
L 64.40625 5.609375 
Q 59.234375 2.09375 53.4375 0.328125 
Q 47.65625 -1.421875 41.21875 -1.421875 
Q 24.65625 -1.421875 15.125 8.703125 
Q 5.609375 18.84375 5.609375 36.375 
Q 5.609375 53.953125 15.125 64.078125 
Q 24.65625 74.21875 41.21875 74.21875 
Q 47.75 74.21875 53.53125 72.484375 
Q 59.328125 70.75 64.40625 67.28125 
z
" id="DejaVuSans-67"/>
       <path d="M 41.109375 46.296875 
Q 39.59375 47.171875 37.8125 47.578125 
Q 36.03125 48 33.890625 48 
Q 26.265625 48 22.1875 43.046875 
Q 18.109375 38.09375 18.109375 28.8125 
L 18.109375 0 
L 9.078125 0 
L 9.078125 54.6875 
L 18.109375 54.6875 
L 18.109375 46.1875 
Q 20.953125 51.171875 25.484375 53.578125 
Q 30.03125 56 36.53125 56 
Q 37.453125 56 38.578125 55.875 
Q 39.703125 55.765625 41.0625 55.515625 
z
" id="DejaVuSans-114"/>
       <path d="M 32.171875 -5.078125 
Q 28.375 -14.84375 24.75 -17.8125 
Q 21.140625 -20.796875 15.09375 -20.796875 
L 7.90625 -20.796875 
L 7.90625 -13.28125 
L 13.1875 -13.28125 
Q 16.890625 -13.28125 18.9375 -11.515625 
Q 21 -9.765625 23.484375 -3.21875 
L 25.09375 0.875 
L 2.984375 54.6875 
L 12.5 54.6875 
L 29.59375 11.921875 
L 46.6875 54.6875 
L 56.203125 54.6875 
z
" id="DejaVuSans-121"/>
      </defs>
      <use xlink:href="#DejaVuSans-67"/>
      <use x="69.824219" xlink:href="#DejaVuSans-114"/>
      <use x="110.9375" xlink:href="#DejaVuSans-105"/>
      <use x="138.720703" xlink:href="#DejaVuSans-116"/>
      <use x="177.929688" xlink:href="#DejaVuSans-105"/>
      <use x="205.712891" xlink:href="#DejaVuSans-99"/>
      <use x="260.693359" xlink:href="#DejaVuSans-97"/>
      <use x="321.972656" xlink:href="#DejaVuSans-108"/>
      <use x="349.755859" xlink:href="#DejaVuSans-108"/>
      <use x="377.539062" xlink:href="#DejaVuSans-121"/>
      <use x="436.71875" xlink:href="#DejaVuSans-32"/>
      <use x="468.505859" xlink:href="#DejaVuSans-100"/>
      <use x="531.982422" xlink:href="#DejaVuSans-97"/>
      <use x="593.261719" xlink:href="#DejaVuSans-109"/>
      <use x="690.673828" xlink:href="#DejaVuSans-112"/>
      <use x="754.150391" xlink:href="#DejaVuSans-101"/>
      <use x="815.673828" xlink:href="#DejaVuSans-100"/>
     </g>
    </g>
    <g id="line2d_26">
     <path d="M 368.282812 310.620313 
L 388.282812 310.620313 
" style="fill:none;stroke:#ffa500;stroke-dasharray:5.55,2.4;stroke-dashoffset:0;stroke-width:1.5;"/>
    </g>
    <g id="line2d_27"/>
    <g id="text_6">
     <!-- Overdamped -->
     <g transform="translate(396.282812 314.120313)scale(0.1 -0.1)">
      <defs>
       <path d="M 39.40625 66.21875 
Q 28.65625 66.21875 22.328125 58.203125 
Q 16.015625 50.203125 16.015625 36.375 
Q 16.015625 22.609375 22.328125 14.59375 
Q 28.65625 6.59375 39.40625 6.59375 
Q 50.140625 6.59375 56.421875 14.59375 
Q 62.703125 22.609375 62.703125 36.375 
Q 62.703125 50.203125 56.421875 58.203125 
Q 50.140625 66.21875 39.40625 66.21875 
z
M 39.40625 74.21875 
Q 54.734375 74.21875 63.90625 63.9375 
Q 73.09375 53.65625 73.09375 36.375 
Q 73.09375 19.140625 63.90625 8.859375 
Q 54.734375 -1.421875 39.40625 -1.421875 
Q 24.03125 -1.421875 14.8125 8.828125 
Q 5.609375 19.09375 5.609375 36.375 
Q 5.609375 53.65625 14.8125 63.9375 
Q 24.03125 74.21875 39.40625 74.21875 
z
" id="DejaVuSans-79"/>
       <path d="M 2.984375 54.6875 
L 12.5 54.6875 
L 29.59375 8.796875 
L 46.6875 54.6875 
L 56.203125 54.6875 
L 35.6875 0 
L 23.484375 0 
z
" id="DejaVuSans-118"/>
      </defs>
      <use xlink:href="#DejaVuSans-79"/>
      <use x="78.710938" xlink:href="#DejaVuSans-118"/>
      <use x="137.890625" xlink:href="#DejaVuSans-101"/>
      <use x="199.414062" xlink:href="#DejaVuSans-114"/>
      <use x="238.777344" xlink:href="#DejaVuSans-100"/>
      <use x="302.253906" xlink:href="#DejaVuSans-97"/>
      <use x="363.533203" xlink:href="#DejaVuSans-109"/>
      <use x="460.945312" xlink:href="#DejaVuSans-112"/>
      <use x="524.421875" xlink:href="#DejaVuSans-101"/>
      <use x="585.945312" xlink:href="#DejaVuSans-100"/>
     </g>
    </g>
   </g>
  </g>
 </g>
 <defs>
  <clipPath id="p3ab05e594e">
   <rect height="314.4" width="457.4" x="35.8" y="10.8"/>
  </clipPath>
 </defs>
</svg>
