<?xml version="1.0" encoding="utf-8" standalone="no"?>
<!DOCTYPE svg PUBLIC "-//W3C//DTD SVG 1.1//EN"
  "http://www.w3.org/Graphics/SVG/1.1/DTD/svg11.dtd">
<!-- Created with matplotlib (https://matplotlib.org/) -->
<svg height="360pt" version="1.1" viewBox="0 0 504 360" width="504pt" xmlns="http://www.w3.org/2000/svg" xmlns:xlink="http://www.w3.org/1999/xlink">
 <metadata>
  <rdf:RDF xmlns:cc="http://creativecommons.org/ns#" xmlns:dc="http://purl.org/dc/elements/1.1/" xmlns:rdf="http://www.w3.org/1999/02/22-rdf-syntax-ns#">
   <cc:Work>
    <dc:type rdf:resource="http://purl.org/dc/dcmitype/StillImage"/>
    <dc:date>2024-01-19T16:18:33.062683</dc:date>
    <dc:format>image/svg+xml</dc:format>
    <dc:creator>
     <cc:Agent>
      <dc:title>Matplotlib v3.3.2, https://matplotlib.org/</dc:title>
     </cc:Agent>
    </dc:creator>
   </cc:Work>
  </rdf:RDF>
 </metadata>
 <defs>
  <style type="text/css">*{stroke-linecap:butt;stroke-linejoin:round;}</style>
 </defs>
 <g id="figure_1">
  <g id="patch_1">
   <path d="M 0 360 
L 504 360 
L 504 0 
L 0 0 
z
" style="fill:none;"/>
  </g>
  <g id="axes_1">
   <g id="patch_2">
    <path d="M 35.8 325.2 
L 493.2 325.2 
L 493.2 10.8 
L 35.8 10.8 
z
" style="fill:none;"/>
   </g>
   <g id="matplotlib.axis_1">
    <g id="xtick_1">
     <g id="line2d_1">
      <defs>
       <path d="M 0 0 
L 0 3.5 
" id="m53563ede9d" style="stroke:#000000;stroke-width:0.8;"/>
      </defs>
      <g>
       <use style="stroke:#000000;stroke-width:0.8;" x="35.8" xlink:href="#m53563ede9d" y="325.2"/>
      </g>
     </g>
    </g>
    <g id="xtick_2">
     <g id="line2d_2">
      <g>
       <use style="stroke:#000000;stroke-width:0.8;" x="93.575771" xlink:href="#m53563ede9d" y="325.2"/>
      </g>
     </g>
    </g>
    <g id="xtick_3">
     <g id="line2d_3">
      <g>
       <use style="stroke:#000000;stroke-width:0.8;" x="151.351541" xlink:href="#m53563ede9d" y="325.2"/>
      </g>
     </g>
    </g>
    <g id="xtick_4">
     <g id="line2d_4">
      <g>
       <use style="stroke:#000000;stroke-width:0.8;" x="209.127312" xlink:href="#m53563ede9d" y="325.2"/>
      </g>
     </g>
    </g>
    <g id="xtick_5">
     <g id="line2d_5">
      <g>
       <use style="stroke:#000000;stroke-width:0.8;" x="266.903082" xlink:href="#m53563ede9d" y="325.2"/>
      </g>
     </g>
    </g>
    <g id="xtick_6">
     <g id="line2d_6">
      <g>
       <use style="stroke:#000000;stroke-width:0.8;" x="324.678853" xlink:href="#m53563ede9d" y="325.2"/>
      </g>
     </g>
    </g>
    <g id="xtick_7">
     <g id="line2d_7">
      <g>
       <use style="stroke:#000000;stroke-width:0.8;" x="382.454624" xlink:href="#m53563ede9d" y="325.2"/>
      </g>
     </g>
    </g>
    <g id="xtick_8">
     <g id="line2d_8">
      <g>
       <use style="stroke:#000000;stroke-width:0.8;" x="440.230394" xlink:href="#m53563ede9d" y="325.2"/>
      </g>
     </g>
    </g>
    <g id="text_1">
     <!-- Time, $t$ -->
     <g transform="translate(246.95 343.798437)scale(0.1 -0.1)">
      <defs>
       <path d="M -0.296875 72.90625 
L 61.375 72.90625 
L 61.375 64.59375 
L 35.5 64.59375 
L 35.5 0 
L 25.59375 0 
L 25.59375 64.59375 
L -0.296875 64.59375 
z
" id="DejaVuSans-84"/>
       <path d="M 9.421875 54.6875 
L 18.40625 54.6875 
L 18.40625 0 
L 9.421875 0 
z
M 9.421875 75.984375 
L 18.40625 75.984375 
L 18.40625 64.59375 
L 9.421875 64.59375 
z
" id="DejaVuSans-105"/>
       <path d="M 52 44.1875 
Q 55.375 50.25 60.0625 53.125 
Q 64.75 56 71.09375 56 
Q 79.640625 56 84.28125 50.015625 
Q 88.921875 44.046875 88.921875 33.015625 
L 88.921875 0 
L 79.890625 0 
L 79.890625 32.71875 
Q 79.890625 40.578125 77.09375 44.375 
Q 74.3125 48.1875 68.609375 48.1875 
Q 61.625 48.1875 57.5625 43.546875 
Q 53.515625 38.921875 53.515625 30.90625 
L 53.515625 0 
L 44.484375 0 
L 44.484375 32.71875 
Q 44.484375 40.625 41.703125 44.40625 
Q 38.921875 48.1875 33.109375 48.1875 
Q 26.21875 48.1875 22.15625 43.53125 
Q 18.109375 38.875 18.109375 30.90625 
L 18.109375 0 
L 9.078125 0 
L 9.078125 54.6875 
L 18.109375 54.6875 
L 18.109375 46.1875 
Q 21.1875 51.21875 25.484375 53.609375 
Q 29.78125 56 35.6875 56 
Q 41.65625 56 45.828125 52.96875 
Q 50 49.953125 52 44.1875 
z
" id="DejaVuSans-109"/>
       <path d="M 56.203125 29.59375 
L 56.203125 25.203125 
L 14.890625 25.203125 
Q 15.484375 15.921875 20.484375 11.0625 
Q 25.484375 6.203125 34.421875 6.203125 
Q 39.59375 6.203125 44.453125 7.46875 
Q 49.3125 8.734375 54.109375 11.28125 
L 54.109375 2.78125 
Q 49.265625 0.734375 44.1875 -0.34375 
Q 39.109375 -1.421875 33.890625 -1.421875 
Q 20.796875 -1.421875 13.15625 6.1875 
Q 5.515625 13.8125 5.515625 26.8125 
Q 5.515625 40.234375 12.765625 48.109375 
Q 20.015625 56 32.328125 56 
Q 43.359375 56 49.78125 48.890625 
Q 56.203125 41.796875 56.203125 29.59375 
z
M 47.21875 32.234375 
Q 47.125 39.59375 43.09375 43.984375 
Q 39.0625 48.390625 32.421875 48.390625 
Q 24.90625 48.390625 20.390625 44.140625 
Q 15.875 39.890625 15.1875 32.171875 
z
" id="DejaVuSans-101"/>
       <path d="M 11.71875 12.40625 
L 22.015625 12.40625 
L 22.015625 4 
L 14.015625 -11.625 
L 7.71875 -11.625 
L 11.71875 4 
z
" id="DejaVuSans-44"/>
       <path id="DejaVuSans-32"/>
       <path d="M 42.28125 54.6875 
L 40.921875 47.703125 
L 23 47.703125 
L 17.1875 18.015625 
Q 16.890625 16.359375 16.75 15.234375 
Q 16.609375 14.109375 16.609375 13.484375 
Q 16.609375 10.359375 18.484375 8.9375 
Q 20.359375 7.515625 24.515625 7.515625 
L 33.59375 7.515625 
L 32.078125 0 
L 23.484375 0 
Q 15.484375 0 11.546875 3.125 
Q 7.625 6.25 7.625 12.59375 
Q 7.625 13.71875 7.765625 15.0625 
Q 7.90625 16.40625 8.203125 18.015625 
L 14.015625 47.703125 
L 6.390625 47.703125 
L 7.8125 54.6875 
L 15.28125 54.6875 
L 18.3125 70.21875 
L 27.296875 70.21875 
L 24.3125 54.6875 
z
" id="DejaVuSans-Oblique-116"/>
      </defs>
      <use transform="translate(0 0.015625)" xlink:href="#DejaVuSans-84"/>
      <use transform="translate(61.083984 0.015625)" xlink:href="#DejaVuSans-105"/>
      <use transform="translate(88.867188 0.015625)" xlink:href="#DejaVuSans-109"/>
      <use transform="translate(186.279297 0.015625)" xlink:href="#DejaVuSans-101"/>
      <use transform="translate(247.802734 0.015625)" xlink:href="#DejaVuSans-44"/>
      <use transform="translate(279.589844 0.015625)" xlink:href="#DejaVuSans-32"/>
      <use transform="translate(311.376953 0.015625)" xlink:href="#DejaVuSans-Oblique-116"/>
     </g>
    </g>
   </g>
   <g id="matplotlib.axis_2">
    <g id="ytick_1">
     <g id="line2d_9">
      <defs>
       <path d="M 0 0 
L -3.5 0 
" id="m6958819c59" style="stroke:#000000;stroke-width:0.8;"/>
      </defs>
      <g>
       <use style="stroke:#000000;stroke-width:0.8;" x="35.8" xlink:href="#m6958819c59" y="282.327273"/>
      </g>
     </g>
    </g>
    <g id="ytick_2">
     <g id="line2d_10">
      <g>
       <use style="stroke:#000000;stroke-width:0.8;" x="35.8" xlink:href="#m6958819c59" y="225.163636"/>
      </g>
     </g>
    </g>
    <g id="ytick_3">
     <g id="line2d_11">
      <g>
       <use style="stroke:#000000;stroke-width:0.8;" x="35.8" xlink:href="#m6958819c59" y="168"/>
      </g>
     </g>
    </g>
    <g id="ytick_4">
     <g id="line2d_12">
      <g>
       <use style="stroke:#000000;stroke-width:0.8;" x="35.8" xlink:href="#m6958819c59" y="110.836364"/>
      </g>
     </g>
    </g>
    <g id="ytick_5">
     <g id="line2d_13">
      <g>
       <use style="stroke:#000000;stroke-width:0.8;" x="35.8" xlink:href="#m6958819c59" y="53.672727"/>
      </g>
     </g>
    </g>
    <g id="text_2">
     <!-- Displacement, $y$ -->
     <g transform="translate(22.7 208.55)rotate(-90)scale(0.1 -0.1)">
      <defs>
       <path d="M 19.671875 64.796875 
L 19.671875 8.109375 
L 31.59375 8.109375 
Q 46.6875 8.109375 53.6875 14.9375 
Q 60.6875 21.78125 60.6875 36.53125 
Q 60.6875 51.171875 53.6875 57.984375 
Q 46.6875 64.796875 31.59375 64.796875 
z
M 9.8125 72.90625 
L 30.078125 72.90625 
Q 51.265625 72.90625 61.171875 64.09375 
Q 71.09375 55.28125 71.09375 36.53125 
Q 71.09375 17.671875 61.125 8.828125 
Q 51.171875 0 30.078125 0 
L 9.8125 0 
z
" id="DejaVuSans-68"/>
       <path d="M 44.28125 53.078125 
L 44.28125 44.578125 
Q 40.484375 46.53125 36.375 47.5 
Q 32.28125 48.484375 27.875 48.484375 
Q 21.1875 48.484375 17.84375 46.4375 
Q 14.5 44.390625 14.5 40.28125 
Q 14.5 37.15625 16.890625 35.375 
Q 19.28125 33.59375 26.515625 31.984375 
L 29.59375 31.296875 
Q 39.15625 29.25 43.1875 25.515625 
Q 47.21875 21.78125 47.21875 15.09375 
Q 47.21875 7.46875 41.1875 3.015625 
Q 35.15625 -1.421875 24.609375 -1.421875 
Q 20.21875 -1.421875 15.453125 -0.5625 
Q 10.6875 0.296875 5.421875 2 
L 5.421875 11.28125 
Q 10.40625 8.6875 15.234375 7.390625 
Q 20.0625 6.109375 24.8125 6.109375 
Q 31.15625 6.109375 34.5625 8.28125 
Q 37.984375 10.453125 37.984375 14.40625 
Q 37.984375 18.0625 35.515625 20.015625 
Q 33.0625 21.96875 24.703125 23.78125 
L 21.578125 24.515625 
Q 13.234375 26.265625 9.515625 29.90625 
Q 5.8125 33.546875 5.8125 39.890625 
Q 5.8125 47.609375 11.28125 51.796875 
Q 16.75 56 26.8125 56 
Q 31.78125 56 36.171875 55.265625 
Q 40.578125 54.546875 44.28125 53.078125 
z
" id="DejaVuSans-115"/>
       <path d="M 18.109375 8.203125 
L 18.109375 -20.796875 
L 9.078125 -20.796875 
L 9.078125 54.6875 
L 18.109375 54.6875 
L 18.109375 46.390625 
Q 20.953125 51.265625 25.265625 53.625 
Q 29.59375 56 35.59375 56 
Q 45.5625 56 51.78125 48.09375 
Q 58.015625 40.1875 58.015625 27.296875 
Q 58.015625 14.40625 51.78125 6.484375 
Q 45.5625 -1.421875 35.59375 -1.421875 
Q 29.59375 -1.421875 25.265625 0.953125 
Q 20.953125 3.328125 18.109375 8.203125 
z
M 48.6875 27.296875 
Q 48.6875 37.203125 44.609375 42.84375 
Q 40.53125 48.484375 33.40625 48.484375 
Q 26.265625 48.484375 22.1875 42.84375 
Q 18.109375 37.203125 18.109375 27.296875 
Q 18.109375 17.390625 22.1875 11.75 
Q 26.265625 6.109375 33.40625 6.109375 
Q 40.53125 6.109375 44.609375 11.75 
Q 48.6875 17.390625 48.6875 27.296875 
z
" id="DejaVuSans-112"/>
       <path d="M 9.421875 75.984375 
L 18.40625 75.984375 
L 18.40625 0 
L 9.421875 0 
z
" id="DejaVuSans-108"/>
       <path d="M 34.28125 27.484375 
Q 23.390625 27.484375 19.1875 25 
Q 14.984375 22.515625 14.984375 16.5 
Q 14.984375 11.71875 18.140625 8.90625 
Q 21.296875 6.109375 26.703125 6.109375 
Q 34.1875 6.109375 38.703125 11.40625 
Q 43.21875 16.703125 43.21875 25.484375 
L 43.21875 27.484375 
z
M 52.203125 31.203125 
L 52.203125 0 
L 43.21875 0 
L 43.21875 8.296875 
Q 40.140625 3.328125 35.546875 0.953125 
Q 30.953125 -1.421875 24.3125 -1.421875 
Q 15.921875 -1.421875 10.953125 3.296875 
Q 6 8.015625 6 15.921875 
Q 6 25.140625 12.171875 29.828125 
Q 18.359375 34.515625 30.609375 34.515625 
L 43.21875 34.515625 
L 43.21875 35.40625 
Q 43.21875 41.609375 39.140625 45 
Q 35.0625 48.390625 27.6875 48.390625 
Q 23 48.390625 18.546875 47.265625 
Q 14.109375 46.140625 10.015625 43.890625 
L 10.015625 52.203125 
Q 14.9375 54.109375 19.578125 55.046875 
Q 24.21875 56 28.609375 56 
Q 40.484375 56 46.34375 49.84375 
Q 52.203125 43.703125 52.203125 31.203125 
z
" id="DejaVuSans-97"/>
       <path d="M 48.78125 52.59375 
L 48.78125 44.1875 
Q 44.96875 46.296875 41.140625 47.34375 
Q 37.3125 48.390625 33.40625 48.390625 
Q 24.65625 48.390625 19.8125 42.84375 
Q 14.984375 37.3125 14.984375 27.296875 
Q 14.984375 17.28125 19.8125 11.734375 
Q 24.65625 6.203125 33.40625 6.203125 
Q 37.3125 6.203125 41.140625 7.25 
Q 44.96875 8.296875 48.78125 10.40625 
L 48.78125 2.09375 
Q 45.015625 0.34375 40.984375 -0.53125 
Q 36.96875 -1.421875 32.421875 -1.421875 
Q 20.0625 -1.421875 12.78125 6.34375 
Q 5.515625 14.109375 5.515625 27.296875 
Q 5.515625 40.671875 12.859375 48.328125 
Q 20.21875 56 33.015625 56 
Q 37.15625 56 41.109375 55.140625 
Q 45.0625 54.296875 48.78125 52.59375 
z
" id="DejaVuSans-99"/>
       <path d="M 54.890625 33.015625 
L 54.890625 0 
L 45.90625 0 
L 45.90625 32.71875 
Q 45.90625 40.484375 42.875 44.328125 
Q 39.84375 48.1875 33.796875 48.1875 
Q 26.515625 48.1875 22.3125 43.546875 
Q 18.109375 38.921875 18.109375 30.90625 
L 18.109375 0 
L 9.078125 0 
L 9.078125 54.6875 
L 18.109375 54.6875 
L 18.109375 46.1875 
Q 21.34375 51.125 25.703125 53.5625 
Q 30.078125 56 35.796875 56 
Q 45.21875 56 50.046875 50.171875 
Q 54.890625 44.34375 54.890625 33.015625 
z
" id="DejaVuSans-110"/>
       <path d="M 18.3125 70.21875 
L 18.3125 54.6875 
L 36.8125 54.6875 
L 36.8125 47.703125 
L 18.3125 47.703125 
L 18.3125 18.015625 
Q 18.3125 11.328125 20.140625 9.421875 
Q 21.96875 7.515625 27.59375 7.515625 
L 36.8125 7.515625 
L 36.8125 0 
L 27.59375 0 
Q 17.1875 0 13.234375 3.875 
Q 9.28125 7.765625 9.28125 18.015625 
L 9.28125 47.703125 
L 2.6875 47.703125 
L 2.6875 54.6875 
L 9.28125 54.6875 
L 9.28125 70.21875 
z
" id="DejaVuSans-116"/>
       <path d="M 24.8125 -5.078125 
Q 18.5625 -15.578125 14.625 -18.1875 
Q 10.6875 -20.796875 4.59375 -20.796875 
L -2.484375 -20.796875 
L -0.984375 -13.28125 
L 4.203125 -13.28125 
Q 7.953125 -13.28125 10.59375 -11.234375 
Q 13.234375 -9.1875 16.5 -3.21875 
L 19.28125 2 
L 7.171875 54.6875 
L 16.703125 54.6875 
L 25.78125 12.796875 
L 50.875 54.6875 
L 60.296875 54.6875 
z
" id="DejaVuSans-Oblique-121"/>
      </defs>
      <use transform="translate(0 0.015625)" xlink:href="#DejaVuSans-68"/>
      <use transform="translate(77.001953 0.015625)" xlink:href="#DejaVuSans-105"/>
      <use transform="translate(104.785156 0.015625)" xlink:href="#DejaVuSans-115"/>
      <use transform="translate(156.884766 0.015625)" xlink:href="#DejaVuSans-112"/>
      <use transform="translate(220.361328 0.015625)" xlink:href="#DejaVuSans-108"/>
      <use transform="translate(248.144531 0.015625)" xlink:href="#DejaVuSans-97"/>
      <use transform="translate(309.423828 0.015625)" xlink:href="#DejaVuSans-99"/>
      <use transform="translate(364.404297 0.015625)" xlink:href="#DejaVuSans-101"/>
      <use transform="translate(425.927734 0.015625)" xlink:href="#DejaVuSans-109"/>
      <use transform="translate(523.339844 0.015625)" xlink:href="#DejaVuSans-101"/>
      <use transform="translate(584.863281 0.015625)" xlink:href="#DejaVuSans-110"/>
      <use transform="translate(648.242188 0.015625)" xlink:href="#DejaVuSans-116"/>
      <use transform="translate(687.451172 0.015625)" xlink:href="#DejaVuSans-44"/>
      <use transform="translate(719.238281 0.015625)" xlink:href="#DejaVuSans-32"/>
      <use transform="translate(751.025391 0.015625)" xlink:href="#DejaVuSans-Oblique-121"/>
     </g>
    </g>
   </g>
   <g id="line2d_14">
    <path clip-path="url(#pf0ba06acc7)" d="M 35.8 325.2 
L 35.8 10.8 
" style="fill:none;stroke:#000000;stroke-dasharray:1.85,0.8;stroke-dashoffset:0;stroke-width:0.5;"/>
   </g>
   <g id="line2d_15">
    <path clip-path="url(#pf0ba06acc7)" d="M 35.8 168 
L 493.2 168 
" style="fill:none;stroke:#000000;stroke-dasharray:1.85,0.8;stroke-dashoffset:0;stroke-width:0.5;"/>
   </g>
   <g id="line2d_16">
    <path clip-path="url(#pf0ba06acc7)" d="M 35.8 25.090909 
L 37.98904 28.97081 
L 40.178081 37.718013 
L 42.367121 50.930365 
L 44.556162 68.054599 
L 46.745202 88.408831 
L 48.934243 111.209202 
L 57.690404 209.339551 
L 59.879445 231.20697 
L 62.068485 250.418099 
L 64.257526 266.340157 
L 66.446566 278.469111 
L 68.635607 286.445164 
L 70.824647 290.062837 
L 73.013687 289.275374 
L 75.202728 284.193421 
L 77.391768 275.078145 
L 79.580809 262.329128 
L 81.769849 246.46757 
L 83.95889 228.115488 
L 86.14793 207.971723 
L 92.715051 144.371205 
L 94.904092 124.645645 
L 97.093132 106.830761 
L 99.282173 91.523711 
L 101.471213 79.221338 
L 103.660254 70.304395 
L 105.849294 65.026196 
L 108.038335 63.506007 
L 110.227375 65.727321 
L 112.416415 71.540996 
L 114.605456 80.673041 
L 116.794496 92.736695 
L 118.983537 107.248288 
L 121.172577 123.646242 
L 125.550658 159.595499 
L 129.928739 195.380898 
L 132.117779 211.625543 
L 134.30682 226.015198 
L 136.49586 238.073369 
L 138.684901 247.415347 
L 140.873941 253.760154 
L 143.062982 256.938587 
L 145.252022 256.897127 
L 147.441062 253.697672 
L 149.630103 247.513169 
L 151.819143 238.619391 
L 154.008184 227.3832 
L 156.197224 214.247809 
L 158.386265 199.715597 
L 167.142426 138.65094 
L 169.331467 125.374235 
L 171.520507 113.861298 
L 173.709548 104.488118 
L 175.898588 97.547596 
L 178.087629 93.240699 
L 180.276669 91.671041 
L 182.465709 92.843028 
L 184.65475 96.663569 
L 186.84379 102.947204 
L 189.032831 111.424436 
L 191.221871 121.752879 
L 193.410912 133.530793 
L 197.788993 159.624917 
L 202.167073 185.917489 
L 204.356114 197.9705 
L 206.545154 208.732385 
L 208.734195 217.844972 
L 210.923235 225.015416 
L 213.112276 230.025377 
L 215.301316 232.737378 
L 217.490357 233.098179 
L 219.679397 231.139081 
L 221.868437 226.973232 
L 224.057478 220.790069 
L 226.246518 212.847154 
L 228.435559 203.459745 
L 230.624599 192.988512 
L 239.380761 148.282576 
L 241.569801 138.401017 
L 243.758842 129.756633 
L 245.947882 122.633368 
L 248.136923 117.255785 
L 250.325963 113.782208 
L 252.515004 112.300332 
L 254.704044 112.825437 
L 256.893084 115.301199 
L 259.082125 119.603044 
L 261.271165 125.543845 
L 263.460206 132.881752 
L 265.649246 141.329809 
L 270.027327 160.250292 
L 274.405408 179.548675 
L 276.594448 188.481075 
L 278.783489 196.518099 
L 280.972529 203.390968 
L 283.16157 208.877318 
L 285.35061 212.808221 
L 287.539651 215.07319 
L 289.728691 215.623008 
L 291.917732 214.470323 
L 294.106772 211.688044 
L 296.295812 207.405614 
L 298.484853 201.803351 
L 300.673893 195.105089 
L 302.862934 187.569404 
L 307.241015 171.134046 
L 311.619095 154.87244 
L 313.808136 147.527168 
L 315.997176 141.047196 
L 318.186217 135.64654 
L 320.375257 131.496844 
L 322.564298 128.722084 
L 324.753338 127.395055 
L 326.942379 127.53574 
L 329.131419 129.111598 
L 331.320459 132.039701 
L 333.5095 136.19063 
L 335.69854 141.393943 
L 337.887581 147.445001 
L 340.076621 154.112883 
L 348.832783 181.911732 
L 351.021823 187.905454 
L 353.210864 193.079399 
L 355.399904 197.265106 
L 357.588945 200.332389 
L 359.777985 202.193248 
L 361.967026 202.804201 
L 364.156066 202.166994 
L 366.345106 200.327692 
L 368.534147 197.37421 
L 370.723187 193.432401 
L 372.912228 188.660877 
L 375.101268 183.244754 
L 379.479349 171.308697 
L 383.85743 159.35474 
L 386.04647 153.901496 
L 388.235511 149.051549 
L 390.424551 144.965908 
L 392.613592 141.775408 
L 394.802632 139.576616 
L 396.991673 138.429052 
L 399.180713 138.353765 
L 401.369754 139.333308 
L 403.558794 141.313079 
L 405.747834 144.203963 
L 407.936875 147.886139 
L 410.125915 152.213919 
L 412.314956 157.02141 
L 421.071117 177.383333 
L 423.260158 181.847241 
L 425.449198 185.735347 
L 427.638239 188.9203 
L 429.827279 191.302125 
L 432.01632 192.811261 
L 434.20536 193.41046 
L 436.394401 193.095507 
L 438.583441 191.894748 
L 440.772481 189.867472 
L 442.961522 187.101225 
L 445.150562 183.708167 
L 447.339603 179.820627 
L 451.717684 171.161323 
L 456.095765 162.382854 
L 458.284805 158.339124 
L 460.473845 154.714557 
L 462.662886 151.630079 
L 464.851926 149.185155 
L 467.040967 147.454659 
L 469.230007 146.486673 
L 471.419048 146.301284 
L 471.419048 146.301284 
" style="fill:none;stroke:#0000ff;stroke-linecap:square;stroke-width:1.5;"/>
   </g>
   <g id="line2d_17">
    <path clip-path="url(#pf0ba06acc7)" d="M 35.8 25.090909 
L 46.745202 31.701408 
L 57.690404 38.006128 
L 68.635607 44.019212 
L 79.580809 49.754151 
L 90.526011 55.22381 
L 101.471213 60.440462 
L 112.416415 65.415808 
L 123.361618 70.161011 
L 134.30682 74.686718 
L 145.252022 79.00308 
L 158.386265 83.919982 
L 171.520507 88.565236 
L 184.65475 92.953849 
L 197.788993 97.1 
L 210.923235 101.017084 
L 224.057478 104.717757 
L 237.191721 108.213975 
L 252.515004 112.049522 
L 267.838287 115.639002 
L 283.16157 118.9982 
L 298.484853 122.14189 
L 315.997176 125.488486 
L 333.5095 128.590857 
L 351.021823 131.466826 
L 368.534147 134.132914 
L 388.235511 136.900418 
L 407.936875 139.441771 
L 429.827279 142.022683 
L 451.717684 144.370348 
L 471.419048 146.301284 
L 471.419048 146.301284 
" style="fill:none;stroke:#ffa500;stroke-dasharray:5.55,2.4;stroke-dashoffset:0;stroke-width:1.5;"/>
   </g>
   <g id="line2d_18">
    <path clip-path="url(#pf0ba06acc7)" d="M 35.8 310.909091 
L 46.745202 304.298592 
L 57.690404 297.993872 
L 68.635607 291.980788 
L 79.580809 286.245849 
L 90.526011 280.77619 
L 101.471213 275.559538 
L 112.416415 270.584192 
L 123.361618 265.838989 
L 134.30682 261.313282 
L 145.252022 256.99692 
L 158.386265 252.080018 
L 171.520507 247.434764 
L 184.65475 243.046151 
L 197.788993 238.9 
L 210.923235 234.982916 
L 224.057478 231.282243 
L 237.191721 227.786025 
L 252.515004 223.950478 
L 267.838287 220.360998 
L 283.16157 217.0018 
L 298.484853 213.85811 
L 315.997176 210.511514 
L 333.5095 207.409143 
L 351.021823 204.533174 
L 368.534147 201.867086 
L 388.235511 199.099582 
L 407.936875 196.558229 
L 429.827279 193.977317 
L 451.717684 191.629652 
L 471.419048 189.698716 
L 471.419048 189.698716 
" style="fill:none;stroke:#ffa500;stroke-dasharray:5.55,2.4;stroke-dashoffset:0;stroke-width:1.5;"/>
   </g>
   <g id="line2d_19">
    <path clip-path="url(#pf0ba06acc7)" d="M 35.8 25.090909 
L 37.98904 27.64765 
L 40.178081 35.226389 
L 42.367121 47.555948 
L 44.556162 64.195159 
L 46.745202 84.548649 
L 48.934243 107.888141 
L 53.312324 160.107698 
L 57.690404 213.44674 
L 59.879445 238.148057 
L 62.068485 260.339382 
L 64.257526 279.226678 
L 66.446566 294.134133 
L 68.635607 304.528336 
L 70.824647 310.03737 
L 73.013687 310.464114 
L 75.202728 305.793297 
L 77.391768 296.19205 
L 79.580809 282.003916 
L 81.769849 263.736567 
L 83.95889 242.043634 
L 86.14793 217.701318 
L 90.526011 164.616179 
L 94.904092 112.011019 
L 97.093132 88.252586 
L 99.282173 67.347623 
L 101.471213 50.04414 
L 103.660254 36.961277 
L 105.849294 28.567158 
L 108.038335 25.162137 
L 110.227375 26.868048 
L 112.416415 33.623852 
L 114.605456 45.187818 
L 116.794496 61.14617 
L 118.983537 80.927898 
L 121.172577 103.825184 
L 123.361618 129.018733 
L 132.117779 234.182556 
L 134.30682 256.850151 
L 136.49586 276.338567 
L 138.684901 291.950482 
L 140.873941 303.12728 
L 143.062982 309.46904 
L 145.252022 310.748846 
L 147.441062 306.920903 
L 149.630103 298.122182 
L 151.819143 284.667512 
L 154.008184 267.03832 
L 156.197224 245.865402 
L 158.386265 221.906354 
L 162.764346 169.128034 
L 167.142426 116.189708 
L 169.331467 92.036016 
L 171.520507 70.600419 
L 173.709548 52.649912 
L 175.898588 38.826788 
L 178.087629 29.625657 
L 180.276669 25.375748 
L 182.465709 26.229129 
L 184.65475 32.155264 
L 186.84379 42.942109 
L 189.032831 58.203695 
L 191.221871 77.393943 
L 193.410912 99.826198 
L 195.599952 124.697805 
L 204.356114 230.151082 
L 206.545154 253.272352 
L 208.734195 273.342462 
L 210.923235 289.643275 
L 213.112276 301.591527 
L 215.301316 308.759691 
L 217.490357 310.891283 
L 219.679397 307.91003 
L 221.868437 299.922606 
L 224.057478 287.214812 
L 226.246518 270.241349 
L 228.435559 249.609552 
L 230.624599 226.057654 
L 235.00268 173.638764 
L 239.380761 120.420042 
L 241.569801 95.895169 
L 243.758842 73.950306 
L 245.947882 55.370668 
L 248.136923 40.821061 
L 250.325963 30.82209 
L 252.515004 25.73153 
L 254.704044 25.73153 
L 256.893084 30.82209 
L 259.082125 40.821061 
L 261.271165 55.370668 
L 263.460206 73.950306 
L 265.649246 95.895169 
L 267.838287 120.420042 
L 276.594448 226.057654 
L 278.783489 249.609552 
L 280.972529 270.241349 
L 283.16157 287.214812 
L 285.35061 299.922606 
L 287.539651 307.91003 
L 289.728691 310.891283 
L 291.917732 308.759691 
L 294.106772 301.591527 
L 296.295812 289.643275 
L 298.484853 273.342462 
L 300.673893 253.272352 
L 302.862934 230.151082 
L 305.051974 204.805961 
L 311.619095 124.697805 
L 313.808136 99.826198 
L 315.997176 77.393943 
L 318.186217 58.203695 
L 320.375257 42.942109 
L 322.564298 32.155264 
L 324.753338 26.229129 
L 326.942379 25.375748 
L 329.131419 29.625657 
L 331.320459 38.826788 
L 333.5095 52.649912 
L 335.69854 70.600419 
L 337.887581 92.036016 
L 340.076621 116.189708 
L 344.454702 169.128034 
L 348.832783 221.906354 
L 351.021823 245.865402 
L 353.210864 267.03832 
L 355.399904 284.667512 
L 357.588945 298.122182 
L 359.777985 306.920903 
L 361.967026 310.748846 
L 364.156066 309.46904 
L 366.345106 303.12728 
L 368.534147 291.950482 
L 370.723187 276.338567 
L 372.912228 256.850151 
L 375.101268 234.182556 
L 377.290309 209.146858 
L 386.04647 103.825184 
L 388.235511 80.927898 
L 390.424551 61.14617 
L 392.613592 45.187818 
L 394.802632 33.623852 
L 396.991673 26.868048 
L 399.180713 25.162137 
L 401.369754 28.567158 
L 403.558794 36.961277 
L 405.747834 50.04414 
L 407.936875 67.347623 
L 410.125915 88.252586 
L 412.314956 112.011019 
L 416.693037 164.616179 
L 421.071117 217.701318 
L 423.260158 242.043634 
L 425.449198 263.736567 
L 427.638239 282.003916 
L 429.827279 296.19205 
L 432.01632 305.793297 
L 434.20536 310.464114 
L 436.394401 310.03737 
L 438.583441 304.528336 
L 440.772481 294.134133 
L 442.961522 279.226678 
L 445.150562 260.339382 
L 447.339603 238.148057 
L 449.528643 213.44674 
L 458.284805 107.888141 
L 460.473845 84.548649 
L 462.662886 64.195159 
L 464.851926 47.555948 
L 467.040967 35.226389 
L 469.230007 27.64765 
L 471.419048 25.090909 
L 471.419048 25.090909 
" style="fill:none;stroke:#808080;stroke-dasharray:1.5,2.475;stroke-dashoffset:0;stroke-width:1.5;"/>
   </g>
   <g id="patch_3">
    <path d="M 35.8 325.2 
L 35.8 10.8 
" style="fill:none;stroke:#000000;stroke-linecap:square;stroke-linejoin:miter;stroke-width:0.8;"/>
   </g>
   <g id="patch_4">
    <path d="M 493.2 325.2 
L 493.2 10.8 
" style="fill:none;stroke:#000000;stroke-linecap:square;stroke-linejoin:miter;stroke-width:0.8;"/>
   </g>
   <g id="patch_5">
    <path d="M 35.8 325.2 
L 493.2 325.2 
" style="fill:none;stroke:#000000;stroke-linecap:square;stroke-linejoin:miter;stroke-width:0.8;"/>
   </g>
   <g id="patch_6">
    <path d="M 35.8 10.8 
L 493.2 10.8 
" style="fill:none;stroke:#000000;stroke-linecap:square;stroke-linejoin:miter;stroke-width:0.8;"/>
   </g>
  </g>
 </g>
 <defs>
  <clipPath id="pf0ba06acc7">
   <rect height="314.4" width="457.4" x="35.8" y="10.8"/>
  </clipPath>
 </defs>
</svg>
