<?xml version="1.0" encoding="utf-8" standalone="no"?>
<!DOCTYPE svg PUBLIC "-//W3C//DTD SVG 1.1//EN"
  "http://www.w3.org/Graphics/SVG/1.1/DTD/svg11.dtd">
<!-- Created with matplotlib (https://matplotlib.org/) -->
<svg height="216pt" version="1.1" viewBox="0 0 360 216" width="360pt" xmlns="http://www.w3.org/2000/svg" xmlns:xlink="http://www.w3.org/1999/xlink">
 <metadata>
  <rdf:RDF xmlns:cc="http://creativecommons.org/ns#" xmlns:dc="http://purl.org/dc/elements/1.1/" xmlns:rdf="http://www.w3.org/1999/02/22-rdf-syntax-ns#">
   <cc:Work>
    <dc:type rdf:resource="http://purl.org/dc/dcmitype/StillImage"/>
    <dc:date>2024-01-19T16:18:35.699727</dc:date>
    <dc:format>image/svg+xml</dc:format>
    <dc:creator>
     <cc:Agent>
      <dc:title>Matplotlib v3.3.2, https://matplotlib.org/</dc:title>
     </cc:Agent>
    </dc:creator>
   </cc:Work>
  </rdf:RDF>
 </metadata>
 <defs>
  <style type="text/css">*{stroke-linecap:butt;stroke-linejoin:round;}</style>
 </defs>
 <g id="figure_1">
  <g id="patch_1">
   <path d="M 0 216 
L 360 216 
L 360 0 
L 0 0 
z
" style="fill:none;"/>
  </g>
  <g id="axes_1">
   <g id="patch_2">
    <path d="M 28.8 188.2 
L 349.2 188.2 
L 349.2 10.8 
L 28.8 10.8 
z
" style="fill:none;"/>
   </g>
   <g id="matplotlib.axis_1">
    <g id="text_1">
     <!-- Time, $t$ -->
     <g transform="translate(171.45 199.798437)scale(0.1 -0.1)">
      <defs>
       <path d="M -0.296875 72.90625 
L 61.375 72.90625 
L 61.375 64.59375 
L 35.5 64.59375 
L 35.5 0 
L 25.59375 0 
L 25.59375 64.59375 
L -0.296875 64.59375 
z
" id="DejaVuSans-84"/>
       <path d="M 9.421875 54.6875 
L 18.40625 54.6875 
L 18.40625 0 
L 9.421875 0 
z
M 9.421875 75.984375 
L 18.40625 75.984375 
L 18.40625 64.59375 
L 9.421875 64.59375 
z
" id="DejaVuSans-105"/>
       <path d="M 52 44.1875 
Q 55.375 50.25 60.0625 53.125 
Q 64.75 56 71.09375 56 
Q 79.640625 56 84.28125 50.015625 
Q 88.921875 44.046875 88.921875 33.015625 
L 88.921875 0 
L 79.890625 0 
L 79.890625 32.71875 
Q 79.890625 40.578125 77.09375 44.375 
Q 74.3125 48.1875 68.609375 48.1875 
Q 61.625 48.1875 57.5625 43.546875 
Q 53.515625 38.921875 53.515625 30.90625 
L 53.515625 0 
L 44.484375 0 
L 44.484375 32.71875 
Q 44.484375 40.625 41.703125 44.40625 
Q 38.921875 48.1875 33.109375 48.1875 
Q 26.21875 48.1875 22.15625 43.53125 
Q 18.109375 38.875 18.109375 30.90625 
L 18.109375 0 
L 9.078125 0 
L 9.078125 54.6875 
L 18.109375 54.6875 
L 18.109375 46.1875 
Q 21.1875 51.21875 25.484375 53.609375 
Q 29.78125 56 35.6875 56 
Q 41.65625 56 45.828125 52.96875 
Q 50 49.953125 52 44.1875 
z
" id="DejaVuSans-109"/>
       <path d="M 56.203125 29.59375 
L 56.203125 25.203125 
L 14.890625 25.203125 
Q 15.484375 15.921875 20.484375 11.0625 
Q 25.484375 6.203125 34.421875 6.203125 
Q 39.59375 6.203125 44.453125 7.46875 
Q 49.3125 8.734375 54.109375 11.28125 
L 54.109375 2.78125 
Q 49.265625 0.734375 44.1875 -0.34375 
Q 39.109375 -1.421875 33.890625 -1.421875 
Q 20.796875 -1.421875 13.15625 6.1875 
Q 5.515625 13.8125 5.515625 26.8125 
Q 5.515625 40.234375 12.765625 48.109375 
Q 20.015625 56 32.328125 56 
Q 43.359375 56 49.78125 48.890625 
Q 56.203125 41.796875 56.203125 29.59375 
z
M 47.21875 32.234375 
Q 47.125 39.59375 43.09375 43.984375 
Q 39.0625 48.390625 32.421875 48.390625 
Q 24.90625 48.390625 20.390625 44.140625 
Q 15.875 39.890625 15.1875 32.171875 
z
" id="DejaVuSans-101"/>
       <path d="M 11.71875 12.40625 
L 22.015625 12.40625 
L 22.015625 4 
L 14.015625 -11.625 
L 7.71875 -11.625 
L 11.71875 4 
z
" id="DejaVuSans-44"/>
       <path id="DejaVuSans-32"/>
       <path d="M 42.28125 54.6875 
L 40.921875 47.703125 
L 23 47.703125 
L 17.1875 18.015625 
Q 16.890625 16.359375 16.75 15.234375 
Q 16.609375 14.109375 16.609375 13.484375 
Q 16.609375 10.359375 18.484375 8.9375 
Q 20.359375 7.515625 24.515625 7.515625 
L 33.59375 7.515625 
L 32.078125 0 
L 23.484375 0 
Q 15.484375 0 11.546875 3.125 
Q 7.625 6.25 7.625 12.59375 
Q 7.625 13.71875 7.765625 15.0625 
Q 7.90625 16.40625 8.203125 18.015625 
L 14.015625 47.703125 
L 6.390625 47.703125 
L 7.8125 54.6875 
L 15.28125 54.6875 
L 18.3125 70.21875 
L 27.296875 70.21875 
L 24.3125 54.6875 
z
" id="DejaVuSans-Oblique-116"/>
      </defs>
      <use transform="translate(0 0.015625)" xlink:href="#DejaVuSans-84"/>
      <use transform="translate(61.083984 0.015625)" xlink:href="#DejaVuSans-105"/>
      <use transform="translate(88.867188 0.015625)" xlink:href="#DejaVuSans-109"/>
      <use transform="translate(186.279297 0.015625)" xlink:href="#DejaVuSans-101"/>
      <use transform="translate(247.802734 0.015625)" xlink:href="#DejaVuSans-44"/>
      <use transform="translate(279.589844 0.015625)" xlink:href="#DejaVuSans-32"/>
      <use transform="translate(311.376953 0.015625)" xlink:href="#DejaVuSans-Oblique-116"/>
     </g>
    </g>
   </g>
   <g id="matplotlib.axis_2">
    <g id="text_2">
     <!-- Displacement, $y$ -->
     <g transform="translate(22.7 140.05)rotate(-90)scale(0.1 -0.1)">
      <defs>
       <path d="M 19.671875 64.796875 
L 19.671875 8.109375 
L 31.59375 8.109375 
Q 46.6875 8.109375 53.6875 14.9375 
Q 60.6875 21.78125 60.6875 36.53125 
Q 60.6875 51.171875 53.6875 57.984375 
Q 46.6875 64.796875 31.59375 64.796875 
z
M 9.8125 72.90625 
L 30.078125 72.90625 
Q 51.265625 72.90625 61.171875 64.09375 
Q 71.09375 55.28125 71.09375 36.53125 
Q 71.09375 17.671875 61.125 8.828125 
Q 51.171875 0 30.078125 0 
L 9.8125 0 
z
" id="DejaVuSans-68"/>
       <path d="M 44.28125 53.078125 
L 44.28125 44.578125 
Q 40.484375 46.53125 36.375 47.5 
Q 32.28125 48.484375 27.875 48.484375 
Q 21.1875 48.484375 17.84375 46.4375 
Q 14.5 44.390625 14.5 40.28125 
Q 14.5 37.15625 16.890625 35.375 
Q 19.28125 33.59375 26.515625 31.984375 
L 29.59375 31.296875 
Q 39.15625 29.25 43.1875 25.515625 
Q 47.21875 21.78125 47.21875 15.09375 
Q 47.21875 7.46875 41.1875 3.015625 
Q 35.15625 -1.421875 24.609375 -1.421875 
Q 20.21875 -1.421875 15.453125 -0.5625 
Q 10.6875 0.296875 5.421875 2 
L 5.421875 11.28125 
Q 10.40625 8.6875 15.234375 7.390625 
Q 20.0625 6.109375 24.8125 6.109375 
Q 31.15625 6.109375 34.5625 8.28125 
Q 37.984375 10.453125 37.984375 14.40625 
Q 37.984375 18.0625 35.515625 20.015625 
Q 33.0625 21.96875 24.703125 23.78125 
L 21.578125 24.515625 
Q 13.234375 26.265625 9.515625 29.90625 
Q 5.8125 33.546875 5.8125 39.890625 
Q 5.8125 47.609375 11.28125 51.796875 
Q 16.75 56 26.8125 56 
Q 31.78125 56 36.171875 55.265625 
Q 40.578125 54.546875 44.28125 53.078125 
z
" id="DejaVuSans-115"/>
       <path d="M 18.109375 8.203125 
L 18.109375 -20.796875 
L 9.078125 -20.796875 
L 9.078125 54.6875 
L 18.109375 54.6875 
L 18.109375 46.390625 
Q 20.953125 51.265625 25.265625 53.625 
Q 29.59375 56 35.59375 56 
Q 45.5625 56 51.78125 48.09375 
Q 58.015625 40.1875 58.015625 27.296875 
Q 58.015625 14.40625 51.78125 6.484375 
Q 45.5625 -1.421875 35.59375 -1.421875 
Q 29.59375 -1.421875 25.265625 0.953125 
Q 20.953125 3.328125 18.109375 8.203125 
z
M 48.6875 27.296875 
Q 48.6875 37.203125 44.609375 42.84375 
Q 40.53125 48.484375 33.40625 48.484375 
Q 26.265625 48.484375 22.1875 42.84375 
Q 18.109375 37.203125 18.109375 27.296875 
Q 18.109375 17.390625 22.1875 11.75 
Q 26.265625 6.109375 33.40625 6.109375 
Q 40.53125 6.109375 44.609375 11.75 
Q 48.6875 17.390625 48.6875 27.296875 
z
" id="DejaVuSans-112"/>
       <path d="M 9.421875 75.984375 
L 18.40625 75.984375 
L 18.40625 0 
L 9.421875 0 
z
" id="DejaVuSans-108"/>
       <path d="M 34.28125 27.484375 
Q 23.390625 27.484375 19.1875 25 
Q 14.984375 22.515625 14.984375 16.5 
Q 14.984375 11.71875 18.140625 8.90625 
Q 21.296875 6.109375 26.703125 6.109375 
Q 34.1875 6.109375 38.703125 11.40625 
Q 43.21875 16.703125 43.21875 25.484375 
L 43.21875 27.484375 
z
M 52.203125 31.203125 
L 52.203125 0 
L 43.21875 0 
L 43.21875 8.296875 
Q 40.140625 3.328125 35.546875 0.953125 
Q 30.953125 -1.421875 24.3125 -1.421875 
Q 15.921875 -1.421875 10.953125 3.296875 
Q 6 8.015625 6 15.921875 
Q 6 25.140625 12.171875 29.828125 
Q 18.359375 34.515625 30.609375 34.515625 
L 43.21875 34.515625 
L 43.21875 35.40625 
Q 43.21875 41.609375 39.140625 45 
Q 35.0625 48.390625 27.6875 48.390625 
Q 23 48.390625 18.546875 47.265625 
Q 14.109375 46.140625 10.015625 43.890625 
L 10.015625 52.203125 
Q 14.9375 54.109375 19.578125 55.046875 
Q 24.21875 56 28.609375 56 
Q 40.484375 56 46.34375 49.84375 
Q 52.203125 43.703125 52.203125 31.203125 
z
" id="DejaVuSans-97"/>
       <path d="M 48.78125 52.59375 
L 48.78125 44.1875 
Q 44.96875 46.296875 41.140625 47.34375 
Q 37.3125 48.390625 33.40625 48.390625 
Q 24.65625 48.390625 19.8125 42.84375 
Q 14.984375 37.3125 14.984375 27.296875 
Q 14.984375 17.28125 19.8125 11.734375 
Q 24.65625 6.203125 33.40625 6.203125 
Q 37.3125 6.203125 41.140625 7.25 
Q 44.96875 8.296875 48.78125 10.40625 
L 48.78125 2.09375 
Q 45.015625 0.34375 40.984375 -0.53125 
Q 36.96875 -1.421875 32.421875 -1.421875 
Q 20.0625 -1.421875 12.78125 6.34375 
Q 5.515625 14.109375 5.515625 27.296875 
Q 5.515625 40.671875 12.859375 48.328125 
Q 20.21875 56 33.015625 56 
Q 37.15625 56 41.109375 55.140625 
Q 45.0625 54.296875 48.78125 52.59375 
z
" id="DejaVuSans-99"/>
       <path d="M 54.890625 33.015625 
L 54.890625 0 
L 45.90625 0 
L 45.90625 32.71875 
Q 45.90625 40.484375 42.875 44.328125 
Q 39.84375 48.1875 33.796875 48.1875 
Q 26.515625 48.1875 22.3125 43.546875 
Q 18.109375 38.921875 18.109375 30.90625 
L 18.109375 0 
L 9.078125 0 
L 9.078125 54.6875 
L 18.109375 54.6875 
L 18.109375 46.1875 
Q 21.34375 51.125 25.703125 53.5625 
Q 30.078125 56 35.796875 56 
Q 45.21875 56 50.046875 50.171875 
Q 54.890625 44.34375 54.890625 33.015625 
z
" id="DejaVuSans-110"/>
       <path d="M 18.3125 70.21875 
L 18.3125 54.6875 
L 36.8125 54.6875 
L 36.8125 47.703125 
L 18.3125 47.703125 
L 18.3125 18.015625 
Q 18.3125 11.328125 20.140625 9.421875 
Q 21.96875 7.515625 27.59375 7.515625 
L 36.8125 7.515625 
L 36.8125 0 
L 27.59375 0 
Q 17.1875 0 13.234375 3.875 
Q 9.28125 7.765625 9.28125 18.015625 
L 9.28125 47.703125 
L 2.6875 47.703125 
L 2.6875 54.6875 
L 9.28125 54.6875 
L 9.28125 70.21875 
z
" id="DejaVuSans-116"/>
       <path d="M 24.8125 -5.078125 
Q 18.5625 -15.578125 14.625 -18.1875 
Q 10.6875 -20.796875 4.59375 -20.796875 
L -2.484375 -20.796875 
L -0.984375 -13.28125 
L 4.203125 -13.28125 
Q 7.953125 -13.28125 10.59375 -11.234375 
Q 13.234375 -9.1875 16.5 -3.21875 
L 19.28125 2 
L 7.171875 54.6875 
L 16.703125 54.6875 
L 25.78125 12.796875 
L 50.875 54.6875 
L 60.296875 54.6875 
z
" id="DejaVuSans-Oblique-121"/>
      </defs>
      <use transform="translate(0 0.015625)" xlink:href="#DejaVuSans-68"/>
      <use transform="translate(77.001953 0.015625)" xlink:href="#DejaVuSans-105"/>
      <use transform="translate(104.785156 0.015625)" xlink:href="#DejaVuSans-115"/>
      <use transform="translate(156.884766 0.015625)" xlink:href="#DejaVuSans-112"/>
      <use transform="translate(220.361328 0.015625)" xlink:href="#DejaVuSans-108"/>
      <use transform="translate(248.144531 0.015625)" xlink:href="#DejaVuSans-97"/>
      <use transform="translate(309.423828 0.015625)" xlink:href="#DejaVuSans-99"/>
      <use transform="translate(364.404297 0.015625)" xlink:href="#DejaVuSans-101"/>
      <use transform="translate(425.927734 0.015625)" xlink:href="#DejaVuSans-109"/>
      <use transform="translate(523.339844 0.015625)" xlink:href="#DejaVuSans-101"/>
      <use transform="translate(584.863281 0.015625)" xlink:href="#DejaVuSans-110"/>
      <use transform="translate(648.242188 0.015625)" xlink:href="#DejaVuSans-116"/>
      <use transform="translate(687.451172 0.015625)" xlink:href="#DejaVuSans-44"/>
      <use transform="translate(719.238281 0.015625)" xlink:href="#DejaVuSans-32"/>
      <use transform="translate(751.025391 0.015625)" xlink:href="#DejaVuSans-Oblique-121"/>
     </g>
    </g>
   </g>
   <g id="line2d_1">
    <path clip-path="url(#p450a22a268)" d="M 28.8 188.2 
L 28.8 10.8 
" style="fill:none;stroke:#000000;stroke-linecap:square;"/>
   </g>
   <g id="line2d_2">
    <path clip-path="url(#p450a22a268)" d="M 28.8 99.5 
L 349.2 99.5 
" style="fill:none;stroke:#000000;stroke-linecap:square;"/>
   </g>
   <g id="line2d_3">
    <path clip-path="url(#p450a22a268)" d="M 28.8 18.863636 
L 30.333381 21.052868 
L 31.866762 25.988472 
L 33.400144 33.443533 
L 34.933525 43.105871 
L 36.466906 54.590733 
L 39.533668 81.21812 
L 44.133812 122.825815 
L 45.667193 135.164493 
L 47.200574 146.00436 
L 48.733955 154.988371 
L 50.267337 161.832126 
L 51.800718 166.332608 
L 53.334099 168.373878 
L 54.86748 167.929552 
L 56.400861 165.062064 
L 57.934243 159.918775 
L 59.467624 152.72515 
L 61.001005 143.775276 
L 62.534386 133.420126 
L 65.601149 110.099798 
L 68.667911 86.167467 
L 70.201292 75.037333 
L 71.734673 64.985296 
L 73.268055 56.348303 
L 74.801436 49.406696 
L 76.334817 44.375317 
L 77.868198 41.397097 
L 79.401579 40.539331 
L 80.934961 41.792706 
L 82.468342 45.073068 
L 84.001723 50.225819 
L 85.535104 57.032728 
L 87.068485 65.220885 
L 88.601866 74.47342 
L 96.268772 124.115685 
L 97.802154 132.235039 
L 99.335535 139.038854 
L 100.868916 144.310059 
L 102.402297 147.890112 
L 103.935678 149.683541 
L 105.46906 149.660148 
L 107.002441 147.854857 
L 108.535822 144.365255 
L 110.069203 139.346946 
L 111.602584 133.006933 
L 113.135966 125.595297 
L 116.202728 108.713712 
L 119.26949 91.174141 
L 120.802872 82.939812 
L 122.336253 75.448439 
L 123.869634 68.952272 
L 125.403015 63.663461 
L 126.936396 59.747276 
L 128.469777 57.317112 
L 130.003159 56.431433 
L 131.53654 57.092727 
L 133.069921 59.248464 
L 134.603302 62.794001 
L 136.136683 67.577274 
L 137.670065 73.405091 
L 139.203446 80.050772 
L 142.270208 94.774365 
L 145.336971 109.609932 
L 146.870352 116.410835 
L 148.403733 122.483222 
L 149.937114 127.624994 
L 151.470495 131.670912 
L 153.003877 134.497779 
L 154.537258 136.028024 
L 156.070639 136.231606 
L 157.60402 135.126186 
L 159.137401 132.775609 
L 160.670782 129.286763 
L 162.204164 124.804978 
L 163.737545 119.508139 
L 166.804307 107.301237 
L 171.404451 88.374456 
L 172.937832 82.798793 
L 174.471213 77.921205 
L 176.004594 73.901906 
L 177.537976 70.867609 
L 179.071357 68.907646 
L 180.604738 68.071498 
L 182.138119 68.367788 
L 183.6715 69.764735 
L 185.204882 72.192048 
L 186.738263 75.544142 
L 188.271644 79.684551 
L 189.805025 84.451362 
L 192.871788 95.127232 
L 195.93855 106.016332 
L 197.471931 111.056434 
L 199.005312 115.591319 
L 200.538693 119.469331 
L 202.072075 122.565001 
L 203.605456 124.78301 
L 205.138837 126.061018 
L 206.672218 126.371252 
L 208.205599 125.72085 
L 209.738981 124.150951 
L 211.272362 121.734593 
L 212.805743 118.573519 
L 214.339124 114.794029 
L 217.405887 105.977456 
L 222.00603 92.092783 
L 223.539411 87.948218 
L 225.072793 84.291898 
L 226.606174 81.24458 
L 228.139555 78.903117 
L 229.672936 77.337461 
L 231.206317 76.588685 
L 232.739698 76.668067 
L 234.27308 77.557244 
L 235.806461 79.209424 
L 237.339842 81.551583 
L 238.873223 84.487549 
L 240.406604 87.901855 
L 243.473367 95.634377 
L 246.540129 103.618797 
L 248.07351 107.349686 
L 249.606892 110.73164 
L 251.140273 113.651035 
L 252.673654 116.012817 
L 254.207035 117.74353 
L 255.740416 118.793519 
L 257.273798 119.138248 
L 258.807179 118.778705 
L 260.34056 117.74088 
L 261.873941 116.074379 
L 263.407322 113.850216 
L 264.940704 111.157887 
L 266.474085 108.101843 
L 274.140991 91.544928 
L 275.674372 88.808348 
L 277.207753 86.503028 
L 278.741134 84.70279 
L 280.274515 83.462123 
L 281.807897 82.814611 
L 283.341278 82.772131 
L 284.874659 83.324837 
L 286.40804 84.441922 
L 287.941421 86.073101 
L 289.474803 88.150767 
L 291.008184 90.592714 
L 294.074946 96.18717 
L 298.67509 104.79454 
L 300.208471 107.313297 
L 301.741852 109.507158 
L 303.275233 111.304266 
L 304.808615 112.648209 
L 306.341996 113.499738 
L 307.875377 113.837836 
L 309.408758 113.660124 
L 310.942139 112.982596 
L 312.47552 111.838707 
L 314.008902 110.277854 
L 315.542283 108.363323 
L 317.075664 106.169781 
L 320.142426 101.283775 
L 323.209189 96.330529 
L 324.74257 94.048857 
L 326.275951 92.003697 
L 327.809332 90.263282 
L 329.342714 88.883736 
L 330.876095 87.907305 
L 332.409476 87.361119 
L 333.942857 87.256513 
L 333.942857 87.256513 
" style="fill:none;stroke:#0000ff;stroke-linecap:square;stroke-width:1.5;"/>
   </g>
   <g id="line2d_4">
    <path clip-path="url(#p450a22a268)" d="M 28.8 18.863636 
L 38.000287 23.318635 
L 47.200574 27.527504 
L 56.400861 31.503841 
L 65.601149 35.260494 
L 76.334817 39.381753 
L 87.068485 43.238614 
L 97.802154 46.84804 
L 108.535822 50.225904 
L 119.26949 53.387063 
L 131.53654 56.752256 
L 143.803589 59.871866 
L 156.070639 62.763816 
L 168.337688 65.44472 
L 182.138119 68.227602 
L 195.93855 70.783077 
L 211.272362 73.378331 
L 226.606174 75.739042 
L 241.939986 77.886407 
L 258.807179 80.025052 
L 277.207753 82.117512 
L 295.608327 83.985151 
L 315.542283 85.782673 
L 333.942857 87.256513 
L 333.942857 87.256513 
" style="fill:none;stroke:#ffa500;stroke-dasharray:5.55,2.4;stroke-dashoffset:0;stroke-width:1.5;"/>
   </g>
   <g id="line2d_5">
    <path clip-path="url(#p450a22a268)" d="M 28.8 180.136364 
L 38.000287 175.681365 
L 47.200574 171.472496 
L 56.400861 167.496159 
L 65.601149 163.739506 
L 76.334817 159.618247 
L 87.068485 155.761386 
L 97.802154 152.15196 
L 108.535822 148.774096 
L 119.26949 145.612937 
L 131.53654 142.247744 
L 143.803589 139.128134 
L 156.070639 136.236184 
L 168.337688 133.55528 
L 182.138119 130.772398 
L 195.93855 128.216923 
L 211.272362 125.621669 
L 226.606174 123.260958 
L 241.939986 121.113593 
L 258.807179 118.974948 
L 277.207753 116.882488 
L 295.608327 115.014849 
L 315.542283 113.217327 
L 333.942857 111.743487 
L 333.942857 111.743487 
" style="fill:none;stroke:#ffa500;stroke-dasharray:5.55,2.4;stroke-dashoffset:0;stroke-width:1.5;"/>
   </g>
  </g>
 </g>
 <defs>
  <clipPath id="p450a22a268">
   <rect height="177.4" width="320.4" x="28.8" y="10.8"/>
  </clipPath>
 </defs>
</svg>
