<?xml version="1.0" encoding="utf-8" standalone="no"?>
<!DOCTYPE svg PUBLIC "-//W3C//DTD SVG 1.1//EN"
  "http://www.w3.org/Graphics/SVG/1.1/DTD/svg11.dtd">
<!-- Created with matplotlib (https://matplotlib.org/) -->
<svg height="360pt" version="1.1" viewBox="0 0 504 360" width="504pt" xmlns="http://www.w3.org/2000/svg" xmlns:xlink="http://www.w3.org/1999/xlink">
 <metadata>
  <rdf:RDF xmlns:cc="http://creativecommons.org/ns#" xmlns:dc="http://purl.org/dc/elements/1.1/" xmlns:rdf="http://www.w3.org/1999/02/22-rdf-syntax-ns#">
   <cc:Work>
    <dc:type rdf:resource="http://purl.org/dc/dcmitype/StillImage"/>
    <dc:date>2024-01-19T16:19:05.950780</dc:date>
    <dc:format>image/svg+xml</dc:format>
    <dc:creator>
     <cc:Agent>
      <dc:title>Matplotlib v3.3.2, https://matplotlib.org/</dc:title>
     </cc:Agent>
    </dc:creator>
   </cc:Work>
  </rdf:RDF>
 </metadata>
 <defs>
  <style type="text/css">*{stroke-linecap:butt;stroke-linejoin:round;}</style>
 </defs>
 <g id="figure_1">
  <g id="patch_1">
   <path d="M 0 360 
L 504 360 
L 504 0 
L 0 0 
z
" style="fill:none;"/>
  </g>
  <g id="axes_1">
   <g id="patch_2">
    <path d="M 35.8 326.2 
L 493.2 326.2 
L 493.2 10.8 
L 35.8 10.8 
z
" style="fill:none;"/>
   </g>
   <g id="matplotlib.axis_1">
    <g id="xtick_1">
     <g id="line2d_1">
      <defs>
       <path d="M 0 0 
L 0 3.5 
" id="m6603a022da" style="stroke:#000000;stroke-width:0.8;"/>
      </defs>
      <g>
       <use style="stroke:#000000;stroke-width:0.8;" x="35.8" xlink:href="#m6603a022da" y="326.2"/>
      </g>
     </g>
    </g>
    <g id="xtick_2">
     <g id="line2d_2">
      <g>
       <use style="stroke:#000000;stroke-width:0.8;" x="122.463656" xlink:href="#m6603a022da" y="326.2"/>
      </g>
     </g>
    </g>
    <g id="xtick_3">
     <g id="line2d_3">
      <g>
       <use style="stroke:#000000;stroke-width:0.8;" x="209.127312" xlink:href="#m6603a022da" y="326.2"/>
      </g>
     </g>
    </g>
    <g id="xtick_4">
     <g id="line2d_4">
      <g>
       <use style="stroke:#000000;stroke-width:0.8;" x="295.790968" xlink:href="#m6603a022da" y="326.2"/>
      </g>
     </g>
    </g>
    <g id="xtick_5">
     <g id="line2d_5">
      <g>
       <use style="stroke:#000000;stroke-width:0.8;" x="382.454624" xlink:href="#m6603a022da" y="326.2"/>
      </g>
     </g>
    </g>
    <g id="xtick_6">
     <g id="line2d_6">
      <g>
       <use style="stroke:#000000;stroke-width:0.8;" x="469.11828" xlink:href="#m6603a022da" y="326.2"/>
      </g>
     </g>
    </g>
    <g id="text_1">
     <!-- Time $t$ -->
     <g transform="translate(248.55 344.798437)scale(0.1 -0.1)">
      <defs>
       <path d="M -0.296875 72.90625 
L 61.375 72.90625 
L 61.375 64.59375 
L 35.5 64.59375 
L 35.5 0 
L 25.59375 0 
L 25.59375 64.59375 
L -0.296875 64.59375 
z
" id="DejaVuSans-84"/>
       <path d="M 9.421875 54.6875 
L 18.40625 54.6875 
L 18.40625 0 
L 9.421875 0 
z
M 9.421875 75.984375 
L 18.40625 75.984375 
L 18.40625 64.59375 
L 9.421875 64.59375 
z
" id="DejaVuSans-105"/>
       <path d="M 52 44.1875 
Q 55.375 50.25 60.0625 53.125 
Q 64.75 56 71.09375 56 
Q 79.640625 56 84.28125 50.015625 
Q 88.921875 44.046875 88.921875 33.015625 
L 88.921875 0 
L 79.890625 0 
L 79.890625 32.71875 
Q 79.890625 40.578125 77.09375 44.375 
Q 74.3125 48.1875 68.609375 48.1875 
Q 61.625 48.1875 57.5625 43.546875 
Q 53.515625 38.921875 53.515625 30.90625 
L 53.515625 0 
L 44.484375 0 
L 44.484375 32.71875 
Q 44.484375 40.625 41.703125 44.40625 
Q 38.921875 48.1875 33.109375 48.1875 
Q 26.21875 48.1875 22.15625 43.53125 
Q 18.109375 38.875 18.109375 30.90625 
L 18.109375 0 
L 9.078125 0 
L 9.078125 54.6875 
L 18.109375 54.6875 
L 18.109375 46.1875 
Q 21.1875 51.21875 25.484375 53.609375 
Q 29.78125 56 35.6875 56 
Q 41.65625 56 45.828125 52.96875 
Q 50 49.953125 52 44.1875 
z
" id="DejaVuSans-109"/>
       <path d="M 56.203125 29.59375 
L 56.203125 25.203125 
L 14.890625 25.203125 
Q 15.484375 15.921875 20.484375 11.0625 
Q 25.484375 6.203125 34.421875 6.203125 
Q 39.59375 6.203125 44.453125 7.46875 
Q 49.3125 8.734375 54.109375 11.28125 
L 54.109375 2.78125 
Q 49.265625 0.734375 44.1875 -0.34375 
Q 39.109375 -1.421875 33.890625 -1.421875 
Q 20.796875 -1.421875 13.15625 6.1875 
Q 5.515625 13.8125 5.515625 26.8125 
Q 5.515625 40.234375 12.765625 48.109375 
Q 20.015625 56 32.328125 56 
Q 43.359375 56 49.78125 48.890625 
Q 56.203125 41.796875 56.203125 29.59375 
z
M 47.21875 32.234375 
Q 47.125 39.59375 43.09375 43.984375 
Q 39.0625 48.390625 32.421875 48.390625 
Q 24.90625 48.390625 20.390625 44.140625 
Q 15.875 39.890625 15.1875 32.171875 
z
" id="DejaVuSans-101"/>
       <path id="DejaVuSans-32"/>
       <path d="M 42.28125 54.6875 
L 40.921875 47.703125 
L 23 47.703125 
L 17.1875 18.015625 
Q 16.890625 16.359375 16.75 15.234375 
Q 16.609375 14.109375 16.609375 13.484375 
Q 16.609375 10.359375 18.484375 8.9375 
Q 20.359375 7.515625 24.515625 7.515625 
L 33.59375 7.515625 
L 32.078125 0 
L 23.484375 0 
Q 15.484375 0 11.546875 3.125 
Q 7.625 6.25 7.625 12.59375 
Q 7.625 13.71875 7.765625 15.0625 
Q 7.90625 16.40625 8.203125 18.015625 
L 14.015625 47.703125 
L 6.390625 47.703125 
L 7.8125 54.6875 
L 15.28125 54.6875 
L 18.3125 70.21875 
L 27.296875 70.21875 
L 24.3125 54.6875 
z
" id="DejaVuSans-Oblique-116"/>
      </defs>
      <use transform="translate(0 0.015625)" xlink:href="#DejaVuSans-84"/>
      <use transform="translate(61.083984 0.015625)" xlink:href="#DejaVuSans-105"/>
      <use transform="translate(88.867188 0.015625)" xlink:href="#DejaVuSans-109"/>
      <use transform="translate(186.279297 0.015625)" xlink:href="#DejaVuSans-101"/>
      <use transform="translate(247.802734 0.015625)" xlink:href="#DejaVuSans-32"/>
      <use transform="translate(279.589844 0.015625)" xlink:href="#DejaVuSans-Oblique-116"/>
     </g>
    </g>
   </g>
   <g id="matplotlib.axis_2">
    <g id="ytick_1">
     <g id="line2d_7">
      <defs>
       <path d="M 0 0 
L -3.5 0 
" id="m05feae31b1" style="stroke:#000000;stroke-width:0.8;"/>
      </defs>
      <g>
       <use style="stroke:#000000;stroke-width:0.8;" x="35.8" xlink:href="#m05feae31b1" y="278.560064"/>
      </g>
     </g>
    </g>
    <g id="ytick_2">
     <g id="line2d_8">
      <g>
       <use style="stroke:#000000;stroke-width:0.8;" x="35.8" xlink:href="#m05feae31b1" y="223.530032"/>
      </g>
     </g>
    </g>
    <g id="ytick_3">
     <g id="line2d_9">
      <g>
       <use style="stroke:#000000;stroke-width:0.8;" x="35.8" xlink:href="#m05feae31b1" y="168.5"/>
      </g>
     </g>
    </g>
    <g id="ytick_4">
     <g id="line2d_10">
      <g>
       <use style="stroke:#000000;stroke-width:0.8;" x="35.8" xlink:href="#m05feae31b1" y="113.469968"/>
      </g>
     </g>
    </g>
    <g id="ytick_5">
     <g id="line2d_11">
      <g>
       <use style="stroke:#000000;stroke-width:0.8;" x="35.8" xlink:href="#m05feae31b1" y="58.439936"/>
      </g>
     </g>
    </g>
    <g id="text_2">
     <!-- Displacement, $x$ -->
     <g transform="translate(22.7 209.05)rotate(-90)scale(0.1 -0.1)">
      <defs>
       <path d="M 19.671875 64.796875 
L 19.671875 8.109375 
L 31.59375 8.109375 
Q 46.6875 8.109375 53.6875 14.9375 
Q 60.6875 21.78125 60.6875 36.53125 
Q 60.6875 51.171875 53.6875 57.984375 
Q 46.6875 64.796875 31.59375 64.796875 
z
M 9.8125 72.90625 
L 30.078125 72.90625 
Q 51.265625 72.90625 61.171875 64.09375 
Q 71.09375 55.28125 71.09375 36.53125 
Q 71.09375 17.671875 61.125 8.828125 
Q 51.171875 0 30.078125 0 
L 9.8125 0 
z
" id="DejaVuSans-68"/>
       <path d="M 44.28125 53.078125 
L 44.28125 44.578125 
Q 40.484375 46.53125 36.375 47.5 
Q 32.28125 48.484375 27.875 48.484375 
Q 21.1875 48.484375 17.84375 46.4375 
Q 14.5 44.390625 14.5 40.28125 
Q 14.5 37.15625 16.890625 35.375 
Q 19.28125 33.59375 26.515625 31.984375 
L 29.59375 31.296875 
Q 39.15625 29.25 43.1875 25.515625 
Q 47.21875 21.78125 47.21875 15.09375 
Q 47.21875 7.46875 41.1875 3.015625 
Q 35.15625 -1.421875 24.609375 -1.421875 
Q 20.21875 -1.421875 15.453125 -0.5625 
Q 10.6875 0.296875 5.421875 2 
L 5.421875 11.28125 
Q 10.40625 8.6875 15.234375 7.390625 
Q 20.0625 6.109375 24.8125 6.109375 
Q 31.15625 6.109375 34.5625 8.28125 
Q 37.984375 10.453125 37.984375 14.40625 
Q 37.984375 18.0625 35.515625 20.015625 
Q 33.0625 21.96875 24.703125 23.78125 
L 21.578125 24.515625 
Q 13.234375 26.265625 9.515625 29.90625 
Q 5.8125 33.546875 5.8125 39.890625 
Q 5.8125 47.609375 11.28125 51.796875 
Q 16.75 56 26.8125 56 
Q 31.78125 56 36.171875 55.265625 
Q 40.578125 54.546875 44.28125 53.078125 
z
" id="DejaVuSans-115"/>
       <path d="M 18.109375 8.203125 
L 18.109375 -20.796875 
L 9.078125 -20.796875 
L 9.078125 54.6875 
L 18.109375 54.6875 
L 18.109375 46.390625 
Q 20.953125 51.265625 25.265625 53.625 
Q 29.59375 56 35.59375 56 
Q 45.5625 56 51.78125 48.09375 
Q 58.015625 40.1875 58.015625 27.296875 
Q 58.015625 14.40625 51.78125 6.484375 
Q 45.5625 -1.421875 35.59375 -1.421875 
Q 29.59375 -1.421875 25.265625 0.953125 
Q 20.953125 3.328125 18.109375 8.203125 
z
M 48.6875 27.296875 
Q 48.6875 37.203125 44.609375 42.84375 
Q 40.53125 48.484375 33.40625 48.484375 
Q 26.265625 48.484375 22.1875 42.84375 
Q 18.109375 37.203125 18.109375 27.296875 
Q 18.109375 17.390625 22.1875 11.75 
Q 26.265625 6.109375 33.40625 6.109375 
Q 40.53125 6.109375 44.609375 11.75 
Q 48.6875 17.390625 48.6875 27.296875 
z
" id="DejaVuSans-112"/>
       <path d="M 9.421875 75.984375 
L 18.40625 75.984375 
L 18.40625 0 
L 9.421875 0 
z
" id="DejaVuSans-108"/>
       <path d="M 34.28125 27.484375 
Q 23.390625 27.484375 19.1875 25 
Q 14.984375 22.515625 14.984375 16.5 
Q 14.984375 11.71875 18.140625 8.90625 
Q 21.296875 6.109375 26.703125 6.109375 
Q 34.1875 6.109375 38.703125 11.40625 
Q 43.21875 16.703125 43.21875 25.484375 
L 43.21875 27.484375 
z
M 52.203125 31.203125 
L 52.203125 0 
L 43.21875 0 
L 43.21875 8.296875 
Q 40.140625 3.328125 35.546875 0.953125 
Q 30.953125 -1.421875 24.3125 -1.421875 
Q 15.921875 -1.421875 10.953125 3.296875 
Q 6 8.015625 6 15.921875 
Q 6 25.140625 12.171875 29.828125 
Q 18.359375 34.515625 30.609375 34.515625 
L 43.21875 34.515625 
L 43.21875 35.40625 
Q 43.21875 41.609375 39.140625 45 
Q 35.0625 48.390625 27.6875 48.390625 
Q 23 48.390625 18.546875 47.265625 
Q 14.109375 46.140625 10.015625 43.890625 
L 10.015625 52.203125 
Q 14.9375 54.109375 19.578125 55.046875 
Q 24.21875 56 28.609375 56 
Q 40.484375 56 46.34375 49.84375 
Q 52.203125 43.703125 52.203125 31.203125 
z
" id="DejaVuSans-97"/>
       <path d="M 48.78125 52.59375 
L 48.78125 44.1875 
Q 44.96875 46.296875 41.140625 47.34375 
Q 37.3125 48.390625 33.40625 48.390625 
Q 24.65625 48.390625 19.8125 42.84375 
Q 14.984375 37.3125 14.984375 27.296875 
Q 14.984375 17.28125 19.8125 11.734375 
Q 24.65625 6.203125 33.40625 6.203125 
Q 37.3125 6.203125 41.140625 7.25 
Q 44.96875 8.296875 48.78125 10.40625 
L 48.78125 2.09375 
Q 45.015625 0.34375 40.984375 -0.53125 
Q 36.96875 -1.421875 32.421875 -1.421875 
Q 20.0625 -1.421875 12.78125 6.34375 
Q 5.515625 14.109375 5.515625 27.296875 
Q 5.515625 40.671875 12.859375 48.328125 
Q 20.21875 56 33.015625 56 
Q 37.15625 56 41.109375 55.140625 
Q 45.0625 54.296875 48.78125 52.59375 
z
" id="DejaVuSans-99"/>
       <path d="M 54.890625 33.015625 
L 54.890625 0 
L 45.90625 0 
L 45.90625 32.71875 
Q 45.90625 40.484375 42.875 44.328125 
Q 39.84375 48.1875 33.796875 48.1875 
Q 26.515625 48.1875 22.3125 43.546875 
Q 18.109375 38.921875 18.109375 30.90625 
L 18.109375 0 
L 9.078125 0 
L 9.078125 54.6875 
L 18.109375 54.6875 
L 18.109375 46.1875 
Q 21.34375 51.125 25.703125 53.5625 
Q 30.078125 56 35.796875 56 
Q 45.21875 56 50.046875 50.171875 
Q 54.890625 44.34375 54.890625 33.015625 
z
" id="DejaVuSans-110"/>
       <path d="M 18.3125 70.21875 
L 18.3125 54.6875 
L 36.8125 54.6875 
L 36.8125 47.703125 
L 18.3125 47.703125 
L 18.3125 18.015625 
Q 18.3125 11.328125 20.140625 9.421875 
Q 21.96875 7.515625 27.59375 7.515625 
L 36.8125 7.515625 
L 36.8125 0 
L 27.59375 0 
Q 17.1875 0 13.234375 3.875 
Q 9.28125 7.765625 9.28125 18.015625 
L 9.28125 47.703125 
L 2.6875 47.703125 
L 2.6875 54.6875 
L 9.28125 54.6875 
L 9.28125 70.21875 
z
" id="DejaVuSans-116"/>
       <path d="M 11.71875 12.40625 
L 22.015625 12.40625 
L 22.015625 4 
L 14.015625 -11.625 
L 7.71875 -11.625 
L 11.71875 4 
z
" id="DejaVuSans-44"/>
       <path d="M 60.015625 54.6875 
L 34.90625 27.875 
L 50.296875 0 
L 39.984375 0 
L 28.421875 21.6875 
L 8.296875 0 
L -2.59375 0 
L 24.3125 28.8125 
L 10.015625 54.6875 
L 20.3125 54.6875 
L 30.8125 34.90625 
L 49.125 54.6875 
z
" id="DejaVuSans-Oblique-120"/>
      </defs>
      <use transform="translate(0 0.015625)" xlink:href="#DejaVuSans-68"/>
      <use transform="translate(77.001953 0.015625)" xlink:href="#DejaVuSans-105"/>
      <use transform="translate(104.785156 0.015625)" xlink:href="#DejaVuSans-115"/>
      <use transform="translate(156.884766 0.015625)" xlink:href="#DejaVuSans-112"/>
      <use transform="translate(220.361328 0.015625)" xlink:href="#DejaVuSans-108"/>
      <use transform="translate(248.144531 0.015625)" xlink:href="#DejaVuSans-97"/>
      <use transform="translate(309.423828 0.015625)" xlink:href="#DejaVuSans-99"/>
      <use transform="translate(364.404297 0.015625)" xlink:href="#DejaVuSans-101"/>
      <use transform="translate(425.927734 0.015625)" xlink:href="#DejaVuSans-109"/>
      <use transform="translate(523.339844 0.015625)" xlink:href="#DejaVuSans-101"/>
      <use transform="translate(584.863281 0.015625)" xlink:href="#DejaVuSans-110"/>
      <use transform="translate(648.242188 0.015625)" xlink:href="#DejaVuSans-116"/>
      <use transform="translate(687.451172 0.015625)" xlink:href="#DejaVuSans-44"/>
      <use transform="translate(719.238281 0.015625)" xlink:href="#DejaVuSans-32"/>
      <use transform="translate(751.025391 0.015625)" xlink:href="#DejaVuSans-Oblique-120"/>
     </g>
    </g>
   </g>
   <g id="line2d_12">
    <path clip-path="url(#p6d19ceb91e)" d="M 35.8 168.5 
L 39.075331 164.602563 
L 40.167108 164.106948 
L 41.258885 164.541467 
L 42.350662 166.037124 
L 43.442439 168.551762 
L 44.534216 171.865264 
L 46.717771 179.264476 
L 47.809548 182.315186 
L 48.901325 184.228991 
L 49.993102 184.577102 
L 51.084879 183.091051 
L 52.176656 179.711823 
L 53.268433 174.615139 
L 54.36021 168.208542 
L 56.543764 154.035499 
L 57.635541 147.826518 
L 58.727318 143.25085 
L 59.819095 140.962243 
L 60.910872 141.404843 
L 62.002649 144.747851 
L 63.094427 150.848244 
L 64.186204 159.247223 
L 68.553312 198.297368 
L 69.645089 204.206358 
L 70.736866 206.776973 
L 71.828643 205.556924 
L 72.92042 200.473018 
L 74.012197 191.857085 
L 75.103974 180.429283 
L 78.379305 140.803356 
L 79.471082 130.299271 
L 80.56286 123.229377 
L 81.654637 120.458865 
L 82.746414 122.44183 
L 83.838191 129.15867 
L 84.929968 140.101013 
L 86.021745 154.307296 
L 89.297076 202.138631 
L 90.388853 214.442866 
L 91.48063 222.518561 
L 92.572407 225.416379 
L 93.664184 222.685968 
L 94.755961 214.436585 
L 95.847738 201.341779 
L 96.939515 184.586185 
L 100.214847 129.32372 
L 101.306624 115.421787 
L 102.398401 106.479796 
L 103.490178 103.518791 
L 104.581955 106.980519 
L 105.673732 116.669126 
L 106.765509 131.756422 
L 107.857286 150.851538 
L 111.132617 212.84027 
L 112.224394 228.156732 
L 113.316171 237.839558 
L 114.407948 240.807172 
L 115.499726 236.630679 
L 116.591503 225.58956 
L 117.68328 208.656891 
L 118.775057 187.414304 
L 120.958611 140.432071 
L 122.050388 119.340999 
L 123.142165 102.775732 
L 124.233942 92.464882 
L 125.325719 89.540528 
L 126.417496 94.415014 
L 127.509273 106.728097 
L 128.60105 125.37085 
L 130.784604 174.129428 
L 131.876381 199.496292 
L 132.968158 222.158753 
L 134.059936 239.822886 
L 135.151713 250.660338 
L 136.24349 253.497523 
L 137.335267 247.941873 
L 138.427044 234.43163 
L 139.518821 214.203203 
L 141.702375 161.780991 
L 142.794152 134.702527 
L 143.885929 110.636166 
L 144.977706 92.008821 
L 146.069483 80.735939 
L 147.16126 78.024535 
L 148.253037 84.244604 
L 149.344814 98.882558 
L 150.436591 120.582251 
L 152.620146 176.355363 
L 153.711923 204.97855 
L 154.8037 230.296721 
L 155.895477 249.764545 
L 156.987254 261.390914 
L 158.079031 263.942628 
L 159.170808 257.074688 
L 160.262585 241.373487 
L 161.354362 218.307738 
L 163.537916 159.469629 
L 164.629693 129.453678 
L 165.72147 103.021807 
L 166.813247 82.824548 
L 167.905024 70.918331 
L 168.996802 68.556046 
L 170.088579 76.055597 
L 171.180356 92.760219 
L 172.272133 117.095269 
L 174.455687 178.736976 
L 175.547464 210.007307 
L 176.639241 237.42745 
L 177.731018 258.253674 
L 178.822795 270.373569 
L 179.914572 272.520388 
L 181.006349 264.405122 
L 182.098126 246.752591 
L 183.189903 221.237224 
L 185.373457 157.030938 
L 186.465235 124.632268 
L 187.557012 96.337773 
L 188.648789 74.973491 
L 189.740566 62.699362 
L 190.832343 60.79077 
L 191.92412 69.506275 
L 193.015897 88.055214 
L 194.107674 114.669052 
L 196.291228 181.221334 
L 197.383005 214.633537 
L 198.474782 243.698906 
L 199.566559 265.518987 
L 200.658336 277.89395 
L 201.750113 279.544457 
L 202.84189 270.243722 
L 203.933668 250.846153 
L 205.025445 223.209126 
L 207.208999 154.510776 
L 208.300776 120.189632 
L 209.392553 90.447393 
L 210.48433 68.245949 
L 211.576107 55.818114 
L 212.667884 54.442982 
L 213.759661 64.314434 
L 214.851438 84.516317 
L 215.943215 113.107273 
L 220.310323 249.237288 
L 221.4021 271.752731 
L 222.493878 284.190365 
L 223.585655 285.275103 
L 224.677432 274.846923 
L 225.769209 253.881836 
L 226.860986 224.400672 
L 231.228094 85.234176 
L 232.319871 62.465702 
L 233.411648 50.056946 
L 234.503425 49.275615 
L 235.595202 60.247068 
L 236.686979 81.937229 
L 237.778756 112.24996 
L 242.145865 254.150095 
L 243.237642 277.116412 
L 244.329419 289.461566 
L 245.421196 289.928246 
L 246.512973 278.426431 
L 247.60475 256.046567 
L 248.696527 224.956243 
L 253.063635 80.598946 
L 254.155412 57.484745 
L 255.247189 45.234368 
L 256.338966 45.092021 
L 257.430744 57.111831 
L 258.522521 80.148585 
L 259.614298 111.966814 
L 263.981406 258.528797 
L 265.073183 281.745648 
L 266.16496 293.873267 
L 267.256737 293.682973 
L 268.348514 281.156993 
L 269.440291 257.493792 
L 270.532068 224.993416 
L 273.807399 108.716131 
L 274.899177 76.457368 
L 275.990954 53.17883 
L 277.082731 41.199083 
L 278.174508 41.729117 
L 279.266285 54.749976 
L 280.358062 79.011373 
L 281.449839 112.151747 
L 284.72517 229.972763 
L 285.816947 262.451134 
L 286.908724 285.754257 
L 288.000501 297.563593 
L 289.092278 296.687787 
L 290.184055 283.182817 
L 291.275832 258.349442 
L 292.367609 224.607908 
L 295.642941 105.391876 
L 296.734718 72.737799 
L 297.826495 49.443703 
L 298.918272 37.825001 
L 300.010049 39.051679 
L 301.101826 53.030504 
L 302.193603 78.411515 
L 303.28538 112.718408 
L 306.560711 233.193288 
L 307.652488 265.983109 
L 308.744265 289.237719 
L 309.836042 300.647639 
L 310.92782 299.065811 
L 312.019597 284.622894 
L 313.111374 258.716851 
L 314.203151 223.877614 
L 317.478482 102.268617 
L 318.570259 69.379447 
L 319.662036 46.191929 
L 320.753813 35.007071 
L 321.84559 36.947611 
L 322.937367 51.845336 
L 324.029144 78.255412 
L 325.120921 113.596535 
L 328.396253 236.225336 
L 329.48803 269.1807 
L 330.579807 292.276092 
L 331.671584 303.221283 
L 332.763361 300.919099 
L 333.855138 285.575391 
L 334.946915 258.680797 
L 336.038692 222.865904 
L 339.314023 99.322115 
L 340.4058 66.330778 
L 341.497577 43.350216 
L 342.589354 32.657793 
L 343.681131 35.324004 
L 344.772908 51.105314 
L 345.864686 78.46628 
L 346.956463 114.728974 
L 350.231794 239.091586 
L 351.323571 272.091337 
L 352.415348 294.936468 
L 353.507125 305.364373 
L 354.598902 302.332231 
L 355.690679 286.121281 
L 356.782456 258.310823 
L 357.874233 221.624326 
L 361.149564 96.531173 
L 362.241341 63.548153 
L 363.333119 40.857153 
L 364.424896 30.704306 
L 365.516673 34.103865 
L 366.60845 50.736896 
L 367.700227 78.981134 
L 368.792004 116.06924 
L 372.067335 241.811832 
L 373.159112 274.755165 
L 374.250889 297.27505 
L 375.342666 307.143389 
L 376.434443 303.37529 
L 377.52622 286.327355 
L 378.617997 257.663972 
L 379.709774 220.194797 
L 382.985106 93.877326 
L 384.076883 60.994651 
L 385.16866 38.661311 
L 386.260437 29.085956 
L 387.352214 33.223401 
L 388.443991 50.679427 
L 389.535768 79.748312 
L 390.627545 117.579533 
L 393.902876 244.403285 
L 394.994653 277.206129 
L 396.08643 299.338894 
L 397.178207 308.613667 
L 398.269984 304.106344 
L 399.361762 286.248696 
L 400.453539 256.787034 
L 401.545316 218.611405 
L 404.820647 91.344541 
L 405.912424 58.639068 
L 407.004201 36.719639 
L 408.095978 27.752262 
L 409.187755 32.629759 
L 410.279532 50.882882 
L 411.371309 80.725439 
L 412.463086 119.229113 
L 415.738417 246.880864 
L 416.830195 279.472905 
L 417.921972 301.167382 
L 419.013749 309.821256 
L 420.105526 304.573494 
L 421.197303 285.930736 
L 422.28908 255.718388 
L 423.380857 216.901868 
L 426.656188 88.91895 
L 427.747965 56.455061 
L 428.839742 34.996117 
L 429.931519 26.661221 
L 431.023296 32.279161 
L 432.115073 51.306003 
L 433.20685 81.877752 
L 434.298628 120.992984 
L 437.573959 249.257455 
L 438.665736 281.57969 
L 439.757513 302.793454 
L 440.84929 310.804466 
L 441.941067 304.816587 
L 443.032844 285.410943 
L 444.124621 254.48952 
L 445.216398 215.088733 
L 448.491729 86.588589 
L 449.583506 54.420406 
L 450.675283 33.460622 
L 451.767061 25.777892 
L 452.858838 32.135339 
L 453.950615 51.914758 
L 455.042392 83.176732 
L 456.134169 122.85081 
L 459.4095 251.544153 
L 460.501277 283.546886 
L 461.593054 304.244654 
L 462.684831 311.595165 
L 463.776608 304.868631 
L 464.868385 284.720227 
L 465.960162 253.126267 
L 467.051939 213.190342 
L 470.327271 84.343174 
L 471.419048 52.516382 
L 471.419048 52.516382 
" style="fill:none;stroke:#0000ff;stroke-linecap:square;stroke-width:1.5;"/>
   </g>
   <g id="line2d_13">
    <path clip-path="url(#p6d19ceb91e)" d="M 35.8 168.5 
L 41.258885 161.728597 
L 46.717771 155.269651 
L 52.176656 149.108742 
L 57.635541 143.232119 
L 64.186204 136.537001 
L 70.736866 130.210875 
L 77.287528 124.233402 
L 83.838191 118.585369 
L 90.388853 113.248619 
L 96.939515 108.205995 
L 103.490178 103.441287 
L 110.04084 98.939179 
L 116.591503 94.685197 
L 123.142165 90.665667 
L 130.784604 86.255337 
L 138.427044 82.127264 
L 146.069483 78.263384 
L 153.711923 74.646789 
L 161.354362 71.261652 
L 170.088579 67.657385 
L 178.822795 64.315513 
L 187.557012 61.216932 
L 196.291228 58.343932 
L 206.117222 55.361045 
L 215.943215 52.621323 
L 225.769209 50.104945 
L 236.686979 47.548822 
L 247.60475 45.223152 
L 259.614298 42.906349 
L 271.623845 40.818247 
L 284.72517 38.774682 
L 297.826495 36.950165 
L 312.019597 35.193625 
L 327.304475 33.528332 
L 343.681131 31.972361 
L 361.149564 30.538597 
L 379.709774 29.234967 
L 400.453539 28.005508 
L 423.380857 26.880279 
L 448.491729 25.878856 
L 471.419048 25.136364 
L 471.419048 25.136364 
" style="fill:none;stroke:#ffa500;stroke-dasharray:5.55,2.4;stroke-dashoffset:0;stroke-width:1.5;"/>
   </g>
   <g id="line2d_14">
    <path clip-path="url(#p6d19ceb91e)" d="M 35.8 168.5 
L 41.258885 175.271403 
L 46.717771 181.730349 
L 52.176656 187.891258 
L 57.635541 193.767881 
L 64.186204 200.462999 
L 70.736866 206.789125 
L 77.287528 212.766598 
L 83.838191 218.414631 
L 90.388853 223.751381 
L 96.939515 228.794005 
L 103.490178 233.558713 
L 110.04084 238.060821 
L 116.591503 242.314803 
L 123.142165 246.334333 
L 130.784604 250.744663 
L 138.427044 254.872736 
L 146.069483 258.736616 
L 153.711923 262.353211 
L 161.354362 265.738348 
L 170.088579 269.342615 
L 178.822795 272.684487 
L 187.557012 275.783068 
L 196.291228 278.656068 
L 206.117222 281.638955 
L 215.943215 284.378677 
L 225.769209 286.895055 
L 236.686979 289.451178 
L 247.60475 291.776848 
L 259.614298 294.093651 
L 271.623845 296.181753 
L 284.72517 298.225318 
L 297.826495 300.049835 
L 312.019597 301.806375 
L 327.304475 303.471668 
L 343.681131 305.027639 
L 361.149564 306.461403 
L 379.709774 307.765033 
L 400.453539 308.994492 
L 423.380857 310.119721 
L 448.491729 311.121144 
L 471.419048 311.863636 
L 471.419048 311.863636 
" style="fill:none;stroke:#ffa500;stroke-dasharray:5.55,2.4;stroke-dashoffset:0;stroke-width:1.5;"/>
   </g>
   <g id="line2d_15">
    <path clip-path="url(#p6d19ceb91e)" d="M 35.8 326.2 
L 35.8 10.8 
" style="fill:none;stroke:#000000;stroke-dasharray:1.85,0.8;stroke-dashoffset:0;stroke-width:0.5;"/>
   </g>
   <g id="line2d_16">
    <path clip-path="url(#p6d19ceb91e)" d="M 35.8 168.5 
L 493.2 168.5 
" style="fill:none;stroke:#000000;stroke-dasharray:1.85,0.8;stroke-dashoffset:0;stroke-width:0.5;"/>
   </g>
   <g id="patch_3">
    <path d="M 35.8 326.2 
L 35.8 10.8 
" style="fill:none;stroke:#000000;stroke-linecap:square;stroke-linejoin:miter;stroke-width:0.8;"/>
   </g>
   <g id="patch_4">
    <path d="M 493.2 326.2 
L 493.2 10.8 
" style="fill:none;stroke:#000000;stroke-linecap:square;stroke-linejoin:miter;stroke-width:0.8;"/>
   </g>
   <g id="patch_5">
    <path d="M 35.8 326.2 
L 493.2 326.2 
" style="fill:none;stroke:#000000;stroke-linecap:square;stroke-linejoin:miter;stroke-width:0.8;"/>
   </g>
   <g id="patch_6">
    <path d="M 35.8 10.8 
L 493.2 10.8 
" style="fill:none;stroke:#000000;stroke-linecap:square;stroke-linejoin:miter;stroke-width:0.8;"/>
   </g>
   <g id="legend_1">
    <g id="patch_7">
     <path d="M 42.8 48.15625 
L 147.334375 48.15625 
Q 149.334375 48.15625 149.334375 46.15625 
L 149.334375 17.8 
Q 149.334375 15.8 147.334375 15.8 
L 42.8 15.8 
Q 40.8 15.8 40.8 17.8 
L 40.8 46.15625 
Q 40.8 48.15625 42.8 48.15625 
z
" style="fill:#ffffff;opacity:0.8;stroke:#cccccc;stroke-linejoin:miter;"/>
    </g>
    <g id="line2d_17">
     <path d="M 44.8 23.898438 
L 64.8 23.898438 
" style="fill:none;stroke:#0000ff;stroke-linecap:square;stroke-width:1.5;"/>
    </g>
    <g id="line2d_18"/>
    <g id="text_3">
     <!-- $\omega = \omega_0$ -->
     <g transform="translate(72.8 27.398438)scale(0.1 -0.1)">
      <defs>
       <path d="M 21.390625 -1.421875 
Q 1.125 -1.421875 6.78125 27.59375 
Q 8.984375 39.0625 19.625 54.6875 
L 29.296875 54.6875 
Q 19.234375 39.0625 17 27.34375 
Q 12.796875 6.203125 23.734375 6.203125 
Q 33.84375 6.203125 38.71875 32.46875 
L 47.015625 32.46875 
Q 41.703125 6.0625 51.8125 6.203125 
Q 62.703125 6.296875 66.796875 27.34375 
Q 69.046875 39.0625 65.140625 54.6875 
L 74.8125 54.6875 
Q 79.296875 39.0625 77.09375 27.59375 
Q 71.53125 -1.46875 51.21875 -1.421875 
Q 37.9375 -1.375 39.109375 13.1875 
Q 34.28125 -1.421875 21.390625 -1.421875 
z
" id="DejaVuSans-Oblique-969"/>
       <path d="M 10.59375 45.40625 
L 73.1875 45.40625 
L 73.1875 37.203125 
L 10.59375 37.203125 
z
M 10.59375 25.484375 
L 73.1875 25.484375 
L 73.1875 17.1875 
L 10.59375 17.1875 
z
" id="DejaVuSans-61"/>
       <path d="M 31.78125 66.40625 
Q 24.171875 66.40625 20.328125 58.90625 
Q 16.5 51.421875 16.5 36.375 
Q 16.5 21.390625 20.328125 13.890625 
Q 24.171875 6.390625 31.78125 6.390625 
Q 39.453125 6.390625 43.28125 13.890625 
Q 47.125 21.390625 47.125 36.375 
Q 47.125 51.421875 43.28125 58.90625 
Q 39.453125 66.40625 31.78125 66.40625 
z
M 31.78125 74.21875 
Q 44.046875 74.21875 50.515625 64.515625 
Q 56.984375 54.828125 56.984375 36.375 
Q 56.984375 17.96875 50.515625 8.265625 
Q 44.046875 -1.421875 31.78125 -1.421875 
Q 19.53125 -1.421875 13.0625 8.265625 
Q 6.59375 17.96875 6.59375 36.375 
Q 6.59375 54.828125 13.0625 64.515625 
Q 19.53125 74.21875 31.78125 74.21875 
z
" id="DejaVuSans-48"/>
      </defs>
      <use transform="translate(0 0.3125)" xlink:href="#DejaVuSans-Oblique-969"/>
      <use transform="translate(103.222656 0.3125)" xlink:href="#DejaVuSans-61"/>
      <use transform="translate(206.494141 0.3125)" xlink:href="#DejaVuSans-Oblique-969"/>
      <use transform="translate(290.234375 -16.09375)scale(0.7)" xlink:href="#DejaVuSans-48"/>
     </g>
    </g>
    <g id="line2d_19">
     <path d="M 44.8 38.576563 
L 64.8 38.576563 
" style="fill:none;stroke:#ffa500;stroke-dasharray:5.55,2.4;stroke-dashoffset:0;stroke-width:1.5;"/>
    </g>
    <g id="line2d_20"/>
    <g id="text_4">
     <!-- Exponential fit -->
     <g transform="translate(72.8 42.076563)scale(0.1 -0.1)">
      <defs>
       <path d="M 9.8125 72.90625 
L 55.90625 72.90625 
L 55.90625 64.59375 
L 19.671875 64.59375 
L 19.671875 43.015625 
L 54.390625 43.015625 
L 54.390625 34.71875 
L 19.671875 34.71875 
L 19.671875 8.296875 
L 56.78125 8.296875 
L 56.78125 0 
L 9.8125 0 
z
" id="DejaVuSans-69"/>
       <path d="M 54.890625 54.6875 
L 35.109375 28.078125 
L 55.90625 0 
L 45.3125 0 
L 29.390625 21.484375 
L 13.484375 0 
L 2.875 0 
L 24.125 28.609375 
L 4.6875 54.6875 
L 15.28125 54.6875 
L 29.78125 35.203125 
L 44.28125 54.6875 
z
" id="DejaVuSans-120"/>
       <path d="M 30.609375 48.390625 
Q 23.390625 48.390625 19.1875 42.75 
Q 14.984375 37.109375 14.984375 27.296875 
Q 14.984375 17.484375 19.15625 11.84375 
Q 23.34375 6.203125 30.609375 6.203125 
Q 37.796875 6.203125 41.984375 11.859375 
Q 46.1875 17.53125 46.1875 27.296875 
Q 46.1875 37.015625 41.984375 42.703125 
Q 37.796875 48.390625 30.609375 48.390625 
z
M 30.609375 56 
Q 42.328125 56 49.015625 48.375 
Q 55.71875 40.765625 55.71875 27.296875 
Q 55.71875 13.875 49.015625 6.21875 
Q 42.328125 -1.421875 30.609375 -1.421875 
Q 18.84375 -1.421875 12.171875 6.21875 
Q 5.515625 13.875 5.515625 27.296875 
Q 5.515625 40.765625 12.171875 48.375 
Q 18.84375 56 30.609375 56 
z
" id="DejaVuSans-111"/>
       <path d="M 37.109375 75.984375 
L 37.109375 68.5 
L 28.515625 68.5 
Q 23.6875 68.5 21.796875 66.546875 
Q 19.921875 64.59375 19.921875 59.515625 
L 19.921875 54.6875 
L 34.71875 54.6875 
L 34.71875 47.703125 
L 19.921875 47.703125 
L 19.921875 0 
L 10.890625 0 
L 10.890625 47.703125 
L 2.296875 47.703125 
L 2.296875 54.6875 
L 10.890625 54.6875 
L 10.890625 58.5 
Q 10.890625 67.625 15.140625 71.796875 
Q 19.390625 75.984375 28.609375 75.984375 
z
" id="DejaVuSans-102"/>
      </defs>
      <use xlink:href="#DejaVuSans-69"/>
      <use x="63.183594" xlink:href="#DejaVuSans-120"/>
      <use x="122.363281" xlink:href="#DejaVuSans-112"/>
      <use x="185.839844" xlink:href="#DejaVuSans-111"/>
      <use x="247.021484" xlink:href="#DejaVuSans-110"/>
      <use x="310.400391" xlink:href="#DejaVuSans-101"/>
      <use x="371.923828" xlink:href="#DejaVuSans-110"/>
      <use x="435.302734" xlink:href="#DejaVuSans-116"/>
      <use x="474.511719" xlink:href="#DejaVuSans-105"/>
      <use x="502.294922" xlink:href="#DejaVuSans-97"/>
      <use x="563.574219" xlink:href="#DejaVuSans-108"/>
      <use x="591.357422" xlink:href="#DejaVuSans-32"/>
      <use x="623.144531" xlink:href="#DejaVuSans-102"/>
      <use x="658.349609" xlink:href="#DejaVuSans-105"/>
      <use x="686.132812" xlink:href="#DejaVuSans-116"/>
     </g>
    </g>
   </g>
  </g>
 </g>
 <defs>
  <clipPath id="p6d19ceb91e">
   <rect height="315.4" width="457.4" x="35.8" y="10.8"/>
  </clipPath>
 </defs>
</svg>
