<?xml version="1.0" encoding="utf-8" standalone="no"?>
<!DOCTYPE svg PUBLIC "-//W3C//DTD SVG 1.1//EN"
  "http://www.w3.org/Graphics/SVG/1.1/DTD/svg11.dtd">
<!-- Created with matplotlib (https://matplotlib.org/) -->
<svg height="288pt" version="1.1" viewBox="0 0 432 288" width="432pt" xmlns="http://www.w3.org/2000/svg" xmlns:xlink="http://www.w3.org/1999/xlink">
 <metadata>
  <rdf:RDF xmlns:cc="http://creativecommons.org/ns#" xmlns:dc="http://purl.org/dc/elements/1.1/" xmlns:rdf="http://www.w3.org/1999/02/22-rdf-syntax-ns#">
   <cc:Work>
    <dc:type rdf:resource="http://purl.org/dc/dcmitype/StillImage"/>
    <dc:date>2024-01-19T16:26:00.516510</dc:date>
    <dc:format>image/svg+xml</dc:format>
    <dc:creator>
     <cc:Agent>
      <dc:title>Matplotlib v3.3.2, https://matplotlib.org/</dc:title>
     </cc:Agent>
    </dc:creator>
   </cc:Work>
  </rdf:RDF>
 </metadata>
 <defs>
  <style type="text/css">*{stroke-linecap:butt;stroke-linejoin:round;}</style>
 </defs>
 <g id="figure_1">
  <g id="patch_1">
   <path d="M 0 288 
L 432 288 
L 432 0 
L 0 0 
z
" style="fill:none;"/>
  </g>
  <g id="axes_1">
   <g id="patch_2">
    <path d="M 35.8 254.2 
L 421.2 254.2 
L 421.2 10.8 
L 35.8 10.8 
z
" style="fill:none;"/>
   </g>
   <g id="matplotlib.axis_1">
    <g id="xtick_1">
     <g id="line2d_1">
      <defs>
       <path d="M 0 0 
L 0 3.5 
" id="m7ccf45e10c" style="stroke:#000000;stroke-width:0.8;"/>
      </defs>
      <g>
       <use style="stroke:#000000;stroke-width:0.8;" x="35.8" xlink:href="#m7ccf45e10c" y="254.2"/>
      </g>
     </g>
    </g>
    <g id="xtick_2">
     <g id="line2d_2">
      <g>
       <use style="stroke:#000000;stroke-width:0.8;" x="119.25349" xlink:href="#m7ccf45e10c" y="254.2"/>
      </g>
     </g>
    </g>
    <g id="xtick_3">
     <g id="line2d_3">
      <g>
       <use style="stroke:#000000;stroke-width:0.8;" x="202.70698" xlink:href="#m7ccf45e10c" y="254.2"/>
      </g>
     </g>
    </g>
    <g id="xtick_4">
     <g id="line2d_4">
      <g>
       <use style="stroke:#000000;stroke-width:0.8;" x="286.16047" xlink:href="#m7ccf45e10c" y="254.2"/>
      </g>
     </g>
    </g>
    <g id="xtick_5">
     <g id="line2d_5">
      <g>
       <use style="stroke:#000000;stroke-width:0.8;" x="369.61396" xlink:href="#m7ccf45e10c" y="254.2"/>
      </g>
     </g>
    </g>
    <g id="text_1">
     <!-- Time $t$ -->
     <g transform="translate(212.55 272.798437)scale(0.1 -0.1)">
      <defs>
       <path d="M -0.296875 72.90625 
L 61.375 72.90625 
L 61.375 64.59375 
L 35.5 64.59375 
L 35.5 0 
L 25.59375 0 
L 25.59375 64.59375 
L -0.296875 64.59375 
z
" id="DejaVuSans-84"/>
       <path d="M 9.421875 54.6875 
L 18.40625 54.6875 
L 18.40625 0 
L 9.421875 0 
z
M 9.421875 75.984375 
L 18.40625 75.984375 
L 18.40625 64.59375 
L 9.421875 64.59375 
z
" id="DejaVuSans-105"/>
       <path d="M 52 44.1875 
Q 55.375 50.25 60.0625 53.125 
Q 64.75 56 71.09375 56 
Q 79.640625 56 84.28125 50.015625 
Q 88.921875 44.046875 88.921875 33.015625 
L 88.921875 0 
L 79.890625 0 
L 79.890625 32.71875 
Q 79.890625 40.578125 77.09375 44.375 
Q 74.3125 48.1875 68.609375 48.1875 
Q 61.625 48.1875 57.5625 43.546875 
Q 53.515625 38.921875 53.515625 30.90625 
L 53.515625 0 
L 44.484375 0 
L 44.484375 32.71875 
Q 44.484375 40.625 41.703125 44.40625 
Q 38.921875 48.1875 33.109375 48.1875 
Q 26.21875 48.1875 22.15625 43.53125 
Q 18.109375 38.875 18.109375 30.90625 
L 18.109375 0 
L 9.078125 0 
L 9.078125 54.6875 
L 18.109375 54.6875 
L 18.109375 46.1875 
Q 21.1875 51.21875 25.484375 53.609375 
Q 29.78125 56 35.6875 56 
Q 41.65625 56 45.828125 52.96875 
Q 50 49.953125 52 44.1875 
z
" id="DejaVuSans-109"/>
       <path d="M 56.203125 29.59375 
L 56.203125 25.203125 
L 14.890625 25.203125 
Q 15.484375 15.921875 20.484375 11.0625 
Q 25.484375 6.203125 34.421875 6.203125 
Q 39.59375 6.203125 44.453125 7.46875 
Q 49.3125 8.734375 54.109375 11.28125 
L 54.109375 2.78125 
Q 49.265625 0.734375 44.1875 -0.34375 
Q 39.109375 -1.421875 33.890625 -1.421875 
Q 20.796875 -1.421875 13.15625 6.1875 
Q 5.515625 13.8125 5.515625 26.8125 
Q 5.515625 40.234375 12.765625 48.109375 
Q 20.015625 56 32.328125 56 
Q 43.359375 56 49.78125 48.890625 
Q 56.203125 41.796875 56.203125 29.59375 
z
M 47.21875 32.234375 
Q 47.125 39.59375 43.09375 43.984375 
Q 39.0625 48.390625 32.421875 48.390625 
Q 24.90625 48.390625 20.390625 44.140625 
Q 15.875 39.890625 15.1875 32.171875 
z
" id="DejaVuSans-101"/>
       <path id="DejaVuSans-32"/>
       <path d="M 42.28125 54.6875 
L 40.921875 47.703125 
L 23 47.703125 
L 17.1875 18.015625 
Q 16.890625 16.359375 16.75 15.234375 
Q 16.609375 14.109375 16.609375 13.484375 
Q 16.609375 10.359375 18.484375 8.9375 
Q 20.359375 7.515625 24.515625 7.515625 
L 33.59375 7.515625 
L 32.078125 0 
L 23.484375 0 
Q 15.484375 0 11.546875 3.125 
Q 7.625 6.25 7.625 12.59375 
Q 7.625 13.71875 7.765625 15.0625 
Q 7.90625 16.40625 8.203125 18.015625 
L 14.015625 47.703125 
L 6.390625 47.703125 
L 7.8125 54.6875 
L 15.28125 54.6875 
L 18.3125 70.21875 
L 27.296875 70.21875 
L 24.3125 54.6875 
z
" id="DejaVuSans-Oblique-116"/>
      </defs>
      <use transform="translate(0 0.015625)" xlink:href="#DejaVuSans-84"/>
      <use transform="translate(61.083984 0.015625)" xlink:href="#DejaVuSans-105"/>
      <use transform="translate(88.867188 0.015625)" xlink:href="#DejaVuSans-109"/>
      <use transform="translate(186.279297 0.015625)" xlink:href="#DejaVuSans-101"/>
      <use transform="translate(247.802734 0.015625)" xlink:href="#DejaVuSans-32"/>
      <use transform="translate(279.589844 0.015625)" xlink:href="#DejaVuSans-Oblique-116"/>
     </g>
    </g>
   </g>
   <g id="matplotlib.axis_2">
    <g id="ytick_1">
     <g id="line2d_6">
      <defs>
       <path d="M 0 0 
L -3.5 0 
" id="m2fcba8b5df" style="stroke:#000000;stroke-width:0.8;"/>
      </defs>
      <g>
       <use style="stroke:#000000;stroke-width:0.8;" x="35.8" xlink:href="#m2fcba8b5df" y="237.989719"/>
      </g>
     </g>
    </g>
    <g id="ytick_2">
     <g id="line2d_7">
      <g>
       <use style="stroke:#000000;stroke-width:0.8;" x="35.8" xlink:href="#m2fcba8b5df" y="194.529548"/>
      </g>
     </g>
    </g>
    <g id="ytick_3">
     <g id="line2d_8">
      <g>
       <use style="stroke:#000000;stroke-width:0.8;" x="35.8" xlink:href="#m2fcba8b5df" y="151.069377"/>
      </g>
     </g>
    </g>
    <g id="ytick_4">
     <g id="line2d_9">
      <g>
       <use style="stroke:#000000;stroke-width:0.8;" x="35.8" xlink:href="#m2fcba8b5df" y="107.609205"/>
      </g>
     </g>
    </g>
    <g id="ytick_5">
     <g id="line2d_10">
      <g>
       <use style="stroke:#000000;stroke-width:0.8;" x="35.8" xlink:href="#m2fcba8b5df" y="64.149034"/>
      </g>
     </g>
    </g>
    <g id="ytick_6">
     <g id="line2d_11">
      <g>
       <use style="stroke:#000000;stroke-width:0.8;" x="35.8" xlink:href="#m2fcba8b5df" y="20.688863"/>
      </g>
     </g>
    </g>
    <g id="text_2">
     <!-- Displacement, $x$ -->
     <g transform="translate(22.7 173.05)rotate(-90)scale(0.1 -0.1)">
      <defs>
       <path d="M 19.671875 64.796875 
L 19.671875 8.109375 
L 31.59375 8.109375 
Q 46.6875 8.109375 53.6875 14.9375 
Q 60.6875 21.78125 60.6875 36.53125 
Q 60.6875 51.171875 53.6875 57.984375 
Q 46.6875 64.796875 31.59375 64.796875 
z
M 9.8125 72.90625 
L 30.078125 72.90625 
Q 51.265625 72.90625 61.171875 64.09375 
Q 71.09375 55.28125 71.09375 36.53125 
Q 71.09375 17.671875 61.125 8.828125 
Q 51.171875 0 30.078125 0 
L 9.8125 0 
z
" id="DejaVuSans-68"/>
       <path d="M 44.28125 53.078125 
L 44.28125 44.578125 
Q 40.484375 46.53125 36.375 47.5 
Q 32.28125 48.484375 27.875 48.484375 
Q 21.1875 48.484375 17.84375 46.4375 
Q 14.5 44.390625 14.5 40.28125 
Q 14.5 37.15625 16.890625 35.375 
Q 19.28125 33.59375 26.515625 31.984375 
L 29.59375 31.296875 
Q 39.15625 29.25 43.1875 25.515625 
Q 47.21875 21.78125 47.21875 15.09375 
Q 47.21875 7.46875 41.1875 3.015625 
Q 35.15625 -1.421875 24.609375 -1.421875 
Q 20.21875 -1.421875 15.453125 -0.5625 
Q 10.6875 0.296875 5.421875 2 
L 5.421875 11.28125 
Q 10.40625 8.6875 15.234375 7.390625 
Q 20.0625 6.109375 24.8125 6.109375 
Q 31.15625 6.109375 34.5625 8.28125 
Q 37.984375 10.453125 37.984375 14.40625 
Q 37.984375 18.0625 35.515625 20.015625 
Q 33.0625 21.96875 24.703125 23.78125 
L 21.578125 24.515625 
Q 13.234375 26.265625 9.515625 29.90625 
Q 5.8125 33.546875 5.8125 39.890625 
Q 5.8125 47.609375 11.28125 51.796875 
Q 16.75 56 26.8125 56 
Q 31.78125 56 36.171875 55.265625 
Q 40.578125 54.546875 44.28125 53.078125 
z
" id="DejaVuSans-115"/>
       <path d="M 18.109375 8.203125 
L 18.109375 -20.796875 
L 9.078125 -20.796875 
L 9.078125 54.6875 
L 18.109375 54.6875 
L 18.109375 46.390625 
Q 20.953125 51.265625 25.265625 53.625 
Q 29.59375 56 35.59375 56 
Q 45.5625 56 51.78125 48.09375 
Q 58.015625 40.1875 58.015625 27.296875 
Q 58.015625 14.40625 51.78125 6.484375 
Q 45.5625 -1.421875 35.59375 -1.421875 
Q 29.59375 -1.421875 25.265625 0.953125 
Q 20.953125 3.328125 18.109375 8.203125 
z
M 48.6875 27.296875 
Q 48.6875 37.203125 44.609375 42.84375 
Q 40.53125 48.484375 33.40625 48.484375 
Q 26.265625 48.484375 22.1875 42.84375 
Q 18.109375 37.203125 18.109375 27.296875 
Q 18.109375 17.390625 22.1875 11.75 
Q 26.265625 6.109375 33.40625 6.109375 
Q 40.53125 6.109375 44.609375 11.75 
Q 48.6875 17.390625 48.6875 27.296875 
z
" id="DejaVuSans-112"/>
       <path d="M 9.421875 75.984375 
L 18.40625 75.984375 
L 18.40625 0 
L 9.421875 0 
z
" id="DejaVuSans-108"/>
       <path d="M 34.28125 27.484375 
Q 23.390625 27.484375 19.1875 25 
Q 14.984375 22.515625 14.984375 16.5 
Q 14.984375 11.71875 18.140625 8.90625 
Q 21.296875 6.109375 26.703125 6.109375 
Q 34.1875 6.109375 38.703125 11.40625 
Q 43.21875 16.703125 43.21875 25.484375 
L 43.21875 27.484375 
z
M 52.203125 31.203125 
L 52.203125 0 
L 43.21875 0 
L 43.21875 8.296875 
Q 40.140625 3.328125 35.546875 0.953125 
Q 30.953125 -1.421875 24.3125 -1.421875 
Q 15.921875 -1.421875 10.953125 3.296875 
Q 6 8.015625 6 15.921875 
Q 6 25.140625 12.171875 29.828125 
Q 18.359375 34.515625 30.609375 34.515625 
L 43.21875 34.515625 
L 43.21875 35.40625 
Q 43.21875 41.609375 39.140625 45 
Q 35.0625 48.390625 27.6875 48.390625 
Q 23 48.390625 18.546875 47.265625 
Q 14.109375 46.140625 10.015625 43.890625 
L 10.015625 52.203125 
Q 14.9375 54.109375 19.578125 55.046875 
Q 24.21875 56 28.609375 56 
Q 40.484375 56 46.34375 49.84375 
Q 52.203125 43.703125 52.203125 31.203125 
z
" id="DejaVuSans-97"/>
       <path d="M 48.78125 52.59375 
L 48.78125 44.1875 
Q 44.96875 46.296875 41.140625 47.34375 
Q 37.3125 48.390625 33.40625 48.390625 
Q 24.65625 48.390625 19.8125 42.84375 
Q 14.984375 37.3125 14.984375 27.296875 
Q 14.984375 17.28125 19.8125 11.734375 
Q 24.65625 6.203125 33.40625 6.203125 
Q 37.3125 6.203125 41.140625 7.25 
Q 44.96875 8.296875 48.78125 10.40625 
L 48.78125 2.09375 
Q 45.015625 0.34375 40.984375 -0.53125 
Q 36.96875 -1.421875 32.421875 -1.421875 
Q 20.0625 -1.421875 12.78125 6.34375 
Q 5.515625 14.109375 5.515625 27.296875 
Q 5.515625 40.671875 12.859375 48.328125 
Q 20.21875 56 33.015625 56 
Q 37.15625 56 41.109375 55.140625 
Q 45.0625 54.296875 48.78125 52.59375 
z
" id="DejaVuSans-99"/>
       <path d="M 54.890625 33.015625 
L 54.890625 0 
L 45.90625 0 
L 45.90625 32.71875 
Q 45.90625 40.484375 42.875 44.328125 
Q 39.84375 48.1875 33.796875 48.1875 
Q 26.515625 48.1875 22.3125 43.546875 
Q 18.109375 38.921875 18.109375 30.90625 
L 18.109375 0 
L 9.078125 0 
L 9.078125 54.6875 
L 18.109375 54.6875 
L 18.109375 46.1875 
Q 21.34375 51.125 25.703125 53.5625 
Q 30.078125 56 35.796875 56 
Q 45.21875 56 50.046875 50.171875 
Q 54.890625 44.34375 54.890625 33.015625 
z
" id="DejaVuSans-110"/>
       <path d="M 18.3125 70.21875 
L 18.3125 54.6875 
L 36.8125 54.6875 
L 36.8125 47.703125 
L 18.3125 47.703125 
L 18.3125 18.015625 
Q 18.3125 11.328125 20.140625 9.421875 
Q 21.96875 7.515625 27.59375 7.515625 
L 36.8125 7.515625 
L 36.8125 0 
L 27.59375 0 
Q 17.1875 0 13.234375 3.875 
Q 9.28125 7.765625 9.28125 18.015625 
L 9.28125 47.703125 
L 2.6875 47.703125 
L 2.6875 54.6875 
L 9.28125 54.6875 
L 9.28125 70.21875 
z
" id="DejaVuSans-116"/>
       <path d="M 11.71875 12.40625 
L 22.015625 12.40625 
L 22.015625 4 
L 14.015625 -11.625 
L 7.71875 -11.625 
L 11.71875 4 
z
" id="DejaVuSans-44"/>
       <path d="M 60.015625 54.6875 
L 34.90625 27.875 
L 50.296875 0 
L 39.984375 0 
L 28.421875 21.6875 
L 8.296875 0 
L -2.59375 0 
L 24.3125 28.8125 
L 10.015625 54.6875 
L 20.3125 54.6875 
L 30.8125 34.90625 
L 49.125 54.6875 
z
" id="DejaVuSans-Oblique-120"/>
      </defs>
      <use transform="translate(0 0.015625)" xlink:href="#DejaVuSans-68"/>
      <use transform="translate(77.001953 0.015625)" xlink:href="#DejaVuSans-105"/>
      <use transform="translate(104.785156 0.015625)" xlink:href="#DejaVuSans-115"/>
      <use transform="translate(156.884766 0.015625)" xlink:href="#DejaVuSans-112"/>
      <use transform="translate(220.361328 0.015625)" xlink:href="#DejaVuSans-108"/>
      <use transform="translate(248.144531 0.015625)" xlink:href="#DejaVuSans-97"/>
      <use transform="translate(309.423828 0.015625)" xlink:href="#DejaVuSans-99"/>
      <use transform="translate(364.404297 0.015625)" xlink:href="#DejaVuSans-101"/>
      <use transform="translate(425.927734 0.015625)" xlink:href="#DejaVuSans-109"/>
      <use transform="translate(523.339844 0.015625)" xlink:href="#DejaVuSans-101"/>
      <use transform="translate(584.863281 0.015625)" xlink:href="#DejaVuSans-110"/>
      <use transform="translate(648.242188 0.015625)" xlink:href="#DejaVuSans-116"/>
      <use transform="translate(687.451172 0.015625)" xlink:href="#DejaVuSans-44"/>
      <use transform="translate(719.238281 0.015625)" xlink:href="#DejaVuSans-32"/>
      <use transform="translate(751.025391 0.015625)" xlink:href="#DejaVuSans-Oblique-120"/>
     </g>
    </g>
   </g>
   <g id="line2d_12">
    <path clip-path="url(#pa8a1d9a645)" d="M 35.8 151.069377 
L 37.64446 153.480161 
L 39.488921 100.27806 
L 41.333381 38.974923 
L 43.177842 21.863636 
L 45.022302 59.634581 
L 46.866762 114.638376 
L 48.711223 137.191165 
L 50.555683 110.152008 
L 52.400144 61.939529 
L 54.244604 38.536429 
L 56.089064 61.795697 
L 57.933525 111.687433 
L 59.777985 146.603057 
L 61.622446 141.374466 
L 63.466906 108.35224 
L 65.311366 84.04661 
L 67.155827 95.319398 
L 70.844748 175.369089 
L 72.689208 184.985344 
L 74.533668 165.254359 
L 76.378129 142.184658 
L 78.222589 142.963413 
L 80.06705 171.830046 
L 81.91151 207.731938 
L 83.75597 224.432661 
L 85.600431 213.904575 
L 87.444891 192.171642 
L 89.289352 183.577767 
L 91.133812 198.735514 
L 92.978272 226.003038 
L 94.822733 243.136364 
L 96.667193 237.549802 
L 98.511654 216.769821 
L 100.356114 200.495018 
L 102.200574 202.442829 
L 104.045035 218.643298 
L 105.889495 232.08718 
L 107.733955 228.580953 
L 109.578416 209.110757 
L 111.422876 188.03806 
L 113.267337 179.626335 
L 115.111797 185.525706 
L 116.956257 194.18774 
L 118.800718 191.960225 
L 120.645178 175.32998 
L 122.489639 153.44516 
L 124.334099 139.315952 
L 126.178559 138.17702 
L 128.02302 143.453185 
L 129.86748 143.396457 
L 131.711941 131.857185 
L 133.556401 113.42661 
L 135.400861 98.776964 
L 137.245322 94.935492 
L 139.089782 99.391534 
L 140.934243 102.985459 
L 142.778703 98.46824 
L 144.623163 86.820513 
L 146.467624 75.902991 
L 148.312084 73.11956 
L 150.156545 78.945402 
L 152.001005 86.97033 
L 153.845465 90.000927 
L 155.689926 86.452668 
L 157.534386 81.377737 
L 159.378847 81.566621 
L 161.223307 89.422624 
L 163.067767 101.088953 
L 164.912228 110.20727 
L 166.756688 113.633174 
L 168.601149 113.944592 
L 170.445609 116.737958 
L 172.290069 125.431226 
L 174.13453 138.316464 
L 175.97899 150.317235 
L 177.823451 157.600454 
L 181.512371 164.066566 
L 183.356832 171.139757 
L 187.045753 192.900543 
L 188.890213 200.126229 
L 190.734673 202.904819 
L 192.579134 203.994491 
L 194.423594 206.926416 
L 196.268055 212.788393 
L 198.112515 219.376288 
L 199.956975 223.310065 
L 201.801436 223.059083 
L 203.645896 220.151392 
L 205.490357 217.617614 
L 207.334817 217.218951 
L 209.179277 217.981313 
L 211.023738 217.244119 
L 212.868198 213.13757 
L 214.712659 206.212362 
L 216.557119 198.838959 
L 218.401579 193.048676 
L 220.24604 188.819387 
L 222.0905 184.288077 
L 223.934961 177.578491 
L 225.779421 168.528065 
L 227.623881 158.797169 
L 229.468342 150.367197 
L 231.312802 143.854078 
L 233.157263 138.13498 
L 235.001723 131.532064 
L 236.846183 123.408743 
L 238.690644 114.743608 
L 240.535104 107.24065 
L 242.379564 101.853218 
L 246.068485 94.481118 
L 247.912946 90.20755 
L 249.757406 85.620442 
L 251.601866 82.0149 
L 253.446327 80.433119 
L 255.290787 80.78704 
L 257.135248 82.025006 
L 258.979708 83.128291 
L 260.824168 84.005583 
L 262.668629 85.50334 
L 264.513089 88.579757 
L 266.35755 93.424507 
L 271.890931 110.768018 
L 273.735391 116.373068 
L 275.579852 122.821314 
L 277.424312 130.460242 
L 281.113233 147.122077 
L 282.957693 154.695636 
L 288.491074 176.09798 
L 292.179995 191.020639 
L 294.024456 197.25021 
L 295.868916 202.366297 
L 299.557837 210.94462 
L 301.402297 214.908995 
L 303.246758 218.247184 
L 305.091218 220.431616 
L 306.935678 221.27469 
L 308.780139 221.052058 
L 310.624599 220.218496 
L 312.46906 218.993134 
L 314.31352 217.188144 
L 316.15798 214.41623 
L 318.002441 210.469479 
L 319.846901 205.52427 
L 323.535822 194.232012 
L 325.380282 188.220607 
L 327.224743 181.730708 
L 329.069203 174.572947 
L 338.291505 136.191126 
L 343.824886 114.348306 
L 345.669347 107.831814 
L 347.513807 102.083522 
L 349.358268 97.056267 
L 351.202728 92.592796 
L 353.047188 88.626897 
L 354.891649 85.284311 
L 356.736109 82.800291 
L 358.58057 81.337755 
L 360.42503 80.872351 
L 362.26949 81.241166 
L 364.113951 82.301465 
L 365.958411 84.052359 
L 367.802872 86.614558 
L 369.647332 90.095294 
L 371.491792 94.465145 
L 373.336253 99.554943 
L 375.180713 105.168252 
L 377.025173 111.203397 
L 378.869634 117.677481 
L 380.714094 124.638232 
L 384.403015 139.753293 
L 389.936396 162.84603 
L 393.625317 177.680896 
L 397.314238 191.455249 
L 399.158698 197.548561 
L 401.003159 202.99815 
L 402.847619 207.815097 
L 402.847619 207.815097 
" style="fill:none;stroke:#0000ff;stroke-linecap:square;stroke-width:1.5;"/>
   </g>
   <g id="line2d_13">
    <path clip-path="url(#pa8a1d9a645)" d="M 35.8 151.069377 
L 37.64446 172.244298 
L 39.488921 174.018493 
L 41.333381 114.00292 
L 43.177842 139.347563 
L 45.022302 156.570923 
L 46.866762 139.093456 
L 48.711223 184.43004 
L 50.555683 165.16831 
L 52.400144 122.096409 
L 54.244604 154.664055 
L 56.089064 138.103508 
L 57.933525 139.057921 
L 59.777985 188.418685 
L 61.622446 151.460009 
L 63.466906 138.585879 
L 65.311366 161.443783 
L 67.155827 123.109032 
L 69.000287 148.3458 
L 70.844748 181.432941 
L 72.689208 140.731407 
L 74.533668 158.26498 
L 76.378129 157.721973 
L 78.222589 117.498069 
L 80.06705 160.457212 
L 81.91151 165.366746 
L 83.75597 138.593045 
L 85.600431 173.944764 
L 87.444891 146.6607 
L 89.289352 123.57933 
L 91.133812 168.127202 
L 92.978272 146.19618 
L 94.822733 146.033482 
L 96.667193 179.731457 
L 98.511654 134.834865 
L 100.356114 138.777843 
L 102.200574 166.701709 
L 104.045035 131.418239 
L 105.889495 159.171907 
L 107.733955 173.785029 
L 109.578416 129.016939 
L 111.422876 156.625137 
L 113.267337 156.23779 
L 115.111797 126.707131 
L 116.956257 171.246988 
L 118.800718 159.250536 
L 120.645178 132.943208 
L 122.489639 169.582718 
L 124.334099 141.382867 
L 126.178559 133.348281 
L 128.02302 175.905338 
L 129.86748 142.90485 
L 131.711941 145.54694 
L 133.556401 172.400656 
L 135.400861 129.112065 
L 137.245322 147.653916 
L 139.089782 170.259626 
L 140.934243 132.125699 
L 142.778703 161.461581 
L 144.623163 164.457324 
L 146.467624 125.389381 
L 148.312084 162.646941 
L 150.156545 156.299807 
L 152.001005 131.573397 
L 153.845465 173.545263 
L 155.689926 149.992896 
L 157.534386 132.311209 
L 159.378847 171.247528 
L 161.223307 140.008514 
L 163.067767 141.114473 
L 164.912228 176.24305 
L 166.756688 136.121966 
L 168.601149 147.061934 
L 170.445609 169.498133 
L 172.290069 128.598001 
L 174.13453 155.945653 
L 175.97899 168.217894 
L 177.823451 129.538238 
L 179.667911 163.167378 
L 181.512371 158.341773 
L 183.356832 127.157243 
L 185.201292 168.860629 
L 187.045753 153.023311 
L 188.890213 133.430289 
L 190.734673 173.463985 
L 192.579134 143.135768 
L 194.423594 136.270763 
L 196.268055 173.611493 
L 198.112515 137.501215 
L 199.956975 146.030381 
L 201.801436 173.404647 
L 203.645896 131.12977 
L 205.490357 151.719243 
L 207.334817 167.810839 
L 209.179277 128.645107 
L 211.023738 161.46297 
L 212.868198 163.165146 
L 214.712659 128.077991 
L 216.557119 166.405752 
L 218.401579 154.033886 
L 220.24604 130.381945 
L 222.0905 172.495405 
L 223.934961 147.570856 
L 225.779421 135.555117 
L 227.623881 173.618432 
L 229.468342 138.613972 
L 231.312802 141.765055 
L 233.157263 173.913424 
L 235.001723 133.873814 
L 236.846183 150.21822 
L 238.690644 170.11967 
L 240.535104 128.693124 
L 242.379564 157.417366 
L 244.224025 164.95584 
L 246.068485 128.407146 
L 247.912946 165.354652 
L 249.757406 157.630994 
L 251.601866 128.89726 
L 253.446327 170.021729 
L 255.290787 149.679871 
L 257.135248 133.664875 
L 258.979708 173.996416 
L 260.824168 142.025455 
L 262.668629 139.178678 
L 264.513089 173.706417 
L 266.35755 135.088276 
L 268.20201 147.158857 
L 270.04647 172.155764 
L 271.890931 130.601019 
L 273.735391 154.826797 
L 275.579852 166.758818 
L 277.424312 127.887111 
L 279.268772 162.581734 
L 281.113233 160.680895 
L 282.957693 128.697487 
L 284.802154 168.642652 
L 286.646614 152.411233 
L 288.491074 131.377705 
L 290.335535 172.736784 
L 292.179995 144.870569 
L 294.024456 137.223559 
L 295.868916 174.269464 
L 297.713376 137.335712 
L 299.557837 143.924262 
L 301.402297 172.877104 
L 303.246758 132.025343 
L 305.091218 152.238953 
L 306.935678 169.13552 
L 308.780139 128.546064 
L 310.624599 159.708213 
L 312.46906 162.907193 
L 314.31352 128.069784 
L 316.15798 166.784333 
L 318.002441 155.64509 
L 319.846901 130.142991 
L 321.691362 171.420555 
L 323.535822 147.427225 
L 325.380282 134.810775 
L 327.224743 174.11034 
L 329.069203 140.064908 
L 330.913664 141.410713 
L 332.758124 173.645076 
L 334.602584 133.600114 
L 336.447045 149.102547 
L 338.291505 170.808897 
L 340.135966 129.62167 
L 341.980426 157.146977 
L 343.824886 165.365034 
L 345.669347 127.830291 
L 347.513807 164.305553 
L 349.358268 158.39543 
L 351.202728 129.155126 
L 353.047188 170.073254 
L 354.891649 150.431831 
L 356.736109 132.793738 
L 358.58057 173.363443 
L 360.42503 142.608704 
L 362.26949 138.877369 
L 364.113951 174.207925 
L 365.958411 135.778532 
L 367.802872 146.195895 
L 369.647332 172.072512 
L 371.491792 130.752739 
L 373.336253 154.276447 
L 375.180713 167.638985 
L 377.025173 128.206034 
L 378.869634 161.833246 
L 380.714094 161.028828 
L 382.558555 128.31271 
L 384.403015 168.208799 
L 386.247475 153.411104 
L 388.091936 131.231085 
L 389.936396 172.466742 
L 391.780857 145.350931 
L 393.625317 136.413189 
L 395.469777 174.210799 
L 397.314238 138.115779 
L 399.158698 143.456655 
L 401.003159 173.175515 
L 402.847619 132.306794 
L 402.847619 132.306794 
" style="fill:none;stroke:#ffa500;stroke-linecap:square;stroke-width:1.5;"/>
   </g>
   <g id="line2d_14">
    <path clip-path="url(#pa8a1d9a645)" d="M 35.8 254.2 
L 35.8 10.8 
" style="fill:none;stroke:#000000;stroke-dasharray:1.85,0.8;stroke-dashoffset:0;stroke-width:0.5;"/>
   </g>
   <g id="line2d_15">
    <path clip-path="url(#pa8a1d9a645)" d="M 35.8 151.069377 
L 421.2 151.069377 
" style="fill:none;stroke:#000000;stroke-dasharray:1.85,0.8;stroke-dashoffset:0;stroke-width:0.5;"/>
   </g>
   <g id="patch_3">
    <path d="M 35.8 254.2 
L 35.8 10.8 
" style="fill:none;stroke:#000000;stroke-linecap:square;stroke-linejoin:miter;stroke-width:0.8;"/>
   </g>
   <g id="patch_4">
    <path d="M 421.2 254.2 
L 421.2 10.8 
" style="fill:none;stroke:#000000;stroke-linecap:square;stroke-linejoin:miter;stroke-width:0.8;"/>
   </g>
   <g id="patch_5">
    <path d="M 35.8 254.2 
L 421.2 254.2 
" style="fill:none;stroke:#000000;stroke-linecap:square;stroke-linejoin:miter;stroke-width:0.8;"/>
   </g>
   <g id="patch_6">
    <path d="M 35.8 10.8 
L 421.2 10.8 
" style="fill:none;stroke:#000000;stroke-linecap:square;stroke-linejoin:miter;stroke-width:0.8;"/>
   </g>
   <g id="legend_1">
    <g id="patch_7">
     <path d="M 346.3 48.15625 
L 414.2 48.15625 
Q 416.2 48.15625 416.2 46.15625 
L 416.2 17.8 
Q 416.2 15.8 414.2 15.8 
L 346.3 15.8 
Q 344.3 15.8 344.3 17.8 
L 344.3 46.15625 
Q 344.3 48.15625 346.3 48.15625 
z
" style="fill:#ffffff;opacity:0.8;stroke:#cccccc;stroke-linejoin:miter;"/>
    </g>
    <g id="line2d_16">
     <path d="M 348.3 23.898438 
L 368.3 23.898438 
" style="fill:none;stroke:#0000ff;stroke-linecap:square;stroke-width:1.5;"/>
    </g>
    <g id="line2d_17"/>
    <g id="text_3">
     <!-- $\omega \ll \omega_0$ -->
     <g transform="translate(376.3 27.398438)scale(0.1 -0.1)">
      <defs>
       <path d="M 21.390625 -1.421875 
Q 1.125 -1.421875 6.78125 27.59375 
Q 8.984375 39.0625 19.625 54.6875 
L 29.296875 54.6875 
Q 19.234375 39.0625 17 27.34375 
Q 12.796875 6.203125 23.734375 6.203125 
Q 33.84375 6.203125 38.71875 32.46875 
L 47.015625 32.46875 
Q 41.703125 6.0625 51.8125 6.203125 
Q 62.703125 6.296875 66.796875 27.34375 
Q 69.046875 39.0625 65.140625 54.6875 
L 74.8125 54.6875 
Q 79.296875 39.0625 77.09375 27.59375 
Q 71.53125 -1.46875 51.21875 -1.421875 
Q 37.9375 -1.375 39.109375 13.1875 
Q 34.28125 -1.421875 21.390625 -1.421875 
z
" id="DejaVuSans-Oblique-969"/>
       <path d="M 97.46875 50.828125 
L 57.125 31.296875 
L 97.46875 11.859375 
L 97.46875 2.25 
L 44.828125 27.640625 
L 44.828125 35.40625 
L 97.46875 60.890625 
z
M 59.859375 50.828125 
L 19.53125 31.296875 
L 59.859375 11.859375 
L 59.859375 2.25 
L 7.234375 27.640625 
L 7.234375 35.40625 
L 59.859375 60.890625 
z
" id="DejaVuSans-8810"/>
       <path d="M 31.78125 66.40625 
Q 24.171875 66.40625 20.328125 58.90625 
Q 16.5 51.421875 16.5 36.375 
Q 16.5 21.390625 20.328125 13.890625 
Q 24.171875 6.390625 31.78125 6.390625 
Q 39.453125 6.390625 43.28125 13.890625 
Q 47.125 21.390625 47.125 36.375 
Q 47.125 51.421875 43.28125 58.90625 
Q 39.453125 66.40625 31.78125 66.40625 
z
M 31.78125 74.21875 
Q 44.046875 74.21875 50.515625 64.515625 
Q 56.984375 54.828125 56.984375 36.375 
Q 56.984375 17.96875 50.515625 8.265625 
Q 44.046875 -1.421875 31.78125 -1.421875 
Q 19.53125 -1.421875 13.0625 8.265625 
Q 6.59375 17.96875 6.59375 36.375 
Q 6.59375 54.828125 13.0625 64.515625 
Q 19.53125 74.21875 31.78125 74.21875 
z
" id="DejaVuSans-48"/>
      </defs>
      <use transform="translate(0 0.109375)" xlink:href="#DejaVuSans-Oblique-969"/>
      <use transform="translate(103.222656 0.109375)" xlink:href="#DejaVuSans-8810"/>
      <use transform="translate(227.392578 0.109375)" xlink:href="#DejaVuSans-Oblique-969"/>
      <use transform="translate(311.132812 -16.296875)scale(0.7)" xlink:href="#DejaVuSans-48"/>
     </g>
    </g>
    <g id="line2d_18">
     <path d="M 348.3 38.576562 
L 368.3 38.576562 
" style="fill:none;stroke:#ffa500;stroke-linecap:square;stroke-width:1.5;"/>
    </g>
    <g id="line2d_19"/>
    <g id="text_4">
     <!-- $\omega \gg \omega_0$ -->
     <g transform="translate(376.3 42.076562)scale(0.1 -0.1)">
      <defs>
       <path d="M 7.234375 50.828125 
L 7.234375 60.890625 
L 59.859375 35.40625 
L 59.859375 27.640625 
L 7.234375 2.25 
L 7.234375 11.859375 
L 47.5625 31.296875 
z
M 44.828125 50.828125 
L 44.828125 60.890625 
L 97.46875 35.40625 
L 97.46875 27.640625 
L 44.828125 2.25 
L 44.828125 11.859375 
L 85.15625 31.296875 
z
" id="DejaVuSans-8811"/>
      </defs>
      <use transform="translate(0 0.109375)" xlink:href="#DejaVuSans-Oblique-969"/>
      <use transform="translate(103.222656 0.109375)" xlink:href="#DejaVuSans-8811"/>
      <use transform="translate(227.392578 0.109375)" xlink:href="#DejaVuSans-Oblique-969"/>
      <use transform="translate(311.132812 -16.296875)scale(0.7)" xlink:href="#DejaVuSans-48"/>
     </g>
    </g>
   </g>
  </g>
 </g>
 <defs>
  <clipPath id="pa8a1d9a645">
   <rect height="243.4" width="385.4" x="35.8" y="10.8"/>
  </clipPath>
 </defs>
</svg>
