<?xml version="1.0" encoding="utf-8" standalone="no"?>
<!DOCTYPE svg PUBLIC "-//W3C//DTD SVG 1.1//EN"
  "http://www.w3.org/Graphics/SVG/1.1/DTD/svg11.dtd">
<!-- Created with matplotlib (https://matplotlib.org/) -->
<svg height="360pt" version="1.1" viewBox="0 0 720 360" width="720pt" xmlns="http://www.w3.org/2000/svg" xmlns:xlink="http://www.w3.org/1999/xlink">
 <metadata>
  <rdf:RDF xmlns:cc="http://creativecommons.org/ns#" xmlns:dc="http://purl.org/dc/elements/1.1/" xmlns:rdf="http://www.w3.org/1999/02/22-rdf-syntax-ns#">
   <cc:Work>
    <dc:type rdf:resource="http://purl.org/dc/dcmitype/StillImage"/>
    <dc:date>2024-01-18T22:11:42.521758</dc:date>
    <dc:format>image/svg+xml</dc:format>
    <dc:creator>
     <cc:Agent>
      <dc:title>Matplotlib v3.3.2, https://matplotlib.org/</dc:title>
     </cc:Agent>
    </dc:creator>
   </cc:Work>
  </rdf:RDF>
 </metadata>
 <defs>
  <style type="text/css">*{stroke-linecap:butt;stroke-linejoin:round;}</style>
 </defs>
 <g id="figure_1">
  <g id="patch_1">
   <path d="M 0 360 
L 720 360 
L 720 0 
L 0 0 
z
" style="fill:none;"/>
  </g>
  <g id="axes_1">
   <g id="patch_2">
    <path d="M 90 315 
L 648 315 
L 648 43.2 
L 90 43.2 
z
" style="fill:none;"/>
   </g>
   <g id="patch_3">
    <path clip-path="url(#pab8ae8400b)" d="M 424.8 67.909091 
L 427.59 71.615685 
L 424.9395 71.615685 
L 424.9395 315 
L 424.6605 315 
L 424.6605 71.615685 
L 422.01 71.615685 
z
" style="fill:#0000ff;stroke:#0000ff;stroke-linejoin:miter;"/>
   </g>
   <g id="patch_4">
    <path clip-path="url(#pab8ae8400b)" d="M 675.9 290.290909 
L 663.345 292.144206 
L 663.345 290.352686 
L 396.9 290.352686 
L 396.9 290.229133 
L 663.345 290.229133 
L 663.345 288.437612 
z
" style="fill:#0000ff;stroke:#0000ff;stroke-linejoin:miter;"/>
   </g>
   <g id="patch_5">
    <path clip-path="url(#pab8ae8400b)" d="M 145.8 67.909091 
L 148.59 71.615685 
L 145.9395 71.615685 
L 145.9395 315 
L 145.6605 315 
L 145.6605 71.615685 
L 143.01 71.615685 
z
" style="fill:#ff0000;stroke:#ff0000;stroke-linejoin:miter;"/>
   </g>
   <g id="patch_6">
    <path clip-path="url(#pab8ae8400b)" d="M 396.9 290.290909 
L 384.345 292.144206 
L 384.345 290.352686 
L 117.9 290.352686 
L 117.9 290.229133 
L 384.345 290.229133 
L 384.345 288.437612 
z
" style="fill:#ff0000;stroke:#ff0000;stroke-linejoin:miter;"/>
   </g>
   <g id="patch_7">
    <path clip-path="url(#pab8ae8400b)" d="M 592.2 166.737757 
L 579.645 168.591054 
L 579.645 166.799533 
L 508.5 166.799533 
L 508.5 166.67598 
L 579.645 166.67598 
L 579.645 164.884459 
z
" style="fill:#0000ff;stroke:#0000ff;stroke-linejoin:miter;stroke-width:3;"/>
   </g>
   <g id="matplotlib.axis_1">
    <g id="xtick_1"/>
    <g id="xtick_2"/>
    <g id="xtick_3"/>
    <g id="xtick_4"/>
    <g id="xtick_5"/>
    <g id="xtick_6"/>
    <g id="xtick_7"/>
    <g id="xtick_8"/>
    <g id="xtick_9"/>
   </g>
   <g id="matplotlib.axis_2">
    <g id="ytick_1"/>
    <g id="ytick_2"/>
    <g id="ytick_3"/>
    <g id="ytick_4"/>
    <g id="ytick_5"/>
    <g id="ytick_6"/>
    <g id="ytick_7"/>
    <g id="ytick_8"/>
   </g>
   <g id="line2d_1">
    <path clip-path="url(#pab8ae8400b)" d="M 269.297297 290.290909 
L 304.486486 290.260119 
L 307.837838 290.013982 
L 311.189189 289.52269 
L 314.540541 288.7882 
L 317.891892 287.813441 
L 321.243243 286.602298 
L 324.594595 285.1596 
L 327.945946 283.491097 
L 331.297297 281.603441 
L 334.648649 279.504156 
L 338 277.20161 
L 341.351351 274.704983 
L 346.378378 270.618111 
L 351.405405 266.15376 
L 356.432432 261.351956 
L 361.459459 256.255748 
L 368.162162 249.082142 
L 374.864865 241.580906 
L 386.594595 228.026708 
L 398.324324 214.496232 
L 405.027027 207.029504 
L 411.72973 199.905014 
L 416.756757 194.854767 
L 421.783784 190.106292 
L 426.810811 185.702163 
L 431.837838 181.681862 
L 435.189189 179.232852 
L 438.540541 176.980292 
L 441.891892 174.933162 
L 445.243243 173.099622 
L 448.594595 171.486982 
L 451.945946 170.101669 
L 455.297297 168.949206 
L 458.648649 168.034187 
L 462 167.36026 
L 465.351351 166.930111 
L 468.702703 166.745455 
L 472.054054 166.807027 
L 475.405405 167.114583 
L 478.756757 167.666896 
L 482.108108 168.461766 
L 485.459459 169.496022 
L 488.810811 170.765542 
L 492.162162 172.265267 
L 495.513514 173.989216 
L 498.864865 175.930519 
L 502.216216 178.081436 
L 505.567568 180.433393 
L 508.918919 182.977015 
L 513.945946 187.12944 
L 518.972973 191.652899 
L 524 196.506837 
L 529.027027 201.647735 
L 535.72973 208.868669 
L 544.108108 218.320929 
L 570.918919 249.082142 
L 577.621622 256.255748 
L 582.648649 261.351956 
L 587.675676 266.15376 
L 592.702703 270.618111 
L 597.72973 274.704983 
L 601.081081 277.20161 
L 604.432432 279.504156 
L 607.783784 281.603441 
L 611.135135 283.491097 
L 614.486486 285.1596 
L 617.837838 286.602298 
L 621.189189 287.813441 
L 624.540541 288.7882 
L 627.891892 289.52269 
L 631.243243 290.013982 
L 634.594595 290.260119 
L 641.297297 290.290909 
L 721 290.290909 
L 721 290.290909 
" style="fill:none;stroke:#0000ff;stroke-linecap:square;stroke-width:3;"/>
   </g>
   <g id="text_1">
    <!-- $x'$ -->
    <g style="fill:#0000ff;" transform="translate(620.1 308.823882)scale(0.15 -0.15)">
     <defs>
      <path d="M 60.015625 54.6875 
L 34.90625 27.875 
L 50.296875 0 
L 39.984375 0 
L 28.421875 21.6875 
L 8.296875 0 
L -2.59375 0 
L 24.3125 28.8125 
L 10.015625 54.6875 
L 20.3125 54.6875 
L 30.8125 34.90625 
L 49.125 54.6875 
z
" id="DejaVuSans-Oblique-120"/>
      <path d="M 3.515625 5.421875 
Q 2.875 5.609375 2.875 6.390625 
L 15.09375 51.8125 
Q 15.671875 53.65625 17.078125 54.78125 
Q 18.5 55.90625 20.3125 55.90625 
Q 22.65625 55.90625 24.4375 54.359375 
Q 26.21875 52.828125 26.21875 50.484375 
Q 26.21875 49.46875 25.6875 48.1875 
L 7.625 4.984375 
Q 7.28125 4.296875 6.6875 4.296875 
Q 6.15625 4.296875 5 4.78125 
Q 3.859375 5.28125 3.515625 5.421875 
z
" id="Cmsy10-48"/>
     </defs>
     <use transform="translate(0 0.584375)" xlink:href="#DejaVuSans-Oblique-120"/>
     <use transform="translate(63.645833 38.865625)scale(0.7)" xlink:href="#Cmsy10-48"/>
    </g>
   </g>
   <g id="text_2">
    <!-- $y'$ -->
    <g style="fill:#0000ff;" transform="translate(410.85 74.072892)scale(0.15 -0.15)">
     <defs>
      <path d="M 24.8125 -5.078125 
Q 18.5625 -15.578125 14.625 -18.1875 
Q 10.6875 -20.796875 4.59375 -20.796875 
L -2.484375 -20.796875 
L -0.984375 -13.28125 
L 4.203125 -13.28125 
Q 7.953125 -13.28125 10.59375 -11.234375 
Q 13.234375 -9.1875 16.5 -3.21875 
L 19.28125 2 
L 7.171875 54.6875 
L 16.703125 54.6875 
L 25.78125 12.796875 
L 50.875 54.6875 
L 60.296875 54.6875 
z
" id="DejaVuSans-Oblique-121"/>
     </defs>
     <use transform="translate(0 0.584375)" xlink:href="#DejaVuSans-Oblique-121"/>
     <use transform="translate(63.645833 38.865625)scale(0.7)" xlink:href="#Cmsy10-48"/>
    </g>
   </g>
   <g id="text_3">
    <!-- $O'$ -->
    <g style="fill:#0000ff;" transform="translate(396.9 315.00154)scale(0.15 -0.15)">
     <defs>
      <path d="M 45.609375 66.21875 
Q 37.5 66.21875 31.296875 62.28125 
Q 25.09375 58.34375 20.515625 50.296875 
Q 17.578125 45.171875 16.03125 39.40625 
Q 14.5 33.640625 14.5 27.78125 
Q 14.5 17.625 19.359375 12.109375 
Q 24.21875 6.59375 33.109375 6.59375 
Q 41.109375 6.59375 47.375 10.5625 
Q 53.65625 14.546875 58.109375 22.40625 
Q 61.078125 27.6875 62.640625 33.46875 
Q 64.203125 39.265625 64.203125 45.015625 
Q 64.203125 55.125 59.3125 60.671875 
Q 54.4375 66.21875 45.609375 66.21875 
z
M 32.8125 -1.421875 
Q 19.390625 -1.421875 11.6875 6.53125 
Q 4 14.5 4 28.328125 
Q 4 36.234375 7 44.484375 
Q 10.015625 52.734375 15.28125 59.1875 
Q 21.484375 66.75 29.09375 70.484375 
Q 36.71875 74.21875 45.90625 74.21875 
Q 59.28125 74.21875 66.984375 66.328125 
Q 74.703125 58.453125 74.703125 44.828125 
Q 74.703125 36.421875 71.765625 28.3125 
Q 68.84375 20.21875 63.375 13.625 
Q 57.125 6 49.578125 2.28125 
Q 42.046875 -1.421875 32.8125 -1.421875 
z
" id="DejaVuSans-Oblique-79"/>
     </defs>
     <use transform="translate(0 0.584375)" xlink:href="#DejaVuSans-Oblique-79"/>
     <use transform="translate(85.911458 38.865625)scale(0.7)" xlink:href="#Cmsy10-48"/>
    </g>
   </g>
   <g id="text_4">
    <!-- $x$ -->
    <g style="fill:#ff0000;" transform="translate(341.1 308.823882)scale(0.15 -0.15)">
     <use transform="translate(0 0.3125)" xlink:href="#DejaVuSans-Oblique-120"/>
    </g>
   </g>
   <g id="text_5">
    <!-- $y$ -->
    <g style="fill:#ff0000;" transform="translate(131.85 74.072892)scale(0.15 -0.15)">
     <use transform="translate(0 0.3125)" xlink:href="#DejaVuSans-Oblique-121"/>
    </g>
   </g>
   <g id="text_6">
    <!-- $O$ -->
    <g style="fill:#ff0000;" transform="translate(117.9 315.00154)scale(0.15 -0.15)">
     <use transform="translate(0 0.78125)" xlink:href="#DejaVuSans-Oblique-79"/>
    </g>
   </g>
   <g id="text_7">
    <!-- $v$ ms$^{–1}$ -->
    <g style="fill:#0000ff;" transform="translate(522.45 191.448387)scale(0.15 -0.15)">
     <defs>
      <path d="M 7.171875 54.6875 
L 16.703125 54.6875 
L 24.703125 8.203125 
L 50.875 54.6875 
L 60.40625 54.6875 
L 29.296875 0 
L 17.1875 0 
z
" id="DejaVuSans-Oblique-118"/>
      <path id="DejaVuSans-32"/>
      <path d="M 52 44.1875 
Q 55.375 50.25 60.0625 53.125 
Q 64.75 56 71.09375 56 
Q 79.640625 56 84.28125 50.015625 
Q 88.921875 44.046875 88.921875 33.015625 
L 88.921875 0 
L 79.890625 0 
L 79.890625 32.71875 
Q 79.890625 40.578125 77.09375 44.375 
Q 74.3125 48.1875 68.609375 48.1875 
Q 61.625 48.1875 57.5625 43.546875 
Q 53.515625 38.921875 53.515625 30.90625 
L 53.515625 0 
L 44.484375 0 
L 44.484375 32.71875 
Q 44.484375 40.625 41.703125 44.40625 
Q 38.921875 48.1875 33.109375 48.1875 
Q 26.21875 48.1875 22.15625 43.53125 
Q 18.109375 38.875 18.109375 30.90625 
L 18.109375 0 
L 9.078125 0 
L 9.078125 54.6875 
L 18.109375 54.6875 
L 18.109375 46.1875 
Q 21.1875 51.21875 25.484375 53.609375 
Q 29.78125 56 35.6875 56 
Q 41.65625 56 45.828125 52.96875 
Q 50 49.953125 52 44.1875 
z
" id="DejaVuSans-109"/>
      <path d="M 44.28125 53.078125 
L 44.28125 44.578125 
Q 40.484375 46.53125 36.375 47.5 
Q 32.28125 48.484375 27.875 48.484375 
Q 21.1875 48.484375 17.84375 46.4375 
Q 14.5 44.390625 14.5 40.28125 
Q 14.5 37.15625 16.890625 35.375 
Q 19.28125 33.59375 26.515625 31.984375 
L 29.59375 31.296875 
Q 39.15625 29.25 43.1875 25.515625 
Q 47.21875 21.78125 47.21875 15.09375 
Q 47.21875 7.46875 41.1875 3.015625 
Q 35.15625 -1.421875 24.609375 -1.421875 
Q 20.21875 -1.421875 15.453125 -0.5625 
Q 10.6875 0.296875 5.421875 2 
L 5.421875 11.28125 
Q 10.40625 8.6875 15.234375 7.390625 
Q 20.0625 6.109375 24.8125 6.109375 
Q 31.15625 6.109375 34.5625 8.28125 
Q 37.984375 10.453125 37.984375 14.40625 
Q 37.984375 18.0625 35.515625 20.015625 
Q 33.0625 21.96875 24.703125 23.78125 
L 21.578125 24.515625 
Q 13.234375 26.265625 9.515625 29.90625 
Q 5.8125 33.546875 5.8125 39.890625 
Q 5.8125 47.609375 11.28125 51.796875 
Q 16.75 56 26.8125 56 
Q 31.78125 56 36.171875 55.265625 
Q 40.578125 54.546875 44.28125 53.078125 
z
" id="DejaVuSans-115"/>
      <path d="M 4.890625 30.90625 
L 45.125 30.90625 
L 45.125 23.875 
L 4.890625 23.875 
z
" id="DejaVuSansDisplay-8211"/>
      <path d="M 12.40625 8.296875 
L 28.515625 8.296875 
L 28.515625 63.921875 
L 10.984375 60.40625 
L 10.984375 69.390625 
L 28.421875 72.90625 
L 38.28125 72.90625 
L 38.28125 8.296875 
L 54.390625 8.296875 
L 54.390625 0 
L 12.40625 0 
z
" id="DejaVuSans-49"/>
     </defs>
     <use transform="translate(0 0.684375)" xlink:href="#DejaVuSans-Oblique-118"/>
     <use transform="translate(59.179688 0.684375)" xlink:href="#DejaVuSans-32"/>
     <use transform="translate(90.966797 0.684375)" xlink:href="#DejaVuSans-109"/>
     <use transform="translate(188.378906 0.684375)" xlink:href="#DejaVuSans-115"/>
     <use transform="translate(241.435547 38.965625)scale(0.7)" xlink:href="#DejaVuSansDisplay-8211"/>
     <use transform="translate(276.435547 38.965625)scale(0.7)" xlink:href="#DejaVuSans-49"/>
    </g>
   </g>
   <g id="patch_8">
    <path d="M 421.685338 104.96118 
Q 285.301309 104.96118 148.91728 104.96118 
" style="fill:none;stroke:#000000;stroke-linecap:round;"/>
    <path d="M 417.685338 102.96118 
L 421.685338 104.96118 
L 417.685338 106.96118 
" style="fill:none;stroke:#000000;stroke-linecap:round;"/>
    <path d="M 152.91728 106.96118 
L 148.91728 104.96118 
L 152.91728 102.96118 
" style="fill:none;stroke:#000000;stroke-linecap:round;"/>
   </g>
   <g id="text_8">
    <!-- $vt$ -->
    <g transform="translate(271.35 98.783523)scale(0.15 -0.15)">
     <defs>
      <path d="M 42.28125 54.6875 
L 40.921875 47.703125 
L 23 47.703125 
L 17.1875 18.015625 
Q 16.890625 16.359375 16.75 15.234375 
Q 16.609375 14.109375 16.609375 13.484375 
Q 16.609375 10.359375 18.484375 8.9375 
Q 20.359375 7.515625 24.515625 7.515625 
L 33.59375 7.515625 
L 32.078125 0 
L 23.484375 0 
Q 15.484375 0 11.546875 3.125 
Q 7.625 6.25 7.625 12.59375 
Q 7.625 13.71875 7.765625 15.0625 
Q 7.90625 16.40625 8.203125 18.015625 
L 14.015625 47.703125 
L 6.390625 47.703125 
L 7.8125 54.6875 
L 15.28125 54.6875 
L 18.3125 70.21875 
L 27.296875 70.21875 
L 24.3125 54.6875 
z
" id="DejaVuSans-Oblique-116"/>
     </defs>
     <use transform="translate(0 0.78125)" xlink:href="#DejaVuSans-Oblique-118"/>
     <use transform="translate(59.179688 0.78125)" xlink:href="#DejaVuSans-Oblique-116"/>
    </g>
   </g>
  </g>
 </g>
 <defs>
  <clipPath id="pab8ae8400b">
   <rect height="271.8" width="558" x="90" y="43.2"/>
  </clipPath>
 </defs>
</svg>
