<?xml version="1.0" encoding="utf-8" standalone="no"?>
<!DOCTYPE svg PUBLIC "-//W3C//DTD SVG 1.1//EN"
  "http://www.w3.org/Graphics/SVG/1.1/DTD/svg11.dtd">
<!-- Created with matplotlib (https://matplotlib.org/) -->
<svg height="360pt" version="1.1" viewBox="0 0 504 360" width="504pt" xmlns="http://www.w3.org/2000/svg" xmlns:xlink="http://www.w3.org/1999/xlink">
 <metadata>
  <rdf:RDF xmlns:cc="http://creativecommons.org/ns#" xmlns:dc="http://purl.org/dc/elements/1.1/" xmlns:rdf="http://www.w3.org/1999/02/22-rdf-syntax-ns#">
   <cc:Work>
    <dc:type rdf:resource="http://purl.org/dc/dcmitype/StillImage"/>
    <dc:date>2024-02-12T16:05:24.093754</dc:date>
    <dc:format>image/svg+xml</dc:format>
    <dc:creator>
     <cc:Agent>
      <dc:title>Matplotlib v3.3.2, https://matplotlib.org/</dc:title>
     </cc:Agent>
    </dc:creator>
   </cc:Work>
  </rdf:RDF>
 </metadata>
 <defs>
  <style type="text/css">*{stroke-linecap:butt;stroke-linejoin:round;}</style>
 </defs>
 <g id="figure_1">
  <g id="patch_1">
   <path d="M 0 360 
L 504 360 
L 504 0 
L 0 0 
z
" style="fill:none;"/>
  </g>
  <g id="axes_1">
   <g id="patch_2">
    <path clip-path="url(#pab8cb12e9d)" d="M 98.509091 75.816 
L 101.172273 78.2622 
L 98.597864 78.2622 
L 98.597864 173.664 
L 98.420318 173.664 
L 98.420318 78.2622 
L 95.845909 78.2622 
z
" style="stroke:#000000;stroke-linejoin:miter;"/>
   </g>
   <g id="patch_3">
    <path clip-path="url(#pab8cb12e9d)" d="M 98.509091 184.536 
L 101.172273 186.9822 
L 98.597864 186.9822 
L 98.597864 298.692 
L 98.420318 298.692 
L 98.420318 186.9822 
L 95.845909 186.9822 
z
" style="stroke:#000000;stroke-linejoin:miter;"/>
   </g>
   <g id="line2d_1">
    <path clip-path="url(#pab8cb12e9d)" d="M 98.509091 124.74 
L 102.095868 117.858434 
L 105.682645 111.087595 
L 109.269421 104.536429 
L 112.856198 98.310345 
L 116.442975 92.509525 
L 120.029752 87.227305 
L 123.616529 82.548678 
L 127.203306 78.548926 
L 130.790083 75.292405 
L 134.37686 72.831514 
L 137.963636 71.205851 
L 141.550413 70.441571 
L 145.13719 70.550974 
L 148.723967 71.532299 
L 152.310744 73.369755 
L 155.897521 76.033778 
L 159.484298 79.481503 
L 163.071074 83.657453 
L 166.657851 88.494437 
L 170.244628 93.914626 
L 173.831405 99.830806 
L 177.418182 106.147785 
L 181.004959 112.763919 
L 184.591736 119.572753 
L 188.178512 126.46473 
L 191.765289 133.328956 
L 195.352066 140.054982 
L 198.938843 146.534584 
L 202.52562 152.663503 
L 206.112397 158.343122 
L 209.699174 163.482055 
L 213.28595 167.997614 
L 216.872727 171.817141 
L 220.459504 174.879179 
L 224.046281 177.13446 
L 227.633058 178.546694 
L 231.219835 179.093158 
L 234.806612 178.765059 
L 238.393388 177.567677 
L 241.980165 175.520278 
L 245.566942 172.655805 
L 249.153719 169.020349 
L 252.740496 164.672405 
L 256.327273 159.681934 
L 259.91405 154.129235 
L 263.500826 148.103651 
L 267.087603 141.702138 
L 270.67438 135.027698 
L 274.261157 128.187724 
L 277.847934 121.292276 
L 281.434711 114.452302 
L 285.021488 107.777862 
L 288.608264 101.376349 
L 292.195041 95.350765 
L 295.781818 89.798066 
L 299.368595 84.807595 
L 302.955372 80.459651 
L 306.542149 76.824195 
L 310.128926 73.959722 
L 313.715702 71.912323 
L 317.302479 70.714941 
L 320.889256 70.386842 
L 324.476033 70.933306 
L 328.06281 72.34554 
L 331.649587 74.600821 
L 335.236364 77.662859 
L 338.82314 81.482386 
L 342.409917 85.997945 
L 345.996694 91.136878 
L 349.583471 96.816497 
L 353.170248 102.945416 
L 356.757025 109.425018 
L 360.343802 116.151044 
L 363.930579 123.01527 
L 367.517355 129.907247 
L 371.104132 136.716081 
L 374.690909 143.332215 
L 378.277686 149.649194 
L 381.864463 155.565374 
L 385.45124 160.985563 
L 389.038017 165.822547 
L 392.624793 169.998497 
L 396.21157 173.446222 
L 399.798347 176.110245 
L 403.385124 177.947701 
L 406.971901 178.929026 
L 410.558678 179.038429 
L 414.145455 178.274149 
L 417.732231 176.648486 
L 421.319008 174.187595 
L 424.905785 170.931074 
L 428.492562 166.931322 
L 432.079339 162.252695 
L 435.666116 156.970475 
L 439.252893 151.169655 
L 442.839669 144.943571 
L 446.426446 138.392405 
L 450.013223 131.621566 
L 453.6 124.74 
" style="fill:none;stroke:#808080;stroke-dasharray:3.7,1.6;stroke-dashoffset:0;"/>
   </g>
   <g id="line2d_2">
    <path clip-path="url(#pab8cb12e9d)" d="M 98.509091 179.1 
L 102.095868 180.842309 
L 105.682645 185.957548 
L 109.269421 194.117818 
L 112.856198 204.800024 
L 116.442975 217.319408 
L 120.029752 230.873447 
L 123.616529 244.59329 
L 127.203306 257.599461 
L 130.790083 269.058229 
L 134.37686 278.235059 
L 137.963636 284.541691 
L 141.550413 287.573854 
L 145.13719 287.137178 
L 148.723967 283.259656 
L 152.310744 276.189846 
L 155.897521 266.380943 
L 159.484298 254.461721 
L 163.071074 241.196235 
L 166.657851 227.434835 
L 170.244628 214.059665 
L 173.831405 201.928106 
L 177.418182 191.817824 
L 181.004959 184.376913 
L 184.591736 180.082356 
L 188.178512 179.209444 
L 191.765289 181.814134 
L 195.352066 187.729458 
L 198.938843 196.576228 
L 202.52562 207.787344 
L 206.112397 220.644144 
L 209.699174 234.322474 
L 213.28595 247.945517 
L 216.872727 260.64 
L 220.459504 271.592175 
L 224.046281 280.099978 
L 227.633058 285.618038 
L 231.219835 287.792632 
L 234.806612 286.484363 
L 238.393388 281.777095 
L 241.980165 273.972575 
L 245.566942 263.571095 
L 249.153719 251.239414 
L 252.740496 237.768028 
L 256.327273 224.020485 
L 259.91405 210.87804 
L 263.500826 199.183157 
L 267.087603 189.685509 
L 270.67438 182.993919 
L 274.261157 179.537336 
L 277.847934 179.537336 
L 281.434711 182.993919 
L 285.021488 189.685509 
L 288.608264 199.183157 
L 292.195041 210.87804 
L 295.781818 224.020485 
L 299.368595 237.768028 
L 302.955372 251.239414 
L 306.542149 263.571095 
L 310.128926 273.972575 
L 313.715702 281.777095 
L 317.302479 286.484363 
L 320.889256 287.792632 
L 324.476033 285.618038 
L 328.06281 280.099978 
L 331.649587 271.592175 
L 335.236364 260.64 
L 338.82314 247.945517 
L 342.409917 234.322474 
L 345.996694 220.644144 
L 349.583471 207.787344 
L 353.170248 196.576228 
L 356.757025 187.729458 
L 360.343802 181.814134 
L 363.930579 179.209444 
L 367.517355 180.082356 
L 371.104132 184.376913 
L 374.690909 191.817824 
L 378.277686 201.928106 
L 381.864463 214.059665 
L 385.45124 227.434835 
L 389.038017 241.196235 
L 392.624793 254.461721 
L 396.21157 266.380943 
L 399.798347 276.189846 
L 403.385124 283.259656 
L 406.971901 287.137178 
L 410.558678 287.573854 
L 414.145455 284.541691 
L 417.732231 278.235059 
L 421.319008 269.058229 
L 424.905785 257.599461 
L 428.492562 244.59329 
L 432.079339 230.873447 
L 435.666116 217.319408 
L 439.252893 204.800024 
L 442.839669 194.117818 
L 446.426446 185.957548 
L 450.013223 180.842309 
L 453.6 179.1 
" style="fill:none;stroke:#808080;stroke-dasharray:3.7,1.6;stroke-dashoffset:0;"/>
   </g>
   <g id="line2d_3">
    <path clip-path="url(#pab8cb12e9d)" d="M 267.087603 141.702138 
L 270.67438 135.027698 
L 274.261157 128.187724 
L 277.847934 121.292276 
" style="fill:none;stroke:#0000ff;stroke-linecap:square;stroke-width:10;"/>
   </g>
   <g id="line2d_4">
    <defs>
     <path d="M -7.5 7.5 
L 7.5 7.5 
L 7.5 -7.5 
L -7.5 -7.5 
z
" id="mc537b70845" style="stroke:#0000ff;stroke-linejoin:miter;"/>
    </defs>
    <g clip-path="url(#pab8cb12e9d)">
     <use style="fill:#0000ff;stroke:#0000ff;stroke-linejoin:miter;" x="274.261157" xlink:href="#mc537b70845" y="179.1"/>
     <use style="fill:#0000ff;stroke:#0000ff;stroke-linejoin:miter;" x="274.261157" xlink:href="#mc537b70845" y="179.1"/>
     <use style="fill:#0000ff;stroke:#0000ff;stroke-linejoin:miter;" x="274.261157" xlink:href="#mc537b70845" y="179.1"/>
     <use style="fill:#0000ff;stroke:#0000ff;stroke-linejoin:miter;" x="274.261157" xlink:href="#mc537b70845" y="179.1"/>
     <use style="fill:#0000ff;stroke:#0000ff;stroke-linejoin:miter;" x="274.261157" xlink:href="#mc537b70845" y="179.1"/>
     <use style="fill:#0000ff;stroke:#0000ff;stroke-linejoin:miter;" x="274.261157" xlink:href="#mc537b70845" y="179.1"/>
     <use style="fill:#0000ff;stroke:#0000ff;stroke-linejoin:miter;" x="274.261157" xlink:href="#mc537b70845" y="179.1"/>
     <use style="fill:#0000ff;stroke:#0000ff;stroke-linejoin:miter;" x="274.261157" xlink:href="#mc537b70845" y="179.1"/>
     <use style="fill:#0000ff;stroke:#0000ff;stroke-linejoin:miter;" x="274.261157" xlink:href="#mc537b70845" y="179.1"/>
     <use style="fill:#0000ff;stroke:#0000ff;stroke-linejoin:miter;" x="274.261157" xlink:href="#mc537b70845" y="179.1"/>
     <use style="fill:#0000ff;stroke:#0000ff;stroke-linejoin:miter;" x="274.261157" xlink:href="#mc537b70845" y="179.1"/>
     <use style="fill:#0000ff;stroke:#0000ff;stroke-linejoin:miter;" x="274.261157" xlink:href="#mc537b70845" y="179.1"/>
     <use style="fill:#0000ff;stroke:#0000ff;stroke-linejoin:miter;" x="274.261157" xlink:href="#mc537b70845" y="179.1"/>
     <use style="fill:#0000ff;stroke:#0000ff;stroke-linejoin:miter;" x="274.261157" xlink:href="#mc537b70845" y="179.1"/>
     <use style="fill:#0000ff;stroke:#0000ff;stroke-linejoin:miter;" x="274.261157" xlink:href="#mc537b70845" y="179.1"/>
     <use style="fill:#0000ff;stroke:#0000ff;stroke-linejoin:miter;" x="274.261157" xlink:href="#mc537b70845" y="179.1"/>
     <use style="fill:#0000ff;stroke:#0000ff;stroke-linejoin:miter;" x="274.261157" xlink:href="#mc537b70845" y="179.1"/>
     <use style="fill:#0000ff;stroke:#0000ff;stroke-linejoin:miter;" x="274.261157" xlink:href="#mc537b70845" y="179.1"/>
     <use style="fill:#0000ff;stroke:#0000ff;stroke-linejoin:miter;" x="274.261157" xlink:href="#mc537b70845" y="179.1"/>
     <use style="fill:#0000ff;stroke:#0000ff;stroke-linejoin:miter;" x="274.261157" xlink:href="#mc537b70845" y="179.1"/>
     <use style="fill:#0000ff;stroke:#0000ff;stroke-linejoin:miter;" x="274.261157" xlink:href="#mc537b70845" y="179.1"/>
     <use style="fill:#0000ff;stroke:#0000ff;stroke-linejoin:miter;" x="274.261157" xlink:href="#mc537b70845" y="179.1"/>
     <use style="fill:#0000ff;stroke:#0000ff;stroke-linejoin:miter;" x="274.261157" xlink:href="#mc537b70845" y="179.1"/>
     <use style="fill:#0000ff;stroke:#0000ff;stroke-linejoin:miter;" x="274.261157" xlink:href="#mc537b70845" y="179.1"/>
     <use style="fill:#0000ff;stroke:#0000ff;stroke-linejoin:miter;" x="274.261157" xlink:href="#mc537b70845" y="179.1"/>
     <use style="fill:#0000ff;stroke:#0000ff;stroke-linejoin:miter;" x="274.261157" xlink:href="#mc537b70845" y="179.1"/>
     <use style="fill:#0000ff;stroke:#0000ff;stroke-linejoin:miter;" x="274.261157" xlink:href="#mc537b70845" y="179.1"/>
     <use style="fill:#0000ff;stroke:#0000ff;stroke-linejoin:miter;" x="274.261157" xlink:href="#mc537b70845" y="179.1"/>
     <use style="fill:#0000ff;stroke:#0000ff;stroke-linejoin:miter;" x="274.261157" xlink:href="#mc537b70845" y="179.1"/>
     <use style="fill:#0000ff;stroke:#0000ff;stroke-linejoin:miter;" x="274.261157" xlink:href="#mc537b70845" y="179.1"/>
     <use style="fill:#0000ff;stroke:#0000ff;stroke-linejoin:miter;" x="274.261157" xlink:href="#mc537b70845" y="179.1"/>
     <use style="fill:#0000ff;stroke:#0000ff;stroke-linejoin:miter;" x="274.261157" xlink:href="#mc537b70845" y="179.1"/>
     <use style="fill:#0000ff;stroke:#0000ff;stroke-linejoin:miter;" x="274.261157" xlink:href="#mc537b70845" y="179.1"/>
     <use style="fill:#0000ff;stroke:#0000ff;stroke-linejoin:miter;" x="274.261157" xlink:href="#mc537b70845" y="179.1"/>
     <use style="fill:#0000ff;stroke:#0000ff;stroke-linejoin:miter;" x="274.261157" xlink:href="#mc537b70845" y="179.1"/>
     <use style="fill:#0000ff;stroke:#0000ff;stroke-linejoin:miter;" x="274.261157" xlink:href="#mc537b70845" y="179.1"/>
     <use style="fill:#0000ff;stroke:#0000ff;stroke-linejoin:miter;" x="274.261157" xlink:href="#mc537b70845" y="179.1"/>
     <use style="fill:#0000ff;stroke:#0000ff;stroke-linejoin:miter;" x="274.261157" xlink:href="#mc537b70845" y="179.1"/>
     <use style="fill:#0000ff;stroke:#0000ff;stroke-linejoin:miter;" x="274.261157" xlink:href="#mc537b70845" y="179.1"/>
     <use style="fill:#0000ff;stroke:#0000ff;stroke-linejoin:miter;" x="274.261157" xlink:href="#mc537b70845" y="179.1"/>
     <use style="fill:#0000ff;stroke:#0000ff;stroke-linejoin:miter;" x="274.261157" xlink:href="#mc537b70845" y="179.1"/>
     <use style="fill:#0000ff;stroke:#0000ff;stroke-linejoin:miter;" x="274.261157" xlink:href="#mc537b70845" y="179.1"/>
     <use style="fill:#0000ff;stroke:#0000ff;stroke-linejoin:miter;" x="274.261157" xlink:href="#mc537b70845" y="179.1"/>
     <use style="fill:#0000ff;stroke:#0000ff;stroke-linejoin:miter;" x="274.261157" xlink:href="#mc537b70845" y="179.1"/>
     <use style="fill:#0000ff;stroke:#0000ff;stroke-linejoin:miter;" x="274.261157" xlink:href="#mc537b70845" y="179.1"/>
     <use style="fill:#0000ff;stroke:#0000ff;stroke-linejoin:miter;" x="274.261157" xlink:href="#mc537b70845" y="179.1"/>
     <use style="fill:#0000ff;stroke:#0000ff;stroke-linejoin:miter;" x="274.261157" xlink:href="#mc537b70845" y="179.1"/>
     <use style="fill:#0000ff;stroke:#0000ff;stroke-linejoin:miter;" x="274.261157" xlink:href="#mc537b70845" y="179.1"/>
     <use style="fill:#0000ff;stroke:#0000ff;stroke-linejoin:miter;" x="274.261157" xlink:href="#mc537b70845" y="179.1"/>
     <use style="fill:#0000ff;stroke:#0000ff;stroke-linejoin:miter;" x="274.261157" xlink:href="#mc537b70845" y="179.1"/>
     <use style="fill:#0000ff;stroke:#0000ff;stroke-linejoin:miter;" x="274.261157" xlink:href="#mc537b70845" y="179.1"/>
     <use style="fill:#0000ff;stroke:#0000ff;stroke-linejoin:miter;" x="274.261157" xlink:href="#mc537b70845" y="179.1"/>
     <use style="fill:#0000ff;stroke:#0000ff;stroke-linejoin:miter;" x="274.261157" xlink:href="#mc537b70845" y="179.1"/>
     <use style="fill:#0000ff;stroke:#0000ff;stroke-linejoin:miter;" x="274.261157" xlink:href="#mc537b70845" y="179.1"/>
     <use style="fill:#0000ff;stroke:#0000ff;stroke-linejoin:miter;" x="274.261157" xlink:href="#mc537b70845" y="179.1"/>
     <use style="fill:#0000ff;stroke:#0000ff;stroke-linejoin:miter;" x="274.261157" xlink:href="#mc537b70845" y="179.1"/>
     <use style="fill:#0000ff;stroke:#0000ff;stroke-linejoin:miter;" x="274.261157" xlink:href="#mc537b70845" y="179.1"/>
     <use style="fill:#0000ff;stroke:#0000ff;stroke-linejoin:miter;" x="274.261157" xlink:href="#mc537b70845" y="179.1"/>
     <use style="fill:#0000ff;stroke:#0000ff;stroke-linejoin:miter;" x="274.261157" xlink:href="#mc537b70845" y="179.1"/>
     <use style="fill:#0000ff;stroke:#0000ff;stroke-linejoin:miter;" x="274.261157" xlink:href="#mc537b70845" y="179.1"/>
     <use style="fill:#0000ff;stroke:#0000ff;stroke-linejoin:miter;" x="274.261157" xlink:href="#mc537b70845" y="179.1"/>
     <use style="fill:#0000ff;stroke:#0000ff;stroke-linejoin:miter;" x="274.261157" xlink:href="#mc537b70845" y="179.1"/>
     <use style="fill:#0000ff;stroke:#0000ff;stroke-linejoin:miter;" x="274.261157" xlink:href="#mc537b70845" y="179.1"/>
     <use style="fill:#0000ff;stroke:#0000ff;stroke-linejoin:miter;" x="274.261157" xlink:href="#mc537b70845" y="179.1"/>
     <use style="fill:#0000ff;stroke:#0000ff;stroke-linejoin:miter;" x="274.261157" xlink:href="#mc537b70845" y="179.1"/>
     <use style="fill:#0000ff;stroke:#0000ff;stroke-linejoin:miter;" x="274.261157" xlink:href="#mc537b70845" y="179.1"/>
     <use style="fill:#0000ff;stroke:#0000ff;stroke-linejoin:miter;" x="274.261157" xlink:href="#mc537b70845" y="179.1"/>
     <use style="fill:#0000ff;stroke:#0000ff;stroke-linejoin:miter;" x="274.261157" xlink:href="#mc537b70845" y="179.1"/>
     <use style="fill:#0000ff;stroke:#0000ff;stroke-linejoin:miter;" x="274.261157" xlink:href="#mc537b70845" y="179.1"/>
     <use style="fill:#0000ff;stroke:#0000ff;stroke-linejoin:miter;" x="274.261157" xlink:href="#mc537b70845" y="179.1"/>
     <use style="fill:#0000ff;stroke:#0000ff;stroke-linejoin:miter;" x="274.261157" xlink:href="#mc537b70845" y="179.1"/>
     <use style="fill:#0000ff;stroke:#0000ff;stroke-linejoin:miter;" x="274.261157" xlink:href="#mc537b70845" y="179.1"/>
     <use style="fill:#0000ff;stroke:#0000ff;stroke-linejoin:miter;" x="274.261157" xlink:href="#mc537b70845" y="179.1"/>
     <use style="fill:#0000ff;stroke:#0000ff;stroke-linejoin:miter;" x="274.261157" xlink:href="#mc537b70845" y="179.1"/>
     <use style="fill:#0000ff;stroke:#0000ff;stroke-linejoin:miter;" x="274.261157" xlink:href="#mc537b70845" y="179.1"/>
     <use style="fill:#0000ff;stroke:#0000ff;stroke-linejoin:miter;" x="274.261157" xlink:href="#mc537b70845" y="179.1"/>
     <use style="fill:#0000ff;stroke:#0000ff;stroke-linejoin:miter;" x="274.261157" xlink:href="#mc537b70845" y="179.1"/>
     <use style="fill:#0000ff;stroke:#0000ff;stroke-linejoin:miter;" x="274.261157" xlink:href="#mc537b70845" y="179.1"/>
     <use style="fill:#0000ff;stroke:#0000ff;stroke-linejoin:miter;" x="274.261157" xlink:href="#mc537b70845" y="179.1"/>
     <use style="fill:#0000ff;stroke:#0000ff;stroke-linejoin:miter;" x="274.261157" xlink:href="#mc537b70845" y="179.1"/>
     <use style="fill:#0000ff;stroke:#0000ff;stroke-linejoin:miter;" x="274.261157" xlink:href="#mc537b70845" y="179.1"/>
     <use style="fill:#0000ff;stroke:#0000ff;stroke-linejoin:miter;" x="274.261157" xlink:href="#mc537b70845" y="179.1"/>
     <use style="fill:#0000ff;stroke:#0000ff;stroke-linejoin:miter;" x="274.261157" xlink:href="#mc537b70845" y="179.1"/>
     <use style="fill:#0000ff;stroke:#0000ff;stroke-linejoin:miter;" x="274.261157" xlink:href="#mc537b70845" y="179.1"/>
     <use style="fill:#0000ff;stroke:#0000ff;stroke-linejoin:miter;" x="274.261157" xlink:href="#mc537b70845" y="179.1"/>
     <use style="fill:#0000ff;stroke:#0000ff;stroke-linejoin:miter;" x="274.261157" xlink:href="#mc537b70845" y="179.1"/>
     <use style="fill:#0000ff;stroke:#0000ff;stroke-linejoin:miter;" x="274.261157" xlink:href="#mc537b70845" y="179.1"/>
     <use style="fill:#0000ff;stroke:#0000ff;stroke-linejoin:miter;" x="274.261157" xlink:href="#mc537b70845" y="179.1"/>
     <use style="fill:#0000ff;stroke:#0000ff;stroke-linejoin:miter;" x="274.261157" xlink:href="#mc537b70845" y="179.1"/>
     <use style="fill:#0000ff;stroke:#0000ff;stroke-linejoin:miter;" x="274.261157" xlink:href="#mc537b70845" y="179.1"/>
     <use style="fill:#0000ff;stroke:#0000ff;stroke-linejoin:miter;" x="274.261157" xlink:href="#mc537b70845" y="179.1"/>
     <use style="fill:#0000ff;stroke:#0000ff;stroke-linejoin:miter;" x="274.261157" xlink:href="#mc537b70845" y="179.1"/>
     <use style="fill:#0000ff;stroke:#0000ff;stroke-linejoin:miter;" x="274.261157" xlink:href="#mc537b70845" y="179.1"/>
     <use style="fill:#0000ff;stroke:#0000ff;stroke-linejoin:miter;" x="274.261157" xlink:href="#mc537b70845" y="179.1"/>
     <use style="fill:#0000ff;stroke:#0000ff;stroke-linejoin:miter;" x="274.261157" xlink:href="#mc537b70845" y="179.1"/>
     <use style="fill:#0000ff;stroke:#0000ff;stroke-linejoin:miter;" x="274.261157" xlink:href="#mc537b70845" y="179.1"/>
     <use style="fill:#0000ff;stroke:#0000ff;stroke-linejoin:miter;" x="274.261157" xlink:href="#mc537b70845" y="179.1"/>
     <use style="fill:#0000ff;stroke:#0000ff;stroke-linejoin:miter;" x="274.261157" xlink:href="#mc537b70845" y="179.1"/>
     <use style="fill:#0000ff;stroke:#0000ff;stroke-linejoin:miter;" x="274.261157" xlink:href="#mc537b70845" y="179.1"/>
     <use style="fill:#0000ff;stroke:#0000ff;stroke-linejoin:miter;" x="274.261157" xlink:href="#mc537b70845" y="179.1"/>
    </g>
   </g>
   <g id="line2d_5">
    <path clip-path="url(#pab8cb12e9d)" d="M 267.087603 315 
L 267.087603 43.2 
" style="fill:none;stroke:#ff0000;stroke-dasharray:1.85,0.8;stroke-dashoffset:0;stroke-width:0.5;"/>
   </g>
   <g id="line2d_6">
    <path clip-path="url(#pab8cb12e9d)" d="M 281.434711 315 
L 281.434711 43.2 
" style="fill:none;stroke:#ff0000;stroke-dasharray:1.85,0.8;stroke-dashoffset:0;stroke-width:0.5;"/>
   </g>
   <g id="line2d_7">
    <path clip-path="url(#pab8cb12e9d)" d="M 94.248 124.74 
L 453.6 124.74 
" style="fill:none;stroke:#000000;stroke-linecap:square;stroke-width:0.5;"/>
   </g>
   <g id="line2d_8">
    <path clip-path="url(#pab8cb12e9d)" d="M 94.248 287.82 
L 453.6 287.82 
" style="fill:none;stroke:#000000;stroke-linecap:square;stroke-width:0.5;"/>
   </g>
   <g id="text_1">
    <!-- Displacement, $y$ -->
    <g transform="translate(88.354545 165.29)rotate(-90)scale(0.1 -0.1)">
     <defs>
      <path d="M 19.671875 64.796875 
L 19.671875 8.109375 
L 31.59375 8.109375 
Q 46.6875 8.109375 53.6875 14.9375 
Q 60.6875 21.78125 60.6875 36.53125 
Q 60.6875 51.171875 53.6875 57.984375 
Q 46.6875 64.796875 31.59375 64.796875 
z
M 9.8125 72.90625 
L 30.078125 72.90625 
Q 51.265625 72.90625 61.171875 64.09375 
Q 71.09375 55.28125 71.09375 36.53125 
Q 71.09375 17.671875 61.125 8.828125 
Q 51.171875 0 30.078125 0 
L 9.8125 0 
z
" id="DejaVuSans-68"/>
      <path d="M 9.421875 54.6875 
L 18.40625 54.6875 
L 18.40625 0 
L 9.421875 0 
z
M 9.421875 75.984375 
L 18.40625 75.984375 
L 18.40625 64.59375 
L 9.421875 64.59375 
z
" id="DejaVuSans-105"/>
      <path d="M 44.28125 53.078125 
L 44.28125 44.578125 
Q 40.484375 46.53125 36.375 47.5 
Q 32.28125 48.484375 27.875 48.484375 
Q 21.1875 48.484375 17.84375 46.4375 
Q 14.5 44.390625 14.5 40.28125 
Q 14.5 37.15625 16.890625 35.375 
Q 19.28125 33.59375 26.515625 31.984375 
L 29.59375 31.296875 
Q 39.15625 29.25 43.1875 25.515625 
Q 47.21875 21.78125 47.21875 15.09375 
Q 47.21875 7.46875 41.1875 3.015625 
Q 35.15625 -1.421875 24.609375 -1.421875 
Q 20.21875 -1.421875 15.453125 -0.5625 
Q 10.6875 0.296875 5.421875 2 
L 5.421875 11.28125 
Q 10.40625 8.6875 15.234375 7.390625 
Q 20.0625 6.109375 24.8125 6.109375 
Q 31.15625 6.109375 34.5625 8.28125 
Q 37.984375 10.453125 37.984375 14.40625 
Q 37.984375 18.0625 35.515625 20.015625 
Q 33.0625 21.96875 24.703125 23.78125 
L 21.578125 24.515625 
Q 13.234375 26.265625 9.515625 29.90625 
Q 5.8125 33.546875 5.8125 39.890625 
Q 5.8125 47.609375 11.28125 51.796875 
Q 16.75 56 26.8125 56 
Q 31.78125 56 36.171875 55.265625 
Q 40.578125 54.546875 44.28125 53.078125 
z
" id="DejaVuSans-115"/>
      <path d="M 18.109375 8.203125 
L 18.109375 -20.796875 
L 9.078125 -20.796875 
L 9.078125 54.6875 
L 18.109375 54.6875 
L 18.109375 46.390625 
Q 20.953125 51.265625 25.265625 53.625 
Q 29.59375 56 35.59375 56 
Q 45.5625 56 51.78125 48.09375 
Q 58.015625 40.1875 58.015625 27.296875 
Q 58.015625 14.40625 51.78125 6.484375 
Q 45.5625 -1.421875 35.59375 -1.421875 
Q 29.59375 -1.421875 25.265625 0.953125 
Q 20.953125 3.328125 18.109375 8.203125 
z
M 48.6875 27.296875 
Q 48.6875 37.203125 44.609375 42.84375 
Q 40.53125 48.484375 33.40625 48.484375 
Q 26.265625 48.484375 22.1875 42.84375 
Q 18.109375 37.203125 18.109375 27.296875 
Q 18.109375 17.390625 22.1875 11.75 
Q 26.265625 6.109375 33.40625 6.109375 
Q 40.53125 6.109375 44.609375 11.75 
Q 48.6875 17.390625 48.6875 27.296875 
z
" id="DejaVuSans-112"/>
      <path d="M 9.421875 75.984375 
L 18.40625 75.984375 
L 18.40625 0 
L 9.421875 0 
z
" id="DejaVuSans-108"/>
      <path d="M 34.28125 27.484375 
Q 23.390625 27.484375 19.1875 25 
Q 14.984375 22.515625 14.984375 16.5 
Q 14.984375 11.71875 18.140625 8.90625 
Q 21.296875 6.109375 26.703125 6.109375 
Q 34.1875 6.109375 38.703125 11.40625 
Q 43.21875 16.703125 43.21875 25.484375 
L 43.21875 27.484375 
z
M 52.203125 31.203125 
L 52.203125 0 
L 43.21875 0 
L 43.21875 8.296875 
Q 40.140625 3.328125 35.546875 0.953125 
Q 30.953125 -1.421875 24.3125 -1.421875 
Q 15.921875 -1.421875 10.953125 3.296875 
Q 6 8.015625 6 15.921875 
Q 6 25.140625 12.171875 29.828125 
Q 18.359375 34.515625 30.609375 34.515625 
L 43.21875 34.515625 
L 43.21875 35.40625 
Q 43.21875 41.609375 39.140625 45 
Q 35.0625 48.390625 27.6875 48.390625 
Q 23 48.390625 18.546875 47.265625 
Q 14.109375 46.140625 10.015625 43.890625 
L 10.015625 52.203125 
Q 14.9375 54.109375 19.578125 55.046875 
Q 24.21875 56 28.609375 56 
Q 40.484375 56 46.34375 49.84375 
Q 52.203125 43.703125 52.203125 31.203125 
z
" id="DejaVuSans-97"/>
      <path d="M 48.78125 52.59375 
L 48.78125 44.1875 
Q 44.96875 46.296875 41.140625 47.34375 
Q 37.3125 48.390625 33.40625 48.390625 
Q 24.65625 48.390625 19.8125 42.84375 
Q 14.984375 37.3125 14.984375 27.296875 
Q 14.984375 17.28125 19.8125 11.734375 
Q 24.65625 6.203125 33.40625 6.203125 
Q 37.3125 6.203125 41.140625 7.25 
Q 44.96875 8.296875 48.78125 10.40625 
L 48.78125 2.09375 
Q 45.015625 0.34375 40.984375 -0.53125 
Q 36.96875 -1.421875 32.421875 -1.421875 
Q 20.0625 -1.421875 12.78125 6.34375 
Q 5.515625 14.109375 5.515625 27.296875 
Q 5.515625 40.671875 12.859375 48.328125 
Q 20.21875 56 33.015625 56 
Q 37.15625 56 41.109375 55.140625 
Q 45.0625 54.296875 48.78125 52.59375 
z
" id="DejaVuSans-99"/>
      <path d="M 56.203125 29.59375 
L 56.203125 25.203125 
L 14.890625 25.203125 
Q 15.484375 15.921875 20.484375 11.0625 
Q 25.484375 6.203125 34.421875 6.203125 
Q 39.59375 6.203125 44.453125 7.46875 
Q 49.3125 8.734375 54.109375 11.28125 
L 54.109375 2.78125 
Q 49.265625 0.734375 44.1875 -0.34375 
Q 39.109375 -1.421875 33.890625 -1.421875 
Q 20.796875 -1.421875 13.15625 6.1875 
Q 5.515625 13.8125 5.515625 26.8125 
Q 5.515625 40.234375 12.765625 48.109375 
Q 20.015625 56 32.328125 56 
Q 43.359375 56 49.78125 48.890625 
Q 56.203125 41.796875 56.203125 29.59375 
z
M 47.21875 32.234375 
Q 47.125 39.59375 43.09375 43.984375 
Q 39.0625 48.390625 32.421875 48.390625 
Q 24.90625 48.390625 20.390625 44.140625 
Q 15.875 39.890625 15.1875 32.171875 
z
" id="DejaVuSans-101"/>
      <path d="M 52 44.1875 
Q 55.375 50.25 60.0625 53.125 
Q 64.75 56 71.09375 56 
Q 79.640625 56 84.28125 50.015625 
Q 88.921875 44.046875 88.921875 33.015625 
L 88.921875 0 
L 79.890625 0 
L 79.890625 32.71875 
Q 79.890625 40.578125 77.09375 44.375 
Q 74.3125 48.1875 68.609375 48.1875 
Q 61.625 48.1875 57.5625 43.546875 
Q 53.515625 38.921875 53.515625 30.90625 
L 53.515625 0 
L 44.484375 0 
L 44.484375 32.71875 
Q 44.484375 40.625 41.703125 44.40625 
Q 38.921875 48.1875 33.109375 48.1875 
Q 26.21875 48.1875 22.15625 43.53125 
Q 18.109375 38.875 18.109375 30.90625 
L 18.109375 0 
L 9.078125 0 
L 9.078125 54.6875 
L 18.109375 54.6875 
L 18.109375 46.1875 
Q 21.1875 51.21875 25.484375 53.609375 
Q 29.78125 56 35.6875 56 
Q 41.65625 56 45.828125 52.96875 
Q 50 49.953125 52 44.1875 
z
" id="DejaVuSans-109"/>
      <path d="M 54.890625 33.015625 
L 54.890625 0 
L 45.90625 0 
L 45.90625 32.71875 
Q 45.90625 40.484375 42.875 44.328125 
Q 39.84375 48.1875 33.796875 48.1875 
Q 26.515625 48.1875 22.3125 43.546875 
Q 18.109375 38.921875 18.109375 30.90625 
L 18.109375 0 
L 9.078125 0 
L 9.078125 54.6875 
L 18.109375 54.6875 
L 18.109375 46.1875 
Q 21.34375 51.125 25.703125 53.5625 
Q 30.078125 56 35.796875 56 
Q 45.21875 56 50.046875 50.171875 
Q 54.890625 44.34375 54.890625 33.015625 
z
" id="DejaVuSans-110"/>
      <path d="M 18.3125 70.21875 
L 18.3125 54.6875 
L 36.8125 54.6875 
L 36.8125 47.703125 
L 18.3125 47.703125 
L 18.3125 18.015625 
Q 18.3125 11.328125 20.140625 9.421875 
Q 21.96875 7.515625 27.59375 7.515625 
L 36.8125 7.515625 
L 36.8125 0 
L 27.59375 0 
Q 17.1875 0 13.234375 3.875 
Q 9.28125 7.765625 9.28125 18.015625 
L 9.28125 47.703125 
L 2.6875 47.703125 
L 2.6875 54.6875 
L 9.28125 54.6875 
L 9.28125 70.21875 
z
" id="DejaVuSans-116"/>
      <path d="M 11.71875 12.40625 
L 22.015625 12.40625 
L 22.015625 4 
L 14.015625 -11.625 
L 7.71875 -11.625 
L 11.71875 4 
z
" id="DejaVuSans-44"/>
      <path id="DejaVuSans-32"/>
      <path d="M 24.8125 -5.078125 
Q 18.5625 -15.578125 14.625 -18.1875 
Q 10.6875 -20.796875 4.59375 -20.796875 
L -2.484375 -20.796875 
L -0.984375 -13.28125 
L 4.203125 -13.28125 
Q 7.953125 -13.28125 10.59375 -11.234375 
Q 13.234375 -9.1875 16.5 -3.21875 
L 19.28125 2 
L 7.171875 54.6875 
L 16.703125 54.6875 
L 25.78125 12.796875 
L 50.875 54.6875 
L 60.296875 54.6875 
z
" id="DejaVuSans-Oblique-121"/>
     </defs>
     <use transform="translate(0 0.015625)" xlink:href="#DejaVuSans-68"/>
     <use transform="translate(77.001953 0.015625)" xlink:href="#DejaVuSans-105"/>
     <use transform="translate(104.785156 0.015625)" xlink:href="#DejaVuSans-115"/>
     <use transform="translate(156.884766 0.015625)" xlink:href="#DejaVuSans-112"/>
     <use transform="translate(220.361328 0.015625)" xlink:href="#DejaVuSans-108"/>
     <use transform="translate(248.144531 0.015625)" xlink:href="#DejaVuSans-97"/>
     <use transform="translate(309.423828 0.015625)" xlink:href="#DejaVuSans-99"/>
     <use transform="translate(364.404297 0.015625)" xlink:href="#DejaVuSans-101"/>
     <use transform="translate(425.927734 0.015625)" xlink:href="#DejaVuSans-109"/>
     <use transform="translate(523.339844 0.015625)" xlink:href="#DejaVuSans-101"/>
     <use transform="translate(584.863281 0.015625)" xlink:href="#DejaVuSans-110"/>
     <use transform="translate(648.242188 0.015625)" xlink:href="#DejaVuSans-116"/>
     <use transform="translate(687.451172 0.015625)" xlink:href="#DejaVuSans-44"/>
     <use transform="translate(719.238281 0.015625)" xlink:href="#DejaVuSans-32"/>
     <use transform="translate(751.025391 0.015625)" xlink:href="#DejaVuSans-Oblique-121"/>
    </g>
   </g>
   <g id="text_2">
    <!-- Energy -->
    <g transform="translate(88.352983 250.96625)rotate(-90)scale(0.1 -0.1)">
     <defs>
      <path d="M 9.8125 72.90625 
L 55.90625 72.90625 
L 55.90625 64.59375 
L 19.671875 64.59375 
L 19.671875 43.015625 
L 54.390625 43.015625 
L 54.390625 34.71875 
L 19.671875 34.71875 
L 19.671875 8.296875 
L 56.78125 8.296875 
L 56.78125 0 
L 9.8125 0 
z
" id="DejaVuSans-69"/>
      <path d="M 41.109375 46.296875 
Q 39.59375 47.171875 37.8125 47.578125 
Q 36.03125 48 33.890625 48 
Q 26.265625 48 22.1875 43.046875 
Q 18.109375 38.09375 18.109375 28.8125 
L 18.109375 0 
L 9.078125 0 
L 9.078125 54.6875 
L 18.109375 54.6875 
L 18.109375 46.1875 
Q 20.953125 51.171875 25.484375 53.578125 
Q 30.03125 56 36.53125 56 
Q 37.453125 56 38.578125 55.875 
Q 39.703125 55.765625 41.0625 55.515625 
z
" id="DejaVuSans-114"/>
      <path d="M 45.40625 27.984375 
Q 45.40625 37.75 41.375 43.109375 
Q 37.359375 48.484375 30.078125 48.484375 
Q 22.859375 48.484375 18.828125 43.109375 
Q 14.796875 37.75 14.796875 27.984375 
Q 14.796875 18.265625 18.828125 12.890625 
Q 22.859375 7.515625 30.078125 7.515625 
Q 37.359375 7.515625 41.375 12.890625 
Q 45.40625 18.265625 45.40625 27.984375 
z
M 54.390625 6.78125 
Q 54.390625 -7.171875 48.1875 -13.984375 
Q 42 -20.796875 29.203125 -20.796875 
Q 24.46875 -20.796875 20.265625 -20.09375 
Q 16.0625 -19.390625 12.109375 -17.921875 
L 12.109375 -9.1875 
Q 16.0625 -11.328125 19.921875 -12.34375 
Q 23.78125 -13.375 27.78125 -13.375 
Q 36.625 -13.375 41.015625 -8.765625 
Q 45.40625 -4.15625 45.40625 5.171875 
L 45.40625 9.625 
Q 42.625 4.78125 38.28125 2.390625 
Q 33.9375 0 27.875 0 
Q 17.828125 0 11.671875 7.65625 
Q 5.515625 15.328125 5.515625 27.984375 
Q 5.515625 40.671875 11.671875 48.328125 
Q 17.828125 56 27.875 56 
Q 33.9375 56 38.28125 53.609375 
Q 42.625 51.21875 45.40625 46.390625 
L 45.40625 54.6875 
L 54.390625 54.6875 
z
" id="DejaVuSans-103"/>
      <path d="M 32.171875 -5.078125 
Q 28.375 -14.84375 24.75 -17.8125 
Q 21.140625 -20.796875 15.09375 -20.796875 
L 7.90625 -20.796875 
L 7.90625 -13.28125 
L 13.1875 -13.28125 
Q 16.890625 -13.28125 18.9375 -11.515625 
Q 21 -9.765625 23.484375 -3.21875 
L 25.09375 0.875 
L 2.984375 54.6875 
L 12.5 54.6875 
L 29.59375 11.921875 
L 46.6875 54.6875 
L 56.203125 54.6875 
z
" id="DejaVuSans-121"/>
     </defs>
     <use xlink:href="#DejaVuSans-69"/>
     <use x="63.183594" xlink:href="#DejaVuSans-110"/>
     <use x="126.5625" xlink:href="#DejaVuSans-101"/>
     <use x="188.085938" xlink:href="#DejaVuSans-114"/>
     <use x="227.449219" xlink:href="#DejaVuSans-103"/>
     <use x="290.925781" xlink:href="#DejaVuSans-121"/>
    </g>
   </g>
  </g>
 </g>
 <defs>
  <clipPath id="pab8cb12e9d">
   <rect height="271.8" width="390.6" x="63" y="43.2"/>
  </clipPath>
 </defs>
</svg>
