<?xml version="1.0" encoding="utf-8" standalone="no"?>
<!DOCTYPE svg PUBLIC "-//W3C//DTD SVG 1.1//EN"
  "http://www.w3.org/Graphics/SVG/1.1/DTD/svg11.dtd">
<!-- Created with matplotlib (https://matplotlib.org/) -->
<svg height="360pt" version="1.1" viewBox="0 0 504 360" width="504pt" xmlns="http://www.w3.org/2000/svg" xmlns:xlink="http://www.w3.org/1999/xlink">
 <metadata>
  <rdf:RDF xmlns:cc="http://creativecommons.org/ns#" xmlns:dc="http://purl.org/dc/elements/1.1/" xmlns:rdf="http://www.w3.org/1999/02/22-rdf-syntax-ns#">
   <cc:Work>
    <dc:type rdf:resource="http://purl.org/dc/dcmitype/StillImage"/>
    <dc:date>2024-01-20T22:19:29.938124</dc:date>
    <dc:format>image/svg+xml</dc:format>
    <dc:creator>
     <cc:Agent>
      <dc:title>Matplotlib v3.3.2, https://matplotlib.org/</dc:title>
     </cc:Agent>
    </dc:creator>
   </cc:Work>
  </rdf:RDF>
 </metadata>
 <defs>
  <style type="text/css">*{stroke-linecap:butt;stroke-linejoin:round;}</style>
 </defs>
 <g id="figure_1">
  <g id="patch_1">
   <path d="M 0 360 
L 504 360 
L 504 0 
L 0 0 
z
" style="fill:none;"/>
  </g>
  <g id="axes_1">
   <g id="patch_2">
    <path d="M 22.2 349.2 
L 493.2 349.2 
L 493.2 10.8 
L 22.2 10.8 
z
" style="fill:none;"/>
   </g>
   <g id="matplotlib.axis_1">
    <g id="xtick_1">
     <g id="line2d_1">
      <defs>
       <path d="M 0 0 
L 0 3.5 
" id="ma8943ae01f" style="stroke:#000000;stroke-width:0.8;"/>
      </defs>
      <g>
       <use style="stroke:#000000;stroke-width:0.8;" x="44.628571" xlink:href="#ma8943ae01f" y="180"/>
      </g>
     </g>
    </g>
    <g id="xtick_2">
     <g id="line2d_2">
      <g>
       <use style="stroke:#000000;stroke-width:0.8;" x="100.7" xlink:href="#ma8943ae01f" y="180"/>
      </g>
     </g>
    </g>
    <g id="xtick_3">
     <g id="line2d_3">
      <g>
       <use style="stroke:#000000;stroke-width:0.8;" x="156.771429" xlink:href="#ma8943ae01f" y="180"/>
      </g>
     </g>
    </g>
    <g id="xtick_4">
     <g id="line2d_4">
      <g>
       <use style="stroke:#000000;stroke-width:0.8;" x="212.842857" xlink:href="#ma8943ae01f" y="180"/>
      </g>
     </g>
    </g>
    <g id="xtick_5">
     <g id="line2d_5">
      <g>
       <use style="stroke:#000000;stroke-width:0.8;" x="268.914286" xlink:href="#ma8943ae01f" y="180"/>
      </g>
     </g>
    </g>
    <g id="xtick_6">
     <g id="line2d_6">
      <g>
       <use style="stroke:#000000;stroke-width:0.8;" x="324.985714" xlink:href="#ma8943ae01f" y="180"/>
      </g>
     </g>
    </g>
    <g id="xtick_7">
     <g id="line2d_7">
      <g>
       <use style="stroke:#000000;stroke-width:0.8;" x="381.057143" xlink:href="#ma8943ae01f" y="180"/>
      </g>
     </g>
    </g>
    <g id="xtick_8">
     <g id="line2d_8">
      <g>
       <use style="stroke:#000000;stroke-width:0.8;" x="437.128571" xlink:href="#ma8943ae01f" y="180"/>
      </g>
     </g>
    </g>
    <g id="xtick_9">
     <g id="line2d_9">
      <g>
       <use style="stroke:#000000;stroke-width:0.8;" x="493.2" xlink:href="#ma8943ae01f" y="180"/>
      </g>
     </g>
    </g>
   </g>
   <g id="matplotlib.axis_2">
    <g id="ytick_1">
     <g id="line2d_10">
      <defs>
       <path d="M 0 0 
L -3.5 0 
" id="me579d6d3a4" style="stroke:#000000;stroke-width:0.8;"/>
      </defs>
      <g>
       <use style="stroke:#000000;stroke-width:0.8;" x="44.628571" xlink:href="#me579d6d3a4" y="349.2"/>
      </g>
     </g>
    </g>
    <g id="ytick_2">
     <g id="line2d_11">
      <g>
       <use style="stroke:#000000;stroke-width:0.8;" x="44.628571" xlink:href="#me579d6d3a4" y="292.8"/>
      </g>
     </g>
    </g>
    <g id="ytick_3">
     <g id="line2d_12">
      <g>
       <use style="stroke:#000000;stroke-width:0.8;" x="44.628571" xlink:href="#me579d6d3a4" y="236.4"/>
      </g>
     </g>
    </g>
    <g id="ytick_4">
     <g id="line2d_13">
      <g>
       <use style="stroke:#000000;stroke-width:0.8;" x="44.628571" xlink:href="#me579d6d3a4" y="180"/>
      </g>
     </g>
    </g>
    <g id="ytick_5">
     <g id="line2d_14">
      <g>
       <use style="stroke:#000000;stroke-width:0.8;" x="44.628571" xlink:href="#me579d6d3a4" y="123.6"/>
      </g>
     </g>
    </g>
    <g id="ytick_6">
     <g id="line2d_15">
      <g>
       <use style="stroke:#000000;stroke-width:0.8;" x="44.628571" xlink:href="#me579d6d3a4" y="67.2"/>
      </g>
     </g>
    </g>
    <g id="ytick_7">
     <g id="line2d_16">
      <g>
       <use style="stroke:#000000;stroke-width:0.8;" x="44.628571" xlink:href="#me579d6d3a4" y="10.8"/>
      </g>
     </g>
    </g>
    <g id="text_1">
     <!-- Vertical Displacement, $y$ -->
     <g transform="translate(30.478571 271.875)rotate(-90)scale(0.15 -0.15)">
      <defs>
       <path d="M 28.609375 0 
L 0.78125 72.90625 
L 11.078125 72.90625 
L 34.1875 11.53125 
L 57.328125 72.90625 
L 67.578125 72.90625 
L 39.796875 0 
z
" id="DejaVuSans-86"/>
       <path d="M 56.203125 29.59375 
L 56.203125 25.203125 
L 14.890625 25.203125 
Q 15.484375 15.921875 20.484375 11.0625 
Q 25.484375 6.203125 34.421875 6.203125 
Q 39.59375 6.203125 44.453125 7.46875 
Q 49.3125 8.734375 54.109375 11.28125 
L 54.109375 2.78125 
Q 49.265625 0.734375 44.1875 -0.34375 
Q 39.109375 -1.421875 33.890625 -1.421875 
Q 20.796875 -1.421875 13.15625 6.1875 
Q 5.515625 13.8125 5.515625 26.8125 
Q 5.515625 40.234375 12.765625 48.109375 
Q 20.015625 56 32.328125 56 
Q 43.359375 56 49.78125 48.890625 
Q 56.203125 41.796875 56.203125 29.59375 
z
M 47.21875 32.234375 
Q 47.125 39.59375 43.09375 43.984375 
Q 39.0625 48.390625 32.421875 48.390625 
Q 24.90625 48.390625 20.390625 44.140625 
Q 15.875 39.890625 15.1875 32.171875 
z
" id="DejaVuSans-101"/>
       <path d="M 41.109375 46.296875 
Q 39.59375 47.171875 37.8125 47.578125 
Q 36.03125 48 33.890625 48 
Q 26.265625 48 22.1875 43.046875 
Q 18.109375 38.09375 18.109375 28.8125 
L 18.109375 0 
L 9.078125 0 
L 9.078125 54.6875 
L 18.109375 54.6875 
L 18.109375 46.1875 
Q 20.953125 51.171875 25.484375 53.578125 
Q 30.03125 56 36.53125 56 
Q 37.453125 56 38.578125 55.875 
Q 39.703125 55.765625 41.0625 55.515625 
z
" id="DejaVuSans-114"/>
       <path d="M 18.3125 70.21875 
L 18.3125 54.6875 
L 36.8125 54.6875 
L 36.8125 47.703125 
L 18.3125 47.703125 
L 18.3125 18.015625 
Q 18.3125 11.328125 20.140625 9.421875 
Q 21.96875 7.515625 27.59375 7.515625 
L 36.8125 7.515625 
L 36.8125 0 
L 27.59375 0 
Q 17.1875 0 13.234375 3.875 
Q 9.28125 7.765625 9.28125 18.015625 
L 9.28125 47.703125 
L 2.6875 47.703125 
L 2.6875 54.6875 
L 9.28125 54.6875 
L 9.28125 70.21875 
z
" id="DejaVuSans-116"/>
       <path d="M 9.421875 54.6875 
L 18.40625 54.6875 
L 18.40625 0 
L 9.421875 0 
z
M 9.421875 75.984375 
L 18.40625 75.984375 
L 18.40625 64.59375 
L 9.421875 64.59375 
z
" id="DejaVuSans-105"/>
       <path d="M 48.78125 52.59375 
L 48.78125 44.1875 
Q 44.96875 46.296875 41.140625 47.34375 
Q 37.3125 48.390625 33.40625 48.390625 
Q 24.65625 48.390625 19.8125 42.84375 
Q 14.984375 37.3125 14.984375 27.296875 
Q 14.984375 17.28125 19.8125 11.734375 
Q 24.65625 6.203125 33.40625 6.203125 
Q 37.3125 6.203125 41.140625 7.25 
Q 44.96875 8.296875 48.78125 10.40625 
L 48.78125 2.09375 
Q 45.015625 0.34375 40.984375 -0.53125 
Q 36.96875 -1.421875 32.421875 -1.421875 
Q 20.0625 -1.421875 12.78125 6.34375 
Q 5.515625 14.109375 5.515625 27.296875 
Q 5.515625 40.671875 12.859375 48.328125 
Q 20.21875 56 33.015625 56 
Q 37.15625 56 41.109375 55.140625 
Q 45.0625 54.296875 48.78125 52.59375 
z
" id="DejaVuSans-99"/>
       <path d="M 34.28125 27.484375 
Q 23.390625 27.484375 19.1875 25 
Q 14.984375 22.515625 14.984375 16.5 
Q 14.984375 11.71875 18.140625 8.90625 
Q 21.296875 6.109375 26.703125 6.109375 
Q 34.1875 6.109375 38.703125 11.40625 
Q 43.21875 16.703125 43.21875 25.484375 
L 43.21875 27.484375 
z
M 52.203125 31.203125 
L 52.203125 0 
L 43.21875 0 
L 43.21875 8.296875 
Q 40.140625 3.328125 35.546875 0.953125 
Q 30.953125 -1.421875 24.3125 -1.421875 
Q 15.921875 -1.421875 10.953125 3.296875 
Q 6 8.015625 6 15.921875 
Q 6 25.140625 12.171875 29.828125 
Q 18.359375 34.515625 30.609375 34.515625 
L 43.21875 34.515625 
L 43.21875 35.40625 
Q 43.21875 41.609375 39.140625 45 
Q 35.0625 48.390625 27.6875 48.390625 
Q 23 48.390625 18.546875 47.265625 
Q 14.109375 46.140625 10.015625 43.890625 
L 10.015625 52.203125 
Q 14.9375 54.109375 19.578125 55.046875 
Q 24.21875 56 28.609375 56 
Q 40.484375 56 46.34375 49.84375 
Q 52.203125 43.703125 52.203125 31.203125 
z
" id="DejaVuSans-97"/>
       <path d="M 9.421875 75.984375 
L 18.40625 75.984375 
L 18.40625 0 
L 9.421875 0 
z
" id="DejaVuSans-108"/>
       <path id="DejaVuSans-32"/>
       <path d="M 19.671875 64.796875 
L 19.671875 8.109375 
L 31.59375 8.109375 
Q 46.6875 8.109375 53.6875 14.9375 
Q 60.6875 21.78125 60.6875 36.53125 
Q 60.6875 51.171875 53.6875 57.984375 
Q 46.6875 64.796875 31.59375 64.796875 
z
M 9.8125 72.90625 
L 30.078125 72.90625 
Q 51.265625 72.90625 61.171875 64.09375 
Q 71.09375 55.28125 71.09375 36.53125 
Q 71.09375 17.671875 61.125 8.828125 
Q 51.171875 0 30.078125 0 
L 9.8125 0 
z
" id="DejaVuSans-68"/>
       <path d="M 44.28125 53.078125 
L 44.28125 44.578125 
Q 40.484375 46.53125 36.375 47.5 
Q 32.28125 48.484375 27.875 48.484375 
Q 21.1875 48.484375 17.84375 46.4375 
Q 14.5 44.390625 14.5 40.28125 
Q 14.5 37.15625 16.890625 35.375 
Q 19.28125 33.59375 26.515625 31.984375 
L 29.59375 31.296875 
Q 39.15625 29.25 43.1875 25.515625 
Q 47.21875 21.78125 47.21875 15.09375 
Q 47.21875 7.46875 41.1875 3.015625 
Q 35.15625 -1.421875 24.609375 -1.421875 
Q 20.21875 -1.421875 15.453125 -0.5625 
Q 10.6875 0.296875 5.421875 2 
L 5.421875 11.28125 
Q 10.40625 8.6875 15.234375 7.390625 
Q 20.0625 6.109375 24.8125 6.109375 
Q 31.15625 6.109375 34.5625 8.28125 
Q 37.984375 10.453125 37.984375 14.40625 
Q 37.984375 18.0625 35.515625 20.015625 
Q 33.0625 21.96875 24.703125 23.78125 
L 21.578125 24.515625 
Q 13.234375 26.265625 9.515625 29.90625 
Q 5.8125 33.546875 5.8125 39.890625 
Q 5.8125 47.609375 11.28125 51.796875 
Q 16.75 56 26.8125 56 
Q 31.78125 56 36.171875 55.265625 
Q 40.578125 54.546875 44.28125 53.078125 
z
" id="DejaVuSans-115"/>
       <path d="M 18.109375 8.203125 
L 18.109375 -20.796875 
L 9.078125 -20.796875 
L 9.078125 54.6875 
L 18.109375 54.6875 
L 18.109375 46.390625 
Q 20.953125 51.265625 25.265625 53.625 
Q 29.59375 56 35.59375 56 
Q 45.5625 56 51.78125 48.09375 
Q 58.015625 40.1875 58.015625 27.296875 
Q 58.015625 14.40625 51.78125 6.484375 
Q 45.5625 -1.421875 35.59375 -1.421875 
Q 29.59375 -1.421875 25.265625 0.953125 
Q 20.953125 3.328125 18.109375 8.203125 
z
M 48.6875 27.296875 
Q 48.6875 37.203125 44.609375 42.84375 
Q 40.53125 48.484375 33.40625 48.484375 
Q 26.265625 48.484375 22.1875 42.84375 
Q 18.109375 37.203125 18.109375 27.296875 
Q 18.109375 17.390625 22.1875 11.75 
Q 26.265625 6.109375 33.40625 6.109375 
Q 40.53125 6.109375 44.609375 11.75 
Q 48.6875 17.390625 48.6875 27.296875 
z
" id="DejaVuSans-112"/>
       <path d="M 52 44.1875 
Q 55.375 50.25 60.0625 53.125 
Q 64.75 56 71.09375 56 
Q 79.640625 56 84.28125 50.015625 
Q 88.921875 44.046875 88.921875 33.015625 
L 88.921875 0 
L 79.890625 0 
L 79.890625 32.71875 
Q 79.890625 40.578125 77.09375 44.375 
Q 74.3125 48.1875 68.609375 48.1875 
Q 61.625 48.1875 57.5625 43.546875 
Q 53.515625 38.921875 53.515625 30.90625 
L 53.515625 0 
L 44.484375 0 
L 44.484375 32.71875 
Q 44.484375 40.625 41.703125 44.40625 
Q 38.921875 48.1875 33.109375 48.1875 
Q 26.21875 48.1875 22.15625 43.53125 
Q 18.109375 38.875 18.109375 30.90625 
L 18.109375 0 
L 9.078125 0 
L 9.078125 54.6875 
L 18.109375 54.6875 
L 18.109375 46.1875 
Q 21.1875 51.21875 25.484375 53.609375 
Q 29.78125 56 35.6875 56 
Q 41.65625 56 45.828125 52.96875 
Q 50 49.953125 52 44.1875 
z
" id="DejaVuSans-109"/>
       <path d="M 54.890625 33.015625 
L 54.890625 0 
L 45.90625 0 
L 45.90625 32.71875 
Q 45.90625 40.484375 42.875 44.328125 
Q 39.84375 48.1875 33.796875 48.1875 
Q 26.515625 48.1875 22.3125 43.546875 
Q 18.109375 38.921875 18.109375 30.90625 
L 18.109375 0 
L 9.078125 0 
L 9.078125 54.6875 
L 18.109375 54.6875 
L 18.109375 46.1875 
Q 21.34375 51.125 25.703125 53.5625 
Q 30.078125 56 35.796875 56 
Q 45.21875 56 50.046875 50.171875 
Q 54.890625 44.34375 54.890625 33.015625 
z
" id="DejaVuSans-110"/>
       <path d="M 11.71875 12.40625 
L 22.015625 12.40625 
L 22.015625 4 
L 14.015625 -11.625 
L 7.71875 -11.625 
L 11.71875 4 
z
" id="DejaVuSans-44"/>
       <path d="M 24.8125 -5.078125 
Q 18.5625 -15.578125 14.625 -18.1875 
Q 10.6875 -20.796875 4.59375 -20.796875 
L -2.484375 -20.796875 
L -0.984375 -13.28125 
L 4.203125 -13.28125 
Q 7.953125 -13.28125 10.59375 -11.234375 
Q 13.234375 -9.1875 16.5 -3.21875 
L 19.28125 2 
L 7.171875 54.6875 
L 16.703125 54.6875 
L 25.78125 12.796875 
L 50.875 54.6875 
L 60.296875 54.6875 
z
" id="DejaVuSans-Oblique-121"/>
      </defs>
      <use transform="translate(0 0.015625)" xlink:href="#DejaVuSans-86"/>
      <use transform="translate(68.408203 0.015625)" xlink:href="#DejaVuSans-101"/>
      <use transform="translate(129.931641 0.015625)" xlink:href="#DejaVuSans-114"/>
      <use transform="translate(171.044922 0.015625)" xlink:href="#DejaVuSans-116"/>
      <use transform="translate(210.253906 0.015625)" xlink:href="#DejaVuSans-105"/>
      <use transform="translate(238.037109 0.015625)" xlink:href="#DejaVuSans-99"/>
      <use transform="translate(293.017578 0.015625)" xlink:href="#DejaVuSans-97"/>
      <use transform="translate(354.296875 0.015625)" xlink:href="#DejaVuSans-108"/>
      <use transform="translate(382.080078 0.015625)" xlink:href="#DejaVuSans-32"/>
      <use transform="translate(413.867188 0.015625)" xlink:href="#DejaVuSans-68"/>
      <use transform="translate(490.869141 0.015625)" xlink:href="#DejaVuSans-105"/>
      <use transform="translate(518.652344 0.015625)" xlink:href="#DejaVuSans-115"/>
      <use transform="translate(570.751953 0.015625)" xlink:href="#DejaVuSans-112"/>
      <use transform="translate(634.228516 0.015625)" xlink:href="#DejaVuSans-108"/>
      <use transform="translate(662.011719 0.015625)" xlink:href="#DejaVuSans-97"/>
      <use transform="translate(723.291016 0.015625)" xlink:href="#DejaVuSans-99"/>
      <use transform="translate(778.271484 0.015625)" xlink:href="#DejaVuSans-101"/>
      <use transform="translate(839.794922 0.015625)" xlink:href="#DejaVuSans-109"/>
      <use transform="translate(937.207031 0.015625)" xlink:href="#DejaVuSans-101"/>
      <use transform="translate(998.730469 0.015625)" xlink:href="#DejaVuSans-110"/>
      <use transform="translate(1062.109375 0.015625)" xlink:href="#DejaVuSans-116"/>
      <use transform="translate(1101.318359 0.015625)" xlink:href="#DejaVuSans-44"/>
      <use transform="translate(1133.105469 0.015625)" xlink:href="#DejaVuSans-32"/>
      <use transform="translate(1164.892578 0.015625)" xlink:href="#DejaVuSans-Oblique-121"/>
     </g>
    </g>
   </g>
   <g id="line2d_17">
    <path clip-path="url(#p3d4b9e092e)" d="M 44.628571 180 
L 49.159596 165.720371 
L 53.69062 151.670507 
L 58.221645 138.076475 
L 62.75267 125.157008 
L 67.283694 113.119986 
L 71.814719 102.159088 
L 76.345743 92.450679 
L 80.876768 84.150972 
L 85.407792 77.393511 
L 89.938817 72.287027 
L 94.469841 68.913685 
L 99.000866 67.327764 
L 103.53189 67.554781 
L 108.062915 69.591084 
L 112.593939 73.403908 
L 117.124964 78.931902 
L 121.655988 86.08612 
L 126.187013 94.751448 
L 130.718038 104.788457 
L 135.249062 116.035647 
L 139.780087 128.312048 
L 144.311111 141.420128 
L 148.842136 155.148972 
L 153.37316 169.277678 
L 157.904185 183.578911 
L 162.435209 197.822557 
L 166.966234 211.779432 
L 171.497258 225.224964 
L 176.028283 237.94281 
L 180.559307 249.728334 
L 185.090332 260.391903 
L 189.621356 269.761936 
L 194.152381 277.687666 
L 198.683405 284.041564 
L 203.21443 288.721395 
L 207.745455 291.651859 
L 212.276479 292.785802 
L 216.807504 292.104979 
L 221.338528 289.620345 
L 225.869553 285.371879 
L 230.400577 279.427939 
L 234.931602 271.884167 
L 239.462626 262.861945 
L 243.993651 252.506442 
L 248.524675 240.984284 
L 253.0557 228.480866 
L 257.586724 215.197373 
L 262.117749 201.34754 
L 266.648773 187.154218 
L 271.179798 172.845782 
L 275.710823 158.65246 
L 280.241847 144.802627 
L 284.772872 131.519134 
L 289.303896 119.015716 
L 293.834921 107.493558 
L 298.365945 97.138055 
L 302.89697 88.115833 
L 307.427994 80.572061 
L 311.959019 74.628121 
L 316.490043 70.379655 
L 321.021068 67.895021 
L 325.552092 67.214198 
L 330.083117 68.348141 
L 334.614141 71.278605 
L 339.145166 75.958436 
L 343.67619 82.312334 
L 348.207215 90.238064 
L 352.73824 99.608097 
L 357.269264 110.271666 
L 361.800289 122.05719 
L 366.331313 134.775036 
L 370.862338 148.220568 
L 375.393362 162.177443 
L 379.924387 176.421089 
L 384.455411 190.722322 
L 388.986436 204.851028 
L 393.51746 218.579872 
L 398.048485 231.687952 
L 402.579509 243.964353 
L 407.110534 255.211543 
L 411.641558 265.248552 
L 416.172583 273.91388 
L 420.703608 281.068098 
L 425.234632 286.596092 
L 429.765657 290.408916 
L 434.296681 292.445219 
L 438.827706 292.672236 
L 443.35873 291.086315 
L 447.889755 287.712973 
L 452.420779 282.606489 
L 456.951804 275.849028 
L 461.482828 267.549321 
L 466.013853 257.840912 
L 470.544877 246.880014 
L 475.075902 234.842992 
L 479.606926 221.923525 
L 484.137951 208.329493 
L 488.668975 194.279629 
L 493.2 180 
" style="fill:none;stroke:#0000ff;stroke-linecap:square;stroke-width:2;"/>
   </g>
   <g id="line2d_18">
    <defs>
     <path d="M 0 10 
C 2.652031 10 5.195799 8.946337 7.071068 7.071068 
C 8.946337 5.195799 10 2.652031 10 0 
C 10 -2.652031 8.946337 -5.195799 7.071068 -7.071068 
C 5.195799 -8.946337 2.652031 -10 0 -10 
C -2.652031 -10 -5.195799 -8.946337 -7.071068 -7.071068 
C -8.946337 -5.195799 -10 -2.652031 -10 0 
C -10 2.652031 -8.946337 5.195799 -7.071068 7.071068 
C -5.195799 8.946337 -2.652031 10 0 10 
z
" id="m5f1a88ad1a" style="stroke:#ffa500;"/>
    </defs>
    <g clip-path="url(#p3d4b9e092e)">
     <use style="fill:#ffa500;stroke:#ffa500;" x="44.628571" xlink:href="#m5f1a88ad1a" y="180"/>
     <use style="fill:#ffa500;stroke:#ffa500;" x="44.628571" xlink:href="#m5f1a88ad1a" y="180"/>
     <use style="fill:#ffa500;stroke:#ffa500;" x="44.628571" xlink:href="#m5f1a88ad1a" y="180"/>
     <use style="fill:#ffa500;stroke:#ffa500;" x="44.628571" xlink:href="#m5f1a88ad1a" y="180"/>
     <use style="fill:#ffa500;stroke:#ffa500;" x="44.628571" xlink:href="#m5f1a88ad1a" y="180"/>
     <use style="fill:#ffa500;stroke:#ffa500;" x="44.628571" xlink:href="#m5f1a88ad1a" y="180"/>
     <use style="fill:#ffa500;stroke:#ffa500;" x="44.628571" xlink:href="#m5f1a88ad1a" y="180"/>
     <use style="fill:#ffa500;stroke:#ffa500;" x="44.628571" xlink:href="#m5f1a88ad1a" y="180"/>
     <use style="fill:#ffa500;stroke:#ffa500;" x="44.628571" xlink:href="#m5f1a88ad1a" y="180"/>
     <use style="fill:#ffa500;stroke:#ffa500;" x="44.628571" xlink:href="#m5f1a88ad1a" y="180"/>
     <use style="fill:#ffa500;stroke:#ffa500;" x="44.628571" xlink:href="#m5f1a88ad1a" y="180"/>
     <use style="fill:#ffa500;stroke:#ffa500;" x="44.628571" xlink:href="#m5f1a88ad1a" y="180"/>
     <use style="fill:#ffa500;stroke:#ffa500;" x="44.628571" xlink:href="#m5f1a88ad1a" y="180"/>
     <use style="fill:#ffa500;stroke:#ffa500;" x="44.628571" xlink:href="#m5f1a88ad1a" y="180"/>
     <use style="fill:#ffa500;stroke:#ffa500;" x="44.628571" xlink:href="#m5f1a88ad1a" y="180"/>
     <use style="fill:#ffa500;stroke:#ffa500;" x="44.628571" xlink:href="#m5f1a88ad1a" y="180"/>
     <use style="fill:#ffa500;stroke:#ffa500;" x="44.628571" xlink:href="#m5f1a88ad1a" y="180"/>
     <use style="fill:#ffa500;stroke:#ffa500;" x="44.628571" xlink:href="#m5f1a88ad1a" y="180"/>
     <use style="fill:#ffa500;stroke:#ffa500;" x="44.628571" xlink:href="#m5f1a88ad1a" y="180"/>
     <use style="fill:#ffa500;stroke:#ffa500;" x="44.628571" xlink:href="#m5f1a88ad1a" y="180"/>
     <use style="fill:#ffa500;stroke:#ffa500;" x="44.628571" xlink:href="#m5f1a88ad1a" y="180"/>
     <use style="fill:#ffa500;stroke:#ffa500;" x="44.628571" xlink:href="#m5f1a88ad1a" y="180"/>
     <use style="fill:#ffa500;stroke:#ffa500;" x="44.628571" xlink:href="#m5f1a88ad1a" y="180"/>
     <use style="fill:#ffa500;stroke:#ffa500;" x="44.628571" xlink:href="#m5f1a88ad1a" y="180"/>
     <use style="fill:#ffa500;stroke:#ffa500;" x="44.628571" xlink:href="#m5f1a88ad1a" y="180"/>
     <use style="fill:#ffa500;stroke:#ffa500;" x="44.628571" xlink:href="#m5f1a88ad1a" y="180"/>
     <use style="fill:#ffa500;stroke:#ffa500;" x="44.628571" xlink:href="#m5f1a88ad1a" y="180"/>
     <use style="fill:#ffa500;stroke:#ffa500;" x="44.628571" xlink:href="#m5f1a88ad1a" y="180"/>
     <use style="fill:#ffa500;stroke:#ffa500;" x="44.628571" xlink:href="#m5f1a88ad1a" y="180"/>
     <use style="fill:#ffa500;stroke:#ffa500;" x="44.628571" xlink:href="#m5f1a88ad1a" y="180"/>
     <use style="fill:#ffa500;stroke:#ffa500;" x="44.628571" xlink:href="#m5f1a88ad1a" y="180"/>
     <use style="fill:#ffa500;stroke:#ffa500;" x="44.628571" xlink:href="#m5f1a88ad1a" y="180"/>
     <use style="fill:#ffa500;stroke:#ffa500;" x="44.628571" xlink:href="#m5f1a88ad1a" y="180"/>
     <use style="fill:#ffa500;stroke:#ffa500;" x="44.628571" xlink:href="#m5f1a88ad1a" y="180"/>
     <use style="fill:#ffa500;stroke:#ffa500;" x="44.628571" xlink:href="#m5f1a88ad1a" y="180"/>
     <use style="fill:#ffa500;stroke:#ffa500;" x="44.628571" xlink:href="#m5f1a88ad1a" y="180"/>
     <use style="fill:#ffa500;stroke:#ffa500;" x="44.628571" xlink:href="#m5f1a88ad1a" y="180"/>
     <use style="fill:#ffa500;stroke:#ffa500;" x="44.628571" xlink:href="#m5f1a88ad1a" y="180"/>
     <use style="fill:#ffa500;stroke:#ffa500;" x="44.628571" xlink:href="#m5f1a88ad1a" y="180"/>
     <use style="fill:#ffa500;stroke:#ffa500;" x="44.628571" xlink:href="#m5f1a88ad1a" y="180"/>
     <use style="fill:#ffa500;stroke:#ffa500;" x="44.628571" xlink:href="#m5f1a88ad1a" y="180"/>
     <use style="fill:#ffa500;stroke:#ffa500;" x="44.628571" xlink:href="#m5f1a88ad1a" y="180"/>
     <use style="fill:#ffa500;stroke:#ffa500;" x="44.628571" xlink:href="#m5f1a88ad1a" y="180"/>
     <use style="fill:#ffa500;stroke:#ffa500;" x="44.628571" xlink:href="#m5f1a88ad1a" y="180"/>
     <use style="fill:#ffa500;stroke:#ffa500;" x="44.628571" xlink:href="#m5f1a88ad1a" y="180"/>
     <use style="fill:#ffa500;stroke:#ffa500;" x="44.628571" xlink:href="#m5f1a88ad1a" y="180"/>
     <use style="fill:#ffa500;stroke:#ffa500;" x="44.628571" xlink:href="#m5f1a88ad1a" y="180"/>
     <use style="fill:#ffa500;stroke:#ffa500;" x="44.628571" xlink:href="#m5f1a88ad1a" y="180"/>
     <use style="fill:#ffa500;stroke:#ffa500;" x="44.628571" xlink:href="#m5f1a88ad1a" y="180"/>
     <use style="fill:#ffa500;stroke:#ffa500;" x="44.628571" xlink:href="#m5f1a88ad1a" y="180"/>
     <use style="fill:#ffa500;stroke:#ffa500;" x="44.628571" xlink:href="#m5f1a88ad1a" y="180"/>
     <use style="fill:#ffa500;stroke:#ffa500;" x="44.628571" xlink:href="#m5f1a88ad1a" y="180"/>
     <use style="fill:#ffa500;stroke:#ffa500;" x="44.628571" xlink:href="#m5f1a88ad1a" y="180"/>
     <use style="fill:#ffa500;stroke:#ffa500;" x="44.628571" xlink:href="#m5f1a88ad1a" y="180"/>
     <use style="fill:#ffa500;stroke:#ffa500;" x="44.628571" xlink:href="#m5f1a88ad1a" y="180"/>
     <use style="fill:#ffa500;stroke:#ffa500;" x="44.628571" xlink:href="#m5f1a88ad1a" y="180"/>
     <use style="fill:#ffa500;stroke:#ffa500;" x="44.628571" xlink:href="#m5f1a88ad1a" y="180"/>
     <use style="fill:#ffa500;stroke:#ffa500;" x="44.628571" xlink:href="#m5f1a88ad1a" y="180"/>
     <use style="fill:#ffa500;stroke:#ffa500;" x="44.628571" xlink:href="#m5f1a88ad1a" y="180"/>
     <use style="fill:#ffa500;stroke:#ffa500;" x="44.628571" xlink:href="#m5f1a88ad1a" y="180"/>
     <use style="fill:#ffa500;stroke:#ffa500;" x="44.628571" xlink:href="#m5f1a88ad1a" y="180"/>
     <use style="fill:#ffa500;stroke:#ffa500;" x="44.628571" xlink:href="#m5f1a88ad1a" y="180"/>
     <use style="fill:#ffa500;stroke:#ffa500;" x="44.628571" xlink:href="#m5f1a88ad1a" y="180"/>
     <use style="fill:#ffa500;stroke:#ffa500;" x="44.628571" xlink:href="#m5f1a88ad1a" y="180"/>
     <use style="fill:#ffa500;stroke:#ffa500;" x="44.628571" xlink:href="#m5f1a88ad1a" y="180"/>
     <use style="fill:#ffa500;stroke:#ffa500;" x="44.628571" xlink:href="#m5f1a88ad1a" y="180"/>
     <use style="fill:#ffa500;stroke:#ffa500;" x="44.628571" xlink:href="#m5f1a88ad1a" y="180"/>
     <use style="fill:#ffa500;stroke:#ffa500;" x="44.628571" xlink:href="#m5f1a88ad1a" y="180"/>
     <use style="fill:#ffa500;stroke:#ffa500;" x="44.628571" xlink:href="#m5f1a88ad1a" y="180"/>
     <use style="fill:#ffa500;stroke:#ffa500;" x="44.628571" xlink:href="#m5f1a88ad1a" y="180"/>
     <use style="fill:#ffa500;stroke:#ffa500;" x="44.628571" xlink:href="#m5f1a88ad1a" y="180"/>
     <use style="fill:#ffa500;stroke:#ffa500;" x="44.628571" xlink:href="#m5f1a88ad1a" y="180"/>
     <use style="fill:#ffa500;stroke:#ffa500;" x="44.628571" xlink:href="#m5f1a88ad1a" y="180"/>
     <use style="fill:#ffa500;stroke:#ffa500;" x="44.628571" xlink:href="#m5f1a88ad1a" y="180"/>
     <use style="fill:#ffa500;stroke:#ffa500;" x="44.628571" xlink:href="#m5f1a88ad1a" y="180"/>
     <use style="fill:#ffa500;stroke:#ffa500;" x="44.628571" xlink:href="#m5f1a88ad1a" y="180"/>
     <use style="fill:#ffa500;stroke:#ffa500;" x="44.628571" xlink:href="#m5f1a88ad1a" y="180"/>
     <use style="fill:#ffa500;stroke:#ffa500;" x="44.628571" xlink:href="#m5f1a88ad1a" y="180"/>
     <use style="fill:#ffa500;stroke:#ffa500;" x="44.628571" xlink:href="#m5f1a88ad1a" y="180"/>
     <use style="fill:#ffa500;stroke:#ffa500;" x="44.628571" xlink:href="#m5f1a88ad1a" y="180"/>
     <use style="fill:#ffa500;stroke:#ffa500;" x="44.628571" xlink:href="#m5f1a88ad1a" y="180"/>
     <use style="fill:#ffa500;stroke:#ffa500;" x="44.628571" xlink:href="#m5f1a88ad1a" y="180"/>
     <use style="fill:#ffa500;stroke:#ffa500;" x="44.628571" xlink:href="#m5f1a88ad1a" y="180"/>
     <use style="fill:#ffa500;stroke:#ffa500;" x="44.628571" xlink:href="#m5f1a88ad1a" y="180"/>
     <use style="fill:#ffa500;stroke:#ffa500;" x="44.628571" xlink:href="#m5f1a88ad1a" y="180"/>
     <use style="fill:#ffa500;stroke:#ffa500;" x="44.628571" xlink:href="#m5f1a88ad1a" y="180"/>
     <use style="fill:#ffa500;stroke:#ffa500;" x="44.628571" xlink:href="#m5f1a88ad1a" y="180"/>
     <use style="fill:#ffa500;stroke:#ffa500;" x="44.628571" xlink:href="#m5f1a88ad1a" y="180"/>
     <use style="fill:#ffa500;stroke:#ffa500;" x="44.628571" xlink:href="#m5f1a88ad1a" y="180"/>
     <use style="fill:#ffa500;stroke:#ffa500;" x="44.628571" xlink:href="#m5f1a88ad1a" y="180"/>
     <use style="fill:#ffa500;stroke:#ffa500;" x="44.628571" xlink:href="#m5f1a88ad1a" y="180"/>
     <use style="fill:#ffa500;stroke:#ffa500;" x="44.628571" xlink:href="#m5f1a88ad1a" y="180"/>
     <use style="fill:#ffa500;stroke:#ffa500;" x="44.628571" xlink:href="#m5f1a88ad1a" y="180"/>
     <use style="fill:#ffa500;stroke:#ffa500;" x="44.628571" xlink:href="#m5f1a88ad1a" y="180"/>
     <use style="fill:#ffa500;stroke:#ffa500;" x="44.628571" xlink:href="#m5f1a88ad1a" y="180"/>
     <use style="fill:#ffa500;stroke:#ffa500;" x="44.628571" xlink:href="#m5f1a88ad1a" y="180"/>
     <use style="fill:#ffa500;stroke:#ffa500;" x="44.628571" xlink:href="#m5f1a88ad1a" y="180"/>
     <use style="fill:#ffa500;stroke:#ffa500;" x="44.628571" xlink:href="#m5f1a88ad1a" y="180"/>
     <use style="fill:#ffa500;stroke:#ffa500;" x="44.628571" xlink:href="#m5f1a88ad1a" y="180"/>
     <use style="fill:#ffa500;stroke:#ffa500;" x="44.628571" xlink:href="#m5f1a88ad1a" y="180"/>
    </g>
   </g>
   <g id="line2d_19">
    <path clip-path="url(#p3d4b9e092e)" d="M 156.771429 292.8 
L 156.771429 33.36 
" style="fill:none;stroke:#000000;stroke-dasharray:3.7,1.6;stroke-dashoffset:0;"/>
   </g>
   <g id="line2d_20">
    <path clip-path="url(#p3d4b9e092e)" d="M 381.057143 292.8 
L 381.057143 33.36 
" style="fill:none;stroke:#000000;stroke-dasharray:3.7,1.6;stroke-dashoffset:0;"/>
   </g>
   <g id="line2d_21">
    <path clip-path="url(#p3d4b9e092e)" d="M 437.128571 67.2 
L 459.557143 67.2 
" style="fill:none;stroke:#000000;stroke-dasharray:3.7,1.6;stroke-dashoffset:0;"/>
   </g>
   <g id="patch_3">
    <path d="M 44.628571 349.2 
L 44.628571 10.8 
" style="fill:none;stroke:#000000;stroke-linecap:square;stroke-linejoin:miter;stroke-width:0.8;"/>
   </g>
   <g id="patch_4">
    <path d="M 22.2 180 
L 493.2 180 
" style="fill:none;stroke:#000000;stroke-linecap:square;stroke-linejoin:miter;stroke-width:0.8;"/>
   </g>
   <g id="patch_5">
    <path d="M 377.937047 44.64 
Q 268.912134 44.64 159.887221 44.64 
" style="fill:none;stroke:#000000;stroke-linecap:round;"/>
    <path d="M 373.937047 42.64 
L 377.937047 44.64 
L 373.937047 46.64 
" style="fill:none;stroke:#000000;stroke-linecap:round;"/>
    <path d="M 163.887221 46.64 
L 159.887221 44.64 
L 163.887221 42.64 
" style="fill:none;stroke:#000000;stroke-linecap:round;"/>
   </g>
   <g id="text_2">
    <!-- $\lambda$ -->
    <g transform="translate(257.7 33.36)scale(0.15 -0.15)">
     <defs>
      <path d="M 36.71875 67.4375 
L 48.828125 0 
L 39.3125 0 
L 31.84375 40.4375 
L 5.125 0 
L -4.390625 0 
L 29.734375 52.4375 
L 28.03125 62.109375 
Q 26.953125 68.265625 21.734375 68.265625 
L 17.046875 68.265625 
L 18.5 75.984375 
L 24.21875 75.875 
Q 35.203125 75.734375 36.71875 67.4375 
z
" id="DejaVuSans-Oblique-955"/>
     </defs>
     <use transform="translate(0 0.015625)" xlink:href="#DejaVuSans-Oblique-955"/>
    </g>
   </g>
   <g id="patch_6">
    <path d="M 265.79419 315.36 
Q 240.879131 315.36 214.846037 315.36 
" style="fill:none;stroke:#000000;stroke-linecap:round;"/>
    <path d="M 261.79419 313.36 
L 265.79419 315.36 
L 261.79419 317.36 
" style="fill:none;stroke:#000000;stroke-linecap:round;"/>
   </g>
   <g id="text_3">
    <!-- $v$ -->
    <g transform="translate(268.914286 315.36)scale(0.15 -0.15)">
     <defs>
      <path d="M 7.171875 54.6875 
L 16.703125 54.6875 
L 24.703125 8.203125 
L 50.875 54.6875 
L 60.40625 54.6875 
L 29.296875 0 
L 17.1875 0 
z
" id="DejaVuSans-Oblique-118"/>
     </defs>
     <use transform="translate(0 0.3125)" xlink:href="#DejaVuSans-Oblique-118"/>
    </g>
   </g>
   <g id="patch_7">
    <path d="M 448.342857 176.881942 
Q 448.342857 123.599176 448.342857 70.31641 
" style="fill:none;stroke:#000000;stroke-linecap:round;"/>
    <path d="M 450.342857 172.881942 
L 448.342857 176.881942 
L 446.342857 172.881942 
" style="fill:none;stroke:#000000;stroke-linecap:round;"/>
    <path d="M 446.342857 74.31641 
L 448.342857 70.31641 
L 450.342857 74.31641 
" style="fill:none;stroke:#000000;stroke-linecap:round;"/>
   </g>
   <g id="text_4">
    <!-- $A$ -->
    <g transform="translate(459.557143 123.6)scale(0.15 -0.15)">
     <defs>
      <path d="M 36.8125 72.90625 
L 48 72.90625 
L 61.53125 0 
L 51.21875 0 
L 48.1875 18.703125 
L 15.375 18.703125 
L 5.078125 0 
L -5.328125 0 
z
M 40.375 63.1875 
L 19.921875 26.90625 
L 46.6875 26.90625 
z
" id="DejaVuSans-Oblique-65"/>
     </defs>
     <use transform="translate(0 0.09375)" xlink:href="#DejaVuSans-Oblique-65"/>
    </g>
   </g>
  </g>
 </g>
 <defs>
  <clipPath id="p3d4b9e092e">
   <rect height="338.4" width="471" x="22.2" y="10.8"/>
  </clipPath>
 </defs>
</svg>
