<?xml version="1.0" encoding="utf-8" standalone="no"?>
<!DOCTYPE svg PUBLIC "-//W3C//DTD SVG 1.1//EN"
  "http://www.w3.org/Graphics/SVG/1.1/DTD/svg11.dtd">
<!-- Created with matplotlib (https://matplotlib.org/) -->
<svg height="504pt" version="1.1" viewBox="0 0 504 504" width="504pt" xmlns="http://www.w3.org/2000/svg" xmlns:xlink="http://www.w3.org/1999/xlink">
 <metadata>
  <rdf:RDF xmlns:cc="http://creativecommons.org/ns#" xmlns:dc="http://purl.org/dc/elements/1.1/" xmlns:rdf="http://www.w3.org/1999/02/22-rdf-syntax-ns#">
   <cc:Work>
    <dc:type rdf:resource="http://purl.org/dc/dcmitype/StillImage"/>
    <dc:date>2024-01-19T11:56:49.201730</dc:date>
    <dc:format>image/svg+xml</dc:format>
    <dc:creator>
     <cc:Agent>
      <dc:title>Matplotlib v3.3.2, https://matplotlib.org/</dc:title>
     </cc:Agent>
    </dc:creator>
   </cc:Work>
  </rdf:RDF>
 </metadata>
 <defs>
  <style type="text/css">*{stroke-linecap:butt;stroke-linejoin:round;}</style>
 </defs>
 <g id="figure_1">
  <g id="patch_1">
   <path d="M 0 504 
L 504 504 
L 504 0 
L 0 0 
z
" style="fill:none;"/>
  </g>
  <g id="axes_1">
   <g id="patch_2">
    <path clip-path="url(#pbcd107e80e)" d="M 334.624237 281.056687 
C 337.585346 281.056687 340.425574 279.880227 342.519394 277.786407 
C 344.613214 275.692587 345.789675 272.852359 345.789675 269.89125 
C 345.789675 266.930141 344.613214 264.089913 342.519394 261.996093 
C 340.425574 259.902273 337.585346 258.725812 334.624237 258.725812 
C 331.663129 258.725812 328.822901 259.902273 326.729081 261.996093 
C 324.635261 264.089913 323.4588 266.930141 323.4588 269.89125 
C 323.4588 272.852359 324.635261 275.692587 326.729081 277.786407 
C 328.822901 279.880227 331.663129 281.056687 334.624237 281.056687 
z
" style="fill:none;opacity:0.743878;stroke:#0000ff;stroke-linejoin:miter;stroke-width:3;"/>
   </g>
   <g id="patch_3">
    <path clip-path="url(#pbcd107e80e)" d="M 334.624237 273.240881 
C 335.51257 273.240881 336.364638 272.887943 336.992784 272.259797 
C 337.62093 271.631651 337.973869 270.779583 337.973869 269.89125 
C 337.973869 269.002917 337.62093 268.150849 336.992784 267.522703 
C 336.364638 266.894557 335.51257 266.541619 334.624237 266.541619 
C 333.735905 266.541619 332.883837 266.894557 332.255691 267.522703 
C 331.627545 268.150849 331.274606 269.002917 331.274606 269.89125 
C 331.274606 270.779583 331.627545 271.631651 332.255691 272.259797 
C 332.883837 272.887943 333.735905 273.240881 334.624237 273.240881 
z
" style="fill:#ff0000;opacity:0.743878;stroke:#ff0000;stroke-linejoin:miter;"/>
   </g>
   <g id="patch_4">
    <path clip-path="url(#pbcd107e80e)" d="M 311.176819 320.135719 
C 324.501808 320.135719 337.282833 314.841645 346.705023 305.419455 
C 356.127213 295.997265 361.421287 283.216239 361.421287 269.89125 
C 361.421287 256.566261 356.127213 243.785235 346.705023 234.363045 
C 337.282833 224.940855 324.501808 219.646781 311.176819 219.646781 
C 297.85183 219.646781 285.070804 224.940855 275.648614 234.363045 
C 266.226424 243.785235 260.93235 256.566261 260.93235 269.89125 
C 260.93235 283.216239 266.226424 295.997265 275.648614 305.419455 
C 285.070804 314.841645 297.85183 320.135719 311.176819 320.135719 
z
" style="fill:none;opacity:0.56352;stroke:#0000ff;stroke-linejoin:miter;stroke-width:3;"/>
   </g>
   <g id="patch_5">
    <path clip-path="url(#pbcd107e80e)" d="M 311.176819 273.240881 
C 312.065151 273.240881 312.91722 272.887943 313.545366 272.259797 
C 314.173512 271.631651 314.52645 270.779583 314.52645 269.89125 
C 314.52645 269.002917 314.173512 268.150849 313.545366 267.522703 
C 312.91722 266.894557 312.065151 266.541619 311.176819 266.541619 
C 310.288486 266.541619 309.436418 266.894557 308.808272 267.522703 
C 308.180126 268.150849 307.827187 269.002917 307.827187 269.89125 
C 307.827187 270.779583 308.180126 271.631651 308.808272 272.259797 
C 309.436418 272.887943 310.288486 273.240881 311.176819 273.240881 
z
" style="fill:#ff0000;opacity:0.56352;stroke:#ff0000;stroke-linejoin:miter;"/>
   </g>
   <g id="patch_6">
    <path clip-path="url(#pbcd107e80e)" d="M 287.7294 359.21475 
C 311.418269 359.21475 334.140093 349.803063 350.890653 333.052503 
C 367.641213 316.301943 377.0529 293.580119 377.0529 269.89125 
C 377.0529 246.202381 367.641213 223.480557 350.890653 206.729997 
C 334.140093 189.979437 311.418269 180.56775 287.7294 180.56775 
C 264.040531 180.56775 241.318707 189.979437 224.568147 206.729997 
C 207.817587 223.480557 198.4059 246.202381 198.4059 269.89125 
C 198.4059 293.580119 207.817587 316.301943 224.568147 333.052503 
C 241.318707 349.803063 264.040531 359.21475 287.7294 359.21475 
z
" style="fill:none;opacity:0.408163;stroke:#0000ff;stroke-linejoin:miter;stroke-width:3;"/>
   </g>
   <g id="patch_7">
    <path clip-path="url(#pbcd107e80e)" d="M 287.7294 273.240881 
C 288.617733 273.240881 289.469801 272.887943 290.097947 272.259797 
C 290.726093 271.631651 291.079031 270.779583 291.079031 269.89125 
C 291.079031 269.002917 290.726093 268.150849 290.097947 267.522703 
C 289.469801 266.894557 288.617733 266.541619 287.7294 266.541619 
C 286.841067 266.541619 285.988999 266.894557 285.360853 267.522703 
C 284.732707 268.150849 284.379769 269.002917 284.379769 269.89125 
C 284.379769 270.779583 284.732707 271.631651 285.360853 272.259797 
C 285.988999 272.887943 286.841067 273.240881 287.7294 273.240881 
z
" style="fill:#ff0000;opacity:0.408163;stroke:#ff0000;stroke-linejoin:miter;"/>
   </g>
   <g id="patch_8">
    <path clip-path="url(#pbcd107e80e)" d="M 264.281981 398.293781 
C 298.334731 398.293781 330.997352 384.764481 355.076282 360.685551 
C 379.155212 336.606621 392.684512 303.943999 392.684512 269.89125 
C 392.684512 235.838501 379.155212 203.175879 355.076282 179.096949 
C 330.997352 155.018019 298.334731 141.488719 264.281981 141.488719 
C 230.229232 141.488719 197.566611 155.018019 173.487681 179.096949 
C 149.408751 203.175879 135.87945 235.838501 135.87945 269.89125 
C 135.87945 303.943999 149.408751 336.606621 173.487681 360.685551 
C 197.566611 384.764481 230.229232 398.293781 264.281981 398.293781 
z
" style="fill:none;opacity:0.277806;stroke:#0000ff;stroke-linejoin:miter;stroke-width:3;"/>
   </g>
   <g id="patch_9">
    <path clip-path="url(#pbcd107e80e)" d="M 264.281981 273.240881 
C 265.170314 273.240881 266.022382 272.887943 266.650528 272.259797 
C 267.278674 271.631651 267.631612 270.779583 267.631612 269.89125 
C 267.631612 269.002917 267.278674 268.150849 266.650528 267.522703 
C 266.022382 266.894557 265.170314 266.541619 264.281981 266.541619 
C 263.393649 266.541619 262.54158 266.894557 261.913434 267.522703 
C 261.285288 268.150849 260.93235 269.002917 260.93235 269.89125 
C 260.93235 270.779583 261.285288 271.631651 261.913434 272.259797 
C 262.54158 272.887943 263.393649 273.240881 264.281981 273.240881 
z
" style="fill:#ff0000;opacity:0.277806;stroke:#ff0000;stroke-linejoin:miter;"/>
   </g>
   <g id="patch_10">
    <path clip-path="url(#pbcd107e80e)" d="M 240.834562 437.372813 
C 285.251192 437.372813 327.854611 419.725899 359.261911 388.318599 
C 390.669211 356.911299 408.316125 314.30788 408.316125 269.89125 
C 408.316125 225.47462 390.669211 182.871201 359.261911 151.463901 
C 327.854611 120.056601 285.251192 102.409687 240.834562 102.409687 
C 196.417933 102.409687 153.814514 120.056601 122.407214 151.463901 
C 90.999914 182.871201 73.353 225.47462 73.353 269.89125 
C 73.353 314.30788 90.999914 356.911299 122.407214 388.318599 
C 153.814514 419.725899 196.417933 437.372813 240.834562 437.372813 
z
" style="fill:none;opacity:0.172449;stroke:#0000ff;stroke-linejoin:miter;stroke-width:3;"/>
   </g>
   <g id="patch_11">
    <path clip-path="url(#pbcd107e80e)" d="M 240.834562 273.240881 
C 241.722895 273.240881 242.574963 272.887943 243.203109 272.259797 
C 243.831255 271.631651 244.184194 270.779583 244.184194 269.89125 
C 244.184194 269.002917 243.831255 268.150849 243.203109 267.522703 
C 242.574963 266.894557 241.722895 266.541619 240.834562 266.541619 
C 239.94623 266.541619 239.094162 266.894557 238.466016 267.522703 
C 237.83787 268.150849 237.484931 269.002917 237.484931 269.89125 
C 237.484931 270.779583 237.83787 271.631651 238.466016 272.259797 
C 239.094162 272.887943 239.94623 273.240881 240.834562 273.240881 
z
" style="fill:#ff0000;opacity:0.172449;stroke:#ff0000;stroke-linejoin:miter;"/>
   </g>
   <g id="patch_12">
    <path clip-path="url(#pbcd107e80e)" d="M 217.387144 476.451844 
C 272.167654 476.451844 324.71187 454.687317 363.44754 415.951647 
C 402.18321 377.215977 423.947738 324.67176 423.947738 269.89125 
C 423.947738 215.11074 402.18321 162.566523 363.44754 123.830853 
C 324.71187 85.095183 272.167654 63.330656 217.387144 63.330656 
C 162.606634 63.330656 110.062417 85.095183 71.326747 123.830853 
C 32.591077 162.566523 10.82655 215.11074 10.82655 269.89125 
C 10.82655 324.67176 32.591077 377.215977 71.326747 415.951647 
C 110.062417 454.687317 162.606634 476.451844 217.387144 476.451844 
z
" style="fill:none;opacity:0.092092;stroke:#0000ff;stroke-linejoin:miter;stroke-width:3;"/>
   </g>
   <g id="patch_13">
    <path clip-path="url(#pbcd107e80e)" d="M 217.387144 273.240881 
C 218.275476 273.240881 219.127545 272.887943 219.755691 272.259797 
C 220.383837 271.631651 220.736775 270.779583 220.736775 269.89125 
C 220.736775 269.002917 220.383837 268.150849 219.755691 267.522703 
C 219.127545 266.894557 218.275476 266.541619 217.387144 266.541619 
C 216.498811 266.541619 215.646743 266.894557 215.018597 267.522703 
C 214.390451 268.150849 214.037512 269.002917 214.037512 269.89125 
C 214.037512 270.779583 214.390451 271.631651 215.018597 272.259797 
C 215.646743 272.887943 216.498811 273.240881 217.387144 273.240881 
z
" style="fill:#ff0000;opacity:0.092092;stroke:#ff0000;stroke-linejoin:miter;"/>
   </g>
   <g id="patch_14">
    <path clip-path="url(#pbcd107e80e)" d="M 193.939725 515.530875 
C 259.084115 515.530875 321.56913 489.648735 367.63317 443.584695 
C 413.69721 397.520655 439.57935 335.03564 439.57935 269.89125 
C 439.57935 204.74686 413.69721 142.261845 367.63317 96.197805 
C 321.56913 50.133765 259.084115 24.251625 193.939725 24.251625 
C 128.795335 24.251625 66.31032 50.133765 20.24628 96.197805 
C -25.81776 142.261845 -51.6999 204.74686 -51.6999 269.89125 
C -51.6999 335.03564 -25.81776 397.520655 20.24628 443.584695 
C 66.31032 489.648735 128.795335 515.530875 193.939725 515.530875 
z
" style="fill:none;opacity:0.036735;stroke:#0000ff;stroke-linejoin:miter;stroke-width:3;"/>
   </g>
   <g id="patch_15">
    <path clip-path="url(#pbcd107e80e)" d="M 193.939725 273.240881 
C 194.828058 273.240881 195.680126 272.887943 196.308272 272.259797 
C 196.936418 271.631651 197.289356 270.779583 197.289356 269.89125 
C 197.289356 269.002917 196.936418 268.150849 196.308272 267.522703 
C 195.680126 266.894557 194.828058 266.541619 193.939725 266.541619 
C 193.051392 266.541619 192.199324 266.894557 191.571178 267.522703 
C 190.943032 268.150849 190.590094 269.002917 190.590094 269.89125 
C 190.590094 270.779583 190.943032 271.631651 191.571178 272.259797 
C 192.199324 272.887943 193.051392 273.240881 193.939725 273.240881 
z
" style="fill:#ff0000;opacity:0.036735;stroke:#ff0000;stroke-linejoin:miter;"/>
   </g>
   <g id="patch_16">
    <path clip-path="url(#pbcd107e80e)" d="M 341.3235 274.357425 
C 342.507943 274.357425 343.644035 273.886841 344.481563 273.049313 
C 345.319091 272.211785 345.789675 271.075693 345.789675 269.89125 
C 345.789675 268.706807 345.319091 267.570715 344.481563 266.733187 
C 343.644035 265.895659 342.507943 265.425075 341.3235 265.425075 
C 340.139057 265.425075 339.002965 265.895659 338.165437 266.733187 
C 337.327909 267.570715 336.857325 268.706807 336.857325 269.89125 
C 336.857325 271.075693 337.327909 272.211785 338.165437 273.049313 
C 339.002965 273.886841 340.139057 274.357425 341.3235 274.357425 
z
" style="stroke:#000000;stroke-linejoin:miter;"/>
   </g>
   <g id="text_1">
    <!-- 7 -->
    <g transform="translate(329.852362 292.222125)scale(0.15 -0.15)">
     <defs>
      <path d="M 8.203125 72.90625 
L 55.078125 72.90625 
L 55.078125 68.703125 
L 28.609375 0 
L 18.3125 0 
L 43.21875 64.59375 
L 8.203125 64.59375 
z
" id="DejaVuSans-55"/>
     </defs>
     <use xlink:href="#DejaVuSans-55"/>
    </g>
   </g>
   <g id="text_2">
    <!-- 7 -->
    <g transform="translate(329.852362 253.143094)scale(0.15 -0.15)">
     <use xlink:href="#DejaVuSans-55"/>
    </g>
   </g>
   <g id="text_3">
    <!-- 6 -->
    <g transform="translate(306.404944 292.222125)scale(0.15 -0.15)">
     <defs>
      <path d="M 33.015625 40.375 
Q 26.375 40.375 22.484375 35.828125 
Q 18.609375 31.296875 18.609375 23.390625 
Q 18.609375 15.53125 22.484375 10.953125 
Q 26.375 6.390625 33.015625 6.390625 
Q 39.65625 6.390625 43.53125 10.953125 
Q 47.40625 15.53125 47.40625 23.390625 
Q 47.40625 31.296875 43.53125 35.828125 
Q 39.65625 40.375 33.015625 40.375 
z
M 52.59375 71.296875 
L 52.59375 62.3125 
Q 48.875 64.0625 45.09375 64.984375 
Q 41.3125 65.921875 37.59375 65.921875 
Q 27.828125 65.921875 22.671875 59.328125 
Q 17.53125 52.734375 16.796875 39.40625 
Q 19.671875 43.65625 24.015625 45.921875 
Q 28.375 48.1875 33.59375 48.1875 
Q 44.578125 48.1875 50.953125 41.515625 
Q 57.328125 34.859375 57.328125 23.390625 
Q 57.328125 12.15625 50.6875 5.359375 
Q 44.046875 -1.421875 33.015625 -1.421875 
Q 20.359375 -1.421875 13.671875 8.265625 
Q 6.984375 17.96875 6.984375 36.375 
Q 6.984375 53.65625 15.1875 63.9375 
Q 23.390625 74.21875 37.203125 74.21875 
Q 40.921875 74.21875 44.703125 73.484375 
Q 48.484375 72.75 52.59375 71.296875 
z
" id="DejaVuSans-54"/>
     </defs>
     <use xlink:href="#DejaVuSans-54"/>
    </g>
   </g>
   <g id="text_4">
    <!-- 6 -->
    <g transform="translate(306.404944 214.064062)scale(0.15 -0.15)">
     <use xlink:href="#DejaVuSans-54"/>
    </g>
   </g>
   <g id="text_5">
    <!-- 5 -->
    <g transform="translate(282.957525 292.222125)scale(0.15 -0.15)">
     <defs>
      <path d="M 10.796875 72.90625 
L 49.515625 72.90625 
L 49.515625 64.59375 
L 19.828125 64.59375 
L 19.828125 46.734375 
Q 21.96875 47.46875 24.109375 47.828125 
Q 26.265625 48.1875 28.421875 48.1875 
Q 40.625 48.1875 47.75 41.5 
Q 54.890625 34.8125 54.890625 23.390625 
Q 54.890625 11.625 47.5625 5.09375 
Q 40.234375 -1.421875 26.90625 -1.421875 
Q 22.3125 -1.421875 17.546875 -0.640625 
Q 12.796875 0.140625 7.71875 1.703125 
L 7.71875 11.625 
Q 12.109375 9.234375 16.796875 8.0625 
Q 21.484375 6.890625 26.703125 6.890625 
Q 35.15625 6.890625 40.078125 11.328125 
Q 45.015625 15.765625 45.015625 23.390625 
Q 45.015625 31 40.078125 35.4375 
Q 35.15625 39.890625 26.703125 39.890625 
Q 22.75 39.890625 18.8125 39.015625 
Q 14.890625 38.140625 10.796875 36.28125 
z
" id="DejaVuSans-53"/>
     </defs>
     <use xlink:href="#DejaVuSans-53"/>
    </g>
   </g>
   <g id="text_6">
    <!-- 5 -->
    <g transform="translate(282.957525 174.985031)scale(0.15 -0.15)">
     <use xlink:href="#DejaVuSans-53"/>
    </g>
   </g>
   <g id="text_7">
    <!-- 4 -->
    <g transform="translate(259.510106 292.222125)scale(0.15 -0.15)">
     <defs>
      <path d="M 37.796875 64.3125 
L 12.890625 25.390625 
L 37.796875 25.390625 
z
M 35.203125 72.90625 
L 47.609375 72.90625 
L 47.609375 25.390625 
L 58.015625 25.390625 
L 58.015625 17.1875 
L 47.609375 17.1875 
L 47.609375 0 
L 37.796875 0 
L 37.796875 17.1875 
L 4.890625 17.1875 
L 4.890625 26.703125 
z
" id="DejaVuSans-52"/>
     </defs>
     <use xlink:href="#DejaVuSans-52"/>
    </g>
   </g>
   <g id="text_8">
    <!-- 4 -->
    <g transform="translate(259.510106 135.906)scale(0.15 -0.15)">
     <use xlink:href="#DejaVuSans-52"/>
    </g>
   </g>
   <g id="text_9">
    <!-- 3 -->
    <g transform="translate(236.062687 292.222125)scale(0.15 -0.15)">
     <defs>
      <path d="M 40.578125 39.3125 
Q 47.65625 37.796875 51.625 33 
Q 55.609375 28.21875 55.609375 21.1875 
Q 55.609375 10.40625 48.1875 4.484375 
Q 40.765625 -1.421875 27.09375 -1.421875 
Q 22.515625 -1.421875 17.65625 -0.515625 
Q 12.796875 0.390625 7.625 2.203125 
L 7.625 11.71875 
Q 11.71875 9.328125 16.59375 8.109375 
Q 21.484375 6.890625 26.8125 6.890625 
Q 36.078125 6.890625 40.9375 10.546875 
Q 45.796875 14.203125 45.796875 21.1875 
Q 45.796875 27.640625 41.28125 31.265625 
Q 36.765625 34.90625 28.71875 34.90625 
L 20.21875 34.90625 
L 20.21875 43.015625 
L 29.109375 43.015625 
Q 36.375 43.015625 40.234375 45.921875 
Q 44.09375 48.828125 44.09375 54.296875 
Q 44.09375 59.90625 40.109375 62.90625 
Q 36.140625 65.921875 28.71875 65.921875 
Q 24.65625 65.921875 20.015625 65.03125 
Q 15.375 64.15625 9.8125 62.3125 
L 9.8125 71.09375 
Q 15.4375 72.65625 20.34375 73.4375 
Q 25.25 74.21875 29.59375 74.21875 
Q 40.828125 74.21875 47.359375 69.109375 
Q 53.90625 64.015625 53.90625 55.328125 
Q 53.90625 49.265625 50.4375 45.09375 
Q 46.96875 40.921875 40.578125 39.3125 
z
" id="DejaVuSans-51"/>
     </defs>
     <use xlink:href="#DejaVuSans-51"/>
    </g>
   </g>
   <g id="text_10">
    <!-- 3 -->
    <g transform="translate(236.062687 96.826969)scale(0.15 -0.15)">
     <use xlink:href="#DejaVuSans-51"/>
    </g>
   </g>
   <g id="text_11">
    <!-- 2 -->
    <g transform="translate(212.615269 292.222125)scale(0.15 -0.15)">
     <defs>
      <path d="M 19.1875 8.296875 
L 53.609375 8.296875 
L 53.609375 0 
L 7.328125 0 
L 7.328125 8.296875 
Q 12.9375 14.109375 22.625 23.890625 
Q 32.328125 33.6875 34.8125 36.53125 
Q 39.546875 41.84375 41.421875 45.53125 
Q 43.3125 49.21875 43.3125 52.78125 
Q 43.3125 58.59375 39.234375 62.25 
Q 35.15625 65.921875 28.609375 65.921875 
Q 23.96875 65.921875 18.8125 64.3125 
Q 13.671875 62.703125 7.8125 59.421875 
L 7.8125 69.390625 
Q 13.765625 71.78125 18.9375 73 
Q 24.125 74.21875 28.421875 74.21875 
Q 39.75 74.21875 46.484375 68.546875 
Q 53.21875 62.890625 53.21875 53.421875 
Q 53.21875 48.921875 51.53125 44.890625 
Q 49.859375 40.875 45.40625 35.40625 
Q 44.1875 33.984375 37.640625 27.21875 
Q 31.109375 20.453125 19.1875 8.296875 
z
" id="DejaVuSans-50"/>
     </defs>
     <use xlink:href="#DejaVuSans-50"/>
    </g>
   </g>
   <g id="text_12">
    <!-- 2 -->
    <g transform="translate(212.615269 57.747937)scale(0.15 -0.15)">
     <use xlink:href="#DejaVuSans-50"/>
    </g>
   </g>
   <g id="text_13">
    <!-- 1 -->
    <g transform="translate(189.16785 292.222125)scale(0.15 -0.15)">
     <defs>
      <path d="M 12.40625 8.296875 
L 28.515625 8.296875 
L 28.515625 63.921875 
L 10.984375 60.40625 
L 10.984375 69.390625 
L 28.421875 72.90625 
L 38.28125 72.90625 
L 38.28125 8.296875 
L 54.390625 8.296875 
L 54.390625 0 
L 12.40625 0 
z
" id="DejaVuSans-49"/>
     </defs>
     <use xlink:href="#DejaVuSans-49"/>
    </g>
   </g>
   <g id="patch_17">
    <path d="M 352.488937 267.89125 
Q 396.733449 267.89125 440.97796 267.89125 
L 440.97796 263.89125 
Q 446.977918 266.89125 452.977875 269.89125 
Q 446.977918 272.89125 440.97796 275.89125 
L 440.97796 271.89125 
Q 396.733449 271.89125 352.488937 271.89125 
L 352.488937 267.89125 
z
" style="stroke:#000000;stroke-linecap:round;"/>
   </g>
   <g id="text_14">
    <!-- $u_s$ -->
    <g transform="translate(452.977875 269.89125)scale(0.2 -0.2)">
     <defs>
      <path d="M 6.6875 21.6875 
L 13.09375 54.6875 
L 22.125 54.6875 
L 15.71875 22.015625 
Q 15.234375 19.625 15.015625 17.921875 
Q 14.796875 16.21875 14.796875 15.09375 
Q 14.796875 10.9375 17.328125 8.65625 
Q 19.875 6.390625 24.515625 6.390625 
Q 31.734375 6.390625 37 11.265625 
Q 42.28125 16.15625 43.890625 24.421875 
L 49.90625 54.6875 
L 58.890625 54.6875 
L 48.296875 0 
L 39.3125 0 
L 41.109375 8.59375 
Q 37.3125 3.8125 32.0625 1.1875 
Q 26.8125 -1.421875 20.90625 -1.421875 
Q 13.71875 -1.421875 9.71875 2.515625 
Q 5.71875 6.453125 5.71875 13.484375 
Q 5.71875 14.9375 5.953125 17.140625 
Q 6.203125 19.34375 6.6875 21.6875 
z
" id="DejaVuSans-Oblique-117"/>
      <path d="M 50 53.078125 
L 48.296875 44.578125 
Q 44.734375 46.53125 40.765625 47.5 
Q 36.8125 48.484375 32.625 48.484375 
Q 25.53125 48.484375 21.453125 46.0625 
Q 17.390625 43.65625 17.390625 39.5 
Q 17.390625 34.671875 26.859375 32.078125 
Q 27.59375 31.890625 27.9375 31.78125 
L 30.8125 30.90625 
Q 39.796875 28.421875 42.796875 25.6875 
Q 45.796875 22.953125 45.796875 18.21875 
Q 45.796875 9.515625 38.890625 4.046875 
Q 31.984375 -1.421875 20.796875 -1.421875 
Q 16.453125 -1.421875 11.671875 -0.578125 
Q 6.890625 0.25 1.125 2 
L 2.875 11.28125 
Q 7.8125 8.734375 12.59375 7.421875 
Q 17.390625 6.109375 21.78125 6.109375 
Q 28.375 6.109375 32.5 8.9375 
Q 36.625 11.765625 36.625 16.109375 
Q 36.625 20.796875 25.78125 23.6875 
L 24.859375 23.921875 
L 21.78125 24.703125 
Q 14.9375 26.515625 11.765625 29.46875 
Q 8.59375 32.421875 8.59375 37.015625 
Q 8.59375 45.75 15.15625 50.875 
Q 21.734375 56 33.015625 56 
Q 37.453125 56 41.671875 55.265625 
Q 45.90625 54.546875 50 53.078125 
z
" id="DejaVuSans-Oblique-115"/>
     </defs>
     <use transform="translate(0 0.3125)" xlink:href="#DejaVuSans-Oblique-117"/>
     <use transform="translate(63.378906 -16.09375)scale(0.7)" xlink:href="#DejaVuSans-Oblique-115"/>
    </g>
   </g>
   <g id="patch_18">
    <path d="M 359.597524 363.49491 
Q 374.839372 378.736757 390.08122 393.978605 
L 392.909647 391.150178 
Q 395.030167 397.513339 397.150688 403.8765 
Q 390.787527 401.75598 384.424366 399.635459 
L 387.252793 396.807032 
Q 372.010945 381.565185 356.769097 366.323337 
L 359.597524 363.49491 
z
" style="fill:#0000ff;stroke:#000000;stroke-linecap:round;"/>
   </g>
   <g id="patch_19">
    <path d="M 356.769097 173.459163 
Q 372.010945 158.217315 387.252793 142.975468 
L 384.424366 140.147041 
Q 390.787527 138.02652 397.150688 135.906 
Q 395.030167 142.269161 392.909647 148.632322 
L 390.08122 145.803895 
Q 374.839372 161.045743 359.597524 176.28759 
L 356.769097 173.459163 
z
" style="fill:#0000ff;stroke:#000000;stroke-linecap:round;"/>
   </g>
   <g id="text_15">
    <!-- $v$ -->
    <g transform="translate(402.733406 403.8765)scale(0.2 -0.2)">
     <defs>
      <path d="M 7.171875 54.6875 
L 16.703125 54.6875 
L 24.703125 8.203125 
L 50.875 54.6875 
L 60.40625 54.6875 
L 29.296875 0 
L 17.1875 0 
z
" id="DejaVuSans-Oblique-118"/>
     </defs>
     <use transform="translate(0 0.3125)" xlink:href="#DejaVuSans-Oblique-118"/>
    </g>
   </g>
   <g id="text_16">
    <!-- $v$ -->
    <g transform="translate(402.733406 135.906)scale(0.2 -0.2)">
     <use transform="translate(0 0.3125)" xlink:href="#DejaVuSans-Oblique-118"/>
    </g>
   </g>
  </g>
 </g>
 <defs>
  <clipPath id="pbcd107e80e">
   <rect height="446.6175" width="446.6175" x="28.69125" y="46.5825"/>
  </clipPath>
 </defs>
</svg>
