<?xml version="1.0" encoding="utf-8" standalone="no"?>
<!DOCTYPE svg PUBLIC "-//W3C//DTD SVG 1.1//EN"
  "http://www.w3.org/Graphics/SVG/1.1/DTD/svg11.dtd">
<!-- Created with matplotlib (https://matplotlib.org/) -->
<svg height="360pt" version="1.1" viewBox="0 0 360 360" width="360pt" xmlns="http://www.w3.org/2000/svg" xmlns:xlink="http://www.w3.org/1999/xlink">
 <metadata>
  <rdf:RDF xmlns:cc="http://creativecommons.org/ns#" xmlns:dc="http://purl.org/dc/elements/1.1/" xmlns:rdf="http://www.w3.org/1999/02/22-rdf-syntax-ns#">
   <cc:Work>
    <dc:type rdf:resource="http://purl.org/dc/dcmitype/StillImage"/>
    <dc:date>2024-01-19T11:57:01.111440</dc:date>
    <dc:format>image/svg+xml</dc:format>
    <dc:creator>
     <cc:Agent>
      <dc:title>Matplotlib v3.3.2, https://matplotlib.org/</dc:title>
     </cc:Agent>
    </dc:creator>
   </cc:Work>
  </rdf:RDF>
 </metadata>
 <defs>
  <style type="text/css">*{stroke-linecap:butt;stroke-linejoin:round;}</style>
 </defs>
 <g id="figure_1">
  <g id="patch_1">
   <path d="M 0 360 
L 360 360 
L 360 0 
L 0 0 
z
" style="fill:none;"/>
  </g>
  <g id="axes_1">
   <g id="patch_2">
    <path clip-path="url(#pc537259015)" d="M 180 180 
C 180 180 180 180 180 180 
C 180 180 180 180 180 180 
C 180 180 180 180 180 180 
C 180 180 180 180 180 180 
C 180 180 180 180 180 180 
C 180 180 180 180 180 180 
C 180 180 180 180 180 180 
C 180 180 180 180 180 180 
z
" style="fill:none;opacity:0.8;stroke:#0000ff;stroke-linejoin:miter;stroke-width:3;"/>
   </g>
   <g id="patch_3">
    <path clip-path="url(#pc537259015)" d="M 180 201.15 
C 185.609046 201.15 190.989114 198.921503 194.955308 194.955308 
C 198.921503 190.989114 201.15 185.609046 201.15 180 
C 201.15 174.390954 198.921503 169.010886 194.955308 165.044692 
C 190.989114 161.078497 185.609046 158.85 180 158.85 
C 174.390954 158.85 169.010886 161.078497 165.044692 165.044692 
C 161.078497 169.010886 158.85 174.390954 158.85 180 
C 158.85 185.609046 161.078497 190.989114 165.044692 194.955308 
C 169.010886 198.921503 174.390954 201.15 180 201.15 
z
" style="fill:none;opacity:0.711674;stroke:#0000ff;stroke-linejoin:miter;stroke-width:3;"/>
   </g>
   <g id="patch_4">
    <path clip-path="url(#pc537259015)" d="M 180 222.3 
C 191.218091 222.3 201.978229 217.843005 209.910617 209.910617 
C 217.843005 201.978229 222.3 191.218091 222.3 180 
C 222.3 168.781909 217.843005 158.021771 209.910617 150.089383 
C 201.978229 142.156995 191.218091 137.7 180 137.7 
C 168.781909 137.7 158.021771 142.156995 150.089383 150.089383 
C 142.156995 158.021771 137.7 168.781909 137.7 180 
C 137.7 191.218091 142.156995 201.978229 150.089383 209.910617 
C 158.021771 217.843005 168.781909 222.3 180 222.3 
z
" style="fill:none;opacity:0.628512;stroke:#0000ff;stroke-linejoin:miter;stroke-width:3;"/>
   </g>
   <g id="patch_5">
    <path clip-path="url(#pc537259015)" d="M 180 243.45 
C 196.827137 243.45 212.967343 236.764508 224.865925 224.865925 
C 236.764508 212.967343 243.45 196.827137 243.45 180 
C 243.45 163.172863 236.764508 147.032657 224.865925 135.134075 
C 212.967343 123.235492 196.827137 116.55 180 116.55 
C 163.172863 116.55 147.032657 123.235492 135.134075 135.134075 
C 123.235492 147.032657 116.55 163.172863 116.55 180 
C 116.55 196.827137 123.235492 212.967343 135.134075 224.865925 
C 147.032657 236.764508 163.172863 243.45 180 243.45 
z
" style="fill:none;opacity:0.550517;stroke:#0000ff;stroke-linejoin:miter;stroke-width:3;"/>
   </g>
   <g id="patch_6">
    <path clip-path="url(#pc537259015)" d="M 180 264.6 
C 202.436182 264.6 223.956457 255.68601 239.821234 239.821234 
C 255.68601 223.956457 264.6 202.436182 264.6 180 
C 264.6 157.563818 255.68601 136.043543 239.821234 120.178766 
C 223.956457 104.31399 202.436182 95.4 180 95.4 
C 157.563818 95.4 136.043543 104.31399 120.178766 120.178766 
C 104.31399 136.043543 95.4 157.563818 95.4 180 
C 95.4 202.436182 104.31399 223.956457 120.178766 239.821234 
C 136.043543 255.68601 157.563818 264.6 180 264.6 
z
" style="fill:none;opacity:0.477686;stroke:#0000ff;stroke-linejoin:miter;stroke-width:3;"/>
   </g>
   <g id="patch_7">
    <path clip-path="url(#pc537259015)" d="M 180 285.75 
C 208.045228 285.75 234.945571 274.607513 254.776542 254.776542 
C 274.607513 234.945571 285.75 208.045228 285.75 180 
C 285.75 151.954772 274.607513 125.054429 254.776542 105.223458 
C 234.945571 85.392487 208.045228 74.25 180 74.25 
C 151.954772 74.25 125.054429 85.392487 105.223458 105.223458 
C 85.392487 125.054429 74.25 151.954772 74.25 180 
C 74.25 208.045228 85.392487 234.945571 105.223458 254.776542 
C 125.054429 274.607513 151.954772 285.75 180 285.75 
z
" style="fill:none;opacity:0.410021;stroke:#0000ff;stroke-linejoin:miter;stroke-width:3;"/>
   </g>
   <g id="patch_8">
    <path clip-path="url(#pc537259015)" d="M 180 306.9 
C 213.654273 306.9 245.934686 293.529015 269.731851 269.731851 
C 293.529015 245.934686 306.9 213.654273 306.9 180 
C 306.9 146.345727 293.529015 114.065314 269.731851 90.268149 
C 245.934686 66.470985 213.654273 53.1 180 53.1 
C 146.345727 53.1 114.065314 66.470985 90.268149 90.268149 
C 66.470985 114.065314 53.1 146.345727 53.1 180 
C 53.1 213.654273 66.470985 245.934686 90.268149 269.731851 
C 114.065314 293.529015 146.345727 306.9 180 306.9 
z
" style="fill:none;opacity:0.347521;stroke:#0000ff;stroke-linejoin:miter;stroke-width:3;"/>
   </g>
   <g id="patch_9">
    <path clip-path="url(#pc537259015)" d="M 180 328.05 
C 219.263319 328.05 256.9238 312.450518 284.687159 284.687159 
C 312.450518 256.9238 328.05 219.263319 328.05 180 
C 328.05 140.736681 312.450518 103.0762 284.687159 75.312841 
C 256.9238 47.549482 219.263319 31.95 180 31.95 
C 140.736681 31.95 103.0762 47.549482 75.312841 75.312841 
C 47.549482 103.0762 31.95 140.736681 31.95 180 
C 31.95 219.263319 47.549482 256.9238 75.312841 284.687159 
C 103.0762 312.450518 140.736681 328.05 180 328.05 
z
" style="fill:none;opacity:0.290186;stroke:#0000ff;stroke-linejoin:miter;stroke-width:3;"/>
   </g>
   <g id="patch_10">
    <path clip-path="url(#pc537259015)" d="M 180 349.2 
C 224.872365 349.2 267.912914 331.372021 299.642467 299.642467 
C 331.372021 267.912914 349.2 224.872365 349.2 180 
C 349.2 135.127635 331.372021 92.087086 299.642467 60.357533 
C 267.912914 28.627979 224.872365 10.8 180 10.8 
C 135.127635 10.8 92.087086 28.627979 60.357533 60.357533 
C 28.627979 92.087086 10.8 135.127635 10.8 180 
C 10.8 224.872365 28.627979 267.912914 60.357533 299.642467 
C 92.087086 331.372021 135.127635 349.2 180 349.2 
z
" style="fill:none;opacity:0.238017;stroke:#0000ff;stroke-linejoin:miter;stroke-width:3;"/>
   </g>
   <g id="patch_11">
    <path clip-path="url(#pc537259015)" d="M 180 370.35 
C 230.48141 370.35 278.902028 350.293523 314.597776 314.597776 
C 350.293523 278.902028 370.35 230.48141 370.35 180 
C 370.35 129.51859 350.293523 81.097972 314.597776 45.402224 
C 278.902028 9.706477 230.48141 -10.35 180 -10.35 
C 129.51859 -10.35 81.097972 9.706477 45.402224 45.402224 
C 9.706477 81.097972 -10.35 129.51859 -10.35 180 
C -10.35 230.48141 9.706477 278.902028 45.402224 314.597776 
C 81.097972 350.293523 129.51859 370.35 180 370.35 
z
" style="fill:none;opacity:0.191012;stroke:#0000ff;stroke-linejoin:miter;stroke-width:3;"/>
   </g>
   <g id="patch_12">
    <path clip-path="url(#pc537259015)" d="M 180 391.5 
C 236.090456 391.5 289.891143 369.215026 329.553084 329.553084 
C 369.215026 289.891143 391.5 236.090456 391.5 180 
C 391.5 123.909544 369.215026 70.108857 329.553084 30.446916 
C 289.891143 -9.215026 236.090456 -31.5 180 -31.5 
C 123.909544 -31.5 70.108857 -9.215026 30.446916 30.446916 
C -9.215026 70.108857 -31.5 123.909544 -31.5 180 
C -31.5 236.090456 -9.215026 289.891143 30.446916 329.553084 
C 70.108857 369.215026 123.909544 391.5 180 391.5 
z
" style="fill:none;opacity:0.149174;stroke:#0000ff;stroke-linejoin:miter;stroke-width:3;"/>
   </g>
   <g id="patch_13">
    <path clip-path="url(#pc537259015)" d="M 180 183.384 
C 180.897447 183.384 181.758258 183.02744 182.392849 182.392849 
C 183.02744 181.758258 183.384 180.897447 183.384 180 
C 183.384 179.102553 183.02744 178.241742 182.392849 177.607151 
C 181.758258 176.97256 180.897447 176.616 180 176.616 
C 179.102553 176.616 178.241742 176.97256 177.607151 177.607151 
C 176.97256 178.241742 176.616 179.102553 176.616 180 
C 176.616 180.897447 176.97256 181.758258 177.607151 182.392849 
C 178.241742 183.02744 179.102553 183.384 180 183.384 
z
" style="stroke:#000000;stroke-linejoin:miter;"/>
   </g>
  </g>
 </g>
 <defs>
  <clipPath id="pc537259015">
   <rect height="338.4" width="338.4" x="10.8" y="10.8"/>
  </clipPath>
 </defs>
</svg>
