<?xml version="1.0" encoding="utf-8" standalone="no"?>
<!DOCTYPE svg PUBLIC "-//W3C//DTD SVG 1.1//EN"
  "http://www.w3.org/Graphics/SVG/1.1/DTD/svg11.dtd">
<!-- Created with matplotlib (https://matplotlib.org/) -->
<svg height="288pt" version="1.1" viewBox="0 0 432 288" width="432pt" xmlns="http://www.w3.org/2000/svg" xmlns:xlink="http://www.w3.org/1999/xlink">
 <metadata>
  <rdf:RDF xmlns:cc="http://creativecommons.org/ns#" xmlns:dc="http://purl.org/dc/elements/1.1/" xmlns:rdf="http://www.w3.org/1999/02/22-rdf-syntax-ns#">
   <cc:Work>
    <dc:type rdf:resource="http://purl.org/dc/dcmitype/StillImage"/>
    <dc:date>2024-01-19T16:18:50.268222</dc:date>
    <dc:format>image/svg+xml</dc:format>
    <dc:creator>
     <cc:Agent>
      <dc:title>Matplotlib v3.3.2, https://matplotlib.org/</dc:title>
     </cc:Agent>
    </dc:creator>
   </cc:Work>
  </rdf:RDF>
 </metadata>
 <defs>
  <style type="text/css">*{stroke-linecap:butt;stroke-linejoin:round;}</style>
 </defs>
 <g id="figure_1">
  <g id="patch_1">
   <path d="M 0 288 
L 432 288 
L 432 0 
L 0 0 
z
" style="fill:none;"/>
  </g>
  <g id="axes_1">
   <g id="patch_2">
    <path d="M 35.8 252.2 
L 421.2 252.2 
L 421.2 10.8 
L 35.8 10.8 
z
" style="fill:none;"/>
   </g>
   <g id="matplotlib.axis_1">
    <g id="xtick_1">
     <g id="line2d_1">
      <defs>
       <path d="M 0 0 
L 0 3.5 
" id="mfa5639c0ab" style="stroke:#000000;stroke-width:0.8;"/>
      </defs>
      <g>
       <use style="stroke:#000000;stroke-width:0.8;" x="35.8" xlink:href="#mfa5639c0ab" y="252.2"/>
      </g>
     </g>
    </g>
    <g id="xtick_2">
     <g id="line2d_2">
      <g>
       <use style="stroke:#000000;stroke-width:0.8;" x="109.209524" xlink:href="#mfa5639c0ab" y="252.2"/>
      </g>
     </g>
    </g>
    <g id="xtick_3">
     <g id="line2d_3">
      <g>
       <use style="stroke:#000000;stroke-width:0.8;" x="182.619048" xlink:href="#mfa5639c0ab" y="252.2"/>
      </g>
     </g>
    </g>
    <g id="xtick_4">
     <g id="line2d_4">
      <g>
       <use style="stroke:#000000;stroke-width:0.8;" x="256.028571" xlink:href="#mfa5639c0ab" y="252.2"/>
      </g>
     </g>
    </g>
    <g id="xtick_5">
     <g id="line2d_5">
      <g>
       <use style="stroke:#000000;stroke-width:0.8;" x="329.438095" xlink:href="#mfa5639c0ab" y="252.2"/>
      </g>
     </g>
    </g>
    <g id="xtick_6">
     <g id="line2d_6">
      <g>
       <use style="stroke:#000000;stroke-width:0.8;" x="402.847619" xlink:href="#mfa5639c0ab" y="252.2"/>
      </g>
     </g>
    </g>
    <g id="text_1">
     <!-- Driving frequency, $\omega$ -->
     <g transform="translate(176.35 270.8)scale(0.1 -0.1)">
      <defs>
       <path d="M 19.671875 64.796875 
L 19.671875 8.109375 
L 31.59375 8.109375 
Q 46.6875 8.109375 53.6875 14.9375 
Q 60.6875 21.78125 60.6875 36.53125 
Q 60.6875 51.171875 53.6875 57.984375 
Q 46.6875 64.796875 31.59375 64.796875 
z
M 9.8125 72.90625 
L 30.078125 72.90625 
Q 51.265625 72.90625 61.171875 64.09375 
Q 71.09375 55.28125 71.09375 36.53125 
Q 71.09375 17.671875 61.125 8.828125 
Q 51.171875 0 30.078125 0 
L 9.8125 0 
z
" id="DejaVuSans-68"/>
       <path d="M 41.109375 46.296875 
Q 39.59375 47.171875 37.8125 47.578125 
Q 36.03125 48 33.890625 48 
Q 26.265625 48 22.1875 43.046875 
Q 18.109375 38.09375 18.109375 28.8125 
L 18.109375 0 
L 9.078125 0 
L 9.078125 54.6875 
L 18.109375 54.6875 
L 18.109375 46.1875 
Q 20.953125 51.171875 25.484375 53.578125 
Q 30.03125 56 36.53125 56 
Q 37.453125 56 38.578125 55.875 
Q 39.703125 55.765625 41.0625 55.515625 
z
" id="DejaVuSans-114"/>
       <path d="M 9.421875 54.6875 
L 18.40625 54.6875 
L 18.40625 0 
L 9.421875 0 
z
M 9.421875 75.984375 
L 18.40625 75.984375 
L 18.40625 64.59375 
L 9.421875 64.59375 
z
" id="DejaVuSans-105"/>
       <path d="M 2.984375 54.6875 
L 12.5 54.6875 
L 29.59375 8.796875 
L 46.6875 54.6875 
L 56.203125 54.6875 
L 35.6875 0 
L 23.484375 0 
z
" id="DejaVuSans-118"/>
       <path d="M 54.890625 33.015625 
L 54.890625 0 
L 45.90625 0 
L 45.90625 32.71875 
Q 45.90625 40.484375 42.875 44.328125 
Q 39.84375 48.1875 33.796875 48.1875 
Q 26.515625 48.1875 22.3125 43.546875 
Q 18.109375 38.921875 18.109375 30.90625 
L 18.109375 0 
L 9.078125 0 
L 9.078125 54.6875 
L 18.109375 54.6875 
L 18.109375 46.1875 
Q 21.34375 51.125 25.703125 53.5625 
Q 30.078125 56 35.796875 56 
Q 45.21875 56 50.046875 50.171875 
Q 54.890625 44.34375 54.890625 33.015625 
z
" id="DejaVuSans-110"/>
       <path d="M 45.40625 27.984375 
Q 45.40625 37.75 41.375 43.109375 
Q 37.359375 48.484375 30.078125 48.484375 
Q 22.859375 48.484375 18.828125 43.109375 
Q 14.796875 37.75 14.796875 27.984375 
Q 14.796875 18.265625 18.828125 12.890625 
Q 22.859375 7.515625 30.078125 7.515625 
Q 37.359375 7.515625 41.375 12.890625 
Q 45.40625 18.265625 45.40625 27.984375 
z
M 54.390625 6.78125 
Q 54.390625 -7.171875 48.1875 -13.984375 
Q 42 -20.796875 29.203125 -20.796875 
Q 24.46875 -20.796875 20.265625 -20.09375 
Q 16.0625 -19.390625 12.109375 -17.921875 
L 12.109375 -9.1875 
Q 16.0625 -11.328125 19.921875 -12.34375 
Q 23.78125 -13.375 27.78125 -13.375 
Q 36.625 -13.375 41.015625 -8.765625 
Q 45.40625 -4.15625 45.40625 5.171875 
L 45.40625 9.625 
Q 42.625 4.78125 38.28125 2.390625 
Q 33.9375 0 27.875 0 
Q 17.828125 0 11.671875 7.65625 
Q 5.515625 15.328125 5.515625 27.984375 
Q 5.515625 40.671875 11.671875 48.328125 
Q 17.828125 56 27.875 56 
Q 33.9375 56 38.28125 53.609375 
Q 42.625 51.21875 45.40625 46.390625 
L 45.40625 54.6875 
L 54.390625 54.6875 
z
" id="DejaVuSans-103"/>
       <path id="DejaVuSans-32"/>
       <path d="M 37.109375 75.984375 
L 37.109375 68.5 
L 28.515625 68.5 
Q 23.6875 68.5 21.796875 66.546875 
Q 19.921875 64.59375 19.921875 59.515625 
L 19.921875 54.6875 
L 34.71875 54.6875 
L 34.71875 47.703125 
L 19.921875 47.703125 
L 19.921875 0 
L 10.890625 0 
L 10.890625 47.703125 
L 2.296875 47.703125 
L 2.296875 54.6875 
L 10.890625 54.6875 
L 10.890625 58.5 
Q 10.890625 67.625 15.140625 71.796875 
Q 19.390625 75.984375 28.609375 75.984375 
z
" id="DejaVuSans-102"/>
       <path d="M 56.203125 29.59375 
L 56.203125 25.203125 
L 14.890625 25.203125 
Q 15.484375 15.921875 20.484375 11.0625 
Q 25.484375 6.203125 34.421875 6.203125 
Q 39.59375 6.203125 44.453125 7.46875 
Q 49.3125 8.734375 54.109375 11.28125 
L 54.109375 2.78125 
Q 49.265625 0.734375 44.1875 -0.34375 
Q 39.109375 -1.421875 33.890625 -1.421875 
Q 20.796875 -1.421875 13.15625 6.1875 
Q 5.515625 13.8125 5.515625 26.8125 
Q 5.515625 40.234375 12.765625 48.109375 
Q 20.015625 56 32.328125 56 
Q 43.359375 56 49.78125 48.890625 
Q 56.203125 41.796875 56.203125 29.59375 
z
M 47.21875 32.234375 
Q 47.125 39.59375 43.09375 43.984375 
Q 39.0625 48.390625 32.421875 48.390625 
Q 24.90625 48.390625 20.390625 44.140625 
Q 15.875 39.890625 15.1875 32.171875 
z
" id="DejaVuSans-101"/>
       <path d="M 14.796875 27.296875 
Q 14.796875 17.390625 18.875 11.75 
Q 22.953125 6.109375 30.078125 6.109375 
Q 37.203125 6.109375 41.296875 11.75 
Q 45.40625 17.390625 45.40625 27.296875 
Q 45.40625 37.203125 41.296875 42.84375 
Q 37.203125 48.484375 30.078125 48.484375 
Q 22.953125 48.484375 18.875 42.84375 
Q 14.796875 37.203125 14.796875 27.296875 
z
M 45.40625 8.203125 
Q 42.578125 3.328125 38.25 0.953125 
Q 33.9375 -1.421875 27.875 -1.421875 
Q 17.96875 -1.421875 11.734375 6.484375 
Q 5.515625 14.40625 5.515625 27.296875 
Q 5.515625 40.1875 11.734375 48.09375 
Q 17.96875 56 27.875 56 
Q 33.9375 56 38.25 53.625 
Q 42.578125 51.265625 45.40625 46.390625 
L 45.40625 54.6875 
L 54.390625 54.6875 
L 54.390625 -20.796875 
L 45.40625 -20.796875 
z
" id="DejaVuSans-113"/>
       <path d="M 8.5 21.578125 
L 8.5 54.6875 
L 17.484375 54.6875 
L 17.484375 21.921875 
Q 17.484375 14.15625 20.5 10.265625 
Q 23.53125 6.390625 29.59375 6.390625 
Q 36.859375 6.390625 41.078125 11.03125 
Q 45.3125 15.671875 45.3125 23.6875 
L 45.3125 54.6875 
L 54.296875 54.6875 
L 54.296875 0 
L 45.3125 0 
L 45.3125 8.40625 
Q 42.046875 3.421875 37.71875 1 
Q 33.40625 -1.421875 27.6875 -1.421875 
Q 18.265625 -1.421875 13.375 4.4375 
Q 8.5 10.296875 8.5 21.578125 
z
M 31.109375 56 
z
" id="DejaVuSans-117"/>
       <path d="M 48.78125 52.59375 
L 48.78125 44.1875 
Q 44.96875 46.296875 41.140625 47.34375 
Q 37.3125 48.390625 33.40625 48.390625 
Q 24.65625 48.390625 19.8125 42.84375 
Q 14.984375 37.3125 14.984375 27.296875 
Q 14.984375 17.28125 19.8125 11.734375 
Q 24.65625 6.203125 33.40625 6.203125 
Q 37.3125 6.203125 41.140625 7.25 
Q 44.96875 8.296875 48.78125 10.40625 
L 48.78125 2.09375 
Q 45.015625 0.34375 40.984375 -0.53125 
Q 36.96875 -1.421875 32.421875 -1.421875 
Q 20.0625 -1.421875 12.78125 6.34375 
Q 5.515625 14.109375 5.515625 27.296875 
Q 5.515625 40.671875 12.859375 48.328125 
Q 20.21875 56 33.015625 56 
Q 37.15625 56 41.109375 55.140625 
Q 45.0625 54.296875 48.78125 52.59375 
z
" id="DejaVuSans-99"/>
       <path d="M 32.171875 -5.078125 
Q 28.375 -14.84375 24.75 -17.8125 
Q 21.140625 -20.796875 15.09375 -20.796875 
L 7.90625 -20.796875 
L 7.90625 -13.28125 
L 13.1875 -13.28125 
Q 16.890625 -13.28125 18.9375 -11.515625 
Q 21 -9.765625 23.484375 -3.21875 
L 25.09375 0.875 
L 2.984375 54.6875 
L 12.5 54.6875 
L 29.59375 11.921875 
L 46.6875 54.6875 
L 56.203125 54.6875 
z
" id="DejaVuSans-121"/>
       <path d="M 11.71875 12.40625 
L 22.015625 12.40625 
L 22.015625 4 
L 14.015625 -11.625 
L 7.71875 -11.625 
L 11.71875 4 
z
" id="DejaVuSans-44"/>
       <path d="M 21.390625 -1.421875 
Q 1.125 -1.421875 6.78125 27.59375 
Q 8.984375 39.0625 19.625 54.6875 
L 29.296875 54.6875 
Q 19.234375 39.0625 17 27.34375 
Q 12.796875 6.203125 23.734375 6.203125 
Q 33.84375 6.203125 38.71875 32.46875 
L 47.015625 32.46875 
Q 41.703125 6.0625 51.8125 6.203125 
Q 62.703125 6.296875 66.796875 27.34375 
Q 69.046875 39.0625 65.140625 54.6875 
L 74.8125 54.6875 
Q 79.296875 39.0625 77.09375 27.59375 
Q 71.53125 -1.46875 51.21875 -1.421875 
Q 37.9375 -1.375 39.109375 13.1875 
Q 34.28125 -1.421875 21.390625 -1.421875 
z
" id="DejaVuSans-Oblique-969"/>
      </defs>
      <use transform="translate(0 0.015625)" xlink:href="#DejaVuSans-68"/>
      <use transform="translate(77.001953 0.015625)" xlink:href="#DejaVuSans-114"/>
      <use transform="translate(118.115234 0.015625)" xlink:href="#DejaVuSans-105"/>
      <use transform="translate(145.898438 0.015625)" xlink:href="#DejaVuSans-118"/>
      <use transform="translate(205.078125 0.015625)" xlink:href="#DejaVuSans-105"/>
      <use transform="translate(232.861328 0.015625)" xlink:href="#DejaVuSans-110"/>
      <use transform="translate(296.240234 0.015625)" xlink:href="#DejaVuSans-103"/>
      <use transform="translate(359.716797 0.015625)" xlink:href="#DejaVuSans-32"/>
      <use transform="translate(391.503906 0.015625)" xlink:href="#DejaVuSans-102"/>
      <use transform="translate(426.708984 0.015625)" xlink:href="#DejaVuSans-114"/>
      <use transform="translate(467.822266 0.015625)" xlink:href="#DejaVuSans-101"/>
      <use transform="translate(529.345703 0.015625)" xlink:href="#DejaVuSans-113"/>
      <use transform="translate(592.822266 0.015625)" xlink:href="#DejaVuSans-117"/>
      <use transform="translate(656.201172 0.015625)" xlink:href="#DejaVuSans-101"/>
      <use transform="translate(717.724609 0.015625)" xlink:href="#DejaVuSans-110"/>
      <use transform="translate(781.103516 0.015625)" xlink:href="#DejaVuSans-99"/>
      <use transform="translate(836.083984 0.015625)" xlink:href="#DejaVuSans-121"/>
      <use transform="translate(895.263672 0.015625)" xlink:href="#DejaVuSans-44"/>
      <use transform="translate(927.050781 0.015625)" xlink:href="#DejaVuSans-32"/>
      <use transform="translate(958.837891 0.015625)" xlink:href="#DejaVuSans-Oblique-969"/>
     </g>
    </g>
   </g>
   <g id="matplotlib.axis_2">
    <g id="ytick_1">
     <g id="line2d_7">
      <defs>
       <path d="M 0 0 
L -3.5 0 
" id="me17a834c57" style="stroke:#000000;stroke-width:0.8;"/>
      </defs>
      <g>
       <use style="stroke:#000000;stroke-width:0.8;" x="35.8" xlink:href="#me17a834c57" y="252.2"/>
      </g>
     </g>
    </g>
    <g id="ytick_2">
     <g id="line2d_8">
      <g>
       <use style="stroke:#000000;stroke-width:0.8;" x="35.8" xlink:href="#me17a834c57" y="208.546752"/>
      </g>
     </g>
    </g>
    <g id="ytick_3">
     <g id="line2d_9">
      <g>
       <use style="stroke:#000000;stroke-width:0.8;" x="35.8" xlink:href="#me17a834c57" y="164.893504"/>
      </g>
     </g>
    </g>
    <g id="ytick_4">
     <g id="line2d_10">
      <g>
       <use style="stroke:#000000;stroke-width:0.8;" x="35.8" xlink:href="#me17a834c57" y="121.240257"/>
      </g>
     </g>
    </g>
    <g id="ytick_5">
     <g id="line2d_11">
      <g>
       <use style="stroke:#000000;stroke-width:0.8;" x="35.8" xlink:href="#me17a834c57" y="77.587009"/>
      </g>
     </g>
    </g>
    <g id="ytick_6">
     <g id="line2d_12">
      <g>
       <use style="stroke:#000000;stroke-width:0.8;" x="35.8" xlink:href="#me17a834c57" y="33.933761"/>
      </g>
     </g>
    </g>
    <g id="text_2">
     <!-- Amplitude of oscillation, $A$ -->
     <g transform="translate(22.7 196.95)rotate(-90)scale(0.1 -0.1)">
      <defs>
       <path d="M 34.1875 63.1875 
L 20.796875 26.90625 
L 47.609375 26.90625 
z
M 28.609375 72.90625 
L 39.796875 72.90625 
L 67.578125 0 
L 57.328125 0 
L 50.6875 18.703125 
L 17.828125 18.703125 
L 11.1875 0 
L 0.78125 0 
z
" id="DejaVuSans-65"/>
       <path d="M 52 44.1875 
Q 55.375 50.25 60.0625 53.125 
Q 64.75 56 71.09375 56 
Q 79.640625 56 84.28125 50.015625 
Q 88.921875 44.046875 88.921875 33.015625 
L 88.921875 0 
L 79.890625 0 
L 79.890625 32.71875 
Q 79.890625 40.578125 77.09375 44.375 
Q 74.3125 48.1875 68.609375 48.1875 
Q 61.625 48.1875 57.5625 43.546875 
Q 53.515625 38.921875 53.515625 30.90625 
L 53.515625 0 
L 44.484375 0 
L 44.484375 32.71875 
Q 44.484375 40.625 41.703125 44.40625 
Q 38.921875 48.1875 33.109375 48.1875 
Q 26.21875 48.1875 22.15625 43.53125 
Q 18.109375 38.875 18.109375 30.90625 
L 18.109375 0 
L 9.078125 0 
L 9.078125 54.6875 
L 18.109375 54.6875 
L 18.109375 46.1875 
Q 21.1875 51.21875 25.484375 53.609375 
Q 29.78125 56 35.6875 56 
Q 41.65625 56 45.828125 52.96875 
Q 50 49.953125 52 44.1875 
z
" id="DejaVuSans-109"/>
       <path d="M 18.109375 8.203125 
L 18.109375 -20.796875 
L 9.078125 -20.796875 
L 9.078125 54.6875 
L 18.109375 54.6875 
L 18.109375 46.390625 
Q 20.953125 51.265625 25.265625 53.625 
Q 29.59375 56 35.59375 56 
Q 45.5625 56 51.78125 48.09375 
Q 58.015625 40.1875 58.015625 27.296875 
Q 58.015625 14.40625 51.78125 6.484375 
Q 45.5625 -1.421875 35.59375 -1.421875 
Q 29.59375 -1.421875 25.265625 0.953125 
Q 20.953125 3.328125 18.109375 8.203125 
z
M 48.6875 27.296875 
Q 48.6875 37.203125 44.609375 42.84375 
Q 40.53125 48.484375 33.40625 48.484375 
Q 26.265625 48.484375 22.1875 42.84375 
Q 18.109375 37.203125 18.109375 27.296875 
Q 18.109375 17.390625 22.1875 11.75 
Q 26.265625 6.109375 33.40625 6.109375 
Q 40.53125 6.109375 44.609375 11.75 
Q 48.6875 17.390625 48.6875 27.296875 
z
" id="DejaVuSans-112"/>
       <path d="M 9.421875 75.984375 
L 18.40625 75.984375 
L 18.40625 0 
L 9.421875 0 
z
" id="DejaVuSans-108"/>
       <path d="M 18.3125 70.21875 
L 18.3125 54.6875 
L 36.8125 54.6875 
L 36.8125 47.703125 
L 18.3125 47.703125 
L 18.3125 18.015625 
Q 18.3125 11.328125 20.140625 9.421875 
Q 21.96875 7.515625 27.59375 7.515625 
L 36.8125 7.515625 
L 36.8125 0 
L 27.59375 0 
Q 17.1875 0 13.234375 3.875 
Q 9.28125 7.765625 9.28125 18.015625 
L 9.28125 47.703125 
L 2.6875 47.703125 
L 2.6875 54.6875 
L 9.28125 54.6875 
L 9.28125 70.21875 
z
" id="DejaVuSans-116"/>
       <path d="M 45.40625 46.390625 
L 45.40625 75.984375 
L 54.390625 75.984375 
L 54.390625 0 
L 45.40625 0 
L 45.40625 8.203125 
Q 42.578125 3.328125 38.25 0.953125 
Q 33.9375 -1.421875 27.875 -1.421875 
Q 17.96875 -1.421875 11.734375 6.484375 
Q 5.515625 14.40625 5.515625 27.296875 
Q 5.515625 40.1875 11.734375 48.09375 
Q 17.96875 56 27.875 56 
Q 33.9375 56 38.25 53.625 
Q 42.578125 51.265625 45.40625 46.390625 
z
M 14.796875 27.296875 
Q 14.796875 17.390625 18.875 11.75 
Q 22.953125 6.109375 30.078125 6.109375 
Q 37.203125 6.109375 41.296875 11.75 
Q 45.40625 17.390625 45.40625 27.296875 
Q 45.40625 37.203125 41.296875 42.84375 
Q 37.203125 48.484375 30.078125 48.484375 
Q 22.953125 48.484375 18.875 42.84375 
Q 14.796875 37.203125 14.796875 27.296875 
z
" id="DejaVuSans-100"/>
       <path d="M 30.609375 48.390625 
Q 23.390625 48.390625 19.1875 42.75 
Q 14.984375 37.109375 14.984375 27.296875 
Q 14.984375 17.484375 19.15625 11.84375 
Q 23.34375 6.203125 30.609375 6.203125 
Q 37.796875 6.203125 41.984375 11.859375 
Q 46.1875 17.53125 46.1875 27.296875 
Q 46.1875 37.015625 41.984375 42.703125 
Q 37.796875 48.390625 30.609375 48.390625 
z
M 30.609375 56 
Q 42.328125 56 49.015625 48.375 
Q 55.71875 40.765625 55.71875 27.296875 
Q 55.71875 13.875 49.015625 6.21875 
Q 42.328125 -1.421875 30.609375 -1.421875 
Q 18.84375 -1.421875 12.171875 6.21875 
Q 5.515625 13.875 5.515625 27.296875 
Q 5.515625 40.765625 12.171875 48.375 
Q 18.84375 56 30.609375 56 
z
" id="DejaVuSans-111"/>
       <path d="M 44.28125 53.078125 
L 44.28125 44.578125 
Q 40.484375 46.53125 36.375 47.5 
Q 32.28125 48.484375 27.875 48.484375 
Q 21.1875 48.484375 17.84375 46.4375 
Q 14.5 44.390625 14.5 40.28125 
Q 14.5 37.15625 16.890625 35.375 
Q 19.28125 33.59375 26.515625 31.984375 
L 29.59375 31.296875 
Q 39.15625 29.25 43.1875 25.515625 
Q 47.21875 21.78125 47.21875 15.09375 
Q 47.21875 7.46875 41.1875 3.015625 
Q 35.15625 -1.421875 24.609375 -1.421875 
Q 20.21875 -1.421875 15.453125 -0.5625 
Q 10.6875 0.296875 5.421875 2 
L 5.421875 11.28125 
Q 10.40625 8.6875 15.234375 7.390625 
Q 20.0625 6.109375 24.8125 6.109375 
Q 31.15625 6.109375 34.5625 8.28125 
Q 37.984375 10.453125 37.984375 14.40625 
Q 37.984375 18.0625 35.515625 20.015625 
Q 33.0625 21.96875 24.703125 23.78125 
L 21.578125 24.515625 
Q 13.234375 26.265625 9.515625 29.90625 
Q 5.8125 33.546875 5.8125 39.890625 
Q 5.8125 47.609375 11.28125 51.796875 
Q 16.75 56 26.8125 56 
Q 31.78125 56 36.171875 55.265625 
Q 40.578125 54.546875 44.28125 53.078125 
z
" id="DejaVuSans-115"/>
       <path d="M 34.28125 27.484375 
Q 23.390625 27.484375 19.1875 25 
Q 14.984375 22.515625 14.984375 16.5 
Q 14.984375 11.71875 18.140625 8.90625 
Q 21.296875 6.109375 26.703125 6.109375 
Q 34.1875 6.109375 38.703125 11.40625 
Q 43.21875 16.703125 43.21875 25.484375 
L 43.21875 27.484375 
z
M 52.203125 31.203125 
L 52.203125 0 
L 43.21875 0 
L 43.21875 8.296875 
Q 40.140625 3.328125 35.546875 0.953125 
Q 30.953125 -1.421875 24.3125 -1.421875 
Q 15.921875 -1.421875 10.953125 3.296875 
Q 6 8.015625 6 15.921875 
Q 6 25.140625 12.171875 29.828125 
Q 18.359375 34.515625 30.609375 34.515625 
L 43.21875 34.515625 
L 43.21875 35.40625 
Q 43.21875 41.609375 39.140625 45 
Q 35.0625 48.390625 27.6875 48.390625 
Q 23 48.390625 18.546875 47.265625 
Q 14.109375 46.140625 10.015625 43.890625 
L 10.015625 52.203125 
Q 14.9375 54.109375 19.578125 55.046875 
Q 24.21875 56 28.609375 56 
Q 40.484375 56 46.34375 49.84375 
Q 52.203125 43.703125 52.203125 31.203125 
z
" id="DejaVuSans-97"/>
       <path d="M 36.8125 72.90625 
L 48 72.90625 
L 61.53125 0 
L 51.21875 0 
L 48.1875 18.703125 
L 15.375 18.703125 
L 5.078125 0 
L -5.328125 0 
z
M 40.375 63.1875 
L 19.921875 26.90625 
L 46.6875 26.90625 
z
" id="DejaVuSans-Oblique-65"/>
      </defs>
      <use transform="translate(0 0.015625)" xlink:href="#DejaVuSans-65"/>
      <use transform="translate(68.408203 0.015625)" xlink:href="#DejaVuSans-109"/>
      <use transform="translate(165.820312 0.015625)" xlink:href="#DejaVuSans-112"/>
      <use transform="translate(229.296875 0.015625)" xlink:href="#DejaVuSans-108"/>
      <use transform="translate(257.080078 0.015625)" xlink:href="#DejaVuSans-105"/>
      <use transform="translate(284.863281 0.015625)" xlink:href="#DejaVuSans-116"/>
      <use transform="translate(324.072266 0.015625)" xlink:href="#DejaVuSans-117"/>
      <use transform="translate(387.451172 0.015625)" xlink:href="#DejaVuSans-100"/>
      <use transform="translate(450.927734 0.015625)" xlink:href="#DejaVuSans-101"/>
      <use transform="translate(512.451172 0.015625)" xlink:href="#DejaVuSans-32"/>
      <use transform="translate(544.238281 0.015625)" xlink:href="#DejaVuSans-111"/>
      <use transform="translate(605.419922 0.015625)" xlink:href="#DejaVuSans-102"/>
      <use transform="translate(640.625 0.015625)" xlink:href="#DejaVuSans-32"/>
      <use transform="translate(672.412109 0.015625)" xlink:href="#DejaVuSans-111"/>
      <use transform="translate(733.59375 0.015625)" xlink:href="#DejaVuSans-115"/>
      <use transform="translate(785.693359 0.015625)" xlink:href="#DejaVuSans-99"/>
      <use transform="translate(840.673828 0.015625)" xlink:href="#DejaVuSans-105"/>
      <use transform="translate(868.457031 0.015625)" xlink:href="#DejaVuSans-108"/>
      <use transform="translate(896.240234 0.015625)" xlink:href="#DejaVuSans-108"/>
      <use transform="translate(924.023438 0.015625)" xlink:href="#DejaVuSans-97"/>
      <use transform="translate(985.302734 0.015625)" xlink:href="#DejaVuSans-116"/>
      <use transform="translate(1024.511719 0.015625)" xlink:href="#DejaVuSans-105"/>
      <use transform="translate(1052.294922 0.015625)" xlink:href="#DejaVuSans-111"/>
      <use transform="translate(1113.476562 0.015625)" xlink:href="#DejaVuSans-110"/>
      <use transform="translate(1176.855469 0.015625)" xlink:href="#DejaVuSans-44"/>
      <use transform="translate(1208.642578 0.015625)" xlink:href="#DejaVuSans-32"/>
      <use transform="translate(1240.429688 0.015625)" xlink:href="#DejaVuSans-Oblique-65"/>
     </g>
    </g>
   </g>
   <g id="line2d_13">
    <path clip-path="url(#pf92c8450ef)" d="M 35.8 232.798557 
L 45.022302 232.661988 
L 52.400144 232.349012 
L 59.777985 231.83649 
L 67.155827 231.093574 
L 72.689208 230.35665 
L 78.222589 229.433162 
L 83.75597 228.28134 
L 89.289352 226.842175 
L 92.978272 225.682497 
L 96.667193 224.32349 
L 100.356114 222.719437 
L 104.045035 220.808742 
L 107.733955 218.50654 
L 109.578416 217.172952 
L 111.422876 215.692789 
L 113.267337 214.042301 
L 115.111797 212.192312 
L 116.956257 210.106609 
L 118.800718 207.739727 
L 120.645178 205.033848 
L 122.489639 201.914418 
L 124.334099 198.283802 
L 126.178559 194.011938 
L 128.02302 188.922298 
L 129.86748 182.7704 
L 131.711941 175.210424 
L 133.556401 165.743136 
L 135.400861 153.636803 
L 137.245322 137.821145 
L 139.089782 116.817311 
L 140.934243 89.077861 
L 142.778703 55.272551 
L 144.623163 25.52734 
L 146.467624 22.205082 
L 148.312084 49.79832 
L 150.156545 86.18619 
L 152.001005 117.155517 
L 153.845465 140.656655 
L 155.689926 158.22026 
L 157.534386 171.540005 
L 159.378847 181.865666 
L 161.223307 190.049071 
L 163.067767 196.666321 
L 164.912228 202.112561 
L 166.756688 206.664498 
L 168.601149 210.520193 
L 170.445609 213.824441 
L 172.290069 216.685183 
L 174.13453 219.184334 
L 175.97899 221.385071 
L 177.823451 223.336836 
L 179.667911 225.078835 
L 181.512371 226.642534 
L 185.201292 229.332538 
L 188.890213 231.561449 
L 192.579134 233.43643 
L 196.268055 235.034029 
L 199.956975 236.410333 
L 203.645896 237.607359 
L 209.179277 239.1349 
L 214.712659 240.409569 
L 220.24604 241.48779 
L 227.623881 242.688966 
L 235.001723 243.681775 
L 244.224025 244.70184 
L 255.290787 245.684815 
L 268.20201 246.590875 
L 282.957693 247.400468 
L 301.402297 248.176662 
L 323.535822 248.873379 
L 351.202728 249.508455 
L 386.247475 250.075599 
L 402.847619 250.2819 
L 402.847619 250.2819 
" style="fill:none;stroke:#0000ff;stroke-linecap:square;stroke-width:1.5;"/>
   </g>
   <g id="line2d_14">
    <defs>
     <path d="M 0 2.5 
C 0.663008 2.5 1.29895 2.236584 1.767767 1.767767 
C 2.236584 1.29895 2.5 0.663008 2.5 0 
C 2.5 -0.663008 2.236584 -1.29895 1.767767 -1.767767 
C 1.29895 -2.236584 0.663008 -2.5 0 -2.5 
C -0.663008 -2.5 -1.29895 -2.236584 -1.767767 -1.767767 
C -2.236584 -1.29895 -2.5 -0.663008 -2.5 0 
C -2.5 0.663008 -2.236584 1.29895 -1.767767 1.767767 
C -1.29895 2.236584 -0.663008 2.5 0 2.5 
z
" id="m40e30b793f" style="stroke:#0000ff;"/>
    </defs>
    <g clip-path="url(#pf92c8450ef)">
     <use style="fill:#0000ff;stroke:#0000ff;" x="146.467624" xlink:href="#m40e30b793f" y="22.205082"/>
    </g>
   </g>
   <g id="line2d_15">
    <path clip-path="url(#pf92c8450ef)" d="M 35.8 232.798557 
L 45.022302 232.663436 
L 52.400144 232.35393 
L 59.777985 231.847562 
L 67.155827 231.114641 
L 74.533668 230.108339 
L 80.06705 229.132179 
L 85.600431 227.918543 
L 91.133812 226.405646 
L 94.822733 225.188532 
L 98.511654 223.764156 
L 102.200574 222.085699 
L 105.889495 220.090803 
L 109.578416 217.694926 
L 111.422876 216.311746 
L 113.267337 214.781221 
L 115.111797 213.081136 
L 116.956257 211.184856 
L 118.800718 209.060297 
L 120.645178 206.668673 
L 122.489639 203.962983 
L 124.334099 200.886301 
L 126.178559 197.370013 
L 128.02302 193.332497 
L 129.86748 188.679375 
L 131.711941 183.307916 
L 133.556401 177.120999 
L 135.400861 170.061299 
L 137.245322 162.184006 
L 140.934243 145.620868 
L 142.778703 138.990864 
L 144.623163 135.572629 
L 146.467624 136.582353 
L 148.312084 141.898497 
L 150.156545 150.125685 
L 153.845465 168.860887 
L 155.689926 177.421388 
L 157.534386 184.985551 
L 159.378847 191.54998 
L 161.223307 197.209237 
L 163.067767 202.086404 
L 164.912228 206.302187 
L 166.756688 209.963474 
L 168.601149 213.160694 
L 170.445609 215.968741 
L 172.290069 218.449096 
L 174.13453 220.652104 
L 175.97899 222.619052 
L 177.823451 224.383914 
L 179.667911 225.974779 
L 183.356832 228.724065 
L 187.045753 231.011845 
L 190.734673 232.941493 
L 194.423594 234.588341 
L 198.112515 236.008382 
L 201.801436 237.244001 
L 207.334817 238.820966 
L 212.868198 240.136534 
L 218.401579 241.248767 
L 225.779421 242.486857 
L 233.157263 243.509141 
L 242.379564 244.558264 
L 253.446327 245.567833 
L 266.35755 246.49697 
L 281.113233 247.325846 
L 299.557837 248.11918 
L 321.691362 248.830018 
L 349.358268 249.476794 
L 384.403015 250.053321 
L 402.847619 250.284066 
L 402.847619 250.284066 
" style="fill:none;stroke:#008000;stroke-linecap:square;stroke-width:1.5;"/>
   </g>
   <g id="line2d_16">
    <defs>
     <path d="M 0 2.5 
C 0.663008 2.5 1.29895 2.236584 1.767767 1.767767 
C 2.236584 1.29895 2.5 0.663008 2.5 0 
C 2.5 -0.663008 2.236584 -1.29895 1.767767 -1.767767 
C 1.29895 -2.236584 0.663008 -2.5 0 -2.5 
C -0.663008 -2.5 -1.29895 -2.236584 -1.767767 -1.767767 
C -2.236584 -1.29895 -2.5 -0.663008 -2.5 0 
C -2.5 0.663008 -2.236584 1.29895 -1.767767 1.767767 
C -1.29895 2.236584 -0.663008 2.5 0 2.5 
z
" id="m6bb68d1b00" style="stroke:#008000;"/>
    </defs>
    <g clip-path="url(#pf92c8450ef)">
     <use style="fill:#008000;stroke:#008000;" x="144.623163" xlink:href="#m6bb68d1b00" y="135.572629"/>
    </g>
   </g>
   <g id="line2d_17">
    <path clip-path="url(#pf92c8450ef)" d="M 35.8 232.798557 
L 45.022302 232.665848 
L 52.400144 232.362118 
L 59.777985 231.865974 
L 67.155827 231.149613 
L 74.533668 230.169613 
L 80.06705 229.223134 
L 85.600431 228.052482 
L 91.133812 226.603236 
L 94.822733 225.445964 
L 98.511654 224.102005 
L 102.200574 222.533528 
L 105.889495 220.69209 
L 109.578416 218.51532 
L 113.267337 215.922766 
L 115.111797 214.439351 
L 116.956257 212.811342 
L 118.800718 211.021784 
L 120.645178 209.052214 
L 122.489639 206.883134 
L 124.334099 204.494998 
L 126.178559 201.870103 
L 128.02302 198.995891 
L 129.86748 195.87046 
L 133.556401 188.96775 
L 137.245322 181.78876 
L 139.089782 178.563681 
L 140.934243 175.978253 
L 142.778703 174.371616 
L 144.623163 174.020746 
L 146.467624 175.044265 
L 148.312084 177.351628 
L 150.156545 180.673883 
L 152.001005 184.655852 
L 157.534386 197.489617 
L 159.378847 201.43517 
L 161.223307 205.078707 
L 163.067767 208.406468 
L 164.912228 211.426656 
L 166.756688 214.159061 
L 168.601149 216.628554 
L 170.445609 218.861281 
L 172.290069 220.882574 
L 174.13453 222.715924 
L 177.823451 225.901367 
L 181.512371 228.560098 
L 185.201292 230.802122 
L 188.890213 232.711567 
L 192.579134 234.352879 
L 196.268055 235.775756 
L 199.956975 237.018878 
L 205.490357 238.611273 
L 211.023738 239.943926 
L 216.557119 241.073018 
L 223.934961 242.331902 
L 231.312802 243.372531 
L 240.535104 244.441178 
L 251.601866 245.469821 
L 264.513089 246.416427 
L 279.268772 247.26055 
L 297.713376 248.067946 
L 319.846901 248.790742 
L 347.513807 249.447695 
L 382.558555 250.032576 
L 402.847619 250.28766 
L 402.847619 250.28766 
" style="fill:none;stroke:#ff0000;stroke-linecap:square;stroke-width:1.5;"/>
   </g>
   <g id="line2d_18">
    <defs>
     <path d="M 0 2.5 
C 0.663008 2.5 1.29895 2.236584 1.767767 1.767767 
C 2.236584 1.29895 2.5 0.663008 2.5 0 
C 2.5 -0.663008 2.236584 -1.29895 1.767767 -1.767767 
C 1.29895 -2.236584 0.663008 -2.5 0 -2.5 
C -0.663008 -2.5 -1.29895 -2.236584 -1.767767 -1.767767 
C -2.236584 -1.29895 -2.5 -0.663008 -2.5 0 
C -2.5 0.663008 -2.236584 1.29895 -1.767767 1.767767 
C -1.29895 2.236584 -0.663008 2.5 0 2.5 
z
" id="m83d2aaaa77" style="stroke:#ff0000;"/>
    </defs>
    <g clip-path="url(#pf92c8450ef)">
     <use style="fill:#ff0000;stroke:#ff0000;" x="144.623163" xlink:href="#m83d2aaaa77" y="174.020746"/>
    </g>
   </g>
   <g id="line2d_19">
    <path clip-path="url(#pf92c8450ef)" d="M 35.8 232.798557 
L 45.022302 232.669223 
L 54.244604 232.27134 
L 61.622446 231.739402 
L 69.000287 230.987699 
L 76.378129 229.973253 
L 81.91151 229.002803 
L 87.444891 227.812256 
L 92.978272 226.351936 
L 96.667193 225.196545 
L 100.356114 223.867246 
L 104.045035 222.333955 
L 107.733955 220.56079 
L 111.422876 218.505973 
L 115.111797 216.123239 
L 118.800718 213.366738 
L 122.489639 210.203457 
L 126.178559 206.640461 
L 135.400861 197.097417 
L 137.245322 195.523732 
L 139.089782 194.276785 
L 140.934243 193.46271 
L 142.778703 193.170129 
L 144.623163 193.452039 
L 146.467624 194.312866 
L 148.312084 195.706097 
L 150.156545 197.543771 
L 152.001005 199.71401 
L 155.689926 204.595587 
L 161.223307 211.971269 
L 164.912228 216.37275 
L 168.601149 220.225932 
L 172.290069 223.546752 
L 175.97899 226.393832 
L 179.667911 228.835918 
L 183.356832 230.937979 
L 187.045753 232.756468 
L 190.734673 234.338601 
L 194.423594 235.72319 
L 199.956975 237.497356 
L 205.490357 238.980436 
L 211.023738 240.234288 
L 218.401579 241.627916 
L 225.779421 242.775413 
L 235.001723 243.948578 
L 244.224025 244.902469 
L 255.290787 245.831731 
L 268.20201 246.69658 
L 284.802154 247.560724 
L 303.246758 248.292804 
L 327.224743 249.003071 
L 356.736109 249.632802 
L 393.625317 250.183417 
L 402.847619 250.292658 
L 402.847619 250.292658 
" style="fill:none;stroke:#00bfbf;stroke-linecap:square;stroke-width:1.5;"/>
   </g>
   <g id="line2d_20">
    <defs>
     <path d="M 0 2.5 
C 0.663008 2.5 1.29895 2.236584 1.767767 1.767767 
C 2.236584 1.29895 2.5 0.663008 2.5 0 
C 2.5 -0.663008 2.236584 -1.29895 1.767767 -1.767767 
C 1.29895 -2.236584 0.663008 -2.5 0 -2.5 
C -0.663008 -2.5 -1.29895 -2.236584 -1.767767 -1.767767 
C -2.236584 -1.29895 -2.5 -0.663008 -2.5 0 
C -2.5 0.663008 -2.236584 1.29895 -1.767767 1.767767 
C -1.29895 2.236584 -0.663008 2.5 0 2.5 
z
" id="me7845f0069" style="stroke:#00bfbf;"/>
    </defs>
    <g clip-path="url(#pf92c8450ef)">
     <use style="fill:#00bfbf;stroke:#00bfbf;" x="142.778703" xlink:href="#me7845f0069" y="193.170129"/>
    </g>
   </g>
   <g id="line2d_21">
    <path clip-path="url(#pf92c8450ef)" d="M 35.8 232.798557 
L 45.022302 232.67356 
L 54.244604 232.28975 
L 61.622446 231.778397 
L 69.000287 231.059369 
L 76.378129 230.096024 
L 81.91151 229.182422 
L 87.444891 228.072906 
L 92.978272 226.730055 
L 98.511654 225.107288 
L 102.200574 223.842713 
L 105.889495 222.410881 
L 109.578416 220.793758 
L 113.267337 218.976363 
L 116.956257 216.95229 
L 122.489639 213.563662 
L 131.711941 207.68429 
L 133.556401 206.686622 
L 135.400861 205.835882 
L 137.245322 205.176355 
L 139.089782 204.750123 
L 140.934243 204.592281 
L 142.778703 204.726125 
L 144.623163 205.159417 
L 146.467624 205.882758 
L 148.312084 206.87059 
L 150.156545 208.08459 
L 153.845465 211.003621 
L 166.756688 222.16512 
L 170.445609 224.892907 
L 174.13453 227.325648 
L 177.823451 229.478188 
L 181.512371 231.377018 
L 185.201292 233.051971 
L 188.890213 234.532061 
L 194.423594 236.443658 
L 199.956975 238.050861 
L 205.490357 239.413642 
L 211.023738 240.578963 
L 218.401579 241.887776 
L 225.779421 242.97571 
L 235.001723 244.097109 
L 246.068485 245.179122 
L 258.979708 246.175855 
L 273.735391 247.064522 
L 290.335535 247.838958 
L 310.624599 248.560967 
L 336.447045 249.239812 
L 367.802872 249.830397 
L 402.847619 250.299026 
L 402.847619 250.299026 
" style="fill:none;stroke:#bf00bf;stroke-linecap:square;stroke-width:1.5;"/>
   </g>
   <g id="line2d_22">
    <defs>
     <path d="M 0 2.5 
C 0.663008 2.5 1.29895 2.236584 1.767767 1.767767 
C 2.236584 1.29895 2.5 0.663008 2.5 0 
C 2.5 -0.663008 2.236584 -1.29895 1.767767 -1.767767 
C 1.29895 -2.236584 0.663008 -2.5 0 -2.5 
C -0.663008 -2.5 -1.29895 -2.236584 -1.767767 -1.767767 
C -2.236584 -1.29895 -2.5 -0.663008 -2.5 0 
C -2.5 0.663008 -2.236584 1.29895 -1.767767 1.767767 
C -1.29895 2.236584 -0.663008 2.5 0 2.5 
z
" id="m77dda703bc" style="stroke:#bf00bf;"/>
    </defs>
    <g clip-path="url(#pf92c8450ef)">
     <use style="fill:#bf00bf;stroke:#bf00bf;" x="140.934243" xlink:href="#m77dda703bc" y="204.592281"/>
    </g>
   </g>
   <g id="line2d_23">
    <path clip-path="url(#pf92c8450ef)" d="M 35.8 232.798557 
L 45.022302 232.678857 
L 54.244604 232.312183 
L 61.622446 231.825755 
L 69.000287 231.145987 
L 76.378129 230.24335 
L 83.75597 229.077675 
L 89.289352 227.999961 
L 94.822733 226.719255 
L 100.356114 225.207902 
L 105.889495 223.441547 
L 111.422876 221.410531 
L 116.956257 219.14333 
L 128.02302 214.475529 
L 131.711941 213.233546 
L 133.556401 212.754417 
L 135.400861 212.39793 
L 137.245322 212.183359 
L 139.089782 212.126593 
L 140.934243 212.238544 
L 142.778703 212.523883 
L 144.623163 212.980365 
L 146.467624 213.598886 
L 148.312084 214.364283 
L 152.001005 216.253454 
L 155.689926 218.464502 
L 166.756688 225.431431 
L 172.290069 228.530443 
L 175.97899 230.375943 
L 179.667911 232.045252 
L 185.201292 234.242362 
L 190.734673 236.114819 
L 196.268055 237.713185 
L 201.801436 239.083298 
L 209.179277 240.621432 
L 216.557119 241.896289 
L 223.934961 242.964143 
L 233.157263 244.071806 
L 244.224025 245.146522 
L 257.135248 246.141045 
L 271.890931 247.030857 
L 288.491074 247.808295 
L 308.780139 248.534464 
L 334.602584 249.218138 
L 365.958411 249.813417 
L 402.847619 250.306724 
L 402.847619 250.306724 
" style="fill:none;stroke:#bfbf00;stroke-linecap:square;stroke-width:1.5;"/>
   </g>
   <g id="line2d_24">
    <defs>
     <path d="M 0 2.5 
C 0.663008 2.5 1.29895 2.236584 1.767767 1.767767 
C 2.236584 1.29895 2.5 0.663008 2.5 0 
C 2.5 -0.663008 2.236584 -1.29895 1.767767 -1.767767 
C 1.29895 -2.236584 0.663008 -2.5 0 -2.5 
C -0.663008 -2.5 -1.29895 -2.236584 -1.767767 -1.767767 
C -2.236584 -1.29895 -2.5 -0.663008 -2.5 0 
C -2.5 0.663008 -2.236584 1.29895 -1.767767 1.767767 
C -1.29895 2.236584 -0.663008 2.5 0 2.5 
z
" id="m242b0b4435" style="stroke:#bfbf00;"/>
    </defs>
    <g clip-path="url(#pf92c8450ef)">
     <use style="fill:#bfbf00;stroke:#bfbf00;" x="139.089782" xlink:href="#m242b0b4435" y="212.126593"/>
    </g>
   </g>
   <g id="line2d_25">
    <path clip-path="url(#pf92c8450ef)" d="M 145.914286 252.2 
L 145.914286 10.8 
" style="fill:none;stroke:#ff0000;stroke-dasharray:1.85,0.8;stroke-dashoffset:0;stroke-width:0.5;"/>
   </g>
   <g id="line2d_26">
    <path clip-path="url(#pf92c8450ef)" d="M 35.8 252.2 
L 35.8 10.8 
" style="fill:none;stroke:#000000;stroke-dasharray:1.85,0.8;stroke-dashoffset:0;stroke-width:0.5;"/>
   </g>
   <g id="line2d_27">
    <path clip-path="url(#pf92c8450ef)" d="M 35.8 252.2 
L 421.2 252.2 
" style="fill:none;stroke:#000000;stroke-dasharray:1.85,0.8;stroke-dashoffset:0;stroke-width:0.5;"/>
   </g>
   <g id="patch_3">
    <path d="M 35.8 252.2 
L 35.8 10.8 
" style="fill:none;stroke:#000000;stroke-linecap:square;stroke-linejoin:miter;stroke-width:0.8;"/>
   </g>
   <g id="patch_4">
    <path d="M 421.2 252.2 
L 421.2 10.8 
" style="fill:none;stroke:#000000;stroke-linecap:square;stroke-linejoin:miter;stroke-width:0.8;"/>
   </g>
   <g id="patch_5">
    <path d="M 35.8 252.2 
L 421.2 252.2 
" style="fill:none;stroke:#000000;stroke-linecap:square;stroke-linejoin:miter;stroke-width:0.8;"/>
   </g>
   <g id="patch_6">
    <path d="M 35.8 10.8 
L 421.2 10.8 
" style="fill:none;stroke:#000000;stroke-linecap:square;stroke-linejoin:miter;stroke-width:0.8;"/>
   </g>
   <g id="legend_1">
    <g id="patch_7">
     <path d="M 338.85 106.86875 
L 414.2 106.86875 
Q 416.2 106.86875 416.2 104.86875 
L 416.2 17.8 
Q 416.2 15.8 414.2 15.8 
L 338.85 15.8 
Q 336.85 15.8 336.85 17.8 
L 336.85 104.86875 
Q 336.85 106.86875 338.85 106.86875 
z
" style="fill:#ffffff;opacity:0.8;stroke:#cccccc;stroke-linejoin:miter;"/>
    </g>
    <g id="line2d_28">
     <path d="M 340.85 23.898438 
L 360.85 23.898438 
" style="fill:none;stroke:#0000ff;stroke-linecap:square;stroke-width:1.5;"/>
    </g>
    <g id="line2d_29"/>
    <g id="text_3">
     <!-- b = 0.25 -->
     <g transform="translate(368.85 27.398438)scale(0.1 -0.1)">
      <defs>
       <path d="M 48.6875 27.296875 
Q 48.6875 37.203125 44.609375 42.84375 
Q 40.53125 48.484375 33.40625 48.484375 
Q 26.265625 48.484375 22.1875 42.84375 
Q 18.109375 37.203125 18.109375 27.296875 
Q 18.109375 17.390625 22.1875 11.75 
Q 26.265625 6.109375 33.40625 6.109375 
Q 40.53125 6.109375 44.609375 11.75 
Q 48.6875 17.390625 48.6875 27.296875 
z
M 18.109375 46.390625 
Q 20.953125 51.265625 25.265625 53.625 
Q 29.59375 56 35.59375 56 
Q 45.5625 56 51.78125 48.09375 
Q 58.015625 40.1875 58.015625 27.296875 
Q 58.015625 14.40625 51.78125 6.484375 
Q 45.5625 -1.421875 35.59375 -1.421875 
Q 29.59375 -1.421875 25.265625 0.953125 
Q 20.953125 3.328125 18.109375 8.203125 
L 18.109375 0 
L 9.078125 0 
L 9.078125 75.984375 
L 18.109375 75.984375 
z
" id="DejaVuSans-98"/>
       <path d="M 10.59375 45.40625 
L 73.1875 45.40625 
L 73.1875 37.203125 
L 10.59375 37.203125 
z
M 10.59375 25.484375 
L 73.1875 25.484375 
L 73.1875 17.1875 
L 10.59375 17.1875 
z
" id="DejaVuSans-61"/>
       <path d="M 31.78125 66.40625 
Q 24.171875 66.40625 20.328125 58.90625 
Q 16.5 51.421875 16.5 36.375 
Q 16.5 21.390625 20.328125 13.890625 
Q 24.171875 6.390625 31.78125 6.390625 
Q 39.453125 6.390625 43.28125 13.890625 
Q 47.125 21.390625 47.125 36.375 
Q 47.125 51.421875 43.28125 58.90625 
Q 39.453125 66.40625 31.78125 66.40625 
z
M 31.78125 74.21875 
Q 44.046875 74.21875 50.515625 64.515625 
Q 56.984375 54.828125 56.984375 36.375 
Q 56.984375 17.96875 50.515625 8.265625 
Q 44.046875 -1.421875 31.78125 -1.421875 
Q 19.53125 -1.421875 13.0625 8.265625 
Q 6.59375 17.96875 6.59375 36.375 
Q 6.59375 54.828125 13.0625 64.515625 
Q 19.53125 74.21875 31.78125 74.21875 
z
" id="DejaVuSans-48"/>
       <path d="M 10.6875 12.40625 
L 21 12.40625 
L 21 0 
L 10.6875 0 
z
" id="DejaVuSans-46"/>
       <path d="M 19.1875 8.296875 
L 53.609375 8.296875 
L 53.609375 0 
L 7.328125 0 
L 7.328125 8.296875 
Q 12.9375 14.109375 22.625 23.890625 
Q 32.328125 33.6875 34.8125 36.53125 
Q 39.546875 41.84375 41.421875 45.53125 
Q 43.3125 49.21875 43.3125 52.78125 
Q 43.3125 58.59375 39.234375 62.25 
Q 35.15625 65.921875 28.609375 65.921875 
Q 23.96875 65.921875 18.8125 64.3125 
Q 13.671875 62.703125 7.8125 59.421875 
L 7.8125 69.390625 
Q 13.765625 71.78125 18.9375 73 
Q 24.125 74.21875 28.421875 74.21875 
Q 39.75 74.21875 46.484375 68.546875 
Q 53.21875 62.890625 53.21875 53.421875 
Q 53.21875 48.921875 51.53125 44.890625 
Q 49.859375 40.875 45.40625 35.40625 
Q 44.1875 33.984375 37.640625 27.21875 
Q 31.109375 20.453125 19.1875 8.296875 
z
" id="DejaVuSans-50"/>
       <path d="M 10.796875 72.90625 
L 49.515625 72.90625 
L 49.515625 64.59375 
L 19.828125 64.59375 
L 19.828125 46.734375 
Q 21.96875 47.46875 24.109375 47.828125 
Q 26.265625 48.1875 28.421875 48.1875 
Q 40.625 48.1875 47.75 41.5 
Q 54.890625 34.8125 54.890625 23.390625 
Q 54.890625 11.625 47.5625 5.09375 
Q 40.234375 -1.421875 26.90625 -1.421875 
Q 22.3125 -1.421875 17.546875 -0.640625 
Q 12.796875 0.140625 7.71875 1.703125 
L 7.71875 11.625 
Q 12.109375 9.234375 16.796875 8.0625 
Q 21.484375 6.890625 26.703125 6.890625 
Q 35.15625 6.890625 40.078125 11.328125 
Q 45.015625 15.765625 45.015625 23.390625 
Q 45.015625 31 40.078125 35.4375 
Q 35.15625 39.890625 26.703125 39.890625 
Q 22.75 39.890625 18.8125 39.015625 
Q 14.890625 38.140625 10.796875 36.28125 
z
" id="DejaVuSans-53"/>
      </defs>
      <use xlink:href="#DejaVuSans-98"/>
      <use x="63.476562" xlink:href="#DejaVuSans-32"/>
      <use x="95.263672" xlink:href="#DejaVuSans-61"/>
      <use x="179.052734" xlink:href="#DejaVuSans-32"/>
      <use x="210.839844" xlink:href="#DejaVuSans-48"/>
      <use x="274.462891" xlink:href="#DejaVuSans-46"/>
      <use x="306.25" xlink:href="#DejaVuSans-50"/>
      <use x="369.873047" xlink:href="#DejaVuSans-53"/>
     </g>
    </g>
    <g id="line2d_30">
     <path d="M 340.85 38.576563 
L 360.85 38.576563 
" style="fill:none;stroke:#008000;stroke-linecap:square;stroke-width:1.5;"/>
    </g>
    <g id="line2d_31"/>
    <g id="text_4">
     <!-- b = 0.5 -->
     <g transform="translate(368.85 42.076563)scale(0.1 -0.1)">
      <use xlink:href="#DejaVuSans-98"/>
      <use x="63.476562" xlink:href="#DejaVuSans-32"/>
      <use x="95.263672" xlink:href="#DejaVuSans-61"/>
      <use x="179.052734" xlink:href="#DejaVuSans-32"/>
      <use x="210.839844" xlink:href="#DejaVuSans-48"/>
      <use x="274.462891" xlink:href="#DejaVuSans-46"/>
      <use x="306.25" xlink:href="#DejaVuSans-53"/>
     </g>
    </g>
    <g id="line2d_32">
     <path d="M 340.85 53.254688 
L 360.85 53.254688 
" style="fill:none;stroke:#ff0000;stroke-linecap:square;stroke-width:1.5;"/>
    </g>
    <g id="line2d_33"/>
    <g id="text_5">
     <!-- b = 0.75 -->
     <g transform="translate(368.85 56.754688)scale(0.1 -0.1)">
      <defs>
       <path d="M 8.203125 72.90625 
L 55.078125 72.90625 
L 55.078125 68.703125 
L 28.609375 0 
L 18.3125 0 
L 43.21875 64.59375 
L 8.203125 64.59375 
z
" id="DejaVuSans-55"/>
      </defs>
      <use xlink:href="#DejaVuSans-98"/>
      <use x="63.476562" xlink:href="#DejaVuSans-32"/>
      <use x="95.263672" xlink:href="#DejaVuSans-61"/>
      <use x="179.052734" xlink:href="#DejaVuSans-32"/>
      <use x="210.839844" xlink:href="#DejaVuSans-48"/>
      <use x="274.462891" xlink:href="#DejaVuSans-46"/>
      <use x="306.25" xlink:href="#DejaVuSans-55"/>
      <use x="369.873047" xlink:href="#DejaVuSans-53"/>
     </g>
    </g>
    <g id="line2d_34">
     <path d="M 340.85 67.932813 
L 360.85 67.932813 
" style="fill:none;stroke:#00bfbf;stroke-linecap:square;stroke-width:1.5;"/>
    </g>
    <g id="line2d_35"/>
    <g id="text_6">
     <!-- b = 1.0 -->
     <g transform="translate(368.85 71.432813)scale(0.1 -0.1)">
      <defs>
       <path d="M 12.40625 8.296875 
L 28.515625 8.296875 
L 28.515625 63.921875 
L 10.984375 60.40625 
L 10.984375 69.390625 
L 28.421875 72.90625 
L 38.28125 72.90625 
L 38.28125 8.296875 
L 54.390625 8.296875 
L 54.390625 0 
L 12.40625 0 
z
" id="DejaVuSans-49"/>
      </defs>
      <use xlink:href="#DejaVuSans-98"/>
      <use x="63.476562" xlink:href="#DejaVuSans-32"/>
      <use x="95.263672" xlink:href="#DejaVuSans-61"/>
      <use x="179.052734" xlink:href="#DejaVuSans-32"/>
      <use x="210.839844" xlink:href="#DejaVuSans-49"/>
      <use x="274.462891" xlink:href="#DejaVuSans-46"/>
      <use x="306.25" xlink:href="#DejaVuSans-48"/>
     </g>
    </g>
    <g id="line2d_36">
     <path d="M 340.85 82.610938 
L 360.85 82.610938 
" style="fill:none;stroke:#bf00bf;stroke-linecap:square;stroke-width:1.5;"/>
    </g>
    <g id="line2d_37"/>
    <g id="text_7">
     <!-- b = 1.25 -->
     <g transform="translate(368.85 86.110938)scale(0.1 -0.1)">
      <use xlink:href="#DejaVuSans-98"/>
      <use x="63.476562" xlink:href="#DejaVuSans-32"/>
      <use x="95.263672" xlink:href="#DejaVuSans-61"/>
      <use x="179.052734" xlink:href="#DejaVuSans-32"/>
      <use x="210.839844" xlink:href="#DejaVuSans-49"/>
      <use x="274.462891" xlink:href="#DejaVuSans-46"/>
      <use x="306.25" xlink:href="#DejaVuSans-50"/>
      <use x="369.873047" xlink:href="#DejaVuSans-53"/>
     </g>
    </g>
    <g id="line2d_38">
     <path d="M 340.85 97.289063 
L 360.85 97.289063 
" style="fill:none;stroke:#bfbf00;stroke-linecap:square;stroke-width:1.5;"/>
    </g>
    <g id="line2d_39"/>
    <g id="text_8">
     <!-- b = 1.5 -->
     <g transform="translate(368.85 100.789063)scale(0.1 -0.1)">
      <use xlink:href="#DejaVuSans-98"/>
      <use x="63.476562" xlink:href="#DejaVuSans-32"/>
      <use x="95.263672" xlink:href="#DejaVuSans-61"/>
      <use x="179.052734" xlink:href="#DejaVuSans-32"/>
      <use x="210.839844" xlink:href="#DejaVuSans-49"/>
      <use x="274.462891" xlink:href="#DejaVuSans-46"/>
      <use x="306.25" xlink:href="#DejaVuSans-53"/>
     </g>
    </g>
   </g>
  </g>
 </g>
 <defs>
  <clipPath id="pf92c8450ef">
   <rect height="241.4" width="385.4" x="35.8" y="10.8"/>
  </clipPath>
 </defs>
</svg>
