<?xml version="1.0" encoding="utf-8" standalone="no"?>
<!DOCTYPE svg PUBLIC "-//W3C//DTD SVG 1.1//EN"
  "http://www.w3.org/Graphics/SVG/1.1/DTD/svg11.dtd">
<!-- Created with matplotlib (https://matplotlib.org/) -->
<svg height="504pt" version="1.1" viewBox="0 0 720 504" width="720pt" xmlns="http://www.w3.org/2000/svg" xmlns:xlink="http://www.w3.org/1999/xlink">
 <defs>
  <style type="text/css">
*{stroke-linecap:butt;stroke-linejoin:round;}
  </style>
 </defs>
 <g id="figure_1">
  <g id="patch_1">
   <path d="M 0 504 
L 720 504 
L 720 0 
L 0 0 
z
" style="fill:none;"/>
  </g>
  <g id="axes_1">
   <g id="patch_2">
    <path d="M 10.8 164.4 
L 703.209013 164.4 
L 703.209013 10.8 
L 10.8 10.8 
z
" style="fill:none;"/>
   </g>
   <g id="patch_3">
    <path clip-path="url(#pe7d79d2330)" d="M 671.961286 17.781818 
L 671.735876 17.802764 
L 671.735876 17.7888 
L 42.273137 17.7888 
L 42.273137 17.774836 
L 671.735876 17.774836 
L 671.735876 17.760873 
z
" style="fill:#0000ff;stroke:#0000ff;stroke-dasharray:1,1.65;stroke-dashoffset:0;stroke-linejoin:miter;"/>
   </g>
   <g id="patch_4">
    <path clip-path="url(#pe7d79d2330)" d="M 120.955979 157.481018 
L 120.880843 157.418182 
L 120.930934 157.418182 
L 120.930934 17.781818 
L 120.981025 17.781818 
L 120.981025 157.418182 
L 121.031116 157.418182 
z
" style="fill:#ff0000;stroke:#ff0000;stroke-dasharray:3.7,1.6;stroke-dashoffset:0;stroke-linejoin:miter;"/>
   </g>
   <g id="patch_5">
    <path clip-path="url(#pe7d79d2330)" d="M 199.638822 157.481018 
L 199.563685 157.418182 
L 199.613776 157.418182 
L 199.613776 17.781818 
L 199.663867 17.781818 
L 199.663867 157.418182 
L 199.713958 157.418182 
z
" style="fill:#ff0000;stroke:#ff0000;stroke-dasharray:3.7,1.6;stroke-dashoffset:0;stroke-linejoin:miter;"/>
   </g>
   <g id="patch_6">
    <path clip-path="url(#pe7d79d2330)" d="M 278.321664 157.481018 
L 278.246527 157.418182 
L 278.296619 157.418182 
L 278.296619 17.781818 
L 278.34671 17.781818 
L 278.34671 157.418182 
L 278.396801 157.418182 
z
" style="fill:#ff0000;stroke:#ff0000;stroke-dasharray:3.7,1.6;stroke-dashoffset:0;stroke-linejoin:miter;"/>
   </g>
   <g id="matplotlib.axis_1">
    <g id="xtick_1">
     <g id="line2d_1">
      <defs>
       <path d="M 0 0 
L 0 3.5 
" id="mcf812c0d1c" style="stroke:#000000;stroke-width:0.8;"/>
      </defs>
      <g>
       <use style="stroke:#000000;stroke-width:0.8;" x="42.273137" xlink:href="#mcf812c0d1c" y="87.6"/>
      </g>
     </g>
    </g>
    <g id="xtick_2">
     <g id="line2d_2">
      <g>
       <use style="stroke:#000000;stroke-width:0.8;" x="142.455243" xlink:href="#mcf812c0d1c" y="87.6"/>
      </g>
     </g>
    </g>
    <g id="xtick_3">
     <g id="line2d_3">
      <g>
       <use style="stroke:#000000;stroke-width:0.8;" x="242.63735" xlink:href="#mcf812c0d1c" y="87.6"/>
      </g>
     </g>
    </g>
    <g id="xtick_4">
     <g id="line2d_4">
      <g>
       <use style="stroke:#000000;stroke-width:0.8;" x="342.819456" xlink:href="#mcf812c0d1c" y="87.6"/>
      </g>
     </g>
    </g>
    <g id="xtick_5">
     <g id="line2d_5">
      <g>
       <use style="stroke:#000000;stroke-width:0.8;" x="443.001563" xlink:href="#mcf812c0d1c" y="87.6"/>
      </g>
     </g>
    </g>
    <g id="xtick_6">
     <g id="line2d_6">
      <g>
       <use style="stroke:#000000;stroke-width:0.8;" x="543.183669" xlink:href="#mcf812c0d1c" y="87.6"/>
      </g>
     </g>
    </g>
    <g id="xtick_7">
     <g id="line2d_7">
      <g>
       <use style="stroke:#000000;stroke-width:0.8;" x="643.365775" xlink:href="#mcf812c0d1c" y="87.6"/>
      </g>
     </g>
    </g>
   </g>
   <g id="matplotlib.axis_2">
    <g id="ytick_1">
     <g id="line2d_8">
      <defs>
       <path d="M 0 0 
L -3.5 0 
" id="m8d55ea2e14" style="stroke:#000000;stroke-width:0.8;"/>
      </defs>
      <g>
       <use style="stroke:#000000;stroke-width:0.8;" x="42.273137" xlink:href="#m8d55ea2e14" y="143.454545"/>
      </g>
     </g>
    </g>
    <g id="ytick_2">
     <g id="line2d_9">
      <g>
       <use style="stroke:#000000;stroke-width:0.8;" x="42.273137" xlink:href="#m8d55ea2e14" y="115.527273"/>
      </g>
     </g>
    </g>
    <g id="ytick_3">
     <g id="line2d_10">
      <g>
       <use style="stroke:#000000;stroke-width:0.8;" x="42.273137" xlink:href="#m8d55ea2e14" y="87.6"/>
      </g>
     </g>
    </g>
    <g id="ytick_4">
     <g id="line2d_11">
      <g>
       <use style="stroke:#000000;stroke-width:0.8;" x="42.273137" xlink:href="#m8d55ea2e14" y="59.672727"/>
      </g>
     </g>
    </g>
    <g id="ytick_5">
     <g id="line2d_12">
      <g>
       <use style="stroke:#000000;stroke-width:0.8;" x="42.273137" xlink:href="#m8d55ea2e14" y="31.745455"/>
      </g>
     </g>
    </g>
   </g>
   <g id="line2d_13">
    <path clip-path="url(#pe7d79d2330)" d="M 42.273137 17.781818 
L 48.631346 18.343519 
L 54.989556 20.019582 
L 61.347765 22.783039 
L 67.705975 26.589425 
L 74.064184 31.377495 
L 80.422394 37.070205 
L 86.780603 43.575959 
L 93.138813 50.790076 
L 99.497022 58.596479 
L 105.855232 66.869559 
L 112.213441 75.4762 
L 118.571651 84.277917 
L 124.92986 93.133088 
L 131.28807 101.899229 
L 137.646279 110.435291 
L 144.004489 118.603923 
L 150.362698 126.273692 
L 156.720908 133.321186 
L 163.079117 139.633009 
L 169.437327 145.107601 
L 175.795536 149.656875 
L 182.153746 153.20763 
L 188.511955 155.702734 
L 194.870165 157.10204 
L 201.228374 157.383031 
L 207.586584 156.541188 
L 213.944793 154.590055 
L 220.303003 151.561027 
L 226.661212 147.502842 
L 233.019421 142.480798 
L 239.377631 136.575701 
L 245.73584 129.882567 
L 252.09405 122.509091 
L 258.452259 114.573914 
L 264.810469 106.204717 
L 271.168678 97.536163 
L 277.526888 88.707733 
L 283.885097 79.861478 
L 290.243307 71.13974 
L 296.601516 62.682853 
L 302.959726 54.626892 
L 309.317935 47.101481 
L 315.676145 40.227707 
L 322.034354 34.11617 
L 328.392564 28.865208 
L 334.750773 24.559311 
L 341.108983 21.267762 
L 347.467192 19.043524 
L 353.825402 17.922385 
L 360.183611 17.922385 
L 366.541821 19.043524 
L 372.90003 21.267762 
L 379.25824 24.559311 
L 385.616449 28.865208 
L 391.974659 34.11617 
L 398.332868 40.227707 
L 404.691078 47.101481 
L 411.049287 54.626892 
L 417.407497 62.682853 
L 423.765706 71.13974 
L 430.123915 79.861478 
L 436.482125 88.707733 
L 442.840334 97.536163 
L 449.198544 106.204717 
L 455.556753 114.573914 
L 461.914963 122.509091 
L 468.273172 129.882567 
L 474.631382 136.575701 
L 480.989591 142.480798 
L 487.347801 147.502842 
L 493.70601 151.561027 
L 500.06422 154.590055 
L 506.422429 156.541188 
L 512.780639 157.383031 
L 519.138848 157.10204 
L 525.497058 155.702734 
L 531.855267 153.20763 
L 538.213477 149.656875 
L 544.571686 145.107601 
L 550.929896 139.633009 
L 557.288105 133.321186 
L 563.646315 126.273692 
L 570.004524 118.603923 
L 576.362734 110.435291 
L 582.720943 101.899229 
L 589.079153 93.133088 
L 595.437362 84.277917 
L 601.795572 75.4762 
L 608.153781 66.869559 
L 614.511991 58.596479 
L 620.8702 50.790076 
L 627.228409 43.575959 
L 633.586619 37.070205 
L 639.944828 31.377495 
L 646.303038 26.589425 
L 652.661247 22.783039 
L 659.019457 20.019582 
L 665.377666 18.343519 
L 671.735876 17.781818 
" style="fill:none;stroke:#000000;stroke-linecap:square;stroke-width:1.5;"/>
   </g>
   <g id="patch_7">
    <path d="M 42.273137 164.4 
L 42.273137 10.8 
" style="fill:none;stroke:#000000;stroke-linecap:square;stroke-linejoin:miter;stroke-width:0.8;"/>
   </g>
   <g id="patch_8">
    <path d="M 703.209013 164.4 
L 703.209013 10.8 
" style="fill:none;"/>
   </g>
   <g id="patch_9">
    <path d="M 10.8 87.6 
L 703.209013 87.6 
" style="fill:none;stroke:#000000;stroke-linecap:square;stroke-linejoin:miter;stroke-width:0.8;"/>
   </g>
   <g id="patch_10">
    <path d="M 10.8 10.8 
L 703.209013 10.8 
" style="fill:none;"/>
   </g>
   <g id="text_1">
    <!-- $x$ -->
    <defs>
     <path d="M 60.015625 54.6875 
L 34.90625 27.875 
L 50.296875 0 
L 39.984375 0 
L 28.421875 21.6875 
L 8.296875 0 
L -2.59375 0 
L 24.3125 28.8125 
L 10.015625 54.6875 
L 20.3125 54.6875 
L 30.8125 34.90625 
L 49.125 54.6875 
z
" id="DejaVuSans-Oblique-120"/>
    </defs>
    <g transform="translate(21.245821 41.549716)scale(0.2 -0.2)">
     <use transform="translate(0 0.3125)" xlink:href="#DejaVuSans-Oblique-120"/>
    </g>
   </g>
   <g id="text_2">
    <!-- $t$ -->
    <defs>
     <path d="M 42.28125 54.6875 
L 40.921875 47.703125 
L 23 47.703125 
L 17.1875 18.015625 
Q 16.890625 16.359375 16.75 15.234375 
Q 16.609375 14.109375 16.609375 13.484375 
Q 16.609375 10.359375 18.484375 8.9375 
Q 20.359375 7.515625 24.515625 7.515625 
L 33.59375 7.515625 
L 32.078125 0 
L 23.484375 0 
Q 15.484375 0 11.546875 3.125 
Q 7.625 6.25 7.625 12.59375 
Q 7.625 13.71875 7.765625 15.0625 
Q 7.90625 16.40625 8.203125 18.015625 
L 14.015625 47.703125 
L 6.390625 47.703125 
L 7.8125 54.6875 
L 15.28125 54.6875 
L 18.3125 70.21875 
L 27.296875 70.21875 
L 24.3125 54.6875 
z
" id="DejaVuSans-Oblique-116"/>
    </defs>
    <g transform="translate(669.735876 106.465767)scale(0.1 -0.1)">
     <use transform="translate(0 0.78125)" xlink:href="#DejaVuSans-Oblique-116"/>
    </g>
   </g>
   <g id="patch_11">
    <path d="M 671.735876 85.60142 
Q 671.735876 52.69128 671.735876 20.899173 
" style="fill:none;stroke:#000000;stroke-linecap:round;"/>
    <path d="M 669.735876 24.899173 
L 671.735876 20.899173 
L 673.735876 24.899173 
" style="fill:none;stroke:#000000;stroke-linecap:round;"/>
   </g>
   <g id="text_3">
    <!-- $A$ -->
    <defs>
     <path d="M 36.8125 72.90625 
L 48 72.90625 
L 61.53125 0 
L 51.21875 0 
L 48.1875 18.703125 
L 15.375 18.703125 
L 5.078125 0 
L -5.328125 0 
z
M 40.375 63.1875 
L 19.921875 26.90625 
L 46.6875 26.90625 
z
" id="DejaVuSans-Oblique-65"/>
    </defs>
    <g transform="translate(683.438618 52.690909)scale(0.1 -0.1)">
     <use transform="translate(0 0.09375)" xlink:href="#DejaVuSans-Oblique-65"/>
    </g>
   </g>
  </g>
  <g id="axes_2">
   <g id="patch_12">
    <path d="M 10.8 328.8 
L 703.209013 328.8 
L 703.209013 175.2 
L 10.8 175.2 
z
" style="fill:none;"/>
   </g>
   <g id="patch_13">
    <path clip-path="url(#p0d59ab233c)" d="M 671.961286 182.181818 
L 671.735876 182.202764 
L 671.735876 182.1888 
L 42.273137 182.1888 
L 42.273137 182.174836 
L 671.735876 182.174836 
L 671.735876 182.160873 
z
" style="fill:#0000ff;stroke:#0000ff;stroke-dasharray:1,1.65;stroke-dashoffset:0;stroke-linejoin:miter;"/>
   </g>
   <g id="patch_14">
    <path clip-path="url(#p0d59ab233c)" d="M 120.955979 321.881018 
L 120.880843 321.818182 
L 120.930934 321.818182 
L 120.930934 182.181818 
L 120.981025 182.181818 
L 120.981025 321.818182 
L 121.031116 321.818182 
z
" style="fill:#ff0000;stroke:#ff0000;stroke-dasharray:3.7,1.6;stroke-dashoffset:0;stroke-linejoin:miter;"/>
   </g>
   <g id="patch_15">
    <path clip-path="url(#p0d59ab233c)" d="M 199.638822 321.881018 
L 199.563685 321.818182 
L 199.613776 321.818182 
L 199.613776 182.181818 
L 199.663867 182.181818 
L 199.663867 321.818182 
L 199.713958 321.818182 
z
" style="fill:#ff0000;stroke:#ff0000;stroke-dasharray:3.7,1.6;stroke-dashoffset:0;stroke-linejoin:miter;"/>
   </g>
   <g id="patch_16">
    <path clip-path="url(#p0d59ab233c)" d="M 278.321664 321.881018 
L 278.246527 321.818182 
L 278.296619 321.818182 
L 278.296619 182.181818 
L 278.34671 182.181818 
L 278.34671 321.818182 
L 278.396801 321.818182 
z
" style="fill:#ff0000;stroke:#ff0000;stroke-dasharray:3.7,1.6;stroke-dashoffset:0;stroke-linejoin:miter;"/>
   </g>
   <g id="matplotlib.axis_3">
    <g id="xtick_8">
     <g id="line2d_14">
      <g>
       <use style="stroke:#000000;stroke-width:0.8;" x="42.273137" xlink:href="#mcf812c0d1c" y="252"/>
      </g>
     </g>
    </g>
    <g id="xtick_9">
     <g id="line2d_15">
      <g>
       <use style="stroke:#000000;stroke-width:0.8;" x="142.455243" xlink:href="#mcf812c0d1c" y="252"/>
      </g>
     </g>
    </g>
    <g id="xtick_10">
     <g id="line2d_16">
      <g>
       <use style="stroke:#000000;stroke-width:0.8;" x="242.63735" xlink:href="#mcf812c0d1c" y="252"/>
      </g>
     </g>
    </g>
    <g id="xtick_11">
     <g id="line2d_17">
      <g>
       <use style="stroke:#000000;stroke-width:0.8;" x="342.819456" xlink:href="#mcf812c0d1c" y="252"/>
      </g>
     </g>
    </g>
    <g id="xtick_12">
     <g id="line2d_18">
      <g>
       <use style="stroke:#000000;stroke-width:0.8;" x="443.001563" xlink:href="#mcf812c0d1c" y="252"/>
      </g>
     </g>
    </g>
    <g id="xtick_13">
     <g id="line2d_19">
      <g>
       <use style="stroke:#000000;stroke-width:0.8;" x="543.183669" xlink:href="#mcf812c0d1c" y="252"/>
      </g>
     </g>
    </g>
    <g id="xtick_14">
     <g id="line2d_20">
      <g>
       <use style="stroke:#000000;stroke-width:0.8;" x="643.365775" xlink:href="#mcf812c0d1c" y="252"/>
      </g>
     </g>
    </g>
   </g>
   <g id="matplotlib.axis_4">
    <g id="ytick_6">
     <g id="line2d_21">
      <g>
       <use style="stroke:#000000;stroke-width:0.8;" x="42.273137" xlink:href="#m8d55ea2e14" y="307.854545"/>
      </g>
     </g>
    </g>
    <g id="ytick_7">
     <g id="line2d_22">
      <g>
       <use style="stroke:#000000;stroke-width:0.8;" x="42.273137" xlink:href="#m8d55ea2e14" y="279.927273"/>
      </g>
     </g>
    </g>
    <g id="ytick_8">
     <g id="line2d_23">
      <g>
       <use style="stroke:#000000;stroke-width:0.8;" x="42.273137" xlink:href="#m8d55ea2e14" y="252"/>
      </g>
     </g>
    </g>
    <g id="ytick_9">
     <g id="line2d_24">
      <g>
       <use style="stroke:#000000;stroke-width:0.8;" x="42.273137" xlink:href="#m8d55ea2e14" y="224.072727"/>
      </g>
     </g>
    </g>
    <g id="ytick_10">
     <g id="line2d_25">
      <g>
       <use style="stroke:#000000;stroke-width:0.8;" x="42.273137" xlink:href="#m8d55ea2e14" y="196.145455"/>
      </g>
     </g>
    </g>
   </g>
   <g id="line2d_26">
    <path clip-path="url(#p0d59ab233c)" d="M 42.273137 252 
L 48.631346 260.838455 
L 54.989556 269.534696 
L 61.347765 277.948797 
L 67.705975 285.945372 
L 74.064184 293.395754 
L 80.422394 300.180062 
L 86.780603 306.189135 
L 93.138813 311.326285 
L 99.497022 315.508852 
L 105.855232 318.669538 
L 112.213441 320.757487 
L 118.571651 321.739101 
L 124.92986 321.598588 
L 131.28807 320.338207 
L 137.646279 317.978239 
L 144.004489 314.556656 
L 150.362698 310.128513 
L 156.720908 304.765061 
L 163.079117 298.552599 
L 169.437327 291.591089 
L 175.795536 283.992543 
L 182.153746 275.879225 
L 188.511955 267.381681 
L 194.870165 258.63664 
L 201.228374 249.784813 
L 207.586584 240.96863 
L 213.944793 232.329945 
L 220.303003 224.007759 
L 226.661212 216.135978 
L 233.019421 208.841264 
L 239.377631 202.240989 
L 245.73584 196.441355 
L 252.09405 191.535681 
L 258.452259 187.6029 
L 264.810469 184.706293 
L 271.168678 182.892467 
L 277.526888 182.190606 
L 283.885097 182.612005 
L 290.243307 184.149883 
L 296.601516 186.779495 
L 302.959726 190.458529 
L 309.317935 195.127788 
L 315.676145 200.712143 
L 322.034354 207.121738 
L 328.392564 214.253441 
L 334.750773 221.992501 
L 341.108983 230.214392 
L 347.467192 238.786822 
L 353.825402 247.571857 
L 360.183611 256.428143 
L 366.541821 265.213178 
L 372.90003 273.785608 
L 379.25824 282.007499 
L 385.616449 289.746559 
L 391.974659 296.878262 
L 398.332868 303.287857 
L 404.691078 308.872212 
L 411.049287 313.541471 
L 417.407497 317.220505 
L 423.765706 319.850117 
L 430.123915 321.387995 
L 436.482125 321.809394 
L 442.840334 321.107533 
L 449.198544 319.293707 
L 455.556753 316.3971 
L 461.914963 312.464319 
L 468.273172 307.558645 
L 474.631382 301.759011 
L 480.989591 295.158736 
L 487.347801 287.864022 
L 493.70601 279.992241 
L 500.06422 271.670055 
L 506.422429 263.03137 
L 512.780639 254.215187 
L 519.138848 245.36336 
L 525.497058 236.618319 
L 531.855267 228.120775 
L 538.213477 220.007457 
L 544.571686 212.408911 
L 550.929896 205.447401 
L 557.288105 199.234939 
L 563.646315 193.871487 
L 570.004524 189.443344 
L 576.362734 186.021761 
L 582.720943 183.661793 
L 589.079153 182.401412 
L 595.437362 182.260899 
L 601.795572 183.242513 
L 608.153781 185.330462 
L 614.511991 188.491148 
L 620.8702 192.673715 
L 627.228409 197.810865 
L 633.586619 203.819938 
L 639.944828 210.604246 
L 646.303038 218.054628 
L 652.661247 226.051203 
L 659.019457 234.465304 
L 665.377666 243.161545 
L 671.735876 252 
" style="fill:none;stroke:#0000ff;stroke-linecap:square;stroke-width:1.5;"/>
   </g>
   <g id="patch_17">
    <path d="M 42.273137 328.8 
L 42.273137 175.2 
" style="fill:none;stroke:#000000;stroke-linecap:square;stroke-linejoin:miter;stroke-width:0.8;"/>
   </g>
   <g id="patch_18">
    <path d="M 703.209013 328.8 
L 703.209013 175.2 
" style="fill:none;"/>
   </g>
   <g id="patch_19">
    <path d="M 10.8 252 
L 703.209013 252 
" style="fill:none;stroke:#000000;stroke-linecap:square;stroke-linejoin:miter;stroke-width:0.8;"/>
   </g>
   <g id="patch_20">
    <path d="M 10.8 175.2 
L 703.209013 175.2 
" style="fill:none;"/>
   </g>
   <g id="text_4">
    <!-- $v$ -->
    <defs>
     <path d="M 7.171875 54.6875 
L 16.703125 54.6875 
L 24.703125 8.203125 
L 50.875 54.6875 
L 60.40625 54.6875 
L 29.296875 0 
L 17.1875 0 
z
" id="DejaVuSans-Oblique-118"/>
    </defs>
    <g transform="translate(21.245821 205.949716)scale(0.2 -0.2)">
     <use transform="translate(0 0.3125)" xlink:href="#DejaVuSans-Oblique-118"/>
    </g>
   </g>
   <g id="text_5">
    <!-- $t$ -->
    <g transform="translate(669.735876 270.865767)scale(0.1 -0.1)">
     <use transform="translate(0 0.78125)" xlink:href="#DejaVuSans-Oblique-116"/>
    </g>
   </g>
   <g id="patch_21">
    <path d="M 671.735876 250.00142 
Q 671.735876 217.09128 671.735876 185.299173 
" style="fill:none;stroke:#000000;stroke-linecap:round;"/>
    <path d="M 669.735876 189.299173 
L 671.735876 185.299173 
L 673.735876 189.299173 
" style="fill:none;stroke:#000000;stroke-linecap:round;"/>
   </g>
   <g id="text_6">
    <!-- $A\omega$ -->
    <defs>
     <path d="M 21.390625 -1.421875 
Q 1.125 -1.421875 6.78125 27.59375 
Q 8.984375 39.0625 19.625 54.6875 
L 29.296875 54.6875 
Q 19.234375 39.0625 17 27.34375 
Q 12.796875 6.203125 23.734375 6.203125 
Q 33.84375 6.203125 38.71875 32.46875 
L 47.015625 32.46875 
Q 41.703125 6.0625 51.8125 6.203125 
Q 62.703125 6.296875 66.796875 27.34375 
Q 69.046875 39.0625 65.140625 54.6875 
L 74.8125 54.6875 
Q 79.296875 39.0625 77.09375 27.59375 
Q 71.53125 -1.46875 51.21875 -1.421875 
Q 37.9375 -1.375 39.109375 13.1875 
Q 34.28125 -1.421875 21.390625 -1.421875 
z
" id="DejaVuSans-Oblique-969"/>
    </defs>
    <g transform="translate(683.438618 217.090909)scale(0.1 -0.1)">
     <use transform="translate(0 0.09375)" xlink:href="#DejaVuSans-Oblique-65"/>
     <use transform="translate(68.408203 0.09375)" xlink:href="#DejaVuSans-Oblique-969"/>
    </g>
   </g>
  </g>
  <g id="axes_3">
   <g id="patch_22">
    <path d="M 10.8 493.2 
L 703.209013 493.2 
L 703.209013 339.6 
L 10.8 339.6 
z
" style="fill:none;"/>
   </g>
   <g id="patch_23">
    <path clip-path="url(#p9ba6f69616)" d="M 671.961286 346.581818 
L 671.735876 346.602764 
L 671.735876 346.5888 
L 42.273137 346.5888 
L 42.273137 346.574836 
L 671.735876 346.574836 
L 671.735876 346.560873 
z
" style="fill:#0000ff;stroke:#0000ff;stroke-dasharray:1,1.65;stroke-dashoffset:0;stroke-linejoin:miter;"/>
   </g>
   <g id="patch_24">
    <path clip-path="url(#p9ba6f69616)" d="M 120.955979 486.281018 
L 120.880843 486.218182 
L 120.930934 486.218182 
L 120.930934 346.581818 
L 120.981025 346.581818 
L 120.981025 486.218182 
L 121.031116 486.218182 
z
" style="fill:#ff0000;stroke:#ff0000;stroke-dasharray:3.7,1.6;stroke-dashoffset:0;stroke-linejoin:miter;"/>
   </g>
   <g id="patch_25">
    <path clip-path="url(#p9ba6f69616)" d="M 199.638822 486.281018 
L 199.563685 486.218182 
L 199.613776 486.218182 
L 199.613776 346.581818 
L 199.663867 346.581818 
L 199.663867 486.218182 
L 199.713958 486.218182 
z
" style="fill:#ff0000;stroke:#ff0000;stroke-dasharray:3.7,1.6;stroke-dashoffset:0;stroke-linejoin:miter;"/>
   </g>
   <g id="patch_26">
    <path clip-path="url(#p9ba6f69616)" d="M 278.321664 486.281018 
L 278.246527 486.218182 
L 278.296619 486.218182 
L 278.296619 346.581818 
L 278.34671 346.581818 
L 278.34671 486.218182 
L 278.396801 486.218182 
z
" style="fill:#ff0000;stroke:#ff0000;stroke-dasharray:3.7,1.6;stroke-dashoffset:0;stroke-linejoin:miter;"/>
   </g>
   <g id="matplotlib.axis_5">
    <g id="xtick_15">
     <g id="line2d_27">
      <g>
       <use style="stroke:#000000;stroke-width:0.8;" x="42.273137" xlink:href="#mcf812c0d1c" y="416.4"/>
      </g>
     </g>
    </g>
    <g id="xtick_16">
     <g id="line2d_28">
      <g>
       <use style="stroke:#000000;stroke-width:0.8;" x="142.455243" xlink:href="#mcf812c0d1c" y="416.4"/>
      </g>
     </g>
    </g>
    <g id="xtick_17">
     <g id="line2d_29">
      <g>
       <use style="stroke:#000000;stroke-width:0.8;" x="242.63735" xlink:href="#mcf812c0d1c" y="416.4"/>
      </g>
     </g>
    </g>
    <g id="xtick_18">
     <g id="line2d_30">
      <g>
       <use style="stroke:#000000;stroke-width:0.8;" x="342.819456" xlink:href="#mcf812c0d1c" y="416.4"/>
      </g>
     </g>
    </g>
    <g id="xtick_19">
     <g id="line2d_31">
      <g>
       <use style="stroke:#000000;stroke-width:0.8;" x="443.001563" xlink:href="#mcf812c0d1c" y="416.4"/>
      </g>
     </g>
    </g>
    <g id="xtick_20">
     <g id="line2d_32">
      <g>
       <use style="stroke:#000000;stroke-width:0.8;" x="543.183669" xlink:href="#mcf812c0d1c" y="416.4"/>
      </g>
     </g>
    </g>
    <g id="xtick_21">
     <g id="line2d_33">
      <g>
       <use style="stroke:#000000;stroke-width:0.8;" x="643.365775" xlink:href="#mcf812c0d1c" y="416.4"/>
      </g>
     </g>
    </g>
   </g>
   <g id="matplotlib.axis_6">
    <g id="ytick_11">
     <g id="line2d_34">
      <g>
       <use style="stroke:#000000;stroke-width:0.8;" x="42.273137" xlink:href="#m8d55ea2e14" y="472.254545"/>
      </g>
     </g>
    </g>
    <g id="ytick_12">
     <g id="line2d_35">
      <g>
       <use style="stroke:#000000;stroke-width:0.8;" x="42.273137" xlink:href="#m8d55ea2e14" y="444.327273"/>
      </g>
     </g>
    </g>
    <g id="ytick_13">
     <g id="line2d_36">
      <g>
       <use style="stroke:#000000;stroke-width:0.8;" x="42.273137" xlink:href="#m8d55ea2e14" y="416.4"/>
      </g>
     </g>
    </g>
    <g id="ytick_14">
     <g id="line2d_37">
      <g>
       <use style="stroke:#000000;stroke-width:0.8;" x="42.273137" xlink:href="#m8d55ea2e14" y="388.472727"/>
      </g>
     </g>
    </g>
    <g id="ytick_15">
     <g id="line2d_38">
      <g>
       <use style="stroke:#000000;stroke-width:0.8;" x="42.273137" xlink:href="#m8d55ea2e14" y="360.545455"/>
      </g>
     </g>
    </g>
   </g>
   <g id="line2d_39">
    <path clip-path="url(#p9ba6f69616)" d="M 42.273137 486.218182 
L 48.631346 485.656481 
L 54.989556 483.980418 
L 61.347765 481.216961 
L 67.705975 477.410575 
L 74.064184 472.622505 
L 80.422394 466.929795 
L 86.780603 460.424041 
L 93.138813 453.209924 
L 99.497022 445.403521 
L 105.855232 437.130441 
L 112.213441 428.5238 
L 118.571651 419.722083 
L 124.92986 410.866912 
L 131.28807 402.100771 
L 137.646279 393.564709 
L 144.004489 385.396077 
L 150.362698 377.726308 
L 156.720908 370.678814 
L 163.079117 364.366991 
L 169.437327 358.892399 
L 175.795536 354.343125 
L 182.153746 350.79237 
L 188.511955 348.297266 
L 194.870165 346.89796 
L 201.228374 346.616969 
L 207.586584 347.458812 
L 213.944793 349.409945 
L 220.303003 352.438973 
L 226.661212 356.497158 
L 233.019421 361.519202 
L 239.377631 367.424299 
L 245.73584 374.117433 
L 252.09405 381.490909 
L 258.452259 389.426086 
L 264.810469 397.795283 
L 271.168678 406.463837 
L 277.526888 415.292267 
L 283.885097 424.138522 
L 290.243307 432.86026 
L 296.601516 441.317147 
L 302.959726 449.373108 
L 309.317935 456.898519 
L 315.676145 463.772293 
L 322.034354 469.88383 
L 328.392564 475.134792 
L 334.750773 479.440689 
L 341.108983 482.732238 
L 347.467192 484.956476 
L 353.825402 486.077615 
L 360.183611 486.077615 
L 366.541821 484.956476 
L 372.90003 482.732238 
L 379.25824 479.440689 
L 385.616449 475.134792 
L 391.974659 469.88383 
L 398.332868 463.772293 
L 404.691078 456.898519 
L 411.049287 449.373108 
L 417.407497 441.317147 
L 423.765706 432.86026 
L 430.123915 424.138522 
L 436.482125 415.292267 
L 442.840334 406.463837 
L 449.198544 397.795283 
L 455.556753 389.426086 
L 461.914963 381.490909 
L 468.273172 374.117433 
L 474.631382 367.424299 
L 480.989591 361.519202 
L 487.347801 356.497158 
L 493.70601 352.438973 
L 500.06422 349.409945 
L 506.422429 347.458812 
L 512.780639 346.616969 
L 519.138848 346.89796 
L 525.497058 348.297266 
L 531.855267 350.79237 
L 538.213477 354.343125 
L 544.571686 358.892399 
L 550.929896 364.366991 
L 557.288105 370.678814 
L 563.646315 377.726308 
L 570.004524 385.396077 
L 576.362734 393.564709 
L 582.720943 402.100771 
L 589.079153 410.866912 
L 595.437362 419.722083 
L 601.795572 428.5238 
L 608.153781 437.130441 
L 614.511991 445.403521 
L 620.8702 453.209924 
L 627.228409 460.424041 
L 633.586619 466.929795 
L 639.944828 472.622505 
L 646.303038 477.410575 
L 652.661247 481.216961 
L 659.019457 483.980418 
L 665.377666 485.656481 
L 671.735876 486.218182 
" style="fill:none;stroke:#ffa500;stroke-linecap:square;stroke-width:1.5;"/>
   </g>
   <g id="patch_27">
    <path d="M 42.273137 493.2 
L 42.273137 339.6 
" style="fill:none;stroke:#000000;stroke-linecap:square;stroke-linejoin:miter;stroke-width:0.8;"/>
   </g>
   <g id="patch_28">
    <path d="M 703.209013 493.2 
L 703.209013 339.6 
" style="fill:none;"/>
   </g>
   <g id="patch_29">
    <path d="M 10.8 416.4 
L 703.209013 416.4 
" style="fill:none;stroke:#000000;stroke-linecap:square;stroke-linejoin:miter;stroke-width:0.8;"/>
   </g>
   <g id="patch_30">
    <path d="M 10.8 339.6 
L 703.209013 339.6 
" style="fill:none;"/>
   </g>
   <g id="text_7">
    <!-- $a$ -->
    <defs>
     <path d="M 53.71875 31.203125 
L 47.609375 0 
L 38.625 0 
L 40.28125 8.296875 
Q 36.328125 3.421875 31.265625 1 
Q 26.21875 -1.421875 20.015625 -1.421875 
Q 13.03125 -1.421875 8.5625 2.84375 
Q 4.109375 7.125 4.109375 13.8125 
Q 4.109375 23.390625 11.75 28.953125 
Q 19.390625 34.515625 32.8125 34.515625 
L 45.3125 34.515625 
L 45.796875 36.921875 
Q 45.90625 37.3125 45.953125 37.765625 
Q 46 38.234375 46 39.203125 
Q 46 43.5625 42.453125 45.96875 
Q 38.921875 48.390625 32.515625 48.390625 
Q 28.125 48.390625 23.5 47.265625 
Q 18.890625 46.140625 14.015625 43.890625 
L 15.578125 52.203125 
Q 20.65625 54.109375 25.515625 55.046875 
Q 30.375 56 34.90625 56 
Q 44.578125 56 49.625 51.796875 
Q 54.6875 47.609375 54.6875 39.59375 
Q 54.6875 37.984375 54.4375 35.8125 
Q 54.203125 33.640625 53.71875 31.203125 
z
M 44 27.484375 
L 35.015625 27.484375 
Q 23.96875 27.484375 18.671875 24.53125 
Q 13.375 21.578125 13.375 15.375 
Q 13.375 11.078125 16.078125 8.640625 
Q 18.796875 6.203125 23.578125 6.203125 
Q 30.90625 6.203125 36.375 11.453125 
Q 41.84375 16.703125 43.609375 25.484375 
z
" id="DejaVuSans-Oblique-97"/>
    </defs>
    <g transform="translate(21.045821 370.349716)scale(0.2 -0.2)">
     <use xlink:href="#DejaVuSans-Oblique-97"/>
    </g>
   </g>
   <g id="text_8">
    <!-- $t$ -->
    <g transform="translate(669.735876 435.265767)scale(0.1 -0.1)">
     <use transform="translate(0 0.78125)" xlink:href="#DejaVuSans-Oblique-116"/>
    </g>
   </g>
   <g id="patch_31">
    <path d="M 671.735876 414.40142 
Q 671.735876 381.49128 671.735876 349.699173 
" style="fill:none;stroke:#000000;stroke-linecap:round;"/>
    <path d="M 669.735876 353.699173 
L 671.735876 349.699173 
L 673.735876 353.699173 
" style="fill:none;stroke:#000000;stroke-linecap:round;"/>
   </g>
   <g id="text_9">
    <!-- $A \omega^2$ -->
    <defs>
     <path d="M 19.1875 8.296875 
L 53.609375 8.296875 
L 53.609375 0 
L 7.328125 0 
L 7.328125 8.296875 
Q 12.9375 14.109375 22.625 23.890625 
Q 32.328125 33.6875 34.8125 36.53125 
Q 39.546875 41.84375 41.421875 45.53125 
Q 43.3125 49.21875 43.3125 52.78125 
Q 43.3125 58.59375 39.234375 62.25 
Q 35.15625 65.921875 28.609375 65.921875 
Q 23.96875 65.921875 18.8125 64.3125 
Q 13.671875 62.703125 7.8125 59.421875 
L 7.8125 69.390625 
Q 13.765625 71.78125 18.9375 73 
Q 24.125 74.21875 28.421875 74.21875 
Q 39.75 74.21875 46.484375 68.546875 
Q 53.21875 62.890625 53.21875 53.421875 
Q 53.21875 48.921875 51.53125 44.890625 
Q 49.859375 40.875 45.40625 35.40625 
Q 44.1875 33.984375 37.640625 27.21875 
Q 31.109375 20.453125 19.1875 8.296875 
z
" id="DejaVuSans-50"/>
    </defs>
    <g transform="translate(683.438618 381.490909)scale(0.1 -0.1)">
     <use transform="translate(0 0.765625)" xlink:href="#DejaVuSans-Oblique-65"/>
     <use transform="translate(68.408203 0.765625)" xlink:href="#DejaVuSans-Oblique-969"/>
     <use transform="translate(156.614583 39.046875)scale(0.7)" xlink:href="#DejaVuSans-50"/>
    </g>
   </g>
  </g>
 </g>
 <defs>
  <clipPath id="pe7d79d2330">
   <rect height="153.6" width="692.409013" x="10.8" y="10.8"/>
  </clipPath>
  <clipPath id="p0d59ab233c">
   <rect height="153.6" width="692.409013" x="10.8" y="175.2"/>
  </clipPath>
  <clipPath id="p9ba6f69616">
   <rect height="153.6" width="692.409013" x="10.8" y="339.6"/>
  </clipPath>
 </defs>
</svg>
