<?xml version="1.0" encoding="utf-8" standalone="no"?>
<!DOCTYPE svg PUBLIC "-//W3C//DTD SVG 1.1//EN"
  "http://www.w3.org/Graphics/SVG/1.1/DTD/svg11.dtd">
<!-- Created with matplotlib (https://matplotlib.org/) -->
<svg height="504pt" version="1.1" viewBox="0 0 504 504" width="504pt" xmlns="http://www.w3.org/2000/svg" xmlns:xlink="http://www.w3.org/1999/xlink">
 <defs>
  <style type="text/css">
*{stroke-linecap:butt;stroke-linejoin:round;}
  </style>
 </defs>
 <g id="figure_1">
  <g id="patch_1">
   <path d="M 0 504 
L 504 504 
L 504 0 
L 0 0 
z
" style="fill:none;"/>
  </g>
  <g id="axes_1">
   <g id="patch_2">
    <path d="M 50.55 458.2 
L 490.075 458.2 
L 490.075 14.8 
L 50.55 14.8 
z
" style="fill:none;"/>
   </g>
   <g id="matplotlib.axis_1">
    <g id="xtick_1">
     <g id="line2d_1">
      <defs>
       <path d="M 0 0 
L 0 3.5 
" id="mf730ec7265" style="stroke:#000000;stroke-width:0.8;"/>
      </defs>
      <g>
       <use style="stroke:#000000;stroke-width:0.8;" x="50.55" xlink:href="#mf730ec7265" y="458.2"/>
      </g>
     </g>
     <g id="text_1">
      <!-- −4 -->
      <defs>
       <path d="M 10.59375 35.5 
L 73.1875 35.5 
L 73.1875 27.203125 
L 10.59375 27.203125 
z
" id="DejaVuSans-8722"/>
       <path d="M 37.796875 64.3125 
L 12.890625 25.390625 
L 37.796875 25.390625 
z
M 35.203125 72.90625 
L 47.609375 72.90625 
L 47.609375 25.390625 
L 58.015625 25.390625 
L 58.015625 17.1875 
L 47.609375 17.1875 
L 47.609375 0 
L 37.796875 0 
L 37.796875 17.1875 
L 4.890625 17.1875 
L 4.890625 26.703125 
z
" id="DejaVuSans-52"/>
      </defs>
      <g transform="translate(43.178906 472.798437)scale(0.1 -0.1)">
       <use xlink:href="#DejaVuSans-8722"/>
       <use x="83.789062" xlink:href="#DejaVuSans-52"/>
      </g>
     </g>
    </g>
    <g id="xtick_2">
     <g id="line2d_2">
      <g>
       <use style="stroke:#000000;stroke-width:0.8;" x="105.490625" xlink:href="#mf730ec7265" y="458.2"/>
      </g>
     </g>
     <g id="text_2">
      <!-- −3 -->
      <defs>
       <path d="M 40.578125 39.3125 
Q 47.65625 37.796875 51.625 33 
Q 55.609375 28.21875 55.609375 21.1875 
Q 55.609375 10.40625 48.1875 4.484375 
Q 40.765625 -1.421875 27.09375 -1.421875 
Q 22.515625 -1.421875 17.65625 -0.515625 
Q 12.796875 0.390625 7.625 2.203125 
L 7.625 11.71875 
Q 11.71875 9.328125 16.59375 8.109375 
Q 21.484375 6.890625 26.8125 6.890625 
Q 36.078125 6.890625 40.9375 10.546875 
Q 45.796875 14.203125 45.796875 21.1875 
Q 45.796875 27.640625 41.28125 31.265625 
Q 36.765625 34.90625 28.71875 34.90625 
L 20.21875 34.90625 
L 20.21875 43.015625 
L 29.109375 43.015625 
Q 36.375 43.015625 40.234375 45.921875 
Q 44.09375 48.828125 44.09375 54.296875 
Q 44.09375 59.90625 40.109375 62.90625 
Q 36.140625 65.921875 28.71875 65.921875 
Q 24.65625 65.921875 20.015625 65.03125 
Q 15.375 64.15625 9.8125 62.3125 
L 9.8125 71.09375 
Q 15.4375 72.65625 20.34375 73.4375 
Q 25.25 74.21875 29.59375 74.21875 
Q 40.828125 74.21875 47.359375 69.109375 
Q 53.90625 64.015625 53.90625 55.328125 
Q 53.90625 49.265625 50.4375 45.09375 
Q 46.96875 40.921875 40.578125 39.3125 
z
" id="DejaVuSans-51"/>
      </defs>
      <g transform="translate(98.119531 472.798437)scale(0.1 -0.1)">
       <use xlink:href="#DejaVuSans-8722"/>
       <use x="83.789062" xlink:href="#DejaVuSans-51"/>
      </g>
     </g>
    </g>
    <g id="xtick_3">
     <g id="line2d_3">
      <g>
       <use style="stroke:#000000;stroke-width:0.8;" x="160.43125" xlink:href="#mf730ec7265" y="458.2"/>
      </g>
     </g>
     <g id="text_3">
      <!-- −2 -->
      <defs>
       <path d="M 19.1875 8.296875 
L 53.609375 8.296875 
L 53.609375 0 
L 7.328125 0 
L 7.328125 8.296875 
Q 12.9375 14.109375 22.625 23.890625 
Q 32.328125 33.6875 34.8125 36.53125 
Q 39.546875 41.84375 41.421875 45.53125 
Q 43.3125 49.21875 43.3125 52.78125 
Q 43.3125 58.59375 39.234375 62.25 
Q 35.15625 65.921875 28.609375 65.921875 
Q 23.96875 65.921875 18.8125 64.3125 
Q 13.671875 62.703125 7.8125 59.421875 
L 7.8125 69.390625 
Q 13.765625 71.78125 18.9375 73 
Q 24.125 74.21875 28.421875 74.21875 
Q 39.75 74.21875 46.484375 68.546875 
Q 53.21875 62.890625 53.21875 53.421875 
Q 53.21875 48.921875 51.53125 44.890625 
Q 49.859375 40.875 45.40625 35.40625 
Q 44.1875 33.984375 37.640625 27.21875 
Q 31.109375 20.453125 19.1875 8.296875 
z
" id="DejaVuSans-50"/>
      </defs>
      <g transform="translate(153.060156 472.798437)scale(0.1 -0.1)">
       <use xlink:href="#DejaVuSans-8722"/>
       <use x="83.789062" xlink:href="#DejaVuSans-50"/>
      </g>
     </g>
    </g>
    <g id="xtick_4">
     <g id="line2d_4">
      <g>
       <use style="stroke:#000000;stroke-width:0.8;" x="215.371875" xlink:href="#mf730ec7265" y="458.2"/>
      </g>
     </g>
     <g id="text_4">
      <!-- −1 -->
      <defs>
       <path d="M 12.40625 8.296875 
L 28.515625 8.296875 
L 28.515625 63.921875 
L 10.984375 60.40625 
L 10.984375 69.390625 
L 28.421875 72.90625 
L 38.28125 72.90625 
L 38.28125 8.296875 
L 54.390625 8.296875 
L 54.390625 0 
L 12.40625 0 
z
" id="DejaVuSans-49"/>
      </defs>
      <g transform="translate(208.000781 472.798437)scale(0.1 -0.1)">
       <use xlink:href="#DejaVuSans-8722"/>
       <use x="83.789062" xlink:href="#DejaVuSans-49"/>
      </g>
     </g>
    </g>
    <g id="xtick_5">
     <g id="line2d_5">
      <g>
       <use style="stroke:#000000;stroke-width:0.8;" x="270.3125" xlink:href="#mf730ec7265" y="458.2"/>
      </g>
     </g>
     <g id="text_5">
      <!-- 0 -->
      <defs>
       <path d="M 31.78125 66.40625 
Q 24.171875 66.40625 20.328125 58.90625 
Q 16.5 51.421875 16.5 36.375 
Q 16.5 21.390625 20.328125 13.890625 
Q 24.171875 6.390625 31.78125 6.390625 
Q 39.453125 6.390625 43.28125 13.890625 
Q 47.125 21.390625 47.125 36.375 
Q 47.125 51.421875 43.28125 58.90625 
Q 39.453125 66.40625 31.78125 66.40625 
z
M 31.78125 74.21875 
Q 44.046875 74.21875 50.515625 64.515625 
Q 56.984375 54.828125 56.984375 36.375 
Q 56.984375 17.96875 50.515625 8.265625 
Q 44.046875 -1.421875 31.78125 -1.421875 
Q 19.53125 -1.421875 13.0625 8.265625 
Q 6.59375 17.96875 6.59375 36.375 
Q 6.59375 54.828125 13.0625 64.515625 
Q 19.53125 74.21875 31.78125 74.21875 
z
" id="DejaVuSans-48"/>
      </defs>
      <g transform="translate(267.13125 472.798437)scale(0.1 -0.1)">
       <use xlink:href="#DejaVuSans-48"/>
      </g>
     </g>
    </g>
    <g id="xtick_6">
     <g id="line2d_6">
      <g>
       <use style="stroke:#000000;stroke-width:0.8;" x="325.253125" xlink:href="#mf730ec7265" y="458.2"/>
      </g>
     </g>
     <g id="text_6">
      <!-- 1 -->
      <g transform="translate(322.071875 472.798437)scale(0.1 -0.1)">
       <use xlink:href="#DejaVuSans-49"/>
      </g>
     </g>
    </g>
    <g id="xtick_7">
     <g id="line2d_7">
      <g>
       <use style="stroke:#000000;stroke-width:0.8;" x="380.19375" xlink:href="#mf730ec7265" y="458.2"/>
      </g>
     </g>
     <g id="text_7">
      <!-- 2 -->
      <g transform="translate(377.0125 472.798437)scale(0.1 -0.1)">
       <use xlink:href="#DejaVuSans-50"/>
      </g>
     </g>
    </g>
    <g id="xtick_8">
     <g id="line2d_8">
      <g>
       <use style="stroke:#000000;stroke-width:0.8;" x="435.134375" xlink:href="#mf730ec7265" y="458.2"/>
      </g>
     </g>
     <g id="text_8">
      <!-- 3 -->
      <g transform="translate(431.953125 472.798437)scale(0.1 -0.1)">
       <use xlink:href="#DejaVuSans-51"/>
      </g>
     </g>
    </g>
    <g id="xtick_9">
     <g id="line2d_9">
      <g>
       <use style="stroke:#000000;stroke-width:0.8;" x="490.075" xlink:href="#mf730ec7265" y="458.2"/>
      </g>
     </g>
     <g id="text_9">
      <!-- 4 -->
      <g transform="translate(486.89375 472.798437)scale(0.1 -0.1)">
       <use xlink:href="#DejaVuSans-52"/>
      </g>
     </g>
    </g>
    <g id="text_10">
     <!-- Horizontal displacement, $x$ -->
     <defs>
      <path d="M 9.8125 72.90625 
L 19.671875 72.90625 
L 19.671875 43.015625 
L 55.515625 43.015625 
L 55.515625 72.90625 
L 65.375 72.90625 
L 65.375 0 
L 55.515625 0 
L 55.515625 34.71875 
L 19.671875 34.71875 
L 19.671875 0 
L 9.8125 0 
z
" id="DejaVuSans-72"/>
      <path d="M 30.609375 48.390625 
Q 23.390625 48.390625 19.1875 42.75 
Q 14.984375 37.109375 14.984375 27.296875 
Q 14.984375 17.484375 19.15625 11.84375 
Q 23.34375 6.203125 30.609375 6.203125 
Q 37.796875 6.203125 41.984375 11.859375 
Q 46.1875 17.53125 46.1875 27.296875 
Q 46.1875 37.015625 41.984375 42.703125 
Q 37.796875 48.390625 30.609375 48.390625 
z
M 30.609375 56 
Q 42.328125 56 49.015625 48.375 
Q 55.71875 40.765625 55.71875 27.296875 
Q 55.71875 13.875 49.015625 6.21875 
Q 42.328125 -1.421875 30.609375 -1.421875 
Q 18.84375 -1.421875 12.171875 6.21875 
Q 5.515625 13.875 5.515625 27.296875 
Q 5.515625 40.765625 12.171875 48.375 
Q 18.84375 56 30.609375 56 
z
" id="DejaVuSans-111"/>
      <path d="M 41.109375 46.296875 
Q 39.59375 47.171875 37.8125 47.578125 
Q 36.03125 48 33.890625 48 
Q 26.265625 48 22.1875 43.046875 
Q 18.109375 38.09375 18.109375 28.8125 
L 18.109375 0 
L 9.078125 0 
L 9.078125 54.6875 
L 18.109375 54.6875 
L 18.109375 46.1875 
Q 20.953125 51.171875 25.484375 53.578125 
Q 30.03125 56 36.53125 56 
Q 37.453125 56 38.578125 55.875 
Q 39.703125 55.765625 41.0625 55.515625 
z
" id="DejaVuSans-114"/>
      <path d="M 9.421875 54.6875 
L 18.40625 54.6875 
L 18.40625 0 
L 9.421875 0 
z
M 9.421875 75.984375 
L 18.40625 75.984375 
L 18.40625 64.59375 
L 9.421875 64.59375 
z
" id="DejaVuSans-105"/>
      <path d="M 5.515625 54.6875 
L 48.1875 54.6875 
L 48.1875 46.484375 
L 14.40625 7.171875 
L 48.1875 7.171875 
L 48.1875 0 
L 4.296875 0 
L 4.296875 8.203125 
L 38.09375 47.515625 
L 5.515625 47.515625 
z
" id="DejaVuSans-122"/>
      <path d="M 54.890625 33.015625 
L 54.890625 0 
L 45.90625 0 
L 45.90625 32.71875 
Q 45.90625 40.484375 42.875 44.328125 
Q 39.84375 48.1875 33.796875 48.1875 
Q 26.515625 48.1875 22.3125 43.546875 
Q 18.109375 38.921875 18.109375 30.90625 
L 18.109375 0 
L 9.078125 0 
L 9.078125 54.6875 
L 18.109375 54.6875 
L 18.109375 46.1875 
Q 21.34375 51.125 25.703125 53.5625 
Q 30.078125 56 35.796875 56 
Q 45.21875 56 50.046875 50.171875 
Q 54.890625 44.34375 54.890625 33.015625 
z
" id="DejaVuSans-110"/>
      <path d="M 18.3125 70.21875 
L 18.3125 54.6875 
L 36.8125 54.6875 
L 36.8125 47.703125 
L 18.3125 47.703125 
L 18.3125 18.015625 
Q 18.3125 11.328125 20.140625 9.421875 
Q 21.96875 7.515625 27.59375 7.515625 
L 36.8125 7.515625 
L 36.8125 0 
L 27.59375 0 
Q 17.1875 0 13.234375 3.875 
Q 9.28125 7.765625 9.28125 18.015625 
L 9.28125 47.703125 
L 2.6875 47.703125 
L 2.6875 54.6875 
L 9.28125 54.6875 
L 9.28125 70.21875 
z
" id="DejaVuSans-116"/>
      <path d="M 34.28125 27.484375 
Q 23.390625 27.484375 19.1875 25 
Q 14.984375 22.515625 14.984375 16.5 
Q 14.984375 11.71875 18.140625 8.90625 
Q 21.296875 6.109375 26.703125 6.109375 
Q 34.1875 6.109375 38.703125 11.40625 
Q 43.21875 16.703125 43.21875 25.484375 
L 43.21875 27.484375 
z
M 52.203125 31.203125 
L 52.203125 0 
L 43.21875 0 
L 43.21875 8.296875 
Q 40.140625 3.328125 35.546875 0.953125 
Q 30.953125 -1.421875 24.3125 -1.421875 
Q 15.921875 -1.421875 10.953125 3.296875 
Q 6 8.015625 6 15.921875 
Q 6 25.140625 12.171875 29.828125 
Q 18.359375 34.515625 30.609375 34.515625 
L 43.21875 34.515625 
L 43.21875 35.40625 
Q 43.21875 41.609375 39.140625 45 
Q 35.0625 48.390625 27.6875 48.390625 
Q 23 48.390625 18.546875 47.265625 
Q 14.109375 46.140625 10.015625 43.890625 
L 10.015625 52.203125 
Q 14.9375 54.109375 19.578125 55.046875 
Q 24.21875 56 28.609375 56 
Q 40.484375 56 46.34375 49.84375 
Q 52.203125 43.703125 52.203125 31.203125 
z
" id="DejaVuSans-97"/>
      <path d="M 9.421875 75.984375 
L 18.40625 75.984375 
L 18.40625 0 
L 9.421875 0 
z
" id="DejaVuSans-108"/>
      <path id="DejaVuSans-32"/>
      <path d="M 45.40625 46.390625 
L 45.40625 75.984375 
L 54.390625 75.984375 
L 54.390625 0 
L 45.40625 0 
L 45.40625 8.203125 
Q 42.578125 3.328125 38.25 0.953125 
Q 33.9375 -1.421875 27.875 -1.421875 
Q 17.96875 -1.421875 11.734375 6.484375 
Q 5.515625 14.40625 5.515625 27.296875 
Q 5.515625 40.1875 11.734375 48.09375 
Q 17.96875 56 27.875 56 
Q 33.9375 56 38.25 53.625 
Q 42.578125 51.265625 45.40625 46.390625 
z
M 14.796875 27.296875 
Q 14.796875 17.390625 18.875 11.75 
Q 22.953125 6.109375 30.078125 6.109375 
Q 37.203125 6.109375 41.296875 11.75 
Q 45.40625 17.390625 45.40625 27.296875 
Q 45.40625 37.203125 41.296875 42.84375 
Q 37.203125 48.484375 30.078125 48.484375 
Q 22.953125 48.484375 18.875 42.84375 
Q 14.796875 37.203125 14.796875 27.296875 
z
" id="DejaVuSans-100"/>
      <path d="M 44.28125 53.078125 
L 44.28125 44.578125 
Q 40.484375 46.53125 36.375 47.5 
Q 32.28125 48.484375 27.875 48.484375 
Q 21.1875 48.484375 17.84375 46.4375 
Q 14.5 44.390625 14.5 40.28125 
Q 14.5 37.15625 16.890625 35.375 
Q 19.28125 33.59375 26.515625 31.984375 
L 29.59375 31.296875 
Q 39.15625 29.25 43.1875 25.515625 
Q 47.21875 21.78125 47.21875 15.09375 
Q 47.21875 7.46875 41.1875 3.015625 
Q 35.15625 -1.421875 24.609375 -1.421875 
Q 20.21875 -1.421875 15.453125 -0.5625 
Q 10.6875 0.296875 5.421875 2 
L 5.421875 11.28125 
Q 10.40625 8.6875 15.234375 7.390625 
Q 20.0625 6.109375 24.8125 6.109375 
Q 31.15625 6.109375 34.5625 8.28125 
Q 37.984375 10.453125 37.984375 14.40625 
Q 37.984375 18.0625 35.515625 20.015625 
Q 33.0625 21.96875 24.703125 23.78125 
L 21.578125 24.515625 
Q 13.234375 26.265625 9.515625 29.90625 
Q 5.8125 33.546875 5.8125 39.890625 
Q 5.8125 47.609375 11.28125 51.796875 
Q 16.75 56 26.8125 56 
Q 31.78125 56 36.171875 55.265625 
Q 40.578125 54.546875 44.28125 53.078125 
z
" id="DejaVuSans-115"/>
      <path d="M 18.109375 8.203125 
L 18.109375 -20.796875 
L 9.078125 -20.796875 
L 9.078125 54.6875 
L 18.109375 54.6875 
L 18.109375 46.390625 
Q 20.953125 51.265625 25.265625 53.625 
Q 29.59375 56 35.59375 56 
Q 45.5625 56 51.78125 48.09375 
Q 58.015625 40.1875 58.015625 27.296875 
Q 58.015625 14.40625 51.78125 6.484375 
Q 45.5625 -1.421875 35.59375 -1.421875 
Q 29.59375 -1.421875 25.265625 0.953125 
Q 20.953125 3.328125 18.109375 8.203125 
z
M 48.6875 27.296875 
Q 48.6875 37.203125 44.609375 42.84375 
Q 40.53125 48.484375 33.40625 48.484375 
Q 26.265625 48.484375 22.1875 42.84375 
Q 18.109375 37.203125 18.109375 27.296875 
Q 18.109375 17.390625 22.1875 11.75 
Q 26.265625 6.109375 33.40625 6.109375 
Q 40.53125 6.109375 44.609375 11.75 
Q 48.6875 17.390625 48.6875 27.296875 
z
" id="DejaVuSans-112"/>
      <path d="M 48.78125 52.59375 
L 48.78125 44.1875 
Q 44.96875 46.296875 41.140625 47.34375 
Q 37.3125 48.390625 33.40625 48.390625 
Q 24.65625 48.390625 19.8125 42.84375 
Q 14.984375 37.3125 14.984375 27.296875 
Q 14.984375 17.28125 19.8125 11.734375 
Q 24.65625 6.203125 33.40625 6.203125 
Q 37.3125 6.203125 41.140625 7.25 
Q 44.96875 8.296875 48.78125 10.40625 
L 48.78125 2.09375 
Q 45.015625 0.34375 40.984375 -0.53125 
Q 36.96875 -1.421875 32.421875 -1.421875 
Q 20.0625 -1.421875 12.78125 6.34375 
Q 5.515625 14.109375 5.515625 27.296875 
Q 5.515625 40.671875 12.859375 48.328125 
Q 20.21875 56 33.015625 56 
Q 37.15625 56 41.109375 55.140625 
Q 45.0625 54.296875 48.78125 52.59375 
z
" id="DejaVuSans-99"/>
      <path d="M 56.203125 29.59375 
L 56.203125 25.203125 
L 14.890625 25.203125 
Q 15.484375 15.921875 20.484375 11.0625 
Q 25.484375 6.203125 34.421875 6.203125 
Q 39.59375 6.203125 44.453125 7.46875 
Q 49.3125 8.734375 54.109375 11.28125 
L 54.109375 2.78125 
Q 49.265625 0.734375 44.1875 -0.34375 
Q 39.109375 -1.421875 33.890625 -1.421875 
Q 20.796875 -1.421875 13.15625 6.1875 
Q 5.515625 13.8125 5.515625 26.8125 
Q 5.515625 40.234375 12.765625 48.109375 
Q 20.015625 56 32.328125 56 
Q 43.359375 56 49.78125 48.890625 
Q 56.203125 41.796875 56.203125 29.59375 
z
M 47.21875 32.234375 
Q 47.125 39.59375 43.09375 43.984375 
Q 39.0625 48.390625 32.421875 48.390625 
Q 24.90625 48.390625 20.390625 44.140625 
Q 15.875 39.890625 15.1875 32.171875 
z
" id="DejaVuSans-101"/>
      <path d="M 52 44.1875 
Q 55.375 50.25 60.0625 53.125 
Q 64.75 56 71.09375 56 
Q 79.640625 56 84.28125 50.015625 
Q 88.921875 44.046875 88.921875 33.015625 
L 88.921875 0 
L 79.890625 0 
L 79.890625 32.71875 
Q 79.890625 40.578125 77.09375 44.375 
Q 74.3125 48.1875 68.609375 48.1875 
Q 61.625 48.1875 57.5625 43.546875 
Q 53.515625 38.921875 53.515625 30.90625 
L 53.515625 0 
L 44.484375 0 
L 44.484375 32.71875 
Q 44.484375 40.625 41.703125 44.40625 
Q 38.921875 48.1875 33.109375 48.1875 
Q 26.21875 48.1875 22.15625 43.53125 
Q 18.109375 38.875 18.109375 30.90625 
L 18.109375 0 
L 9.078125 0 
L 9.078125 54.6875 
L 18.109375 54.6875 
L 18.109375 46.1875 
Q 21.1875 51.21875 25.484375 53.609375 
Q 29.78125 56 35.6875 56 
Q 41.65625 56 45.828125 52.96875 
Q 50 49.953125 52 44.1875 
z
" id="DejaVuSans-109"/>
      <path d="M 11.71875 12.40625 
L 22.015625 12.40625 
L 22.015625 4 
L 14.015625 -11.625 
L 7.71875 -11.625 
L 11.71875 4 
z
" id="DejaVuSans-44"/>
      <path d="M 60.015625 54.6875 
L 34.90625 27.875 
L 50.296875 0 
L 39.984375 0 
L 28.421875 21.6875 
L 8.296875 0 
L -2.59375 0 
L 24.3125 28.8125 
L 10.015625 54.6875 
L 20.3125 54.6875 
L 30.8125 34.90625 
L 49.125 54.6875 
z
" id="DejaVuSans-Oblique-120"/>
     </defs>
     <g transform="translate(203.3125 486.478125)scale(0.1 -0.1)">
      <use transform="translate(0 0.015625)" xlink:href="#DejaVuSans-72"/>
      <use transform="translate(75.195312 0.015625)" xlink:href="#DejaVuSans-111"/>
      <use transform="translate(136.376953 0.015625)" xlink:href="#DejaVuSans-114"/>
      <use transform="translate(177.490234 0.015625)" xlink:href="#DejaVuSans-105"/>
      <use transform="translate(205.273438 0.015625)" xlink:href="#DejaVuSans-122"/>
      <use transform="translate(257.763672 0.015625)" xlink:href="#DejaVuSans-111"/>
      <use transform="translate(318.945312 0.015625)" xlink:href="#DejaVuSans-110"/>
      <use transform="translate(382.324219 0.015625)" xlink:href="#DejaVuSans-116"/>
      <use transform="translate(421.533203 0.015625)" xlink:href="#DejaVuSans-97"/>
      <use transform="translate(482.8125 0.015625)" xlink:href="#DejaVuSans-108"/>
      <use transform="translate(510.595703 0.015625)" xlink:href="#DejaVuSans-32"/>
      <use transform="translate(542.382812 0.015625)" xlink:href="#DejaVuSans-100"/>
      <use transform="translate(605.859375 0.015625)" xlink:href="#DejaVuSans-105"/>
      <use transform="translate(633.642578 0.015625)" xlink:href="#DejaVuSans-115"/>
      <use transform="translate(685.742188 0.015625)" xlink:href="#DejaVuSans-112"/>
      <use transform="translate(749.21875 0.015625)" xlink:href="#DejaVuSans-108"/>
      <use transform="translate(777.001953 0.015625)" xlink:href="#DejaVuSans-97"/>
      <use transform="translate(838.28125 0.015625)" xlink:href="#DejaVuSans-99"/>
      <use transform="translate(893.261719 0.015625)" xlink:href="#DejaVuSans-101"/>
      <use transform="translate(954.785156 0.015625)" xlink:href="#DejaVuSans-109"/>
      <use transform="translate(1052.197266 0.015625)" xlink:href="#DejaVuSans-101"/>
      <use transform="translate(1113.720703 0.015625)" xlink:href="#DejaVuSans-110"/>
      <use transform="translate(1177.099609 0.015625)" xlink:href="#DejaVuSans-116"/>
      <use transform="translate(1216.308594 0.015625)" xlink:href="#DejaVuSans-44"/>
      <use transform="translate(1248.095703 0.015625)" xlink:href="#DejaVuSans-32"/>
      <use transform="translate(1279.882812 0.015625)" xlink:href="#DejaVuSans-Oblique-120"/>
     </g>
    </g>
   </g>
   <g id="matplotlib.axis_2">
    <g id="ytick_1">
     <g id="line2d_10">
      <defs>
       <path d="M 0 0 
L -3.5 0 
" id="mee52b70034" style="stroke:#000000;stroke-width:0.8;"/>
      </defs>
      <g>
       <use style="stroke:#000000;stroke-width:0.8;" x="50.55" xlink:href="#mee52b70034" y="458.2"/>
      </g>
     </g>
     <g id="text_11">
      <!-- −4 -->
      <g transform="translate(28.807813 461.999219)scale(0.1 -0.1)">
       <use xlink:href="#DejaVuSans-8722"/>
       <use x="83.789062" xlink:href="#DejaVuSans-52"/>
      </g>
     </g>
    </g>
    <g id="ytick_2">
     <g id="line2d_11">
      <g>
       <use style="stroke:#000000;stroke-width:0.8;" x="50.55" xlink:href="#mee52b70034" y="402.775"/>
      </g>
     </g>
     <g id="text_12">
      <!-- −3 -->
      <g transform="translate(28.807813 406.574219)scale(0.1 -0.1)">
       <use xlink:href="#DejaVuSans-8722"/>
       <use x="83.789062" xlink:href="#DejaVuSans-51"/>
      </g>
     </g>
    </g>
    <g id="ytick_3">
     <g id="line2d_12">
      <g>
       <use style="stroke:#000000;stroke-width:0.8;" x="50.55" xlink:href="#mee52b70034" y="347.35"/>
      </g>
     </g>
     <g id="text_13">
      <!-- −2 -->
      <g transform="translate(28.807813 351.149219)scale(0.1 -0.1)">
       <use xlink:href="#DejaVuSans-8722"/>
       <use x="83.789062" xlink:href="#DejaVuSans-50"/>
      </g>
     </g>
    </g>
    <g id="ytick_4">
     <g id="line2d_13">
      <g>
       <use style="stroke:#000000;stroke-width:0.8;" x="50.55" xlink:href="#mee52b70034" y="291.925"/>
      </g>
     </g>
     <g id="text_14">
      <!-- −1 -->
      <g transform="translate(28.807813 295.724219)scale(0.1 -0.1)">
       <use xlink:href="#DejaVuSans-8722"/>
       <use x="83.789062" xlink:href="#DejaVuSans-49"/>
      </g>
     </g>
    </g>
    <g id="ytick_5">
     <g id="line2d_14">
      <g>
       <use style="stroke:#000000;stroke-width:0.8;" x="50.55" xlink:href="#mee52b70034" y="236.5"/>
      </g>
     </g>
     <g id="text_15">
      <!-- 0 -->
      <g transform="translate(37.1875 240.299219)scale(0.1 -0.1)">
       <use xlink:href="#DejaVuSans-48"/>
      </g>
     </g>
    </g>
    <g id="ytick_6">
     <g id="line2d_15">
      <g>
       <use style="stroke:#000000;stroke-width:0.8;" x="50.55" xlink:href="#mee52b70034" y="181.075"/>
      </g>
     </g>
     <g id="text_16">
      <!-- 1 -->
      <g transform="translate(37.1875 184.874219)scale(0.1 -0.1)">
       <use xlink:href="#DejaVuSans-49"/>
      </g>
     </g>
    </g>
    <g id="ytick_7">
     <g id="line2d_16">
      <g>
       <use style="stroke:#000000;stroke-width:0.8;" x="50.55" xlink:href="#mee52b70034" y="125.65"/>
      </g>
     </g>
     <g id="text_17">
      <!-- 2 -->
      <g transform="translate(37.1875 129.449219)scale(0.1 -0.1)">
       <use xlink:href="#DejaVuSans-50"/>
      </g>
     </g>
    </g>
    <g id="ytick_8">
     <g id="line2d_17">
      <g>
       <use style="stroke:#000000;stroke-width:0.8;" x="50.55" xlink:href="#mee52b70034" y="70.225"/>
      </g>
     </g>
     <g id="text_18">
      <!-- 3 -->
      <g transform="translate(37.1875 74.024219)scale(0.1 -0.1)">
       <use xlink:href="#DejaVuSans-51"/>
      </g>
     </g>
    </g>
    <g id="ytick_9">
     <g id="line2d_18">
      <g>
       <use style="stroke:#000000;stroke-width:0.8;" x="50.55" xlink:href="#mee52b70034" y="14.8"/>
      </g>
     </g>
     <g id="text_19">
      <!-- 4 -->
      <g transform="translate(37.1875 18.599219)scale(0.1 -0.1)">
       <use xlink:href="#DejaVuSans-52"/>
      </g>
     </g>
    </g>
    <g id="text_20">
     <!-- Vertical displacement, $y$ -->
     <defs>
      <path d="M 28.609375 0 
L 0.78125 72.90625 
L 11.078125 72.90625 
L 34.1875 11.53125 
L 57.328125 72.90625 
L 67.578125 72.90625 
L 39.796875 0 
z
" id="DejaVuSans-86"/>
      <path d="M 24.8125 -5.078125 
Q 18.5625 -15.578125 14.625 -18.1875 
Q 10.6875 -20.796875 4.59375 -20.796875 
L -2.484375 -20.796875 
L -0.984375 -13.28125 
L 4.203125 -13.28125 
Q 7.953125 -13.28125 10.59375 -11.234375 
Q 13.234375 -9.1875 16.5 -3.21875 
L 19.28125 2 
L 7.171875 54.6875 
L 16.703125 54.6875 
L 25.78125 12.796875 
L 50.875 54.6875 
L 60.296875 54.6875 
z
" id="DejaVuSans-Oblique-121"/>
     </defs>
     <g transform="translate(22.707813 297.05)rotate(-90)scale(0.1 -0.1)">
      <use transform="translate(0 0.015625)" xlink:href="#DejaVuSans-86"/>
      <use transform="translate(68.408203 0.015625)" xlink:href="#DejaVuSans-101"/>
      <use transform="translate(129.931641 0.015625)" xlink:href="#DejaVuSans-114"/>
      <use transform="translate(171.044922 0.015625)" xlink:href="#DejaVuSans-116"/>
      <use transform="translate(210.253906 0.015625)" xlink:href="#DejaVuSans-105"/>
      <use transform="translate(238.037109 0.015625)" xlink:href="#DejaVuSans-99"/>
      <use transform="translate(293.017578 0.015625)" xlink:href="#DejaVuSans-97"/>
      <use transform="translate(354.296875 0.015625)" xlink:href="#DejaVuSans-108"/>
      <use transform="translate(382.080078 0.015625)" xlink:href="#DejaVuSans-32"/>
      <use transform="translate(413.867188 0.015625)" xlink:href="#DejaVuSans-100"/>
      <use transform="translate(477.34375 0.015625)" xlink:href="#DejaVuSans-105"/>
      <use transform="translate(505.126953 0.015625)" xlink:href="#DejaVuSans-115"/>
      <use transform="translate(557.226562 0.015625)" xlink:href="#DejaVuSans-112"/>
      <use transform="translate(620.703125 0.015625)" xlink:href="#DejaVuSans-108"/>
      <use transform="translate(648.486328 0.015625)" xlink:href="#DejaVuSans-97"/>
      <use transform="translate(709.765625 0.015625)" xlink:href="#DejaVuSans-99"/>
      <use transform="translate(764.746094 0.015625)" xlink:href="#DejaVuSans-101"/>
      <use transform="translate(826.269531 0.015625)" xlink:href="#DejaVuSans-109"/>
      <use transform="translate(923.681641 0.015625)" xlink:href="#DejaVuSans-101"/>
      <use transform="translate(985.205078 0.015625)" xlink:href="#DejaVuSans-110"/>
      <use transform="translate(1048.583984 0.015625)" xlink:href="#DejaVuSans-116"/>
      <use transform="translate(1087.792969 0.015625)" xlink:href="#DejaVuSans-44"/>
      <use transform="translate(1119.580078 0.015625)" xlink:href="#DejaVuSans-32"/>
      <use transform="translate(1151.367188 0.015625)" xlink:href="#DejaVuSans-Oblique-121"/>
     </g>
    </g>
   </g>
   <g id="line2d_19">
    <path clip-path="url(#p6affa48517)" d="M 270.3125 458.2 
L 270.3125 14.8 
" style="fill:none;stroke:#000000;stroke-linecap:square;stroke-width:0.5;"/>
   </g>
   <g id="line2d_20">
    <path clip-path="url(#p6affa48517)" d="M 50.55 236.5 
L 490.075 236.5 
" style="fill:none;stroke:#000000;stroke-linecap:square;stroke-width:0.5;"/>
   </g>
   <g id="line2d_21">
    <path clip-path="url(#p6affa48517)" d="M 435.134375 236.5 
L 435.053045 231.277176 
L 434.809137 226.059506 
L 434.40289 220.85214 
L 433.834705 215.660217 
L 433.105144 210.488859 
L 432.214926 205.343172 
L 431.164931 200.228233 
L 429.956193 195.149089 
L 428.589906 190.110754 
L 427.067418 185.118199 
L 425.390232 180.176352 
L 423.560004 175.29009 
L 421.578538 170.464234 
L 419.447791 165.703548 
L 417.169866 161.01273 
L 414.74701 156.396408 
L 412.181615 151.859139 
L 409.476212 147.4054 
L 406.633471 143.039586 
L 403.656198 138.766007 
L 400.547331 134.58888 
L 397.309937 130.512326 
L 393.947213 126.54037 
L 390.462476 122.67693 
L 386.859166 118.92582 
L 383.140838 115.290741 
L 379.311162 111.775282 
L 375.373917 108.382911 
L 371.33299 105.116975 
L 367.192367 101.980699 
L 362.956136 98.977178 
L 358.628477 96.109374 
L 354.213661 93.380119 
L 349.716044 90.792107 
L 345.140065 88.34789 
L 340.490241 86.049882 
L 335.77116 83.90035 
L 330.987479 81.901415 
L 326.143919 80.05505 
L 321.24526 78.363078 
L 316.296337 76.827167 
L 311.302033 75.448835 
L 306.267278 74.22944 
L 301.19704 73.170187 
L 296.096322 72.272121 
L 290.970159 71.536128 
L 285.823609 70.962934 
L 280.661751 70.553106 
L 275.48968 70.307047 
L 270.3125 70.225 
L 265.13532 70.307047 
L 259.963249 70.553106 
L 254.801391 70.962934 
L 249.654841 71.536128 
L 244.528678 72.272121 
L 239.42796 73.170187 
L 234.357722 74.22944 
L 229.322967 75.448835 
L 224.328663 76.827167 
L 219.37974 78.363078 
L 214.481081 80.05505 
L 209.637521 81.901415 
L 204.85384 83.90035 
L 200.134759 86.049882 
L 195.484935 88.34789 
L 190.908956 90.792107 
L 186.411339 93.380119 
L 181.996523 96.109374 
L 177.668864 98.977178 
L 173.432633 101.980699 
L 169.29201 105.116975 
L 165.251083 108.382911 
L 161.313838 111.775282 
L 157.484162 115.290741 
L 153.765834 118.92582 
L 150.162524 122.67693 
L 146.677787 126.54037 
L 143.315063 130.512326 
L 140.077669 134.58888 
L 136.968802 138.766007 
L 133.991529 143.039586 
L 131.148788 147.4054 
L 128.443385 151.859139 
L 125.87799 156.396408 
L 123.455134 161.01273 
L 121.177209 165.703548 
L 119.046462 170.464234 
L 117.064996 175.29009 
L 115.234768 180.176352 
L 113.557582 185.118199 
L 112.035094 190.110754 
L 110.668807 195.149089 
L 109.460069 200.228233 
L 108.410074 205.343172 
L 107.519856 210.488859 
L 106.790295 215.660217 
L 106.22211 220.85214 
L 105.815863 226.059506 
L 105.571955 231.277176 
L 105.490625 236.5 
L 105.571955 241.722824 
L 105.815863 246.940494 
L 106.22211 252.14786 
L 106.790295 257.339783 
L 107.519856 262.511141 
L 108.410074 267.656828 
L 109.460069 272.771767 
L 110.668807 277.850911 
L 112.035094 282.889246 
L 113.557582 287.881801 
L 115.234768 292.823648 
L 117.064996 297.70991 
L 119.046462 302.535766 
L 121.177209 307.296452 
L 123.455134 311.98727 
L 125.87799 316.603592 
L 128.443385 321.140861 
L 131.148788 325.5946 
L 133.991529 329.960414 
L 136.968802 334.233993 
L 140.077669 338.41112 
L 143.315063 342.487674 
L 146.677787 346.45963 
L 150.162524 350.32307 
L 153.765834 354.07418 
L 157.484162 357.709259 
L 161.313838 361.224718 
L 165.251083 364.617089 
L 169.29201 367.883025 
L 173.432633 371.019301 
L 177.668864 374.022822 
L 181.996523 376.890626 
L 186.411339 379.619881 
L 190.908956 382.207893 
L 195.484935 384.65211 
L 200.134759 386.950118 
L 204.85384 389.09965 
L 209.637521 391.098585 
L 214.481081 392.94495 
L 219.37974 394.636922 
L 224.328663 396.172833 
L 229.322967 397.551165 
L 234.357722 398.77056 
L 239.42796 399.829813 
L 244.528678 400.727879 
L 249.654841 401.463872 
L 254.801391 402.037066 
L 259.963249 402.446894 
L 265.13532 402.692953 
L 270.3125 402.775 
L 275.48968 402.692953 
L 280.661751 402.446894 
L 285.823609 402.037066 
L 290.970159 401.463872 
L 296.096322 400.727879 
L 301.19704 399.829813 
L 306.267278 398.77056 
L 311.302033 397.551165 
L 316.296337 396.172833 
L 321.24526 394.636922 
L 326.143919 392.94495 
L 330.987479 391.098585 
L 335.77116 389.09965 
L 340.490241 386.950118 
L 345.140065 384.65211 
L 349.716044 382.207893 
L 354.213661 379.619881 
L 358.628477 376.890626 
L 362.956136 374.022822 
L 367.192367 371.019301 
L 371.33299 367.883025 
L 375.373917 364.617089 
L 379.311162 361.224718 
L 383.140838 357.709259 
L 386.859166 354.07418 
L 390.462476 350.32307 
L 393.947213 346.45963 
L 397.309937 342.487674 
L 400.547331 338.41112 
L 403.656198 334.233993 
L 406.633471 329.960414 
L 409.476212 325.5946 
L 412.181615 321.140861 
L 414.74701 316.603592 
L 417.169866 311.98727 
L 419.447791 307.296452 
L 421.578538 302.535766 
L 423.560004 297.70991 
L 425.390232 292.823648 
L 427.067418 287.881801 
L 428.589906 282.889246 
L 429.956193 277.850911 
L 431.164931 272.771767 
L 432.214926 267.656828 
L 433.105144 262.511141 
L 433.834705 257.339783 
L 434.40289 252.14786 
L 434.809137 246.940494 
L 435.053045 241.722824 
L 435.134375 236.5 
L 435.134375 236.5 
" style="fill:none;stroke:#0000ff;stroke-linecap:square;stroke-width:1.5;"/>
   </g>
   <g id="line2d_22">
    <defs>
     <path d="M 0 10 
C 2.652031 10 5.195799 8.946337 7.071068 7.071068 
C 8.946337 5.195799 10 2.652031 10 0 
C 10 -2.652031 8.946337 -5.195799 7.071068 -7.071068 
C 5.195799 -8.946337 2.652031 -10 0 -10 
C -2.652031 -10 -5.195799 -8.946337 -7.071068 -7.071068 
C -8.946337 -5.195799 -10 -2.652031 -10 0 
C -10 2.652031 -8.946337 5.195799 -7.071068 7.071068 
C -5.195799 8.946337 -2.652031 10 0 10 
z
" id="m68a95e3c0d" style="stroke:#ff0000;"/>
    </defs>
    <g clip-path="url(#p6affa48517)">
     <use style="fill:#ff0000;stroke:#ff0000;" x="345.140065" xlink:href="#m68a95e3c0d" y="88.34789"/>
    </g>
   </g>
   <g id="patch_3">
    <path d="M 50.55 458.2 
L 50.55 14.8 
" style="fill:none;stroke:#000000;stroke-linecap:square;stroke-linejoin:miter;stroke-width:0.8;"/>
   </g>
   <g id="patch_4">
    <path d="M 490.075 458.2 
L 490.075 14.8 
" style="fill:none;stroke:#000000;stroke-linecap:square;stroke-linejoin:miter;stroke-width:0.8;"/>
   </g>
   <g id="patch_5">
    <path d="M 50.55 458.2 
L 490.075 458.2 
" style="fill:none;stroke:#000000;stroke-linecap:square;stroke-linejoin:miter;stroke-width:0.8;"/>
   </g>
   <g id="patch_6">
    <path d="M 50.55 14.8 
L 490.075 14.8 
" style="fill:none;stroke:#000000;stroke-linecap:square;stroke-linejoin:miter;stroke-width:0.8;"/>
   </g>
   <g id="patch_7">
    <path d="M 294.064779 62.094294 
Q 318.216968 74.508944 343.363519 87.434714 
" style="fill:none;stroke:#000000;stroke-linecap:round;"/>
    <path d="M 299.35122 69.309109 
L 294.064779 62.094294 
L 303.008495 62.194031 
" style="fill:none;stroke:#000000;stroke-linecap:round;"/>
   </g>
   <g id="text_21">
    <!-- v -->
    <defs>
     <path d="M 2.984375 54.6875 
L 12.5 54.6875 
L 29.59375 8.796875 
L 46.6875 54.6875 
L 56.203125 54.6875 
L 35.6875 0 
L 23.484375 0 
z
" id="DejaVuSans-118"/>
    </defs>
    <g transform="translate(281.501873 55.63674)scale(0.2 -0.2)">
     <use xlink:href="#DejaVuSans-118"/>
    </g>
   </g>
   <g id="patch_8">
    <path d="M 344.239203 90.131521 
Q 307.7265 162.423515 271.213798 234.715509 
" style="fill:none;stroke:#000000;stroke-linecap:round;"/>
   </g>
   <g id="text_22">
    <g id="patch_9">
     <path d="M 303.726283 170.58332 
L 325.407533 170.58332 
L 325.407533 143.22707 
L 303.726283 143.22707 
z
" style="fill:#ffffff;opacity:0.9;stroke:#808080;stroke-linejoin:miter;"/>
    </g>
    <!-- A -->
    <defs>
     <path d="M 34.1875 63.1875 
L 20.796875 26.90625 
L 47.609375 26.90625 
z
M 28.609375 72.90625 
L 39.796875 72.90625 
L 67.578125 0 
L 57.328125 0 
L 50.6875 18.703125 
L 17.828125 18.703125 
L 11.1875 0 
L 0.78125 0 
z
" id="DejaVuSans-65"/>
    </defs>
    <g transform="translate(307.726283 162.423945)scale(0.2 -0.2)">
     <use xlink:href="#DejaVuSans-65"/>
    </g>
   </g>
   <g id="text_23">
    <!-- $θ$ -->
    <defs>
     <path d="M 45.515625 34.671875 
L 14.453125 34.671875 
Q 12.359375 20.0625 14.5 13.875 
Q 17.1875 6.25 24.46875 6.25 
Q 31.78125 6.25 37.359375 13.921875 
Q 42.234375 20.65625 45.515625 34.671875 
z
M 47.015625 42.96875 
Q 48.34375 56.84375 46.625 61.71875 
Q 43.953125 69.4375 36.765625 69.4375 
Q 29.296875 69.4375 23.828125 61.8125 
Q 19.53125 55.671875 16.15625 42.96875 
z
M 38.1875 76.765625 
Q 49.90625 76.765625 54.59375 66.40625 
Q 59.28125 56.109375 55.71875 37.84375 
Q 52.203125 19.625 43.453125 9.28125 
Q 34.765625 -1.125 23.046875 -1.125 
Q 11.28125 -1.125 6.640625 9.28125 
Q 2 19.625 5.515625 37.84375 
Q 9.078125 56.109375 17.71875 66.40625 
Q 26.421875 76.765625 38.1875 76.765625 
z
" id="DejaVuSans-Oblique-952"/>
    </defs>
    <g transform="translate(284.499411 228.035914)scale(0.2 -0.2)">
     <use transform="translate(0 0.234375)" xlink:href="#DejaVuSans-Oblique-952"/>
    </g>
   </g>
  </g>
 </g>
 <defs>
  <clipPath id="p6affa48517">
   <rect height="443.4" width="439.525" x="50.55" y="14.8"/>
  </clipPath>
 </defs>
</svg>
