<?xml version="1.0" encoding="utf-8" standalone="no"?>
<!DOCTYPE svg PUBLIC "-//W3C//DTD SVG 1.1//EN"
  "http://www.w3.org/Graphics/SVG/1.1/DTD/svg11.dtd">
<!-- Created with matplotlib (https://matplotlib.org/) -->
<svg height="504pt" version="1.1" viewBox="0 0 648 504" width="648pt" xmlns="http://www.w3.org/2000/svg" xmlns:xlink="http://www.w3.org/1999/xlink">
 <defs>
  <style type="text/css">
*{stroke-linecap:butt;stroke-linejoin:round;}
  </style>
 </defs>
 <g id="figure_1">
  <g id="patch_1">
   <path d="M 0 504 
L 648 504 
L 648 0 
L 0 0 
z
" style="fill:none;"/>
  </g>
  <g id="axes_1">
   <g id="patch_2">
    <path d="M 10.8 164.4 
L 637.2 164.4 
L 637.2 10.8 
L 10.8 10.8 
z
" style="fill:none;"/>
   </g>
   <g id="patch_3">
    <path clip-path="url(#p18dbd6ffe7)" d="M 110.454545 157.516193 
L 110.386572 157.453341 
L 110.431888 157.453341 
L 110.431888 17.781818 
L 110.477203 17.781818 
L 110.477203 157.453341 
L 110.522519 157.453341 
z
" style="fill:#ff0000;stroke:#ff0000;stroke-dasharray:3.7,1.6;stroke-dashoffset:0;stroke-linejoin:miter;"/>
   </g>
   <g id="patch_4">
    <path clip-path="url(#p18dbd6ffe7)" d="M 181.636364 157.516193 
L 181.56839 157.453341 
L 181.613706 157.453341 
L 181.613706 17.781818 
L 181.659022 17.781818 
L 181.659022 157.453341 
L 181.704337 157.453341 
z
" style="fill:#ff0000;stroke:#ff0000;stroke-dasharray:3.7,1.6;stroke-dashoffset:0;stroke-linejoin:miter;"/>
   </g>
   <g id="patch_5">
    <path clip-path="url(#p18dbd6ffe7)" d="M 252.818182 157.516193 
L 252.750208 157.453341 
L 252.795524 157.453341 
L 252.795524 17.781818 
L 252.84084 17.781818 
L 252.84084 157.453341 
L 252.886155 157.453341 
z
" style="fill:#ff0000;stroke:#ff0000;stroke-dasharray:3.7,1.6;stroke-dashoffset:0;stroke-linejoin:miter;"/>
   </g>
   <g id="patch_6">
    <path clip-path="url(#p18dbd6ffe7)" d="M 324 157.516193 
L 323.932026 157.453341 
L 323.977342 157.453341 
L 323.977342 17.781818 
L 324.022658 17.781818 
L 324.022658 157.453341 
L 324.067974 157.453341 
z
" style="fill:#ff0000;stroke:#ff0000;stroke-dasharray:3.7,1.6;stroke-dashoffset:0;stroke-linejoin:miter;"/>
   </g>
   <g id="matplotlib.axis_1">
    <g id="xtick_1">
     <g id="line2d_1">
      <defs>
       <path d="M 0 0 
L 0 3.5 
" id="m38183dab59" style="stroke:#000000;stroke-width:0.8;"/>
      </defs>
      <g>
       <use style="stroke:#000000;stroke-width:0.8;" x="39.272727" xlink:href="#m38183dab59" y="87.61758"/>
      </g>
     </g>
    </g>
    <g id="xtick_2">
     <g id="line2d_2">
      <g>
       <use style="stroke:#000000;stroke-width:0.8;" x="129.904233" xlink:href="#m38183dab59" y="87.61758"/>
      </g>
     </g>
    </g>
    <g id="xtick_3">
     <g id="line2d_3">
      <g>
       <use style="stroke:#000000;stroke-width:0.8;" x="220.535739" xlink:href="#m38183dab59" y="87.61758"/>
      </g>
     </g>
    </g>
    <g id="xtick_4">
     <g id="line2d_4">
      <g>
       <use style="stroke:#000000;stroke-width:0.8;" x="311.167245" xlink:href="#m38183dab59" y="87.61758"/>
      </g>
     </g>
    </g>
    <g id="xtick_5">
     <g id="line2d_5">
      <g>
       <use style="stroke:#000000;stroke-width:0.8;" x="401.79875" xlink:href="#m38183dab59" y="87.61758"/>
      </g>
     </g>
    </g>
    <g id="xtick_6">
     <g id="line2d_6">
      <g>
       <use style="stroke:#000000;stroke-width:0.8;" x="492.430256" xlink:href="#m38183dab59" y="87.61758"/>
      </g>
     </g>
    </g>
    <g id="xtick_7">
     <g id="line2d_7">
      <g>
       <use style="stroke:#000000;stroke-width:0.8;" x="583.061762" xlink:href="#m38183dab59" y="87.61758"/>
      </g>
     </g>
    </g>
   </g>
   <g id="matplotlib.axis_2">
    <g id="ytick_1">
     <g id="line2d_8">
      <defs>
       <path d="M 0 0 
L -3.5 0 
" id="m4d91aa2f1c" style="stroke:#000000;stroke-width:0.8;"/>
      </defs>
      <g>
       <use style="stroke:#000000;stroke-width:0.8;" x="39.272727" xlink:href="#m4d91aa2f1c" y="143.486189"/>
      </g>
     </g>
    </g>
    <g id="ytick_2">
     <g id="line2d_9">
      <g>
       <use style="stroke:#000000;stroke-width:0.8;" x="39.272727" xlink:href="#m4d91aa2f1c" y="115.551884"/>
      </g>
     </g>
    </g>
    <g id="ytick_3">
     <g id="line2d_10">
      <g>
       <use style="stroke:#000000;stroke-width:0.8;" x="39.272727" xlink:href="#m4d91aa2f1c" y="87.61758"/>
      </g>
     </g>
    </g>
    <g id="ytick_4">
     <g id="line2d_11">
      <g>
       <use style="stroke:#000000;stroke-width:0.8;" x="39.272727" xlink:href="#m4d91aa2f1c" y="59.683275"/>
      </g>
     </g>
    </g>
    <g id="ytick_5">
     <g id="line2d_12">
      <g>
       <use style="stroke:#000000;stroke-width:0.8;" x="39.272727" xlink:href="#m4d91aa2f1c" y="31.74897"/>
      </g>
     </g>
    </g>
   </g>
   <g id="line2d_13">
    <path clip-path="url(#p18dbd6ffe7)" d="M 39.272727 17.781818 
L 45.024793 18.34366 
L 50.77686 20.020145 
L 56.528926 22.784298 
L 62.280992 26.591643 
L 68.033058 31.380918 
L 73.785124 37.075062 
L 79.53719 43.582454 
L 85.289256 50.798388 
L 91.041322 58.606756 
L 96.793388 66.881919 
L 102.545455 75.490727 
L 108.297521 84.29466 
L 114.049587 93.152061 
L 119.801653 101.920409 
L 125.553719 110.45862 
L 131.305785 118.62931 
L 137.057851 126.301009 
L 142.809917 133.350278 
L 148.561983 139.66369 
L 154.31405 145.139661 
L 160.066116 149.69008 
L 165.818182 153.241729 
L 171.570248 155.737462 
L 177.322314 157.137119 
L 183.07438 157.418182 
L 188.826446 156.576126 
L 194.578512 154.624502 
L 200.330579 151.594711 
L 206.082645 147.535505 
L 211.834711 142.512196 
L 217.586777 136.605613 
L 223.338843 129.910793 
L 229.090909 122.53546 
L 234.842975 114.598286 
L 240.595041 106.226981 
L 246.347107 97.556245 
L 252.099174 88.725591 
L 257.85124 79.87711 
L 263.603306 71.153175 
L 269.355372 62.694159 
L 275.107438 54.63617 
L 280.859504 47.108864 
L 286.61157 40.233358 
L 292.363636 34.120283 
L 298.115702 28.867999 
L 303.867769 24.561017 
L 309.619835 21.26864 
L 315.371901 19.043841 
L 321.123967 17.92242 
L 326.876033 17.92242 
L 332.628099 19.043841 
L 338.380165 21.26864 
L 344.132231 24.561017 
L 349.884298 28.867999 
L 355.636364 34.120283 
L 361.38843 40.233358 
L 367.140496 47.108864 
L 372.892562 54.63617 
L 378.644628 62.694159 
L 384.396694 71.153175 
L 390.14876 79.87711 
L 395.900826 88.725591 
L 401.652893 97.556245 
L 407.404959 106.226981 
L 413.157025 114.598286 
L 418.909091 122.53546 
L 424.661157 129.910793 
L 430.413223 136.605613 
L 436.165289 142.512196 
L 441.917355 147.535505 
L 447.669421 151.594711 
L 453.421488 154.624502 
L 459.173554 156.576126 
L 464.92562 157.418182 
L 470.677686 157.137119 
L 476.429752 155.737462 
L 482.181818 153.241729 
L 487.933884 149.69008 
L 493.68595 145.139661 
L 499.438017 139.66369 
L 505.190083 133.350278 
L 510.942149 126.301009 
L 516.694215 118.62931 
L 522.446281 110.45862 
L 528.198347 101.920409 
L 533.950413 93.152061 
L 539.702479 84.29466 
L 545.454545 75.490727 
L 551.206612 66.881919 
L 556.958678 58.606756 
L 562.710744 50.798388 
L 568.46281 43.582454 
L 574.214876 37.075062 
L 579.966942 31.380918 
L 585.719008 26.591643 
L 591.471074 22.784298 
L 597.22314 20.020145 
L 602.975207 18.34366 
L 608.727273 17.781818 
" style="fill:none;stroke:#000000;stroke-linecap:square;stroke-width:1.5;"/>
   </g>
   <g id="patch_7">
    <path d="M 39.272727 164.4 
L 39.272727 10.8 
" style="fill:none;stroke:#000000;stroke-linecap:square;stroke-linejoin:miter;stroke-width:0.8;"/>
   </g>
   <g id="patch_8">
    <path d="M 637.2 164.4 
L 637.2 10.8 
" style="fill:none;"/>
   </g>
   <g id="patch_9">
    <path d="M 10.8 87.61758 
L 637.2 87.61758 
" style="fill:none;stroke:#000000;stroke-linecap:square;stroke-linejoin:miter;stroke-width:0.8;"/>
   </g>
   <g id="patch_10">
    <path d="M 10.8 10.8 
L 637.2 10.8 
" style="fill:none;"/>
   </g>
   <g id="text_1">
    <!-- $x$ -->
    <defs>
     <path d="M 60.015625 54.6875 
L 34.90625 27.875 
L 50.296875 0 
L 39.984375 0 
L 28.421875 21.6875 
L 8.296875 0 
L -2.59375 0 
L 24.3125 28.8125 
L 10.015625 54.6875 
L 20.3125 54.6875 
L 30.8125 34.90625 
L 49.125 54.6875 
z
" id="DejaVuSans-Oblique-120"/>
    </defs>
    <g transform="translate(21.178001 35.613015)scale(0.15 -0.15)">
     <use transform="translate(0 0.3125)" xlink:href="#DejaVuSans-Oblique-120"/>
    </g>
   </g>
   <g id="text_2">
    <!-- $t$ -->
    <defs>
     <path d="M 42.28125 54.6875 
L 40.921875 47.703125 
L 23 47.703125 
L 17.1875 18.015625 
Q 16.890625 16.359375 16.75 15.234375 
Q 16.609375 14.109375 16.609375 13.484375 
Q 16.609375 10.359375 18.484375 8.9375 
Q 20.359375 7.515625 24.515625 7.515625 
L 33.59375 7.515625 
L 32.078125 0 
L 23.484375 0 
Q 15.484375 0 11.546875 3.125 
Q 7.625 6.25 7.625 12.59375 
Q 7.625 13.71875 7.765625 15.0625 
Q 7.90625 16.40625 8.203125 18.015625 
L 14.015625 47.703125 
L 6.390625 47.703125 
L 7.8125 54.6875 
L 15.28125 54.6875 
L 18.3125 70.21875 
L 27.296875 70.21875 
L 24.3125 54.6875 
z
" id="DejaVuSans-Oblique-116"/>
    </defs>
    <g transform="translate(606.727273 106.488621)scale(0.1 -0.1)">
     <use transform="translate(0 0.78125)" xlink:href="#DejaVuSans-Oblique-116"/>
    </g>
   </g>
  </g>
  <g id="axes_2">
   <g id="patch_11">
    <path d="M 10.8 328.8 
L 637.2 328.8 
L 637.2 175.2 
L 10.8 175.2 
z
" style="fill:none;"/>
   </g>
   <g id="patch_12">
    <path clip-path="url(#p6d7f782a5f)" d="M 110.454545 321.916193 
L 110.386572 321.853341 
L 110.431888 321.853341 
L 110.431888 182.181818 
L 110.477203 182.181818 
L 110.477203 321.853341 
L 110.522519 321.853341 
z
" style="fill:#ff0000;stroke:#ff0000;stroke-dasharray:3.7,1.6;stroke-dashoffset:0;stroke-linejoin:miter;"/>
   </g>
   <g id="patch_13">
    <path clip-path="url(#p6d7f782a5f)" d="M 181.636364 321.916193 
L 181.56839 321.853341 
L 181.613706 321.853341 
L 181.613706 182.181818 
L 181.659022 182.181818 
L 181.659022 321.853341 
L 181.704337 321.853341 
z
" style="fill:#ff0000;stroke:#ff0000;stroke-dasharray:3.7,1.6;stroke-dashoffset:0;stroke-linejoin:miter;"/>
   </g>
   <g id="patch_14">
    <path clip-path="url(#p6d7f782a5f)" d="M 252.818182 321.916193 
L 252.750208 321.853341 
L 252.795524 321.853341 
L 252.795524 182.181818 
L 252.84084 182.181818 
L 252.84084 321.853341 
L 252.886155 321.853341 
z
" style="fill:#ff0000;stroke:#ff0000;stroke-dasharray:3.7,1.6;stroke-dashoffset:0;stroke-linejoin:miter;"/>
   </g>
   <g id="patch_15">
    <path clip-path="url(#p6d7f782a5f)" d="M 324 321.916193 
L 323.932026 321.853341 
L 323.977342 321.853341 
L 323.977342 182.181818 
L 324.022658 182.181818 
L 324.022658 321.853341 
L 324.067974 321.853341 
z
" style="fill:#ff0000;stroke:#ff0000;stroke-dasharray:3.7,1.6;stroke-dashoffset:0;stroke-linejoin:miter;"/>
   </g>
   <g id="matplotlib.axis_3">
    <g id="xtick_8">
     <g id="line2d_14">
      <g>
       <use style="stroke:#000000;stroke-width:0.8;" x="39.272727" xlink:href="#m38183dab59" y="252.01758"/>
      </g>
     </g>
    </g>
    <g id="xtick_9">
     <g id="line2d_15">
      <g>
       <use style="stroke:#000000;stroke-width:0.8;" x="129.904233" xlink:href="#m38183dab59" y="252.01758"/>
      </g>
     </g>
    </g>
    <g id="xtick_10">
     <g id="line2d_16">
      <g>
       <use style="stroke:#000000;stroke-width:0.8;" x="220.535739" xlink:href="#m38183dab59" y="252.01758"/>
      </g>
     </g>
    </g>
    <g id="xtick_11">
     <g id="line2d_17">
      <g>
       <use style="stroke:#000000;stroke-width:0.8;" x="311.167245" xlink:href="#m38183dab59" y="252.01758"/>
      </g>
     </g>
    </g>
    <g id="xtick_12">
     <g id="line2d_18">
      <g>
       <use style="stroke:#000000;stroke-width:0.8;" x="401.79875" xlink:href="#m38183dab59" y="252.01758"/>
      </g>
     </g>
    </g>
    <g id="xtick_13">
     <g id="line2d_19">
      <g>
       <use style="stroke:#000000;stroke-width:0.8;" x="492.430256" xlink:href="#m38183dab59" y="252.01758"/>
      </g>
     </g>
    </g>
    <g id="xtick_14">
     <g id="line2d_20">
      <g>
       <use style="stroke:#000000;stroke-width:0.8;" x="583.061762" xlink:href="#m38183dab59" y="252.01758"/>
      </g>
     </g>
    </g>
   </g>
   <g id="matplotlib.axis_4">
    <g id="ytick_6">
     <g id="line2d_21">
      <g>
       <use style="stroke:#000000;stroke-width:0.8;" x="39.272727" xlink:href="#m4d91aa2f1c" y="307.886189"/>
      </g>
     </g>
    </g>
    <g id="ytick_7">
     <g id="line2d_22">
      <g>
       <use style="stroke:#000000;stroke-width:0.8;" x="39.272727" xlink:href="#m4d91aa2f1c" y="279.951884"/>
      </g>
     </g>
    </g>
    <g id="ytick_8">
     <g id="line2d_23">
      <g>
       <use style="stroke:#000000;stroke-width:0.8;" x="39.272727" xlink:href="#m4d91aa2f1c" y="252.01758"/>
      </g>
     </g>
    </g>
    <g id="ytick_9">
     <g id="line2d_24">
      <g>
       <use style="stroke:#000000;stroke-width:0.8;" x="39.272727" xlink:href="#m4d91aa2f1c" y="224.083275"/>
      </g>
     </g>
    </g>
    <g id="ytick_10">
     <g id="line2d_25">
      <g>
       <use style="stroke:#000000;stroke-width:0.8;" x="39.272727" xlink:href="#m4d91aa2f1c" y="196.14897"/>
      </g>
     </g>
    </g>
   </g>
   <g id="line2d_26">
    <path clip-path="url(#p6d7f782a5f)" d="M 39.272727 182.181818 
L 45.024793 183.300982 
L 50.77686 186.586731 
L 56.528926 191.82844 
L 62.280992 198.690103 
L 68.033058 206.731869 
L 73.785124 215.438239 
L 79.53719 224.251114 
L 85.289256 232.605564 
L 91.041322 239.966048 
L 96.793388 245.86074 
L 102.545455 249.911774 
L 108.297521 251.859469 
L 114.049587 251.578972 
L 119.801653 249.088265 
L 125.553719 244.547007 
L 131.305785 238.246306 
L 137.057851 230.590052 
L 142.809917 222.069031 
L 148.561983 213.229464 
L 154.31405 204.637988 
L 160.066116 196.845341 
L 165.818182 190.35105 
L 171.570248 185.571418 
L 177.322314 182.81283 
L 183.07438 182.252119 
L 188.826446 183.925229 
L 194.578512 187.724908 
L 200.330579 193.407588 
L 206.082645 200.608994 
L 211.834711 208.867497 
L 217.586777 217.653705 
L 223.338843 226.4044 
L 229.090909 234.558639 
L 234.842975 241.593715 
L 240.595041 247.058661 
L 246.347107 250.60316 
L 252.099174 252 
L 257.85124 251.15964 
L 263.603306 248.135949 
L 269.355372 243.122754 
L 275.107438 236.441414 
L 280.859504 228.520219 
L 286.61157 219.866939 
L 292.363636 211.036273 
L 298.115702 202.594287 
L 303.867769 195.082136 
L 309.619835 188.981368 
L 315.371901 184.683058 
L 321.123967 182.462739 
L 326.876033 182.462739 
L 332.628099 184.683058 
L 338.380165 188.981368 
L 344.132231 195.082136 
L 349.884298 202.594287 
L 355.636364 211.036273 
L 361.38843 219.866939 
L 367.140496 228.520219 
L 372.892562 236.441414 
L 378.644628 243.122754 
L 384.396694 248.135949 
L 390.14876 251.15964 
L 395.900826 252 
L 401.652893 250.60316 
L 407.404959 247.058661 
L 413.157025 241.593715 
L 418.909091 234.558639 
L 424.661157 226.4044 
L 430.413223 217.653705 
L 436.165289 208.867497 
L 441.917355 200.608994 
L 447.669421 193.407588 
L 453.421488 187.724908 
L 459.173554 183.925229 
L 464.92562 182.252119 
L 470.677686 182.81283 
L 476.429752 185.571418 
L 482.181818 190.35105 
L 487.933884 196.845341 
L 493.68595 204.637988 
L 499.438017 213.229464 
L 505.190083 222.069031 
L 510.942149 230.590052 
L 516.694215 238.246306 
L 522.446281 244.547007 
L 528.198347 249.088265 
L 533.950413 251.578972 
L 539.702479 251.859469 
L 545.454545 249.911774 
L 551.206612 245.86074 
L 556.958678 239.966048 
L 562.710744 232.605564 
L 568.46281 224.251114 
L 574.214876 215.438239 
L 579.966942 206.731869 
L 585.719008 198.690103 
L 591.471074 191.82844 
L 597.22314 186.586731 
L 602.975207 183.300982 
L 608.727273 182.181818 
" style="fill:none;stroke:#0000ff;stroke-linecap:square;stroke-width:1.5;"/>
   </g>
   <g id="patch_16">
    <path d="M 39.272727 328.8 
L 39.272727 175.2 
" style="fill:none;stroke:#000000;stroke-linecap:square;stroke-linejoin:miter;stroke-width:0.8;"/>
   </g>
   <g id="patch_17">
    <path d="M 637.2 328.8 
L 637.2 175.2 
" style="fill:none;"/>
   </g>
   <g id="patch_18">
    <path d="M 10.8 252.01758 
L 637.2 252.01758 
" style="fill:none;stroke:#000000;stroke-linecap:square;stroke-linejoin:miter;stroke-width:0.8;"/>
   </g>
   <g id="patch_19">
    <path d="M 10.8 175.2 
L 637.2 175.2 
" style="fill:none;"/>
   </g>
   <g id="text_3">
    <!-- $U$ -->
    <defs>
     <path d="M 15.484375 72.90625 
L 25.390625 72.90625 
L 16.796875 28.609375 
Q 16.265625 25.640625 16.046875 23.703125 
Q 15.828125 21.78125 15.828125 20.3125 
Q 15.828125 13.578125 19.578125 10.078125 
Q 23.34375 6.59375 30.609375 6.59375 
Q 40.046875 6.59375 45.28125 11.765625 
Q 50.53125 16.9375 52.78125 28.609375 
L 61.375 72.90625 
L 71.296875 72.90625 
L 62.5 27.390625 
Q 59.625 12.640625 51.5625 5.609375 
Q 43.5 -1.421875 29.5 -1.421875 
Q 18.5625 -1.421875 12.1875 4.078125 
Q 5.8125 9.578125 5.8125 19 
Q 5.8125 20.703125 6.046875 22.828125 
Q 6.296875 24.953125 6.78125 27.390625 
z
" id="DejaVuSans-Oblique-85"/>
    </defs>
    <g transform="translate(20.128001 200.013015)scale(0.15 -0.15)">
     <use transform="translate(0 0.09375)" xlink:href="#DejaVuSans-Oblique-85"/>
    </g>
   </g>
   <g id="text_4">
    <!-- $t$ -->
    <g transform="translate(606.727273 270.888621)scale(0.1 -0.1)">
     <use transform="translate(0 0.78125)" xlink:href="#DejaVuSans-Oblique-116"/>
    </g>
   </g>
  </g>
  <g id="axes_3">
   <g id="patch_20">
    <path d="M 10.8 493.2 
L 637.2 493.2 
L 637.2 339.6 
L 10.8 339.6 
z
" style="fill:none;"/>
   </g>
   <g id="patch_21">
    <path clip-path="url(#pbc2a1cabdc)" d="M 110.454545 486.316193 
L 110.386572 486.253341 
L 110.431888 486.253341 
L 110.431888 346.581818 
L 110.477203 346.581818 
L 110.477203 486.253341 
L 110.522519 486.253341 
z
" style="fill:#ff0000;stroke:#ff0000;stroke-dasharray:3.7,1.6;stroke-dashoffset:0;stroke-linejoin:miter;"/>
   </g>
   <g id="patch_22">
    <path clip-path="url(#pbc2a1cabdc)" d="M 181.636364 486.316193 
L 181.56839 486.253341 
L 181.613706 486.253341 
L 181.613706 346.581818 
L 181.659022 346.581818 
L 181.659022 486.253341 
L 181.704337 486.253341 
z
" style="fill:#ff0000;stroke:#ff0000;stroke-dasharray:3.7,1.6;stroke-dashoffset:0;stroke-linejoin:miter;"/>
   </g>
   <g id="patch_23">
    <path clip-path="url(#pbc2a1cabdc)" d="M 252.818182 486.316193 
L 252.750208 486.253341 
L 252.795524 486.253341 
L 252.795524 346.581818 
L 252.84084 346.581818 
L 252.84084 486.253341 
L 252.886155 486.253341 
z
" style="fill:#ff0000;stroke:#ff0000;stroke-dasharray:3.7,1.6;stroke-dashoffset:0;stroke-linejoin:miter;"/>
   </g>
   <g id="patch_24">
    <path clip-path="url(#pbc2a1cabdc)" d="M 324 486.316193 
L 323.932026 486.253341 
L 323.977342 486.253341 
L 323.977342 346.581818 
L 324.022658 346.581818 
L 324.022658 486.253341 
L 324.067974 486.253341 
z
" style="fill:#ff0000;stroke:#ff0000;stroke-dasharray:3.7,1.6;stroke-dashoffset:0;stroke-linejoin:miter;"/>
   </g>
   <g id="matplotlib.axis_5">
    <g id="xtick_15">
     <g id="line2d_27">
      <g>
       <use style="stroke:#000000;stroke-width:0.8;" x="39.272727" xlink:href="#m38183dab59" y="416.41758"/>
      </g>
     </g>
    </g>
    <g id="xtick_16">
     <g id="line2d_28">
      <g>
       <use style="stroke:#000000;stroke-width:0.8;" x="129.904233" xlink:href="#m38183dab59" y="416.41758"/>
      </g>
     </g>
    </g>
    <g id="xtick_17">
     <g id="line2d_29">
      <g>
       <use style="stroke:#000000;stroke-width:0.8;" x="220.535739" xlink:href="#m38183dab59" y="416.41758"/>
      </g>
     </g>
    </g>
    <g id="xtick_18">
     <g id="line2d_30">
      <g>
       <use style="stroke:#000000;stroke-width:0.8;" x="311.167245" xlink:href="#m38183dab59" y="416.41758"/>
      </g>
     </g>
    </g>
    <g id="xtick_19">
     <g id="line2d_31">
      <g>
       <use style="stroke:#000000;stroke-width:0.8;" x="401.79875" xlink:href="#m38183dab59" y="416.41758"/>
      </g>
     </g>
    </g>
    <g id="xtick_20">
     <g id="line2d_32">
      <g>
       <use style="stroke:#000000;stroke-width:0.8;" x="492.430256" xlink:href="#m38183dab59" y="416.41758"/>
      </g>
     </g>
    </g>
    <g id="xtick_21">
     <g id="line2d_33">
      <g>
       <use style="stroke:#000000;stroke-width:0.8;" x="583.061762" xlink:href="#m38183dab59" y="416.41758"/>
      </g>
     </g>
    </g>
   </g>
   <g id="matplotlib.axis_6">
    <g id="ytick_11">
     <g id="line2d_34">
      <g>
       <use style="stroke:#000000;stroke-width:0.8;" x="39.272727" xlink:href="#m4d91aa2f1c" y="472.286189"/>
      </g>
     </g>
    </g>
    <g id="ytick_12">
     <g id="line2d_35">
      <g>
       <use style="stroke:#000000;stroke-width:0.8;" x="39.272727" xlink:href="#m4d91aa2f1c" y="444.351884"/>
      </g>
     </g>
    </g>
    <g id="ytick_13">
     <g id="line2d_36">
      <g>
       <use style="stroke:#000000;stroke-width:0.8;" x="39.272727" xlink:href="#m4d91aa2f1c" y="416.41758"/>
      </g>
     </g>
    </g>
    <g id="ytick_14">
     <g id="line2d_37">
      <g>
       <use style="stroke:#000000;stroke-width:0.8;" x="39.272727" xlink:href="#m4d91aa2f1c" y="388.483275"/>
      </g>
     </g>
    </g>
    <g id="ytick_15">
     <g id="line2d_38">
      <g>
       <use style="stroke:#000000;stroke-width:0.8;" x="39.272727" xlink:href="#m4d91aa2f1c" y="360.54897"/>
      </g>
     </g>
    </g>
   </g>
   <g id="line2d_39">
    <path clip-path="url(#pbc2a1cabdc)" d="M 39.272727 416.41758 
L 45.024793 415.298416 
L 50.77686 412.012667 
L 56.528926 406.770958 
L 62.280992 399.909295 
L 68.033058 391.867529 
L 73.785124 383.161159 
L 79.53719 374.348284 
L 85.289256 365.993834 
L 91.041322 358.63335 
L 96.793388 352.738658 
L 102.545455 348.687624 
L 108.297521 346.739929 
L 114.049587 347.020426 
L 119.801653 349.511133 
L 125.553719 354.052391 
L 131.305785 360.353092 
L 137.057851 368.009346 
L 142.809917 376.530366 
L 148.561983 385.369934 
L 154.31405 393.961409 
L 160.066116 401.754057 
L 165.818182 408.248347 
L 171.570248 413.02798 
L 177.322314 415.786568 
L 183.07438 416.347279 
L 188.826446 414.674169 
L 194.578512 410.874489 
L 200.330579 405.19181 
L 206.082645 397.990404 
L 211.834711 389.731901 
L 217.586777 380.945693 
L 223.338843 372.194998 
L 229.090909 364.040759 
L 234.842975 357.005682 
L 240.595041 351.540736 
L 246.347107 347.996238 
L 252.099174 346.599398 
L 257.85124 347.439758 
L 263.603306 350.463449 
L 269.355372 355.476644 
L 275.107438 362.157984 
L 280.859504 370.079179 
L 286.61157 378.732458 
L 292.363636 387.563125 
L 298.115702 396.005111 
L 303.867769 403.517262 
L 309.619835 409.61803 
L 315.371901 413.91634 
L 321.123967 416.136659 
L 326.876033 416.136659 
L 332.628099 413.91634 
L 338.380165 409.61803 
L 344.132231 403.517262 
L 349.884298 396.005111 
L 355.636364 387.563125 
L 361.38843 378.732458 
L 367.140496 370.079179 
L 372.892562 362.157984 
L 378.644628 355.476644 
L 384.396694 350.463449 
L 390.14876 347.439758 
L 395.900826 346.599398 
L 401.652893 347.996238 
L 407.404959 351.540736 
L 413.157025 357.005682 
L 418.909091 364.040759 
L 424.661157 372.194998 
L 430.413223 380.945693 
L 436.165289 389.731901 
L 441.917355 397.990404 
L 447.669421 405.19181 
L 453.421488 410.874489 
L 459.173554 414.674169 
L 464.92562 416.347279 
L 470.677686 415.786568 
L 476.429752 413.02798 
L 482.181818 408.248347 
L 487.933884 401.754057 
L 493.68595 393.961409 
L 499.438017 385.369934 
L 505.190083 376.530366 
L 510.942149 368.009346 
L 516.694215 360.353092 
L 522.446281 354.052391 
L 528.198347 349.511133 
L 533.950413 347.020426 
L 539.702479 346.739929 
L 545.454545 348.687624 
L 551.206612 352.738658 
L 556.958678 358.63335 
L 562.710744 365.993834 
L 568.46281 374.348284 
L 574.214876 383.161159 
L 579.966942 391.867529 
L 585.719008 399.909295 
L 591.471074 406.770958 
L 597.22314 412.012667 
L 602.975207 415.298416 
L 608.727273 416.41758 
" style="fill:none;stroke:#ffa500;stroke-linecap:square;stroke-width:1.5;"/>
   </g>
   <g id="patch_25">
    <path d="M 39.272727 493.2 
L 39.272727 339.6 
" style="fill:none;stroke:#000000;stroke-linecap:square;stroke-linejoin:miter;stroke-width:0.8;"/>
   </g>
   <g id="patch_26">
    <path d="M 637.2 493.2 
L 637.2 339.6 
" style="fill:none;"/>
   </g>
   <g id="patch_27">
    <path d="M 10.8 416.41758 
L 637.2 416.41758 
" style="fill:none;stroke:#000000;stroke-linecap:square;stroke-linejoin:miter;stroke-width:0.8;"/>
   </g>
   <g id="patch_28">
    <path d="M 10.8 339.6 
L 637.2 339.6 
" style="fill:none;"/>
   </g>
   <g id="text_5">
    <!-- KE -->
    <defs>
     <path d="M 9.8125 72.90625 
L 19.671875 72.90625 
L 19.671875 42.09375 
L 52.390625 72.90625 
L 65.09375 72.90625 
L 28.90625 38.921875 
L 67.671875 0 
L 54.6875 0 
L 19.671875 35.109375 
L 19.671875 0 
L 9.8125 0 
z
" id="DejaVuSans-75"/>
     <path d="M 9.8125 72.90625 
L 55.90625 72.90625 
L 55.90625 64.59375 
L 19.671875 64.59375 
L 19.671875 43.015625 
L 54.390625 43.015625 
L 54.390625 34.71875 
L 19.671875 34.71875 
L 19.671875 8.296875 
L 56.78125 8.296875 
L 56.78125 0 
L 9.8125 0 
z
" id="DejaVuSans-69"/>
    </defs>
    <g transform="translate(16.02058 364.413015)scale(0.15 -0.15)">
     <use xlink:href="#DejaVuSans-75"/>
     <use x="65.576172" xlink:href="#DejaVuSans-69"/>
    </g>
   </g>
   <g id="text_6">
    <!-- $t$ -->
    <g transform="translate(606.727273 435.288621)scale(0.1 -0.1)">
     <use transform="translate(0 0.78125)" xlink:href="#DejaVuSans-Oblique-116"/>
    </g>
   </g>
  </g>
 </g>
 <defs>
  <clipPath id="p18dbd6ffe7">
   <rect height="153.6" width="626.4" x="10.8" y="10.8"/>
  </clipPath>
  <clipPath id="p6d7f782a5f">
   <rect height="153.6" width="626.4" x="10.8" y="175.2"/>
  </clipPath>
  <clipPath id="pbc2a1cabdc">
   <rect height="153.6" width="626.4" x="10.8" y="339.6"/>
  </clipPath>
 </defs>
</svg>
