<?xml version="1.0" encoding="utf-8" standalone="no"?>
<!DOCTYPE svg PUBLIC "-//W3C//DTD SVG 1.1//EN"
  "http://www.w3.org/Graphics/SVG/1.1/DTD/svg11.dtd">
<!-- Created with matplotlib (https://matplotlib.org/) -->
<svg height="216pt" version="1.1" viewBox="0 0 504 216" width="504pt" xmlns="http://www.w3.org/2000/svg" xmlns:xlink="http://www.w3.org/1999/xlink">
 <metadata>
  <rdf:RDF xmlns:cc="http://creativecommons.org/ns#" xmlns:dc="http://purl.org/dc/elements/1.1/" xmlns:rdf="http://www.w3.org/1999/02/22-rdf-syntax-ns#">
   <cc:Work>
    <dc:type rdf:resource="http://purl.org/dc/dcmitype/StillImage"/>
    <dc:date>2024-01-19T14:44:04.091639</dc:date>
    <dc:format>image/svg+xml</dc:format>
    <dc:creator>
     <cc:Agent>
      <dc:title>Matplotlib v3.3.2, https://matplotlib.org/</dc:title>
     </cc:Agent>
    </dc:creator>
   </cc:Work>
  </rdf:RDF>
 </metadata>
 <defs>
  <style type="text/css">*{stroke-linecap:butt;stroke-linejoin:round;}</style>
 </defs>
 <g id="figure_1">
  <g id="patch_1">
   <path d="M 0 216 
L 504 216 
L 504 0 
L 0 0 
z
" style="fill:none;"/>
  </g>
  <g id="axes_1">
   <g id="patch_2">
    <path d="M 32.55 188.2 
L 482.0125 188.2 
L 482.0125 14.8 
L 32.55 14.8 
z
" style="fill:none;"/>
   </g>
   <g id="matplotlib.axis_1">
    <g id="xtick_1">
     <g id="line2d_1">
      <defs>
       <path d="M 0 0 
L 0 3.5 
" id="m19d1b8d29d" style="stroke:#000000;stroke-width:0.8;"/>
      </defs>
      <g>
       <use style="stroke:#000000;stroke-width:0.8;" x="32.55" xlink:href="#m19d1b8d29d" y="188.2"/>
      </g>
     </g>
     <g id="text_1">
      <!-- 0.00 -->
      <g transform="translate(21.417188 202.798438)scale(0.1 -0.1)">
       <defs>
        <path d="M 31.78125 66.40625 
Q 24.171875 66.40625 20.328125 58.90625 
Q 16.5 51.421875 16.5 36.375 
Q 16.5 21.390625 20.328125 13.890625 
Q 24.171875 6.390625 31.78125 6.390625 
Q 39.453125 6.390625 43.28125 13.890625 
Q 47.125 21.390625 47.125 36.375 
Q 47.125 51.421875 43.28125 58.90625 
Q 39.453125 66.40625 31.78125 66.40625 
z
M 31.78125 74.21875 
Q 44.046875 74.21875 50.515625 64.515625 
Q 56.984375 54.828125 56.984375 36.375 
Q 56.984375 17.96875 50.515625 8.265625 
Q 44.046875 -1.421875 31.78125 -1.421875 
Q 19.53125 -1.421875 13.0625 8.265625 
Q 6.59375 17.96875 6.59375 36.375 
Q 6.59375 54.828125 13.0625 64.515625 
Q 19.53125 74.21875 31.78125 74.21875 
z
" id="DejaVuSans-48"/>
        <path d="M 10.6875 12.40625 
L 21 12.40625 
L 21 0 
L 10.6875 0 
z
" id="DejaVuSans-46"/>
       </defs>
       <use xlink:href="#DejaVuSans-48"/>
       <use x="63.623047" xlink:href="#DejaVuSans-46"/>
       <use x="95.410156" xlink:href="#DejaVuSans-48"/>
       <use x="159.033203" xlink:href="#DejaVuSans-48"/>
      </g>
     </g>
    </g>
    <g id="xtick_2">
     <g id="line2d_2">
      <g>
       <use style="stroke:#000000;stroke-width:0.8;" x="88.732812" xlink:href="#m19d1b8d29d" y="188.2"/>
      </g>
     </g>
     <g id="text_2">
      <!-- 0.25 -->
      <g transform="translate(77.6 202.798438)scale(0.1 -0.1)">
       <defs>
        <path d="M 19.1875 8.296875 
L 53.609375 8.296875 
L 53.609375 0 
L 7.328125 0 
L 7.328125 8.296875 
Q 12.9375 14.109375 22.625 23.890625 
Q 32.328125 33.6875 34.8125 36.53125 
Q 39.546875 41.84375 41.421875 45.53125 
Q 43.3125 49.21875 43.3125 52.78125 
Q 43.3125 58.59375 39.234375 62.25 
Q 35.15625 65.921875 28.609375 65.921875 
Q 23.96875 65.921875 18.8125 64.3125 
Q 13.671875 62.703125 7.8125 59.421875 
L 7.8125 69.390625 
Q 13.765625 71.78125 18.9375 73 
Q 24.125 74.21875 28.421875 74.21875 
Q 39.75 74.21875 46.484375 68.546875 
Q 53.21875 62.890625 53.21875 53.421875 
Q 53.21875 48.921875 51.53125 44.890625 
Q 49.859375 40.875 45.40625 35.40625 
Q 44.1875 33.984375 37.640625 27.21875 
Q 31.109375 20.453125 19.1875 8.296875 
z
" id="DejaVuSans-50"/>
        <path d="M 10.796875 72.90625 
L 49.515625 72.90625 
L 49.515625 64.59375 
L 19.828125 64.59375 
L 19.828125 46.734375 
Q 21.96875 47.46875 24.109375 47.828125 
Q 26.265625 48.1875 28.421875 48.1875 
Q 40.625 48.1875 47.75 41.5 
Q 54.890625 34.8125 54.890625 23.390625 
Q 54.890625 11.625 47.5625 5.09375 
Q 40.234375 -1.421875 26.90625 -1.421875 
Q 22.3125 -1.421875 17.546875 -0.640625 
Q 12.796875 0.140625 7.71875 1.703125 
L 7.71875 11.625 
Q 12.109375 9.234375 16.796875 8.0625 
Q 21.484375 6.890625 26.703125 6.890625 
Q 35.15625 6.890625 40.078125 11.328125 
Q 45.015625 15.765625 45.015625 23.390625 
Q 45.015625 31 40.078125 35.4375 
Q 35.15625 39.890625 26.703125 39.890625 
Q 22.75 39.890625 18.8125 39.015625 
Q 14.890625 38.140625 10.796875 36.28125 
z
" id="DejaVuSans-53"/>
       </defs>
       <use xlink:href="#DejaVuSans-48"/>
       <use x="63.623047" xlink:href="#DejaVuSans-46"/>
       <use x="95.410156" xlink:href="#DejaVuSans-50"/>
       <use x="159.033203" xlink:href="#DejaVuSans-53"/>
      </g>
     </g>
    </g>
    <g id="xtick_3">
     <g id="line2d_3">
      <g>
       <use style="stroke:#000000;stroke-width:0.8;" x="144.915625" xlink:href="#m19d1b8d29d" y="188.2"/>
      </g>
     </g>
     <g id="text_3">
      <!-- 0.50 -->
      <g transform="translate(133.782813 202.798438)scale(0.1 -0.1)">
       <use xlink:href="#DejaVuSans-48"/>
       <use x="63.623047" xlink:href="#DejaVuSans-46"/>
       <use x="95.410156" xlink:href="#DejaVuSans-53"/>
       <use x="159.033203" xlink:href="#DejaVuSans-48"/>
      </g>
     </g>
    </g>
    <g id="xtick_4">
     <g id="line2d_4">
      <g>
       <use style="stroke:#000000;stroke-width:0.8;" x="201.098437" xlink:href="#m19d1b8d29d" y="188.2"/>
      </g>
     </g>
     <g id="text_4">
      <!-- 0.75 -->
      <g transform="translate(189.965625 202.798438)scale(0.1 -0.1)">
       <defs>
        <path d="M 8.203125 72.90625 
L 55.078125 72.90625 
L 55.078125 68.703125 
L 28.609375 0 
L 18.3125 0 
L 43.21875 64.59375 
L 8.203125 64.59375 
z
" id="DejaVuSans-55"/>
       </defs>
       <use xlink:href="#DejaVuSans-48"/>
       <use x="63.623047" xlink:href="#DejaVuSans-46"/>
       <use x="95.410156" xlink:href="#DejaVuSans-55"/>
       <use x="159.033203" xlink:href="#DejaVuSans-53"/>
      </g>
     </g>
    </g>
    <g id="xtick_5">
     <g id="line2d_5">
      <g>
       <use style="stroke:#000000;stroke-width:0.8;" x="257.28125" xlink:href="#m19d1b8d29d" y="188.2"/>
      </g>
     </g>
     <g id="text_5">
      <!-- 1.00 -->
      <g transform="translate(246.148438 202.798438)scale(0.1 -0.1)">
       <defs>
        <path d="M 12.40625 8.296875 
L 28.515625 8.296875 
L 28.515625 63.921875 
L 10.984375 60.40625 
L 10.984375 69.390625 
L 28.421875 72.90625 
L 38.28125 72.90625 
L 38.28125 8.296875 
L 54.390625 8.296875 
L 54.390625 0 
L 12.40625 0 
z
" id="DejaVuSans-49"/>
       </defs>
       <use xlink:href="#DejaVuSans-49"/>
       <use x="63.623047" xlink:href="#DejaVuSans-46"/>
       <use x="95.410156" xlink:href="#DejaVuSans-48"/>
       <use x="159.033203" xlink:href="#DejaVuSans-48"/>
      </g>
     </g>
    </g>
    <g id="xtick_6">
     <g id="line2d_6">
      <g>
       <use style="stroke:#000000;stroke-width:0.8;" x="313.464063" xlink:href="#m19d1b8d29d" y="188.2"/>
      </g>
     </g>
     <g id="text_6">
      <!-- 1.25 -->
      <g transform="translate(302.33125 202.798438)scale(0.1 -0.1)">
       <use xlink:href="#DejaVuSans-49"/>
       <use x="63.623047" xlink:href="#DejaVuSans-46"/>
       <use x="95.410156" xlink:href="#DejaVuSans-50"/>
       <use x="159.033203" xlink:href="#DejaVuSans-53"/>
      </g>
     </g>
    </g>
    <g id="xtick_7">
     <g id="line2d_7">
      <g>
       <use style="stroke:#000000;stroke-width:0.8;" x="369.646875" xlink:href="#m19d1b8d29d" y="188.2"/>
      </g>
     </g>
     <g id="text_7">
      <!-- 1.50 -->
      <g transform="translate(358.514062 202.798438)scale(0.1 -0.1)">
       <use xlink:href="#DejaVuSans-49"/>
       <use x="63.623047" xlink:href="#DejaVuSans-46"/>
       <use x="95.410156" xlink:href="#DejaVuSans-53"/>
       <use x="159.033203" xlink:href="#DejaVuSans-48"/>
      </g>
     </g>
    </g>
    <g id="xtick_8">
     <g id="line2d_8">
      <g>
       <use style="stroke:#000000;stroke-width:0.8;" x="425.829687" xlink:href="#m19d1b8d29d" y="188.2"/>
      </g>
     </g>
     <g id="text_8">
      <!-- 1.75 -->
      <g transform="translate(414.696875 202.798438)scale(0.1 -0.1)">
       <use xlink:href="#DejaVuSans-49"/>
       <use x="63.623047" xlink:href="#DejaVuSans-46"/>
       <use x="95.410156" xlink:href="#DejaVuSans-55"/>
       <use x="159.033203" xlink:href="#DejaVuSans-53"/>
      </g>
     </g>
    </g>
    <g id="xtick_9">
     <g id="line2d_9">
      <g>
       <use style="stroke:#000000;stroke-width:0.8;" x="482.0125" xlink:href="#m19d1b8d29d" y="188.2"/>
      </g>
     </g>
     <g id="text_9">
      <!-- 2.00 -->
      <g transform="translate(470.879687 202.798438)scale(0.1 -0.1)">
       <use xlink:href="#DejaVuSans-50"/>
       <use x="63.623047" xlink:href="#DejaVuSans-46"/>
       <use x="95.410156" xlink:href="#DejaVuSans-48"/>
       <use x="159.033203" xlink:href="#DejaVuSans-48"/>
      </g>
     </g>
    </g>
   </g>
   <g id="matplotlib.axis_2">
    <g id="ytick_1">
     <g id="line2d_10">
      <defs>
       <path d="M 0 0 
L -3.5 0 
" id="m27ca0ff3cd" style="stroke:#000000;stroke-width:0.8;"/>
      </defs>
      <g>
       <use style="stroke:#000000;stroke-width:0.8;" x="32.55" xlink:href="#m27ca0ff3cd" y="188.2"/>
      </g>
     </g>
     <g id="text_10">
      <!-- −4 -->
      <g transform="translate(10.807813 191.999219)scale(0.1 -0.1)">
       <defs>
        <path d="M 10.59375 35.5 
L 73.1875 35.5 
L 73.1875 27.203125 
L 10.59375 27.203125 
z
" id="DejaVuSans-8722"/>
        <path d="M 37.796875 64.3125 
L 12.890625 25.390625 
L 37.796875 25.390625 
z
M 35.203125 72.90625 
L 47.609375 72.90625 
L 47.609375 25.390625 
L 58.015625 25.390625 
L 58.015625 17.1875 
L 47.609375 17.1875 
L 47.609375 0 
L 37.796875 0 
L 37.796875 17.1875 
L 4.890625 17.1875 
L 4.890625 26.703125 
z
" id="DejaVuSans-52"/>
       </defs>
       <use xlink:href="#DejaVuSans-8722"/>
       <use x="83.789062" xlink:href="#DejaVuSans-52"/>
      </g>
     </g>
    </g>
    <g id="ytick_2">
     <g id="line2d_11">
      <g>
       <use style="stroke:#000000;stroke-width:0.8;" x="32.55" xlink:href="#m27ca0ff3cd" y="166.525"/>
      </g>
     </g>
     <g id="text_11">
      <!-- −3 -->
      <g transform="translate(10.807813 170.324219)scale(0.1 -0.1)">
       <defs>
        <path d="M 40.578125 39.3125 
Q 47.65625 37.796875 51.625 33 
Q 55.609375 28.21875 55.609375 21.1875 
Q 55.609375 10.40625 48.1875 4.484375 
Q 40.765625 -1.421875 27.09375 -1.421875 
Q 22.515625 -1.421875 17.65625 -0.515625 
Q 12.796875 0.390625 7.625 2.203125 
L 7.625 11.71875 
Q 11.71875 9.328125 16.59375 8.109375 
Q 21.484375 6.890625 26.8125 6.890625 
Q 36.078125 6.890625 40.9375 10.546875 
Q 45.796875 14.203125 45.796875 21.1875 
Q 45.796875 27.640625 41.28125 31.265625 
Q 36.765625 34.90625 28.71875 34.90625 
L 20.21875 34.90625 
L 20.21875 43.015625 
L 29.109375 43.015625 
Q 36.375 43.015625 40.234375 45.921875 
Q 44.09375 48.828125 44.09375 54.296875 
Q 44.09375 59.90625 40.109375 62.90625 
Q 36.140625 65.921875 28.71875 65.921875 
Q 24.65625 65.921875 20.015625 65.03125 
Q 15.375 64.15625 9.8125 62.3125 
L 9.8125 71.09375 
Q 15.4375 72.65625 20.34375 73.4375 
Q 25.25 74.21875 29.59375 74.21875 
Q 40.828125 74.21875 47.359375 69.109375 
Q 53.90625 64.015625 53.90625 55.328125 
Q 53.90625 49.265625 50.4375 45.09375 
Q 46.96875 40.921875 40.578125 39.3125 
z
" id="DejaVuSans-51"/>
       </defs>
       <use xlink:href="#DejaVuSans-8722"/>
       <use x="83.789062" xlink:href="#DejaVuSans-51"/>
      </g>
     </g>
    </g>
    <g id="ytick_3">
     <g id="line2d_12">
      <g>
       <use style="stroke:#000000;stroke-width:0.8;" x="32.55" xlink:href="#m27ca0ff3cd" y="144.85"/>
      </g>
     </g>
     <g id="text_12">
      <!-- −2 -->
      <g transform="translate(10.807813 148.649219)scale(0.1 -0.1)">
       <use xlink:href="#DejaVuSans-8722"/>
       <use x="83.789062" xlink:href="#DejaVuSans-50"/>
      </g>
     </g>
    </g>
    <g id="ytick_4">
     <g id="line2d_13">
      <g>
       <use style="stroke:#000000;stroke-width:0.8;" x="32.55" xlink:href="#m27ca0ff3cd" y="123.175"/>
      </g>
     </g>
     <g id="text_13">
      <!-- −1 -->
      <g transform="translate(10.807813 126.974219)scale(0.1 -0.1)">
       <use xlink:href="#DejaVuSans-8722"/>
       <use x="83.789062" xlink:href="#DejaVuSans-49"/>
      </g>
     </g>
    </g>
    <g id="ytick_5">
     <g id="line2d_14">
      <g>
       <use style="stroke:#000000;stroke-width:0.8;" x="32.55" xlink:href="#m27ca0ff3cd" y="101.5"/>
      </g>
     </g>
     <g id="text_14">
      <!-- 0 -->
      <g transform="translate(19.1875 105.299219)scale(0.1 -0.1)">
       <use xlink:href="#DejaVuSans-48"/>
      </g>
     </g>
    </g>
    <g id="ytick_6">
     <g id="line2d_15">
      <g>
       <use style="stroke:#000000;stroke-width:0.8;" x="32.55" xlink:href="#m27ca0ff3cd" y="79.825"/>
      </g>
     </g>
     <g id="text_15">
      <!-- 1 -->
      <g transform="translate(19.1875 83.624219)scale(0.1 -0.1)">
       <use xlink:href="#DejaVuSans-49"/>
      </g>
     </g>
    </g>
    <g id="ytick_7">
     <g id="line2d_16">
      <g>
       <use style="stroke:#000000;stroke-width:0.8;" x="32.55" xlink:href="#m27ca0ff3cd" y="58.15"/>
      </g>
     </g>
     <g id="text_16">
      <!-- 2 -->
      <g transform="translate(19.1875 61.949219)scale(0.1 -0.1)">
       <use xlink:href="#DejaVuSans-50"/>
      </g>
     </g>
    </g>
    <g id="ytick_8">
     <g id="line2d_17">
      <g>
       <use style="stroke:#000000;stroke-width:0.8;" x="32.55" xlink:href="#m27ca0ff3cd" y="36.475"/>
      </g>
     </g>
     <g id="text_17">
      <!-- 3 -->
      <g transform="translate(19.1875 40.274219)scale(0.1 -0.1)">
       <use xlink:href="#DejaVuSans-51"/>
      </g>
     </g>
    </g>
    <g id="ytick_9">
     <g id="line2d_18">
      <g>
       <use style="stroke:#000000;stroke-width:0.8;" x="32.55" xlink:href="#m27ca0ff3cd" y="14.8"/>
      </g>
     </g>
     <g id="text_18">
      <!-- 4 -->
      <g transform="translate(19.1875 18.599219)scale(0.1 -0.1)">
       <use xlink:href="#DejaVuSans-52"/>
      </g>
     </g>
    </g>
   </g>
   <g id="line2d_19">
    <path clip-path="url(#p636bf1ac58)" d="M 32.55 101.5 
L 37.090025 99.003431 
L 41.630051 96.509375 
L 46.170076 94.020345 
L 50.710101 91.538846 
L 55.250126 89.067378 
L 59.790152 86.608427 
L 64.330177 84.164472 
L 68.870202 81.737971 
L 73.410227 79.33137 
L 77.950253 76.94709 
L 82.490278 74.587533 
L 87.030303 72.255075 
L 91.570328 69.952064 
L 96.110354 67.680818 
L 100.650379 65.443626 
L 105.190404 63.24274 
L 109.730429 61.080376 
L 114.270455 58.95871 
L 118.81048 56.87988 
L 123.350505 54.845979 
L 127.89053 52.859054 
L 132.430556 50.921107 
L 136.970581 49.034088 
L 141.510606 47.199899 
L 146.050631 45.420384 
L 150.590657 43.697337 
L 155.130682 42.032493 
L 159.670707 40.427527 
L 164.210732 38.884056 
L 168.750758 37.403634 
L 173.290783 35.987752 
L 177.830808 34.637834 
L 182.370833 33.355242 
L 186.910859 32.141265 
L 191.450884 30.997127 
L 195.990909 29.923979 
L 200.530934 28.922902 
L 205.07096 27.994905 
L 209.610985 27.14092 
L 214.15101 26.361809 
L 218.691035 25.658356 
L 223.231061 25.031268 
L 227.771086 24.481179 
L 232.311111 24.00864 
L 236.851136 23.614129 
L 241.391162 23.298043 
L 245.931187 23.060699 
L 250.471212 22.902337 
L 255.011237 22.823116 
L 259.551263 22.823116 
L 264.091288 22.902337 
L 268.631313 23.060699 
L 273.171338 23.298043 
L 277.711364 23.614129 
L 282.251389 24.00864 
L 286.791414 24.481179 
L 291.331439 25.031268 
L 295.871465 25.658356 
L 300.41149 26.361809 
L 304.951515 27.14092 
L 309.49154 27.994905 
L 314.031566 28.922902 
L 318.571591 29.923979 
L 323.111616 30.997127 
L 327.651641 32.141265 
L 332.191667 33.355242 
L 336.731692 34.637834 
L 341.271717 35.987752 
L 345.811742 37.403634 
L 350.351768 38.884056 
L 354.891793 40.427527 
L 359.431818 42.032493 
L 363.971843 43.697337 
L 368.511869 45.420384 
L 373.051894 47.199899 
L 377.591919 49.034088 
L 382.131944 50.921107 
L 386.67197 52.859054 
L 391.211995 54.845979 
L 395.75202 56.87988 
L 400.292045 58.95871 
L 404.832071 61.080376 
L 409.372096 63.24274 
L 413.912121 65.443626 
L 418.452146 67.680818 
L 422.992172 69.952064 
L 427.532197 72.255075 
L 432.072222 74.587533 
L 436.612247 76.94709 
L 441.152273 79.33137 
L 445.692298 81.737971 
L 450.232323 84.164472 
L 454.772348 86.608427 
L 459.312374 89.067378 
L 463.852399 91.538846 
L 468.392424 94.020345 
L 472.932449 96.509375 
L 477.472475 99.003431 
L 482.0125 101.5 
" style="fill:none;stroke:#0000ff;stroke-linecap:square;stroke-width:2;"/>
   </g>
   <g id="line2d_20">
    <path clip-path="url(#p636bf1ac58)" d="M 32.55 101.5 
L 37.090025 99.719162 
L 41.630051 97.940117 
L 46.170076 96.164657 
L 50.710101 94.394569 
L 55.250126 92.631636 
L 59.790152 90.877632 
L 64.330177 89.134324 
L 68.870202 87.403468 
L 73.410227 85.686805 
L 77.950253 83.986065 
L 82.490278 82.30296 
L 87.030303 80.639184 
L 91.570328 78.996414 
L 96.110354 77.376303 
L 100.650379 75.780483 
L 105.190404 74.21056 
L 109.730429 72.668115 
L 114.270455 71.154701 
L 118.81048 69.671842 
L 123.350505 68.221032 
L 127.89053 66.803731 
L 132.430556 65.421366 
L 136.970581 64.075329 
L 141.510606 62.766975 
L 146.050631 61.497623 
L 150.590657 60.268549 
L 155.130682 59.080992 
L 159.670707 57.936148 
L 164.210732 56.835168 
L 168.750758 55.779163 
L 173.290783 54.769194 
L 177.830808 53.806279 
L 182.370833 52.891388 
L 186.910859 52.025441 
L 191.450884 51.209311 
L 195.990909 50.44382 
L 200.530934 49.729738 
L 205.07096 49.067784 
L 209.610985 48.458625 
L 214.15101 47.902874 
L 218.691035 47.401091 
L 223.231061 46.95378 
L 227.771086 46.561394 
L 232.311111 46.224325 
L 236.851136 45.942915 
L 241.391162 45.717446 
L 245.931187 45.548145 
L 250.471212 45.435184 
L 255.011237 45.378674 
L 259.551263 45.378674 
L 264.091288 45.435184 
L 268.631313 45.548145 
L 273.171338 45.717446 
L 277.711364 45.942915 
L 282.251389 46.224325 
L 286.791414 46.561394 
L 291.331439 46.95378 
L 295.871465 47.401091 
L 300.41149 47.902874 
L 304.951515 48.458625 
L 309.49154 49.067784 
L 314.031566 49.729738 
L 318.571591 50.44382 
L 323.111616 51.209311 
L 327.651641 52.025441 
L 332.191667 52.891388 
L 336.731692 53.806279 
L 341.271717 54.769194 
L 345.811742 55.779163 
L 350.351768 56.835168 
L 354.891793 57.936148 
L 359.431818 59.080992 
L 363.971843 60.268549 
L 368.511869 61.497623 
L 373.051894 62.766975 
L 377.591919 64.075329 
L 382.131944 65.421366 
L 386.67197 66.803731 
L 391.211995 68.221032 
L 395.75202 69.671842 
L 400.292045 71.154701 
L 404.832071 72.668115 
L 409.372096 74.21056 
L 413.912121 75.780483 
L 418.452146 77.376303 
L 422.992172 78.996414 
L 427.532197 80.639184 
L 432.072222 82.30296 
L 436.612247 83.986065 
L 441.152273 85.686805 
L 445.692298 87.403468 
L 450.232323 89.134324 
L 454.772348 90.877632 
L 459.312374 92.631636 
L 463.852399 94.394569 
L 468.392424 96.164657 
L 472.932449 97.940117 
L 477.472475 99.719162 
L 482.0125 101.5 
" style="fill:none;stroke:#0000ff;stroke-linecap:square;stroke-opacity:0.6;stroke-width:2;"/>
   </g>
   <g id="line2d_21">
    <path clip-path="url(#p636bf1ac58)" d="M 32.55 101.5 
L 37.090025 100.76408 
L 41.630051 100.028901 
L 46.170076 99.295203 
L 50.710101 98.563725 
L 55.250126 97.835204 
L 59.790152 97.110373 
L 64.330177 96.389962 
L 68.870202 95.674696 
L 73.410227 94.965296 
L 77.950253 94.262476 
L 82.490278 93.566943 
L 87.030303 92.879398 
L 91.570328 92.200534 
L 96.110354 91.531033 
L 100.650379 90.87157 
L 105.190404 90.222809 
L 109.730429 89.585403 
L 114.270455 88.959995 
L 118.81048 88.347213 
L 123.350505 87.747674 
L 127.89053 87.161983 
L 132.430556 86.59073 
L 136.970581 86.034488 
L 141.510606 85.49382 
L 146.050631 84.969268 
L 150.590657 84.461361 
L 155.130682 83.97061 
L 159.670707 83.49751 
L 164.210732 83.042537 
L 168.750758 82.60615 
L 173.290783 82.188786 
L 177.830808 81.790868 
L 182.370833 81.412795 
L 186.910859 81.054948 
L 191.450884 80.717687 
L 195.990909 80.401352 
L 200.530934 80.106262 
L 205.07096 79.832714 
L 209.610985 79.580983 
L 214.15101 79.351322 
L 218.691035 79.143964 
L 223.231061 78.959115 
L 227.771086 78.796964 
L 232.311111 78.657673 
L 236.851136 78.541382 
L 241.391162 78.448208 
L 245.931187 78.378246 
L 250.471212 78.331565 
L 255.011237 78.308213 
L 259.551263 78.308213 
L 264.091288 78.331565 
L 268.631313 78.378246 
L 273.171338 78.448208 
L 277.711364 78.541382 
L 282.251389 78.657673 
L 286.791414 78.796964 
L 291.331439 78.959115 
L 295.871465 79.143964 
L 300.41149 79.351322 
L 304.951515 79.580983 
L 309.49154 79.832714 
L 314.031566 80.106262 
L 318.571591 80.401352 
L 323.111616 80.717687 
L 327.651641 81.054948 
L 332.191667 81.412795 
L 336.731692 81.790868 
L 341.271717 82.188786 
L 345.811742 82.60615 
L 350.351768 83.042537 
L 354.891793 83.49751 
L 359.431818 83.97061 
L 363.971843 84.461361 
L 368.511869 84.969268 
L 373.051894 85.49382 
L 377.591919 86.034488 
L 382.131944 86.59073 
L 386.67197 87.161983 
L 391.211995 87.747674 
L 395.75202 88.347213 
L 400.292045 88.959995 
L 404.832071 89.585403 
L 409.372096 90.222809 
L 413.912121 90.87157 
L 418.452146 91.531033 
L 422.992172 92.200534 
L 427.532197 92.879398 
L 432.072222 93.566943 
L 436.612247 94.262476 
L 441.152273 94.965296 
L 445.692298 95.674696 
L 450.232323 96.389962 
L 454.772348 97.110373 
L 459.312374 97.835204 
L 463.852399 98.563725 
L 468.392424 99.295203 
L 472.932449 100.028901 
L 477.472475 100.76408 
L 482.0125 101.5 
" style="fill:none;stroke:#0000ff;stroke-linecap:square;stroke-opacity:0.4;stroke-width:2;"/>
   </g>
   <g id="line2d_22">
    <path clip-path="url(#p636bf1ac58)" d="M 32.55 101.5 
L 37.090025 101.945032 
L 41.630051 102.389616 
L 46.170076 102.833304 
L 50.710101 103.275649 
L 55.250126 103.716206 
L 59.790152 104.154532 
L 64.330177 104.590185 
L 68.870202 105.022727 
L 73.410227 105.451721 
L 77.950253 105.876737 
L 82.490278 106.297345 
L 87.030303 106.713123 
L 91.570328 107.123652 
L 96.110354 107.528518 
L 100.650379 107.927314 
L 105.190404 108.319638 
L 109.730429 108.705095 
L 114.270455 109.083298 
L 118.81048 109.453865 
L 123.350505 109.816423 
L 127.89053 110.170606 
L 132.430556 110.51606 
L 136.970581 110.852435 
L 141.510606 111.179393 
L 146.050631 111.496604 
L 150.590657 111.80375 
L 155.130682 112.100521 
L 159.670707 112.386618 
L 164.210732 112.661753 
L 168.750758 112.925649 
L 173.290783 113.17804 
L 177.830808 113.418673 
L 182.370833 113.647305 
L 186.910859 113.863705 
L 191.450884 114.067656 
L 195.990909 114.258952 
L 200.530934 114.437402 
L 205.07096 114.602824 
L 209.610985 114.755053 
L 214.15101 114.893935 
L 218.691035 115.019331 
L 223.231061 115.131114 
L 227.771086 115.229172 
L 232.311111 115.313405 
L 236.851136 115.38373 
L 241.391162 115.440074 
L 245.931187 115.482383 
L 250.471212 115.510612 
L 255.011237 115.524734 
L 259.551263 115.524734 
L 264.091288 115.510612 
L 268.631313 115.482383 
L 273.171338 115.440074 
L 277.711364 115.38373 
L 282.251389 115.313405 
L 286.791414 115.229172 
L 291.331439 115.131114 
L 295.871465 115.019331 
L 300.41149 114.893935 
L 304.951515 114.755053 
L 309.49154 114.602824 
L 314.031566 114.437402 
L 318.571591 114.258952 
L 323.111616 114.067656 
L 327.651641 113.863705 
L 332.191667 113.647305 
L 336.731692 113.418673 
L 341.271717 113.17804 
L 345.811742 112.925649 
L 350.351768 112.661753 
L 354.891793 112.386618 
L 359.431818 112.100521 
L 363.971843 111.80375 
L 368.511869 111.496604 
L 373.051894 111.179393 
L 377.591919 110.852435 
L 382.131944 110.51606 
L 386.67197 110.170606 
L 391.211995 109.816423 
L 395.75202 109.453865 
L 400.292045 109.083298 
L 404.832071 108.705095 
L 409.372096 108.319638 
L 413.912121 107.927314 
L 418.452146 107.528518 
L 422.992172 107.123652 
L 427.532197 106.713123 
L 432.072222 106.297345 
L 436.612247 105.876737 
L 441.152273 105.451721 
L 445.692298 105.022727 
L 450.232323 104.590185 
L 454.772348 104.154532 
L 459.312374 103.716206 
L 463.852399 103.275649 
L 468.392424 102.833304 
L 472.932449 102.389616 
L 477.472475 101.945032 
L 482.0125 101.5 
" style="fill:none;stroke:#0000ff;stroke-linecap:square;stroke-opacity:0.2;stroke-width:2;"/>
   </g>
   <g id="line2d_23">
    <path clip-path="url(#p636bf1ac58)" d="M 32.55 101.5 
L 37.090025 103.04372 
L 41.630051 104.585886 
L 46.170076 106.124944 
L 50.710101 107.659346 
L 55.250126 109.187545 
L 59.790152 110.708004 
L 64.330177 112.219191 
L 68.870202 113.719585 
L 73.410227 115.207675 
L 77.950253 116.681962 
L 82.490278 118.140962 
L 87.030303 119.583207 
L 91.570328 121.007243 
L 96.110354 122.411636 
L 100.650379 123.794974 
L 105.190404 125.155863 
L 109.730429 126.492932 
L 114.270455 127.804835 
L 118.81048 129.090251 
L 123.350505 130.347887 
L 127.89053 131.576475 
L 132.430556 132.774779 
L 136.970581 133.941591 
L 141.510606 135.075738 
L 146.050631 136.176077 
L 150.590657 137.2415 
L 155.130682 138.270934 
L 159.670707 139.263343 
L 164.210732 140.217728 
L 168.750758 141.133127 
L 173.290783 142.008618 
L 177.830808 142.843322 
L 182.370833 143.636395 
L 186.910859 144.387042 
L 191.450884 145.094504 
L 195.990909 145.758071 
L 200.530934 146.377073 
L 205.07096 146.950888 
L 209.610985 147.478938 
L 214.15101 147.960691 
L 218.691035 148.395662 
L 223.231061 148.783413 
L 227.771086 149.123553 
L 232.311111 149.415741 
L 236.851136 149.659682 
L 241.391162 149.85513 
L 245.931187 150.001888 
L 250.471212 150.099809 
L 255.011237 150.148794 
L 259.551263 150.148794 
L 264.091288 150.099809 
L 268.631313 150.001888 
L 273.171338 149.85513 
L 277.711364 149.659682 
L 282.251389 149.415741 
L 286.791414 149.123553 
L 291.331439 148.783413 
L 295.871465 148.395662 
L 300.41149 147.960691 
L 304.951515 147.478938 
L 309.49154 146.950888 
L 314.031566 146.377073 
L 318.571591 145.758071 
L 323.111616 145.094504 
L 327.651641 144.387042 
L 332.191667 143.636395 
L 336.731692 142.843322 
L 341.271717 142.008618 
L 345.811742 141.133127 
L 350.351768 140.217728 
L 354.891793 139.263343 
L 359.431818 138.270934 
L 363.971843 137.2415 
L 368.511869 136.176077 
L 373.051894 135.075738 
L 377.591919 133.941591 
L 382.131944 132.774779 
L 386.67197 131.576475 
L 391.211995 130.347887 
L 395.75202 129.090251 
L 400.292045 127.804835 
L 404.832071 126.492932 
L 409.372096 125.155863 
L 413.912121 123.794974 
L 418.452146 122.411636 
L 422.992172 121.007243 
L 427.532197 119.583207 
L 432.072222 118.140962 
L 436.612247 116.681962 
L 441.152273 115.207675 
L 445.692298 113.719585 
L 450.232323 112.219191 
L 454.772348 110.708004 
L 459.312374 109.187545 
L 463.852399 107.659346 
L 468.392424 106.124944 
L 472.932449 104.585886 
L 477.472475 103.04372 
L 482.0125 101.5 
" style="fill:none;stroke:#0000ff;stroke-linecap:square;stroke-opacity:0.1;stroke-width:2;"/>
   </g>
   <g id="line2d_24">
    <path clip-path="url(#p636bf1ac58)" d="M 257.28125 188.2 
L 257.28125 14.8 
" style="fill:none;stroke:#0000ff;stroke-dasharray:1.85,0.8;stroke-dashoffset:0;stroke-width:0.5;"/>
   </g>
   <g id="patch_3">
    <path d="M 32.55 188.2 
L 32.55 14.8 
" style="fill:none;stroke:#000000;stroke-linecap:square;stroke-linejoin:miter;stroke-width:0.8;"/>
   </g>
   <g id="patch_4">
    <path d="M 482.0125 188.2 
L 482.0125 14.8 
" style="fill:none;stroke:#000000;stroke-linecap:square;stroke-linejoin:miter;stroke-width:0.8;"/>
   </g>
   <g id="patch_5">
    <path d="M 32.55 188.2 
L 482.0125 188.2 
" style="fill:none;stroke:#000000;stroke-linecap:square;stroke-linejoin:miter;stroke-width:0.8;"/>
   </g>
   <g id="patch_6">
    <path d="M 32.55 14.8 
L 482.0125 14.8 
" style="fill:none;stroke:#000000;stroke-linecap:square;stroke-linejoin:miter;stroke-width:0.8;"/>
   </g>
   <g id="text_19">
    <g id="patch_7">
     <path d="M 252.150781 178.283594 
L 262.411719 178.283594 
Q 266.911719 178.283594 266.911719 173.783594 
L 266.911719 159.266406 
Q 266.911719 154.766406 262.411719 154.766406 
L 252.150781 154.766406 
Q 247.650781 154.766406 247.650781 159.266406 
L 247.650781 173.783594 
Q 247.650781 178.283594 252.150781 178.283594 
z
" style="fill:#ffffff;stroke:#ffffff;stroke-linejoin:miter;stroke-width:2;"/>
    </g>
    <!-- A -->
    <g transform="translate(252.150781 170.664062)scale(0.15 -0.15)">
     <defs>
      <path d="M 34.1875 63.1875 
L 20.796875 26.90625 
L 47.609375 26.90625 
z
M 28.609375 72.90625 
L 39.796875 72.90625 
L 67.578125 0 
L 57.328125 0 
L 50.6875 18.703125 
L 17.828125 18.703125 
L 11.1875 0 
L 0.78125 0 
z
" id="DejaVuSans-65"/>
     </defs>
     <use xlink:href="#DejaVuSans-65"/>
    </g>
   </g>
  </g>
 </g>
 <defs>
  <clipPath id="p636bf1ac58">
   <rect height="173.4" width="449.4625" x="32.55" y="14.8"/>
  </clipPath>
 </defs>
</svg>
