<?xml version="1.0" encoding="utf-8" standalone="no"?>
<!DOCTYPE svg PUBLIC "-//W3C//DTD SVG 1.1//EN"
  "http://www.w3.org/Graphics/SVG/1.1/DTD/svg11.dtd">
<!-- Created with matplotlib (https://matplotlib.org/) -->
<svg height="360pt" version="1.1" viewBox="0 0 504 360" width="504pt" xmlns="http://www.w3.org/2000/svg" xmlns:xlink="http://www.w3.org/1999/xlink">
 <defs>
  <style type="text/css">
*{stroke-linecap:butt;stroke-linejoin:round;}
  </style>
 </defs>
 <g id="figure_1">
  <g id="patch_1">
   <path d="M 0 360 
L 504 360 
L 504 0 
L 0 0 
z
" style="fill:none;"/>
  </g>
  <g id="axes_1">
   <g id="patch_2">
    <path d="M 67.55 313.2 
L 493.2 313.2 
L 493.2 10.8 
L 67.55 10.8 
z
" style="fill:none;"/>
   </g>
   <g id="matplotlib.axis_1">
    <g id="xtick_1">
     <g id="line2d_1">
      <defs>
       <path d="M 0 0 
L 0 3.5 
" id="md2b03c8c1e" style="stroke:#000000;stroke-width:0.8;"/>
      </defs>
      <g>
       <use style="stroke:#000000;stroke-width:0.8;" x="86.897727" xlink:href="#md2b03c8c1e" y="313.2"/>
      </g>
     </g>
     <g id="text_1">
      <!-- 0 -->
      <defs>
       <path d="M 31.78125 66.40625 
Q 24.171875 66.40625 20.328125 58.90625 
Q 16.5 51.421875 16.5 36.375 
Q 16.5 21.390625 20.328125 13.890625 
Q 24.171875 6.390625 31.78125 6.390625 
Q 39.453125 6.390625 43.28125 13.890625 
Q 47.125 21.390625 47.125 36.375 
Q 47.125 51.421875 43.28125 58.90625 
Q 39.453125 66.40625 31.78125 66.40625 
z
M 31.78125 74.21875 
Q 44.046875 74.21875 50.515625 64.515625 
Q 56.984375 54.828125 56.984375 36.375 
Q 56.984375 17.96875 50.515625 8.265625 
Q 44.046875 -1.421875 31.78125 -1.421875 
Q 19.53125 -1.421875 13.0625 8.265625 
Q 6.59375 17.96875 6.59375 36.375 
Q 6.59375 54.828125 13.0625 64.515625 
Q 19.53125 74.21875 31.78125 74.21875 
z
" id="DejaVuSans-48"/>
      </defs>
      <g transform="translate(83.716477 327.798437)scale(0.1 -0.1)">
       <use xlink:href="#DejaVuSans-48"/>
      </g>
     </g>
    </g>
    <g id="xtick_2">
     <g id="line2d_2">
      <g>
       <use style="stroke:#000000;stroke-width:0.8;" x="164.288636" xlink:href="#md2b03c8c1e" y="313.2"/>
      </g>
     </g>
     <g id="text_2">
      <!-- 2 -->
      <defs>
       <path d="M 19.1875 8.296875 
L 53.609375 8.296875 
L 53.609375 0 
L 7.328125 0 
L 7.328125 8.296875 
Q 12.9375 14.109375 22.625 23.890625 
Q 32.328125 33.6875 34.8125 36.53125 
Q 39.546875 41.84375 41.421875 45.53125 
Q 43.3125 49.21875 43.3125 52.78125 
Q 43.3125 58.59375 39.234375 62.25 
Q 35.15625 65.921875 28.609375 65.921875 
Q 23.96875 65.921875 18.8125 64.3125 
Q 13.671875 62.703125 7.8125 59.421875 
L 7.8125 69.390625 
Q 13.765625 71.78125 18.9375 73 
Q 24.125 74.21875 28.421875 74.21875 
Q 39.75 74.21875 46.484375 68.546875 
Q 53.21875 62.890625 53.21875 53.421875 
Q 53.21875 48.921875 51.53125 44.890625 
Q 49.859375 40.875 45.40625 35.40625 
Q 44.1875 33.984375 37.640625 27.21875 
Q 31.109375 20.453125 19.1875 8.296875 
z
" id="DejaVuSans-50"/>
      </defs>
      <g transform="translate(161.107386 327.798437)scale(0.1 -0.1)">
       <use xlink:href="#DejaVuSans-50"/>
      </g>
     </g>
    </g>
    <g id="xtick_3">
     <g id="line2d_3">
      <g>
       <use style="stroke:#000000;stroke-width:0.8;" x="241.679545" xlink:href="#md2b03c8c1e" y="313.2"/>
      </g>
     </g>
     <g id="text_3">
      <!-- 4 -->
      <defs>
       <path d="M 37.796875 64.3125 
L 12.890625 25.390625 
L 37.796875 25.390625 
z
M 35.203125 72.90625 
L 47.609375 72.90625 
L 47.609375 25.390625 
L 58.015625 25.390625 
L 58.015625 17.1875 
L 47.609375 17.1875 
L 47.609375 0 
L 37.796875 0 
L 37.796875 17.1875 
L 4.890625 17.1875 
L 4.890625 26.703125 
z
" id="DejaVuSans-52"/>
      </defs>
      <g transform="translate(238.498295 327.798437)scale(0.1 -0.1)">
       <use xlink:href="#DejaVuSans-52"/>
      </g>
     </g>
    </g>
    <g id="xtick_4">
     <g id="line2d_4">
      <g>
       <use style="stroke:#000000;stroke-width:0.8;" x="319.070455" xlink:href="#md2b03c8c1e" y="313.2"/>
      </g>
     </g>
     <g id="text_4">
      <!-- 6 -->
      <defs>
       <path d="M 33.015625 40.375 
Q 26.375 40.375 22.484375 35.828125 
Q 18.609375 31.296875 18.609375 23.390625 
Q 18.609375 15.53125 22.484375 10.953125 
Q 26.375 6.390625 33.015625 6.390625 
Q 39.65625 6.390625 43.53125 10.953125 
Q 47.40625 15.53125 47.40625 23.390625 
Q 47.40625 31.296875 43.53125 35.828125 
Q 39.65625 40.375 33.015625 40.375 
z
M 52.59375 71.296875 
L 52.59375 62.3125 
Q 48.875 64.0625 45.09375 64.984375 
Q 41.3125 65.921875 37.59375 65.921875 
Q 27.828125 65.921875 22.671875 59.328125 
Q 17.53125 52.734375 16.796875 39.40625 
Q 19.671875 43.65625 24.015625 45.921875 
Q 28.375 48.1875 33.59375 48.1875 
Q 44.578125 48.1875 50.953125 41.515625 
Q 57.328125 34.859375 57.328125 23.390625 
Q 57.328125 12.15625 50.6875 5.359375 
Q 44.046875 -1.421875 33.015625 -1.421875 
Q 20.359375 -1.421875 13.671875 8.265625 
Q 6.984375 17.96875 6.984375 36.375 
Q 6.984375 53.65625 15.1875 63.9375 
Q 23.390625 74.21875 37.203125 74.21875 
Q 40.921875 74.21875 44.703125 73.484375 
Q 48.484375 72.75 52.59375 71.296875 
z
" id="DejaVuSans-54"/>
      </defs>
      <g transform="translate(315.889205 327.798437)scale(0.1 -0.1)">
       <use xlink:href="#DejaVuSans-54"/>
      </g>
     </g>
    </g>
    <g id="xtick_5">
     <g id="line2d_5">
      <g>
       <use style="stroke:#000000;stroke-width:0.8;" x="396.461364" xlink:href="#md2b03c8c1e" y="313.2"/>
      </g>
     </g>
     <g id="text_5">
      <!-- 8 -->
      <defs>
       <path d="M 31.78125 34.625 
Q 24.75 34.625 20.71875 30.859375 
Q 16.703125 27.09375 16.703125 20.515625 
Q 16.703125 13.921875 20.71875 10.15625 
Q 24.75 6.390625 31.78125 6.390625 
Q 38.8125 6.390625 42.859375 10.171875 
Q 46.921875 13.96875 46.921875 20.515625 
Q 46.921875 27.09375 42.890625 30.859375 
Q 38.875 34.625 31.78125 34.625 
z
M 21.921875 38.8125 
Q 15.578125 40.375 12.03125 44.71875 
Q 8.5 49.078125 8.5 55.328125 
Q 8.5 64.0625 14.71875 69.140625 
Q 20.953125 74.21875 31.78125 74.21875 
Q 42.671875 74.21875 48.875 69.140625 
Q 55.078125 64.0625 55.078125 55.328125 
Q 55.078125 49.078125 51.53125 44.71875 
Q 48 40.375 41.703125 38.8125 
Q 48.828125 37.15625 52.796875 32.3125 
Q 56.78125 27.484375 56.78125 20.515625 
Q 56.78125 9.90625 50.3125 4.234375 
Q 43.84375 -1.421875 31.78125 -1.421875 
Q 19.734375 -1.421875 13.25 4.234375 
Q 6.78125 9.90625 6.78125 20.515625 
Q 6.78125 27.484375 10.78125 32.3125 
Q 14.796875 37.15625 21.921875 38.8125 
z
M 18.3125 54.390625 
Q 18.3125 48.734375 21.84375 45.5625 
Q 25.390625 42.390625 31.78125 42.390625 
Q 38.140625 42.390625 41.71875 45.5625 
Q 45.3125 48.734375 45.3125 54.390625 
Q 45.3125 60.0625 41.71875 63.234375 
Q 38.140625 66.40625 31.78125 66.40625 
Q 25.390625 66.40625 21.84375 63.234375 
Q 18.3125 60.0625 18.3125 54.390625 
z
" id="DejaVuSans-56"/>
      </defs>
      <g transform="translate(393.280114 327.798437)scale(0.1 -0.1)">
       <use xlink:href="#DejaVuSans-56"/>
      </g>
     </g>
    </g>
    <g id="xtick_6">
     <g id="line2d_6">
      <g>
       <use style="stroke:#000000;stroke-width:0.8;" x="473.852273" xlink:href="#md2b03c8c1e" y="313.2"/>
      </g>
     </g>
     <g id="text_6">
      <!-- 10 -->
      <defs>
       <path d="M 12.40625 8.296875 
L 28.515625 8.296875 
L 28.515625 63.921875 
L 10.984375 60.40625 
L 10.984375 69.390625 
L 28.421875 72.90625 
L 38.28125 72.90625 
L 38.28125 8.296875 
L 54.390625 8.296875 
L 54.390625 0 
L 12.40625 0 
z
" id="DejaVuSans-49"/>
      </defs>
      <g transform="translate(467.489773 327.798437)scale(0.1 -0.1)">
       <use xlink:href="#DejaVuSans-49"/>
       <use x="63.623047" xlink:href="#DejaVuSans-48"/>
      </g>
     </g>
    </g>
    <g id="text_7">
     <!-- Time /s  -->
     <defs>
      <path d="M -0.296875 72.90625 
L 61.375 72.90625 
L 61.375 64.59375 
L 35.5 64.59375 
L 35.5 0 
L 25.59375 0 
L 25.59375 64.59375 
L -0.296875 64.59375 
z
" id="DejaVuSans-84"/>
      <path d="M 9.421875 54.6875 
L 18.40625 54.6875 
L 18.40625 0 
L 9.421875 0 
z
M 9.421875 75.984375 
L 18.40625 75.984375 
L 18.40625 64.59375 
L 9.421875 64.59375 
z
" id="DejaVuSans-105"/>
      <path d="M 52 44.1875 
Q 55.375 50.25 60.0625 53.125 
Q 64.75 56 71.09375 56 
Q 79.640625 56 84.28125 50.015625 
Q 88.921875 44.046875 88.921875 33.015625 
L 88.921875 0 
L 79.890625 0 
L 79.890625 32.71875 
Q 79.890625 40.578125 77.09375 44.375 
Q 74.3125 48.1875 68.609375 48.1875 
Q 61.625 48.1875 57.5625 43.546875 
Q 53.515625 38.921875 53.515625 30.90625 
L 53.515625 0 
L 44.484375 0 
L 44.484375 32.71875 
Q 44.484375 40.625 41.703125 44.40625 
Q 38.921875 48.1875 33.109375 48.1875 
Q 26.21875 48.1875 22.15625 43.53125 
Q 18.109375 38.875 18.109375 30.90625 
L 18.109375 0 
L 9.078125 0 
L 9.078125 54.6875 
L 18.109375 54.6875 
L 18.109375 46.1875 
Q 21.1875 51.21875 25.484375 53.609375 
Q 29.78125 56 35.6875 56 
Q 41.65625 56 45.828125 52.96875 
Q 50 49.953125 52 44.1875 
z
" id="DejaVuSans-109"/>
      <path d="M 56.203125 29.59375 
L 56.203125 25.203125 
L 14.890625 25.203125 
Q 15.484375 15.921875 20.484375 11.0625 
Q 25.484375 6.203125 34.421875 6.203125 
Q 39.59375 6.203125 44.453125 7.46875 
Q 49.3125 8.734375 54.109375 11.28125 
L 54.109375 2.78125 
Q 49.265625 0.734375 44.1875 -0.34375 
Q 39.109375 -1.421875 33.890625 -1.421875 
Q 20.796875 -1.421875 13.15625 6.1875 
Q 5.515625 13.8125 5.515625 26.8125 
Q 5.515625 40.234375 12.765625 48.109375 
Q 20.015625 56 32.328125 56 
Q 43.359375 56 49.78125 48.890625 
Q 56.203125 41.796875 56.203125 29.59375 
z
M 47.21875 32.234375 
Q 47.125 39.59375 43.09375 43.984375 
Q 39.0625 48.390625 32.421875 48.390625 
Q 24.90625 48.390625 20.390625 44.140625 
Q 15.875 39.890625 15.1875 32.171875 
z
" id="DejaVuSans-101"/>
      <path id="DejaVuSans-32"/>
      <path d="M 25.390625 72.90625 
L 33.6875 72.90625 
L 8.296875 -9.28125 
L 0 -9.28125 
z
" id="DejaVuSans-47"/>
      <path d="M 44.28125 53.078125 
L 44.28125 44.578125 
Q 40.484375 46.53125 36.375 47.5 
Q 32.28125 48.484375 27.875 48.484375 
Q 21.1875 48.484375 17.84375 46.4375 
Q 14.5 44.390625 14.5 40.28125 
Q 14.5 37.15625 16.890625 35.375 
Q 19.28125 33.59375 26.515625 31.984375 
L 29.59375 31.296875 
Q 39.15625 29.25 43.1875 25.515625 
Q 47.21875 21.78125 47.21875 15.09375 
Q 47.21875 7.46875 41.1875 3.015625 
Q 35.15625 -1.421875 24.609375 -1.421875 
Q 20.21875 -1.421875 15.453125 -0.5625 
Q 10.6875 0.296875 5.421875 2 
L 5.421875 11.28125 
Q 10.40625 8.6875 15.234375 7.390625 
Q 20.0625 6.109375 24.8125 6.109375 
Q 31.15625 6.109375 34.5625 8.28125 
Q 37.984375 10.453125 37.984375 14.40625 
Q 37.984375 18.0625 35.515625 20.015625 
Q 33.0625 21.96875 24.703125 23.78125 
L 21.578125 24.515625 
Q 13.234375 26.265625 9.515625 29.90625 
Q 5.8125 33.546875 5.8125 39.890625 
Q 5.8125 47.609375 11.28125 51.796875 
Q 16.75 56 26.8125 56 
Q 31.78125 56 36.171875 55.265625 
Q 40.578125 54.546875 44.28125 53.078125 
z
" id="DejaVuSans-115"/>
     </defs>
     <g transform="translate(250.823828 345.275781)scale(0.15 -0.15)">
      <use xlink:href="#DejaVuSans-84"/>
      <use x="57.958984" xlink:href="#DejaVuSans-105"/>
      <use x="85.742188" xlink:href="#DejaVuSans-109"/>
      <use x="183.154297" xlink:href="#DejaVuSans-101"/>
      <use x="244.677734" xlink:href="#DejaVuSans-32"/>
      <use x="276.464844" xlink:href="#DejaVuSans-47"/>
      <use x="310.15625" xlink:href="#DejaVuSans-115"/>
      <use x="362.255859" xlink:href="#DejaVuSans-32"/>
     </g>
    </g>
   </g>
   <g id="matplotlib.axis_2">
    <g id="ytick_1">
     <g id="line2d_7">
      <defs>
       <path d="M 0 0 
L -3.5 0 
" id="mb9bb8c1f9f" style="stroke:#000000;stroke-width:0.8;"/>
      </defs>
      <g>
       <use style="stroke:#000000;stroke-width:0.8;" x="67.55" xlink:href="#mb9bb8c1f9f" y="299.455225"/>
      </g>
     </g>
     <g id="text_8">
      <!-- −1.00 -->
      <defs>
       <path d="M 10.59375 35.5 
L 73.1875 35.5 
L 73.1875 27.203125 
L 10.59375 27.203125 
z
" id="DejaVuSans-8722"/>
       <path d="M 10.6875 12.40625 
L 21 12.40625 
L 21 0 
L 10.6875 0 
z
" id="DejaVuSans-46"/>
      </defs>
      <g transform="translate(29.904687 303.254444)scale(0.1 -0.1)">
       <use xlink:href="#DejaVuSans-8722"/>
       <use x="83.789062" xlink:href="#DejaVuSans-49"/>
       <use x="147.412109" xlink:href="#DejaVuSans-46"/>
       <use x="179.199219" xlink:href="#DejaVuSans-48"/>
       <use x="242.822266" xlink:href="#DejaVuSans-48"/>
      </g>
     </g>
    </g>
    <g id="ytick_2">
     <g id="line2d_8">
      <g>
       <use style="stroke:#000000;stroke-width:0.8;" x="67.55" xlink:href="#mb9bb8c1f9f" y="265.091504"/>
      </g>
     </g>
     <g id="text_9">
      <!-- −0.75 -->
      <defs>
       <path d="M 8.203125 72.90625 
L 55.078125 72.90625 
L 55.078125 68.703125 
L 28.609375 0 
L 18.3125 0 
L 43.21875 64.59375 
L 8.203125 64.59375 
z
" id="DejaVuSans-55"/>
       <path d="M 10.796875 72.90625 
L 49.515625 72.90625 
L 49.515625 64.59375 
L 19.828125 64.59375 
L 19.828125 46.734375 
Q 21.96875 47.46875 24.109375 47.828125 
Q 26.265625 48.1875 28.421875 48.1875 
Q 40.625 48.1875 47.75 41.5 
Q 54.890625 34.8125 54.890625 23.390625 
Q 54.890625 11.625 47.5625 5.09375 
Q 40.234375 -1.421875 26.90625 -1.421875 
Q 22.3125 -1.421875 17.546875 -0.640625 
Q 12.796875 0.140625 7.71875 1.703125 
L 7.71875 11.625 
Q 12.109375 9.234375 16.796875 8.0625 
Q 21.484375 6.890625 26.703125 6.890625 
Q 35.15625 6.890625 40.078125 11.328125 
Q 45.015625 15.765625 45.015625 23.390625 
Q 45.015625 31 40.078125 35.4375 
Q 35.15625 39.890625 26.703125 39.890625 
Q 22.75 39.890625 18.8125 39.015625 
Q 14.890625 38.140625 10.796875 36.28125 
z
" id="DejaVuSans-53"/>
      </defs>
      <g transform="translate(29.904687 268.890723)scale(0.1 -0.1)">
       <use xlink:href="#DejaVuSans-8722"/>
       <use x="83.789062" xlink:href="#DejaVuSans-48"/>
       <use x="147.412109" xlink:href="#DejaVuSans-46"/>
       <use x="179.199219" xlink:href="#DejaVuSans-55"/>
       <use x="242.822266" xlink:href="#DejaVuSans-53"/>
      </g>
     </g>
    </g>
    <g id="ytick_3">
     <g id="line2d_9">
      <g>
       <use style="stroke:#000000;stroke-width:0.8;" x="67.55" xlink:href="#mb9bb8c1f9f" y="230.727782"/>
      </g>
     </g>
     <g id="text_10">
      <!-- −0.50 -->
      <g transform="translate(29.904687 234.527001)scale(0.1 -0.1)">
       <use xlink:href="#DejaVuSans-8722"/>
       <use x="83.789062" xlink:href="#DejaVuSans-48"/>
       <use x="147.412109" xlink:href="#DejaVuSans-46"/>
       <use x="179.199219" xlink:href="#DejaVuSans-53"/>
       <use x="242.822266" xlink:href="#DejaVuSans-48"/>
      </g>
     </g>
    </g>
    <g id="ytick_4">
     <g id="line2d_10">
      <g>
       <use style="stroke:#000000;stroke-width:0.8;" x="67.55" xlink:href="#mb9bb8c1f9f" y="196.364061"/>
      </g>
     </g>
     <g id="text_11">
      <!-- −0.25 -->
      <g transform="translate(29.904687 200.16328)scale(0.1 -0.1)">
       <use xlink:href="#DejaVuSans-8722"/>
       <use x="83.789062" xlink:href="#DejaVuSans-48"/>
       <use x="147.412109" xlink:href="#DejaVuSans-46"/>
       <use x="179.199219" xlink:href="#DejaVuSans-50"/>
       <use x="242.822266" xlink:href="#DejaVuSans-53"/>
      </g>
     </g>
    </g>
    <g id="ytick_5">
     <g id="line2d_11">
      <g>
       <use style="stroke:#000000;stroke-width:0.8;" x="67.55" xlink:href="#mb9bb8c1f9f" y="162.00034"/>
      </g>
     </g>
     <g id="text_12">
      <!-- 0.00 -->
      <g transform="translate(38.284375 165.799559)scale(0.1 -0.1)">
       <use xlink:href="#DejaVuSans-48"/>
       <use x="63.623047" xlink:href="#DejaVuSans-46"/>
       <use x="95.410156" xlink:href="#DejaVuSans-48"/>
       <use x="159.033203" xlink:href="#DejaVuSans-48"/>
      </g>
     </g>
    </g>
    <g id="ytick_6">
     <g id="line2d_12">
      <g>
       <use style="stroke:#000000;stroke-width:0.8;" x="67.55" xlink:href="#mb9bb8c1f9f" y="127.636619"/>
      </g>
     </g>
     <g id="text_13">
      <!-- 0.25 -->
      <g transform="translate(38.284375 131.435837)scale(0.1 -0.1)">
       <use xlink:href="#DejaVuSans-48"/>
       <use x="63.623047" xlink:href="#DejaVuSans-46"/>
       <use x="95.410156" xlink:href="#DejaVuSans-50"/>
       <use x="159.033203" xlink:href="#DejaVuSans-53"/>
      </g>
     </g>
    </g>
    <g id="ytick_7">
     <g id="line2d_13">
      <g>
       <use style="stroke:#000000;stroke-width:0.8;" x="67.55" xlink:href="#mb9bb8c1f9f" y="93.272897"/>
      </g>
     </g>
     <g id="text_14">
      <!-- 0.50 -->
      <g transform="translate(38.284375 97.072116)scale(0.1 -0.1)">
       <use xlink:href="#DejaVuSans-48"/>
       <use x="63.623047" xlink:href="#DejaVuSans-46"/>
       <use x="95.410156" xlink:href="#DejaVuSans-53"/>
       <use x="159.033203" xlink:href="#DejaVuSans-48"/>
      </g>
     </g>
    </g>
    <g id="ytick_8">
     <g id="line2d_14">
      <g>
       <use style="stroke:#000000;stroke-width:0.8;" x="67.55" xlink:href="#mb9bb8c1f9f" y="58.909176"/>
      </g>
     </g>
     <g id="text_15">
      <!-- 0.75 -->
      <g transform="translate(38.284375 62.708395)scale(0.1 -0.1)">
       <use xlink:href="#DejaVuSans-48"/>
       <use x="63.623047" xlink:href="#DejaVuSans-46"/>
       <use x="95.410156" xlink:href="#DejaVuSans-55"/>
       <use x="159.033203" xlink:href="#DejaVuSans-53"/>
      </g>
     </g>
    </g>
    <g id="ytick_9">
     <g id="line2d_15">
      <g>
       <use style="stroke:#000000;stroke-width:0.8;" x="67.55" xlink:href="#mb9bb8c1f9f" y="24.545455"/>
      </g>
     </g>
     <g id="text_16">
      <!-- 1.00 -->
      <g transform="translate(38.284375 28.344673)scale(0.1 -0.1)">
       <use xlink:href="#DejaVuSans-49"/>
       <use x="63.623047" xlink:href="#DejaVuSans-46"/>
       <use x="95.410156" xlink:href="#DejaVuSans-48"/>
       <use x="159.033203" xlink:href="#DejaVuSans-48"/>
      </g>
     </g>
    </g>
    <g id="text_17">
     <!-- Displacement -->
     <defs>
      <path d="M 19.671875 64.796875 
L 19.671875 8.109375 
L 31.59375 8.109375 
Q 46.6875 8.109375 53.6875 14.9375 
Q 60.6875 21.78125 60.6875 36.53125 
Q 60.6875 51.171875 53.6875 57.984375 
Q 46.6875 64.796875 31.59375 64.796875 
z
M 9.8125 72.90625 
L 30.078125 72.90625 
Q 51.265625 72.90625 61.171875 64.09375 
Q 71.09375 55.28125 71.09375 36.53125 
Q 71.09375 17.671875 61.125 8.828125 
Q 51.171875 0 30.078125 0 
L 9.8125 0 
z
" id="DejaVuSans-68"/>
      <path d="M 18.109375 8.203125 
L 18.109375 -20.796875 
L 9.078125 -20.796875 
L 9.078125 54.6875 
L 18.109375 54.6875 
L 18.109375 46.390625 
Q 20.953125 51.265625 25.265625 53.625 
Q 29.59375 56 35.59375 56 
Q 45.5625 56 51.78125 48.09375 
Q 58.015625 40.1875 58.015625 27.296875 
Q 58.015625 14.40625 51.78125 6.484375 
Q 45.5625 -1.421875 35.59375 -1.421875 
Q 29.59375 -1.421875 25.265625 0.953125 
Q 20.953125 3.328125 18.109375 8.203125 
z
M 48.6875 27.296875 
Q 48.6875 37.203125 44.609375 42.84375 
Q 40.53125 48.484375 33.40625 48.484375 
Q 26.265625 48.484375 22.1875 42.84375 
Q 18.109375 37.203125 18.109375 27.296875 
Q 18.109375 17.390625 22.1875 11.75 
Q 26.265625 6.109375 33.40625 6.109375 
Q 40.53125 6.109375 44.609375 11.75 
Q 48.6875 17.390625 48.6875 27.296875 
z
" id="DejaVuSans-112"/>
      <path d="M 9.421875 75.984375 
L 18.40625 75.984375 
L 18.40625 0 
L 9.421875 0 
z
" id="DejaVuSans-108"/>
      <path d="M 34.28125 27.484375 
Q 23.390625 27.484375 19.1875 25 
Q 14.984375 22.515625 14.984375 16.5 
Q 14.984375 11.71875 18.140625 8.90625 
Q 21.296875 6.109375 26.703125 6.109375 
Q 34.1875 6.109375 38.703125 11.40625 
Q 43.21875 16.703125 43.21875 25.484375 
L 43.21875 27.484375 
z
M 52.203125 31.203125 
L 52.203125 0 
L 43.21875 0 
L 43.21875 8.296875 
Q 40.140625 3.328125 35.546875 0.953125 
Q 30.953125 -1.421875 24.3125 -1.421875 
Q 15.921875 -1.421875 10.953125 3.296875 
Q 6 8.015625 6 15.921875 
Q 6 25.140625 12.171875 29.828125 
Q 18.359375 34.515625 30.609375 34.515625 
L 43.21875 34.515625 
L 43.21875 35.40625 
Q 43.21875 41.609375 39.140625 45 
Q 35.0625 48.390625 27.6875 48.390625 
Q 23 48.390625 18.546875 47.265625 
Q 14.109375 46.140625 10.015625 43.890625 
L 10.015625 52.203125 
Q 14.9375 54.109375 19.578125 55.046875 
Q 24.21875 56 28.609375 56 
Q 40.484375 56 46.34375 49.84375 
Q 52.203125 43.703125 52.203125 31.203125 
z
" id="DejaVuSans-97"/>
      <path d="M 48.78125 52.59375 
L 48.78125 44.1875 
Q 44.96875 46.296875 41.140625 47.34375 
Q 37.3125 48.390625 33.40625 48.390625 
Q 24.65625 48.390625 19.8125 42.84375 
Q 14.984375 37.3125 14.984375 27.296875 
Q 14.984375 17.28125 19.8125 11.734375 
Q 24.65625 6.203125 33.40625 6.203125 
Q 37.3125 6.203125 41.140625 7.25 
Q 44.96875 8.296875 48.78125 10.40625 
L 48.78125 2.09375 
Q 45.015625 0.34375 40.984375 -0.53125 
Q 36.96875 -1.421875 32.421875 -1.421875 
Q 20.0625 -1.421875 12.78125 6.34375 
Q 5.515625 14.109375 5.515625 27.296875 
Q 5.515625 40.671875 12.859375 48.328125 
Q 20.21875 56 33.015625 56 
Q 37.15625 56 41.109375 55.140625 
Q 45.0625 54.296875 48.78125 52.59375 
z
" id="DejaVuSans-99"/>
      <path d="M 54.890625 33.015625 
L 54.890625 0 
L 45.90625 0 
L 45.90625 32.71875 
Q 45.90625 40.484375 42.875 44.328125 
Q 39.84375 48.1875 33.796875 48.1875 
Q 26.515625 48.1875 22.3125 43.546875 
Q 18.109375 38.921875 18.109375 30.90625 
L 18.109375 0 
L 9.078125 0 
L 9.078125 54.6875 
L 18.109375 54.6875 
L 18.109375 46.1875 
Q 21.34375 51.125 25.703125 53.5625 
Q 30.078125 56 35.796875 56 
Q 45.21875 56 50.046875 50.171875 
Q 54.890625 44.34375 54.890625 33.015625 
z
" id="DejaVuSans-110"/>
      <path d="M 18.3125 70.21875 
L 18.3125 54.6875 
L 36.8125 54.6875 
L 36.8125 47.703125 
L 18.3125 47.703125 
L 18.3125 18.015625 
Q 18.3125 11.328125 20.140625 9.421875 
Q 21.96875 7.515625 27.59375 7.515625 
L 36.8125 7.515625 
L 36.8125 0 
L 27.59375 0 
Q 17.1875 0 13.234375 3.875 
Q 9.28125 7.765625 9.28125 18.015625 
L 9.28125 47.703125 
L 2.6875 47.703125 
L 2.6875 54.6875 
L 9.28125 54.6875 
L 9.28125 70.21875 
z
" id="DejaVuSans-116"/>
     </defs>
     <g transform="translate(22.785156 213.558984)rotate(-90)scale(0.15 -0.15)">
      <use xlink:href="#DejaVuSans-68"/>
      <use x="77.001953" xlink:href="#DejaVuSans-105"/>
      <use x="104.785156" xlink:href="#DejaVuSans-115"/>
      <use x="156.884766" xlink:href="#DejaVuSans-112"/>
      <use x="220.361328" xlink:href="#DejaVuSans-108"/>
      <use x="248.144531" xlink:href="#DejaVuSans-97"/>
      <use x="309.423828" xlink:href="#DejaVuSans-99"/>
      <use x="364.404297" xlink:href="#DejaVuSans-101"/>
      <use x="425.927734" xlink:href="#DejaVuSans-109"/>
      <use x="523.339844" xlink:href="#DejaVuSans-101"/>
      <use x="584.863281" xlink:href="#DejaVuSans-110"/>
      <use x="648.242188" xlink:href="#DejaVuSans-116"/>
     </g>
    </g>
   </g>
   <g id="line2d_16">
    <path clip-path="url(#p2b095fc152)" d="M 86.897727 162.00034 
L 88.059753 86.120382 
L 88.834437 48.295056 
L 89.221779 35.53723 
L 89.60912 27.581498 
L 89.996462 24.727729 
L 90.383804 27.081347 
L 90.771146 34.549418 
L 91.158488 46.844333 
L 91.933172 83.864579 
L 93.095197 158.990074 
L 94.257223 234.829708 
L 95.031907 273.060321 
L 95.419249 286.144045 
L 95.806591 294.499625 
L 96.193933 297.818159 
L 96.581274 295.983013 
L 96.968616 289.073922 
L 97.355958 277.363568 
L 98.130642 241.52286 
L 99.292668 167.927905 
L 100.454693 92.932282 
L 101.229377 54.716546 
L 101.616719 41.457582 
L 102.004061 32.805334 
L 102.391403 29.074003 
L 102.778745 30.389591 
L 103.166087 36.685691 
L 103.553428 47.70664 
L 104.328112 82.023187 
L 105.490138 153.339718 
L 106.652164 226.688739 
L 107.426847 264.454425 
L 107.814189 277.726309 
L 108.201531 286.558086 
L 108.588873 290.634462 
L 108.976215 289.822429 
L 109.363557 284.175513 
L 109.750899 273.930878 
L 110.525582 241.449296 
L 111.687608 173.121859 
L 112.849634 102.210876 
L 113.624317 65.339742 
L 114.011659 52.226713 
L 114.399001 43.344821 
L 114.786343 39.005848 
L 115.173685 39.346955 
L 115.561027 44.326491 
L 115.948369 53.726665 
L 116.723053 84.0997 
L 117.885078 148.773037 
L 119.434446 235.704104 
L 120.20913 264.779694 
L 120.596471 273.571934 
L 120.983813 278.077728 
L 121.371155 278.159058 
L 121.758497 273.847239 
L 122.145839 265.340425 
L 122.920523 237.30951 
L 124.082548 176.901856 
L 125.631916 94.925781 
L 126.4066 67.151664 
L 126.793942 58.597055 
L 127.181284 54.031915 
L 127.568625 53.591436 
L 127.955967 57.252606 
L 128.343309 64.836581 
L 129.117993 90.333942 
L 129.892677 125.986798 
L 131.829386 222.019858 
L 132.60407 248.097771 
L 132.991412 256.260876 
L 133.378754 260.76805 
L 133.766096 261.490923 
L 134.153438 258.446692 
L 134.540779 251.795783 
L 134.928121 241.83404 
L 135.702805 213.756491 
L 138.414198 96.008605 
L 139.188882 77.735983 
L 139.576224 73.411862 
L 139.963566 72.495229 
L 140.350908 74.97182 
L 140.73825 80.6982 
L 141.125592 89.409094 
L 141.900275 114.189717 
L 144.611668 219.050013 
L 145.386352 235.545441 
L 145.773694 239.555879 
L 146.161036 240.567572 
L 146.548378 238.595062 
L 146.93572 233.766707 
L 147.323062 226.31777 
L 148.097745 204.964606 
L 150.809139 114.148082 
L 151.583822 99.759708 
L 151.971164 96.196754 
L 152.358506 95.196763 
L 152.745848 96.741435 
L 153.13319 100.715142 
L 153.520532 106.91149 
L 154.295216 124.755427 
L 157.006609 200.529333 
L 157.781293 212.494734 
L 158.168635 215.475693 
L 158.555976 216.35133 
L 158.943318 215.14737 
L 159.33066 211.969428 
L 159.718002 206.996716 
L 160.492686 192.695254 
L 163.204079 132.792729 
L 163.978763 123.546918 
L 164.366105 121.280653 
L 164.753447 120.645617 
L 165.140789 121.604883 
L 165.52813 124.059833 
L 165.915472 127.856261 
L 166.690156 138.629565 
L 169.014207 177.321714 
L 169.788891 185.692539 
L 170.176233 188.26665 
L 170.563575 189.689872 
L 170.950917 189.96685 
L 171.338259 189.149512 
L 171.725601 187.332731 
L 172.500284 181.257543 
L 173.66231 168.723376 
L 174.824336 156.645055 
L 175.599019 150.93876 
L 175.986361 149.075591 
L 176.373703 147.919154 
L 176.761045 147.460465 
L 177.148387 147.657784 
L 177.535729 148.440438 
L 178.310413 151.365826 
L 180.634464 162.40027 
L 181.021806 163.470317 
L 181.409148 164.160721 
L 181.79649 164.467694 
L 182.183832 164.413441 
L 182.571173 164.044035 
L 183.345857 162.641807 
L 184.507883 160.239422 
L 184.895225 159.736274 
L 185.282567 159.517313 
L 185.669909 159.63934 
L 186.05725 160.136844 
L 186.444592 161.019212 
L 187.219276 163.843489 
L 188.381302 169.718662 
L 189.155986 173.500591 
L 189.930669 176.01932 
L 190.318011 176.519763 
L 190.705353 176.39621 
L 191.092695 175.59189 
L 191.480037 174.081053 
L 191.867379 171.87207 
L 192.642063 165.571256 
L 193.804088 153.08526 
L 194.966114 140.970477 
L 195.740798 135.642081 
L 196.12814 134.310696 
L 196.515481 134.031218 
L 196.902823 134.877702 
L 197.290165 136.87886 
L 197.677507 140.014671 
L 198.452191 149.360566 
L 199.614216 168.614446 
L 200.776242 188.386089 
L 201.550926 198.198719 
L 201.938268 201.34686 
L 202.32561 203.069939 
L 202.712952 203.240642 
L 203.100293 201.790576 
L 203.487635 198.715214 
L 203.874977 194.076314 
L 204.649661 180.681931 
L 205.811687 153.965591 
L 206.973712 127.280083 
L 207.748396 114.307107 
L 208.135738 110.205102 
L 208.52308 107.996168 
L 208.910422 107.823685 
L 209.297764 109.753924 
L 209.685106 113.77126 
L 210.072447 119.776602 
L 210.847131 136.951477 
L 212.009157 170.809519 
L 213.171183 204.274429 
L 213.945866 220.449 
L 214.333208 225.565147 
L 214.72055 228.344658 
L 215.107892 228.625481 
L 215.495234 226.340058 
L 215.882576 221.520051 
L 216.269918 214.297214 
L 217.044601 193.648076 
L 218.206627 153.04895 
L 219.368653 113.022583 
L 220.143337 93.649475 
L 220.530678 87.475123 
L 220.91802 84.051753 
L 221.305362 83.5623 
L 221.692704 86.078814 
L 222.080046 91.55769 
L 222.467388 99.839378 
L 223.242072 123.623215 
L 224.404097 170.488296 
L 225.566123 216.776209 
L 226.340807 239.299055 
L 226.728149 246.558051 
L 227.11549 250.685309 
L 227.502832 251.475259 
L 227.890174 248.848438 
L 228.277516 242.856386 
L 228.664858 233.681495 
L 229.439542 207.130577 
L 230.601567 154.542875 
L 231.763593 102.372647 
L 232.538277 76.795374 
L 232.925619 68.444051 
L 233.312961 63.567719 
L 233.700303 62.395819 
L 234.087644 65.017801 
L 234.474986 71.378023 
L 234.862328 81.276207 
L 235.637012 110.204122 
L 236.799038 167.910075 
L 237.961063 225.507808 
L 238.735747 253.997624 
L 239.123089 263.429361 
L 239.510431 269.08377 
L 239.897773 270.706858 
L 240.285115 268.197022 
L 240.672457 261.610434 
L 241.059798 251.160378 
L 241.834482 220.26221 
L 242.996508 158.095479 
L 244.158534 95.595826 
L 244.933217 64.381297 
L 245.320559 53.901175 
L 245.707901 47.456935 
L 246.095243 45.327215 
L 246.482585 47.627463 
L 246.869927 54.304235 
L 247.257269 65.135948 
L 248.031952 97.586902 
L 249.193978 163.512419 
L 250.356004 230.323424 
L 251.130688 264.030234 
L 251.518029 275.506401 
L 251.905371 282.734198 
L 252.292713 285.410878 
L 252.680055 283.405958 
L 253.067397 276.767288 
L 253.454739 265.720291 
L 254.229423 232.138754 
L 255.391448 163.191851 
L 256.553474 92.71832 
L 257.328158 56.794236 
L 257.7155 44.394541 
L 258.102841 36.407949 
L 258.490183 33.160155 
L 258.877525 34.79731 
L 259.264867 41.279589 
L 259.652209 52.381864 
L 260.426893 86.672979 
L 261.588918 157.877976 
L 262.750944 231.314503 
L 263.525628 269.140981 
L 263.91297 282.371984 
L 264.300312 291.073972 
L 264.687654 294.900106 
L 265.074995 293.688497 
L 265.462337 287.469011 
L 265.849679 276.462731 
L 266.624363 241.876034 
L 267.786389 169.192341 
L 268.948414 93.534766 
L 269.723098 54.157302 
L 270.11044 40.20611 
L 270.497782 30.850581 
L 270.885124 26.456269 
L 271.272466 27.200276 
L 271.659808 33.064113 
L 272.047149 43.834032 
L 272.821833 78.314919 
L 273.983859 151.691717 
L 275.533226 250.740193 
L 276.30791 283.881834 
L 276.695252 293.811096 
L 277.082594 298.7459 
L 277.469936 298.495041 
L 277.857278 293.064779 
L 278.24462 282.658722 
L 279.019303 248.667131 
L 279.793987 201.628083 
L 281.730697 75.333549 
L 282.50538 41.341958 
L 282.892722 30.9359 
L 283.280064 25.505639 
L 283.667406 25.25478 
L 284.054748 30.189583 
L 284.44209 40.118846 
L 285.216774 73.260487 
L 285.991457 119.66002 
L 287.928167 245.68576 
L 288.702851 280.166648 
L 289.090192 290.936567 
L 289.477534 296.800403 
L 289.864876 297.544411 
L 290.252218 293.150099 
L 290.63956 283.794569 
L 291.026902 269.843378 
L 291.801586 230.465914 
L 294.512979 62.926573 
L 295.287663 36.531669 
L 295.675005 30.312182 
L 296.062346 29.100574 
L 296.449688 32.926708 
L 296.83703 41.628696 
L 297.224372 54.859698 
L 297.999056 92.686177 
L 299.548423 191.37438 
L 300.323107 237.327701 
L 301.097791 271.618815 
L 301.485133 282.721091 
L 301.872475 289.203369 
L 302.259817 290.840524 
L 302.647159 287.59273 
L 303.0345 279.606138 
L 303.421842 267.206444 
L 304.196526 231.28236 
L 305.358552 160.808828 
L 306.520577 91.861926 
L 307.295261 58.280389 
L 307.682603 47.233392 
L 308.069945 40.594722 
L 308.457287 38.589802 
L 308.844629 41.266481 
L 309.231971 48.494278 
L 309.619312 59.970445 
L 310.393996 93.677255 
L 311.556022 160.488261 
L 312.718048 226.413777 
L 313.492731 258.864732 
L 313.880073 269.696445 
L 314.267415 276.373216 
L 314.654757 278.673465 
L 315.042099 276.543745 
L 315.429441 270.099505 
L 315.816783 259.619383 
L 316.591466 228.404853 
L 317.753492 165.9052 
L 318.915518 103.738469 
L 319.690202 72.840302 
L 320.077543 62.390245 
L 320.464885 55.803658 
L 320.852227 53.293822 
L 321.239569 54.916909 
L 321.626911 60.571319 
L 322.014253 70.003056 
L 322.788937 98.492871 
L 323.950962 156.090605 
L 325.112988 213.796558 
L 325.887672 242.724472 
L 326.275014 252.622657 
L 326.662356 258.982878 
L 327.049697 261.604861 
L 327.437039 260.43296 
L 327.824381 255.556628 
L 328.211723 247.205306 
L 328.986407 221.628033 
L 330.148433 169.457805 
L 331.310458 116.870102 
L 332.085142 90.319185 
L 332.472484 81.144294 
L 332.859826 75.152241 
L 333.247168 72.525421 
L 333.63451 73.315371 
L 334.021851 77.442629 
L 334.409193 84.701625 
L 335.183877 107.22447 
L 336.345903 153.512383 
L 337.507928 200.377465 
L 338.282612 224.161301 
L 338.669954 232.442989 
L 339.057296 237.921866 
L 339.444638 240.438379 
L 339.83198 239.948927 
L 340.219322 236.525557 
L 340.606663 230.351205 
L 341.381347 210.978096 
L 342.543373 170.95173 
L 343.705399 130.352604 
L 344.480082 109.703465 
L 344.867424 102.480629 
L 345.254766 97.660622 
L 345.642108 95.375199 
L 346.02945 95.656021 
L 346.416792 98.435533 
L 346.804134 103.55168 
L 347.578817 119.72625 
L 348.740843 153.19116 
L 349.902869 187.049203 
L 350.677553 204.224078 
L 351.064894 210.229419 
L 351.452236 214.246756 
L 351.839578 216.176994 
L 352.22692 216.004512 
L 352.614262 213.795577 
L 353.001604 209.693572 
L 353.776288 196.720597 
L 354.938313 170.035088 
L 356.100339 143.318749 
L 356.875023 129.924365 
L 357.262365 125.285465 
L 357.649707 122.210103 
L 358.037048 120.760038 
L 358.42439 120.93074 
L 358.811732 122.653819 
L 359.199074 125.80196 
L 359.973758 135.614591 
L 361.135784 155.386234 
L 362.297809 174.640114 
L 363.072493 183.986009 
L 363.459835 187.121819 
L 363.847177 189.122978 
L 364.234519 189.969462 
L 364.62186 189.689984 
L 365.009202 188.358599 
L 365.396544 186.089488 
L 366.171228 179.353722 
L 368.495279 154.991711 
L 369.269963 149.919627 
L 369.657305 148.408789 
L 370.044647 147.60447 
L 370.431989 147.480917 
L 370.819331 147.98136 
L 371.206673 149.022496 
L 371.981356 152.295387 
L 373.918066 161.731375 
L 374.69275 163.863836 
L 375.080091 164.36134 
L 375.467433 164.483366 
L 375.854775 164.264405 
L 376.242117 163.761258 
L 377.016801 162.216213 
L 377.791485 160.574676 
L 378.178827 159.956645 
L 378.566168 159.587239 
L 378.95351 159.532986 
L 379.340852 159.839958 
L 379.728194 160.530363 
L 380.115536 161.60041 
L 380.89022 164.73158 
L 382.826929 174.286784 
L 383.214271 175.560242 
L 383.601613 176.342895 
L 383.988955 176.540215 
L 384.376297 176.081526 
L 384.763639 174.925089 
L 385.150981 173.06192 
L 385.925664 167.355625 
L 387.08769 155.277303 
L 388.249716 142.743137 
L 389.024399 136.667948 
L 389.411741 134.851168 
L 389.799083 134.03383 
L 390.186425 134.310808 
L 390.573767 135.73403 
L 390.961109 138.308141 
L 391.735793 146.678965 
L 392.510476 158.47747 
L 394.447186 191.208121 
L 395.22187 199.940847 
L 395.609211 202.395797 
L 395.996553 203.355063 
L 396.383895 202.720026 
L 396.771237 200.453761 
L 397.158579 196.584746 
L 397.933263 184.483177 
L 399.095288 158.680324 
L 400.644656 123.527675 
L 401.41934 112.031252 
L 401.806682 108.85331 
L 402.194024 107.64935 
L 402.581365 108.524987 
L 402.968707 111.505946 
L 403.356049 116.534859 
L 404.130733 132.095458 
L 405.292759 164.863601 
L 406.454784 199.245253 
L 407.229468 217.08919 
L 407.61681 223.285538 
L 408.004152 227.259244 
L 408.391494 228.803916 
L 408.778836 227.803926 
L 409.166178 224.240972 
L 409.553519 218.196899 
L 410.328203 199.482936 
L 411.490229 160.168954 
L 412.652255 119.036073 
L 413.426938 97.68291 
L 413.81428 90.233973 
L 414.201622 85.405618 
L 414.588964 83.433108 
L 414.976306 84.4448 
L 415.363648 88.455239 
L 415.75099 95.362599 
L 416.525673 116.895343 
L 417.687699 162.264963 
L 418.849725 209.810963 
L 419.624408 234.591585 
L 420.01175 243.30248 
L 420.399092 249.02886 
L 420.786434 251.505451 
L 421.173776 250.588817 
L 421.561118 246.264697 
L 421.94846 238.650393 
L 422.723144 214.65701 
L 423.885169 163.785964 
L 425.434537 95.020868 
L 426.209221 72.204897 
L 426.596562 65.553988 
L 426.983904 62.509757 
L 427.371246 63.23263 
L 427.758588 67.739804 
L 428.14593 75.902908 
L 428.920614 101.980821 
L 430.082639 157.742611 
L 431.632007 233.666737 
L 432.406691 259.164098 
L 432.794033 266.748074 
L 433.181375 270.409243 
L 433.568716 269.968765 
L 433.956058 265.403625 
L 434.3434 256.849016 
L 435.118084 229.074899 
L 435.892768 190.603612 
L 437.829477 86.69117 
L 438.604161 58.660255 
L 438.991503 50.15344 
L 439.378845 45.841622 
L 439.766187 45.922952 
L 440.153529 50.428745 
L 440.54087 59.220986 
L 441.315554 88.296575 
L 442.090238 128.968423 
L 444.026947 239.900979 
L 444.801631 270.274015 
L 445.188973 279.674188 
L 445.576315 284.653724 
L 445.963657 284.994831 
L 446.350999 280.655859 
L 446.738341 271.773967 
L 447.513024 241.792252 
L 448.287708 199.398894 
L 450.224418 82.551384 
L 450.999101 50.069802 
L 451.386443 39.825167 
L 451.773785 34.17825 
L 452.161127 33.366217 
L 452.548469 37.442593 
L 452.935811 46.274371 
L 453.323153 59.546255 
L 454.097836 97.311941 
L 455.647204 195.933345 
L 456.421888 241.977493 
L 457.196572 276.29404 
L 457.583913 287.314988 
L 457.971255 293.611089 
L 458.358597 294.926677 
L 458.745939 291.195346 
L 459.133281 282.543098 
L 459.520623 269.284133 
L 460.295307 231.068398 
L 461.457332 156.072775 
L 462.619358 82.477819 
L 463.394042 46.637112 
L 463.781384 34.926758 
L 464.168726 28.017667 
L 464.556067 26.182521 
L 464.943409 29.501054 
L 465.330751 37.856635 
L 465.718093 50.940359 
L 466.492777 89.170971 
L 467.654803 165.010605 
L 468.816828 240.136101 
L 469.591512 277.156347 
L 469.978854 289.451261 
L 470.366196 296.919333 
L 470.753538 299.272951 
L 471.14088 296.419182 
L 471.528221 288.46345 
L 471.915563 275.705624 
L 472.690247 237.880298 
L 473.852273 162.00034 
L 473.852273 162.00034 
" style="fill:none;stroke:#0000ff;stroke-linecap:square;stroke-width:1.5;"/>
   </g>
   <g id="line2d_17">
    <path clip-path="url(#p2b095fc152)" d="M 86.897727 24.545455 
L 89.221779 24.643316 
L 91.54583 24.936759 
L 93.869881 25.425368 
L 96.581274 26.241135 
L 99.292668 27.320004 
L 102.004061 28.659883 
L 104.715454 30.258177 
L 107.426847 32.111788 
L 110.138241 34.217124 
L 113.236976 36.926199 
L 116.335711 39.951856 
L 119.434446 43.286435 
L 122.920523 47.396557 
L 126.4066 51.873788 
L 129.892677 56.703789 
L 133.766096 62.465342 
L 137.639515 68.620501 
L 141.900275 75.816696 
L 146.548378 84.13613 
L 151.583822 93.647584 
L 157.006609 104.399543 
L 162.816737 116.412488 
L 169.788891 131.35355 
L 179.085096 151.851485 
L 199.226875 196.426757 
L 206.199029 211.239587 
L 212.396499 223.883044 
L 217.819285 234.436662 
L 222.85473 243.735575 
L 227.502832 251.835826 
L 231.763593 258.812804 
L 235.637012 264.754395 
L 239.510431 270.28965 
L 242.996508 274.905837 
L 246.482585 279.160353 
L 249.968662 283.039571 
L 253.067397 286.162626 
L 256.166132 288.971408 
L 259.264867 291.458807 
L 261.97626 293.366679 
L 264.687654 295.019961 
L 267.399047 296.415451 
L 270.11044 297.550444 
L 272.821833 298.42274 
L 275.533226 299.030649 
L 277.857278 299.340377 
L 280.181329 299.454545 
L 282.50538 299.372993 
L 284.829432 299.095836 
L 287.153483 298.623468 
L 289.864876 297.826561 
L 292.576269 296.766422 
L 295.287663 295.445106 
L 297.999056 293.865173 
L 300.710449 292.029685 
L 303.421842 289.942201 
L 306.520577 287.253147 
L 309.619312 284.247061 
L 312.718048 280.93155 
L 315.816783 277.315008 
L 319.30286 272.897996 
L 322.788937 268.125746 
L 326.662356 262.425238 
L 330.535774 256.327605 
L 334.796535 249.190354 
L 339.444638 240.92972 
L 344.09274 232.219697 
L 349.515527 221.556312 
L 355.325655 209.621441 
L 362.297809 194.750147 
L 371.206673 175.16405 
L 393.672502 125.485852 
L 400.644656 110.749395 
L 406.454784 98.96248 
L 411.877571 88.465156 
L 416.525673 79.917974 
L 421.173776 71.838134 
L 425.434537 64.881502 
L 429.307956 58.959683 
L 433.181375 53.445333 
L 436.667452 48.848862 
L 440.153529 44.614848 
L 443.639606 40.756856 
L 446.738341 37.65322 
L 449.837076 34.864324 
L 452.935811 32.397229 
L 455.647204 30.507426 
L 458.358597 28.872457 
L 461.06999 27.49549 
L 463.781384 26.379194 
L 466.492777 25.525733 
L 469.20417 24.936759 
L 471.528221 24.643316 
L 473.852273 24.545455 
L 473.852273 24.545455 
" style="fill:none;stroke:#ff0000;stroke-dasharray:5.55,2.4;stroke-dashoffset:0;stroke-width:1.5;"/>
   </g>
   <g id="patch_3">
    <path d="M 67.55 313.2 
L 67.55 10.8 
" style="fill:none;stroke:#000000;stroke-linecap:square;stroke-linejoin:miter;stroke-width:0.8;"/>
   </g>
   <g id="patch_4">
    <path d="M 493.2 313.2 
L 493.2 10.8 
" style="fill:none;stroke:#000000;stroke-linecap:square;stroke-linejoin:miter;stroke-width:0.8;"/>
   </g>
   <g id="patch_5">
    <path d="M 67.55 313.2 
L 493.2 313.2 
" style="fill:none;stroke:#000000;stroke-linecap:square;stroke-linejoin:miter;stroke-width:0.8;"/>
   </g>
   <g id="patch_6">
    <path d="M 67.55 10.8 
L 493.2 10.8 
" style="fill:none;stroke:#000000;stroke-linecap:square;stroke-linejoin:miter;stroke-width:0.8;"/>
   </g>
   <g id="legend_1">
    <g id="patch_7">
     <path d="M 354.7225 308.754375 
L 471.912344 308.754375 
Q 474.912344 308.754375 474.912344 305.754375 
L 474.912344 263.22 
Q 474.912344 260.22 471.912344 260.22 
L 354.7225 260.22 
Q 351.7225 260.22 351.7225 263.22 
L 351.7225 305.754375 
Q 351.7225 308.754375 354.7225 308.754375 
z
" style="fill:#ffffff;opacity:0.8;stroke:#cccccc;stroke-linejoin:miter;"/>
    </g>
    <g id="line2d_18">
     <path d="M 357.7225 272.367656 
L 387.7225 272.367656 
" style="fill:none;stroke:#0000ff;stroke-linecap:square;stroke-width:1.5;"/>
    </g>
    <g id="line2d_19"/>
    <g id="text_18">
     <!-- Wave -->
     <defs>
      <path d="M 3.328125 72.90625 
L 13.28125 72.90625 
L 28.609375 11.28125 
L 43.890625 72.90625 
L 54.984375 72.90625 
L 70.3125 11.28125 
L 85.59375 72.90625 
L 95.609375 72.90625 
L 77.296875 0 
L 64.890625 0 
L 49.515625 63.28125 
L 33.984375 0 
L 21.578125 0 
z
" id="DejaVuSans-87"/>
      <path d="M 2.984375 54.6875 
L 12.5 54.6875 
L 29.59375 8.796875 
L 46.6875 54.6875 
L 56.203125 54.6875 
L 35.6875 0 
L 23.484375 0 
z
" id="DejaVuSans-118"/>
     </defs>
     <g transform="translate(399.7225 277.617656)scale(0.15 -0.15)">
      <use xlink:href="#DejaVuSans-87"/>
      <use x="92.501953" xlink:href="#DejaVuSans-97"/>
      <use x="153.78125" xlink:href="#DejaVuSans-118"/>
      <use x="212.960938" xlink:href="#DejaVuSans-101"/>
     </g>
    </g>
    <g id="line2d_20">
     <path d="M 357.7225 294.384844 
L 387.7225 294.384844 
" style="fill:none;stroke:#ff0000;stroke-dasharray:5.55,2.4;stroke-dashoffset:0;stroke-width:1.5;"/>
    </g>
    <g id="line2d_21"/>
    <g id="text_19">
     <!-- Envelope -->
     <defs>
      <path d="M 9.8125 72.90625 
L 55.90625 72.90625 
L 55.90625 64.59375 
L 19.671875 64.59375 
L 19.671875 43.015625 
L 54.390625 43.015625 
L 54.390625 34.71875 
L 19.671875 34.71875 
L 19.671875 8.296875 
L 56.78125 8.296875 
L 56.78125 0 
L 9.8125 0 
z
" id="DejaVuSans-69"/>
      <path d="M 30.609375 48.390625 
Q 23.390625 48.390625 19.1875 42.75 
Q 14.984375 37.109375 14.984375 27.296875 
Q 14.984375 17.484375 19.15625 11.84375 
Q 23.34375 6.203125 30.609375 6.203125 
Q 37.796875 6.203125 41.984375 11.859375 
Q 46.1875 17.53125 46.1875 27.296875 
Q 46.1875 37.015625 41.984375 42.703125 
Q 37.796875 48.390625 30.609375 48.390625 
z
M 30.609375 56 
Q 42.328125 56 49.015625 48.375 
Q 55.71875 40.765625 55.71875 27.296875 
Q 55.71875 13.875 49.015625 6.21875 
Q 42.328125 -1.421875 30.609375 -1.421875 
Q 18.84375 -1.421875 12.171875 6.21875 
Q 5.515625 13.875 5.515625 27.296875 
Q 5.515625 40.765625 12.171875 48.375 
Q 18.84375 56 30.609375 56 
z
" id="DejaVuSans-111"/>
     </defs>
     <g transform="translate(399.7225 299.634844)scale(0.15 -0.15)">
      <use xlink:href="#DejaVuSans-69"/>
      <use x="63.183594" xlink:href="#DejaVuSans-110"/>
      <use x="126.5625" xlink:href="#DejaVuSans-118"/>
      <use x="185.742188" xlink:href="#DejaVuSans-101"/>
      <use x="247.265625" xlink:href="#DejaVuSans-108"/>
      <use x="275.048828" xlink:href="#DejaVuSans-111"/>
      <use x="336.230469" xlink:href="#DejaVuSans-112"/>
      <use x="399.707031" xlink:href="#DejaVuSans-101"/>
     </g>
    </g>
   </g>
  </g>
 </g>
 <defs>
  <clipPath id="p2b095fc152">
   <rect height="302.4" width="425.65" x="67.55" y="10.8"/>
  </clipPath>
 </defs>
</svg>
