<?xml version="1.0" encoding="utf-8" standalone="no"?>
<!DOCTYPE svg PUBLIC "-//W3C//DTD SVG 1.1//EN"
  "http://www.w3.org/Graphics/SVG/1.1/DTD/svg11.dtd">
<!-- Created with matplotlib (https://matplotlib.org/) -->
<svg height="288pt" version="1.1" viewBox="0 0 432 288" width="432pt" xmlns="http://www.w3.org/2000/svg" xmlns:xlink="http://www.w3.org/1999/xlink">
 <defs>
  <style type="text/css">
*{stroke-linecap:butt;stroke-linejoin:round;}
  </style>
 </defs>
 <g id="figure_1">
  <g id="patch_1">
   <path d="M 0 288 
L 432 288 
L 432 0 
L 0 0 
z
" style="fill:none;"/>
  </g>
  <g id="axes_1">
   <g id="patch_2">
    <path d="M 35.8 253.2 
L 421.2 253.2 
L 421.2 10.8 
L 35.8 10.8 
z
" style="fill:none;"/>
   </g>
   <g id="matplotlib.axis_1">
    <g id="xtick_1">
     <g id="line2d_1">
      <defs>
       <path d="M 0 0 
L 0 3.5 
" id="mfa17388162" style="stroke:#000000;stroke-width:0.8;"/>
      </defs>
      <g>
       <use style="stroke:#000000;stroke-width:0.8;" x="53.318182" xlink:href="#mfa17388162" y="253.2"/>
      </g>
     </g>
    </g>
    <g id="xtick_2">
     <g id="line2d_2">
      <g>
       <use style="stroke:#000000;stroke-width:0.8;" x="109.080286" xlink:href="#mfa17388162" y="253.2"/>
      </g>
     </g>
    </g>
    <g id="xtick_3">
     <g id="line2d_3">
      <g>
       <use style="stroke:#000000;stroke-width:0.8;" x="164.842391" xlink:href="#mfa17388162" y="253.2"/>
      </g>
     </g>
    </g>
    <g id="xtick_4">
     <g id="line2d_4">
      <g>
       <use style="stroke:#000000;stroke-width:0.8;" x="220.604496" xlink:href="#mfa17388162" y="253.2"/>
      </g>
     </g>
    </g>
    <g id="xtick_5">
     <g id="line2d_5">
      <g>
       <use style="stroke:#000000;stroke-width:0.8;" x="276.3666" xlink:href="#mfa17388162" y="253.2"/>
      </g>
     </g>
    </g>
    <g id="xtick_6">
     <g id="line2d_6">
      <g>
       <use style="stroke:#000000;stroke-width:0.8;" x="332.128705" xlink:href="#mfa17388162" y="253.2"/>
      </g>
     </g>
    </g>
    <g id="xtick_7">
     <g id="line2d_7">
      <g>
       <use style="stroke:#000000;stroke-width:0.8;" x="387.890809" xlink:href="#mfa17388162" y="253.2"/>
      </g>
     </g>
    </g>
    <g id="text_1">
     <!-- Time, $t$ -->
     <defs>
      <path d="M -0.296875 72.90625 
L 61.375 72.90625 
L 61.375 64.59375 
L 35.5 64.59375 
L 35.5 0 
L 25.59375 0 
L 25.59375 64.59375 
L -0.296875 64.59375 
z
" id="DejaVuSans-84"/>
      <path d="M 9.421875 54.6875 
L 18.40625 54.6875 
L 18.40625 0 
L 9.421875 0 
z
M 9.421875 75.984375 
L 18.40625 75.984375 
L 18.40625 64.59375 
L 9.421875 64.59375 
z
" id="DejaVuSans-105"/>
      <path d="M 52 44.1875 
Q 55.375 50.25 60.0625 53.125 
Q 64.75 56 71.09375 56 
Q 79.640625 56 84.28125 50.015625 
Q 88.921875 44.046875 88.921875 33.015625 
L 88.921875 0 
L 79.890625 0 
L 79.890625 32.71875 
Q 79.890625 40.578125 77.09375 44.375 
Q 74.3125 48.1875 68.609375 48.1875 
Q 61.625 48.1875 57.5625 43.546875 
Q 53.515625 38.921875 53.515625 30.90625 
L 53.515625 0 
L 44.484375 0 
L 44.484375 32.71875 
Q 44.484375 40.625 41.703125 44.40625 
Q 38.921875 48.1875 33.109375 48.1875 
Q 26.21875 48.1875 22.15625 43.53125 
Q 18.109375 38.875 18.109375 30.90625 
L 18.109375 0 
L 9.078125 0 
L 9.078125 54.6875 
L 18.109375 54.6875 
L 18.109375 46.1875 
Q 21.1875 51.21875 25.484375 53.609375 
Q 29.78125 56 35.6875 56 
Q 41.65625 56 45.828125 52.96875 
Q 50 49.953125 52 44.1875 
z
" id="DejaVuSans-109"/>
      <path d="M 56.203125 29.59375 
L 56.203125 25.203125 
L 14.890625 25.203125 
Q 15.484375 15.921875 20.484375 11.0625 
Q 25.484375 6.203125 34.421875 6.203125 
Q 39.59375 6.203125 44.453125 7.46875 
Q 49.3125 8.734375 54.109375 11.28125 
L 54.109375 2.78125 
Q 49.265625 0.734375 44.1875 -0.34375 
Q 39.109375 -1.421875 33.890625 -1.421875 
Q 20.796875 -1.421875 13.15625 6.1875 
Q 5.515625 13.8125 5.515625 26.8125 
Q 5.515625 40.234375 12.765625 48.109375 
Q 20.015625 56 32.328125 56 
Q 43.359375 56 49.78125 48.890625 
Q 56.203125 41.796875 56.203125 29.59375 
z
M 47.21875 32.234375 
Q 47.125 39.59375 43.09375 43.984375 
Q 39.0625 48.390625 32.421875 48.390625 
Q 24.90625 48.390625 20.390625 44.140625 
Q 15.875 39.890625 15.1875 32.171875 
z
" id="DejaVuSans-101"/>
      <path d="M 11.71875 12.40625 
L 22.015625 12.40625 
L 22.015625 4 
L 14.015625 -11.625 
L 7.71875 -11.625 
L 11.71875 4 
z
" id="DejaVuSans-44"/>
      <path id="DejaVuSans-32"/>
      <path d="M 42.28125 54.6875 
L 40.921875 47.703125 
L 23 47.703125 
L 17.1875 18.015625 
Q 16.890625 16.359375 16.75 15.234375 
Q 16.609375 14.109375 16.609375 13.484375 
Q 16.609375 10.359375 18.484375 8.9375 
Q 20.359375 7.515625 24.515625 7.515625 
L 33.59375 7.515625 
L 32.078125 0 
L 23.484375 0 
Q 15.484375 0 11.546875 3.125 
Q 7.625 6.25 7.625 12.59375 
Q 7.625 13.71875 7.765625 15.0625 
Q 7.90625 16.40625 8.203125 18.015625 
L 14.015625 47.703125 
L 6.390625 47.703125 
L 7.8125 54.6875 
L 15.28125 54.6875 
L 18.3125 70.21875 
L 27.296875 70.21875 
L 24.3125 54.6875 
z
" id="DejaVuSans-Oblique-116"/>
     </defs>
     <g transform="translate(210.95 271.798437)scale(0.1 -0.1)">
      <use transform="translate(0 0.015625)" xlink:href="#DejaVuSans-84"/>
      <use transform="translate(61.083984 0.015625)" xlink:href="#DejaVuSans-105"/>
      <use transform="translate(88.867188 0.015625)" xlink:href="#DejaVuSans-109"/>
      <use transform="translate(186.279297 0.015625)" xlink:href="#DejaVuSans-101"/>
      <use transform="translate(247.802734 0.015625)" xlink:href="#DejaVuSans-44"/>
      <use transform="translate(279.589844 0.015625)" xlink:href="#DejaVuSans-32"/>
      <use transform="translate(311.376953 0.015625)" xlink:href="#DejaVuSans-Oblique-116"/>
     </g>
    </g>
   </g>
   <g id="matplotlib.axis_2">
    <g id="ytick_1">
     <g id="line2d_8">
      <defs>
       <path d="M 0 0 
L -3.5 0 
" id="m44605686a3" style="stroke:#000000;stroke-width:0.8;"/>
      </defs>
      <g>
       <use style="stroke:#000000;stroke-width:0.8;" x="35.8" xlink:href="#m44605686a3" y="242.181818"/>
      </g>
     </g>
    </g>
    <g id="ytick_2">
     <g id="line2d_9">
      <g>
       <use style="stroke:#000000;stroke-width:0.8;" x="35.8" xlink:href="#m44605686a3" y="198.109091"/>
      </g>
     </g>
    </g>
    <g id="ytick_3">
     <g id="line2d_10">
      <g>
       <use style="stroke:#000000;stroke-width:0.8;" x="35.8" xlink:href="#m44605686a3" y="154.036364"/>
      </g>
     </g>
    </g>
    <g id="ytick_4">
     <g id="line2d_11">
      <g>
       <use style="stroke:#000000;stroke-width:0.8;" x="35.8" xlink:href="#m44605686a3" y="109.963636"/>
      </g>
     </g>
    </g>
    <g id="ytick_5">
     <g id="line2d_12">
      <g>
       <use style="stroke:#000000;stroke-width:0.8;" x="35.8" xlink:href="#m44605686a3" y="65.890909"/>
      </g>
     </g>
    </g>
    <g id="ytick_6">
     <g id="line2d_13">
      <g>
       <use style="stroke:#000000;stroke-width:0.8;" x="35.8" xlink:href="#m44605686a3" y="21.818182"/>
      </g>
     </g>
    </g>
    <g id="text_2">
     <!-- Displacement, $x$ -->
     <defs>
      <path d="M 19.671875 64.796875 
L 19.671875 8.109375 
L 31.59375 8.109375 
Q 46.6875 8.109375 53.6875 14.9375 
Q 60.6875 21.78125 60.6875 36.53125 
Q 60.6875 51.171875 53.6875 57.984375 
Q 46.6875 64.796875 31.59375 64.796875 
z
M 9.8125 72.90625 
L 30.078125 72.90625 
Q 51.265625 72.90625 61.171875 64.09375 
Q 71.09375 55.28125 71.09375 36.53125 
Q 71.09375 17.671875 61.125 8.828125 
Q 51.171875 0 30.078125 0 
L 9.8125 0 
z
" id="DejaVuSans-68"/>
      <path d="M 44.28125 53.078125 
L 44.28125 44.578125 
Q 40.484375 46.53125 36.375 47.5 
Q 32.28125 48.484375 27.875 48.484375 
Q 21.1875 48.484375 17.84375 46.4375 
Q 14.5 44.390625 14.5 40.28125 
Q 14.5 37.15625 16.890625 35.375 
Q 19.28125 33.59375 26.515625 31.984375 
L 29.59375 31.296875 
Q 39.15625 29.25 43.1875 25.515625 
Q 47.21875 21.78125 47.21875 15.09375 
Q 47.21875 7.46875 41.1875 3.015625 
Q 35.15625 -1.421875 24.609375 -1.421875 
Q 20.21875 -1.421875 15.453125 -0.5625 
Q 10.6875 0.296875 5.421875 2 
L 5.421875 11.28125 
Q 10.40625 8.6875 15.234375 7.390625 
Q 20.0625 6.109375 24.8125 6.109375 
Q 31.15625 6.109375 34.5625 8.28125 
Q 37.984375 10.453125 37.984375 14.40625 
Q 37.984375 18.0625 35.515625 20.015625 
Q 33.0625 21.96875 24.703125 23.78125 
L 21.578125 24.515625 
Q 13.234375 26.265625 9.515625 29.90625 
Q 5.8125 33.546875 5.8125 39.890625 
Q 5.8125 47.609375 11.28125 51.796875 
Q 16.75 56 26.8125 56 
Q 31.78125 56 36.171875 55.265625 
Q 40.578125 54.546875 44.28125 53.078125 
z
" id="DejaVuSans-115"/>
      <path d="M 18.109375 8.203125 
L 18.109375 -20.796875 
L 9.078125 -20.796875 
L 9.078125 54.6875 
L 18.109375 54.6875 
L 18.109375 46.390625 
Q 20.953125 51.265625 25.265625 53.625 
Q 29.59375 56 35.59375 56 
Q 45.5625 56 51.78125 48.09375 
Q 58.015625 40.1875 58.015625 27.296875 
Q 58.015625 14.40625 51.78125 6.484375 
Q 45.5625 -1.421875 35.59375 -1.421875 
Q 29.59375 -1.421875 25.265625 0.953125 
Q 20.953125 3.328125 18.109375 8.203125 
z
M 48.6875 27.296875 
Q 48.6875 37.203125 44.609375 42.84375 
Q 40.53125 48.484375 33.40625 48.484375 
Q 26.265625 48.484375 22.1875 42.84375 
Q 18.109375 37.203125 18.109375 27.296875 
Q 18.109375 17.390625 22.1875 11.75 
Q 26.265625 6.109375 33.40625 6.109375 
Q 40.53125 6.109375 44.609375 11.75 
Q 48.6875 17.390625 48.6875 27.296875 
z
" id="DejaVuSans-112"/>
      <path d="M 9.421875 75.984375 
L 18.40625 75.984375 
L 18.40625 0 
L 9.421875 0 
z
" id="DejaVuSans-108"/>
      <path d="M 34.28125 27.484375 
Q 23.390625 27.484375 19.1875 25 
Q 14.984375 22.515625 14.984375 16.5 
Q 14.984375 11.71875 18.140625 8.90625 
Q 21.296875 6.109375 26.703125 6.109375 
Q 34.1875 6.109375 38.703125 11.40625 
Q 43.21875 16.703125 43.21875 25.484375 
L 43.21875 27.484375 
z
M 52.203125 31.203125 
L 52.203125 0 
L 43.21875 0 
L 43.21875 8.296875 
Q 40.140625 3.328125 35.546875 0.953125 
Q 30.953125 -1.421875 24.3125 -1.421875 
Q 15.921875 -1.421875 10.953125 3.296875 
Q 6 8.015625 6 15.921875 
Q 6 25.140625 12.171875 29.828125 
Q 18.359375 34.515625 30.609375 34.515625 
L 43.21875 34.515625 
L 43.21875 35.40625 
Q 43.21875 41.609375 39.140625 45 
Q 35.0625 48.390625 27.6875 48.390625 
Q 23 48.390625 18.546875 47.265625 
Q 14.109375 46.140625 10.015625 43.890625 
L 10.015625 52.203125 
Q 14.9375 54.109375 19.578125 55.046875 
Q 24.21875 56 28.609375 56 
Q 40.484375 56 46.34375 49.84375 
Q 52.203125 43.703125 52.203125 31.203125 
z
" id="DejaVuSans-97"/>
      <path d="M 48.78125 52.59375 
L 48.78125 44.1875 
Q 44.96875 46.296875 41.140625 47.34375 
Q 37.3125 48.390625 33.40625 48.390625 
Q 24.65625 48.390625 19.8125 42.84375 
Q 14.984375 37.3125 14.984375 27.296875 
Q 14.984375 17.28125 19.8125 11.734375 
Q 24.65625 6.203125 33.40625 6.203125 
Q 37.3125 6.203125 41.140625 7.25 
Q 44.96875 8.296875 48.78125 10.40625 
L 48.78125 2.09375 
Q 45.015625 0.34375 40.984375 -0.53125 
Q 36.96875 -1.421875 32.421875 -1.421875 
Q 20.0625 -1.421875 12.78125 6.34375 
Q 5.515625 14.109375 5.515625 27.296875 
Q 5.515625 40.671875 12.859375 48.328125 
Q 20.21875 56 33.015625 56 
Q 37.15625 56 41.109375 55.140625 
Q 45.0625 54.296875 48.78125 52.59375 
z
" id="DejaVuSans-99"/>
      <path d="M 54.890625 33.015625 
L 54.890625 0 
L 45.90625 0 
L 45.90625 32.71875 
Q 45.90625 40.484375 42.875 44.328125 
Q 39.84375 48.1875 33.796875 48.1875 
Q 26.515625 48.1875 22.3125 43.546875 
Q 18.109375 38.921875 18.109375 30.90625 
L 18.109375 0 
L 9.078125 0 
L 9.078125 54.6875 
L 18.109375 54.6875 
L 18.109375 46.1875 
Q 21.34375 51.125 25.703125 53.5625 
Q 30.078125 56 35.796875 56 
Q 45.21875 56 50.046875 50.171875 
Q 54.890625 44.34375 54.890625 33.015625 
z
" id="DejaVuSans-110"/>
      <path d="M 18.3125 70.21875 
L 18.3125 54.6875 
L 36.8125 54.6875 
L 36.8125 47.703125 
L 18.3125 47.703125 
L 18.3125 18.015625 
Q 18.3125 11.328125 20.140625 9.421875 
Q 21.96875 7.515625 27.59375 7.515625 
L 36.8125 7.515625 
L 36.8125 0 
L 27.59375 0 
Q 17.1875 0 13.234375 3.875 
Q 9.28125 7.765625 9.28125 18.015625 
L 9.28125 47.703125 
L 2.6875 47.703125 
L 2.6875 54.6875 
L 9.28125 54.6875 
L 9.28125 70.21875 
z
" id="DejaVuSans-116"/>
      <path d="M 60.015625 54.6875 
L 34.90625 27.875 
L 50.296875 0 
L 39.984375 0 
L 28.421875 21.6875 
L 8.296875 0 
L -2.59375 0 
L 24.3125 28.8125 
L 10.015625 54.6875 
L 20.3125 54.6875 
L 30.8125 34.90625 
L 49.125 54.6875 
z
" id="DejaVuSans-Oblique-120"/>
     </defs>
     <g transform="translate(22.7 172.55)rotate(-90)scale(0.1 -0.1)">
      <use transform="translate(0 0.015625)" xlink:href="#DejaVuSans-68"/>
      <use transform="translate(77.001953 0.015625)" xlink:href="#DejaVuSans-105"/>
      <use transform="translate(104.785156 0.015625)" xlink:href="#DejaVuSans-115"/>
      <use transform="translate(156.884766 0.015625)" xlink:href="#DejaVuSans-112"/>
      <use transform="translate(220.361328 0.015625)" xlink:href="#DejaVuSans-108"/>
      <use transform="translate(248.144531 0.015625)" xlink:href="#DejaVuSans-97"/>
      <use transform="translate(309.423828 0.015625)" xlink:href="#DejaVuSans-99"/>
      <use transform="translate(364.404297 0.015625)" xlink:href="#DejaVuSans-101"/>
      <use transform="translate(425.927734 0.015625)" xlink:href="#DejaVuSans-109"/>
      <use transform="translate(523.339844 0.015625)" xlink:href="#DejaVuSans-101"/>
      <use transform="translate(584.863281 0.015625)" xlink:href="#DejaVuSans-110"/>
      <use transform="translate(648.242188 0.015625)" xlink:href="#DejaVuSans-116"/>
      <use transform="translate(687.451172 0.015625)" xlink:href="#DejaVuSans-44"/>
      <use transform="translate(719.238281 0.015625)" xlink:href="#DejaVuSans-32"/>
      <use transform="translate(751.025391 0.015625)" xlink:href="#DejaVuSans-Oblique-120"/>
     </g>
    </g>
   </g>
   <g id="line2d_14">
    <path clip-path="url(#p5acb5de3a8)" d="M 53.318182 253.2 
L 53.318182 10.8 
" style="fill:none;stroke:#000000;stroke-dasharray:1.85,0.8;stroke-dashoffset:0;stroke-width:0.5;"/>
   </g>
   <g id="line2d_15">
    <path clip-path="url(#p5acb5de3a8)" d="M 35.8 242.181818 
L 421.2 242.181818 
" style="fill:none;stroke:#000000;stroke-dasharray:1.85,0.8;stroke-dashoffset:0;stroke-width:0.5;"/>
   </g>
   <g id="line2d_16">
    <path clip-path="url(#p5acb5de3a8)" d="M 53.318182 21.818182 
L 56.857208 35.369324 
L 60.396235 48.087147 
L 63.935262 60.022893 
L 67.474288 71.224658 
L 71.013315 81.737576 
L 74.552342 91.604008 
L 78.091368 100.863708 
L 81.630395 109.553989 
L 85.169421 117.709866 
L 88.708448 125.364201 
L 92.247475 132.547837 
L 95.786501 139.289719 
L 99.325528 145.617013 
L 102.864555 151.555214 
L 106.403581 157.128248 
L 109.942608 162.358571 
L 113.481635 167.267258 
L 117.020661 171.874088 
L 120.559688 176.197624 
L 124.098714 180.255287 
L 127.637741 184.063425 
L 131.176768 187.637384 
L 134.715794 190.991565 
L 138.254821 194.139482 
L 141.793848 197.093819 
L 145.332874 199.866481 
L 148.871901 202.46864 
L 152.410927 204.91078 
L 155.949954 207.202743 
L 159.488981 209.353762 
L 163.028007 211.372505 
L 166.567034 213.267107 
L 170.106061 215.045202 
L 173.645087 216.713953 
L 177.184114 218.280086 
L 180.72314 219.74991 
L 184.262167 221.129348 
L 187.801194 222.423958 
L 191.34022 223.638957 
L 194.879247 224.77924 
L 198.418274 225.849402 
L 201.9573 226.853756 
L 205.496327 227.796346 
L 209.035354 228.680973 
L 212.57438 229.5112 
L 216.113407 230.290373 
L 219.652433 231.021631 
L 223.19146 231.707921 
L 226.730487 232.352007 
L 230.269513 232.956486 
L 233.80854 233.523793 
L 237.347567 234.056214 
L 240.886593 234.555893 
L 244.42562 235.024845 
L 247.964646 235.46496 
L 251.503673 235.878009 
L 255.0427 236.265659 
L 258.581726 236.62947 
L 262.120753 236.970908 
L 265.65978 237.29135 
L 269.198806 237.592087 
L 272.737833 237.87433 
L 276.27686 238.139217 
L 279.815886 238.387814 
L 283.354913 238.621124 
L 286.893939 238.840087 
L 290.432966 239.045585 
L 293.971993 239.238446 
L 297.511019 239.419447 
L 301.050046 239.589318 
L 304.589073 239.748742 
L 308.128099 239.898363 
L 311.667126 240.038783 
L 315.206152 240.170568 
L 318.745179 240.294248 
L 322.284206 240.410323 
L 325.823232 240.519261 
L 329.362259 240.621499 
L 332.901286 240.71745 
L 336.440312 240.8075 
L 339.979339 240.892013 
L 343.518365 240.971329 
L 347.057392 241.045767 
L 350.596419 241.115628 
L 354.135445 241.181193 
L 357.674472 241.242726 
L 361.213499 241.300475 
L 364.752525 241.354673 
L 368.291552 241.405537 
L 371.830579 241.453274 
L 375.369605 241.498076 
L 378.908632 241.540122 
L 382.447658 241.579583 
L 385.986685 241.616617 
L 389.525712 241.651374 
L 393.064738 241.683993 
L 396.603765 241.714607 
L 400.142792 241.743338 
L 403.681818 241.770302 
" style="fill:none;stroke:#0000ff;stroke-linecap:square;stroke-width:1.5;"/>
   </g>
   <g id="line2d_17">
    <path clip-path="url(#p5acb5de3a8)" d="M 53.318182 21.818182 
L 56.857208 21.863115 
L 60.396235 21.997877 
L 63.935262 22.222358 
L 67.474288 22.536376 
L 71.013315 22.939674 
L 74.552342 23.431923 
L 78.091368 24.012721 
L 81.630395 24.681596 
L 85.169421 25.438001 
L 88.708448 26.28132 
L 92.247475 27.210864 
L 95.786501 28.225876 
L 99.325528 29.325527 
L 102.864555 30.508921 
L 106.403581 31.775093 
L 109.942608 33.123009 
L 113.481635 34.551572 
L 117.020661 36.059614 
L 120.559688 37.645907 
L 124.098714 39.309156 
L 127.637741 41.048006 
L 131.176768 42.861037 
L 134.715794 44.746771 
L 138.254821 46.70367 
L 141.793848 48.730138 
L 145.332874 50.824522 
L 148.871901 52.985114 
L 152.410927 55.210152 
L 155.949954 57.49782 
L 159.488981 59.846254 
L 163.028007 62.253537 
L 166.567034 64.717706 
L 170.106061 67.236752 
L 173.645087 69.80862 
L 177.184114 72.431212 
L 180.72314 75.102389 
L 184.262167 77.819972 
L 187.801194 80.581746 
L 191.34022 83.385457 
L 194.879247 86.228819 
L 198.418274 89.109512 
L 201.9573 92.025187 
L 205.496327 94.973467 
L 209.035354 97.951946 
L 212.57438 100.958195 
L 216.113407 103.989762 
L 219.652433 107.044174 
L 223.19146 110.118941 
L 226.730487 113.211555 
L 230.269513 116.319492 
L 233.80854 119.440219 
L 237.347567 122.57119 
L 240.886593 125.709851 
L 244.42562 128.853642 
L 247.964646 132 
L 251.503673 135.146358 
L 255.0427 138.290149 
L 258.581726 141.42881 
L 262.120753 144.559781 
L 265.65978 147.680508 
L 269.198806 150.788445 
L 272.737833 153.881059 
L 276.27686 156.955826 
L 279.815886 160.010238 
L 283.354913 163.041805 
L 286.893939 166.048054 
L 290.432966 169.026533 
L 293.971993 171.974813 
L 297.511019 174.890488 
L 301.050046 177.771181 
L 304.589073 180.614543 
L 308.128099 183.418254 
L 311.667126 186.180028 
L 315.206152 188.897611 
L 318.745179 191.568788 
L 322.284206 194.19138 
L 325.823232 196.763248 
L 329.362259 199.282294 
L 332.901286 201.746463 
L 336.440312 204.153746 
L 339.979339 206.50218 
L 343.518365 208.789848 
L 347.057392 211.014886 
L 350.596419 213.175478 
L 354.135445 215.269862 
L 357.674472 217.29633 
L 361.213499 219.253229 
L 364.752525 221.138963 
L 368.291552 222.951994 
L 371.830579 224.690844 
L 375.369605 226.354093 
L 378.908632 227.940386 
L 382.447658 229.448428 
L 385.986685 230.876991 
L 389.525712 232.224907 
L 393.064738 233.491079 
L 396.603765 234.674473 
L 400.142792 235.774124 
L 403.681818 236.789136 
" style="fill:none;stroke:#ffa500;stroke-dasharray:5.55,2.4;stroke-dashoffset:0;stroke-width:1.5;"/>
   </g>
   <g id="patch_3">
    <path d="M 35.8 253.2 
L 35.8 10.8 
" style="fill:none;stroke:#000000;stroke-linecap:square;stroke-linejoin:miter;stroke-width:0.8;"/>
   </g>
   <g id="patch_4">
    <path d="M 421.2 253.2 
L 421.2 10.8 
" style="fill:none;stroke:#000000;stroke-linecap:square;stroke-linejoin:miter;stroke-width:0.8;"/>
   </g>
   <g id="patch_5">
    <path d="M 35.8 253.2 
L 421.2 253.2 
" style="fill:none;stroke:#000000;stroke-linecap:square;stroke-linejoin:miter;stroke-width:0.8;"/>
   </g>
   <g id="patch_6">
    <path d="M 35.8 10.8 
L 421.2 10.8 
" style="fill:none;stroke:#000000;stroke-linecap:square;stroke-linejoin:miter;stroke-width:0.8;"/>
   </g>
   <g id="legend_1">
    <g id="patch_7">
     <path d="M 294.282812 48.15625 
L 414.2 48.15625 
Q 416.2 48.15625 416.2 46.15625 
L 416.2 17.8 
Q 416.2 15.8 414.2 15.8 
L 294.282812 15.8 
Q 292.282812 15.8 292.282812 17.8 
L 292.282812 46.15625 
Q 292.282812 48.15625 294.282812 48.15625 
z
" style="fill:#ffffff;opacity:0.8;stroke:#cccccc;stroke-linejoin:miter;"/>
    </g>
    <g id="line2d_18">
     <path d="M 296.282812 23.898438 
L 316.282812 23.898438 
" style="fill:none;stroke:#0000ff;stroke-linecap:square;stroke-width:1.5;"/>
    </g>
    <g id="line2d_19"/>
    <g id="text_3">
     <!-- Critically damped -->
     <defs>
      <path d="M 64.40625 67.28125 
L 64.40625 56.890625 
Q 59.421875 61.53125 53.78125 63.8125 
Q 48.140625 66.109375 41.796875 66.109375 
Q 29.296875 66.109375 22.65625 58.46875 
Q 16.015625 50.828125 16.015625 36.375 
Q 16.015625 21.96875 22.65625 14.328125 
Q 29.296875 6.6875 41.796875 6.6875 
Q 48.140625 6.6875 53.78125 8.984375 
Q 59.421875 11.28125 64.40625 15.921875 
L 64.40625 5.609375 
Q 59.234375 2.09375 53.4375 0.328125 
Q 47.65625 -1.421875 41.21875 -1.421875 
Q 24.65625 -1.421875 15.125 8.703125 
Q 5.609375 18.84375 5.609375 36.375 
Q 5.609375 53.953125 15.125 64.078125 
Q 24.65625 74.21875 41.21875 74.21875 
Q 47.75 74.21875 53.53125 72.484375 
Q 59.328125 70.75 64.40625 67.28125 
z
" id="DejaVuSans-67"/>
      <path d="M 41.109375 46.296875 
Q 39.59375 47.171875 37.8125 47.578125 
Q 36.03125 48 33.890625 48 
Q 26.265625 48 22.1875 43.046875 
Q 18.109375 38.09375 18.109375 28.8125 
L 18.109375 0 
L 9.078125 0 
L 9.078125 54.6875 
L 18.109375 54.6875 
L 18.109375 46.1875 
Q 20.953125 51.171875 25.484375 53.578125 
Q 30.03125 56 36.53125 56 
Q 37.453125 56 38.578125 55.875 
Q 39.703125 55.765625 41.0625 55.515625 
z
" id="DejaVuSans-114"/>
      <path d="M 32.171875 -5.078125 
Q 28.375 -14.84375 24.75 -17.8125 
Q 21.140625 -20.796875 15.09375 -20.796875 
L 7.90625 -20.796875 
L 7.90625 -13.28125 
L 13.1875 -13.28125 
Q 16.890625 -13.28125 18.9375 -11.515625 
Q 21 -9.765625 23.484375 -3.21875 
L 25.09375 0.875 
L 2.984375 54.6875 
L 12.5 54.6875 
L 29.59375 11.921875 
L 46.6875 54.6875 
L 56.203125 54.6875 
z
" id="DejaVuSans-121"/>
      <path d="M 45.40625 46.390625 
L 45.40625 75.984375 
L 54.390625 75.984375 
L 54.390625 0 
L 45.40625 0 
L 45.40625 8.203125 
Q 42.578125 3.328125 38.25 0.953125 
Q 33.9375 -1.421875 27.875 -1.421875 
Q 17.96875 -1.421875 11.734375 6.484375 
Q 5.515625 14.40625 5.515625 27.296875 
Q 5.515625 40.1875 11.734375 48.09375 
Q 17.96875 56 27.875 56 
Q 33.9375 56 38.25 53.625 
Q 42.578125 51.265625 45.40625 46.390625 
z
M 14.796875 27.296875 
Q 14.796875 17.390625 18.875 11.75 
Q 22.953125 6.109375 30.078125 6.109375 
Q 37.203125 6.109375 41.296875 11.75 
Q 45.40625 17.390625 45.40625 27.296875 
Q 45.40625 37.203125 41.296875 42.84375 
Q 37.203125 48.484375 30.078125 48.484375 
Q 22.953125 48.484375 18.875 42.84375 
Q 14.796875 37.203125 14.796875 27.296875 
z
" id="DejaVuSans-100"/>
     </defs>
     <g transform="translate(324.282812 27.398438)scale(0.1 -0.1)">
      <use xlink:href="#DejaVuSans-67"/>
      <use x="69.824219" xlink:href="#DejaVuSans-114"/>
      <use x="110.9375" xlink:href="#DejaVuSans-105"/>
      <use x="138.720703" xlink:href="#DejaVuSans-116"/>
      <use x="177.929688" xlink:href="#DejaVuSans-105"/>
      <use x="205.712891" xlink:href="#DejaVuSans-99"/>
      <use x="260.693359" xlink:href="#DejaVuSans-97"/>
      <use x="321.972656" xlink:href="#DejaVuSans-108"/>
      <use x="349.755859" xlink:href="#DejaVuSans-108"/>
      <use x="377.539062" xlink:href="#DejaVuSans-121"/>
      <use x="436.71875" xlink:href="#DejaVuSans-32"/>
      <use x="468.505859" xlink:href="#DejaVuSans-100"/>
      <use x="531.982422" xlink:href="#DejaVuSans-97"/>
      <use x="593.261719" xlink:href="#DejaVuSans-109"/>
      <use x="690.673828" xlink:href="#DejaVuSans-112"/>
      <use x="754.150391" xlink:href="#DejaVuSans-101"/>
      <use x="815.673828" xlink:href="#DejaVuSans-100"/>
     </g>
    </g>
    <g id="line2d_20">
     <path d="M 296.282812 38.576562 
L 316.282812 38.576562 
" style="fill:none;stroke:#ffa500;stroke-dasharray:5.55,2.4;stroke-dashoffset:0;stroke-width:1.5;"/>
    </g>
    <g id="line2d_21"/>
    <g id="text_4">
     <!-- Overdamped -->
     <defs>
      <path d="M 39.40625 66.21875 
Q 28.65625 66.21875 22.328125 58.203125 
Q 16.015625 50.203125 16.015625 36.375 
Q 16.015625 22.609375 22.328125 14.59375 
Q 28.65625 6.59375 39.40625 6.59375 
Q 50.140625 6.59375 56.421875 14.59375 
Q 62.703125 22.609375 62.703125 36.375 
Q 62.703125 50.203125 56.421875 58.203125 
Q 50.140625 66.21875 39.40625 66.21875 
z
M 39.40625 74.21875 
Q 54.734375 74.21875 63.90625 63.9375 
Q 73.09375 53.65625 73.09375 36.375 
Q 73.09375 19.140625 63.90625 8.859375 
Q 54.734375 -1.421875 39.40625 -1.421875 
Q 24.03125 -1.421875 14.8125 8.828125 
Q 5.609375 19.09375 5.609375 36.375 
Q 5.609375 53.65625 14.8125 63.9375 
Q 24.03125 74.21875 39.40625 74.21875 
z
" id="DejaVuSans-79"/>
      <path d="M 2.984375 54.6875 
L 12.5 54.6875 
L 29.59375 8.796875 
L 46.6875 54.6875 
L 56.203125 54.6875 
L 35.6875 0 
L 23.484375 0 
z
" id="DejaVuSans-118"/>
     </defs>
     <g transform="translate(324.282812 42.076562)scale(0.1 -0.1)">
      <use xlink:href="#DejaVuSans-79"/>
      <use x="78.710938" xlink:href="#DejaVuSans-118"/>
      <use x="137.890625" xlink:href="#DejaVuSans-101"/>
      <use x="199.414062" xlink:href="#DejaVuSans-114"/>
      <use x="240.511719" xlink:href="#DejaVuSans-100"/>
      <use x="303.988281" xlink:href="#DejaVuSans-97"/>
      <use x="365.267578" xlink:href="#DejaVuSans-109"/>
      <use x="462.679688" xlink:href="#DejaVuSans-112"/>
      <use x="526.15625" xlink:href="#DejaVuSans-101"/>
      <use x="587.679688" xlink:href="#DejaVuSans-100"/>
     </g>
    </g>
   </g>
  </g>
 </g>
 <defs>
  <clipPath id="p5acb5de3a8">
   <rect height="242.4" width="385.4" x="35.8" y="10.8"/>
  </clipPath>
 </defs>
</svg>
