<?xml version="1.0" encoding="utf-8" standalone="no"?>
<!DOCTYPE svg PUBLIC "-//W3C//DTD SVG 1.1//EN"
  "http://www.w3.org/Graphics/SVG/1.1/DTD/svg11.dtd">
<!-- Created with matplotlib (https://matplotlib.org/) -->
<svg height="288pt" version="1.1" viewBox="0 0 432 288" width="432pt" xmlns="http://www.w3.org/2000/svg" xmlns:xlink="http://www.w3.org/1999/xlink">
 <defs>
  <style type="text/css">
*{stroke-linecap:butt;stroke-linejoin:round;}
  </style>
 </defs>
 <g id="figure_1">
  <g id="patch_1">
   <path d="M 0 288 
L 432 288 
L 432 0 
L 0 0 
z
" style="fill:none;"/>
  </g>
  <g id="axes_1">
   <g id="patch_2">
    <path d="M 35.8 253.2 
L 421.2 253.2 
L 421.2 10.8 
L 35.8 10.8 
z
" style="fill:none;"/>
   </g>
   <g id="matplotlib.axis_1">
    <g id="xtick_1">
     <g id="line2d_1">
      <defs>
       <path d="M 0 0 
L 0 3.5 
" id="m89c7ecb254" style="stroke:#000000;stroke-width:0.8;"/>
      </defs>
      <g>
       <use style="stroke:#000000;stroke-width:0.8;" x="53.318182" xlink:href="#m89c7ecb254" y="253.2"/>
      </g>
     </g>
    </g>
    <g id="xtick_2">
     <g id="line2d_2">
      <g>
       <use style="stroke:#000000;stroke-width:0.8;" x="99.786602" xlink:href="#m89c7ecb254" y="253.2"/>
      </g>
     </g>
    </g>
    <g id="xtick_3">
     <g id="line2d_3">
      <g>
       <use style="stroke:#000000;stroke-width:0.8;" x="146.255023" xlink:href="#m89c7ecb254" y="253.2"/>
      </g>
     </g>
    </g>
    <g id="xtick_4">
     <g id="line2d_4">
      <g>
       <use style="stroke:#000000;stroke-width:0.8;" x="192.723443" xlink:href="#m89c7ecb254" y="253.2"/>
      </g>
     </g>
    </g>
    <g id="xtick_5">
     <g id="line2d_5">
      <g>
       <use style="stroke:#000000;stroke-width:0.8;" x="239.191864" xlink:href="#m89c7ecb254" y="253.2"/>
      </g>
     </g>
    </g>
    <g id="xtick_6">
     <g id="line2d_6">
      <g>
       <use style="stroke:#000000;stroke-width:0.8;" x="285.660284" xlink:href="#m89c7ecb254" y="253.2"/>
      </g>
     </g>
    </g>
    <g id="xtick_7">
     <g id="line2d_7">
      <g>
       <use style="stroke:#000000;stroke-width:0.8;" x="332.128705" xlink:href="#m89c7ecb254" y="253.2"/>
      </g>
     </g>
    </g>
    <g id="xtick_8">
     <g id="line2d_8">
      <g>
       <use style="stroke:#000000;stroke-width:0.8;" x="378.597125" xlink:href="#m89c7ecb254" y="253.2"/>
      </g>
     </g>
    </g>
    <g id="text_1">
     <!-- Time, $t$ -->
     <defs>
      <path d="M -0.296875 72.90625 
L 61.375 72.90625 
L 61.375 64.59375 
L 35.5 64.59375 
L 35.5 0 
L 25.59375 0 
L 25.59375 64.59375 
L -0.296875 64.59375 
z
" id="DejaVuSans-84"/>
      <path d="M 9.421875 54.6875 
L 18.40625 54.6875 
L 18.40625 0 
L 9.421875 0 
z
M 9.421875 75.984375 
L 18.40625 75.984375 
L 18.40625 64.59375 
L 9.421875 64.59375 
z
" id="DejaVuSans-105"/>
      <path d="M 52 44.1875 
Q 55.375 50.25 60.0625 53.125 
Q 64.75 56 71.09375 56 
Q 79.640625 56 84.28125 50.015625 
Q 88.921875 44.046875 88.921875 33.015625 
L 88.921875 0 
L 79.890625 0 
L 79.890625 32.71875 
Q 79.890625 40.578125 77.09375 44.375 
Q 74.3125 48.1875 68.609375 48.1875 
Q 61.625 48.1875 57.5625 43.546875 
Q 53.515625 38.921875 53.515625 30.90625 
L 53.515625 0 
L 44.484375 0 
L 44.484375 32.71875 
Q 44.484375 40.625 41.703125 44.40625 
Q 38.921875 48.1875 33.109375 48.1875 
Q 26.21875 48.1875 22.15625 43.53125 
Q 18.109375 38.875 18.109375 30.90625 
L 18.109375 0 
L 9.078125 0 
L 9.078125 54.6875 
L 18.109375 54.6875 
L 18.109375 46.1875 
Q 21.1875 51.21875 25.484375 53.609375 
Q 29.78125 56 35.6875 56 
Q 41.65625 56 45.828125 52.96875 
Q 50 49.953125 52 44.1875 
z
" id="DejaVuSans-109"/>
      <path d="M 56.203125 29.59375 
L 56.203125 25.203125 
L 14.890625 25.203125 
Q 15.484375 15.921875 20.484375 11.0625 
Q 25.484375 6.203125 34.421875 6.203125 
Q 39.59375 6.203125 44.453125 7.46875 
Q 49.3125 8.734375 54.109375 11.28125 
L 54.109375 2.78125 
Q 49.265625 0.734375 44.1875 -0.34375 
Q 39.109375 -1.421875 33.890625 -1.421875 
Q 20.796875 -1.421875 13.15625 6.1875 
Q 5.515625 13.8125 5.515625 26.8125 
Q 5.515625 40.234375 12.765625 48.109375 
Q 20.015625 56 32.328125 56 
Q 43.359375 56 49.78125 48.890625 
Q 56.203125 41.796875 56.203125 29.59375 
z
M 47.21875 32.234375 
Q 47.125 39.59375 43.09375 43.984375 
Q 39.0625 48.390625 32.421875 48.390625 
Q 24.90625 48.390625 20.390625 44.140625 
Q 15.875 39.890625 15.1875 32.171875 
z
" id="DejaVuSans-101"/>
      <path d="M 11.71875 12.40625 
L 22.015625 12.40625 
L 22.015625 4 
L 14.015625 -11.625 
L 7.71875 -11.625 
L 11.71875 4 
z
" id="DejaVuSans-44"/>
      <path id="DejaVuSans-32"/>
      <path d="M 42.28125 54.6875 
L 40.921875 47.703125 
L 23 47.703125 
L 17.1875 18.015625 
Q 16.890625 16.359375 16.75 15.234375 
Q 16.609375 14.109375 16.609375 13.484375 
Q 16.609375 10.359375 18.484375 8.9375 
Q 20.359375 7.515625 24.515625 7.515625 
L 33.59375 7.515625 
L 32.078125 0 
L 23.484375 0 
Q 15.484375 0 11.546875 3.125 
Q 7.625 6.25 7.625 12.59375 
Q 7.625 13.71875 7.765625 15.0625 
Q 7.90625 16.40625 8.203125 18.015625 
L 14.015625 47.703125 
L 6.390625 47.703125 
L 7.8125 54.6875 
L 15.28125 54.6875 
L 18.3125 70.21875 
L 27.296875 70.21875 
L 24.3125 54.6875 
z
" id="DejaVuSans-Oblique-116"/>
     </defs>
     <g transform="translate(210.95 271.798437)scale(0.1 -0.1)">
      <use transform="translate(0 0.015625)" xlink:href="#DejaVuSans-84"/>
      <use transform="translate(61.083984 0.015625)" xlink:href="#DejaVuSans-105"/>
      <use transform="translate(88.867188 0.015625)" xlink:href="#DejaVuSans-109"/>
      <use transform="translate(186.279297 0.015625)" xlink:href="#DejaVuSans-101"/>
      <use transform="translate(247.802734 0.015625)" xlink:href="#DejaVuSans-44"/>
      <use transform="translate(279.589844 0.015625)" xlink:href="#DejaVuSans-32"/>
      <use transform="translate(311.376953 0.015625)" xlink:href="#DejaVuSans-Oblique-116"/>
     </g>
    </g>
   </g>
   <g id="matplotlib.axis_2">
    <g id="ytick_1">
     <g id="line2d_9">
      <defs>
       <path d="M 0 0 
L -3.5 0 
" id="m43392bc059" style="stroke:#000000;stroke-width:0.8;"/>
      </defs>
      <g>
       <use style="stroke:#000000;stroke-width:0.8;" x="35.8" xlink:href="#m43392bc059" y="220.145455"/>
      </g>
     </g>
    </g>
    <g id="ytick_2">
     <g id="line2d_10">
      <g>
       <use style="stroke:#000000;stroke-width:0.8;" x="35.8" xlink:href="#m43392bc059" y="176.072727"/>
      </g>
     </g>
    </g>
    <g id="ytick_3">
     <g id="line2d_11">
      <g>
       <use style="stroke:#000000;stroke-width:0.8;" x="35.8" xlink:href="#m43392bc059" y="132"/>
      </g>
     </g>
    </g>
    <g id="ytick_4">
     <g id="line2d_12">
      <g>
       <use style="stroke:#000000;stroke-width:0.8;" x="35.8" xlink:href="#m43392bc059" y="87.927273"/>
      </g>
     </g>
    </g>
    <g id="ytick_5">
     <g id="line2d_13">
      <g>
       <use style="stroke:#000000;stroke-width:0.8;" x="35.8" xlink:href="#m43392bc059" y="43.854545"/>
      </g>
     </g>
    </g>
    <g id="text_2">
     <!-- Displacement, $x$ -->
     <defs>
      <path d="M 19.671875 64.796875 
L 19.671875 8.109375 
L 31.59375 8.109375 
Q 46.6875 8.109375 53.6875 14.9375 
Q 60.6875 21.78125 60.6875 36.53125 
Q 60.6875 51.171875 53.6875 57.984375 
Q 46.6875 64.796875 31.59375 64.796875 
z
M 9.8125 72.90625 
L 30.078125 72.90625 
Q 51.265625 72.90625 61.171875 64.09375 
Q 71.09375 55.28125 71.09375 36.53125 
Q 71.09375 17.671875 61.125 8.828125 
Q 51.171875 0 30.078125 0 
L 9.8125 0 
z
" id="DejaVuSans-68"/>
      <path d="M 44.28125 53.078125 
L 44.28125 44.578125 
Q 40.484375 46.53125 36.375 47.5 
Q 32.28125 48.484375 27.875 48.484375 
Q 21.1875 48.484375 17.84375 46.4375 
Q 14.5 44.390625 14.5 40.28125 
Q 14.5 37.15625 16.890625 35.375 
Q 19.28125 33.59375 26.515625 31.984375 
L 29.59375 31.296875 
Q 39.15625 29.25 43.1875 25.515625 
Q 47.21875 21.78125 47.21875 15.09375 
Q 47.21875 7.46875 41.1875 3.015625 
Q 35.15625 -1.421875 24.609375 -1.421875 
Q 20.21875 -1.421875 15.453125 -0.5625 
Q 10.6875 0.296875 5.421875 2 
L 5.421875 11.28125 
Q 10.40625 8.6875 15.234375 7.390625 
Q 20.0625 6.109375 24.8125 6.109375 
Q 31.15625 6.109375 34.5625 8.28125 
Q 37.984375 10.453125 37.984375 14.40625 
Q 37.984375 18.0625 35.515625 20.015625 
Q 33.0625 21.96875 24.703125 23.78125 
L 21.578125 24.515625 
Q 13.234375 26.265625 9.515625 29.90625 
Q 5.8125 33.546875 5.8125 39.890625 
Q 5.8125 47.609375 11.28125 51.796875 
Q 16.75 56 26.8125 56 
Q 31.78125 56 36.171875 55.265625 
Q 40.578125 54.546875 44.28125 53.078125 
z
" id="DejaVuSans-115"/>
      <path d="M 18.109375 8.203125 
L 18.109375 -20.796875 
L 9.078125 -20.796875 
L 9.078125 54.6875 
L 18.109375 54.6875 
L 18.109375 46.390625 
Q 20.953125 51.265625 25.265625 53.625 
Q 29.59375 56 35.59375 56 
Q 45.5625 56 51.78125 48.09375 
Q 58.015625 40.1875 58.015625 27.296875 
Q 58.015625 14.40625 51.78125 6.484375 
Q 45.5625 -1.421875 35.59375 -1.421875 
Q 29.59375 -1.421875 25.265625 0.953125 
Q 20.953125 3.328125 18.109375 8.203125 
z
M 48.6875 27.296875 
Q 48.6875 37.203125 44.609375 42.84375 
Q 40.53125 48.484375 33.40625 48.484375 
Q 26.265625 48.484375 22.1875 42.84375 
Q 18.109375 37.203125 18.109375 27.296875 
Q 18.109375 17.390625 22.1875 11.75 
Q 26.265625 6.109375 33.40625 6.109375 
Q 40.53125 6.109375 44.609375 11.75 
Q 48.6875 17.390625 48.6875 27.296875 
z
" id="DejaVuSans-112"/>
      <path d="M 9.421875 75.984375 
L 18.40625 75.984375 
L 18.40625 0 
L 9.421875 0 
z
" id="DejaVuSans-108"/>
      <path d="M 34.28125 27.484375 
Q 23.390625 27.484375 19.1875 25 
Q 14.984375 22.515625 14.984375 16.5 
Q 14.984375 11.71875 18.140625 8.90625 
Q 21.296875 6.109375 26.703125 6.109375 
Q 34.1875 6.109375 38.703125 11.40625 
Q 43.21875 16.703125 43.21875 25.484375 
L 43.21875 27.484375 
z
M 52.203125 31.203125 
L 52.203125 0 
L 43.21875 0 
L 43.21875 8.296875 
Q 40.140625 3.328125 35.546875 0.953125 
Q 30.953125 -1.421875 24.3125 -1.421875 
Q 15.921875 -1.421875 10.953125 3.296875 
Q 6 8.015625 6 15.921875 
Q 6 25.140625 12.171875 29.828125 
Q 18.359375 34.515625 30.609375 34.515625 
L 43.21875 34.515625 
L 43.21875 35.40625 
Q 43.21875 41.609375 39.140625 45 
Q 35.0625 48.390625 27.6875 48.390625 
Q 23 48.390625 18.546875 47.265625 
Q 14.109375 46.140625 10.015625 43.890625 
L 10.015625 52.203125 
Q 14.9375 54.109375 19.578125 55.046875 
Q 24.21875 56 28.609375 56 
Q 40.484375 56 46.34375 49.84375 
Q 52.203125 43.703125 52.203125 31.203125 
z
" id="DejaVuSans-97"/>
      <path d="M 48.78125 52.59375 
L 48.78125 44.1875 
Q 44.96875 46.296875 41.140625 47.34375 
Q 37.3125 48.390625 33.40625 48.390625 
Q 24.65625 48.390625 19.8125 42.84375 
Q 14.984375 37.3125 14.984375 27.296875 
Q 14.984375 17.28125 19.8125 11.734375 
Q 24.65625 6.203125 33.40625 6.203125 
Q 37.3125 6.203125 41.140625 7.25 
Q 44.96875 8.296875 48.78125 10.40625 
L 48.78125 2.09375 
Q 45.015625 0.34375 40.984375 -0.53125 
Q 36.96875 -1.421875 32.421875 -1.421875 
Q 20.0625 -1.421875 12.78125 6.34375 
Q 5.515625 14.109375 5.515625 27.296875 
Q 5.515625 40.671875 12.859375 48.328125 
Q 20.21875 56 33.015625 56 
Q 37.15625 56 41.109375 55.140625 
Q 45.0625 54.296875 48.78125 52.59375 
z
" id="DejaVuSans-99"/>
      <path d="M 54.890625 33.015625 
L 54.890625 0 
L 45.90625 0 
L 45.90625 32.71875 
Q 45.90625 40.484375 42.875 44.328125 
Q 39.84375 48.1875 33.796875 48.1875 
Q 26.515625 48.1875 22.3125 43.546875 
Q 18.109375 38.921875 18.109375 30.90625 
L 18.109375 0 
L 9.078125 0 
L 9.078125 54.6875 
L 18.109375 54.6875 
L 18.109375 46.1875 
Q 21.34375 51.125 25.703125 53.5625 
Q 30.078125 56 35.796875 56 
Q 45.21875 56 50.046875 50.171875 
Q 54.890625 44.34375 54.890625 33.015625 
z
" id="DejaVuSans-110"/>
      <path d="M 18.3125 70.21875 
L 18.3125 54.6875 
L 36.8125 54.6875 
L 36.8125 47.703125 
L 18.3125 47.703125 
L 18.3125 18.015625 
Q 18.3125 11.328125 20.140625 9.421875 
Q 21.96875 7.515625 27.59375 7.515625 
L 36.8125 7.515625 
L 36.8125 0 
L 27.59375 0 
Q 17.1875 0 13.234375 3.875 
Q 9.28125 7.765625 9.28125 18.015625 
L 9.28125 47.703125 
L 2.6875 47.703125 
L 2.6875 54.6875 
L 9.28125 54.6875 
L 9.28125 70.21875 
z
" id="DejaVuSans-116"/>
      <path d="M 60.015625 54.6875 
L 34.90625 27.875 
L 50.296875 0 
L 39.984375 0 
L 28.421875 21.6875 
L 8.296875 0 
L -2.59375 0 
L 24.3125 28.8125 
L 10.015625 54.6875 
L 20.3125 54.6875 
L 30.8125 34.90625 
L 49.125 54.6875 
z
" id="DejaVuSans-Oblique-120"/>
     </defs>
     <g transform="translate(22.7 172.55)rotate(-90)scale(0.1 -0.1)">
      <use transform="translate(0 0.015625)" xlink:href="#DejaVuSans-68"/>
      <use transform="translate(77.001953 0.015625)" xlink:href="#DejaVuSans-105"/>
      <use transform="translate(104.785156 0.015625)" xlink:href="#DejaVuSans-115"/>
      <use transform="translate(156.884766 0.015625)" xlink:href="#DejaVuSans-112"/>
      <use transform="translate(220.361328 0.015625)" xlink:href="#DejaVuSans-108"/>
      <use transform="translate(248.144531 0.015625)" xlink:href="#DejaVuSans-97"/>
      <use transform="translate(309.423828 0.015625)" xlink:href="#DejaVuSans-99"/>
      <use transform="translate(364.404297 0.015625)" xlink:href="#DejaVuSans-101"/>
      <use transform="translate(425.927734 0.015625)" xlink:href="#DejaVuSans-109"/>
      <use transform="translate(523.339844 0.015625)" xlink:href="#DejaVuSans-101"/>
      <use transform="translate(584.863281 0.015625)" xlink:href="#DejaVuSans-110"/>
      <use transform="translate(648.242188 0.015625)" xlink:href="#DejaVuSans-116"/>
      <use transform="translate(687.451172 0.015625)" xlink:href="#DejaVuSans-44"/>
      <use transform="translate(719.238281 0.015625)" xlink:href="#DejaVuSans-32"/>
      <use transform="translate(751.025391 0.015625)" xlink:href="#DejaVuSans-Oblique-120"/>
     </g>
    </g>
   </g>
   <g id="line2d_14">
    <path clip-path="url(#pe02be5fadf)" d="M 53.318182 253.2 
L 53.318182 10.8 
" style="fill:none;stroke:#000000;stroke-dasharray:1.85,0.8;stroke-dashoffset:0;stroke-width:0.5;"/>
   </g>
   <g id="line2d_15">
    <path clip-path="url(#pe02be5fadf)" d="M 35.8 132 
L 421.2 132 
" style="fill:none;stroke:#000000;stroke-dasharray:1.85,0.8;stroke-dashoffset:0;stroke-width:0.5;"/>
   </g>
   <g id="line2d_16">
    <path clip-path="url(#pe02be5fadf)" d="M 53.318182 21.818182 
L 56.857208 31.639892 
L 60.396235 55.237159 
L 63.935262 88.769996 
L 67.474288 127.141792 
L 71.013315 164.764474 
L 74.552342 196.364322 
L 78.091368 217.713389 
L 81.630395 226.18622 
L 85.169421 221.069949 
L 88.708448 203.593293 
L 92.247475 176.680859 
L 95.786501 144.477648 
L 99.325528 111.719354 
L 102.864555 83.042946 
L 106.403581 62.336928 
L 109.942608 52.221342 
L 113.481635 53.725955 
L 117.020661 66.204563 
L 120.559688 87.488674 
L 124.098714 114.249968 
L 127.637741 142.51265 
L 131.176768 168.237906 
L 134.715794 187.895394 
L 138.254821 198.941739 
L 141.793848 200.14206 
L 145.332874 191.695097 
L 148.871901 175.151639 
L 152.410927 153.145473 
L 155.949954 128.98177 
L 159.488981 106.146241 
L 163.028007 87.807196 
L 166.567034 76.380927 
L 170.106061 73.219312 
L 173.645087 78.459078 
L 177.184114 91.047939 
L 180.72314 108.937307 
L 184.262167 129.408204 
L 187.801194 149.479457 
L 191.34022 166.337599 
L 194.879247 177.727072 
L 198.418274 182.247227 
L 201.9573 179.517757 
L 205.496327 170.194169 
L 209.035354 155.836706 
L 212.57438 138.656677 
L 216.113407 121.180517 
L 219.652433 105.881995 
L 223.19146 94.835581 
L 226.730487 89.439036 
L 230.269513 90.241729 
L 233.80854 96.898918 
L 237.347567 108.253738 
L 240.886593 122.530569 
L 244.42562 137.608374 
L 247.964646 151.332491 
L 251.503673 161.819527 
L 255.0427 167.712621 
L 258.581726 168.352978 
L 262.120753 163.846623 
L 265.65978 155.020886 
L 269.198806 143.280858 
L 272.737833 130.38981 
L 276.27686 118.207328 
L 279.815886 108.423665 
L 283.354913 102.327887 
L 286.893939 100.641203 
L 290.432966 103.436556 
L 293.971993 110.152563 
L 297.511019 119.696328 
L 301.050046 130.617308 
L 304.589073 141.325082 
L 308.128099 150.3187 
L 311.667126 156.394849 
L 315.206152 158.806297 
L 318.745179 157.350158 
L 322.284206 152.376135 
L 325.823232 144.716599 
L 329.362259 135.551258 
L 332.901286 126.227935 
L 336.440312 118.066355 
L 339.979339 112.173225 
L 343.518365 109.294233 
L 347.057392 109.72246 
L 350.596419 113.273991 
L 354.135445 119.331652 
L 357.674472 126.948171 
L 361.213499 134.992001 
L 364.752525 142.313654 
L 368.291552 147.908363 
L 371.830579 151.052258 
L 375.369605 151.393881 
L 378.908632 148.989794 
L 382.447658 144.281368 
L 385.986685 138.018203 
L 389.525712 131.140983 
L 393.064738 124.641773 
L 396.603765 119.422306 
L 400.142792 116.170281 
L 403.681818 115.270455 
" style="fill:none;stroke:#0000ff;stroke-linecap:square;stroke-width:1.5;"/>
   </g>
   <g id="line2d_17">
    <path clip-path="url(#pe02be5fadf)" d="M 53.318182 21.818182 
L 56.857208 23.896193 
L 60.396235 25.935014 
L 63.935262 27.935383 
L 67.474288 29.898025 
L 71.013315 31.823652 
L 74.552342 33.712962 
L 78.091368 35.566639 
L 81.630395 37.385357 
L 85.169421 39.169774 
L 88.708448 40.920538 
L 92.247475 42.638282 
L 95.786501 44.323629 
L 99.325528 45.977192 
L 102.864555 47.599568 
L 106.403581 49.191347 
L 109.942608 50.753105 
L 113.481635 52.285408 
L 117.020661 53.788813 
L 120.559688 55.263863 
L 124.098714 56.711095 
L 127.637741 58.131031 
L 131.176768 59.524188 
L 134.715794 60.891071 
L 138.254821 62.232174 
L 141.793848 63.547984 
L 145.332874 64.838978 
L 148.871901 66.105624 
L 152.410927 67.348381 
L 155.949954 68.567701 
L 159.488981 69.764024 
L 163.028007 70.937784 
L 166.567034 72.089408 
L 170.106061 73.219312 
L 173.645087 74.327907 
L 177.184114 75.415593 
L 180.72314 76.482766 
L 184.262167 77.529812 
L 187.801194 78.557111 
L 191.34022 79.565036 
L 194.879247 80.553951 
L 198.418274 81.524215 
L 201.9573 82.47618 
L 205.496327 83.410191 
L 209.035354 84.326587 
L 212.57438 85.2257 
L 216.113407 86.107856 
L 219.652433 86.973375 
L 223.19146 87.82257 
L 226.730487 88.655749 
L 230.269513 89.473215 
L 233.80854 90.275263 
L 237.347567 91.062185 
L 240.886593 91.834266 
L 244.42562 92.591785 
L 247.964646 93.335018 
L 251.503673 94.064233 
L 255.0427 94.779696 
L 258.581726 95.481665 
L 262.120753 96.170395 
L 265.65978 96.846135 
L 269.198806 97.509131 
L 272.737833 98.159624 
L 276.27686 98.797848 
L 279.815886 99.424035 
L 283.354913 100.038413 
L 286.893939 100.641203 
L 290.432966 101.232625 
L 293.971993 101.812893 
L 297.511019 102.382217 
L 301.050046 102.940803 
L 304.589073 103.488855 
L 308.128099 104.026571 
L 311.667126 104.554145 
L 315.206152 105.07177 
L 318.745179 105.579632 
L 322.284206 106.077916 
L 325.823232 106.566802 
L 329.362259 107.046468 
L 332.901286 107.517088 
L 336.440312 107.978832 
L 339.979339 108.431867 
L 343.518365 108.876358 
L 347.057392 109.312466 
L 350.596419 109.74035 
L 354.135445 110.160163 
L 357.674472 110.572059 
L 361.213499 110.976187 
L 364.752525 111.372692 
L 368.291552 111.76172 
L 371.830579 112.143411 
L 375.369605 112.517903 
L 378.908632 112.885332 
L 382.447658 113.245832 
L 385.986685 113.599532 
L 389.525712 113.946562 
L 393.064738 114.287047 
L 396.603765 114.621111 
L 400.142792 114.948874 
L 403.681818 115.270455 
" style="fill:none;stroke:#ffa500;stroke-dasharray:5.55,2.4;stroke-dashoffset:0;stroke-width:1.5;"/>
   </g>
   <g id="line2d_18">
    <path clip-path="url(#pe02be5fadf)" d="M 53.318182 242.181818 
L 56.857208 240.103807 
L 60.396235 238.064986 
L 63.935262 236.064617 
L 67.474288 234.101975 
L 71.013315 232.176348 
L 74.552342 230.287038 
L 78.091368 228.433361 
L 81.630395 226.614643 
L 85.169421 224.830226 
L 88.708448 223.079462 
L 92.247475 221.361718 
L 95.786501 219.676371 
L 99.325528 218.022808 
L 102.864555 216.400432 
L 106.403581 214.808653 
L 109.942608 213.246895 
L 113.481635 211.714592 
L 117.020661 210.211187 
L 120.559688 208.736137 
L 124.098714 207.288905 
L 127.637741 205.868969 
L 131.176768 204.475812 
L 134.715794 203.108929 
L 138.254821 201.767826 
L 141.793848 200.452016 
L 145.332874 199.161022 
L 148.871901 197.894376 
L 152.410927 196.651619 
L 155.949954 195.432299 
L 159.488981 194.235976 
L 163.028007 193.062216 
L 166.567034 191.910592 
L 170.106061 190.780688 
L 173.645087 189.672093 
L 177.184114 188.584407 
L 180.72314 187.517234 
L 184.262167 186.470188 
L 187.801194 185.442889 
L 191.34022 184.434964 
L 194.879247 183.446049 
L 198.418274 182.475785 
L 201.9573 181.52382 
L 205.496327 180.589809 
L 209.035354 179.673413 
L 212.57438 178.7743 
L 216.113407 177.892144 
L 219.652433 177.026625 
L 223.19146 176.17743 
L 226.730487 175.344251 
L 230.269513 174.526785 
L 233.80854 173.724737 
L 237.347567 172.937815 
L 240.886593 172.165734 
L 244.42562 171.408215 
L 247.964646 170.664982 
L 251.503673 169.935767 
L 255.0427 169.220304 
L 258.581726 168.518335 
L 262.120753 167.829605 
L 265.65978 167.153865 
L 269.198806 166.490869 
L 272.737833 165.840376 
L 276.27686 165.202152 
L 279.815886 164.575965 
L 283.354913 163.961587 
L 286.893939 163.358797 
L 290.432966 162.767375 
L 293.971993 162.187107 
L 297.511019 161.617783 
L 301.050046 161.059197 
L 304.589073 160.511145 
L 308.128099 159.973429 
L 311.667126 159.445855 
L 315.206152 158.92823 
L 318.745179 158.420368 
L 322.284206 157.922084 
L 325.823232 157.433198 
L 329.362259 156.953532 
L 332.901286 156.482912 
L 336.440312 156.021168 
L 339.979339 155.568133 
L 343.518365 155.123642 
L 347.057392 154.687534 
L 350.596419 154.25965 
L 354.135445 153.839837 
L 357.674472 153.427941 
L 361.213499 153.023813 
L 364.752525 152.627308 
L 368.291552 152.23828 
L 371.830579 151.856589 
L 375.369605 151.482097 
L 378.908632 151.114668 
L 382.447658 150.754168 
L 385.986685 150.400468 
L 389.525712 150.053438 
L 393.064738 149.712953 
L 396.603765 149.378889 
L 400.142792 149.051126 
L 403.681818 148.729545 
" style="fill:none;stroke:#ffa500;stroke-dasharray:5.55,2.4;stroke-dashoffset:0;stroke-width:1.5;"/>
   </g>
   <g id="line2d_19">
    <path clip-path="url(#pe02be5fadf)" d="M 53.318182 21.818182 
L 56.857208 29.710733 
L 60.396235 52.257668 
L 63.935262 86.228819 
L 67.474288 126.757338 
L 71.013315 168.036943 
L 74.552342 204.153746 
L 78.091368 229.933506 
L 81.630395 241.682906 
L 85.169421 237.71868 
L 88.708448 218.608759 
L 92.247475 187.090909 
L 95.786501 147.680508 
L 99.325528 106.023652 
L 102.864555 68.088275 
L 106.403581 39.309156 
L 109.942608 23.809311 
L 113.481635 23.809311 
L 117.020661 39.309156 
L 120.559688 68.088275 
L 124.098714 106.023652 
L 127.637741 147.680508 
L 131.176768 187.090909 
L 134.715794 218.608759 
L 138.254821 237.71868 
L 141.793848 241.682906 
L 145.332874 229.933506 
L 148.871901 204.153746 
L 152.410927 168.036943 
L 155.949954 126.757338 
L 159.488981 86.228819 
L 163.028007 52.257668 
L 166.567034 29.710733 
L 170.106061 21.818182 
L 173.645087 29.710733 
L 177.184114 52.257668 
L 180.72314 86.228819 
L 184.262167 126.757338 
L 187.801194 168.036943 
L 191.34022 204.153746 
L 194.879247 229.933506 
L 198.418274 241.682906 
L 201.9573 237.71868 
L 205.496327 218.608759 
L 209.035354 187.090909 
L 212.57438 147.680508 
L 216.113407 106.023652 
L 219.652433 68.088275 
L 223.19146 39.309156 
L 226.730487 23.809311 
L 230.269513 23.809311 
L 233.80854 39.309156 
L 237.347567 68.088275 
L 240.886593 106.023652 
L 244.42562 147.680508 
L 247.964646 187.090909 
L 251.503673 218.608759 
L 255.0427 237.71868 
L 258.581726 241.682906 
L 262.120753 229.933506 
L 265.65978 204.153746 
L 269.198806 168.036943 
L 272.737833 126.757338 
L 276.27686 86.228819 
L 279.815886 52.257668 
L 283.354913 29.710733 
L 286.893939 21.818182 
L 290.432966 29.710733 
L 293.971993 52.257668 
L 297.511019 86.228819 
L 301.050046 126.757338 
L 304.589073 168.036943 
L 308.128099 204.153746 
L 311.667126 229.933506 
L 315.206152 241.682906 
L 318.745179 237.71868 
L 322.284206 218.608759 
L 325.823232 187.090909 
L 329.362259 147.680508 
L 332.901286 106.023652 
L 336.440312 68.088275 
L 339.979339 39.309156 
L 343.518365 23.809311 
L 347.057392 23.809311 
L 350.596419 39.309156 
L 354.135445 68.088275 
L 357.674472 106.023652 
L 361.213499 147.680508 
L 364.752525 187.090909 
L 368.291552 218.608759 
L 371.830579 237.71868 
L 375.369605 241.682906 
L 378.908632 229.933506 
L 382.447658 204.153746 
L 385.986685 168.036943 
L 389.525712 126.757338 
L 393.064738 86.228819 
L 396.603765 52.257668 
L 400.142792 29.710733 
L 403.681818 21.818182 
" style="fill:none;stroke:#808080;stroke-dasharray:1.5,2.475;stroke-dashoffset:0;stroke-width:1.5;"/>
   </g>
   <g id="patch_3">
    <path d="M 35.8 253.2 
L 35.8 10.8 
" style="fill:none;stroke:#000000;stroke-linecap:square;stroke-linejoin:miter;stroke-width:0.8;"/>
   </g>
   <g id="patch_4">
    <path d="M 421.2 253.2 
L 421.2 10.8 
" style="fill:none;stroke:#000000;stroke-linecap:square;stroke-linejoin:miter;stroke-width:0.8;"/>
   </g>
   <g id="patch_5">
    <path d="M 35.8 253.2 
L 421.2 253.2 
" style="fill:none;stroke:#000000;stroke-linecap:square;stroke-linejoin:miter;stroke-width:0.8;"/>
   </g>
   <g id="patch_6">
    <path d="M 35.8 10.8 
L 421.2 10.8 
" style="fill:none;stroke:#000000;stroke-linecap:square;stroke-linejoin:miter;stroke-width:0.8;"/>
   </g>
  </g>
 </g>
 <defs>
  <clipPath id="pe02be5fadf">
   <rect height="242.4" width="385.4" x="35.8" y="10.8"/>
  </clipPath>
 </defs>
</svg>
