<?xml version="1.0" encoding="utf-8" standalone="no"?>
<!DOCTYPE svg PUBLIC "-//W3C//DTD SVG 1.1//EN"
  "http://www.w3.org/Graphics/SVG/1.1/DTD/svg11.dtd">
<!-- Created with matplotlib (https://matplotlib.org/) -->
<svg height="360pt" version="1.1" viewBox="0 0 504 360" width="504pt" xmlns="http://www.w3.org/2000/svg" xmlns:xlink="http://www.w3.org/1999/xlink">
 <metadata>
  <rdf:RDF xmlns:cc="http://creativecommons.org/ns#" xmlns:dc="http://purl.org/dc/elements/1.1/" xmlns:rdf="http://www.w3.org/1999/02/22-rdf-syntax-ns#">
   <cc:Work>
    <dc:type rdf:resource="http://purl.org/dc/dcmitype/StillImage"/>
    <dc:date>2024-01-19T16:18:46.562539</dc:date>
    <dc:format>image/svg+xml</dc:format>
    <dc:creator>
     <cc:Agent>
      <dc:title>Matplotlib v3.3.2, https://matplotlib.org/</dc:title>
     </cc:Agent>
    </dc:creator>
   </cc:Work>
  </rdf:RDF>
 </metadata>
 <defs>
  <style type="text/css">*{stroke-linecap:butt;stroke-linejoin:round;}</style>
 </defs>
 <g id="figure_1">
  <g id="patch_1">
   <path d="M 0 360 
L 504 360 
L 504 0 
L 0 0 
z
" style="fill:none;"/>
  </g>
  <g id="axes_1">
   <g id="patch_2">
    <path d="M 35.8 324.2 
L 493.2 324.2 
L 493.2 10.8 
L 35.8 10.8 
z
" style="fill:none;"/>
   </g>
   <g id="matplotlib.axis_1">
    <g id="xtick_1">
     <g id="line2d_1">
      <defs>
       <path d="M 0 0 
L 0 3.5 
" id="mefe89539a0" style="stroke:#000000;stroke-width:0.8;"/>
      </defs>
      <g>
       <use style="stroke:#000000;stroke-width:0.8;" x="35.8" xlink:href="#mefe89539a0" y="324.2"/>
      </g>
     </g>
    </g>
    <g id="xtick_2">
     <g id="line2d_2">
      <g>
       <use style="stroke:#000000;stroke-width:0.8;" x="122.92381" xlink:href="#mefe89539a0" y="324.2"/>
      </g>
     </g>
    </g>
    <g id="xtick_3">
     <g id="line2d_3">
      <g>
       <use style="stroke:#000000;stroke-width:0.8;" x="210.047619" xlink:href="#mefe89539a0" y="324.2"/>
      </g>
     </g>
    </g>
    <g id="xtick_4">
     <g id="line2d_4">
      <g>
       <use style="stroke:#000000;stroke-width:0.8;" x="297.171429" xlink:href="#mefe89539a0" y="324.2"/>
      </g>
     </g>
    </g>
    <g id="xtick_5">
     <g id="line2d_5">
      <g>
       <use style="stroke:#000000;stroke-width:0.8;" x="384.295238" xlink:href="#mefe89539a0" y="324.2"/>
      </g>
     </g>
    </g>
    <g id="xtick_6">
     <g id="line2d_6">
      <g>
       <use style="stroke:#000000;stroke-width:0.8;" x="471.419048" xlink:href="#mefe89539a0" y="324.2"/>
      </g>
     </g>
    </g>
    <g id="text_1">
     <!-- Driving frequency, $\omega$ -->
     <g transform="translate(212.35 342.8)scale(0.1 -0.1)">
      <defs>
       <path d="M 19.671875 64.796875 
L 19.671875 8.109375 
L 31.59375 8.109375 
Q 46.6875 8.109375 53.6875 14.9375 
Q 60.6875 21.78125 60.6875 36.53125 
Q 60.6875 51.171875 53.6875 57.984375 
Q 46.6875 64.796875 31.59375 64.796875 
z
M 9.8125 72.90625 
L 30.078125 72.90625 
Q 51.265625 72.90625 61.171875 64.09375 
Q 71.09375 55.28125 71.09375 36.53125 
Q 71.09375 17.671875 61.125 8.828125 
Q 51.171875 0 30.078125 0 
L 9.8125 0 
z
" id="DejaVuSans-68"/>
       <path d="M 41.109375 46.296875 
Q 39.59375 47.171875 37.8125 47.578125 
Q 36.03125 48 33.890625 48 
Q 26.265625 48 22.1875 43.046875 
Q 18.109375 38.09375 18.109375 28.8125 
L 18.109375 0 
L 9.078125 0 
L 9.078125 54.6875 
L 18.109375 54.6875 
L 18.109375 46.1875 
Q 20.953125 51.171875 25.484375 53.578125 
Q 30.03125 56 36.53125 56 
Q 37.453125 56 38.578125 55.875 
Q 39.703125 55.765625 41.0625 55.515625 
z
" id="DejaVuSans-114"/>
       <path d="M 9.421875 54.6875 
L 18.40625 54.6875 
L 18.40625 0 
L 9.421875 0 
z
M 9.421875 75.984375 
L 18.40625 75.984375 
L 18.40625 64.59375 
L 9.421875 64.59375 
z
" id="DejaVuSans-105"/>
       <path d="M 2.984375 54.6875 
L 12.5 54.6875 
L 29.59375 8.796875 
L 46.6875 54.6875 
L 56.203125 54.6875 
L 35.6875 0 
L 23.484375 0 
z
" id="DejaVuSans-118"/>
       <path d="M 54.890625 33.015625 
L 54.890625 0 
L 45.90625 0 
L 45.90625 32.71875 
Q 45.90625 40.484375 42.875 44.328125 
Q 39.84375 48.1875 33.796875 48.1875 
Q 26.515625 48.1875 22.3125 43.546875 
Q 18.109375 38.921875 18.109375 30.90625 
L 18.109375 0 
L 9.078125 0 
L 9.078125 54.6875 
L 18.109375 54.6875 
L 18.109375 46.1875 
Q 21.34375 51.125 25.703125 53.5625 
Q 30.078125 56 35.796875 56 
Q 45.21875 56 50.046875 50.171875 
Q 54.890625 44.34375 54.890625 33.015625 
z
" id="DejaVuSans-110"/>
       <path d="M 45.40625 27.984375 
Q 45.40625 37.75 41.375 43.109375 
Q 37.359375 48.484375 30.078125 48.484375 
Q 22.859375 48.484375 18.828125 43.109375 
Q 14.796875 37.75 14.796875 27.984375 
Q 14.796875 18.265625 18.828125 12.890625 
Q 22.859375 7.515625 30.078125 7.515625 
Q 37.359375 7.515625 41.375 12.890625 
Q 45.40625 18.265625 45.40625 27.984375 
z
M 54.390625 6.78125 
Q 54.390625 -7.171875 48.1875 -13.984375 
Q 42 -20.796875 29.203125 -20.796875 
Q 24.46875 -20.796875 20.265625 -20.09375 
Q 16.0625 -19.390625 12.109375 -17.921875 
L 12.109375 -9.1875 
Q 16.0625 -11.328125 19.921875 -12.34375 
Q 23.78125 -13.375 27.78125 -13.375 
Q 36.625 -13.375 41.015625 -8.765625 
Q 45.40625 -4.15625 45.40625 5.171875 
L 45.40625 9.625 
Q 42.625 4.78125 38.28125 2.390625 
Q 33.9375 0 27.875 0 
Q 17.828125 0 11.671875 7.65625 
Q 5.515625 15.328125 5.515625 27.984375 
Q 5.515625 40.671875 11.671875 48.328125 
Q 17.828125 56 27.875 56 
Q 33.9375 56 38.28125 53.609375 
Q 42.625 51.21875 45.40625 46.390625 
L 45.40625 54.6875 
L 54.390625 54.6875 
z
" id="DejaVuSans-103"/>
       <path id="DejaVuSans-32"/>
       <path d="M 37.109375 75.984375 
L 37.109375 68.5 
L 28.515625 68.5 
Q 23.6875 68.5 21.796875 66.546875 
Q 19.921875 64.59375 19.921875 59.515625 
L 19.921875 54.6875 
L 34.71875 54.6875 
L 34.71875 47.703125 
L 19.921875 47.703125 
L 19.921875 0 
L 10.890625 0 
L 10.890625 47.703125 
L 2.296875 47.703125 
L 2.296875 54.6875 
L 10.890625 54.6875 
L 10.890625 58.5 
Q 10.890625 67.625 15.140625 71.796875 
Q 19.390625 75.984375 28.609375 75.984375 
z
" id="DejaVuSans-102"/>
       <path d="M 56.203125 29.59375 
L 56.203125 25.203125 
L 14.890625 25.203125 
Q 15.484375 15.921875 20.484375 11.0625 
Q 25.484375 6.203125 34.421875 6.203125 
Q 39.59375 6.203125 44.453125 7.46875 
Q 49.3125 8.734375 54.109375 11.28125 
L 54.109375 2.78125 
Q 49.265625 0.734375 44.1875 -0.34375 
Q 39.109375 -1.421875 33.890625 -1.421875 
Q 20.796875 -1.421875 13.15625 6.1875 
Q 5.515625 13.8125 5.515625 26.8125 
Q 5.515625 40.234375 12.765625 48.109375 
Q 20.015625 56 32.328125 56 
Q 43.359375 56 49.78125 48.890625 
Q 56.203125 41.796875 56.203125 29.59375 
z
M 47.21875 32.234375 
Q 47.125 39.59375 43.09375 43.984375 
Q 39.0625 48.390625 32.421875 48.390625 
Q 24.90625 48.390625 20.390625 44.140625 
Q 15.875 39.890625 15.1875 32.171875 
z
" id="DejaVuSans-101"/>
       <path d="M 14.796875 27.296875 
Q 14.796875 17.390625 18.875 11.75 
Q 22.953125 6.109375 30.078125 6.109375 
Q 37.203125 6.109375 41.296875 11.75 
Q 45.40625 17.390625 45.40625 27.296875 
Q 45.40625 37.203125 41.296875 42.84375 
Q 37.203125 48.484375 30.078125 48.484375 
Q 22.953125 48.484375 18.875 42.84375 
Q 14.796875 37.203125 14.796875 27.296875 
z
M 45.40625 8.203125 
Q 42.578125 3.328125 38.25 0.953125 
Q 33.9375 -1.421875 27.875 -1.421875 
Q 17.96875 -1.421875 11.734375 6.484375 
Q 5.515625 14.40625 5.515625 27.296875 
Q 5.515625 40.1875 11.734375 48.09375 
Q 17.96875 56 27.875 56 
Q 33.9375 56 38.25 53.625 
Q 42.578125 51.265625 45.40625 46.390625 
L 45.40625 54.6875 
L 54.390625 54.6875 
L 54.390625 -20.796875 
L 45.40625 -20.796875 
z
" id="DejaVuSans-113"/>
       <path d="M 8.5 21.578125 
L 8.5 54.6875 
L 17.484375 54.6875 
L 17.484375 21.921875 
Q 17.484375 14.15625 20.5 10.265625 
Q 23.53125 6.390625 29.59375 6.390625 
Q 36.859375 6.390625 41.078125 11.03125 
Q 45.3125 15.671875 45.3125 23.6875 
L 45.3125 54.6875 
L 54.296875 54.6875 
L 54.296875 0 
L 45.3125 0 
L 45.3125 8.40625 
Q 42.046875 3.421875 37.71875 1 
Q 33.40625 -1.421875 27.6875 -1.421875 
Q 18.265625 -1.421875 13.375 4.4375 
Q 8.5 10.296875 8.5 21.578125 
z
M 31.109375 56 
z
" id="DejaVuSans-117"/>
       <path d="M 48.78125 52.59375 
L 48.78125 44.1875 
Q 44.96875 46.296875 41.140625 47.34375 
Q 37.3125 48.390625 33.40625 48.390625 
Q 24.65625 48.390625 19.8125 42.84375 
Q 14.984375 37.3125 14.984375 27.296875 
Q 14.984375 17.28125 19.8125 11.734375 
Q 24.65625 6.203125 33.40625 6.203125 
Q 37.3125 6.203125 41.140625 7.25 
Q 44.96875 8.296875 48.78125 10.40625 
L 48.78125 2.09375 
Q 45.015625 0.34375 40.984375 -0.53125 
Q 36.96875 -1.421875 32.421875 -1.421875 
Q 20.0625 -1.421875 12.78125 6.34375 
Q 5.515625 14.109375 5.515625 27.296875 
Q 5.515625 40.671875 12.859375 48.328125 
Q 20.21875 56 33.015625 56 
Q 37.15625 56 41.109375 55.140625 
Q 45.0625 54.296875 48.78125 52.59375 
z
" id="DejaVuSans-99"/>
       <path d="M 32.171875 -5.078125 
Q 28.375 -14.84375 24.75 -17.8125 
Q 21.140625 -20.796875 15.09375 -20.796875 
L 7.90625 -20.796875 
L 7.90625 -13.28125 
L 13.1875 -13.28125 
Q 16.890625 -13.28125 18.9375 -11.515625 
Q 21 -9.765625 23.484375 -3.21875 
L 25.09375 0.875 
L 2.984375 54.6875 
L 12.5 54.6875 
L 29.59375 11.921875 
L 46.6875 54.6875 
L 56.203125 54.6875 
z
" id="DejaVuSans-121"/>
       <path d="M 11.71875 12.40625 
L 22.015625 12.40625 
L 22.015625 4 
L 14.015625 -11.625 
L 7.71875 -11.625 
L 11.71875 4 
z
" id="DejaVuSans-44"/>
       <path d="M 21.390625 -1.421875 
Q 1.125 -1.421875 6.78125 27.59375 
Q 8.984375 39.0625 19.625 54.6875 
L 29.296875 54.6875 
Q 19.234375 39.0625 17 27.34375 
Q 12.796875 6.203125 23.734375 6.203125 
Q 33.84375 6.203125 38.71875 32.46875 
L 47.015625 32.46875 
Q 41.703125 6.0625 51.8125 6.203125 
Q 62.703125 6.296875 66.796875 27.34375 
Q 69.046875 39.0625 65.140625 54.6875 
L 74.8125 54.6875 
Q 79.296875 39.0625 77.09375 27.59375 
Q 71.53125 -1.46875 51.21875 -1.421875 
Q 37.9375 -1.375 39.109375 13.1875 
Q 34.28125 -1.421875 21.390625 -1.421875 
z
" id="DejaVuSans-Oblique-969"/>
      </defs>
      <use transform="translate(0 0.015625)" xlink:href="#DejaVuSans-68"/>
      <use transform="translate(77.001953 0.015625)" xlink:href="#DejaVuSans-114"/>
      <use transform="translate(118.115234 0.015625)" xlink:href="#DejaVuSans-105"/>
      <use transform="translate(145.898438 0.015625)" xlink:href="#DejaVuSans-118"/>
      <use transform="translate(205.078125 0.015625)" xlink:href="#DejaVuSans-105"/>
      <use transform="translate(232.861328 0.015625)" xlink:href="#DejaVuSans-110"/>
      <use transform="translate(296.240234 0.015625)" xlink:href="#DejaVuSans-103"/>
      <use transform="translate(359.716797 0.015625)" xlink:href="#DejaVuSans-32"/>
      <use transform="translate(391.503906 0.015625)" xlink:href="#DejaVuSans-102"/>
      <use transform="translate(426.708984 0.015625)" xlink:href="#DejaVuSans-114"/>
      <use transform="translate(467.822266 0.015625)" xlink:href="#DejaVuSans-101"/>
      <use transform="translate(529.345703 0.015625)" xlink:href="#DejaVuSans-113"/>
      <use transform="translate(592.822266 0.015625)" xlink:href="#DejaVuSans-117"/>
      <use transform="translate(656.201172 0.015625)" xlink:href="#DejaVuSans-101"/>
      <use transform="translate(717.724609 0.015625)" xlink:href="#DejaVuSans-110"/>
      <use transform="translate(781.103516 0.015625)" xlink:href="#DejaVuSans-99"/>
      <use transform="translate(836.083984 0.015625)" xlink:href="#DejaVuSans-121"/>
      <use transform="translate(895.263672 0.015625)" xlink:href="#DejaVuSans-44"/>
      <use transform="translate(927.050781 0.015625)" xlink:href="#DejaVuSans-32"/>
      <use transform="translate(958.837891 0.015625)" xlink:href="#DejaVuSans-Oblique-969"/>
     </g>
    </g>
   </g>
   <g id="matplotlib.axis_2">
    <g id="ytick_1">
     <g id="line2d_7">
      <defs>
       <path d="M 0 0 
L -3.5 0 
" id="ma6fd3d4b53" style="stroke:#000000;stroke-width:0.8;"/>
      </defs>
      <g>
       <use style="stroke:#000000;stroke-width:0.8;" x="35.8" xlink:href="#ma6fd3d4b53" y="324.2"/>
      </g>
     </g>
    </g>
    <g id="ytick_2">
     <g id="line2d_8">
      <g>
       <use style="stroke:#000000;stroke-width:0.8;" x="35.8" xlink:href="#ma6fd3d4b53" y="279.997584"/>
      </g>
     </g>
    </g>
    <g id="ytick_3">
     <g id="line2d_9">
      <g>
       <use style="stroke:#000000;stroke-width:0.8;" x="35.8" xlink:href="#ma6fd3d4b53" y="235.795168"/>
      </g>
     </g>
    </g>
    <g id="ytick_4">
     <g id="line2d_10">
      <g>
       <use style="stroke:#000000;stroke-width:0.8;" x="35.8" xlink:href="#ma6fd3d4b53" y="191.592752"/>
      </g>
     </g>
    </g>
    <g id="ytick_5">
     <g id="line2d_11">
      <g>
       <use style="stroke:#000000;stroke-width:0.8;" x="35.8" xlink:href="#ma6fd3d4b53" y="147.390336"/>
      </g>
     </g>
    </g>
    <g id="ytick_6">
     <g id="line2d_12">
      <g>
       <use style="stroke:#000000;stroke-width:0.8;" x="35.8" xlink:href="#ma6fd3d4b53" y="103.18792"/>
      </g>
     </g>
    </g>
    <g id="ytick_7">
     <g id="line2d_13">
      <g>
       <use style="stroke:#000000;stroke-width:0.8;" x="35.8" xlink:href="#ma6fd3d4b53" y="58.985504"/>
      </g>
     </g>
    </g>
    <g id="ytick_8">
     <g id="line2d_14">
      <g>
       <use style="stroke:#000000;stroke-width:0.8;" x="35.8" xlink:href="#ma6fd3d4b53" y="14.783088"/>
      </g>
     </g>
    </g>
    <g id="text_2">
     <!-- Amplitude of oscillation, $A$ -->
     <g transform="translate(22.7 232.95)rotate(-90)scale(0.1 -0.1)">
      <defs>
       <path d="M 34.1875 63.1875 
L 20.796875 26.90625 
L 47.609375 26.90625 
z
M 28.609375 72.90625 
L 39.796875 72.90625 
L 67.578125 0 
L 57.328125 0 
L 50.6875 18.703125 
L 17.828125 18.703125 
L 11.1875 0 
L 0.78125 0 
z
" id="DejaVuSans-65"/>
       <path d="M 52 44.1875 
Q 55.375 50.25 60.0625 53.125 
Q 64.75 56 71.09375 56 
Q 79.640625 56 84.28125 50.015625 
Q 88.921875 44.046875 88.921875 33.015625 
L 88.921875 0 
L 79.890625 0 
L 79.890625 32.71875 
Q 79.890625 40.578125 77.09375 44.375 
Q 74.3125 48.1875 68.609375 48.1875 
Q 61.625 48.1875 57.5625 43.546875 
Q 53.515625 38.921875 53.515625 30.90625 
L 53.515625 0 
L 44.484375 0 
L 44.484375 32.71875 
Q 44.484375 40.625 41.703125 44.40625 
Q 38.921875 48.1875 33.109375 48.1875 
Q 26.21875 48.1875 22.15625 43.53125 
Q 18.109375 38.875 18.109375 30.90625 
L 18.109375 0 
L 9.078125 0 
L 9.078125 54.6875 
L 18.109375 54.6875 
L 18.109375 46.1875 
Q 21.1875 51.21875 25.484375 53.609375 
Q 29.78125 56 35.6875 56 
Q 41.65625 56 45.828125 52.96875 
Q 50 49.953125 52 44.1875 
z
" id="DejaVuSans-109"/>
       <path d="M 18.109375 8.203125 
L 18.109375 -20.796875 
L 9.078125 -20.796875 
L 9.078125 54.6875 
L 18.109375 54.6875 
L 18.109375 46.390625 
Q 20.953125 51.265625 25.265625 53.625 
Q 29.59375 56 35.59375 56 
Q 45.5625 56 51.78125 48.09375 
Q 58.015625 40.1875 58.015625 27.296875 
Q 58.015625 14.40625 51.78125 6.484375 
Q 45.5625 -1.421875 35.59375 -1.421875 
Q 29.59375 -1.421875 25.265625 0.953125 
Q 20.953125 3.328125 18.109375 8.203125 
z
M 48.6875 27.296875 
Q 48.6875 37.203125 44.609375 42.84375 
Q 40.53125 48.484375 33.40625 48.484375 
Q 26.265625 48.484375 22.1875 42.84375 
Q 18.109375 37.203125 18.109375 27.296875 
Q 18.109375 17.390625 22.1875 11.75 
Q 26.265625 6.109375 33.40625 6.109375 
Q 40.53125 6.109375 44.609375 11.75 
Q 48.6875 17.390625 48.6875 27.296875 
z
" id="DejaVuSans-112"/>
       <path d="M 9.421875 75.984375 
L 18.40625 75.984375 
L 18.40625 0 
L 9.421875 0 
z
" id="DejaVuSans-108"/>
       <path d="M 18.3125 70.21875 
L 18.3125 54.6875 
L 36.8125 54.6875 
L 36.8125 47.703125 
L 18.3125 47.703125 
L 18.3125 18.015625 
Q 18.3125 11.328125 20.140625 9.421875 
Q 21.96875 7.515625 27.59375 7.515625 
L 36.8125 7.515625 
L 36.8125 0 
L 27.59375 0 
Q 17.1875 0 13.234375 3.875 
Q 9.28125 7.765625 9.28125 18.015625 
L 9.28125 47.703125 
L 2.6875 47.703125 
L 2.6875 54.6875 
L 9.28125 54.6875 
L 9.28125 70.21875 
z
" id="DejaVuSans-116"/>
       <path d="M 45.40625 46.390625 
L 45.40625 75.984375 
L 54.390625 75.984375 
L 54.390625 0 
L 45.40625 0 
L 45.40625 8.203125 
Q 42.578125 3.328125 38.25 0.953125 
Q 33.9375 -1.421875 27.875 -1.421875 
Q 17.96875 -1.421875 11.734375 6.484375 
Q 5.515625 14.40625 5.515625 27.296875 
Q 5.515625 40.1875 11.734375 48.09375 
Q 17.96875 56 27.875 56 
Q 33.9375 56 38.25 53.625 
Q 42.578125 51.265625 45.40625 46.390625 
z
M 14.796875 27.296875 
Q 14.796875 17.390625 18.875 11.75 
Q 22.953125 6.109375 30.078125 6.109375 
Q 37.203125 6.109375 41.296875 11.75 
Q 45.40625 17.390625 45.40625 27.296875 
Q 45.40625 37.203125 41.296875 42.84375 
Q 37.203125 48.484375 30.078125 48.484375 
Q 22.953125 48.484375 18.875 42.84375 
Q 14.796875 37.203125 14.796875 27.296875 
z
" id="DejaVuSans-100"/>
       <path d="M 30.609375 48.390625 
Q 23.390625 48.390625 19.1875 42.75 
Q 14.984375 37.109375 14.984375 27.296875 
Q 14.984375 17.484375 19.15625 11.84375 
Q 23.34375 6.203125 30.609375 6.203125 
Q 37.796875 6.203125 41.984375 11.859375 
Q 46.1875 17.53125 46.1875 27.296875 
Q 46.1875 37.015625 41.984375 42.703125 
Q 37.796875 48.390625 30.609375 48.390625 
z
M 30.609375 56 
Q 42.328125 56 49.015625 48.375 
Q 55.71875 40.765625 55.71875 27.296875 
Q 55.71875 13.875 49.015625 6.21875 
Q 42.328125 -1.421875 30.609375 -1.421875 
Q 18.84375 -1.421875 12.171875 6.21875 
Q 5.515625 13.875 5.515625 27.296875 
Q 5.515625 40.765625 12.171875 48.375 
Q 18.84375 56 30.609375 56 
z
" id="DejaVuSans-111"/>
       <path d="M 44.28125 53.078125 
L 44.28125 44.578125 
Q 40.484375 46.53125 36.375 47.5 
Q 32.28125 48.484375 27.875 48.484375 
Q 21.1875 48.484375 17.84375 46.4375 
Q 14.5 44.390625 14.5 40.28125 
Q 14.5 37.15625 16.890625 35.375 
Q 19.28125 33.59375 26.515625 31.984375 
L 29.59375 31.296875 
Q 39.15625 29.25 43.1875 25.515625 
Q 47.21875 21.78125 47.21875 15.09375 
Q 47.21875 7.46875 41.1875 3.015625 
Q 35.15625 -1.421875 24.609375 -1.421875 
Q 20.21875 -1.421875 15.453125 -0.5625 
Q 10.6875 0.296875 5.421875 2 
L 5.421875 11.28125 
Q 10.40625 8.6875 15.234375 7.390625 
Q 20.0625 6.109375 24.8125 6.109375 
Q 31.15625 6.109375 34.5625 8.28125 
Q 37.984375 10.453125 37.984375 14.40625 
Q 37.984375 18.0625 35.515625 20.015625 
Q 33.0625 21.96875 24.703125 23.78125 
L 21.578125 24.515625 
Q 13.234375 26.265625 9.515625 29.90625 
Q 5.8125 33.546875 5.8125 39.890625 
Q 5.8125 47.609375 11.28125 51.796875 
Q 16.75 56 26.8125 56 
Q 31.78125 56 36.171875 55.265625 
Q 40.578125 54.546875 44.28125 53.078125 
z
" id="DejaVuSans-115"/>
       <path d="M 34.28125 27.484375 
Q 23.390625 27.484375 19.1875 25 
Q 14.984375 22.515625 14.984375 16.5 
Q 14.984375 11.71875 18.140625 8.90625 
Q 21.296875 6.109375 26.703125 6.109375 
Q 34.1875 6.109375 38.703125 11.40625 
Q 43.21875 16.703125 43.21875 25.484375 
L 43.21875 27.484375 
z
M 52.203125 31.203125 
L 52.203125 0 
L 43.21875 0 
L 43.21875 8.296875 
Q 40.140625 3.328125 35.546875 0.953125 
Q 30.953125 -1.421875 24.3125 -1.421875 
Q 15.921875 -1.421875 10.953125 3.296875 
Q 6 8.015625 6 15.921875 
Q 6 25.140625 12.171875 29.828125 
Q 18.359375 34.515625 30.609375 34.515625 
L 43.21875 34.515625 
L 43.21875 35.40625 
Q 43.21875 41.609375 39.140625 45 
Q 35.0625 48.390625 27.6875 48.390625 
Q 23 48.390625 18.546875 47.265625 
Q 14.109375 46.140625 10.015625 43.890625 
L 10.015625 52.203125 
Q 14.9375 54.109375 19.578125 55.046875 
Q 24.21875 56 28.609375 56 
Q 40.484375 56 46.34375 49.84375 
Q 52.203125 43.703125 52.203125 31.203125 
z
" id="DejaVuSans-97"/>
       <path d="M 36.8125 72.90625 
L 48 72.90625 
L 61.53125 0 
L 51.21875 0 
L 48.1875 18.703125 
L 15.375 18.703125 
L 5.078125 0 
L -5.328125 0 
z
M 40.375 63.1875 
L 19.921875 26.90625 
L 46.6875 26.90625 
z
" id="DejaVuSans-Oblique-65"/>
      </defs>
      <use transform="translate(0 0.015625)" xlink:href="#DejaVuSans-65"/>
      <use transform="translate(68.408203 0.015625)" xlink:href="#DejaVuSans-109"/>
      <use transform="translate(165.820312 0.015625)" xlink:href="#DejaVuSans-112"/>
      <use transform="translate(229.296875 0.015625)" xlink:href="#DejaVuSans-108"/>
      <use transform="translate(257.080078 0.015625)" xlink:href="#DejaVuSans-105"/>
      <use transform="translate(284.863281 0.015625)" xlink:href="#DejaVuSans-116"/>
      <use transform="translate(324.072266 0.015625)" xlink:href="#DejaVuSans-117"/>
      <use transform="translate(387.451172 0.015625)" xlink:href="#DejaVuSans-100"/>
      <use transform="translate(450.927734 0.015625)" xlink:href="#DejaVuSans-101"/>
      <use transform="translate(512.451172 0.015625)" xlink:href="#DejaVuSans-32"/>
      <use transform="translate(544.238281 0.015625)" xlink:href="#DejaVuSans-111"/>
      <use transform="translate(605.419922 0.015625)" xlink:href="#DejaVuSans-102"/>
      <use transform="translate(640.625 0.015625)" xlink:href="#DejaVuSans-32"/>
      <use transform="translate(672.412109 0.015625)" xlink:href="#DejaVuSans-111"/>
      <use transform="translate(733.59375 0.015625)" xlink:href="#DejaVuSans-115"/>
      <use transform="translate(785.693359 0.015625)" xlink:href="#DejaVuSans-99"/>
      <use transform="translate(840.673828 0.015625)" xlink:href="#DejaVuSans-105"/>
      <use transform="translate(868.457031 0.015625)" xlink:href="#DejaVuSans-108"/>
      <use transform="translate(896.240234 0.015625)" xlink:href="#DejaVuSans-108"/>
      <use transform="translate(924.023438 0.015625)" xlink:href="#DejaVuSans-97"/>
      <use transform="translate(985.302734 0.015625)" xlink:href="#DejaVuSans-116"/>
      <use transform="translate(1024.511719 0.015625)" xlink:href="#DejaVuSans-105"/>
      <use transform="translate(1052.294922 0.015625)" xlink:href="#DejaVuSans-111"/>
      <use transform="translate(1113.476562 0.015625)" xlink:href="#DejaVuSans-110"/>
      <use transform="translate(1176.855469 0.015625)" xlink:href="#DejaVuSans-44"/>
      <use transform="translate(1208.642578 0.015625)" xlink:href="#DejaVuSans-32"/>
      <use transform="translate(1240.429688 0.015625)" xlink:href="#DejaVuSans-Oblique-65"/>
     </g>
    </g>
   </g>
   <g id="line2d_15">
    <path clip-path="url(#p16ead4bb89)" d="M 35.8 225.972409 
L 40.178081 225.868188 
L 44.556162 225.554276 
L 48.934243 225.026889 
L 53.312324 224.2796 
L 57.690404 223.303161 
L 62.068485 222.085232 
L 66.446566 220.610016 
L 70.824647 218.857776 
L 75.202728 216.804217 
L 79.580809 214.419687 
L 83.95889 211.668175 
L 88.336971 208.506042 
L 92.715051 204.880427 
L 97.093132 200.72726 
L 99.282173 198.429159 
L 101.471213 195.96879 
L 103.660254 193.333805 
L 105.849294 190.510596 
L 108.038335 187.484175 
L 110.227375 184.238042 
L 112.416415 180.754064 
L 114.605456 177.012353 
L 116.794496 172.991166 
L 118.983537 168.666843 
L 121.172577 164.013805 
L 123.361618 159.004661 
L 125.550658 153.61047 
L 127.739698 147.801264 
L 129.928739 141.546924 
L 132.117779 134.818622 
L 134.30682 127.59103 
L 136.49586 119.845649 
L 138.684901 111.575653 
L 140.873941 102.792748 
L 145.252022 83.886877 
L 151.819143 54.303172 
L 154.008184 45.221066 
L 156.197224 37.253657 
L 158.386265 30.940486 
L 160.575305 26.818904 
L 162.764346 25.337594 
L 164.953386 26.764877 
L 167.142426 31.123159 
L 169.331467 38.176949 
L 171.520507 47.480913 
L 173.709548 58.468617 
L 178.087629 83.183562 
L 182.465709 108.453097 
L 186.84379 132.004086 
L 189.032831 142.810174 
L 191.221871 152.914204 
L 193.410912 162.318453 
L 195.599952 171.045824 
L 197.788993 179.131435 
L 199.978033 186.616798 
L 202.167073 193.545922 
L 204.356114 199.962817 
L 206.545154 205.909963 
L 208.734195 211.42744 
L 210.923235 216.552489 
L 213.112276 221.319357 
L 215.301316 225.759317 
L 217.490357 229.900784 
L 219.679397 233.769502 
L 221.868437 237.388747 
L 224.057478 240.779539 
L 228.435559 246.949839 
L 232.81364 252.411232 
L 237.191721 257.270652 
L 241.569801 261.615866 
L 245.947882 265.519271 
L 250.325963 269.040924 
L 254.704044 272.23093 
L 259.082125 275.131334 
L 263.460206 277.777621 
L 267.838287 280.199902 
L 272.216368 282.423867 
L 278.783489 285.435309 
L 285.35061 288.111394 
L 291.917732 290.502208 
L 298.484853 292.648591 
L 305.051974 294.584143 
L 313.808136 296.884404 
L 322.564298 298.912672 
L 331.320459 300.711805 
L 342.265662 302.690458 
L 353.210864 304.41825 
L 364.156066 305.93726 
L 377.290309 307.531024 
L 392.613592 309.130916 
L 407.936875 310.503544 
L 425.449198 311.847649 
L 445.150562 313.129764 
L 467.040967 314.327761 
L 471.419048 314.543315 
L 471.419048 314.543315 
" style="fill:none;stroke:#0000ff;stroke-linecap:square;stroke-width:1.5;"/>
   </g>
   <g id="line2d_16">
    <defs>
     <path d="M 0 2.5 
C 0.663008 2.5 1.29895 2.236584 1.767767 1.767767 
C 2.236584 1.29895 2.5 0.663008 2.5 0 
C 2.5 -0.663008 2.236584 -1.29895 1.767767 -1.767767 
C 1.29895 -2.236584 0.663008 -2.5 0 -2.5 
C -0.663008 -2.5 -1.29895 -2.236584 -1.767767 -1.767767 
C -2.236584 -1.29895 -2.5 -0.663008 -2.5 0 
C -2.5 0.663008 -2.236584 1.29895 -1.767767 1.767767 
C -1.29895 2.236584 -0.663008 2.5 0 2.5 
z
" id="m99ede1bbad" style="stroke:#0000ff;"/>
    </defs>
    <g clip-path="url(#p16ead4bb89)">
     <use style="fill:#0000ff;stroke:#0000ff;" x="162.764346" xlink:href="#m99ede1bbad" y="25.337594"/>
    </g>
   </g>
   <g id="line2d_17">
    <path clip-path="url(#p16ead4bb89)" d="M 35.8 225.972409 
L 40.178081 225.886615 
L 44.556162 225.628629 
L 48.934243 225.196635 
L 53.312324 224.587609 
L 57.690404 223.797319 
L 62.068485 222.820341 
L 66.446566 221.650087 
L 70.824647 220.27887 
L 75.202728 218.698011 
L 79.580809 216.898039 
L 83.95889 214.868995 
L 88.336971 212.600929 
L 92.715051 210.084646 
L 97.093132 207.312824 
L 101.471213 204.281657 
L 105.849294 200.99319 
L 110.227375 197.458591 
L 114.605456 193.702577 
L 121.172577 187.756653 
L 129.928739 179.706792 
L 134.30682 175.947468 
L 136.49586 174.220469 
L 138.684901 172.635279 
L 140.873941 171.224456 
L 143.062982 170.021703 
L 145.252022 169.060841 
L 147.441062 168.374552 
L 149.630103 167.992957 
L 151.819143 167.942091 
L 154.008184 168.242425 
L 156.197224 168.907551 
L 158.386265 169.943181 
L 160.575305 171.346585 
L 162.764346 173.106527 
L 164.953386 175.203742 
L 167.142426 177.611893 
L 169.331467 180.298907 
L 171.520507 183.228565 
L 175.898588 189.660211 
L 180.276669 196.595662 
L 193.410912 217.846391 
L 197.788993 224.497141 
L 202.167073 230.773888 
L 206.545154 236.642101 
L 210.923235 242.092594 
L 215.301316 247.13305 
L 219.679397 251.781607 
L 224.057478 256.062273 
L 228.435559 260.001783 
L 232.81364 263.627556 
L 237.191721 266.966413 
L 241.569801 270.043825 
L 245.947882 272.883522 
L 250.325963 275.507326 
L 254.704044 277.935123 
L 261.271165 281.248241 
L 267.838287 284.214021 
L 274.405408 286.878155 
L 280.972529 289.279559 
L 287.539651 291.451378 
L 294.106772 293.421885 
L 302.862934 295.77734 
L 311.619095 297.865483 
L 320.375257 299.725629 
L 329.131419 301.390168 
L 340.076621 303.236238 
L 351.021823 304.861182 
L 364.156066 306.56731 
L 377.290309 308.05183 
L 392.613592 309.553111 
L 410.125915 311.020592 
L 429.827279 312.41735 
L 451.717684 313.719187 
L 471.419048 314.711641 
L 471.419048 314.711641 
" style="fill:none;stroke:#008000;stroke-linecap:square;stroke-width:1.5;"/>
   </g>
   <g id="line2d_18">
    <defs>
     <path d="M 0 2.5 
C 0.663008 2.5 1.29895 2.236584 1.767767 1.767767 
C 2.236584 1.29895 2.5 0.663008 2.5 0 
C 2.5 -0.663008 2.236584 -1.29895 1.767767 -1.767767 
C 1.29895 -2.236584 0.663008 -2.5 0 -2.5 
C -0.663008 -2.5 -1.29895 -2.236584 -1.767767 -1.767767 
C -2.236584 -1.29895 -2.5 -0.663008 -2.5 0 
C -2.5 0.663008 -2.236584 1.29895 -1.767767 1.767767 
C -1.29895 2.236584 -0.663008 2.5 0 2.5 
z
" id="m90504baf3c" style="stroke:#008000;"/>
    </defs>
    <g clip-path="url(#p16ead4bb89)">
     <use style="fill:#008000;stroke:#008000;" x="151.819143" xlink:href="#m90504baf3c" y="167.942091"/>
    </g>
   </g>
   <g id="line2d_19">
    <path clip-path="url(#p16ead4bb89)" d="M 35.8 225.972409 
L 42.367121 225.848466 
L 48.934243 225.47762 
L 55.501364 224.863068 
L 62.068485 224.011015 
L 68.635607 222.932055 
L 75.202728 221.643251 
L 83.95889 219.645888 
L 94.904092 216.852021 
L 105.849294 214.049813 
L 112.416415 212.579736 
L 116.794496 211.778676 
L 121.172577 211.180028 
L 125.550658 210.837276 
L 129.928739 210.803224 
L 134.30682 211.126294 
L 138.684901 211.846342 
L 143.062982 212.990508 
L 147.441062 214.569807 
L 151.819143 216.577111 
L 156.197224 218.987023 
L 160.575305 221.757743 
L 164.953386 224.83464 
L 169.331467 228.154896 
L 175.898588 233.447277 
L 197.788993 251.472769 
L 204.356114 256.478109 
L 210.923235 261.171562 
L 217.490357 265.531078 
L 224.057478 269.55383 
L 230.624599 273.249602 
L 237.191721 276.635779 
L 243.758842 279.733774 
L 250.325963 282.566623 
L 256.893084 285.157437 
L 263.460206 287.528466 
L 270.027327 289.700573 
L 278.783489 292.320274 
L 287.539651 294.661187 
L 296.295812 296.758941 
L 305.051974 298.644361 
L 315.997176 300.742647 
L 326.942379 302.594252 
L 337.887581 304.235516 
L 351.021823 305.969491 
L 364.156066 307.486466 
L 379.479349 309.027643 
L 396.991673 310.54027 
L 414.503996 311.836112 
L 434.20536 313.083701 
L 456.095765 314.259141 
L 471.419048 314.973627 
L 471.419048 314.973627 
" style="fill:none;stroke:#ff0000;stroke-linecap:square;stroke-width:1.5;"/>
   </g>
   <g id="line2d_20">
    <defs>
     <path d="M 0 2.5 
C 0.663008 2.5 1.29895 2.236584 1.767767 1.767767 
C 2.236584 1.29895 2.5 0.663008 2.5 0 
C 2.5 -0.663008 2.236584 -1.29895 1.767767 -1.767767 
C 1.29895 -2.236584 0.663008 -2.5 0 -2.5 
C -0.663008 -2.5 -1.29895 -2.236584 -1.767767 -1.767767 
C -2.236584 -1.29895 -2.5 -0.663008 -2.5 0 
C -2.5 0.663008 -2.236584 1.29895 -1.767767 1.767767 
C -1.29895 2.236584 -0.663008 2.5 0 2.5 
z
" id="me18e07d62d" style="stroke:#ff0000;"/>
    </defs>
    <g clip-path="url(#p16ead4bb89)">
     <use style="fill:#ff0000;stroke:#ff0000;" x="127.739698" xlink:href="#me18e07d62d" y="210.778486"/>
    </g>
   </g>
   <g id="line2d_21">
    <path clip-path="url(#p16ead4bb89)" d="M 35.8 225.972409 
L 48.934243 225.867009 
L 83.95889 225.390876 
L 90.526011 225.566301 
L 97.093132 225.948089 
L 103.660254 226.594315 
L 108.038335 227.199463 
L 112.416415 227.961081 
L 116.794496 228.890989 
L 121.172577 229.997706 
L 125.550658 231.28579 
L 129.928739 232.755366 
L 134.30682 234.401891 
L 140.873941 237.182253 
L 147.441062 240.290906 
L 154.008184 243.663233 
L 162.764346 248.441109 
L 191.221871 264.267016 
L 199.978033 268.768113 
L 208.734195 272.975462 
L 217.490357 276.866425 
L 226.246518 280.437716 
L 235.00268 283.698912 
L 243.758842 286.667361 
L 252.515004 289.364503 
L 261.271165 291.813367 
L 270.027327 294.036969 
L 278.783489 296.057349 
L 289.728691 298.328178 
L 300.673893 300.349739 
L 311.619095 302.153976 
L 324.753338 304.071072 
L 337.887581 305.756048 
L 353.210864 307.473889 
L 368.534147 308.967069 
L 386.04647 310.444828 
L 405.747834 311.867102 
L 427.638239 313.205548 
L 451.717684 314.442495 
L 471.419048 315.306442 
L 471.419048 315.306442 
" style="fill:none;stroke:#00bfbf;stroke-linecap:square;stroke-width:1.5;"/>
   </g>
   <g id="line2d_22">
    <defs>
     <path d="M 0 2.5 
C 0.663008 2.5 1.29895 2.236584 1.767767 1.767767 
C 2.236584 1.29895 2.5 0.663008 2.5 0 
C 2.5 -0.663008 2.236584 -1.29895 1.767767 -1.767767 
C 1.29895 -2.236584 0.663008 -2.5 0 -2.5 
C -0.663008 -2.5 -1.29895 -2.236584 -1.767767 -1.767767 
C -2.236584 -1.29895 -2.5 -0.663008 -2.5 0 
C -2.5 0.663008 -2.236584 1.29895 -1.767767 1.767767 
C -1.29895 2.236584 -0.663008 2.5 0 2.5 
z
" id="m8f5abc459a" style="stroke:#00bfbf;"/>
    </defs>
    <g clip-path="url(#p16ead4bb89)">
     <use style="fill:#00bfbf;stroke:#00bfbf;" x="79.580809" xlink:href="#m8f5abc459a" y="225.360456"/>
    </g>
   </g>
   <g id="line2d_23">
    <path clip-path="url(#p16ead4bb89)" d="M 35.8 225.972409 
L 42.367121 226.06904 
L 48.934243 226.360947 
L 55.501364 226.853918 
L 62.068485 227.556788 
L 68.635607 228.480257 
L 75.202728 229.635323 
L 81.769849 231.031436 
L 88.336971 232.674566 
L 94.904092 234.565376 
L 101.471213 236.697787 
L 108.038335 239.058128 
L 114.605456 241.625066 
L 123.361618 245.319339 
L 134.30682 250.2573 
L 173.709548 268.466749 
L 182.465709 272.183135 
L 191.221871 275.692203 
L 199.978033 278.979293 
L 208.734195 282.039611 
L 217.490357 284.875699 
L 226.246518 287.495205 
L 235.00268 289.909083 
L 243.758842 292.130194 
L 254.704044 294.656472 
L 265.649246 296.930121 
L 276.594448 298.97726 
L 287.539651 300.822267 
L 300.673893 302.800651 
L 313.808136 304.554162 
L 329.131419 306.35525 
L 344.454702 307.931048 
L 361.967026 309.499202 
L 381.66839 311.015764 
L 403.558794 312.448611 
L 427.638239 313.776848 
L 453.906724 314.989266 
L 471.419048 315.685748 
L 471.419048 315.685748 
" style="fill:none;stroke:#bf00bf;stroke-linecap:square;stroke-width:1.5;"/>
   </g>
   <g id="line2d_24">
    <defs>
     <path d="M 0 2.5 
C 0.663008 2.5 1.29895 2.236584 1.767767 1.767767 
C 2.236584 1.29895 2.5 0.663008 2.5 0 
C 2.5 -0.663008 2.236584 -1.29895 1.767767 -1.767767 
C 1.29895 -2.236584 0.663008 -2.5 0 -2.5 
C -0.663008 -2.5 -1.29895 -2.236584 -1.767767 -1.767767 
C -2.236584 -1.29895 -2.5 -0.663008 -2.5 0 
C -2.5 0.663008 -2.236584 1.29895 -1.767767 1.767767 
C -1.29895 2.236584 -0.663008 2.5 0 2.5 
z
" id="m045481e55f" style="stroke:#bf00bf;"/>
    </defs>
    <g clip-path="url(#p16ead4bb89)">
     <use style="fill:#bf00bf;stroke:#bf00bf;" x="35.8" xlink:href="#m045481e55f" y="225.972409"/>
    </g>
   </g>
   <g id="line2d_25">
    <path clip-path="url(#p16ead4bb89)" d="M 35.8 225.972409 
L 40.178081 226.082527 
L 44.556162 226.411404 
L 48.934243 226.95466 
L 53.312324 227.705157 
L 57.690404 228.653227 
L 62.068485 229.78698 
L 66.446566 231.092661 
L 73.013687 233.339943 
L 79.580809 235.884151 
L 86.14793 238.66756 
L 94.904092 242.652216 
L 108.038335 248.9614 
L 129.928739 259.52493 
L 140.873941 264.539706 
L 149.630103 268.346945 
L 158.386265 271.948168 
L 167.142426 275.332387 
L 175.898588 278.496624 
L 184.65475 281.443756 
L 193.410912 284.180753 
L 202.167073 286.71728 
L 213.112276 289.623322 
L 224.057478 292.257564 
L 235.00268 294.644127 
L 245.947882 296.806455 
L 256.893084 298.766677 
L 270.027327 300.880885 
L 283.16157 302.765478 
L 298.484853 304.711566 
L 313.808136 306.422598 
L 331.320459 308.132694 
L 348.832783 309.620786 
L 368.534147 311.072252 
L 390.424551 312.455136 
L 414.503996 313.747337 
L 440.772481 314.935634 
L 471.419048 316.089465 
L 471.419048 316.089465 
" style="fill:none;stroke:#bfbf00;stroke-linecap:square;stroke-width:1.5;"/>
   </g>
   <g id="line2d_26">
    <defs>
     <path d="M 0 2.5 
C 0.663008 2.5 1.29895 2.236584 1.767767 1.767767 
C 2.236584 1.29895 2.5 0.663008 2.5 0 
C 2.5 -0.663008 2.236584 -1.29895 1.767767 -1.767767 
C 1.29895 -2.236584 0.663008 -2.5 0 -2.5 
C -0.663008 -2.5 -1.29895 -2.236584 -1.767767 -1.767767 
C -2.236584 -1.29895 -2.5 -0.663008 -2.5 0 
C -2.5 0.663008 -2.236584 1.29895 -1.767767 1.767767 
C -1.29895 2.236584 -0.663008 2.5 0 2.5 
z
" id="m11372d1e8a" style="stroke:#bfbf00;"/>
    </defs>
    <g clip-path="url(#p16ead4bb89)">
     <use style="fill:#bfbf00;stroke:#bfbf00;" x="35.8" xlink:href="#m11372d1e8a" y="225.972409"/>
    </g>
   </g>
   <g id="line2d_27">
    <path clip-path="url(#p16ead4bb89)" d="M 166.485714 324.2 
L 166.485714 10.8 
" style="fill:none;stroke:#ff0000;stroke-dasharray:1.85,0.8;stroke-dashoffset:0;stroke-width:0.5;"/>
   </g>
   <g id="line2d_28">
    <path clip-path="url(#p16ead4bb89)" d="M 35.8 324.2 
L 35.8 10.8 
" style="fill:none;stroke:#000000;stroke-dasharray:1.85,0.8;stroke-dashoffset:0;stroke-width:0.5;"/>
   </g>
   <g id="line2d_29">
    <path clip-path="url(#p16ead4bb89)" d="M 35.8 324.2 
L 493.2 324.2 
" style="fill:none;stroke:#000000;stroke-dasharray:1.85,0.8;stroke-dashoffset:0;stroke-width:0.5;"/>
   </g>
   <g id="patch_3">
    <path d="M 35.8 324.2 
L 35.8 10.8 
" style="fill:none;stroke:#000000;stroke-linecap:square;stroke-linejoin:miter;stroke-width:0.8;"/>
   </g>
   <g id="patch_4">
    <path d="M 493.2 324.2 
L 493.2 10.8 
" style="fill:none;stroke:#000000;stroke-linecap:square;stroke-linejoin:miter;stroke-width:0.8;"/>
   </g>
   <g id="patch_5">
    <path d="M 35.8 324.2 
L 493.2 324.2 
" style="fill:none;stroke:#000000;stroke-linecap:square;stroke-linejoin:miter;stroke-width:0.8;"/>
   </g>
   <g id="patch_6">
    <path d="M 35.8 10.8 
L 493.2 10.8 
" style="fill:none;stroke:#000000;stroke-linecap:square;stroke-linejoin:miter;stroke-width:0.8;"/>
   </g>
   <g id="legend_1">
    <g id="patch_7">
     <path d="M 426.753125 106.86875 
L 486.2 106.86875 
Q 488.2 106.86875 488.2 104.86875 
L 488.2 17.8 
Q 488.2 15.8 486.2 15.8 
L 426.753125 15.8 
Q 424.753125 15.8 424.753125 17.8 
L 424.753125 104.86875 
Q 424.753125 106.86875 426.753125 106.86875 
z
" style="fill:#ffffff;opacity:0.8;stroke:#cccccc;stroke-linejoin:miter;"/>
    </g>
    <g id="line2d_30">
     <path d="M 428.753125 23.898438 
L 448.753125 23.898438 
" style="fill:none;stroke:#0000ff;stroke-linecap:square;stroke-width:1.5;"/>
    </g>
    <g id="line2d_31"/>
    <g id="text_3">
     <!-- b = 1 -->
     <g transform="translate(456.753125 27.398438)scale(0.1 -0.1)">
      <defs>
       <path d="M 48.6875 27.296875 
Q 48.6875 37.203125 44.609375 42.84375 
Q 40.53125 48.484375 33.40625 48.484375 
Q 26.265625 48.484375 22.1875 42.84375 
Q 18.109375 37.203125 18.109375 27.296875 
Q 18.109375 17.390625 22.1875 11.75 
Q 26.265625 6.109375 33.40625 6.109375 
Q 40.53125 6.109375 44.609375 11.75 
Q 48.6875 17.390625 48.6875 27.296875 
z
M 18.109375 46.390625 
Q 20.953125 51.265625 25.265625 53.625 
Q 29.59375 56 35.59375 56 
Q 45.5625 56 51.78125 48.09375 
Q 58.015625 40.1875 58.015625 27.296875 
Q 58.015625 14.40625 51.78125 6.484375 
Q 45.5625 -1.421875 35.59375 -1.421875 
Q 29.59375 -1.421875 25.265625 0.953125 
Q 20.953125 3.328125 18.109375 8.203125 
L 18.109375 0 
L 9.078125 0 
L 9.078125 75.984375 
L 18.109375 75.984375 
z
" id="DejaVuSans-98"/>
       <path d="M 10.59375 45.40625 
L 73.1875 45.40625 
L 73.1875 37.203125 
L 10.59375 37.203125 
z
M 10.59375 25.484375 
L 73.1875 25.484375 
L 73.1875 17.1875 
L 10.59375 17.1875 
z
" id="DejaVuSans-61"/>
       <path d="M 12.40625 8.296875 
L 28.515625 8.296875 
L 28.515625 63.921875 
L 10.984375 60.40625 
L 10.984375 69.390625 
L 28.421875 72.90625 
L 38.28125 72.90625 
L 38.28125 8.296875 
L 54.390625 8.296875 
L 54.390625 0 
L 12.40625 0 
z
" id="DejaVuSans-49"/>
      </defs>
      <use xlink:href="#DejaVuSans-98"/>
      <use x="63.476562" xlink:href="#DejaVuSans-32"/>
      <use x="95.263672" xlink:href="#DejaVuSans-61"/>
      <use x="179.052734" xlink:href="#DejaVuSans-32"/>
      <use x="210.839844" xlink:href="#DejaVuSans-49"/>
     </g>
    </g>
    <g id="line2d_32">
     <path d="M 428.753125 38.576563 
L 448.753125 38.576563 
" style="fill:none;stroke:#008000;stroke-linecap:square;stroke-width:1.5;"/>
    </g>
    <g id="line2d_33"/>
    <g id="text_4">
     <!-- b = 2 -->
     <g transform="translate(456.753125 42.076563)scale(0.1 -0.1)">
      <defs>
       <path d="M 19.1875 8.296875 
L 53.609375 8.296875 
L 53.609375 0 
L 7.328125 0 
L 7.328125 8.296875 
Q 12.9375 14.109375 22.625 23.890625 
Q 32.328125 33.6875 34.8125 36.53125 
Q 39.546875 41.84375 41.421875 45.53125 
Q 43.3125 49.21875 43.3125 52.78125 
Q 43.3125 58.59375 39.234375 62.25 
Q 35.15625 65.921875 28.609375 65.921875 
Q 23.96875 65.921875 18.8125 64.3125 
Q 13.671875 62.703125 7.8125 59.421875 
L 7.8125 69.390625 
Q 13.765625 71.78125 18.9375 73 
Q 24.125 74.21875 28.421875 74.21875 
Q 39.75 74.21875 46.484375 68.546875 
Q 53.21875 62.890625 53.21875 53.421875 
Q 53.21875 48.921875 51.53125 44.890625 
Q 49.859375 40.875 45.40625 35.40625 
Q 44.1875 33.984375 37.640625 27.21875 
Q 31.109375 20.453125 19.1875 8.296875 
z
" id="DejaVuSans-50"/>
      </defs>
      <use xlink:href="#DejaVuSans-98"/>
      <use x="63.476562" xlink:href="#DejaVuSans-32"/>
      <use x="95.263672" xlink:href="#DejaVuSans-61"/>
      <use x="179.052734" xlink:href="#DejaVuSans-32"/>
      <use x="210.839844" xlink:href="#DejaVuSans-50"/>
     </g>
    </g>
    <g id="line2d_34">
     <path d="M 428.753125 53.254688 
L 448.753125 53.254688 
" style="fill:none;stroke:#ff0000;stroke-linecap:square;stroke-width:1.5;"/>
    </g>
    <g id="line2d_35"/>
    <g id="text_5">
     <!-- b = 3 -->
     <g transform="translate(456.753125 56.754688)scale(0.1 -0.1)">
      <defs>
       <path d="M 40.578125 39.3125 
Q 47.65625 37.796875 51.625 33 
Q 55.609375 28.21875 55.609375 21.1875 
Q 55.609375 10.40625 48.1875 4.484375 
Q 40.765625 -1.421875 27.09375 -1.421875 
Q 22.515625 -1.421875 17.65625 -0.515625 
Q 12.796875 0.390625 7.625 2.203125 
L 7.625 11.71875 
Q 11.71875 9.328125 16.59375 8.109375 
Q 21.484375 6.890625 26.8125 6.890625 
Q 36.078125 6.890625 40.9375 10.546875 
Q 45.796875 14.203125 45.796875 21.1875 
Q 45.796875 27.640625 41.28125 31.265625 
Q 36.765625 34.90625 28.71875 34.90625 
L 20.21875 34.90625 
L 20.21875 43.015625 
L 29.109375 43.015625 
Q 36.375 43.015625 40.234375 45.921875 
Q 44.09375 48.828125 44.09375 54.296875 
Q 44.09375 59.90625 40.109375 62.90625 
Q 36.140625 65.921875 28.71875 65.921875 
Q 24.65625 65.921875 20.015625 65.03125 
Q 15.375 64.15625 9.8125 62.3125 
L 9.8125 71.09375 
Q 15.4375 72.65625 20.34375 73.4375 
Q 25.25 74.21875 29.59375 74.21875 
Q 40.828125 74.21875 47.359375 69.109375 
Q 53.90625 64.015625 53.90625 55.328125 
Q 53.90625 49.265625 50.4375 45.09375 
Q 46.96875 40.921875 40.578125 39.3125 
z
" id="DejaVuSans-51"/>
      </defs>
      <use xlink:href="#DejaVuSans-98"/>
      <use x="63.476562" xlink:href="#DejaVuSans-32"/>
      <use x="95.263672" xlink:href="#DejaVuSans-61"/>
      <use x="179.052734" xlink:href="#DejaVuSans-32"/>
      <use x="210.839844" xlink:href="#DejaVuSans-51"/>
     </g>
    </g>
    <g id="line2d_36">
     <path d="M 428.753125 67.932813 
L 448.753125 67.932813 
" style="fill:none;stroke:#00bfbf;stroke-linecap:square;stroke-width:1.5;"/>
    </g>
    <g id="line2d_37"/>
    <g id="text_6">
     <!-- b = 4 -->
     <g transform="translate(456.753125 71.432813)scale(0.1 -0.1)">
      <defs>
       <path d="M 37.796875 64.3125 
L 12.890625 25.390625 
L 37.796875 25.390625 
z
M 35.203125 72.90625 
L 47.609375 72.90625 
L 47.609375 25.390625 
L 58.015625 25.390625 
L 58.015625 17.1875 
L 47.609375 17.1875 
L 47.609375 0 
L 37.796875 0 
L 37.796875 17.1875 
L 4.890625 17.1875 
L 4.890625 26.703125 
z
" id="DejaVuSans-52"/>
      </defs>
      <use xlink:href="#DejaVuSans-98"/>
      <use x="63.476562" xlink:href="#DejaVuSans-32"/>
      <use x="95.263672" xlink:href="#DejaVuSans-61"/>
      <use x="179.052734" xlink:href="#DejaVuSans-32"/>
      <use x="210.839844" xlink:href="#DejaVuSans-52"/>
     </g>
    </g>
    <g id="line2d_38">
     <path d="M 428.753125 82.610938 
L 448.753125 82.610938 
" style="fill:none;stroke:#bf00bf;stroke-linecap:square;stroke-width:1.5;"/>
    </g>
    <g id="line2d_39"/>
    <g id="text_7">
     <!-- b = 5 -->
     <g transform="translate(456.753125 86.110938)scale(0.1 -0.1)">
      <defs>
       <path d="M 10.796875 72.90625 
L 49.515625 72.90625 
L 49.515625 64.59375 
L 19.828125 64.59375 
L 19.828125 46.734375 
Q 21.96875 47.46875 24.109375 47.828125 
Q 26.265625 48.1875 28.421875 48.1875 
Q 40.625 48.1875 47.75 41.5 
Q 54.890625 34.8125 54.890625 23.390625 
Q 54.890625 11.625 47.5625 5.09375 
Q 40.234375 -1.421875 26.90625 -1.421875 
Q 22.3125 -1.421875 17.546875 -0.640625 
Q 12.796875 0.140625 7.71875 1.703125 
L 7.71875 11.625 
Q 12.109375 9.234375 16.796875 8.0625 
Q 21.484375 6.890625 26.703125 6.890625 
Q 35.15625 6.890625 40.078125 11.328125 
Q 45.015625 15.765625 45.015625 23.390625 
Q 45.015625 31 40.078125 35.4375 
Q 35.15625 39.890625 26.703125 39.890625 
Q 22.75 39.890625 18.8125 39.015625 
Q 14.890625 38.140625 10.796875 36.28125 
z
" id="DejaVuSans-53"/>
      </defs>
      <use xlink:href="#DejaVuSans-98"/>
      <use x="63.476562" xlink:href="#DejaVuSans-32"/>
      <use x="95.263672" xlink:href="#DejaVuSans-61"/>
      <use x="179.052734" xlink:href="#DejaVuSans-32"/>
      <use x="210.839844" xlink:href="#DejaVuSans-53"/>
     </g>
    </g>
    <g id="line2d_40">
     <path d="M 428.753125 97.289063 
L 448.753125 97.289063 
" style="fill:none;stroke:#bfbf00;stroke-linecap:square;stroke-width:1.5;"/>
    </g>
    <g id="line2d_41"/>
    <g id="text_8">
     <!-- b = 6 -->
     <g transform="translate(456.753125 100.789063)scale(0.1 -0.1)">
      <defs>
       <path d="M 33.015625 40.375 
Q 26.375 40.375 22.484375 35.828125 
Q 18.609375 31.296875 18.609375 23.390625 
Q 18.609375 15.53125 22.484375 10.953125 
Q 26.375 6.390625 33.015625 6.390625 
Q 39.65625 6.390625 43.53125 10.953125 
Q 47.40625 15.53125 47.40625 23.390625 
Q 47.40625 31.296875 43.53125 35.828125 
Q 39.65625 40.375 33.015625 40.375 
z
M 52.59375 71.296875 
L 52.59375 62.3125 
Q 48.875 64.0625 45.09375 64.984375 
Q 41.3125 65.921875 37.59375 65.921875 
Q 27.828125 65.921875 22.671875 59.328125 
Q 17.53125 52.734375 16.796875 39.40625 
Q 19.671875 43.65625 24.015625 45.921875 
Q 28.375 48.1875 33.59375 48.1875 
Q 44.578125 48.1875 50.953125 41.515625 
Q 57.328125 34.859375 57.328125 23.390625 
Q 57.328125 12.15625 50.6875 5.359375 
Q 44.046875 -1.421875 33.015625 -1.421875 
Q 20.359375 -1.421875 13.671875 8.265625 
Q 6.984375 17.96875 6.984375 36.375 
Q 6.984375 53.65625 15.1875 63.9375 
Q 23.390625 74.21875 37.203125 74.21875 
Q 40.921875 74.21875 44.703125 73.484375 
Q 48.484375 72.75 52.59375 71.296875 
z
" id="DejaVuSans-54"/>
      </defs>
      <use xlink:href="#DejaVuSans-98"/>
      <use x="63.476562" xlink:href="#DejaVuSans-32"/>
      <use x="95.263672" xlink:href="#DejaVuSans-61"/>
      <use x="179.052734" xlink:href="#DejaVuSans-32"/>
      <use x="210.839844" xlink:href="#DejaVuSans-54"/>
     </g>
    </g>
   </g>
  </g>
 </g>
 <defs>
  <clipPath id="p16ead4bb89">
   <rect height="313.4" width="457.4" x="35.8" y="10.8"/>
  </clipPath>
 </defs>
</svg>
