<?xml version="1.0" encoding="utf-8" standalone="no"?>
<!DOCTYPE svg PUBLIC "-//W3C//DTD SVG 1.1//EN"
  "http://www.w3.org/Graphics/SVG/1.1/DTD/svg11.dtd">
<!-- Created with matplotlib (https://matplotlib.org/) -->
<svg height="720pt" version="1.1" viewBox="0 0 720 720" width="720pt" xmlns="http://www.w3.org/2000/svg" xmlns:xlink="http://www.w3.org/1999/xlink">
 <metadata>
  <rdf:RDF xmlns:cc="http://creativecommons.org/ns#" xmlns:dc="http://purl.org/dc/elements/1.1/" xmlns:rdf="http://www.w3.org/1999/02/22-rdf-syntax-ns#">
   <cc:Work>
    <dc:type rdf:resource="http://purl.org/dc/dcmitype/StillImage"/>
    <dc:date>2024-01-19T11:56:55.212491</dc:date>
    <dc:format>image/svg+xml</dc:format>
    <dc:creator>
     <cc:Agent>
      <dc:title>Matplotlib v3.3.2, https://matplotlib.org/</dc:title>
     </cc:Agent>
    </dc:creator>
   </cc:Work>
  </rdf:RDF>
 </metadata>
 <defs>
  <style type="text/css">*{stroke-linecap:butt;stroke-linejoin:round;}</style>
 </defs>
 <g id="figure_1">
  <g id="patch_1">
   <path d="M 0 720 
L 720 720 
L 720 0 
L 0 0 
z
" style="fill:none;"/>
  </g>
  <g id="axes_1">
   <g id="patch_2">
    <path clip-path="url(#pfa525d3e51)" d="M 447.3 360 
C 447.3 360 447.3 360 447.3 360 
C 447.3 360 447.3 360 447.3 360 
C 447.3 360 447.3 360 447.3 360 
C 447.3 360 447.3 360 447.3 360 
C 447.3 360 447.3 360 447.3 360 
C 447.3 360 447.3 360 447.3 360 
C 447.3 360 447.3 360 447.3 360 
C 447.3 360 447.3 360 447.3 360 
z
" style="fill:none;opacity:0.8;stroke:#0000ff;stroke-linejoin:miter;"/>
   </g>
   <g id="patch_3">
    <path clip-path="url(#pfa525d3e51)" d="M 425.475 403.65 
C 437.051115 403.65 448.154661 399.050761 456.340211 390.865211 
C 464.525761 382.679661 469.125 371.576115 469.125 360 
C 469.125 348.423885 464.525761 337.320339 456.340211 329.134789 
C 448.154661 320.949239 437.051115 316.35 425.475 316.35 
C 413.898885 316.35 402.795339 320.949239 394.609789 329.134789 
C 386.424239 337.320339 381.825 348.423885 381.825 360 
C 381.825 371.576115 386.424239 382.679661 394.609789 390.865211 
C 402.795339 399.050761 413.898885 403.65 425.475 403.65 
z
" style="fill:none;opacity:0.711674;stroke:#0000ff;stroke-linejoin:miter;"/>
   </g>
   <g id="patch_4">
    <path clip-path="url(#pfa525d3e51)" d="M 403.65 447.3 
C 426.802231 447.3 449.009323 438.101521 465.380422 421.730422 
C 481.751521 405.359323 490.95 383.152231 490.95 360 
C 490.95 336.847769 481.751521 314.640677 465.380422 298.269578 
C 449.009323 281.898479 426.802231 272.7 403.65 272.7 
C 380.497769 272.7 358.290677 281.898479 341.919578 298.269578 
C 325.548479 314.640677 316.35 336.847769 316.35 360 
C 316.35 383.152231 325.548479 405.359323 341.919578 421.730422 
C 358.290677 438.101521 380.497769 447.3 403.65 447.3 
z
" style="fill:none;opacity:0.628512;stroke:#0000ff;stroke-linejoin:miter;"/>
   </g>
   <g id="patch_5">
    <path clip-path="url(#pfa525d3e51)" d="M 381.825 490.95 
C 416.553346 490.95 449.863984 477.152282 474.420633 452.595633 
C 498.977282 428.038984 512.775 394.728346 512.775 360 
C 512.775 325.271654 498.977282 291.961016 474.420633 267.404367 
C 449.863984 242.847718 416.553346 229.05 381.825 229.05 
C 347.096654 229.05 313.786016 242.847718 289.229367 267.404367 
C 264.672718 291.961016 250.875 325.271654 250.875 360 
C 250.875 394.728346 264.672718 428.038984 289.229367 452.595633 
C 313.786016 477.152282 347.096654 490.95 381.825 490.95 
z
" style="fill:none;opacity:0.550517;stroke:#0000ff;stroke-linejoin:miter;"/>
   </g>
   <g id="patch_6">
    <path clip-path="url(#pfa525d3e51)" d="M 360 534.6 
C 406.304461 534.6 450.718645 516.203043 483.460844 483.460844 
C 516.203043 450.718645 534.6 406.304461 534.6 360 
C 534.6 313.695539 516.203043 269.281355 483.460844 236.539156 
C 450.718645 203.796957 406.304461 185.4 360 185.4 
C 313.695539 185.4 269.281355 203.796957 236.539156 236.539156 
C 203.796957 269.281355 185.4 313.695539 185.4 360 
C 185.4 406.304461 203.796957 450.718645 236.539156 483.460844 
C 269.281355 516.203043 313.695539 534.6 360 534.6 
z
" style="fill:none;opacity:0.477686;stroke:#0000ff;stroke-linejoin:miter;"/>
   </g>
   <g id="patch_7">
    <path clip-path="url(#pfa525d3e51)" d="M 338.175 578.25 
C 396.055577 578.25 451.573307 555.253803 492.501055 514.326055 
C 533.428803 473.398307 556.425 417.880577 556.425 360 
C 556.425 302.119423 533.428803 246.601693 492.501055 205.673945 
C 451.573307 164.746197 396.055577 141.75 338.175 141.75 
C 280.294423 141.75 224.776693 164.746197 183.848945 205.673945 
C 142.921197 246.601693 119.925 302.119423 119.925 360 
C 119.925 417.880577 142.921197 473.398307 183.848945 514.326055 
C 224.776693 555.253803 280.294423 578.25 338.175 578.25 
z
" style="fill:none;opacity:0.410021;stroke:#0000ff;stroke-linejoin:miter;"/>
   </g>
   <g id="patch_8">
    <path clip-path="url(#pfa525d3e51)" d="M 316.35 621.9 
C 385.806692 621.9 452.427968 594.304564 501.541266 545.191266 
C 550.654564 496.077968 578.25 429.456692 578.25 360 
C 578.25 290.543308 550.654564 223.922032 501.541266 174.808734 
C 452.427968 125.695436 385.806692 98.1 316.35 98.1 
C 246.893308 98.1 180.272032 125.695436 131.158734 174.808734 
C 82.045436 223.922032 54.45 290.543308 54.45 360 
C 54.45 429.456692 82.045436 496.077968 131.158734 545.191266 
C 180.272032 594.304564 246.893308 621.9 316.35 621.9 
z
" style="fill:none;opacity:0.347521;stroke:#0000ff;stroke-linejoin:miter;"/>
   </g>
   <g id="patch_9">
    <path clip-path="url(#pfa525d3e51)" d="M 294.525 665.55 
C 375.557807 665.55 453.28263 633.355324 510.581477 576.056477 
C 567.880324 518.75763 600.075 441.032807 600.075 360 
C 600.075 278.967193 567.880324 201.24237 510.581477 143.943523 
C 453.28263 86.644676 375.557807 54.45 294.525 54.45 
C 213.492193 54.45 135.76737 86.644676 78.468523 143.943523 
C 21.169676 201.24237 -11.025 278.967193 -11.025 360 
C -11.025 441.032807 21.169676 518.75763 78.468523 576.056477 
C 135.76737 633.355324 213.492193 665.55 294.525 665.55 
z
" style="fill:none;opacity:0.290186;stroke:#0000ff;stroke-linejoin:miter;"/>
   </g>
   <g id="patch_10">
    <path clip-path="url(#pfa525d3e51)" d="M 272.7 709.2 
C 365.308923 709.2 454.137291 672.406085 519.621688 606.921688 
C 585.106085 541.437291 621.9 452.608923 621.9 360 
C 621.9 267.391077 585.106085 178.562709 519.621688 113.078312 
C 454.137291 47.593915 365.308923 10.8 272.7 10.8 
C 180.091077 10.8 91.262709 47.593915 25.778312 113.078312 
C -39.706085 178.562709 -76.5 267.391077 -76.5 360 
C -76.5 452.608923 -39.706085 541.437291 25.778312 606.921688 
C 91.262709 672.406085 180.091077 709.2 272.7 709.2 
z
" style="fill:none;opacity:0.238017;stroke:#0000ff;stroke-linejoin:miter;"/>
   </g>
   <g id="patch_11">
    <path clip-path="url(#pfa525d3e51)" d="M 250.875 752.85 
C 355.060038 752.85 454.991952 711.456846 528.661899 637.786899 
C 602.331846 564.116952 643.725 464.185038 643.725 360 
C 643.725 255.814962 602.331846 155.883048 528.661899 82.213101 
C 454.991952 8.543154 355.060038 -32.85 250.875 -32.85 
C 146.689962 -32.85 46.758048 8.543154 -26.911899 82.213101 
C -100.581846 155.883048 -141.975 255.814962 -141.975 360 
C -141.975 464.185038 -100.581846 564.116952 -26.911899 637.786899 
C 46.758048 711.456846 146.689962 752.85 250.875 752.85 
z
" style="fill:none;opacity:0.191012;stroke:#0000ff;stroke-linejoin:miter;"/>
   </g>
   <g id="patch_12">
    <path clip-path="url(#pfa525d3e51)" d="M 229.05 796.5 
C 344.811153 796.5 455.846614 750.507606 537.70211 668.65211 
C 619.557606 586.796614 665.55 475.761153 665.55 360 
C 665.55 244.238847 619.557606 133.203386 537.70211 51.34789 
C 455.846614 -30.507606 344.811153 -76.5 229.05 -76.5 
C 113.288847 -76.5 2.253386 -30.507606 -79.60211 51.34789 
C -161.457606 133.203386 -207.45 244.238847 -207.45 360 
C -207.45 475.761153 -161.457606 586.796614 -79.60211 668.65211 
C 2.253386 750.507606 113.288847 796.5 229.05 796.5 
z
" style="fill:none;opacity:0.149174;stroke:#0000ff;stroke-linejoin:miter;"/>
   </g>
   <g id="patch_13">
    <path clip-path="url(#pfa525d3e51)" d="M 447.3 366.984 
C 449.152178 366.984 450.928746 366.248122 452.238434 364.938434 
C 453.548122 363.628746 454.284 361.852178 454.284 360 
C 454.284 358.147822 453.548122 356.371254 452.238434 355.061566 
C 450.928746 353.751878 449.152178 353.016 447.3 353.016 
C 445.447822 353.016 443.671254 353.751878 442.361566 355.061566 
C 441.051878 356.371254 440.316 358.147822 440.316 360 
C 440.316 361.852178 441.051878 363.628746 442.361566 364.938434 
C 443.671254 366.248122 445.447822 366.984 447.3 366.984 
z
" style="stroke:#000000;stroke-linejoin:miter;"/>
   </g>
  </g>
 </g>
 <defs>
  <clipPath id="pfa525d3e51">
   <rect height="698.4" width="698.4" x="10.8" y="10.8"/>
  </clipPath>
 </defs>
</svg>
